<?xml version="1.0" encoding="utf-8" standalone="no"?>
<!DOCTYPE svg PUBLIC "-//W3C//DTD SVG 1.1//EN"
  "http://www.w3.org/Graphics/SVG/1.1/DTD/svg11.dtd">
<!-- Created with matplotlib (https://matplotlib.org/) -->
<svg height="487.265pt" version="1.1" viewBox="0 0 770.065625 487.265" width="770.065625pt" xmlns="http://www.w3.org/2000/svg" xmlns:xlink="http://www.w3.org/1999/xlink">
 <defs>
  <style type="text/css">
*{stroke-linecap:butt;stroke-linejoin:round;}
  </style>
 </defs>
 <g id="figure_1">
  <g id="patch_1">
   <path d="M 0 487.265
L 770.065625 487.265
L 770.065625 0
L 0 0
z
" style="fill:none;"/>
  </g>
  <g id="axes_1">
   <g id="patch_2">
    <path d="M 40.4525 453.0375
L 598.4525 453.0375
L 598.4525 18.1575
L 40.4525 18.1575
z
" style="fill:none;"/>
   </g>
   <g id="patch_3">
    <path clip-path="url(#p2ce3c6dd01)" d="M 45.525227 453.0375
L 55.670682 453.0375
L 55.670682 437.10783
L 45.525227 437.10783
z
" style="fill:#2e3e7e;"/>
   </g>
   <g id="patch_4">
    <path clip-path="url(#p2ce3c6dd01)" d="M 96.2525 453.0375
L 106.397955 453.0375
L 106.397955 437.10783
L 96.2525 437.10783
z
" style="fill:#2e3e7e;"/>
   </g>
   <g id="patch_5">
    <path clip-path="url(#p2ce3c6dd01)" d="M 146.979773 453.0375
L 157.125227 453.0375
L 157.125227 437.10783
L 146.979773 437.10783
z
" style="fill:#2e3e7e;"/>
   </g>
   <g id="patch_6">
    <path clip-path="url(#p2ce3c6dd01)" d="M 197.707045 453.0375
L 207.8525 453.0375
L 207.8525 453.0375
L 197.707045 453.0375
z
" style="fill:#2e3e7e;"/>
   </g>
   <g id="patch_7">
    <path clip-path="url(#p2ce3c6dd01)" d="M 248.434318 453.0375
L 258.579773 453.0375
L 258.579773 437.10783
L 248.434318 437.10783
z
" style="fill:#2e3e7e;"/>
   </g>
   <g id="patch_8">
    <path clip-path="url(#p2ce3c6dd01)" d="M 299.161591 453.0375
L 309.307045 453.0375
L 309.307045 437.10783
L 299.161591 437.10783
z
" style="fill:#2e3e7e;"/>
   </g>
   <g id="patch_9">
    <path clip-path="url(#p2ce3c6dd01)" d="M 349.888864 453.0375
L 360.034318 453.0375
L 360.034318 453.0375
L 349.888864 453.0375
z
" style="fill:#2e3e7e;"/>
   </g>
   <g id="patch_10">
    <path clip-path="url(#p2ce3c6dd01)" d="M 400.616136 453.0375
L 410.761591 453.0375
L 410.761591 437.10783
L 400.616136 437.10783
z
" style="fill:#2e3e7e;"/>
   </g>
   <g id="patch_11">
    <path clip-path="url(#p2ce3c6dd01)" d="M 451.343409 453.0375
L 461.488864 453.0375
L 461.488864 421.178159
L 451.343409 421.178159
z
" style="fill:#2e3e7e;"/>
   </g>
   <g id="patch_12">
    <path clip-path="url(#p2ce3c6dd01)" d="M 502.070682 453.0375
L 512.216136 453.0375
L 512.216136 421.178159
L 502.070682 421.178159
z
" style="fill:#2e3e7e;"/>
   </g>
   <g id="patch_13">
    <path clip-path="url(#p2ce3c6dd01)" d="M 552.797955 453.0375
L 562.943409 453.0375
L 562.943409 298.328611
L 552.797955 298.328611
z
" style="fill:#2e3e7e;"/>
   </g>
   <g id="patch_14">
    <path clip-path="url(#p2ce3c6dd01)" d="M 55.670682 453.0375
L 65.816136 453.0375
L 65.816136 118.514423
L 55.670682 118.514423
z
" style="fill:#abb1cb;"/>
   </g>
   <g id="patch_15">
    <path clip-path="url(#p2ce3c6dd01)" d="M 106.397955 453.0375
L 116.543409 453.0375
L 116.543409 150.373764
L 106.397955 150.373764
z
" style="fill:#abb1cb;"/>
   </g>
   <g id="patch_16">
    <path clip-path="url(#p2ce3c6dd01)" d="M 157.125227 453.0375
L 167.270682 453.0375
L 167.270682 118.514423
L 157.125227 118.514423
z
" style="fill:#abb1cb;"/>
   </g>
   <g id="patch_17">
    <path clip-path="url(#p2ce3c6dd01)" d="M 207.8525 453.0375
L 217.997955 453.0375
L 217.997955 54.795742
L 207.8525 54.795742
z
" style="fill:#abb1cb;"/>
   </g>
   <g id="patch_18">
    <path clip-path="url(#p2ce3c6dd01)" d="M 258.579773 453.0375
L 268.725227 453.0375
L 268.725227 102.584753
L 258.579773 102.584753
z
" style="fill:#abb1cb;"/>
   </g>
   <g id="patch_19">
    <path clip-path="url(#p2ce3c6dd01)" d="M 309.307045 453.0375
L 319.4525 453.0375
L 319.4525 38.866071
L 309.307045 38.866071
z
" style="fill:#abb1cb;"/>
   </g>
   <g id="patch_20">
    <path clip-path="url(#p2ce3c6dd01)" d="M 360.034318 453.0375
L 370.179773 453.0375
L 370.179773 166.303434
L 360.034318 166.303434
z
" style="fill:#abb1cb;"/>
   </g>
   <g id="patch_21">
    <path clip-path="url(#p2ce3c6dd01)" d="M 410.761591 453.0375
L 420.907045 453.0375
L 420.907045 102.584753
L 410.761591 102.584753
z
" style="fill:#abb1cb;"/>
   </g>
   <g id="patch_22">
    <path clip-path="url(#p2ce3c6dd01)" d="M 461.488864 453.0375
L 471.634318 453.0375
L 471.634318 102.584753
L 461.488864 102.584753
z
" style="fill:#abb1cb;"/>
   </g>
   <g id="patch_23">
    <path clip-path="url(#p2ce3c6dd01)" d="M 512.216136 453.0375
L 522.361591 453.0375
L 522.361591 166.303434
L 512.216136 166.303434
z
" style="fill:#abb1cb;"/>
   </g>
   <g id="patch_24">
    <path clip-path="url(#p2ce3c6dd01)" d="M 562.943409 453.0375
L 573.088864 453.0375
L 573.088864 299.008606
L 562.943409 299.008606
z
" style="fill:#abb1cb;"/>
   </g>
   <g id="patch_25">
    <path clip-path="url(#p2ce3c6dd01)" d="M 65.816136 453.0375
L 75.961591 453.0375
L 75.961591 293.378286
L 65.816136 293.378286
z
" style="fill:#e38061;"/>
   </g>
   <g id="patch_26">
    <path clip-path="url(#p2ce3c6dd01)" d="M 116.543409 453.0375
L 126.688864 453.0375
L 126.688864 293.378286
L 116.543409 293.378286
z
" style="fill:#e38061;"/>
   </g>
   <g id="patch_27">
    <path clip-path="url(#p2ce3c6dd01)" d="M 167.270682 453.0375
L 177.416136 453.0375
L 177.416136 293.378286
L 167.270682 293.378286
z
" style="fill:#e38061;"/>
   </g>
   <g id="patch_28">
    <path clip-path="url(#p2ce3c6dd01)" d="M 217.997955 453.0375
L 228.143409 453.0375
L 228.143409 292.778063
L 217.997955 292.778063
z
" style="fill:#e38061;"/>
   </g>
   <g id="patch_29">
    <path clip-path="url(#p2ce3c6dd01)" d="M 268.725227 453.0375
L 278.870682 453.0375
L 278.870682 293.378286
L 268.725227 293.378286
z
" style="fill:#e38061;"/>
   </g>
   <g id="patch_30">
    <path clip-path="url(#p2ce3c6dd01)" d="M 319.4525 453.0375
L 329.597955 453.0375
L 329.597955 293.378286
L 319.4525 293.378286
z
" style="fill:#e38061;"/>
   </g>
   <g id="patch_31">
    <path clip-path="url(#p2ce3c6dd01)" d="M 370.179773 453.0375
L 380.325227 453.0375
L 380.325227 292.778063
L 370.179773 292.778063
z
" style="fill:#e38061;"/>
   </g>
   <g id="patch_32">
    <path clip-path="url(#p2ce3c6dd01)" d="M 420.907045 453.0375
L 431.0525 453.0375
L 431.0525 293.378286
L 420.907045 293.378286
z
" style="fill:#e38061;"/>
   </g>
   <g id="patch_33">
    <path clip-path="url(#p2ce3c6dd01)" d="M 471.634318 453.0375
L 481.779773 453.0375
L 481.779773 293.978509
L 471.634318 293.978509
z
" style="fill:#e38061;"/>
   </g>
   <g id="patch_34">
    <path clip-path="url(#p2ce3c6dd01)" d="M 522.361591 453.0375
L 532.507045 453.0375
L 532.507045 293.978509
L 522.361591 293.978509
z
" style="fill:#e38061;"/>
   </g>
   <g id="patch_35">
    <path clip-path="url(#p2ce3c6dd01)" d="M 573.088864 453.0375
L 583.234318 453.0375
L 583.234318 298.725478
L 573.088864 298.725478
z
" style="fill:#e38061;"/>
   </g>
   <g id="patch_36">
    <path clip-path="url(#p2ce3c6dd01)" d="M 75.961591 453.0375
L 86.107045 453.0375
L 86.107045 305.382738
L 75.961591 305.382738
z
" style="fill:#f3ccc0;"/>
   </g>
   <g id="patch_37">
    <path clip-path="url(#p2ce3c6dd01)" d="M 126.688864 453.0375
L 136.834318 453.0375
L 136.834318 304.182293
L 126.688864 304.182293
z
" style="fill:#f3ccc0;"/>
   </g>
   <g id="patch_38">
    <path clip-path="url(#p2ce3c6dd01)" d="M 177.416136 453.0375
L 187.561591 453.0375
L 187.561591 305.382738
L 177.416136 305.382738
z
" style="fill:#f3ccc0;"/>
   </g>
   <g id="patch_39">
    <path clip-path="url(#p2ce3c6dd01)" d="M 228.143409 453.0375
L 238.288864 453.0375
L 238.288864 307.783629
L 228.143409 307.783629
z
" style="fill:#f3ccc0;"/>
   </g>
   <g id="patch_40">
    <path clip-path="url(#p2ce3c6dd01)" d="M 278.870682 453.0375
L 289.016136 453.0375
L 289.016136 305.982961
L 278.870682 305.982961
z
" style="fill:#f3ccc0;"/>
   </g>
   <g id="patch_41">
    <path clip-path="url(#p2ce3c6dd01)" d="M 329.597955 453.0375
L 339.743409 453.0375
L 339.743409 308.383851
L 329.597955 308.383851
z
" style="fill:#f3ccc0;"/>
   </g>
   <g id="patch_42">
    <path clip-path="url(#p2ce3c6dd01)" d="M 380.325227 453.0375
L 390.470682 453.0375
L 390.470682 303.58207
L 380.325227 303.58207
z
" style="fill:#f3ccc0;"/>
   </g>
   <g id="patch_43">
    <path clip-path="url(#p2ce3c6dd01)" d="M 431.0525 453.0375
L 441.197955 453.0375
L 441.197955 305.982961
L 431.0525 305.982961
z
" style="fill:#f3ccc0;"/>
   </g>
   <g id="patch_44">
    <path clip-path="url(#p2ce3c6dd01)" d="M 481.779773 453.0375
L 491.925227 453.0375
L 491.925227 305.982961
L 481.779773 305.982961
z
" style="fill:#f3ccc0;"/>
   </g>
   <g id="patch_45">
    <path clip-path="url(#p2ce3c6dd01)" d="M 532.507045 453.0375
L 542.6525 453.0375
L 542.6525 303.58207
L 532.507045 303.58207
z
" style="fill:#f3ccc0;"/>
   </g>
   <g id="patch_46">
    <path clip-path="url(#p2ce3c6dd01)" d="M 583.234318 453.0375
L 593.379773 453.0375
L 593.379773 298.629477
L 583.234318 298.629477
z
" style="fill:#f3ccc0;"/>
   </g>
   <g id="matplotlib.axis_1">
    <g id="xtick_1">
     <g id="line2d_1">
      <defs>
       <path d="M 0 0
L 0 3.5
" id="m9594303ece" style="stroke:#000000;stroke-width:0.8;"/>
      </defs>
      <g>
       <use style="stroke:#000000;stroke-width:0.8;" x="65.816136" xlink:href="#m9594303ece" y="453.0375"/>
      </g>
     </g>
     <g id="text_1">
      <!-- 1 -->
      <defs>
       <path d="M 12.40625 8.296875
L 28.515625 8.296875
L 28.515625 63.921875
L 10.984375 60.40625
L 10.984375 69.390625
L 28.421875 72.90625
L 38.28125 72.90625
L 38.28125 8.296875
L 54.390625 8.296875
L 54.390625 0
L 12.40625 0
z
" id="DejaVuSans-49"/>
      </defs>
      <g transform="translate(62.634886 467.635938)scale(0.1 -0.1)">
       <use xlink:href="#DejaVuSans-49"/>
      </g>
     </g>
    </g>
    <g id="xtick_2">
     <g id="line2d_2">
      <g>
       <use style="stroke:#000000;stroke-width:0.8;" x="116.543409" xlink:href="#m9594303ece" y="453.0375"/>
      </g>
     </g>
     <g id="text_2">
      <!-- 2 -->
      <defs>
       <path d="M 19.1875 8.296875
L 53.609375 8.296875
L 53.609375 0
L 7.328125 0
L 7.328125 8.296875
Q 12.9375 14.109375 22.625 23.890625
Q 32.328125 33.6875 34.8125 36.53125
Q 39.546875 41.84375 41.421875 45.53125
Q 43.3125 49.21875 43.3125 52.78125
Q 43.3125 58.59375 39.234375 62.25
Q 35.15625 65.921875 28.609375 65.921875
Q 23.96875 65.921875 18.8125 64.3125
Q 13.671875 62.703125 7.8125 59.421875
L 7.8125 69.390625
Q 13.765625 71.78125 18.9375 73
Q 24.125 74.21875 28.421875 74.21875
Q 39.75 74.21875 46.484375 68.546875
Q 53.21875 62.890625 53.21875 53.421875
Q 53.21875 48.921875 51.53125 44.890625
Q 49.859375 40.875 45.40625 35.40625
Q 44.1875 33.984375 37.640625 27.21875
Q 31.109375 20.453125 19.1875 8.296875
z
" id="DejaVuSans-50"/>
      </defs>
      <g transform="translate(113.362159 467.635938)scale(0.1 -0.1)">
       <use xlink:href="#DejaVuSans-50"/>
      </g>
     </g>
    </g>
    <g id="xtick_3">
     <g id="line2d_3">
      <g>
       <use style="stroke:#000000;stroke-width:0.8;" x="167.270682" xlink:href="#m9594303ece" y="453.0375"/>
      </g>
     </g>
     <g id="text_3">
      <!-- 3 -->
      <defs>
       <path d="M 40.578125 39.3125
Q 47.65625 37.796875 51.625 33
Q 55.609375 28.21875 55.609375 21.1875
Q 55.609375 10.40625 48.1875 4.484375
Q 40.765625 -1.421875 27.09375 -1.421875
Q 22.515625 -1.421875 17.65625 -0.515625
Q 12.796875 0.390625 7.625 2.203125
L 7.625 11.71875
Q 11.71875 9.328125 16.59375 8.109375
Q 21.484375 6.890625 26.8125 6.890625
Q 36.078125 6.890625 40.9375 10.546875
Q 45.796875 14.203125 45.796875 21.1875
Q 45.796875 27.640625 41.28125 31.265625
Q 36.765625 34.90625 28.71875 34.90625
L 20.21875 34.90625
L 20.21875 43.015625
L 29.109375 43.015625
Q 36.375 43.015625 40.234375 45.921875
Q 44.09375 48.828125 44.09375 54.296875
Q 44.09375 59.90625 40.109375 62.90625
Q 36.140625 65.921875 28.71875 65.921875
Q 24.65625 65.921875 20.015625 65.03125
Q 15.375 64.15625 9.8125 62.3125
L 9.8125 71.09375
Q 15.4375 72.65625 20.34375 73.4375
Q 25.25 74.21875 29.59375 74.21875
Q 40.828125 74.21875 47.359375 69.109375
Q 53.90625 64.015625 53.90625 55.328125
Q 53.90625 49.265625 50.4375 45.09375
Q 46.96875 40.921875 40.578125 39.3125
z
" id="DejaVuSans-51"/>
      </defs>
      <g transform="translate(164.089432 467.635938)scale(0.1 -0.1)">
       <use xlink:href="#DejaVuSans-51"/>
      </g>
     </g>
    </g>
    <g id="xtick_4">
     <g id="line2d_4">
      <g>
       <use style="stroke:#000000;stroke-width:0.8;" x="217.997955" xlink:href="#m9594303ece" y="453.0375"/>
      </g>
     </g>
     <g id="text_4">
      <!-- 4 -->
      <defs>
       <path d="M 37.796875 64.3125
L 12.890625 25.390625
L 37.796875 25.390625
z
M 35.203125 72.90625
L 47.609375 72.90625
L 47.609375 25.390625
L 58.015625 25.390625
L 58.015625 17.1875
L 47.609375 17.1875
L 47.609375 0
L 37.796875 0
L 37.796875 17.1875
L 4.890625 17.1875
L 4.890625 26.703125
z
" id="DejaVuSans-52"/>
      </defs>
      <g transform="translate(214.816705 467.635938)scale(0.1 -0.1)">
       <use xlink:href="#DejaVuSans-52"/>
      </g>
     </g>
    </g>
    <g id="xtick_5">
     <g id="line2d_5">
      <g>
       <use style="stroke:#000000;stroke-width:0.8;" x="268.725227" xlink:href="#m9594303ece" y="453.0375"/>
      </g>
     </g>
     <g id="text_5">
      <!-- 5 -->
      <defs>
       <path d="M 10.796875 72.90625
L 49.515625 72.90625
L 49.515625 64.59375
L 19.828125 64.59375
L 19.828125 46.734375
Q 21.96875 47.46875 24.109375 47.828125
Q 26.265625 48.1875 28.421875 48.1875
Q 40.625 48.1875 47.75 41.5
Q 54.890625 34.8125 54.890625 23.390625
Q 54.890625 11.625 47.5625 5.09375
Q 40.234375 -1.421875 26.90625 -1.421875
Q 22.3125 -1.421875 17.546875 -0.640625
Q 12.796875 0.140625 7.71875 1.703125
L 7.71875 11.625
Q 12.109375 9.234375 16.796875 8.0625
Q 21.484375 6.890625 26.703125 6.890625
Q 35.15625 6.890625 40.078125 11.328125
Q 45.015625 15.765625 45.015625 23.390625
Q 45.015625 31 40.078125 35.4375
Q 35.15625 39.890625 26.703125 39.890625
Q 22.75 39.890625 18.8125 39.015625
Q 14.890625 38.140625 10.796875 36.28125
z
" id="DejaVuSans-53"/>
      </defs>
      <g transform="translate(265.543977 467.635938)scale(0.1 -0.1)">
       <use xlink:href="#DejaVuSans-53"/>
      </g>
     </g>
    </g>
    <g id="xtick_6">
     <g id="line2d_6">
      <g>
       <use style="stroke:#000000;stroke-width:0.8;" x="319.4525" xlink:href="#m9594303ece" y="453.0375"/>
      </g>
     </g>
     <g id="text_6">
      <!-- 6 -->
      <defs>
       <path d="M 33.015625 40.375
Q 26.375 40.375 22.484375 35.828125
Q 18.609375 31.296875 18.609375 23.390625
Q 18.609375 15.53125 22.484375 10.953125
Q 26.375 6.390625 33.015625 6.390625
Q 39.65625 6.390625 43.53125 10.953125
Q 47.40625 15.53125 47.40625 23.390625
Q 47.40625 31.296875 43.53125 35.828125
Q 39.65625 40.375 33.015625 40.375
z
M 52.59375 71.296875
L 52.59375 62.3125
Q 48.875 64.0625 45.09375 64.984375
Q 41.3125 65.921875 37.59375 65.921875
Q 27.828125 65.921875 22.671875 59.328125
Q 17.53125 52.734375 16.796875 39.40625
Q 19.671875 43.65625 24.015625 45.921875
Q 28.375 48.1875 33.59375 48.1875
Q 44.578125 48.1875 50.953125 41.515625
Q 57.328125 34.859375 57.328125 23.390625
Q 57.328125 12.15625 50.6875 5.359375
Q 44.046875 -1.421875 33.015625 -1.421875
Q 20.359375 -1.421875 13.671875 8.265625
Q 6.984375 17.96875 6.984375 36.375
Q 6.984375 53.65625 15.1875 63.9375
Q 23.390625 74.21875 37.203125 74.21875
Q 40.921875 74.21875 44.703125 73.484375
Q 48.484375 72.75 52.59375 71.296875
z
" id="DejaVuSans-54"/>
      </defs>
      <g transform="translate(316.27125 467.635938)scale(0.1 -0.1)">
       <use xlink:href="#DejaVuSans-54"/>
      </g>
     </g>
    </g>
    <g id="xtick_7">
     <g id="line2d_7">
      <g>
       <use style="stroke:#000000;stroke-width:0.8;" x="370.179773" xlink:href="#m9594303ece" y="453.0375"/>
      </g>
     </g>
     <g id="text_7">
      <!-- 7 -->
      <defs>
       <path d="M 8.203125 72.90625
L 55.078125 72.90625
L 55.078125 68.703125
L 28.609375 0
L 18.3125 0
L 43.21875 64.59375
L 8.203125 64.59375
z
" id="DejaVuSans-55"/>
      </defs>
      <g transform="translate(366.998523 467.635938)scale(0.1 -0.1)">
       <use xlink:href="#DejaVuSans-55"/>
      </g>
     </g>
    </g>
    <g id="xtick_8">
     <g id="line2d_8">
      <g>
       <use style="stroke:#000000;stroke-width:0.8;" x="420.907045" xlink:href="#m9594303ece" y="453.0375"/>
      </g>
     </g>
     <g id="text_8">
      <!-- 8 -->
      <defs>
       <path d="M 31.78125 34.625
Q 24.75 34.625 20.71875 30.859375
Q 16.703125 27.09375 16.703125 20.515625
Q 16.703125 13.921875 20.71875 10.15625
Q 24.75 6.390625 31.78125 6.390625
Q 38.8125 6.390625 42.859375 10.171875
Q 46.921875 13.96875 46.921875 20.515625
Q 46.921875 27.09375 42.890625 30.859375
Q 38.875 34.625 31.78125 34.625
z
M 21.921875 38.8125
Q 15.578125 40.375 12.03125 44.71875
Q 8.5 49.078125 8.5 55.328125
Q 8.5 64.0625 14.71875 69.140625
Q 20.953125 74.21875 31.78125 74.21875
Q 42.671875 74.21875 48.875 69.140625
Q 55.078125 64.0625 55.078125 55.328125
Q 55.078125 49.078125 51.53125 44.71875
Q 48 40.375 41.703125 38.8125
Q 48.828125 37.15625 52.796875 32.3125
Q 56.78125 27.484375 56.78125 20.515625
Q 56.78125 9.90625 50.3125 4.234375
Q 43.84375 -1.421875 31.78125 -1.421875
Q 19.734375 -1.421875 13.25 4.234375
Q 6.78125 9.90625 6.78125 20.515625
Q 6.78125 27.484375 10.78125 32.3125
Q 14.796875 37.15625 21.921875 38.8125
z
M 18.3125 54.390625
Q 18.3125 48.734375 21.84375 45.5625
Q 25.390625 42.390625 31.78125 42.390625
Q 38.140625 42.390625 41.71875 45.5625
Q 45.3125 48.734375 45.3125 54.390625
Q 45.3125 60.0625 41.71875 63.234375
Q 38.140625 66.40625 31.78125 66.40625
Q 25.390625 66.40625 21.84375 63.234375
Q 18.3125 60.0625 18.3125 54.390625
z
" id="DejaVuSans-56"/>
      </defs>
      <g transform="translate(417.725795 467.635938)scale(0.1 -0.1)">
       <use xlink:href="#DejaVuSans-56"/>
      </g>
     </g>
    </g>
    <g id="xtick_9">
     <g id="line2d_9">
      <g>
       <use style="stroke:#000000;stroke-width:0.8;" x="471.634318" xlink:href="#m9594303ece" y="453.0375"/>
      </g>
     </g>
     <g id="text_9">
      <!-- 9 -->
      <defs>
       <path d="M 10.984375 1.515625
L 10.984375 10.5
Q 14.703125 8.734375 18.5 7.8125
Q 22.3125 6.890625 25.984375 6.890625
Q 35.75 6.890625 40.890625 13.453125
Q 46.046875 20.015625 46.78125 33.40625
Q 43.953125 29.203125 39.59375 26.953125
Q 35.25 24.703125 29.984375 24.703125
Q 19.046875 24.703125 12.671875 31.3125
Q 6.296875 37.9375 6.296875 49.421875
Q 6.296875 60.640625 12.9375 67.421875
Q 19.578125 74.21875 30.609375 74.21875
Q 43.265625 74.21875 49.921875 64.515625
Q 56.59375 54.828125 56.59375 36.375
Q 56.59375 19.140625 48.40625 8.859375
Q 40.234375 -1.421875 26.421875 -1.421875
Q 22.703125 -1.421875 18.890625 -0.6875
Q 15.09375 0.046875 10.984375 1.515625
z
M 30.609375 32.421875
Q 37.25 32.421875 41.125 36.953125
Q 45.015625 41.5 45.015625 49.421875
Q 45.015625 57.28125 41.125 61.84375
Q 37.25 66.40625 30.609375 66.40625
Q 23.96875 66.40625 20.09375 61.84375
Q 16.21875 57.28125 16.21875 49.421875
Q 16.21875 41.5 20.09375 36.953125
Q 23.96875 32.421875 30.609375 32.421875
z
" id="DejaVuSans-57"/>
      </defs>
      <g transform="translate(468.453068 467.635938)scale(0.1 -0.1)">
       <use xlink:href="#DejaVuSans-57"/>
      </g>
     </g>
    </g>
    <g id="xtick_10">
     <g id="line2d_10">
      <g>
       <use style="stroke:#000000;stroke-width:0.8;" x="522.361591" xlink:href="#m9594303ece" y="453.0375"/>
      </g>
     </g>
     <g id="text_10">
      <!-- 10 -->
      <defs>
       <path d="M 31.78125 66.40625
Q 24.171875 66.40625 20.328125 58.90625
Q 16.5 51.421875 16.5 36.375
Q 16.5 21.390625 20.328125 13.890625
Q 24.171875 6.390625 31.78125 6.390625
Q 39.453125 6.390625 43.28125 13.890625
Q 47.125 21.390625 47.125 36.375
Q 47.125 51.421875 43.28125 58.90625
Q 39.453125 66.40625 31.78125 66.40625
z
M 31.78125 74.21875
Q 44.046875 74.21875 50.515625 64.515625
Q 56.984375 54.828125 56.984375 36.375
Q 56.984375 17.96875 50.515625 8.265625
Q 44.046875 -1.421875 31.78125 -1.421875
Q 19.53125 -1.421875 13.0625 8.265625
Q 6.59375 17.96875 6.59375 36.375
Q 6.59375 54.828125 13.0625 64.515625
Q 19.53125 74.21875 31.78125 74.21875
z
" id="DejaVuSans-48"/>
      </defs>
      <g transform="translate(515.999091 467.635938)scale(0.1 -0.1)">
       <use xlink:href="#DejaVuSans-49"/>
       <use x="63.623047" xlink:href="#DejaVuSans-48"/>
      </g>
     </g>
    </g>
    <g id="xtick_11">
     <g id="line2d_11">
      <g>
       <use style="stroke:#000000;stroke-width:0.8;" x="573.088864" xlink:href="#m9594303ece" y="453.0375"/>
      </g>
     </g>
     <g id="text_11">
      <!-- +10 -->
      <defs>
       <path d="M 46 62.703125
L 46 35.5
L 73.1875 35.5
L 73.1875 27.203125
L 46 27.203125
L 46 0
L 37.796875 0
L 37.796875 27.203125
L 10.59375 27.203125
L 10.59375 35.5
L 37.796875 35.5
L 37.796875 62.703125
z
" id="DejaVuSans-43"/>
      </defs>
      <g transform="translate(562.53652 467.635938)scale(0.1 -0.1)">
       <use xlink:href="#DejaVuSans-43"/>
       <use x="83.789062" xlink:href="#DejaVuSans-49"/>
       <use x="147.412109" xlink:href="#DejaVuSans-48"/>
      </g>
     </g>
    </g>
    <g id="text_12">
     <!-- Rank correlation in expression space -->
     <defs>
      <path d="M 44.390625 34.1875
Q 47.5625 33.109375 50.5625 29.59375
Q 53.5625 26.078125 56.59375 19.921875
L 66.609375 0
L 56 0
L 46.6875 18.703125
Q 43.0625 26.03125 39.671875 28.421875
Q 36.28125 30.8125 30.421875 30.8125
L 19.671875 30.8125
L 19.671875 0
L 9.8125 0
L 9.8125 72.90625
L 32.078125 72.90625
Q 44.578125 72.90625 50.734375 67.671875
Q 56.890625 62.453125 56.890625 51.90625
Q 56.890625 45.015625 53.6875 40.46875
Q 50.484375 35.9375 44.390625 34.1875
z
M 19.671875 64.796875
L 19.671875 38.921875
L 32.078125 38.921875
Q 39.203125 38.921875 42.84375 42.21875
Q 46.484375 45.515625 46.484375 51.90625
Q 46.484375 58.296875 42.84375 61.546875
Q 39.203125 64.796875 32.078125 64.796875
z
" id="DejaVuSans-82"/>
      <path d="M 34.28125 27.484375
Q 23.390625 27.484375 19.1875 25
Q 14.984375 22.515625 14.984375 16.5
Q 14.984375 11.71875 18.140625 8.90625
Q 21.296875 6.109375 26.703125 6.109375
Q 34.1875 6.109375 38.703125 11.40625
Q 43.21875 16.703125 43.21875 25.484375
L 43.21875 27.484375
z
M 52.203125 31.203125
L 52.203125 0
L 43.21875 0
L 43.21875 8.296875
Q 40.140625 3.328125 35.546875 0.953125
Q 30.953125 -1.421875 24.3125 -1.421875
Q 15.921875 -1.421875 10.953125 3.296875
Q 6 8.015625 6 15.921875
Q 6 25.140625 12.171875 29.828125
Q 18.359375 34.515625 30.609375 34.515625
L 43.21875 34.515625
L 43.21875 35.40625
Q 43.21875 41.609375 39.140625 45
Q 35.0625 48.390625 27.6875 48.390625
Q 23 48.390625 18.546875 47.265625
Q 14.109375 46.140625 10.015625 43.890625
L 10.015625 52.203125
Q 14.9375 54.109375 19.578125 55.046875
Q 24.21875 56 28.609375 56
Q 40.484375 56 46.34375 49.84375
Q 52.203125 43.703125 52.203125 31.203125
z
" id="DejaVuSans-97"/>
      <path d="M 54.890625 33.015625
L 54.890625 0
L 45.90625 0
L 45.90625 32.71875
Q 45.90625 40.484375 42.875 44.328125
Q 39.84375 48.1875 33.796875 48.1875
Q 26.515625 48.1875 22.3125 43.546875
Q 18.109375 38.921875 18.109375 30.90625
L 18.109375 0
L 9.078125 0
L 9.078125 54.6875
L 18.109375 54.6875
L 18.109375 46.1875
Q 21.34375 51.125 25.703125 53.5625
Q 30.078125 56 35.796875 56
Q 45.21875 56 50.046875 50.171875
Q 54.890625 44.34375 54.890625 33.015625
z
" id="DejaVuSans-110"/>
      <path d="M 9.078125 75.984375
L 18.109375 75.984375
L 18.109375 31.109375
L 44.921875 54.6875
L 56.390625 54.6875
L 27.390625 29.109375
L 57.625 0
L 45.90625 0
L 18.109375 26.703125
L 18.109375 0
L 9.078125 0
z
" id="DejaVuSans-107"/>
      <path id="DejaVuSans-32"/>
      <path d="M 48.78125 52.59375
L 48.78125 44.1875
Q 44.96875 46.296875 41.140625 47.34375
Q 37.3125 48.390625 33.40625 48.390625
Q 24.65625 48.390625 19.8125 42.84375
Q 14.984375 37.3125 14.984375 27.296875
Q 14.984375 17.28125 19.8125 11.734375
Q 24.65625 6.203125 33.40625 6.203125
Q 37.3125 6.203125 41.140625 7.25
Q 44.96875 8.296875 48.78125 10.40625
L 48.78125 2.09375
Q 45.015625 0.34375 40.984375 -0.53125
Q 36.96875 -1.421875 32.421875 -1.421875
Q 20.0625 -1.421875 12.78125 6.34375
Q 5.515625 14.109375 5.515625 27.296875
Q 5.515625 40.671875 12.859375 48.328125
Q 20.21875 56 33.015625 56
Q 37.15625 56 41.109375 55.140625
Q 45.0625 54.296875 48.78125 52.59375
z
" id="DejaVuSans-99"/>
      <path d="M 30.609375 48.390625
Q 23.390625 48.390625 19.1875 42.75
Q 14.984375 37.109375 14.984375 27.296875
Q 14.984375 17.484375 19.15625 11.84375
Q 23.34375 6.203125 30.609375 6.203125
Q 37.796875 6.203125 41.984375 11.859375
Q 46.1875 17.53125 46.1875 27.296875
Q 46.1875 37.015625 41.984375 42.703125
Q 37.796875 48.390625 30.609375 48.390625
z
M 30.609375 56
Q 42.328125 56 49.015625 48.375
Q 55.71875 40.765625 55.71875 27.296875
Q 55.71875 13.875 49.015625 6.21875
Q 42.328125 -1.421875 30.609375 -1.421875
Q 18.84375 -1.421875 12.171875 6.21875
Q 5.515625 13.875 5.515625 27.296875
Q 5.515625 40.765625 12.171875 48.375
Q 18.84375 56 30.609375 56
z
" id="DejaVuSans-111"/>
      <path d="M 41.109375 46.296875
Q 39.59375 47.171875 37.8125 47.578125
Q 36.03125 48 33.890625 48
Q 26.265625 48 22.1875 43.046875
Q 18.109375 38.09375 18.109375 28.8125
L 18.109375 0
L 9.078125 0
L 9.078125 54.6875
L 18.109375 54.6875
L 18.109375 46.1875
Q 20.953125 51.171875 25.484375 53.578125
Q 30.03125 56 36.53125 56
Q 37.453125 56 38.578125 55.875
Q 39.703125 55.765625 41.0625 55.515625
z
" id="DejaVuSans-114"/>
      <path d="M 56.203125 29.59375
L 56.203125 25.203125
L 14.890625 25.203125
Q 15.484375 15.921875 20.484375 11.0625
Q 25.484375 6.203125 34.421875 6.203125
Q 39.59375 6.203125 44.453125 7.46875
Q 49.3125 8.734375 54.109375 11.28125
L 54.109375 2.78125
Q 49.265625 0.734375 44.1875 -0.34375
Q 39.109375 -1.421875 33.890625 -1.421875
Q 20.796875 -1.421875 13.15625 6.1875
Q 5.515625 13.8125 5.515625 26.8125
Q 5.515625 40.234375 12.765625 48.109375
Q 20.015625 56 32.328125 56
Q 43.359375 56 49.78125 48.890625
Q 56.203125 41.796875 56.203125 29.59375
z
M 47.21875 32.234375
Q 47.125 39.59375 43.09375 43.984375
Q 39.0625 48.390625 32.421875 48.390625
Q 24.90625 48.390625 20.390625 44.140625
Q 15.875 39.890625 15.1875 32.171875
z
" id="DejaVuSans-101"/>
      <path d="M 9.421875 75.984375
L 18.40625 75.984375
L 18.40625 0
L 9.421875 0
z
" id="DejaVuSans-108"/>
      <path d="M 18.3125 70.21875
L 18.3125 54.6875
L 36.8125 54.6875
L 36.8125 47.703125
L 18.3125 47.703125
L 18.3125 18.015625
Q 18.3125 11.328125 20.140625 9.421875
Q 21.96875 7.515625 27.59375 7.515625
L 36.8125 7.515625
L 36.8125 0
L 27.59375 0
Q 17.1875 0 13.234375 3.875
Q 9.28125 7.765625 9.28125 18.015625
L 9.28125 47.703125
L 2.6875 47.703125
L 2.6875 54.6875
L 9.28125 54.6875
L 9.28125 70.21875
z
" id="DejaVuSans-116"/>
      <path d="M 9.421875 54.6875
L 18.40625 54.6875
L 18.40625 0
L 9.421875 0
z
M 9.421875 75.984375
L 18.40625 75.984375
L 18.40625 64.59375
L 9.421875 64.59375
z
" id="DejaVuSans-105"/>
      <path d="M 54.890625 54.6875
L 35.109375 28.078125
L 55.90625 0
L 45.3125 0
L 29.390625 21.484375
L 13.484375 0
L 2.875 0
L 24.125 28.609375
L 4.6875 54.6875
L 15.28125 54.6875
L 29.78125 35.203125
L 44.28125 54.6875
z
" id="DejaVuSans-120"/>
      <path d="M 18.109375 8.203125
L 18.109375 -20.796875
L 9.078125 -20.796875
L 9.078125 54.6875
L 18.109375 54.6875
L 18.109375 46.390625
Q 20.953125 51.265625 25.265625 53.625
Q 29.59375 56 35.59375 56
Q 45.5625 56 51.78125 48.09375
Q 58.015625 40.1875 58.015625 27.296875
Q 58.015625 14.40625 51.78125 6.484375
Q 45.5625 -1.421875 35.59375 -1.421875
Q 29.59375 -1.421875 25.265625 0.953125
Q 20.953125 3.328125 18.109375 8.203125
z
M 48.6875 27.296875
Q 48.6875 37.203125 44.609375 42.84375
Q 40.53125 48.484375 33.40625 48.484375
Q 26.265625 48.484375 22.1875 42.84375
Q 18.109375 37.203125 18.109375 27.296875
Q 18.109375 17.390625 22.1875 11.75
Q 26.265625 6.109375 33.40625 6.109375
Q 40.53125 6.109375 44.609375 11.75
Q 48.6875 17.390625 48.6875 27.296875
z
" id="DejaVuSans-112"/>
      <path d="M 44.28125 53.078125
L 44.28125 44.578125
Q 40.484375 46.53125 36.375 47.5
Q 32.28125 48.484375 27.875 48.484375
Q 21.1875 48.484375 17.84375 46.4375
Q 14.5 44.390625 14.5 40.28125
Q 14.5 37.15625 16.890625 35.375
Q 19.28125 33.59375 26.515625 31.984375
L 29.59375 31.296875
Q 39.15625 29.25 43.1875 25.515625
Q 47.21875 21.78125 47.21875 15.09375
Q 47.21875 7.46875 41.1875 3.015625
Q 35.15625 -1.421875 24.609375 -1.421875
Q 20.21875 -1.421875 15.453125 -0.5625
Q 10.6875 0.296875 5.421875 2
L 5.421875 11.28125
Q 10.40625 8.6875 15.234375 7.390625
Q 20.0625 6.109375 24.8125 6.109375
Q 31.15625 6.109375 34.5625 8.28125
Q 37.984375 10.453125 37.984375 14.40625
Q 37.984375 18.0625 35.515625 20.015625
Q 33.0625 21.96875 24.703125 23.78125
L 21.578125 24.515625
Q 13.234375 26.265625 9.515625 29.90625
Q 5.8125 33.546875 5.8125 39.890625
Q 5.8125 47.609375 11.28125 51.796875
Q 16.75 56 26.8125 56
Q 31.78125 56 36.171875 55.265625
Q 40.578125 54.546875 44.28125 53.078125
z
" id="DejaVuSans-115"/>
     </defs>
     <g transform="translate(190.128594 484.353438)scale(0.14 -0.14)">
      <use xlink:href="#DejaVuSans-82"/>
      <use x="69.451172" xlink:href="#DejaVuSans-97"/>
      <use x="130.730469" xlink:href="#DejaVuSans-110"/>
      <use x="194.109375" xlink:href="#DejaVuSans-107"/>
      <use x="252.019531" xlink:href="#DejaVuSans-32"/>
      <use x="283.806641" xlink:href="#DejaVuSans-99"/>
      <use x="338.787109" xlink:href="#DejaVuSans-111"/>
      <use x="399.96875" xlink:href="#DejaVuSans-114"/>
      <use x="441.066406" xlink:href="#DejaVuSans-114"/>
      <use x="482.148438" xlink:href="#DejaVuSans-101"/>
      <use x="543.671875" xlink:href="#DejaVuSans-108"/>
      <use x="571.455078" xlink:href="#DejaVuSans-97"/>
      <use x="632.734375" xlink:href="#DejaVuSans-116"/>
      <use x="671.943359" xlink:href="#DejaVuSans-105"/>
      <use x="699.726562" xlink:href="#DejaVuSans-111"/>
      <use x="760.908203" xlink:href="#DejaVuSans-110"/>
      <use x="824.287109" xlink:href="#DejaVuSans-32"/>
      <use x="856.074219" xlink:href="#DejaVuSans-105"/>
      <use x="883.857422" xlink:href="#DejaVuSans-110"/>
      <use x="947.236328" xlink:href="#DejaVuSans-32"/>
      <use x="979.023438" xlink:href="#DejaVuSans-101"/>
      <use x="1040.53125" xlink:href="#DejaVuSans-120"/>
      <use x="1099.710938" xlink:href="#DejaVuSans-112"/>
      <use x="1163.1875" xlink:href="#DejaVuSans-114"/>
      <use x="1204.269531" xlink:href="#DejaVuSans-101"/>
      <use x="1265.792969" xlink:href="#DejaVuSans-115"/>
      <use x="1317.892578" xlink:href="#DejaVuSans-115"/>
      <use x="1369.992188" xlink:href="#DejaVuSans-105"/>
      <use x="1397.775391" xlink:href="#DejaVuSans-111"/>
      <use x="1458.957031" xlink:href="#DejaVuSans-110"/>
      <use x="1522.335938" xlink:href="#DejaVuSans-32"/>
      <use x="1554.123047" xlink:href="#DejaVuSans-115"/>
      <use x="1606.222656" xlink:href="#DejaVuSans-112"/>
      <use x="1669.699219" xlink:href="#DejaVuSans-97"/>
      <use x="1730.978516" xlink:href="#DejaVuSans-99"/>
      <use x="1785.958984" xlink:href="#DejaVuSans-101"/>
     </g>
    </g>
   </g>
   <g id="matplotlib.axis_2">
    <g id="ytick_1">
     <g id="line2d_12">
      <defs>
       <path d="M 0 0
L -3.5 0
" id="m80aefb51d6" style="stroke:#000000;stroke-width:0.8;"/>
      </defs>
      <g>
       <use style="stroke:#000000;stroke-width:0.8;" x="40.4525" xlink:href="#m80aefb51d6" y="453.0375"/>
      </g>
     </g>
     <g id="text_13">
      <!-- 0.0 -->
      <defs>
       <path d="M 10.6875 12.40625
L 21 12.40625
L 21 0
L 10.6875 0
z
" id="DejaVuSans-46"/>
      </defs>
      <g transform="translate(17.549375 456.836719)scale(0.1 -0.1)">
       <use xlink:href="#DejaVuSans-48"/>
       <use x="63.623047" xlink:href="#DejaVuSans-46"/>
       <use x="95.410156" xlink:href="#DejaVuSans-48"/>
      </g>
     </g>
    </g>
    <g id="ytick_2">
     <g id="line2d_13">
      <g>
       <use style="stroke:#000000;stroke-width:0.8;" x="40.4525" xlink:href="#m80aefb51d6" y="375.817399"/>
      </g>
     </g>
     <g id="text_14">
      <!-- 0.5 -->
      <g transform="translate(17.549375 379.616618)scale(0.1 -0.1)">
       <use xlink:href="#DejaVuSans-48"/>
       <use x="63.623047" xlink:href="#DejaVuSans-46"/>
       <use x="95.410156" xlink:href="#DejaVuSans-53"/>
      </g>
     </g>
    </g>
    <g id="ytick_3">
     <g id="line2d_14">
      <g>
       <use style="stroke:#000000;stroke-width:0.8;" x="40.4525" xlink:href="#m80aefb51d6" y="298.597299"/>
      </g>
     </g>
     <g id="text_15">
      <!-- 1.0 -->
      <g transform="translate(17.549375 302.396517)scale(0.1 -0.1)">
       <use xlink:href="#DejaVuSans-49"/>
       <use x="63.623047" xlink:href="#DejaVuSans-46"/>
       <use x="95.410156" xlink:href="#DejaVuSans-48"/>
      </g>
     </g>
    </g>
    <g id="ytick_4">
     <g id="line2d_15">
      <g>
       <use style="stroke:#000000;stroke-width:0.8;" x="40.4525" xlink:href="#m80aefb51d6" y="221.377198"/>
      </g>
     </g>
     <g id="text_16">
      <!-- 1.5 -->
      <g transform="translate(17.549375 225.176417)scale(0.1 -0.1)">
       <use xlink:href="#DejaVuSans-49"/>
       <use x="63.623047" xlink:href="#DejaVuSans-46"/>
       <use x="95.410156" xlink:href="#DejaVuSans-53"/>
      </g>
     </g>
    </g>
    <g id="ytick_5">
     <g id="line2d_16">
      <g>
       <use style="stroke:#000000;stroke-width:0.8;" x="40.4525" xlink:href="#m80aefb51d6" y="144.157097"/>
      </g>
     </g>
     <g id="text_17">
      <!-- 2.0 -->
      <g transform="translate(17.549375 147.956316)scale(0.1 -0.1)">
       <use xlink:href="#DejaVuSans-50"/>
       <use x="63.623047" xlink:href="#DejaVuSans-46"/>
       <use x="95.410156" xlink:href="#DejaVuSans-48"/>
      </g>
     </g>
    </g>
    <g id="ytick_6">
     <g id="line2d_17">
      <g>
       <use style="stroke:#000000;stroke-width:0.8;" x="40.4525" xlink:href="#m80aefb51d6" y="66.936997"/>
      </g>
     </g>
     <g id="text_18">
      <!-- 2.5 -->
      <g transform="translate(17.549375 70.736216)scale(0.1 -0.1)">
       <use xlink:href="#DejaVuSans-50"/>
       <use x="63.623047" xlink:href="#DejaVuSans-46"/>
       <use x="95.410156" xlink:href="#DejaVuSans-53"/>
      </g>
     </g>
    </g>
    <g id="text_19">
     <!-- Odds ratio -->
     <defs>
      <path d="M 39.40625 66.21875
Q 28.65625 66.21875 22.328125 58.203125
Q 16.015625 50.203125 16.015625 36.375
Q 16.015625 22.609375 22.328125 14.59375
Q 28.65625 6.59375 39.40625 6.59375
Q 50.140625 6.59375 56.421875 14.59375
Q 62.703125 22.609375 62.703125 36.375
Q 62.703125 50.203125 56.421875 58.203125
Q 50.140625 66.21875 39.40625 66.21875
z
M 39.40625 74.21875
Q 54.734375 74.21875 63.90625 63.9375
Q 73.09375 53.65625 73.09375 36.375
Q 73.09375 19.140625 63.90625 8.859375
Q 54.734375 -1.421875 39.40625 -1.421875
Q 24.03125 -1.421875 14.8125 8.828125
Q 5.609375 19.09375 5.609375 36.375
Q 5.609375 53.65625 14.8125 63.9375
Q 24.03125 74.21875 39.40625 74.21875
z
" id="DejaVuSans-79"/>
      <path d="M 45.40625 46.390625
L 45.40625 75.984375
L 54.390625 75.984375
L 54.390625 0
L 45.40625 0
L 45.40625 8.203125
Q 42.578125 3.328125 38.25 0.953125
Q 33.9375 -1.421875 27.875 -1.421875
Q 17.96875 -1.421875 11.734375 6.484375
Q 5.515625 14.40625 5.515625 27.296875
Q 5.515625 40.1875 11.734375 48.09375
Q 17.96875 56 27.875 56
Q 33.9375 56 38.25 53.625
Q 42.578125 51.265625 45.40625 46.390625
z
M 14.796875 27.296875
Q 14.796875 17.390625 18.875 11.75
Q 22.953125 6.109375 30.078125 6.109375
Q 37.203125 6.109375 41.296875 11.75
Q 45.40625 17.390625 45.40625 27.296875
Q 45.40625 37.203125 41.296875 42.84375
Q 37.203125 48.484375 30.078125 48.484375
Q 22.953125 48.484375 18.875 42.84375
Q 14.796875 37.203125 14.796875 27.296875
z
" id="DejaVuSans-100"/>
     </defs>
     <g transform="translate(10.637813 272.00625)rotate(-90)scale(0.14 -0.14)">
      <use xlink:href="#DejaVuSans-79"/>
      <use x="78.710938" xlink:href="#DejaVuSans-100"/>
      <use x="142.1875" xlink:href="#DejaVuSans-100"/>
      <use x="205.664062" xlink:href="#DejaVuSans-115"/>
      <use x="257.763672" xlink:href="#DejaVuSans-32"/>
      <use x="289.550781" xlink:href="#DejaVuSans-114"/>
      <use x="330.664062" xlink:href="#DejaVuSans-97"/>
      <use x="391.943359" xlink:href="#DejaVuSans-116"/>
      <use x="431.152344" xlink:href="#DejaVuSans-105"/>
      <use x="458.935547" xlink:href="#DejaVuSans-111"/>
     </g>
    </g>
   </g>
   <g id="line2d_18">
    <path clip-path="url(#p2ce3c6dd01)" d="M 0 0
" style="fill:none;stroke:#424242;stroke-linecap:square;stroke-width:2.7;"/>
   </g>
   <g id="line2d_19">
    <path clip-path="url(#p2ce3c6dd01)" d="M 0 0
" style="fill:none;stroke:#424242;stroke-linecap:square;stroke-width:2.7;"/>
   </g>
   <g id="line2d_20">
    <path clip-path="url(#p2ce3c6dd01)" d="M 0 0
" style="fill:none;stroke:#424242;stroke-linecap:square;stroke-width:2.7;"/>
   </g>
   <g id="line2d_21">
    <path clip-path="url(#p2ce3c6dd01)" d="M 0 0
" style="fill:none;stroke:#424242;stroke-linecap:square;stroke-width:2.7;"/>
   </g>
   <g id="line2d_22">
    <path clip-path="url(#p2ce3c6dd01)" d="M 0 0
" style="fill:none;stroke:#424242;stroke-linecap:square;stroke-width:2.7;"/>
   </g>
   <g id="line2d_23">
    <path clip-path="url(#p2ce3c6dd01)" d="M 0 0
" style="fill:none;stroke:#424242;stroke-linecap:square;stroke-width:2.7;"/>
   </g>
   <g id="line2d_24">
    <path clip-path="url(#p2ce3c6dd01)" d="M 0 0
" style="fill:none;stroke:#424242;stroke-linecap:square;stroke-width:2.7;"/>
   </g>
   <g id="line2d_25">
    <path clip-path="url(#p2ce3c6dd01)" d="M 0 0
" style="fill:none;stroke:#424242;stroke-linecap:square;stroke-width:2.7;"/>
   </g>
   <g id="line2d_26">
    <path clip-path="url(#p2ce3c6dd01)" d="M 0 0
" style="fill:none;stroke:#424242;stroke-linecap:square;stroke-width:2.7;"/>
   </g>
   <g id="line2d_27">
    <path clip-path="url(#p2ce3c6dd01)" d="M 0 0
" style="fill:none;stroke:#424242;stroke-linecap:square;stroke-width:2.7;"/>
   </g>
   <g id="line2d_28">
    <path clip-path="url(#p2ce3c6dd01)" d="M 0 0
" style="fill:none;stroke:#424242;stroke-linecap:square;stroke-width:2.7;"/>
   </g>
   <g id="line2d_29">
    <path clip-path="url(#p2ce3c6dd01)" d="M 0 0
" style="fill:none;stroke:#424242;stroke-linecap:square;stroke-width:2.7;"/>
   </g>
   <g id="line2d_30">
    <path clip-path="url(#p2ce3c6dd01)" d="M 0 0
" style="fill:none;stroke:#424242;stroke-linecap:square;stroke-width:2.7;"/>
   </g>
   <g id="line2d_31">
    <path clip-path="url(#p2ce3c6dd01)" d="M 0 0
" style="fill:none;stroke:#424242;stroke-linecap:square;stroke-width:2.7;"/>
   </g>
   <g id="line2d_32">
    <path clip-path="url(#p2ce3c6dd01)" d="M 0 0
" style="fill:none;stroke:#424242;stroke-linecap:square;stroke-width:2.7;"/>
   </g>
   <g id="line2d_33">
    <path clip-path="url(#p2ce3c6dd01)" d="M 0 0
" style="fill:none;stroke:#424242;stroke-linecap:square;stroke-width:2.7;"/>
   </g>
   <g id="line2d_34">
    <path clip-path="url(#p2ce3c6dd01)" d="M 0 0
" style="fill:none;stroke:#424242;stroke-linecap:square;stroke-width:2.7;"/>
   </g>
   <g id="line2d_35">
    <path clip-path="url(#p2ce3c6dd01)" d="M 0 0
" style="fill:none;stroke:#424242;stroke-linecap:square;stroke-width:2.7;"/>
   </g>
   <g id="line2d_36">
    <path clip-path="url(#p2ce3c6dd01)" d="M 0 0
" style="fill:none;stroke:#424242;stroke-linecap:square;stroke-width:2.7;"/>
   </g>
   <g id="line2d_37">
    <path clip-path="url(#p2ce3c6dd01)" d="M 0 0
" style="fill:none;stroke:#424242;stroke-linecap:square;stroke-width:2.7;"/>
   </g>
   <g id="line2d_38">
    <path clip-path="url(#p2ce3c6dd01)" d="M 0 0
" style="fill:none;stroke:#424242;stroke-linecap:square;stroke-width:2.7;"/>
   </g>
   <g id="line2d_39">
    <path clip-path="url(#p2ce3c6dd01)" d="M 0 0
" style="fill:none;stroke:#424242;stroke-linecap:square;stroke-width:2.7;"/>
   </g>
   <g id="line2d_40">
    <path clip-path="url(#p2ce3c6dd01)" d="M 0 0
" style="fill:none;stroke:#424242;stroke-linecap:square;stroke-width:2.7;"/>
   </g>
   <g id="line2d_41">
    <path clip-path="url(#p2ce3c6dd01)" d="M 0 0
" style="fill:none;stroke:#424242;stroke-linecap:square;stroke-width:2.7;"/>
   </g>
   <g id="line2d_42">
    <path clip-path="url(#p2ce3c6dd01)" d="M 0 0
" style="fill:none;stroke:#424242;stroke-linecap:square;stroke-width:2.7;"/>
   </g>
   <g id="line2d_43">
    <path clip-path="url(#p2ce3c6dd01)" d="M 0 0
" style="fill:none;stroke:#424242;stroke-linecap:square;stroke-width:2.7;"/>
   </g>
   <g id="line2d_44">
    <path clip-path="url(#p2ce3c6dd01)" d="M 0 0
" style="fill:none;stroke:#424242;stroke-linecap:square;stroke-width:2.7;"/>
   </g>
   <g id="line2d_45">
    <path clip-path="url(#p2ce3c6dd01)" d="M 0 0
" style="fill:none;stroke:#424242;stroke-linecap:square;stroke-width:2.7;"/>
   </g>
   <g id="line2d_46">
    <path clip-path="url(#p2ce3c6dd01)" d="M 0 0
" style="fill:none;stroke:#424242;stroke-linecap:square;stroke-width:2.7;"/>
   </g>
   <g id="line2d_47">
    <path clip-path="url(#p2ce3c6dd01)" d="M 0 0
" style="fill:none;stroke:#424242;stroke-linecap:square;stroke-width:2.7;"/>
   </g>
   <g id="line2d_48">
    <path clip-path="url(#p2ce3c6dd01)" d="M 0 0
" style="fill:none;stroke:#424242;stroke-linecap:square;stroke-width:2.7;"/>
   </g>
   <g id="line2d_49">
    <path clip-path="url(#p2ce3c6dd01)" d="M 0 0
" style="fill:none;stroke:#424242;stroke-linecap:square;stroke-width:2.7;"/>
   </g>
   <g id="line2d_50">
    <path clip-path="url(#p2ce3c6dd01)" d="M 0 0
" style="fill:none;stroke:#424242;stroke-linecap:square;stroke-width:2.7;"/>
   </g>
   <g id="line2d_51">
    <path clip-path="url(#p2ce3c6dd01)" d="M 0 0
" style="fill:none;stroke:#424242;stroke-linecap:square;stroke-width:2.7;"/>
   </g>
   <g id="line2d_52">
    <path clip-path="url(#p2ce3c6dd01)" d="M 0 0
" style="fill:none;stroke:#424242;stroke-linecap:square;stroke-width:2.7;"/>
   </g>
   <g id="line2d_53">
    <path clip-path="url(#p2ce3c6dd01)" d="M 0 0
" style="fill:none;stroke:#424242;stroke-linecap:square;stroke-width:2.7;"/>
   </g>
   <g id="line2d_54">
    <path clip-path="url(#p2ce3c6dd01)" d="M 0 0
" style="fill:none;stroke:#424242;stroke-linecap:square;stroke-width:2.7;"/>
   </g>
   <g id="line2d_55">
    <path clip-path="url(#p2ce3c6dd01)" d="M 0 0
" style="fill:none;stroke:#424242;stroke-linecap:square;stroke-width:2.7;"/>
   </g>
   <g id="line2d_56">
    <path clip-path="url(#p2ce3c6dd01)" d="M 0 0
" style="fill:none;stroke:#424242;stroke-linecap:square;stroke-width:2.7;"/>
   </g>
   <g id="line2d_57">
    <path clip-path="url(#p2ce3c6dd01)" d="M 0 0
" style="fill:none;stroke:#424242;stroke-linecap:square;stroke-width:2.7;"/>
   </g>
   <g id="line2d_58">
    <path clip-path="url(#p2ce3c6dd01)" d="M 0 0
" style="fill:none;stroke:#424242;stroke-linecap:square;stroke-width:2.7;"/>
   </g>
   <g id="line2d_59">
    <path clip-path="url(#p2ce3c6dd01)" d="M 0 0
" style="fill:none;stroke:#424242;stroke-linecap:square;stroke-width:2.7;"/>
   </g>
   <g id="line2d_60">
    <path clip-path="url(#p2ce3c6dd01)" d="M 0 0
" style="fill:none;stroke:#424242;stroke-linecap:square;stroke-width:2.7;"/>
   </g>
   <g id="line2d_61">
    <path clip-path="url(#p2ce3c6dd01)" d="M 0 0
" style="fill:none;stroke:#424242;stroke-linecap:square;stroke-width:2.7;"/>
   </g>
   <g id="line2d_62">
    <path clip-path="url(#p2ce3c6dd01)" d="M 40.4525 298.597299
L 598.4525 298.597299
" style="fill:none;stroke:#000000;stroke-dasharray:5.55,2.4;stroke-dashoffset:0;stroke-width:1.5;"/>
   </g>
   <g id="patch_47">
    <path d="M 40.4525 453.0375
L 40.4525 18.1575
" style="fill:none;stroke:#000000;stroke-linecap:square;stroke-linejoin:miter;stroke-width:0.8;"/>
   </g>
   <g id="patch_48">
    <path d="M 598.4525 453.0375
L 598.4525 18.1575
" style="fill:none;stroke:#000000;stroke-linecap:square;stroke-linejoin:miter;stroke-width:0.8;"/>
   </g>
   <g id="patch_49">
    <path d="M 40.4525 453.0375
L 598.4525 453.0375
" style="fill:none;stroke:#000000;stroke-linecap:square;stroke-linejoin:miter;stroke-width:0.8;"/>
   </g>
   <g id="patch_50">
    <path d="M 40.4525 18.1575
L 598.4525 18.1575
" style="fill:none;stroke:#000000;stroke-linecap:square;stroke-linejoin:miter;stroke-width:0.8;"/>
   </g>
   <g id="text_20">
    <!-- Who are most/least stable core genes related to (PAO1) -->
    <defs>
     <path d="M 3.328125 72.90625
L 13.28125 72.90625
L 28.609375 11.28125
L 43.890625 72.90625
L 54.984375 72.90625
L 70.3125 11.28125
L 85.59375 72.90625
L 95.609375 72.90625
L 77.296875 0
L 64.890625 0
L 49.515625 63.28125
L 33.984375 0
L 21.578125 0
z
" id="DejaVuSans-87"/>
     <path d="M 54.890625 33.015625
L 54.890625 0
L 45.90625 0
L 45.90625 32.71875
Q 45.90625 40.484375 42.875 44.328125
Q 39.84375 48.1875 33.796875 48.1875
Q 26.515625 48.1875 22.3125 43.546875
Q 18.109375 38.921875 18.109375 30.90625
L 18.109375 0
L 9.078125 0
L 9.078125 75.984375
L 18.109375 75.984375
L 18.109375 46.1875
Q 21.34375 51.125 25.703125 53.5625
Q 30.078125 56 35.796875 56
Q 45.21875 56 50.046875 50.171875
Q 54.890625 44.34375 54.890625 33.015625
z
" id="DejaVuSans-104"/>
     <path d="M 52 44.1875
Q 55.375 50.25 60.0625 53.125
Q 64.75 56 71.09375 56
Q 79.640625 56 84.28125 50.015625
Q 88.921875 44.046875 88.921875 33.015625
L 88.921875 0
L 79.890625 0
L 79.890625 32.71875
Q 79.890625 40.578125 77.09375 44.375
Q 74.3125 48.1875 68.609375 48.1875
Q 61.625 48.1875 57.5625 43.546875
Q 53.515625 38.921875 53.515625 30.90625
L 53.515625 0
L 44.484375 0
L 44.484375 32.71875
Q 44.484375 40.625 41.703125 44.40625
Q 38.921875 48.1875 33.109375 48.1875
Q 26.21875 48.1875 22.15625 43.53125
Q 18.109375 38.875 18.109375 30.90625
L 18.109375 0
L 9.078125 0
L 9.078125 54.6875
L 18.109375 54.6875
L 18.109375 46.1875
Q 21.1875 51.21875 25.484375 53.609375
Q 29.78125 56 35.6875 56
Q 41.65625 56 45.828125 52.96875
Q 50 49.953125 52 44.1875
z
" id="DejaVuSans-109"/>
     <path d="M 25.390625 72.90625
L 33.6875 72.90625
L 8.296875 -9.28125
L 0 -9.28125
z
" id="DejaVuSans-47"/>
     <path d="M 48.6875 27.296875
Q 48.6875 37.203125 44.609375 42.84375
Q 40.53125 48.484375 33.40625 48.484375
Q 26.265625 48.484375 22.1875 42.84375
Q 18.109375 37.203125 18.109375 27.296875
Q 18.109375 17.390625 22.1875 11.75
Q 26.265625 6.109375 33.40625 6.109375
Q 40.53125 6.109375 44.609375 11.75
Q 48.6875 17.390625 48.6875 27.296875
z
M 18.109375 46.390625
Q 20.953125 51.265625 25.265625 53.625
Q 29.59375 56 35.59375 56
Q 45.5625 56 51.78125 48.09375
Q 58.015625 40.1875 58.015625 27.296875
Q 58.015625 14.40625 51.78125 6.484375
Q 45.5625 -1.421875 35.59375 -1.421875
Q 29.59375 -1.421875 25.265625 0.953125
Q 20.953125 3.328125 18.109375 8.203125
L 18.109375 0
L 9.078125 0
L 9.078125 75.984375
L 18.109375 75.984375
z
" id="DejaVuSans-98"/>
     <path d="M 45.40625 27.984375
Q 45.40625 37.75 41.375 43.109375
Q 37.359375 48.484375 30.078125 48.484375
Q 22.859375 48.484375 18.828125 43.109375
Q 14.796875 37.75 14.796875 27.984375
Q 14.796875 18.265625 18.828125 12.890625
Q 22.859375 7.515625 30.078125 7.515625
Q 37.359375 7.515625 41.375 12.890625
Q 45.40625 18.265625 45.40625 27.984375
z
M 54.390625 6.78125
Q 54.390625 -7.171875 48.1875 -13.984375
Q 42 -20.796875 29.203125 -20.796875
Q 24.46875 -20.796875 20.265625 -20.09375
Q 16.0625 -19.390625 12.109375 -17.921875
L 12.109375 -9.1875
Q 16.0625 -11.328125 19.921875 -12.34375
Q 23.78125 -13.375 27.78125 -13.375
Q 36.625 -13.375 41.015625 -8.765625
Q 45.40625 -4.15625 45.40625 5.171875
L 45.40625 9.625
Q 42.625 4.78125 38.28125 2.390625
Q 33.9375 0 27.875 0
Q 17.828125 0 11.671875 7.65625
Q 5.515625 15.328125 5.515625 27.984375
Q 5.515625 40.671875 11.671875 48.328125
Q 17.828125 56 27.875 56
Q 33.9375 56 38.28125 53.609375
Q 42.625 51.21875 45.40625 46.390625
L 45.40625 54.6875
L 54.390625 54.6875
z
" id="DejaVuSans-103"/>
     <path d="M 31 75.875
Q 24.46875 64.65625 21.28125 53.65625
Q 18.109375 42.671875 18.109375 31.390625
Q 18.109375 20.125 21.3125 9.0625
Q 24.515625 -2 31 -13.1875
L 23.1875 -13.1875
Q 15.875 -1.703125 12.234375 9.375
Q 8.59375 20.453125 8.59375 31.390625
Q 8.59375 42.28125 12.203125 53.3125
Q 15.828125 64.359375 23.1875 75.875
z
" id="DejaVuSans-40"/>
     <path d="M 19.671875 64.796875
L 19.671875 37.40625
L 32.078125 37.40625
Q 38.96875 37.40625 42.71875 40.96875
Q 46.484375 44.53125 46.484375 51.125
Q 46.484375 57.671875 42.71875 61.234375
Q 38.96875 64.796875 32.078125 64.796875
z
M 9.8125 72.90625
L 32.078125 72.90625
Q 44.34375 72.90625 50.609375 67.359375
Q 56.890625 61.8125 56.890625 51.125
Q 56.890625 40.328125 50.609375 34.8125
Q 44.34375 29.296875 32.078125 29.296875
L 19.671875 29.296875
L 19.671875 0
L 9.8125 0
z
" id="DejaVuSans-80"/>
     <path d="M 34.1875 63.1875
L 20.796875 26.90625
L 47.609375 26.90625
z
M 28.609375 72.90625
L 39.796875 72.90625
L 67.578125 0
L 57.328125 0
L 50.6875 18.703125
L 17.828125 18.703125
L 11.1875 0
L 0.78125 0
z
" id="DejaVuSans-65"/>
     <path d="M 8.015625 75.875
L 15.828125 75.875
Q 23.140625 64.359375 26.78125 53.3125
Q 30.421875 42.28125 30.421875 31.390625
Q 30.421875 20.453125 26.78125 9.375
Q 23.140625 -1.703125 15.828125 -13.1875
L 8.015625 -13.1875
Q 14.5 -2 17.703125 9.0625
Q 20.90625 20.125 20.90625 31.390625
Q 20.90625 42.671875 17.703125 53.65625
Q 14.5 64.65625 8.015625 75.875
z
" id="DejaVuSans-41"/>
    </defs>
    <g transform="translate(95.575 12.1575)scale(0.16 -0.16)">
     <use xlink:href="#DejaVuSans-87"/>
     <use x="98.876953" xlink:href="#DejaVuSans-104"/>
     <use x="162.255859" xlink:href="#DejaVuSans-111"/>
     <use x="223.4375" xlink:href="#DejaVuSans-32"/>
     <use x="255.224609" xlink:href="#DejaVuSans-97"/>
     <use x="316.503906" xlink:href="#DejaVuSans-114"/>
     <use x="357.585938" xlink:href="#DejaVuSans-101"/>
     <use x="419.109375" xlink:href="#DejaVuSans-32"/>
     <use x="450.896484" xlink:href="#DejaVuSans-109"/>
     <use x="548.308594" xlink:href="#DejaVuSans-111"/>
     <use x="609.490234" xlink:href="#DejaVuSans-115"/>
     <use x="661.589844" xlink:href="#DejaVuSans-116"/>
     <use x="700.798828" xlink:href="#DejaVuSans-47"/>
     <use x="734.490234" xlink:href="#DejaVuSans-108"/>
     <use x="762.273438" xlink:href="#DejaVuSans-101"/>
     <use x="823.796875" xlink:href="#DejaVuSans-97"/>
     <use x="885.076172" xlink:href="#DejaVuSans-115"/>
     <use x="937.175781" xlink:href="#DejaVuSans-116"/>
     <use x="976.384766" xlink:href="#DejaVuSans-32"/>
     <use x="1008.171875" xlink:href="#DejaVuSans-115"/>
     <use x="1060.271484" xlink:href="#DejaVuSans-116"/>
     <use x="1099.480469" xlink:href="#DejaVuSans-97"/>
     <use x="1160.759766" xlink:href="#DejaVuSans-98"/>
     <use x="1224.236328" xlink:href="#DejaVuSans-108"/>
     <use x="1252.019531" xlink:href="#DejaVuSans-101"/>
     <use x="1313.542969" xlink:href="#DejaVuSans-32"/>
     <use x="1345.330078" xlink:href="#DejaVuSans-99"/>
     <use x="1400.310547" xlink:href="#DejaVuSans-111"/>
     <use x="1461.492188" xlink:href="#DejaVuSans-114"/>
     <use x="1502.574219" xlink:href="#DejaVuSans-101"/>
     <use x="1564.097656" xlink:href="#DejaVuSans-32"/>
     <use x="1595.884766" xlink:href="#DejaVuSans-103"/>
     <use x="1659.361328" xlink:href="#DejaVuSans-101"/>
     <use x="1720.884766" xlink:href="#DejaVuSans-110"/>
     <use x="1784.263672" xlink:href="#DejaVuSans-101"/>
     <use x="1845.787109" xlink:href="#DejaVuSans-115"/>
     <use x="1897.886719" xlink:href="#DejaVuSans-32"/>
     <use x="1929.673828" xlink:href="#DejaVuSans-114"/>
     <use x="1970.755859" xlink:href="#DejaVuSans-101"/>
     <use x="2032.279297" xlink:href="#DejaVuSans-108"/>
     <use x="2060.0625" xlink:href="#DejaVuSans-97"/>
     <use x="2121.341797" xlink:href="#DejaVuSans-116"/>
     <use x="2160.550781" xlink:href="#DejaVuSans-101"/>
     <use x="2222.074219" xlink:href="#DejaVuSans-100"/>
     <use x="2285.550781" xlink:href="#DejaVuSans-32"/>
     <use x="2317.337891" xlink:href="#DejaVuSans-116"/>
     <use x="2356.546875" xlink:href="#DejaVuSans-111"/>
     <use x="2417.728516" xlink:href="#DejaVuSans-32"/>
     <use x="2449.515625" xlink:href="#DejaVuSans-40"/>
     <use x="2488.529297" xlink:href="#DejaVuSans-80"/>
     <use x="2548.738281" xlink:href="#DejaVuSans-65"/>
     <use x="2617.130859" xlink:href="#DejaVuSans-79"/>
     <use x="2695.841797" xlink:href="#DejaVuSans-49"/>
     <use x="2759.464844" xlink:href="#DejaVuSans-41"/>
    </g>
   </g>
   <g id="legend_1">
    <g id="patch_51">
     <path d="M 628.7525 266.1645
L 767.665625 266.1645
Q 770.065625 266.1645 770.065625 263.7645
L 770.065625 194.5095
Q 770.065625 192.1095 767.665625 192.1095
L 628.7525 192.1095
Q 626.3525 192.1095 626.3525 194.5095
L 626.3525 263.7645
Q 626.3525 266.1645 628.7525 266.1645
z
" style="fill:#ffffff;opacity:0.8;stroke:#cccccc;stroke-linejoin:miter;"/>
    </g>
    <g id="patch_52">
     <path d="M 631.1525 206.027625
L 655.1525 206.027625
L 655.1525 197.627625
L 631.1525 197.627625
z
" style="fill:#2e3e7e;"/>
    </g>
    <g id="text_21">
     <!-- most stable acc -->
     <g transform="translate(664.7525 206.027625)scale(0.12 -0.12)">
      <use xlink:href="#DejaVuSans-109"/>
      <use x="97.412109" xlink:href="#DejaVuSans-111"/>
      <use x="158.59375" xlink:href="#DejaVuSans-115"/>
      <use x="210.693359" xlink:href="#DejaVuSans-116"/>
      <use x="249.902344" xlink:href="#DejaVuSans-32"/>
      <use x="281.689453" xlink:href="#DejaVuSans-115"/>
      <use x="333.789062" xlink:href="#DejaVuSans-116"/>
      <use x="372.998047" xlink:href="#DejaVuSans-97"/>
      <use x="434.277344" xlink:href="#DejaVuSans-98"/>
      <use x="497.753906" xlink:href="#DejaVuSans-108"/>
      <use x="525.537109" xlink:href="#DejaVuSans-101"/>
      <use x="587.060547" xlink:href="#DejaVuSans-32"/>
      <use x="618.847656" xlink:href="#DejaVuSans-97"/>
      <use x="680.126953" xlink:href="#DejaVuSans-99"/>
      <use x="735.107422" xlink:href="#DejaVuSans-99"/>
     </g>
    </g>
    <g id="patch_53">
     <path d="M 631.1525 223.641375
L 655.1525 223.641375
L 655.1525 215.241375
L 631.1525 215.241375
z
" style="fill:#abb1cb;"/>
    </g>
    <g id="text_22">
     <!-- least stable acc -->
     <g transform="translate(664.7525 223.641375)scale(0.12 -0.12)">
      <use xlink:href="#DejaVuSans-108"/>
      <use x="27.783203" xlink:href="#DejaVuSans-101"/>
      <use x="89.306641" xlink:href="#DejaVuSans-97"/>
      <use x="150.585938" xlink:href="#DejaVuSans-115"/>
      <use x="202.685547" xlink:href="#DejaVuSans-116"/>
      <use x="241.894531" xlink:href="#DejaVuSans-32"/>
      <use x="273.681641" xlink:href="#DejaVuSans-115"/>
      <use x="325.78125" xlink:href="#DejaVuSans-116"/>
      <use x="364.990234" xlink:href="#DejaVuSans-97"/>
      <use x="426.269531" xlink:href="#DejaVuSans-98"/>
      <use x="489.746094" xlink:href="#DejaVuSans-108"/>
      <use x="517.529297" xlink:href="#DejaVuSans-101"/>
      <use x="579.052734" xlink:href="#DejaVuSans-32"/>
      <use x="610.839844" xlink:href="#DejaVuSans-97"/>
      <use x="672.119141" xlink:href="#DejaVuSans-99"/>
      <use x="727.099609" xlink:href="#DejaVuSans-99"/>
     </g>
    </g>
    <g id="patch_54">
     <path d="M 631.1525 241.255125
L 655.1525 241.255125
L 655.1525 232.855125
L 631.1525 232.855125
z
" style="fill:#e38061;"/>
    </g>
    <g id="text_23">
     <!-- most stable core -->
     <g transform="translate(664.7525 241.255125)scale(0.12 -0.12)">
      <use xlink:href="#DejaVuSans-109"/>
      <use x="97.412109" xlink:href="#DejaVuSans-111"/>
      <use x="158.59375" xlink:href="#DejaVuSans-115"/>
      <use x="210.693359" xlink:href="#DejaVuSans-116"/>
      <use x="249.902344" xlink:href="#DejaVuSans-32"/>
      <use x="281.689453" xlink:href="#DejaVuSans-115"/>
      <use x="333.789062" xlink:href="#DejaVuSans-116"/>
      <use x="372.998047" xlink:href="#DejaVuSans-97"/>
      <use x="434.277344" xlink:href="#DejaVuSans-98"/>
      <use x="497.753906" xlink:href="#DejaVuSans-108"/>
      <use x="525.537109" xlink:href="#DejaVuSans-101"/>
      <use x="587.060547" xlink:href="#DejaVuSans-32"/>
      <use x="618.847656" xlink:href="#DejaVuSans-99"/>
      <use x="673.828125" xlink:href="#DejaVuSans-111"/>
      <use x="735.009766" xlink:href="#DejaVuSans-114"/>
      <use x="776.091797" xlink:href="#DejaVuSans-101"/>
     </g>
    </g>
    <g id="patch_55">
     <path d="M 631.1525 258.868875
L 655.1525 258.868875
L 655.1525 250.468875
L 631.1525 250.468875
z
" style="fill:#f3ccc0;"/>
    </g>
    <g id="text_24">
     <!-- least stable core -->
     <g transform="translate(664.7525 258.868875)scale(0.12 -0.12)">
      <use xlink:href="#DejaVuSans-108"/>
      <use x="27.783203" xlink:href="#DejaVuSans-101"/>
      <use x="89.306641" xlink:href="#DejaVuSans-97"/>
      <use x="150.585938" xlink:href="#DejaVuSans-115"/>
      <use x="202.685547" xlink:href="#DejaVuSans-116"/>
      <use x="241.894531" xlink:href="#DejaVuSans-32"/>
      <use x="273.681641" xlink:href="#DejaVuSans-115"/>
      <use x="325.78125" xlink:href="#DejaVuSans-116"/>
      <use x="364.990234" xlink:href="#DejaVuSans-97"/>
      <use x="426.269531" xlink:href="#DejaVuSans-98"/>
      <use x="489.746094" xlink:href="#DejaVuSans-108"/>
      <use x="517.529297" xlink:href="#DejaVuSans-101"/>
      <use x="579.052734" xlink:href="#DejaVuSans-32"/>
      <use x="610.839844" xlink:href="#DejaVuSans-99"/>
      <use x="665.820312" xlink:href="#DejaVuSans-111"/>
      <use x="727.001953" xlink:href="#DejaVuSans-114"/>
      <use x="768.083984" xlink:href="#DejaVuSans-101"/>
     </g>
    </g>
   </g>
  </g>
 </g>
 <defs>
  <clipPath id="p2ce3c6dd01">
   <rect height="434.88" width="558" x="40.4525" y="18.1575"/>
  </clipPath>
 </defs>
</svg>
