<?xml version="1.0" encoding="utf-8" standalone="no"?>
<!DOCTYPE svg PUBLIC "-//W3C//DTD SVG 1.1//EN"
  "http://www.w3.org/Graphics/SVG/1.1/DTD/svg11.dtd">
<!-- Created with matplotlib (https://matplotlib.org/) -->
<svg height="288pt" version="1.1" viewBox="0 0 432 288" width="432pt" xmlns="http://www.w3.org/2000/svg" xmlns:xlink="http://www.w3.org/1999/xlink">
 <defs>
  <style type="text/css">
*{stroke-linecap:butt;stroke-linejoin:round;}
  </style>
 </defs>
 <g id="figure_1">
  <g id="patch_1">
   <path d="M 0 288
L 432 288
L 432 0
L 0 0
z
" style="fill:#ffffff;"/>
  </g>
  <g id="axes_1">
   <g id="patch_2">
    <path d="M 54 252
L 388.8 252
L 388.8 34.56
L 54 34.56
z
" style="fill:#ffffff;"/>
   </g>
   <g id="patch_3">
    <path clip-path="url(#pd1e9bea79a)" d="M 83.738343 252
L 92.019585 252
L 92.019585 247.663126
L 83.738343 247.663126
z
" style="fill:#808080;opacity:0.4;"/>
   </g>
   <g id="patch_4">
    <path clip-path="url(#pd1e9bea79a)" d="M 92.019585 252
L 100.300827 252
L 100.300827 249.831563
L 92.019585 249.831563
z
" style="fill:#808080;opacity:0.4;"/>
   </g>
   <g id="patch_5">
    <path clip-path="url(#pd1e9bea79a)" d="M 100.300827 252
L 108.582069 252
L 108.582069 246.578908
L 100.300827 246.578908
z
" style="fill:#808080;opacity:0.4;"/>
   </g>
   <g id="patch_6">
    <path clip-path="url(#pd1e9bea79a)" d="M 108.582069 252
L 116.863312 252
L 116.863312 221.641885
L 108.582069 221.641885
z
" style="fill:#808080;opacity:0.4;"/>
   </g>
   <g id="patch_7">
    <path clip-path="url(#pd1e9bea79a)" d="M 116.863312 252
L 125.144554 252
L 125.144554 209.715482
L 116.863312 209.715482
z
" style="fill:#808080;opacity:0.4;"/>
   </g>
   <g id="patch_8">
    <path clip-path="url(#pd1e9bea79a)" d="M 125.144554 252
L 133.425796 252
L 133.425796 208.089155
L 125.144554 208.089155
z
" style="fill:#808080;opacity:0.4;"/>
   </g>
   <g id="patch_9">
    <path clip-path="url(#pd1e9bea79a)" d="M 133.425796 252
L 141.707038 252
L 141.707038 203.752281
L 133.425796 203.752281
z
" style="fill:#808080;opacity:0.4;"/>
   </g>
   <g id="patch_10">
    <path clip-path="url(#pd1e9bea79a)" d="M 141.707038 252
L 149.98828 252
L 149.98828 191.825879
L 141.707038 191.825879
z
" style="fill:#808080;opacity:0.4;"/>
   </g>
   <g id="patch_11">
    <path clip-path="url(#pd1e9bea79a)" d="M 149.98828 252
L 158.269522 252
L 158.269522 209.173373
L 149.98828 209.173373
z
" style="fill:#808080;opacity:0.4;"/>
   </g>
   <g id="patch_12">
    <path clip-path="url(#pd1e9bea79a)" d="M 158.269522 252
L 166.550764 252
L 166.550764 216.220793
L 158.269522 216.220793
z
" style="fill:#808080;opacity:0.4;"/>
   </g>
   <g id="patch_13">
    <path clip-path="url(#pd1e9bea79a)" d="M 166.550764 252
L 174.832007 252
L 174.832007 221.641885
L 166.550764 221.641885
z
" style="fill:#808080;opacity:0.4;"/>
   </g>
   <g id="patch_14">
    <path clip-path="url(#pd1e9bea79a)" d="M 174.832007 252
L 183.113249 252
L 183.113249 228.689304
L 174.832007 228.689304
z
" style="fill:#808080;opacity:0.4;"/>
   </g>
   <g id="patch_15">
    <path clip-path="url(#pd1e9bea79a)" d="M 183.113249 252
L 191.394491 252
L 191.394491 237.905161
L 183.113249 237.905161
z
" style="fill:#808080;opacity:0.4;"/>
   </g>
   <g id="patch_16">
    <path clip-path="url(#pd1e9bea79a)" d="M 191.394491 252
L 199.675733 252
L 199.675733 236.820942
L 191.394491 236.820942
z
" style="fill:#808080;opacity:0.4;"/>
   </g>
   <g id="patch_17">
    <path clip-path="url(#pd1e9bea79a)" d="M 199.675733 252
L 207.956975 252
L 207.956975 243.326253
L 199.675733 243.326253
z
" style="fill:#808080;opacity:0.4;"/>
   </g>
   <g id="patch_18">
    <path clip-path="url(#pd1e9bea79a)" d="M 207.956975 252
L 216.238217 252
L 216.238217 248.747345
L 207.956975 248.747345
z
" style="fill:#808080;opacity:0.4;"/>
   </g>
   <g id="patch_19">
    <path clip-path="url(#pd1e9bea79a)" d="M 216.238217 252
L 224.519459 252
L 224.519459 248.747345
L 216.238217 248.747345
z
" style="fill:#808080;opacity:0.4;"/>
   </g>
   <g id="patch_20">
    <path clip-path="url(#pd1e9bea79a)" d="M 224.519459 252
L 232.800702 252
L 232.800702 248.205236
L 224.519459 248.205236
z
" style="fill:#808080;opacity:0.4;"/>
   </g>
   <g id="patch_21">
    <path clip-path="url(#pd1e9bea79a)" d="M 232.800702 252
L 241.081944 252
L 241.081944 250.373672
L 232.800702 250.373672
z
" style="fill:#808080;opacity:0.4;"/>
   </g>
   <g id="patch_22">
    <path clip-path="url(#pd1e9bea79a)" d="M 241.081944 252
L 249.363186 252
L 249.363186 249.831563
L 241.081944 249.831563
z
" style="fill:#808080;opacity:0.4;"/>
   </g>
   <g id="patch_23">
    <path clip-path="url(#pd1e9bea79a)" d="M 249.363186 252
L 257.644428 252
L 257.644428 251.457891
L 249.363186 251.457891
z
" style="fill:#808080;opacity:0.4;"/>
   </g>
   <g id="patch_24">
    <path clip-path="url(#pd1e9bea79a)" d="M 257.644428 252
L 265.92567 252
L 265.92567 252
L 257.644428 252
z
" style="fill:#808080;opacity:0.4;"/>
   </g>
   <g id="patch_25">
    <path clip-path="url(#pd1e9bea79a)" d="M 265.92567 252
L 274.206912 252
L 274.206912 251.457891
L 265.92567 251.457891
z
" style="fill:#808080;opacity:0.4;"/>
   </g>
   <g id="patch_26">
    <path clip-path="url(#pd1e9bea79a)" d="M 274.206912 252
L 282.488155 252
L 282.488155 251.457891
L 274.206912 251.457891
z
" style="fill:#808080;opacity:0.4;"/>
   </g>
   <g id="patch_27">
    <path clip-path="url(#pd1e9bea79a)" d="M 282.488155 252
L 290.769397 252
L 290.769397 252
L 282.488155 252
z
" style="fill:#808080;opacity:0.4;"/>
   </g>
   <g id="patch_28">
    <path clip-path="url(#pd1e9bea79a)" d="M 290.769397 252
L 299.050639 252
L 299.050639 250.373672
L 290.769397 250.373672
z
" style="fill:#808080;opacity:0.4;"/>
   </g>
   <g id="patch_29">
    <path clip-path="url(#pd1e9bea79a)" d="M 299.050639 252
L 307.331881 252
L 307.331881 250.373672
L 299.050639 250.373672
z
" style="fill:#808080;opacity:0.4;"/>
   </g>
   <g id="patch_30">
    <path clip-path="url(#pd1e9bea79a)" d="M 307.331881 252
L 315.613123 252
L 315.613123 251.457891
L 307.331881 251.457891
z
" style="fill:#808080;opacity:0.4;"/>
   </g>
   <g id="patch_31">
    <path clip-path="url(#pd1e9bea79a)" d="M 315.613123 252
L 323.894365 252
L 323.894365 251.457891
L 315.613123 251.457891
z
" style="fill:#808080;opacity:0.4;"/>
   </g>
   <g id="patch_32">
    <path clip-path="url(#pd1e9bea79a)" d="M 323.894365 252
L 332.175607 252
L 332.175607 252
L 323.894365 252
z
" style="fill:#808080;opacity:0.4;"/>
   </g>
   <g id="patch_33">
    <path clip-path="url(#pd1e9bea79a)" d="M 332.175607 252
L 340.45685 252
L 340.45685 252
L 332.175607 252
z
" style="fill:#808080;opacity:0.4;"/>
   </g>
   <g id="patch_34">
    <path clip-path="url(#pd1e9bea79a)" d="M 340.45685 252
L 348.738092 252
L 348.738092 249.831563
L 340.45685 249.831563
z
" style="fill:#808080;opacity:0.4;"/>
   </g>
   <g id="patch_35">
    <path clip-path="url(#pd1e9bea79a)" d="M 348.738092 252
L 357.019334 252
L 357.019334 252
L 348.738092 252
z
" style="fill:#808080;opacity:0.4;"/>
   </g>
   <g id="patch_36">
    <path clip-path="url(#pd1e9bea79a)" d="M 357.019334 252
L 365.300576 252
L 365.300576 252
L 357.019334 252
z
" style="fill:#808080;opacity:0.4;"/>
   </g>
   <g id="patch_37">
    <path clip-path="url(#pd1e9bea79a)" d="M 365.300576 252
L 373.581818 252
L 373.581818 251.457891
L 365.300576 251.457891
z
" style="fill:#808080;opacity:0.4;"/>
   </g>
   <g id="patch_38">
    <path clip-path="url(#pd1e9bea79a)" d="M 69.218182 252
L 72.871358 252
L 72.871358 44.914286
L 69.218182 44.914286
z
" style="fill:#0000ff;opacity:0.4;"/>
   </g>
   <g id="patch_39">
    <path clip-path="url(#pd1e9bea79a)" d="M 72.871358 252
L 76.524534 252
L 76.524534 150.08347
L 72.871358 150.08347
z
" style="fill:#0000ff;opacity:0.4;"/>
   </g>
   <g id="patch_40">
    <path clip-path="url(#pd1e9bea79a)" d="M 76.524534 252
L 80.17771 252
L 80.17771 165.804637
L 76.524534 165.804637
z
" style="fill:#0000ff;opacity:0.4;"/>
   </g>
   <g id="patch_41">
    <path clip-path="url(#pd1e9bea79a)" d="M 80.17771 252
L 83.830887 252
L 83.830887 186.946896
L 80.17771 186.946896
z
" style="fill:#0000ff;opacity:0.4;"/>
   </g>
   <g id="patch_42">
    <path clip-path="url(#pd1e9bea79a)" d="M 83.830887 252
L 87.484063 252
L 87.484063 211.34181
L 83.830887 211.34181
z
" style="fill:#0000ff;opacity:0.4;"/>
   </g>
   <g id="patch_43">
    <path clip-path="url(#pd1e9bea79a)" d="M 87.484063 252
L 91.137239 252
L 91.137239 212.426028
L 87.484063 212.426028
z
" style="fill:#0000ff;opacity:0.4;"/>
   </g>
   <g id="patch_44">
    <path clip-path="url(#pd1e9bea79a)" d="M 91.137239 252
L 94.790415 252
L 94.790415 225.436649
L 91.137239 225.436649
z
" style="fill:#0000ff;opacity:0.4;"/>
   </g>
   <g id="patch_45">
    <path clip-path="url(#pd1e9bea79a)" d="M 94.790415 252
L 98.443591 252
L 98.443591 233.568287
L 94.790415 233.568287
z
" style="fill:#0000ff;opacity:0.4;"/>
   </g>
   <g id="patch_46">
    <path clip-path="url(#pd1e9bea79a)" d="M 98.443591 252
L 102.096768 252
L 102.096768 242.784144
L 98.443591 242.784144
z
" style="fill:#0000ff;opacity:0.4;"/>
   </g>
   <g id="patch_47">
    <path clip-path="url(#pd1e9bea79a)" d="M 102.096768 252
L 105.749944 252
L 105.749944 240.615707
L 102.096768 240.615707
z
" style="fill:#0000ff;opacity:0.4;"/>
   </g>
   <g id="patch_48">
    <path clip-path="url(#pd1e9bea79a)" d="M 105.749944 252
L 109.40312 252
L 109.40312 241.699925
L 105.749944 241.699925
z
" style="fill:#0000ff;opacity:0.4;"/>
   </g>
   <g id="patch_49">
    <path clip-path="url(#pd1e9bea79a)" d="M 109.40312 252
L 113.056296 252
L 113.056296 240.073598
L 109.40312 240.073598
z
" style="fill:#0000ff;opacity:0.4;"/>
   </g>
   <g id="patch_50">
    <path clip-path="url(#pd1e9bea79a)" d="M 113.056296 252
L 116.709472 252
L 116.709472 241.157816
L 113.056296 241.157816
z
" style="fill:#0000ff;opacity:0.4;"/>
   </g>
   <g id="patch_51">
    <path clip-path="url(#pd1e9bea79a)" d="M 116.709472 252
L 120.362648 252
L 120.362648 245.49469
L 116.709472 245.49469
z
" style="fill:#0000ff;opacity:0.4;"/>
   </g>
   <g id="patch_52">
    <path clip-path="url(#pd1e9bea79a)" d="M 120.362648 252
L 124.015825 252
L 124.015825 249.831563
L 120.362648 249.831563
z
" style="fill:#0000ff;opacity:0.4;"/>
   </g>
   <g id="patch_53">
    <path clip-path="url(#pd1e9bea79a)" d="M 124.015825 252
L 127.669001 252
L 127.669001 246.036799
L 124.015825 246.036799
z
" style="fill:#0000ff;opacity:0.4;"/>
   </g>
   <g id="patch_54">
    <path clip-path="url(#pd1e9bea79a)" d="M 127.669001 252
L 131.322177 252
L 131.322177 242.242034
L 127.669001 242.242034
z
" style="fill:#0000ff;opacity:0.4;"/>
   </g>
   <g id="patch_55">
    <path clip-path="url(#pd1e9bea79a)" d="M 131.322177 252
L 134.975353 252
L 134.975353 242.784144
L 131.322177 242.784144
z
" style="fill:#0000ff;opacity:0.4;"/>
   </g>
   <g id="patch_56">
    <path clip-path="url(#pd1e9bea79a)" d="M 134.975353 252
L 138.628529 252
L 138.628529 247.121017
L 134.975353 247.121017
z
" style="fill:#0000ff;opacity:0.4;"/>
   </g>
   <g id="patch_57">
    <path clip-path="url(#pd1e9bea79a)" d="M 138.628529 252
L 142.281706 252
L 142.281706 247.663126
L 138.628529 247.663126
z
" style="fill:#0000ff;opacity:0.4;"/>
   </g>
   <g id="patch_58">
    <path clip-path="url(#pd1e9bea79a)" d="M 142.281706 252
L 145.934882 252
L 145.934882 245.49469
L 142.281706 245.49469
z
" style="fill:#0000ff;opacity:0.4;"/>
   </g>
   <g id="patch_59">
    <path clip-path="url(#pd1e9bea79a)" d="M 145.934882 252
L 149.588058 252
L 149.588058 246.036799
L 145.934882 246.036799
z
" style="fill:#0000ff;opacity:0.4;"/>
   </g>
   <g id="patch_60">
    <path clip-path="url(#pd1e9bea79a)" d="M 149.588058 252
L 153.241234 252
L 153.241234 245.49469
L 149.588058 245.49469
z
" style="fill:#0000ff;opacity:0.4;"/>
   </g>
   <g id="patch_61">
    <path clip-path="url(#pd1e9bea79a)" d="M 153.241234 252
L 156.89441 252
L 156.89441 246.578908
L 153.241234 246.578908
z
" style="fill:#0000ff;opacity:0.4;"/>
   </g>
   <g id="patch_62">
    <path clip-path="url(#pd1e9bea79a)" d="M 156.89441 252
L 160.547587 252
L 160.547587 249.289454
L 156.89441 249.289454
z
" style="fill:#0000ff;opacity:0.4;"/>
   </g>
   <g id="patch_63">
    <path clip-path="url(#pd1e9bea79a)" d="M 160.547587 252
L 164.200763 252
L 164.200763 246.578908
L 160.547587 246.578908
z
" style="fill:#0000ff;opacity:0.4;"/>
   </g>
   <g id="patch_64">
    <path clip-path="url(#pd1e9bea79a)" d="M 164.200763 252
L 167.853939 252
L 167.853939 248.205236
L 164.200763 248.205236
z
" style="fill:#0000ff;opacity:0.4;"/>
   </g>
   <g id="patch_65">
    <path clip-path="url(#pd1e9bea79a)" d="M 167.853939 252
L 171.507115 252
L 171.507115 248.205236
L 167.853939 248.205236
z
" style="fill:#0000ff;opacity:0.4;"/>
   </g>
   <g id="patch_66">
    <path clip-path="url(#pd1e9bea79a)" d="M 171.507115 252
L 175.160291 252
L 175.160291 249.289454
L 171.507115 249.289454
z
" style="fill:#0000ff;opacity:0.4;"/>
   </g>
   <g id="patch_67">
    <path clip-path="url(#pd1e9bea79a)" d="M 175.160291 252
L 178.813467 252
L 178.813467 249.289454
L 175.160291 249.289454
z
" style="fill:#0000ff;opacity:0.4;"/>
   </g>
   <g id="patch_68">
    <path clip-path="url(#pd1e9bea79a)" d="M 178.813467 252
L 182.466644 252
L 182.466644 250.915782
L 178.813467 250.915782
z
" style="fill:#0000ff;opacity:0.4;"/>
   </g>
   <g id="patch_69">
    <path clip-path="url(#pd1e9bea79a)" d="M 182.466644 252
L 186.11982 252
L 186.11982 250.915782
L 182.466644 250.915782
z
" style="fill:#0000ff;opacity:0.4;"/>
   </g>
   <g id="patch_70">
    <path clip-path="url(#pd1e9bea79a)" d="M 186.11982 252
L 189.772996 252
L 189.772996 250.915782
L 186.11982 250.915782
z
" style="fill:#0000ff;opacity:0.4;"/>
   </g>
   <g id="patch_71">
    <path clip-path="url(#pd1e9bea79a)" d="M 189.772996 252
L 193.426172 252
L 193.426172 250.373672
L 189.772996 250.373672
z
" style="fill:#0000ff;opacity:0.4;"/>
   </g>
   <g id="patch_72">
    <path clip-path="url(#pd1e9bea79a)" d="M 193.426172 252
L 197.079348 252
L 197.079348 250.915782
L 193.426172 250.915782
z
" style="fill:#0000ff;opacity:0.4;"/>
   </g>
   <g id="patch_73">
    <path clip-path="url(#pd1e9bea79a)" d="M 197.079348 252
L 200.732525 252
L 200.732525 252
L 197.079348 252
z
" style="fill:#0000ff;opacity:0.4;"/>
   </g>
   <g id="patch_74">
    <path clip-path="url(#pd1e9bea79a)" d="M 200.732525 252
L 204.385701 252
L 204.385701 252
L 200.732525 252
z
" style="fill:#0000ff;opacity:0.4;"/>
   </g>
   <g id="patch_75">
    <path clip-path="url(#pd1e9bea79a)" d="M 204.385701 252
L 208.038877 252
L 208.038877 252
L 204.385701 252
z
" style="fill:#0000ff;opacity:0.4;"/>
   </g>
   <g id="patch_76">
    <path clip-path="url(#pd1e9bea79a)" d="M 208.038877 252
L 211.692053 252
L 211.692053 252
L 208.038877 252
z
" style="fill:#0000ff;opacity:0.4;"/>
   </g>
   <g id="patch_77">
    <path clip-path="url(#pd1e9bea79a)" d="M 211.692053 252
L 215.345229 252
L 215.345229 252
L 211.692053 252
z
" style="fill:#0000ff;opacity:0.4;"/>
   </g>
   <g id="patch_78">
    <path clip-path="url(#pd1e9bea79a)" d="M 215.345229 252
L 218.998406 252
L 218.998406 252
L 215.345229 252
z
" style="fill:#0000ff;opacity:0.4;"/>
   </g>
   <g id="patch_79">
    <path clip-path="url(#pd1e9bea79a)" d="M 218.998406 252
L 222.651582 252
L 222.651582 252
L 218.998406 252
z
" style="fill:#0000ff;opacity:0.4;"/>
   </g>
   <g id="patch_80">
    <path clip-path="url(#pd1e9bea79a)" d="M 222.651582 252
L 226.304758 252
L 226.304758 251.457891
L 222.651582 251.457891
z
" style="fill:#0000ff;opacity:0.4;"/>
   </g>
   <g id="patch_81">
    <path clip-path="url(#pd1e9bea79a)" d="M 226.304758 252
L 229.957934 252
L 229.957934 251.457891
L 226.304758 251.457891
z
" style="fill:#0000ff;opacity:0.4;"/>
   </g>
   <g id="matplotlib.axis_1">
    <g id="xtick_1">
     <g id="line2d_1">
      <defs>
       <path d="M 0 0
L 0 3.5
" id="mca591bc4fd" style="stroke:#000000;stroke-width:0.8;"/>
      </defs>
      <g>
       <use style="stroke:#000000;stroke-width:0.8;" x="69.170538" xlink:href="#mca591bc4fd" y="252"/>
      </g>
     </g>
     <g id="text_1">
      <!-- 0 -->
      <defs>
       <path d="M 31.78125 66.40625
Q 24.171875 66.40625 20.328125 58.90625
Q 16.5 51.421875 16.5 36.375
Q 16.5 21.390625 20.328125 13.890625
Q 24.171875 6.390625 31.78125 6.390625
Q 39.453125 6.390625 43.28125 13.890625
Q 47.125 21.390625 47.125 36.375
Q 47.125 51.421875 43.28125 58.90625
Q 39.453125 66.40625 31.78125 66.40625
z
M 31.78125 74.21875
Q 44.046875 74.21875 50.515625 64.515625
Q 56.984375 54.828125 56.984375 36.375
Q 56.984375 17.96875 50.515625 8.265625
Q 44.046875 -1.421875 31.78125 -1.421875
Q 19.53125 -1.421875 13.0625 8.265625
Q 6.59375 17.96875 6.59375 36.375
Q 6.59375 54.828125 13.0625 64.515625
Q 19.53125 74.21875 31.78125 74.21875
z
" id="DejaVuSans-48"/>
      </defs>
      <g transform="translate(65.989288 266.598437)scale(0.1 -0.1)">
       <use xlink:href="#DejaVuSans-48"/>
      </g>
     </g>
    </g>
    <g id="xtick_2">
     <g id="line2d_2">
      <g>
       <use style="stroke:#000000;stroke-width:0.8;" x="122.14102" xlink:href="#mca591bc4fd" y="252"/>
      </g>
     </g>
     <g id="text_2">
      <!-- 50 -->
      <defs>
       <path d="M 10.796875 72.90625
L 49.515625 72.90625
L 49.515625 64.59375
L 19.828125 64.59375
L 19.828125 46.734375
Q 21.96875 47.46875 24.109375 47.828125
Q 26.265625 48.1875 28.421875 48.1875
Q 40.625 48.1875 47.75 41.5
Q 54.890625 34.8125 54.890625 23.390625
Q 54.890625 11.625 47.5625 5.09375
Q 40.234375 -1.421875 26.90625 -1.421875
Q 22.3125 -1.421875 17.546875 -0.640625
Q 12.796875 0.140625 7.71875 1.703125
L 7.71875 11.625
Q 12.109375 9.234375 16.796875 8.0625
Q 21.484375 6.890625 26.703125 6.890625
Q 35.15625 6.890625 40.078125 11.328125
Q 45.015625 15.765625 45.015625 23.390625
Q 45.015625 31 40.078125 35.4375
Q 35.15625 39.890625 26.703125 39.890625
Q 22.75 39.890625 18.8125 39.015625
Q 14.890625 38.140625 10.796875 36.28125
z
" id="DejaVuSans-53"/>
      </defs>
      <g transform="translate(115.77852 266.598437)scale(0.1 -0.1)">
       <use xlink:href="#DejaVuSans-53"/>
       <use x="63.623047" xlink:href="#DejaVuSans-48"/>
      </g>
     </g>
    </g>
    <g id="xtick_3">
     <g id="line2d_3">
      <g>
       <use style="stroke:#000000;stroke-width:0.8;" x="175.111501" xlink:href="#mca591bc4fd" y="252"/>
      </g>
     </g>
     <g id="text_3">
      <!-- 100 -->
      <defs>
       <path d="M 12.40625 8.296875
L 28.515625 8.296875
L 28.515625 63.921875
L 10.984375 60.40625
L 10.984375 69.390625
L 28.421875 72.90625
L 38.28125 72.90625
L 38.28125 8.296875
L 54.390625 8.296875
L 54.390625 0
L 12.40625 0
z
" id="DejaVuSans-49"/>
      </defs>
      <g transform="translate(165.567751 266.598437)scale(0.1 -0.1)">
       <use xlink:href="#DejaVuSans-49"/>
       <use x="63.623047" xlink:href="#DejaVuSans-48"/>
       <use x="127.246094" xlink:href="#DejaVuSans-48"/>
      </g>
     </g>
    </g>
    <g id="xtick_4">
     <g id="line2d_4">
      <g>
       <use style="stroke:#000000;stroke-width:0.8;" x="228.081982" xlink:href="#mca591bc4fd" y="252"/>
      </g>
     </g>
     <g id="text_4">
      <!-- 150 -->
      <g transform="translate(218.538232 266.598437)scale(0.1 -0.1)">
       <use xlink:href="#DejaVuSans-49"/>
       <use x="63.623047" xlink:href="#DejaVuSans-53"/>
       <use x="127.246094" xlink:href="#DejaVuSans-48"/>
      </g>
     </g>
    </g>
    <g id="xtick_5">
     <g id="line2d_5">
      <g>
       <use style="stroke:#000000;stroke-width:0.8;" x="281.052464" xlink:href="#mca591bc4fd" y="252"/>
      </g>
     </g>
     <g id="text_5">
      <!-- 200 -->
      <defs>
       <path d="M 19.1875 8.296875
L 53.609375 8.296875
L 53.609375 0
L 7.328125 0
L 7.328125 8.296875
Q 12.9375 14.109375 22.625 23.890625
Q 32.328125 33.6875 34.8125 36.53125
Q 39.546875 41.84375 41.421875 45.53125
Q 43.3125 49.21875 43.3125 52.78125
Q 43.3125 58.59375 39.234375 62.25
Q 35.15625 65.921875 28.609375 65.921875
Q 23.96875 65.921875 18.8125 64.3125
Q 13.671875 62.703125 7.8125 59.421875
L 7.8125 69.390625
Q 13.765625 71.78125 18.9375 73
Q 24.125 74.21875 28.421875 74.21875
Q 39.75 74.21875 46.484375 68.546875
Q 53.21875 62.890625 53.21875 53.421875
Q 53.21875 48.921875 51.53125 44.890625
Q 49.859375 40.875 45.40625 35.40625
Q 44.1875 33.984375 37.640625 27.21875
Q 31.109375 20.453125 19.1875 8.296875
z
" id="DejaVuSans-50"/>
      </defs>
      <g transform="translate(271.508714 266.598437)scale(0.1 -0.1)">
       <use xlink:href="#DejaVuSans-50"/>
       <use x="63.623047" xlink:href="#DejaVuSans-48"/>
       <use x="127.246094" xlink:href="#DejaVuSans-48"/>
      </g>
     </g>
    </g>
    <g id="xtick_6">
     <g id="line2d_6">
      <g>
       <use style="stroke:#000000;stroke-width:0.8;" x="334.022945" xlink:href="#mca591bc4fd" y="252"/>
      </g>
     </g>
     <g id="text_6">
      <!-- 250 -->
      <g transform="translate(324.479195 266.598437)scale(0.1 -0.1)">
       <use xlink:href="#DejaVuSans-50"/>
       <use x="63.623047" xlink:href="#DejaVuSans-53"/>
       <use x="127.246094" xlink:href="#DejaVuSans-48"/>
      </g>
     </g>
    </g>
    <g id="xtick_7">
     <g id="line2d_7">
      <g>
       <use style="stroke:#000000;stroke-width:0.8;" x="386.993426" xlink:href="#mca591bc4fd" y="252"/>
      </g>
     </g>
     <g id="text_7">
      <!-- 300 -->
      <defs>
       <path d="M 40.578125 39.3125
Q 47.65625 37.796875 51.625 33
Q 55.609375 28.21875 55.609375 21.1875
Q 55.609375 10.40625 48.1875 4.484375
Q 40.765625 -1.421875 27.09375 -1.421875
Q 22.515625 -1.421875 17.65625 -0.515625
Q 12.796875 0.390625 7.625 2.203125
L 7.625 11.71875
Q 11.71875 9.328125 16.59375 8.109375
Q 21.484375 6.890625 26.8125 6.890625
Q 36.078125 6.890625 40.9375 10.546875
Q 45.796875 14.203125 45.796875 21.1875
Q 45.796875 27.640625 41.28125 31.265625
Q 36.765625 34.90625 28.71875 34.90625
L 20.21875 34.90625
L 20.21875 43.015625
L 29.109375 43.015625
Q 36.375 43.015625 40.234375 45.921875
Q 44.09375 48.828125 44.09375 54.296875
Q 44.09375 59.90625 40.109375 62.90625
Q 36.140625 65.921875 28.71875 65.921875
Q 24.65625 65.921875 20.015625 65.03125
Q 15.375 64.15625 9.8125 62.3125
L 9.8125 71.09375
Q 15.4375 72.65625 20.34375 73.4375
Q 25.25 74.21875 29.59375 74.21875
Q 40.828125 74.21875 47.359375 69.109375
Q 53.90625 64.015625 53.90625 55.328125
Q 53.90625 49.265625 50.4375 45.09375
Q 46.96875 40.921875 40.578125 39.3125
z
" id="DejaVuSans-51"/>
      </defs>
      <g transform="translate(377.449676 266.598437)scale(0.1 -0.1)">
       <use xlink:href="#DejaVuSans-51"/>
       <use x="63.623047" xlink:href="#DejaVuSans-48"/>
       <use x="127.246094" xlink:href="#DejaVuSans-48"/>
      </g>
     </g>
    </g>
    <g id="text_8">
     <!-- median acc expression_pao1 -->
     <defs>
      <path d="M 52 44.1875
Q 55.375 50.25 60.0625 53.125
Q 64.75 56 71.09375 56
Q 79.640625 56 84.28125 50.015625
Q 88.921875 44.046875 88.921875 33.015625
L 88.921875 0
L 79.890625 0
L 79.890625 32.71875
Q 79.890625 40.578125 77.09375 44.375
Q 74.3125 48.1875 68.609375 48.1875
Q 61.625 48.1875 57.5625 43.546875
Q 53.515625 38.921875 53.515625 30.90625
L 53.515625 0
L 44.484375 0
L 44.484375 32.71875
Q 44.484375 40.625 41.703125 44.40625
Q 38.921875 48.1875 33.109375 48.1875
Q 26.21875 48.1875 22.15625 43.53125
Q 18.109375 38.875 18.109375 30.90625
L 18.109375 0
L 9.078125 0
L 9.078125 54.6875
L 18.109375 54.6875
L 18.109375 46.1875
Q 21.1875 51.21875 25.484375 53.609375
Q 29.78125 56 35.6875 56
Q 41.65625 56 45.828125 52.96875
Q 50 49.953125 52 44.1875
z
" id="DejaVuSans-109"/>
      <path d="M 56.203125 29.59375
L 56.203125 25.203125
L 14.890625 25.203125
Q 15.484375 15.921875 20.484375 11.0625
Q 25.484375 6.203125 34.421875 6.203125
Q 39.59375 6.203125 44.453125 7.46875
Q 49.3125 8.734375 54.109375 11.28125
L 54.109375 2.78125
Q 49.265625 0.734375 44.1875 -0.34375
Q 39.109375 -1.421875 33.890625 -1.421875
Q 20.796875 -1.421875 13.15625 6.1875
Q 5.515625 13.8125 5.515625 26.8125
Q 5.515625 40.234375 12.765625 48.109375
Q 20.015625 56 32.328125 56
Q 43.359375 56 49.78125 48.890625
Q 56.203125 41.796875 56.203125 29.59375
z
M 47.21875 32.234375
Q 47.125 39.59375 43.09375 43.984375
Q 39.0625 48.390625 32.421875 48.390625
Q 24.90625 48.390625 20.390625 44.140625
Q 15.875 39.890625 15.1875 32.171875
z
" id="DejaVuSans-101"/>
      <path d="M 45.40625 46.390625
L 45.40625 75.984375
L 54.390625 75.984375
L 54.390625 0
L 45.40625 0
L 45.40625 8.203125
Q 42.578125 3.328125 38.25 0.953125
Q 33.9375 -1.421875 27.875 -1.421875
Q 17.96875 -1.421875 11.734375 6.484375
Q 5.515625 14.40625 5.515625 27.296875
Q 5.515625 40.1875 11.734375 48.09375
Q 17.96875 56 27.875 56
Q 33.9375 56 38.25 53.625
Q 42.578125 51.265625 45.40625 46.390625
z
M 14.796875 27.296875
Q 14.796875 17.390625 18.875 11.75
Q 22.953125 6.109375 30.078125 6.109375
Q 37.203125 6.109375 41.296875 11.75
Q 45.40625 17.390625 45.40625 27.296875
Q 45.40625 37.203125 41.296875 42.84375
Q 37.203125 48.484375 30.078125 48.484375
Q 22.953125 48.484375 18.875 42.84375
Q 14.796875 37.203125 14.796875 27.296875
z
" id="DejaVuSans-100"/>
      <path d="M 9.421875 54.6875
L 18.40625 54.6875
L 18.40625 0
L 9.421875 0
z
M 9.421875 75.984375
L 18.40625 75.984375
L 18.40625 64.59375
L 9.421875 64.59375
z
" id="DejaVuSans-105"/>
      <path d="M 34.28125 27.484375
Q 23.390625 27.484375 19.1875 25
Q 14.984375 22.515625 14.984375 16.5
Q 14.984375 11.71875 18.140625 8.90625
Q 21.296875 6.109375 26.703125 6.109375
Q 34.1875 6.109375 38.703125 11.40625
Q 43.21875 16.703125 43.21875 25.484375
L 43.21875 27.484375
z
M 52.203125 31.203125
L 52.203125 0
L 43.21875 0
L 43.21875 8.296875
Q 40.140625 3.328125 35.546875 0.953125
Q 30.953125 -1.421875 24.3125 -1.421875
Q 15.921875 -1.421875 10.953125 3.296875
Q 6 8.015625 6 15.921875
Q 6 25.140625 12.171875 29.828125
Q 18.359375 34.515625 30.609375 34.515625
L 43.21875 34.515625
L 43.21875 35.40625
Q 43.21875 41.609375 39.140625 45
Q 35.0625 48.390625 27.6875 48.390625
Q 23 48.390625 18.546875 47.265625
Q 14.109375 46.140625 10.015625 43.890625
L 10.015625 52.203125
Q 14.9375 54.109375 19.578125 55.046875
Q 24.21875 56 28.609375 56
Q 40.484375 56 46.34375 49.84375
Q 52.203125 43.703125 52.203125 31.203125
z
" id="DejaVuSans-97"/>
      <path d="M 54.890625 33.015625
L 54.890625 0
L 45.90625 0
L 45.90625 32.71875
Q 45.90625 40.484375 42.875 44.328125
Q 39.84375 48.1875 33.796875 48.1875
Q 26.515625 48.1875 22.3125 43.546875
Q 18.109375 38.921875 18.109375 30.90625
L 18.109375 0
L 9.078125 0
L 9.078125 54.6875
L 18.109375 54.6875
L 18.109375 46.1875
Q 21.34375 51.125 25.703125 53.5625
Q 30.078125 56 35.796875 56
Q 45.21875 56 50.046875 50.171875
Q 54.890625 44.34375 54.890625 33.015625
z
" id="DejaVuSans-110"/>
      <path id="DejaVuSans-32"/>
      <path d="M 48.78125 52.59375
L 48.78125 44.1875
Q 44.96875 46.296875 41.140625 47.34375
Q 37.3125 48.390625 33.40625 48.390625
Q 24.65625 48.390625 19.8125 42.84375
Q 14.984375 37.3125 14.984375 27.296875
Q 14.984375 17.28125 19.8125 11.734375
Q 24.65625 6.203125 33.40625 6.203125
Q 37.3125 6.203125 41.140625 7.25
Q 44.96875 8.296875 48.78125 10.40625
L 48.78125 2.09375
Q 45.015625 0.34375 40.984375 -0.53125
Q 36.96875 -1.421875 32.421875 -1.421875
Q 20.0625 -1.421875 12.78125 6.34375
Q 5.515625 14.109375 5.515625 27.296875
Q 5.515625 40.671875 12.859375 48.328125
Q 20.21875 56 33.015625 56
Q 37.15625 56 41.109375 55.140625
Q 45.0625 54.296875 48.78125 52.59375
z
" id="DejaVuSans-99"/>
      <path d="M 54.890625 54.6875
L 35.109375 28.078125
L 55.90625 0
L 45.3125 0
L 29.390625 21.484375
L 13.484375 0
L 2.875 0
L 24.125 28.609375
L 4.6875 54.6875
L 15.28125 54.6875
L 29.78125 35.203125
L 44.28125 54.6875
z
" id="DejaVuSans-120"/>
      <path d="M 18.109375 8.203125
L 18.109375 -20.796875
L 9.078125 -20.796875
L 9.078125 54.6875
L 18.109375 54.6875
L 18.109375 46.390625
Q 20.953125 51.265625 25.265625 53.625
Q 29.59375 56 35.59375 56
Q 45.5625 56 51.78125 48.09375
Q 58.015625 40.1875 58.015625 27.296875
Q 58.015625 14.40625 51.78125 6.484375
Q 45.5625 -1.421875 35.59375 -1.421875
Q 29.59375 -1.421875 25.265625 0.953125
Q 20.953125 3.328125 18.109375 8.203125
z
M 48.6875 27.296875
Q 48.6875 37.203125 44.609375 42.84375
Q 40.53125 48.484375 33.40625 48.484375
Q 26.265625 48.484375 22.1875 42.84375
Q 18.109375 37.203125 18.109375 27.296875
Q 18.109375 17.390625 22.1875 11.75
Q 26.265625 6.109375 33.40625 6.109375
Q 40.53125 6.109375 44.609375 11.75
Q 48.6875 17.390625 48.6875 27.296875
z
" id="DejaVuSans-112"/>
      <path d="M 41.109375 46.296875
Q 39.59375 47.171875 37.8125 47.578125
Q 36.03125 48 33.890625 48
Q 26.265625 48 22.1875 43.046875
Q 18.109375 38.09375 18.109375 28.8125
L 18.109375 0
L 9.078125 0
L 9.078125 54.6875
L 18.109375 54.6875
L 18.109375 46.1875
Q 20.953125 51.171875 25.484375 53.578125
Q 30.03125 56 36.53125 56
Q 37.453125 56 38.578125 55.875
Q 39.703125 55.765625 41.0625 55.515625
z
" id="DejaVuSans-114"/>
      <path d="M 44.28125 53.078125
L 44.28125 44.578125
Q 40.484375 46.53125 36.375 47.5
Q 32.28125 48.484375 27.875 48.484375
Q 21.1875 48.484375 17.84375 46.4375
Q 14.5 44.390625 14.5 40.28125
Q 14.5 37.15625 16.890625 35.375
Q 19.28125 33.59375 26.515625 31.984375
L 29.59375 31.296875
Q 39.15625 29.25 43.1875 25.515625
Q 47.21875 21.78125 47.21875 15.09375
Q 47.21875 7.46875 41.1875 3.015625
Q 35.15625 -1.421875 24.609375 -1.421875
Q 20.21875 -1.421875 15.453125 -0.5625
Q 10.6875 0.296875 5.421875 2
L 5.421875 11.28125
Q 10.40625 8.6875 15.234375 7.390625
Q 20.0625 6.109375 24.8125 6.109375
Q 31.15625 6.109375 34.5625 8.28125
Q 37.984375 10.453125 37.984375 14.40625
Q 37.984375 18.0625 35.515625 20.015625
Q 33.0625 21.96875 24.703125 23.78125
L 21.578125 24.515625
Q 13.234375 26.265625 9.515625 29.90625
Q 5.8125 33.546875 5.8125 39.890625
Q 5.8125 47.609375 11.28125 51.796875
Q 16.75 56 26.8125 56
Q 31.78125 56 36.171875 55.265625
Q 40.578125 54.546875 44.28125 53.078125
z
" id="DejaVuSans-115"/>
      <path d="M 30.609375 48.390625
Q 23.390625 48.390625 19.1875 42.75
Q 14.984375 37.109375 14.984375 27.296875
Q 14.984375 17.484375 19.15625 11.84375
Q 23.34375 6.203125 30.609375 6.203125
Q 37.796875 6.203125 41.984375 11.859375
Q 46.1875 17.53125 46.1875 27.296875
Q 46.1875 37.015625 41.984375 42.703125
Q 37.796875 48.390625 30.609375 48.390625
z
M 30.609375 56
Q 42.328125 56 49.015625 48.375
Q 55.71875 40.765625 55.71875 27.296875
Q 55.71875 13.875 49.015625 6.21875
Q 42.328125 -1.421875 30.609375 -1.421875
Q 18.84375 -1.421875 12.171875 6.21875
Q 5.515625 13.875 5.515625 27.296875
Q 5.515625 40.765625 12.171875 48.375
Q 18.84375 56 30.609375 56
z
" id="DejaVuSans-111"/>
      <path d="M 50.984375 -16.609375
L 50.984375 -23.578125
L -0.984375 -23.578125
L -0.984375 -16.609375
z
" id="DejaVuSans-95"/>
     </defs>
     <g transform="translate(148.771094 280.276563)scale(0.1 -0.1)">
      <use xlink:href="#DejaVuSans-109"/>
      <use x="97.412109" xlink:href="#DejaVuSans-101"/>
      <use x="158.935547" xlink:href="#DejaVuSans-100"/>
      <use x="222.412109" xlink:href="#DejaVuSans-105"/>
      <use x="250.195312" xlink:href="#DejaVuSans-97"/>
      <use x="311.474609" xlink:href="#DejaVuSans-110"/>
      <use x="374.853516" xlink:href="#DejaVuSans-32"/>
      <use x="406.640625" xlink:href="#DejaVuSans-97"/>
      <use x="467.919922" xlink:href="#DejaVuSans-99"/>
      <use x="522.900391" xlink:href="#DejaVuSans-99"/>
      <use x="577.880859" xlink:href="#DejaVuSans-32"/>
      <use x="609.667969" xlink:href="#DejaVuSans-101"/>
      <use x="671.175781" xlink:href="#DejaVuSans-120"/>
      <use x="730.355469" xlink:href="#DejaVuSans-112"/>
      <use x="793.832031" xlink:href="#DejaVuSans-114"/>
      <use x="834.914062" xlink:href="#DejaVuSans-101"/>
      <use x="896.4375" xlink:href="#DejaVuSans-115"/>
      <use x="948.537109" xlink:href="#DejaVuSans-115"/>
      <use x="1000.636719" xlink:href="#DejaVuSans-105"/>
      <use x="1028.419922" xlink:href="#DejaVuSans-111"/>
      <use x="1089.601562" xlink:href="#DejaVuSans-110"/>
      <use x="1152.980469" xlink:href="#DejaVuSans-95"/>
      <use x="1202.980469" xlink:href="#DejaVuSans-112"/>
      <use x="1266.457031" xlink:href="#DejaVuSans-97"/>
      <use x="1327.736328" xlink:href="#DejaVuSans-111"/>
      <use x="1388.917969" xlink:href="#DejaVuSans-49"/>
     </g>
    </g>
   </g>
   <g id="matplotlib.axis_2">
    <g id="ytick_1">
     <g id="line2d_8">
      <defs>
       <path d="M 0 0
L -3.5 0
" id="md7d060c75f" style="stroke:#000000;stroke-width:0.8;"/>
      </defs>
      <g>
       <use style="stroke:#000000;stroke-width:0.8;" x="54" xlink:href="#md7d060c75f" y="252"/>
      </g>
     </g>
     <g id="text_9">
      <!-- 0 -->
      <g transform="translate(40.6375 255.799219)scale(0.1 -0.1)">
       <use xlink:href="#DejaVuSans-48"/>
      </g>
     </g>
    </g>
    <g id="ytick_2">
     <g id="line2d_9">
      <g>
       <use style="stroke:#000000;stroke-width:0.8;" x="54" xlink:href="#md7d060c75f" y="224.89454"/>
      </g>
     </g>
     <g id="text_10">
      <!-- 50 -->
      <g transform="translate(34.275 228.693759)scale(0.1 -0.1)">
       <use xlink:href="#DejaVuSans-53"/>
       <use x="63.623047" xlink:href="#DejaVuSans-48"/>
      </g>
     </g>
    </g>
    <g id="ytick_3">
     <g id="line2d_10">
      <g>
       <use style="stroke:#000000;stroke-width:0.8;" x="54" xlink:href="#md7d060c75f" y="197.78908"/>
      </g>
     </g>
     <g id="text_11">
      <!-- 100 -->
      <g transform="translate(27.9125 201.588299)scale(0.1 -0.1)">
       <use xlink:href="#DejaVuSans-49"/>
       <use x="63.623047" xlink:href="#DejaVuSans-48"/>
       <use x="127.246094" xlink:href="#DejaVuSans-48"/>
      </g>
     </g>
    </g>
    <g id="ytick_4">
     <g id="line2d_11">
      <g>
       <use style="stroke:#000000;stroke-width:0.8;" x="54" xlink:href="#md7d060c75f" y="170.68362"/>
      </g>
     </g>
     <g id="text_12">
      <!-- 150 -->
      <g transform="translate(27.9125 174.482839)scale(0.1 -0.1)">
       <use xlink:href="#DejaVuSans-49"/>
       <use x="63.623047" xlink:href="#DejaVuSans-53"/>
       <use x="127.246094" xlink:href="#DejaVuSans-48"/>
      </g>
     </g>
    </g>
    <g id="ytick_5">
     <g id="line2d_12">
      <g>
       <use style="stroke:#000000;stroke-width:0.8;" x="54" xlink:href="#md7d060c75f" y="143.57816"/>
      </g>
     </g>
     <g id="text_13">
      <!-- 200 -->
      <g transform="translate(27.9125 147.377379)scale(0.1 -0.1)">
       <use xlink:href="#DejaVuSans-50"/>
       <use x="63.623047" xlink:href="#DejaVuSans-48"/>
       <use x="127.246094" xlink:href="#DejaVuSans-48"/>
      </g>
     </g>
    </g>
    <g id="ytick_6">
     <g id="line2d_13">
      <g>
       <use style="stroke:#000000;stroke-width:0.8;" x="54" xlink:href="#md7d060c75f" y="116.4727"/>
      </g>
     </g>
     <g id="text_14">
      <!-- 250 -->
      <g transform="translate(27.9125 120.271919)scale(0.1 -0.1)">
       <use xlink:href="#DejaVuSans-50"/>
       <use x="63.623047" xlink:href="#DejaVuSans-53"/>
       <use x="127.246094" xlink:href="#DejaVuSans-48"/>
      </g>
     </g>
    </g>
    <g id="ytick_7">
     <g id="line2d_14">
      <g>
       <use style="stroke:#000000;stroke-width:0.8;" x="54" xlink:href="#md7d060c75f" y="89.36724"/>
      </g>
     </g>
     <g id="text_15">
      <!-- 300 -->
      <g transform="translate(27.9125 93.166459)scale(0.1 -0.1)">
       <use xlink:href="#DejaVuSans-51"/>
       <use x="63.623047" xlink:href="#DejaVuSans-48"/>
       <use x="127.246094" xlink:href="#DejaVuSans-48"/>
      </g>
     </g>
    </g>
    <g id="ytick_8">
     <g id="line2d_15">
      <g>
       <use style="stroke:#000000;stroke-width:0.8;" x="54" xlink:href="#md7d060c75f" y="62.26178"/>
      </g>
     </g>
     <g id="text_16">
      <!-- 350 -->
      <g transform="translate(27.9125 66.060999)scale(0.1 -0.1)">
       <use xlink:href="#DejaVuSans-51"/>
       <use x="63.623047" xlink:href="#DejaVuSans-53"/>
       <use x="127.246094" xlink:href="#DejaVuSans-48"/>
      </g>
     </g>
    </g>
    <g id="ytick_9">
     <g id="line2d_16">
      <g>
       <use style="stroke:#000000;stroke-width:0.8;" x="54" xlink:href="#md7d060c75f" y="35.15632"/>
      </g>
     </g>
     <g id="text_17">
      <!-- 400 -->
      <defs>
       <path d="M 37.796875 64.3125
L 12.890625 25.390625
L 37.796875 25.390625
z
M 35.203125 72.90625
L 47.609375 72.90625
L 47.609375 25.390625
L 58.015625 25.390625
L 58.015625 17.1875
L 47.609375 17.1875
L 47.609375 0
L 37.796875 0
L 37.796875 17.1875
L 4.890625 17.1875
L 4.890625 26.703125
z
" id="DejaVuSans-52"/>
      </defs>
      <g transform="translate(27.9125 38.955539)scale(0.1 -0.1)">
       <use xlink:href="#DejaVuSans-52"/>
       <use x="63.623047" xlink:href="#DejaVuSans-48"/>
       <use x="127.246094" xlink:href="#DejaVuSans-48"/>
      </g>
     </g>
    </g>
   </g>
   <g id="line2d_17">
    <path clip-path="url(#pd1e9bea79a)" d="M 74.467586 252
L 74.467586 -1
" style="fill:none;stroke:#ff0000;stroke-linecap:square;stroke-width:1.5;"/>
   </g>
   <g id="patch_82">
    <path d="M 54 252
L 54 34.56
" style="fill:none;stroke:#000000;stroke-linecap:square;stroke-linejoin:miter;stroke-width:0.8;"/>
   </g>
   <g id="patch_83">
    <path d="M 388.8 252
L 388.8 34.56
" style="fill:none;stroke:#000000;stroke-linecap:square;stroke-linejoin:miter;stroke-width:0.8;"/>
   </g>
   <g id="patch_84">
    <path d="M 54 252
L 388.8 252
" style="fill:none;stroke:#000000;stroke-linecap:square;stroke-linejoin:miter;stroke-width:0.8;"/>
   </g>
   <g id="patch_85">
    <path d="M 54 34.56
L 388.8 34.56
" style="fill:none;stroke:#000000;stroke-linecap:square;stroke-linejoin:miter;stroke-width:0.8;"/>
   </g>
  </g>
 </g>
 <defs>
  <clipPath id="pd1e9bea79a">
   <rect height="217.44" width="334.8" x="54" y="34.56"/>
  </clipPath>
 </defs>
</svg>
