<?xml version="1.0" encoding="utf-8" standalone="no"?>
<!DOCTYPE svg PUBLIC "-//W3C//DTD SVG 1.1//EN"
  "http://www.w3.org/Graphics/SVG/1.1/DTD/svg11.dtd">
<!-- Created with matplotlib (https://matplotlib.org/) -->
<svg height="288pt" version="1.1" viewBox="0 0 432 288" width="432pt" xmlns="http://www.w3.org/2000/svg" xmlns:xlink="http://www.w3.org/1999/xlink">
 <defs>
  <style type="text/css">
*{stroke-linecap:butt;stroke-linejoin:round;}
  </style>
 </defs>
 <g id="figure_1">
  <g id="patch_1">
   <path d="M 0 288
L 432 288
L 432 0
L 0 0
z
" style="fill:#ffffff;"/>
  </g>
  <g id="axes_1">
   <g id="patch_2">
    <path d="M 54 252
L 388.8 252
L 388.8 34.56
L 54 34.56
z
" style="fill:#ffffff;"/>
   </g>
   <g id="patch_3">
    <path clip-path="url(#p5102692fd2)" d="M 79.965862 252
L 85.625266 252
L 85.625266 247.746265
L 79.965862 247.746265
z
" style="fill:#808080;opacity:0.4;"/>
   </g>
   <g id="patch_4">
    <path clip-path="url(#p5102692fd2)" d="M 85.625266 252
L 91.28467 252
L 91.28467 229.455205
L 85.625266 229.455205
z
" style="fill:#808080;opacity:0.4;"/>
   </g>
   <g id="patch_5">
    <path clip-path="url(#p5102692fd2)" d="M 91.28467 252
L 96.944073 252
L 96.944073 200.104434
L 91.28467 200.104434
z
" style="fill:#808080;opacity:0.4;"/>
   </g>
   <g id="patch_6">
    <path clip-path="url(#p5102692fd2)" d="M 96.944073 252
L 102.603477 252
L 102.603477 197.552193
L 96.944073 197.552193
z
" style="fill:#808080;opacity:0.4;"/>
   </g>
   <g id="patch_7">
    <path clip-path="url(#p5102692fd2)" d="M 102.603477 252
L 108.26288 252
L 108.26288 198.828314
L 102.603477 198.828314
z
" style="fill:#808080;opacity:0.4;"/>
   </g>
   <g id="patch_8">
    <path clip-path="url(#p5102692fd2)" d="M 108.26288 252
L 113.922284 252
L 113.922284 208.611904
L 108.26288 208.611904
z
" style="fill:#808080;opacity:0.4;"/>
   </g>
   <g id="patch_9">
    <path clip-path="url(#p5102692fd2)" d="M 113.922284 252
L 119.581687 252
L 119.581687 228.179085
L 113.922284 228.179085
z
" style="fill:#808080;opacity:0.4;"/>
   </g>
   <g id="patch_10">
    <path clip-path="url(#p5102692fd2)" d="M 119.581687 252
L 125.241091 252
L 125.241091 235.835807
L 119.581687 235.835807
z
" style="fill:#808080;opacity:0.4;"/>
   </g>
   <g id="patch_11">
    <path clip-path="url(#p5102692fd2)" d="M 125.241091 252
L 130.900494 252
L 130.900494 246.895518
L 125.241091 246.895518
z
" style="fill:#808080;opacity:0.4;"/>
   </g>
   <g id="patch_12">
    <path clip-path="url(#p5102692fd2)" d="M 130.900494 252
L 136.559898 252
L 136.559898 247.746265
L 130.900494 247.746265
z
" style="fill:#808080;opacity:0.4;"/>
   </g>
   <g id="patch_13">
    <path clip-path="url(#p5102692fd2)" d="M 136.559898 252
L 142.219301 252
L 142.219301 251.149253
L 136.559898 251.149253
z
" style="fill:#808080;opacity:0.4;"/>
   </g>
   <g id="patch_14">
    <path clip-path="url(#p5102692fd2)" d="M 142.219301 252
L 147.878705 252
L 147.878705 248.597012
L 142.219301 248.597012
z
" style="fill:#808080;opacity:0.4;"/>
   </g>
   <g id="patch_15">
    <path clip-path="url(#p5102692fd2)" d="M 147.878705 252
L 153.538108 252
L 153.538108 250.72388
L 147.878705 250.72388
z
" style="fill:#808080;opacity:0.4;"/>
   </g>
   <g id="patch_16">
    <path clip-path="url(#p5102692fd2)" d="M 153.538108 252
L 159.197512 252
L 159.197512 250.298506
L 153.538108 250.298506
z
" style="fill:#808080;opacity:0.4;"/>
   </g>
   <g id="patch_17">
    <path clip-path="url(#p5102692fd2)" d="M 159.197512 252
L 164.856915 252
L 164.856915 250.72388
L 159.197512 250.72388
z
" style="fill:#808080;opacity:0.4;"/>
   </g>
   <g id="patch_18">
    <path clip-path="url(#p5102692fd2)" d="M 164.856915 252
L 170.516319 252
L 170.516319 251.574627
L 164.856915 251.574627
z
" style="fill:#808080;opacity:0.4;"/>
   </g>
   <g id="patch_19">
    <path clip-path="url(#p5102692fd2)" d="M 170.516319 252
L 176.175722 252
L 176.175722 250.72388
L 170.516319 250.72388
z
" style="fill:#808080;opacity:0.4;"/>
   </g>
   <g id="patch_20">
    <path clip-path="url(#p5102692fd2)" d="M 176.175722 252
L 181.835126 252
L 181.835126 250.72388
L 176.175722 250.72388
z
" style="fill:#808080;opacity:0.4;"/>
   </g>
   <g id="patch_21">
    <path clip-path="url(#p5102692fd2)" d="M 181.835126 252
L 187.494529 252
L 187.494529 251.149253
L 181.835126 251.149253
z
" style="fill:#808080;opacity:0.4;"/>
   </g>
   <g id="patch_22">
    <path clip-path="url(#p5102692fd2)" d="M 187.494529 252
L 193.153933 252
L 193.153933 250.298506
L 187.494529 250.298506
z
" style="fill:#808080;opacity:0.4;"/>
   </g>
   <g id="patch_23">
    <path clip-path="url(#p5102692fd2)" d="M 193.153933 252
L 198.813337 252
L 198.813337 252
L 193.153933 252
z
" style="fill:#808080;opacity:0.4;"/>
   </g>
   <g id="patch_24">
    <path clip-path="url(#p5102692fd2)" d="M 198.813337 252
L 204.47274 252
L 204.47274 250.72388
L 198.813337 250.72388
z
" style="fill:#808080;opacity:0.4;"/>
   </g>
   <g id="patch_25">
    <path clip-path="url(#p5102692fd2)" d="M 204.47274 252
L 210.132144 252
L 210.132144 251.574627
L 204.47274 251.574627
z
" style="fill:#808080;opacity:0.4;"/>
   </g>
   <g id="patch_26">
    <path clip-path="url(#p5102692fd2)" d="M 210.132144 252
L 215.791547 252
L 215.791547 250.72388
L 210.132144 250.72388
z
" style="fill:#808080;opacity:0.4;"/>
   </g>
   <g id="patch_27">
    <path clip-path="url(#p5102692fd2)" d="M 215.791547 252
L 221.450951 252
L 221.450951 251.149253
L 215.791547 251.149253
z
" style="fill:#808080;opacity:0.4;"/>
   </g>
   <g id="patch_28">
    <path clip-path="url(#p5102692fd2)" d="M 221.450951 252
L 227.110354 252
L 227.110354 251.574627
L 221.450951 251.574627
z
" style="fill:#808080;opacity:0.4;"/>
   </g>
   <g id="patch_29">
    <path clip-path="url(#p5102692fd2)" d="M 227.110354 252
L 232.769758 252
L 232.769758 251.574627
L 227.110354 251.574627
z
" style="fill:#808080;opacity:0.4;"/>
   </g>
   <g id="patch_30">
    <path clip-path="url(#p5102692fd2)" d="M 232.769758 252
L 238.429161 252
L 238.429161 252
L 232.769758 252
z
" style="fill:#808080;opacity:0.4;"/>
   </g>
   <g id="patch_31">
    <path clip-path="url(#p5102692fd2)" d="M 238.429161 252
L 244.088565 252
L 244.088565 251.574627
L 238.429161 251.574627
z
" style="fill:#808080;opacity:0.4;"/>
   </g>
   <g id="patch_32">
    <path clip-path="url(#p5102692fd2)" d="M 244.088565 252
L 249.747968 252
L 249.747968 250.72388
L 244.088565 250.72388
z
" style="fill:#808080;opacity:0.4;"/>
   </g>
   <g id="patch_33">
    <path clip-path="url(#p5102692fd2)" d="M 249.747968 252
L 255.407372 252
L 255.407372 251.149253
L 249.747968 251.149253
z
" style="fill:#808080;opacity:0.4;"/>
   </g>
   <g id="patch_34">
    <path clip-path="url(#p5102692fd2)" d="M 255.407372 252
L 261.066775 252
L 261.066775 252
L 255.407372 252
z
" style="fill:#808080;opacity:0.4;"/>
   </g>
   <g id="patch_35">
    <path clip-path="url(#p5102692fd2)" d="M 261.066775 252
L 266.726179 252
L 266.726179 252
L 261.066775 252
z
" style="fill:#808080;opacity:0.4;"/>
   </g>
   <g id="patch_36">
    <path clip-path="url(#p5102692fd2)" d="M 266.726179 252
L 272.385582 252
L 272.385582 252
L 266.726179 252
z
" style="fill:#808080;opacity:0.4;"/>
   </g>
   <g id="patch_37">
    <path clip-path="url(#p5102692fd2)" d="M 272.385582 252
L 278.044986 252
L 278.044986 252
L 272.385582 252
z
" style="fill:#808080;opacity:0.4;"/>
   </g>
   <g id="patch_38">
    <path clip-path="url(#p5102692fd2)" d="M 278.044986 252
L 283.704389 252
L 283.704389 252
L 278.044986 252
z
" style="fill:#808080;opacity:0.4;"/>
   </g>
   <g id="patch_39">
    <path clip-path="url(#p5102692fd2)" d="M 283.704389 252
L 289.363793 252
L 289.363793 252
L 283.704389 252
z
" style="fill:#808080;opacity:0.4;"/>
   </g>
   <g id="patch_40">
    <path clip-path="url(#p5102692fd2)" d="M 289.363793 252
L 295.023196 252
L 295.023196 252
L 289.363793 252
z
" style="fill:#808080;opacity:0.4;"/>
   </g>
   <g id="patch_41">
    <path clip-path="url(#p5102692fd2)" d="M 295.023196 252
L 300.6826 252
L 300.6826 252
L 295.023196 252
z
" style="fill:#808080;opacity:0.4;"/>
   </g>
   <g id="patch_42">
    <path clip-path="url(#p5102692fd2)" d="M 300.6826 252
L 306.342004 252
L 306.342004 251.574627
L 300.6826 251.574627
z
" style="fill:#808080;opacity:0.4;"/>
   </g>
   <g id="patch_43">
    <path clip-path="url(#p5102692fd2)" d="M 306.342004 252
L 312.001407 252
L 312.001407 252
L 306.342004 252
z
" style="fill:#808080;opacity:0.4;"/>
   </g>
   <g id="patch_44">
    <path clip-path="url(#p5102692fd2)" d="M 312.001407 252
L 317.660811 252
L 317.660811 251.574627
L 312.001407 251.574627
z
" style="fill:#808080;opacity:0.4;"/>
   </g>
   <g id="patch_45">
    <path clip-path="url(#p5102692fd2)" d="M 317.660811 252
L 323.320214 252
L 323.320214 251.574627
L 317.660811 251.574627
z
" style="fill:#808080;opacity:0.4;"/>
   </g>
   <g id="patch_46">
    <path clip-path="url(#p5102692fd2)" d="M 323.320214 252
L 328.979618 252
L 328.979618 252
L 323.320214 252
z
" style="fill:#808080;opacity:0.4;"/>
   </g>
   <g id="patch_47">
    <path clip-path="url(#p5102692fd2)" d="M 328.979618 252
L 334.639021 252
L 334.639021 251.574627
L 328.979618 251.574627
z
" style="fill:#808080;opacity:0.4;"/>
   </g>
   <g id="patch_48">
    <path clip-path="url(#p5102692fd2)" d="M 334.639021 252
L 340.298425 252
L 340.298425 251.574627
L 334.639021 251.574627
z
" style="fill:#808080;opacity:0.4;"/>
   </g>
   <g id="patch_49">
    <path clip-path="url(#p5102692fd2)" d="M 340.298425 252
L 345.957828 252
L 345.957828 251.149253
L 340.298425 251.149253
z
" style="fill:#808080;opacity:0.4;"/>
   </g>
   <g id="patch_50">
    <path clip-path="url(#p5102692fd2)" d="M 345.957828 252
L 351.617232 252
L 351.617232 252
L 345.957828 252
z
" style="fill:#808080;opacity:0.4;"/>
   </g>
   <g id="patch_51">
    <path clip-path="url(#p5102692fd2)" d="M 351.617232 252
L 357.276635 252
L 357.276635 251.574627
L 351.617232 251.574627
z
" style="fill:#808080;opacity:0.4;"/>
   </g>
   <g id="patch_52">
    <path clip-path="url(#p5102692fd2)" d="M 357.276635 252
L 362.936039 252
L 362.936039 251.574627
L 357.276635 251.574627
z
" style="fill:#808080;opacity:0.4;"/>
   </g>
   <g id="patch_53">
    <path clip-path="url(#p5102692fd2)" d="M 79.161393 252
L 83.133962 252
L 83.133962 44.914286
L 79.161393 44.914286
z
" style="fill:#0000ff;opacity:0.4;"/>
   </g>
   <g id="patch_54">
    <path clip-path="url(#p5102692fd2)" d="M 83.133962 252
L 87.106531 252
L 87.106531 204.210989
L 83.133962 204.210989
z
" style="fill:#0000ff;opacity:0.4;"/>
   </g>
   <g id="patch_55">
    <path clip-path="url(#p5102692fd2)" d="M 87.106531 252
L 91.0791 252
L 91.0791 218.547692
L 87.106531 218.547692
z
" style="fill:#0000ff;opacity:0.4;"/>
   </g>
   <g id="patch_56">
    <path clip-path="url(#p5102692fd2)" d="M 91.0791 252
L 95.051669 252
L 95.051669 216.158242
L 91.0791 216.158242
z
" style="fill:#0000ff;opacity:0.4;"/>
   </g>
   <g id="patch_57">
    <path clip-path="url(#p5102692fd2)" d="M 95.051669 252
L 99.024237 252
L 99.024237 240.052747
L 95.051669 240.052747
z
" style="fill:#0000ff;opacity:0.4;"/>
   </g>
   <g id="patch_58">
    <path clip-path="url(#p5102692fd2)" d="M 99.024237 252
L 102.996806 252
L 102.996806 245.628132
L 99.024237 245.628132
z
" style="fill:#0000ff;opacity:0.4;"/>
   </g>
   <g id="patch_59">
    <path clip-path="url(#p5102692fd2)" d="M 102.996806 252
L 106.969375 252
L 106.969375 236.866813
L 102.996806 236.866813
z
" style="fill:#0000ff;opacity:0.4;"/>
   </g>
   <g id="patch_60">
    <path clip-path="url(#p5102692fd2)" d="M 106.969375 252
L 110.941944 252
L 110.941944 237.663297
L 106.969375 237.663297
z
" style="fill:#0000ff;opacity:0.4;"/>
   </g>
   <g id="patch_61">
    <path clip-path="url(#p5102692fd2)" d="M 110.941944 252
L 114.914513 252
L 114.914513 244.831648
L 110.941944 244.831648
z
" style="fill:#0000ff;opacity:0.4;"/>
   </g>
   <g id="patch_62">
    <path clip-path="url(#p5102692fd2)" d="M 114.914513 252
L 118.887082 252
L 118.887082 242.442198
L 114.914513 242.442198
z
" style="fill:#0000ff;opacity:0.4;"/>
   </g>
   <g id="patch_63">
    <path clip-path="url(#p5102692fd2)" d="M 118.887082 252
L 122.859651 252
L 122.859651 248.017582
L 118.887082 248.017582
z
" style="fill:#0000ff;opacity:0.4;"/>
   </g>
   <g id="patch_64">
    <path clip-path="url(#p5102692fd2)" d="M 122.859651 252
L 126.832219 252
L 126.832219 245.628132
L 122.859651 245.628132
z
" style="fill:#0000ff;opacity:0.4;"/>
   </g>
   <g id="patch_65">
    <path clip-path="url(#p5102692fd2)" d="M 126.832219 252
L 130.804788 252
L 130.804788 248.814066
L 126.832219 248.814066
z
" style="fill:#0000ff;opacity:0.4;"/>
   </g>
   <g id="patch_66">
    <path clip-path="url(#p5102692fd2)" d="M 130.804788 252
L 134.777357 252
L 134.777357 249.610549
L 130.804788 249.610549
z
" style="fill:#0000ff;opacity:0.4;"/>
   </g>
   <g id="patch_67">
    <path clip-path="url(#p5102692fd2)" d="M 134.777357 252
L 138.749926 252
L 138.749926 251.203516
L 134.777357 251.203516
z
" style="fill:#0000ff;opacity:0.4;"/>
   </g>
   <g id="patch_68">
    <path clip-path="url(#p5102692fd2)" d="M 138.749926 252
L 142.722495 252
L 142.722495 248.814066
L 138.749926 248.814066
z
" style="fill:#0000ff;opacity:0.4;"/>
   </g>
   <g id="patch_69">
    <path clip-path="url(#p5102692fd2)" d="M 142.722495 252
L 146.695064 252
L 146.695064 251.203516
L 142.722495 251.203516
z
" style="fill:#0000ff;opacity:0.4;"/>
   </g>
   <g id="patch_70">
    <path clip-path="url(#p5102692fd2)" d="M 146.695064 252
L 150.667632 252
L 150.667632 251.203516
L 146.695064 251.203516
z
" style="fill:#0000ff;opacity:0.4;"/>
   </g>
   <g id="patch_71">
    <path clip-path="url(#p5102692fd2)" d="M 150.667632 252
L 154.640201 252
L 154.640201 251.203516
L 150.667632 251.203516
z
" style="fill:#0000ff;opacity:0.4;"/>
   </g>
   <g id="patch_72">
    <path clip-path="url(#p5102692fd2)" d="M 154.640201 252
L 158.61277 252
L 158.61277 252
L 154.640201 252
z
" style="fill:#0000ff;opacity:0.4;"/>
   </g>
   <g id="patch_73">
    <path clip-path="url(#p5102692fd2)" d="M 158.61277 252
L 162.585339 252
L 162.585339 251.203516
L 158.61277 251.203516
z
" style="fill:#0000ff;opacity:0.4;"/>
   </g>
   <g id="patch_74">
    <path clip-path="url(#p5102692fd2)" d="M 162.585339 252
L 166.557908 252
L 166.557908 252
L 162.585339 252
z
" style="fill:#0000ff;opacity:0.4;"/>
   </g>
   <g id="patch_75">
    <path clip-path="url(#p5102692fd2)" d="M 166.557908 252
L 170.530477 252
L 170.530477 250.407033
L 166.557908 250.407033
z
" style="fill:#0000ff;opacity:0.4;"/>
   </g>
   <g id="patch_76">
    <path clip-path="url(#p5102692fd2)" d="M 170.530477 252
L 174.503045 252
L 174.503045 252
L 170.530477 252
z
" style="fill:#0000ff;opacity:0.4;"/>
   </g>
   <g id="patch_77">
    <path clip-path="url(#p5102692fd2)" d="M 174.503045 252
L 178.475614 252
L 178.475614 252
L 174.503045 252
z
" style="fill:#0000ff;opacity:0.4;"/>
   </g>
   <g id="patch_78">
    <path clip-path="url(#p5102692fd2)" d="M 178.475614 252
L 182.448183 252
L 182.448183 250.407033
L 178.475614 250.407033
z
" style="fill:#0000ff;opacity:0.4;"/>
   </g>
   <g id="patch_79">
    <path clip-path="url(#p5102692fd2)" d="M 182.448183 252
L 186.420752 252
L 186.420752 252
L 182.448183 252
z
" style="fill:#0000ff;opacity:0.4;"/>
   </g>
   <g id="patch_80">
    <path clip-path="url(#p5102692fd2)" d="M 186.420752 252
L 190.393321 252
L 190.393321 250.407033
L 186.420752 250.407033
z
" style="fill:#0000ff;opacity:0.4;"/>
   </g>
   <g id="patch_81">
    <path clip-path="url(#p5102692fd2)" d="M 190.393321 252
L 194.36589 252
L 194.36589 251.203516
L 190.393321 251.203516
z
" style="fill:#0000ff;opacity:0.4;"/>
   </g>
   <g id="patch_82">
    <path clip-path="url(#p5102692fd2)" d="M 194.36589 252
L 198.338458 252
L 198.338458 250.407033
L 194.36589 250.407033
z
" style="fill:#0000ff;opacity:0.4;"/>
   </g>
   <g id="patch_83">
    <path clip-path="url(#p5102692fd2)" d="M 198.338458 252
L 202.311027 252
L 202.311027 249.610549
L 198.338458 249.610549
z
" style="fill:#0000ff;opacity:0.4;"/>
   </g>
   <g id="patch_84">
    <path clip-path="url(#p5102692fd2)" d="M 202.311027 252
L 206.283596 252
L 206.283596 252
L 202.311027 252
z
" style="fill:#0000ff;opacity:0.4;"/>
   </g>
   <g id="patch_85">
    <path clip-path="url(#p5102692fd2)" d="M 206.283596 252
L 210.256165 252
L 210.256165 250.407033
L 206.283596 250.407033
z
" style="fill:#0000ff;opacity:0.4;"/>
   </g>
   <g id="patch_86">
    <path clip-path="url(#p5102692fd2)" d="M 210.256165 252
L 214.228734 252
L 214.228734 252
L 210.256165 252
z
" style="fill:#0000ff;opacity:0.4;"/>
   </g>
   <g id="patch_87">
    <path clip-path="url(#p5102692fd2)" d="M 214.228734 252
L 218.201303 252
L 218.201303 252
L 214.228734 252
z
" style="fill:#0000ff;opacity:0.4;"/>
   </g>
   <g id="patch_88">
    <path clip-path="url(#p5102692fd2)" d="M 218.201303 252
L 222.173871 252
L 222.173871 249.610549
L 218.201303 249.610549
z
" style="fill:#0000ff;opacity:0.4;"/>
   </g>
   <g id="patch_89">
    <path clip-path="url(#p5102692fd2)" d="M 222.173871 252
L 226.14644 252
L 226.14644 250.407033
L 222.173871 250.407033
z
" style="fill:#0000ff;opacity:0.4;"/>
   </g>
   <g id="patch_90">
    <path clip-path="url(#p5102692fd2)" d="M 226.14644 252
L 230.119009 252
L 230.119009 251.203516
L 226.14644 251.203516
z
" style="fill:#0000ff;opacity:0.4;"/>
   </g>
   <g id="patch_91">
    <path clip-path="url(#p5102692fd2)" d="M 230.119009 252
L 234.091578 252
L 234.091578 251.203516
L 230.119009 251.203516
z
" style="fill:#0000ff;opacity:0.4;"/>
   </g>
   <g id="patch_92">
    <path clip-path="url(#p5102692fd2)" d="M 234.091578 252
L 238.064147 252
L 238.064147 252
L 234.091578 252
z
" style="fill:#0000ff;opacity:0.4;"/>
   </g>
   <g id="patch_93">
    <path clip-path="url(#p5102692fd2)" d="M 238.064147 252
L 242.036716 252
L 242.036716 251.203516
L 238.064147 251.203516
z
" style="fill:#0000ff;opacity:0.4;"/>
   </g>
   <g id="patch_94">
    <path clip-path="url(#p5102692fd2)" d="M 242.036716 252
L 246.009284 252
L 246.009284 252
L 242.036716 252
z
" style="fill:#0000ff;opacity:0.4;"/>
   </g>
   <g id="patch_95">
    <path clip-path="url(#p5102692fd2)" d="M 246.009284 252
L 249.981853 252
L 249.981853 250.407033
L 246.009284 250.407033
z
" style="fill:#0000ff;opacity:0.4;"/>
   </g>
   <g id="patch_96">
    <path clip-path="url(#p5102692fd2)" d="M 249.981853 252
L 253.954422 252
L 253.954422 252
L 249.981853 252
z
" style="fill:#0000ff;opacity:0.4;"/>
   </g>
   <g id="patch_97">
    <path clip-path="url(#p5102692fd2)" d="M 253.954422 252
L 257.926991 252
L 257.926991 250.407033
L 253.954422 250.407033
z
" style="fill:#0000ff;opacity:0.4;"/>
   </g>
   <g id="patch_98">
    <path clip-path="url(#p5102692fd2)" d="M 257.926991 252
L 261.89956 252
L 261.89956 252
L 257.926991 252
z
" style="fill:#0000ff;opacity:0.4;"/>
   </g>
   <g id="patch_99">
    <path clip-path="url(#p5102692fd2)" d="M 261.89956 252
L 265.872129 252
L 265.872129 252
L 261.89956 252
z
" style="fill:#0000ff;opacity:0.4;"/>
   </g>
   <g id="patch_100">
    <path clip-path="url(#p5102692fd2)" d="M 265.872129 252
L 269.844697 252
L 269.844697 252
L 265.872129 252
z
" style="fill:#0000ff;opacity:0.4;"/>
   </g>
   <g id="patch_101">
    <path clip-path="url(#p5102692fd2)" d="M 269.844697 252
L 273.817266 252
L 273.817266 252
L 269.844697 252
z
" style="fill:#0000ff;opacity:0.4;"/>
   </g>
   <g id="patch_102">
    <path clip-path="url(#p5102692fd2)" d="M 273.817266 252
L 277.789835 252
L 277.789835 251.203516
L 273.817266 251.203516
z
" style="fill:#0000ff;opacity:0.4;"/>
   </g>
   <g id="matplotlib.axis_1">
    <g id="xtick_1">
     <g id="line2d_1">
      <defs>
       <path d="M 0 0
L 0 3.5
" id="m3141e1ccae" style="stroke:#000000;stroke-width:0.8;"/>
      </defs>
      <g>
       <use style="stroke:#000000;stroke-width:0.8;" x="79.126404" xlink:href="#m3141e1ccae" y="252"/>
      </g>
     </g>
     <g id="text_1">
      <!-- 0 -->
      <defs>
       <path d="M 31.78125 66.40625
Q 24.171875 66.40625 20.328125 58.90625
Q 16.5 51.421875 16.5 36.375
Q 16.5 21.390625 20.328125 13.890625
Q 24.171875 6.390625 31.78125 6.390625
Q 39.453125 6.390625 43.28125 13.890625
Q 47.125 21.390625 47.125 36.375
Q 47.125 51.421875 43.28125 58.90625
Q 39.453125 66.40625 31.78125 66.40625
z
M 31.78125 74.21875
Q 44.046875 74.21875 50.515625 64.515625
Q 56.984375 54.828125 56.984375 36.375
Q 56.984375 17.96875 50.515625 8.265625
Q 44.046875 -1.421875 31.78125 -1.421875
Q 19.53125 -1.421875 13.0625 8.265625
Q 6.59375 17.96875 6.59375 36.375
Q 6.59375 54.828125 13.0625 64.515625
Q 19.53125 74.21875 31.78125 74.21875
z
" id="DejaVuSans-48"/>
      </defs>
      <g transform="translate(75.945154 266.598437)scale(0.1 -0.1)">
       <use xlink:href="#DejaVuSans-48"/>
      </g>
     </g>
    </g>
    <g id="xtick_2">
     <g id="line2d_2">
      <g>
       <use style="stroke:#000000;stroke-width:0.8;" x="137.265853" xlink:href="#m3141e1ccae" y="252"/>
      </g>
     </g>
     <g id="text_2">
      <!-- 50 -->
      <defs>
       <path d="M 10.796875 72.90625
L 49.515625 72.90625
L 49.515625 64.59375
L 19.828125 64.59375
L 19.828125 46.734375
Q 21.96875 47.46875 24.109375 47.828125
Q 26.265625 48.1875 28.421875 48.1875
Q 40.625 48.1875 47.75 41.5
Q 54.890625 34.8125 54.890625 23.390625
Q 54.890625 11.625 47.5625 5.09375
Q 40.234375 -1.421875 26.90625 -1.421875
Q 22.3125 -1.421875 17.546875 -0.640625
Q 12.796875 0.140625 7.71875 1.703125
L 7.71875 11.625
Q 12.109375 9.234375 16.796875 8.0625
Q 21.484375 6.890625 26.703125 6.890625
Q 35.15625 6.890625 40.078125 11.328125
Q 45.015625 15.765625 45.015625 23.390625
Q 45.015625 31 40.078125 35.4375
Q 35.15625 39.890625 26.703125 39.890625
Q 22.75 39.890625 18.8125 39.015625
Q 14.890625 38.140625 10.796875 36.28125
z
" id="DejaVuSans-53"/>
      </defs>
      <g transform="translate(130.903353 266.598437)scale(0.1 -0.1)">
       <use xlink:href="#DejaVuSans-53"/>
       <use x="63.623047" xlink:href="#DejaVuSans-48"/>
      </g>
     </g>
    </g>
    <g id="xtick_3">
     <g id="line2d_3">
      <g>
       <use style="stroke:#000000;stroke-width:0.8;" x="195.405302" xlink:href="#m3141e1ccae" y="252"/>
      </g>
     </g>
     <g id="text_3">
      <!-- 100 -->
      <defs>
       <path d="M 12.40625 8.296875
L 28.515625 8.296875
L 28.515625 63.921875
L 10.984375 60.40625
L 10.984375 69.390625
L 28.421875 72.90625
L 38.28125 72.90625
L 38.28125 8.296875
L 54.390625 8.296875
L 54.390625 0
L 12.40625 0
z
" id="DejaVuSans-49"/>
      </defs>
      <g transform="translate(185.861552 266.598437)scale(0.1 -0.1)">
       <use xlink:href="#DejaVuSans-49"/>
       <use x="63.623047" xlink:href="#DejaVuSans-48"/>
       <use x="127.246094" xlink:href="#DejaVuSans-48"/>
      </g>
     </g>
    </g>
    <g id="xtick_4">
     <g id="line2d_4">
      <g>
       <use style="stroke:#000000;stroke-width:0.8;" x="253.544751" xlink:href="#m3141e1ccae" y="252"/>
      </g>
     </g>
     <g id="text_4">
      <!-- 150 -->
      <g transform="translate(244.001001 266.598437)scale(0.1 -0.1)">
       <use xlink:href="#DejaVuSans-49"/>
       <use x="63.623047" xlink:href="#DejaVuSans-53"/>
       <use x="127.246094" xlink:href="#DejaVuSans-48"/>
      </g>
     </g>
    </g>
    <g id="xtick_5">
     <g id="line2d_5">
      <g>
       <use style="stroke:#000000;stroke-width:0.8;" x="311.684199" xlink:href="#m3141e1ccae" y="252"/>
      </g>
     </g>
     <g id="text_5">
      <!-- 200 -->
      <defs>
       <path d="M 19.1875 8.296875
L 53.609375 8.296875
L 53.609375 0
L 7.328125 0
L 7.328125 8.296875
Q 12.9375 14.109375 22.625 23.890625
Q 32.328125 33.6875 34.8125 36.53125
Q 39.546875 41.84375 41.421875 45.53125
Q 43.3125 49.21875 43.3125 52.78125
Q 43.3125 58.59375 39.234375 62.25
Q 35.15625 65.921875 28.609375 65.921875
Q 23.96875 65.921875 18.8125 64.3125
Q 13.671875 62.703125 7.8125 59.421875
L 7.8125 69.390625
Q 13.765625 71.78125 18.9375 73
Q 24.125 74.21875 28.421875 74.21875
Q 39.75 74.21875 46.484375 68.546875
Q 53.21875 62.890625 53.21875 53.421875
Q 53.21875 48.921875 51.53125 44.890625
Q 49.859375 40.875 45.40625 35.40625
Q 44.1875 33.984375 37.640625 27.21875
Q 31.109375 20.453125 19.1875 8.296875
z
" id="DejaVuSans-50"/>
      </defs>
      <g transform="translate(302.140449 266.598437)scale(0.1 -0.1)">
       <use xlink:href="#DejaVuSans-50"/>
       <use x="63.623047" xlink:href="#DejaVuSans-48"/>
       <use x="127.246094" xlink:href="#DejaVuSans-48"/>
      </g>
     </g>
    </g>
    <g id="xtick_6">
     <g id="line2d_6">
      <g>
       <use style="stroke:#000000;stroke-width:0.8;" x="369.823648" xlink:href="#m3141e1ccae" y="252"/>
      </g>
     </g>
     <g id="text_6">
      <!-- 250 -->
      <g transform="translate(360.279898 266.598437)scale(0.1 -0.1)">
       <use xlink:href="#DejaVuSans-50"/>
       <use x="63.623047" xlink:href="#DejaVuSans-53"/>
       <use x="127.246094" xlink:href="#DejaVuSans-48"/>
      </g>
     </g>
    </g>
    <g id="text_7">
     <!-- median acc expression_pao1 -->
     <defs>
      <path d="M 52 44.1875
Q 55.375 50.25 60.0625 53.125
Q 64.75 56 71.09375 56
Q 79.640625 56 84.28125 50.015625
Q 88.921875 44.046875 88.921875 33.015625
L 88.921875 0
L 79.890625 0
L 79.890625 32.71875
Q 79.890625 40.578125 77.09375 44.375
Q 74.3125 48.1875 68.609375 48.1875
Q 61.625 48.1875 57.5625 43.546875
Q 53.515625 38.921875 53.515625 30.90625
L 53.515625 0
L 44.484375 0
L 44.484375 32.71875
Q 44.484375 40.625 41.703125 44.40625
Q 38.921875 48.1875 33.109375 48.1875
Q 26.21875 48.1875 22.15625 43.53125
Q 18.109375 38.875 18.109375 30.90625
L 18.109375 0
L 9.078125 0
L 9.078125 54.6875
L 18.109375 54.6875
L 18.109375 46.1875
Q 21.1875 51.21875 25.484375 53.609375
Q 29.78125 56 35.6875 56
Q 41.65625 56 45.828125 52.96875
Q 50 49.953125 52 44.1875
z
" id="DejaVuSans-109"/>
      <path d="M 56.203125 29.59375
L 56.203125 25.203125
L 14.890625 25.203125
Q 15.484375 15.921875 20.484375 11.0625
Q 25.484375 6.203125 34.421875 6.203125
Q 39.59375 6.203125 44.453125 7.46875
Q 49.3125 8.734375 54.109375 11.28125
L 54.109375 2.78125
Q 49.265625 0.734375 44.1875 -0.34375
Q 39.109375 -1.421875 33.890625 -1.421875
Q 20.796875 -1.421875 13.15625 6.1875
Q 5.515625 13.8125 5.515625 26.8125
Q 5.515625 40.234375 12.765625 48.109375
Q 20.015625 56 32.328125 56
Q 43.359375 56 49.78125 48.890625
Q 56.203125 41.796875 56.203125 29.59375
z
M 47.21875 32.234375
Q 47.125 39.59375 43.09375 43.984375
Q 39.0625 48.390625 32.421875 48.390625
Q 24.90625 48.390625 20.390625 44.140625
Q 15.875 39.890625 15.1875 32.171875
z
" id="DejaVuSans-101"/>
      <path d="M 45.40625 46.390625
L 45.40625 75.984375
L 54.390625 75.984375
L 54.390625 0
L 45.40625 0
L 45.40625 8.203125
Q 42.578125 3.328125 38.25 0.953125
Q 33.9375 -1.421875 27.875 -1.421875
Q 17.96875 -1.421875 11.734375 6.484375
Q 5.515625 14.40625 5.515625 27.296875
Q 5.515625 40.1875 11.734375 48.09375
Q 17.96875 56 27.875 56
Q 33.9375 56 38.25 53.625
Q 42.578125 51.265625 45.40625 46.390625
z
M 14.796875 27.296875
Q 14.796875 17.390625 18.875 11.75
Q 22.953125 6.109375 30.078125 6.109375
Q 37.203125 6.109375 41.296875 11.75
Q 45.40625 17.390625 45.40625 27.296875
Q 45.40625 37.203125 41.296875 42.84375
Q 37.203125 48.484375 30.078125 48.484375
Q 22.953125 48.484375 18.875 42.84375
Q 14.796875 37.203125 14.796875 27.296875
z
" id="DejaVuSans-100"/>
      <path d="M 9.421875 54.6875
L 18.40625 54.6875
L 18.40625 0
L 9.421875 0
z
M 9.421875 75.984375
L 18.40625 75.984375
L 18.40625 64.59375
L 9.421875 64.59375
z
" id="DejaVuSans-105"/>
      <path d="M 34.28125 27.484375
Q 23.390625 27.484375 19.1875 25
Q 14.984375 22.515625 14.984375 16.5
Q 14.984375 11.71875 18.140625 8.90625
Q 21.296875 6.109375 26.703125 6.109375
Q 34.1875 6.109375 38.703125 11.40625
Q 43.21875 16.703125 43.21875 25.484375
L 43.21875 27.484375
z
M 52.203125 31.203125
L 52.203125 0
L 43.21875 0
L 43.21875 8.296875
Q 40.140625 3.328125 35.546875 0.953125
Q 30.953125 -1.421875 24.3125 -1.421875
Q 15.921875 -1.421875 10.953125 3.296875
Q 6 8.015625 6 15.921875
Q 6 25.140625 12.171875 29.828125
Q 18.359375 34.515625 30.609375 34.515625
L 43.21875 34.515625
L 43.21875 35.40625
Q 43.21875 41.609375 39.140625 45
Q 35.0625 48.390625 27.6875 48.390625
Q 23 48.390625 18.546875 47.265625
Q 14.109375 46.140625 10.015625 43.890625
L 10.015625 52.203125
Q 14.9375 54.109375 19.578125 55.046875
Q 24.21875 56 28.609375 56
Q 40.484375 56 46.34375 49.84375
Q 52.203125 43.703125 52.203125 31.203125
z
" id="DejaVuSans-97"/>
      <path d="M 54.890625 33.015625
L 54.890625 0
L 45.90625 0
L 45.90625 32.71875
Q 45.90625 40.484375 42.875 44.328125
Q 39.84375 48.1875 33.796875 48.1875
Q 26.515625 48.1875 22.3125 43.546875
Q 18.109375 38.921875 18.109375 30.90625
L 18.109375 0
L 9.078125 0
L 9.078125 54.6875
L 18.109375 54.6875
L 18.109375 46.1875
Q 21.34375 51.125 25.703125 53.5625
Q 30.078125 56 35.796875 56
Q 45.21875 56 50.046875 50.171875
Q 54.890625 44.34375 54.890625 33.015625
z
" id="DejaVuSans-110"/>
      <path id="DejaVuSans-32"/>
      <path d="M 48.78125 52.59375
L 48.78125 44.1875
Q 44.96875 46.296875 41.140625 47.34375
Q 37.3125 48.390625 33.40625 48.390625
Q 24.65625 48.390625 19.8125 42.84375
Q 14.984375 37.3125 14.984375 27.296875
Q 14.984375 17.28125 19.8125 11.734375
Q 24.65625 6.203125 33.40625 6.203125
Q 37.3125 6.203125 41.140625 7.25
Q 44.96875 8.296875 48.78125 10.40625
L 48.78125 2.09375
Q 45.015625 0.34375 40.984375 -0.53125
Q 36.96875 -1.421875 32.421875 -1.421875
Q 20.0625 -1.421875 12.78125 6.34375
Q 5.515625 14.109375 5.515625 27.296875
Q 5.515625 40.671875 12.859375 48.328125
Q 20.21875 56 33.015625 56
Q 37.15625 56 41.109375 55.140625
Q 45.0625 54.296875 48.78125 52.59375
z
" id="DejaVuSans-99"/>
      <path d="M 54.890625 54.6875
L 35.109375 28.078125
L 55.90625 0
L 45.3125 0
L 29.390625 21.484375
L 13.484375 0
L 2.875 0
L 24.125 28.609375
L 4.6875 54.6875
L 15.28125 54.6875
L 29.78125 35.203125
L 44.28125 54.6875
z
" id="DejaVuSans-120"/>
      <path d="M 18.109375 8.203125
L 18.109375 -20.796875
L 9.078125 -20.796875
L 9.078125 54.6875
L 18.109375 54.6875
L 18.109375 46.390625
Q 20.953125 51.265625 25.265625 53.625
Q 29.59375 56 35.59375 56
Q 45.5625 56 51.78125 48.09375
Q 58.015625 40.1875 58.015625 27.296875
Q 58.015625 14.40625 51.78125 6.484375
Q 45.5625 -1.421875 35.59375 -1.421875
Q 29.59375 -1.421875 25.265625 0.953125
Q 20.953125 3.328125 18.109375 8.203125
z
M 48.6875 27.296875
Q 48.6875 37.203125 44.609375 42.84375
Q 40.53125 48.484375 33.40625 48.484375
Q 26.265625 48.484375 22.1875 42.84375
Q 18.109375 37.203125 18.109375 27.296875
Q 18.109375 17.390625 22.1875 11.75
Q 26.265625 6.109375 33.40625 6.109375
Q 40.53125 6.109375 44.609375 11.75
Q 48.6875 17.390625 48.6875 27.296875
z
" id="DejaVuSans-112"/>
      <path d="M 41.109375 46.296875
Q 39.59375 47.171875 37.8125 47.578125
Q 36.03125 48 33.890625 48
Q 26.265625 48 22.1875 43.046875
Q 18.109375 38.09375 18.109375 28.8125
L 18.109375 0
L 9.078125 0
L 9.078125 54.6875
L 18.109375 54.6875
L 18.109375 46.1875
Q 20.953125 51.171875 25.484375 53.578125
Q 30.03125 56 36.53125 56
Q 37.453125 56 38.578125 55.875
Q 39.703125 55.765625 41.0625 55.515625
z
" id="DejaVuSans-114"/>
      <path d="M 44.28125 53.078125
L 44.28125 44.578125
Q 40.484375 46.53125 36.375 47.5
Q 32.28125 48.484375 27.875 48.484375
Q 21.1875 48.484375 17.84375 46.4375
Q 14.5 44.390625 14.5 40.28125
Q 14.5 37.15625 16.890625 35.375
Q 19.28125 33.59375 26.515625 31.984375
L 29.59375 31.296875
Q 39.15625 29.25 43.1875 25.515625
Q 47.21875 21.78125 47.21875 15.09375
Q 47.21875 7.46875 41.1875 3.015625
Q 35.15625 -1.421875 24.609375 -1.421875
Q 20.21875 -1.421875 15.453125 -0.5625
Q 10.6875 0.296875 5.421875 2
L 5.421875 11.28125
Q 10.40625 8.6875 15.234375 7.390625
Q 20.0625 6.109375 24.8125 6.109375
Q 31.15625 6.109375 34.5625 8.28125
Q 37.984375 10.453125 37.984375 14.40625
Q 37.984375 18.0625 35.515625 20.015625
Q 33.0625 21.96875 24.703125 23.78125
L 21.578125 24.515625
Q 13.234375 26.265625 9.515625 29.90625
Q 5.8125 33.546875 5.8125 39.890625
Q 5.8125 47.609375 11.28125 51.796875
Q 16.75 56 26.8125 56
Q 31.78125 56 36.171875 55.265625
Q 40.578125 54.546875 44.28125 53.078125
z
" id="DejaVuSans-115"/>
      <path d="M 30.609375 48.390625
Q 23.390625 48.390625 19.1875 42.75
Q 14.984375 37.109375 14.984375 27.296875
Q 14.984375 17.484375 19.15625 11.84375
Q 23.34375 6.203125 30.609375 6.203125
Q 37.796875 6.203125 41.984375 11.859375
Q 46.1875 17.53125 46.1875 27.296875
Q 46.1875 37.015625 41.984375 42.703125
Q 37.796875 48.390625 30.609375 48.390625
z
M 30.609375 56
Q 42.328125 56 49.015625 48.375
Q 55.71875 40.765625 55.71875 27.296875
Q 55.71875 13.875 49.015625 6.21875
Q 42.328125 -1.421875 30.609375 -1.421875
Q 18.84375 -1.421875 12.171875 6.21875
Q 5.515625 13.875 5.515625 27.296875
Q 5.515625 40.765625 12.171875 48.375
Q 18.84375 56 30.609375 56
z
" id="DejaVuSans-111"/>
      <path d="M 50.984375 -16.609375
L 50.984375 -23.578125
L -0.984375 -23.578125
L -0.984375 -16.609375
z
" id="DejaVuSans-95"/>
     </defs>
     <g transform="translate(148.771094 280.276563)scale(0.1 -0.1)">
      <use xlink:href="#DejaVuSans-109"/>
      <use x="97.412109" xlink:href="#DejaVuSans-101"/>
      <use x="158.935547" xlink:href="#DejaVuSans-100"/>
      <use x="222.412109" xlink:href="#DejaVuSans-105"/>
      <use x="250.195312" xlink:href="#DejaVuSans-97"/>
      <use x="311.474609" xlink:href="#DejaVuSans-110"/>
      <use x="374.853516" xlink:href="#DejaVuSans-32"/>
      <use x="406.640625" xlink:href="#DejaVuSans-97"/>
      <use x="467.919922" xlink:href="#DejaVuSans-99"/>
      <use x="522.900391" xlink:href="#DejaVuSans-99"/>
      <use x="577.880859" xlink:href="#DejaVuSans-32"/>
      <use x="609.667969" xlink:href="#DejaVuSans-101"/>
      <use x="671.175781" xlink:href="#DejaVuSans-120"/>
      <use x="730.355469" xlink:href="#DejaVuSans-112"/>
      <use x="793.832031" xlink:href="#DejaVuSans-114"/>
      <use x="834.914062" xlink:href="#DejaVuSans-101"/>
      <use x="896.4375" xlink:href="#DejaVuSans-115"/>
      <use x="948.537109" xlink:href="#DejaVuSans-115"/>
      <use x="1000.636719" xlink:href="#DejaVuSans-105"/>
      <use x="1028.419922" xlink:href="#DejaVuSans-111"/>
      <use x="1089.601562" xlink:href="#DejaVuSans-110"/>
      <use x="1152.980469" xlink:href="#DejaVuSans-95"/>
      <use x="1202.980469" xlink:href="#DejaVuSans-112"/>
      <use x="1266.457031" xlink:href="#DejaVuSans-97"/>
      <use x="1327.736328" xlink:href="#DejaVuSans-111"/>
      <use x="1388.917969" xlink:href="#DejaVuSans-49"/>
     </g>
    </g>
   </g>
   <g id="matplotlib.axis_2">
    <g id="ytick_1">
     <g id="line2d_7">
      <defs>
       <path d="M 0 0
L -3.5 0
" id="m14d208b961" style="stroke:#000000;stroke-width:0.8;"/>
      </defs>
      <g>
       <use style="stroke:#000000;stroke-width:0.8;" x="54" xlink:href="#m14d208b961" y="252"/>
      </g>
     </g>
     <g id="text_8">
      <!-- 0.00 -->
      <defs>
       <path d="M 10.6875 12.40625
L 21 12.40625
L 21 0
L 10.6875 0
z
" id="DejaVuSans-46"/>
      </defs>
      <g transform="translate(24.734375 255.799219)scale(0.1 -0.1)">
       <use xlink:href="#DejaVuSans-48"/>
       <use x="63.623047" xlink:href="#DejaVuSans-46"/>
       <use x="95.410156" xlink:href="#DejaVuSans-48"/>
       <use x="159.033203" xlink:href="#DejaVuSans-48"/>
      </g>
     </g>
    </g>
    <g id="ytick_2">
     <g id="line2d_8">
      <g>
       <use style="stroke:#000000;stroke-width:0.8;" x="54" xlink:href="#m14d208b961" y="222.39424"/>
      </g>
     </g>
     <g id="text_9">
      <!-- 0.02 -->
      <g transform="translate(24.734375 226.193459)scale(0.1 -0.1)">
       <use xlink:href="#DejaVuSans-48"/>
       <use x="63.623047" xlink:href="#DejaVuSans-46"/>
       <use x="95.410156" xlink:href="#DejaVuSans-48"/>
       <use x="159.033203" xlink:href="#DejaVuSans-50"/>
      </g>
     </g>
    </g>
    <g id="ytick_3">
     <g id="line2d_9">
      <g>
       <use style="stroke:#000000;stroke-width:0.8;" x="54" xlink:href="#m14d208b961" y="192.78848"/>
      </g>
     </g>
     <g id="text_10">
      <!-- 0.04 -->
      <defs>
       <path d="M 37.796875 64.3125
L 12.890625 25.390625
L 37.796875 25.390625
z
M 35.203125 72.90625
L 47.609375 72.90625
L 47.609375 25.390625
L 58.015625 25.390625
L 58.015625 17.1875
L 47.609375 17.1875
L 47.609375 0
L 37.796875 0
L 37.796875 17.1875
L 4.890625 17.1875
L 4.890625 26.703125
z
" id="DejaVuSans-52"/>
      </defs>
      <g transform="translate(24.734375 196.587699)scale(0.1 -0.1)">
       <use xlink:href="#DejaVuSans-48"/>
       <use x="63.623047" xlink:href="#DejaVuSans-46"/>
       <use x="95.410156" xlink:href="#DejaVuSans-48"/>
       <use x="159.033203" xlink:href="#DejaVuSans-52"/>
      </g>
     </g>
    </g>
    <g id="ytick_4">
     <g id="line2d_10">
      <g>
       <use style="stroke:#000000;stroke-width:0.8;" x="54" xlink:href="#m14d208b961" y="163.18272"/>
      </g>
     </g>
     <g id="text_11">
      <!-- 0.06 -->
      <defs>
       <path d="M 33.015625 40.375
Q 26.375 40.375 22.484375 35.828125
Q 18.609375 31.296875 18.609375 23.390625
Q 18.609375 15.53125 22.484375 10.953125
Q 26.375 6.390625 33.015625 6.390625
Q 39.65625 6.390625 43.53125 10.953125
Q 47.40625 15.53125 47.40625 23.390625
Q 47.40625 31.296875 43.53125 35.828125
Q 39.65625 40.375 33.015625 40.375
z
M 52.59375 71.296875
L 52.59375 62.3125
Q 48.875 64.0625 45.09375 64.984375
Q 41.3125 65.921875 37.59375 65.921875
Q 27.828125 65.921875 22.671875 59.328125
Q 17.53125 52.734375 16.796875 39.40625
Q 19.671875 43.65625 24.015625 45.921875
Q 28.375 48.1875 33.59375 48.1875
Q 44.578125 48.1875 50.953125 41.515625
Q 57.328125 34.859375 57.328125 23.390625
Q 57.328125 12.15625 50.6875 5.359375
Q 44.046875 -1.421875 33.015625 -1.421875
Q 20.359375 -1.421875 13.671875 8.265625
Q 6.984375 17.96875 6.984375 36.375
Q 6.984375 53.65625 15.1875 63.9375
Q 23.390625 74.21875 37.203125 74.21875
Q 40.921875 74.21875 44.703125 73.484375
Q 48.484375 72.75 52.59375 71.296875
z
" id="DejaVuSans-54"/>
      </defs>
      <g transform="translate(24.734375 166.981939)scale(0.1 -0.1)">
       <use xlink:href="#DejaVuSans-48"/>
       <use x="63.623047" xlink:href="#DejaVuSans-46"/>
       <use x="95.410156" xlink:href="#DejaVuSans-48"/>
       <use x="159.033203" xlink:href="#DejaVuSans-54"/>
      </g>
     </g>
    </g>
    <g id="ytick_5">
     <g id="line2d_11">
      <g>
       <use style="stroke:#000000;stroke-width:0.8;" x="54" xlink:href="#m14d208b961" y="133.57696"/>
      </g>
     </g>
     <g id="text_12">
      <!-- 0.08 -->
      <defs>
       <path d="M 31.78125 34.625
Q 24.75 34.625 20.71875 30.859375
Q 16.703125 27.09375 16.703125 20.515625
Q 16.703125 13.921875 20.71875 10.15625
Q 24.75 6.390625 31.78125 6.390625
Q 38.8125 6.390625 42.859375 10.171875
Q 46.921875 13.96875 46.921875 20.515625
Q 46.921875 27.09375 42.890625 30.859375
Q 38.875 34.625 31.78125 34.625
z
M 21.921875 38.8125
Q 15.578125 40.375 12.03125 44.71875
Q 8.5 49.078125 8.5 55.328125
Q 8.5 64.0625 14.71875 69.140625
Q 20.953125 74.21875 31.78125 74.21875
Q 42.671875 74.21875 48.875 69.140625
Q 55.078125 64.0625 55.078125 55.328125
Q 55.078125 49.078125 51.53125 44.71875
Q 48 40.375 41.703125 38.8125
Q 48.828125 37.15625 52.796875 32.3125
Q 56.78125 27.484375 56.78125 20.515625
Q 56.78125 9.90625 50.3125 4.234375
Q 43.84375 -1.421875 31.78125 -1.421875
Q 19.734375 -1.421875 13.25 4.234375
Q 6.78125 9.90625 6.78125 20.515625
Q 6.78125 27.484375 10.78125 32.3125
Q 14.796875 37.15625 21.921875 38.8125
z
M 18.3125 54.390625
Q 18.3125 48.734375 21.84375 45.5625
Q 25.390625 42.390625 31.78125 42.390625
Q 38.140625 42.390625 41.71875 45.5625
Q 45.3125 48.734375 45.3125 54.390625
Q 45.3125 60.0625 41.71875 63.234375
Q 38.140625 66.40625 31.78125 66.40625
Q 25.390625 66.40625 21.84375 63.234375
Q 18.3125 60.0625 18.3125 54.390625
z
" id="DejaVuSans-56"/>
      </defs>
      <g transform="translate(24.734375 137.376179)scale(0.1 -0.1)">
       <use xlink:href="#DejaVuSans-48"/>
       <use x="63.623047" xlink:href="#DejaVuSans-46"/>
       <use x="95.410156" xlink:href="#DejaVuSans-48"/>
       <use x="159.033203" xlink:href="#DejaVuSans-56"/>
      </g>
     </g>
    </g>
    <g id="ytick_6">
     <g id="line2d_12">
      <g>
       <use style="stroke:#000000;stroke-width:0.8;" x="54" xlink:href="#m14d208b961" y="103.971201"/>
      </g>
     </g>
     <g id="text_13">
      <!-- 0.10 -->
      <g transform="translate(24.734375 107.770419)scale(0.1 -0.1)">
       <use xlink:href="#DejaVuSans-48"/>
       <use x="63.623047" xlink:href="#DejaVuSans-46"/>
       <use x="95.410156" xlink:href="#DejaVuSans-49"/>
       <use x="159.033203" xlink:href="#DejaVuSans-48"/>
      </g>
     </g>
    </g>
    <g id="ytick_7">
     <g id="line2d_13">
      <g>
       <use style="stroke:#000000;stroke-width:0.8;" x="54" xlink:href="#m14d208b961" y="74.365441"/>
      </g>
     </g>
     <g id="text_14">
      <!-- 0.12 -->
      <g transform="translate(24.734375 78.164659)scale(0.1 -0.1)">
       <use xlink:href="#DejaVuSans-48"/>
       <use x="63.623047" xlink:href="#DejaVuSans-46"/>
       <use x="95.410156" xlink:href="#DejaVuSans-49"/>
       <use x="159.033203" xlink:href="#DejaVuSans-50"/>
      </g>
     </g>
    </g>
    <g id="ytick_8">
     <g id="line2d_14">
      <g>
       <use style="stroke:#000000;stroke-width:0.8;" x="54" xlink:href="#m14d208b961" y="44.759681"/>
      </g>
     </g>
     <g id="text_15">
      <!-- 0.14 -->
      <g transform="translate(24.734375 48.5589)scale(0.1 -0.1)">
       <use xlink:href="#DejaVuSans-48"/>
       <use x="63.623047" xlink:href="#DejaVuSans-46"/>
       <use x="95.410156" xlink:href="#DejaVuSans-49"/>
       <use x="159.033203" xlink:href="#DejaVuSans-52"/>
      </g>
     </g>
    </g>
   </g>
   <g id="line2d_15">
    <path clip-path="url(#p5102692fd2)" d="M 69.320083 251.988771
L 71.715845 251.935347
L 74.111606 251.737568
L 76.507368 251.227008
L 78.90313 250.147579
L 81.298892 247.943731
L 83.694653 243.698557
L 86.090415 236.854173
L 88.486177 227.939252
L 90.881938 218.194391
L 93.2777 208.917317
L 95.673462 201.512961
L 98.069223 197.195221
L 100.464985 196.091619
L 102.860747 197.322778
L 105.256508 199.824373
L 107.65227 203.200857
L 110.048032 207.895344
L 112.443794 214.081241
L 114.839555 220.850858
L 117.235317 226.876436
L 119.631079 231.893041
L 122.02684 236.635375
L 124.422602 241.062587
L 126.818364 244.266563
L 129.214125 245.995718
L 138.797172 250.036031
L 141.192934 250.28464
L 145.984457 249.43592
L 148.380219 249.49985
L 153.171742 250.4046
L 155.567504 250.60372
L 162.754789 250.867981
L 165.150551 251.085815
L 167.546313 251.185772
L 172.337836 250.800249
L 174.733598 250.645446
L 177.129359 250.637661
L 181.920883 250.943535
L 184.316644 251.156023
L 186.712406 251.246772
L 191.503929 250.919461
L 193.899691 251.002704
L 196.295453 251.271353
L 198.691215 251.371402
L 203.482738 251.089522
L 210.670023 251.106421
L 213.065785 250.999497
L 217.857308 251.117057
L 225.044593 251.51676
L 239.419163 251.661351
L 244.210687 251.346329
L 249.00221 250.868359
L 251.397972 250.93176
L 258.585257 251.88337
L 263.37678 251.995882
L 294.521682 251.98294
L 306.500491 251.827901
L 311.292014 251.915366
L 320.875061 251.595395
L 330.458108 251.665052
L 335.249631 251.538267
L 340.041154 251.282467
L 342.436916 251.379052
L 347.22844 251.814854
L 349.624201 251.862306
L 356.811486 251.707596
L 366.394533 251.829911
L 371.186056 251.979827
L 373.581818 251.995251
L 373.581818 251.995251
" style="fill:none;stroke:#808080;stroke-linecap:square;stroke-width:1.5;"/>
   </g>
   <g id="line2d_16">
    <path clip-path="url(#p5102692fd2)" d="M 69.218182 251.562777
L 70.938771 250.005274
L 72.659361 244.908825
L 74.37995 232.368494
L 76.10054 209.544731
L 77.821129 179.857256
L 79.541719 154.704992
L 81.262308 146.073155
L 82.982898 156.115399
L 86.424077 194.906289
L 88.144666 207.519058
L 89.865256 214.676519
L 95.027024 229.241286
L 96.747614 234.437945
L 98.468203 238.629131
L 100.188793 240.990206
L 101.909382 241.349328
L 103.629972 240.312162
L 105.350561 238.960541
L 107.071151 238.282337
L 108.79174 238.694989
L 110.512329 239.938146
L 112.232919 241.381592
L 113.953508 242.559107
L 117.394687 244.44945
L 120.835866 246.486272
L 122.556456 247.048639
L 125.997635 247.439231
L 127.718224 247.866716
L 132.879993 249.971957
L 134.600582 250.403106
L 136.321172 250.567931
L 138.041761 250.484724
L 141.48294 250.090365
L 143.20353 250.098429
L 146.644709 250.56679
L 153.527067 251.539046
L 155.247656 251.673527
L 158.688835 251.620972
L 169.012372 251.286693
L 175.89473 251.630583
L 181.056498 251.150592
L 187.938856 250.90768
L 196.541804 250.5117
L 199.982983 250.604745
L 206.865341 251.13651
L 210.30652 251.432802
L 212.027109 251.606789
L 213.747699 251.658974
L 215.468288 251.511708
L 220.630057 250.499113
L 222.350646 250.38436
L 225.791825 250.584957
L 232.674183 251.422596
L 236.115362 251.567221
L 244.718309 251.476618
L 249.880078 251.085911
L 253.321257 251.041247
L 255.041846 251.120407
L 261.924204 251.920721
L 267.085973 251.996944
L 272.247741 251.904532
L 277.40951 251.624262
L 280.850689 251.752911
L 284.291868 251.941874
L 287.733047 251.921064
L 287.733047 251.921064
" style="fill:none;stroke:#0000ff;stroke-linecap:square;stroke-width:1.5;"/>
   </g>
   <g id="patch_103">
    <path d="M 54 252
L 54 34.56
" style="fill:none;stroke:#000000;stroke-linecap:square;stroke-linejoin:miter;stroke-width:0.8;"/>
   </g>
   <g id="patch_104">
    <path d="M 388.8 252
L 388.8 34.56
" style="fill:none;stroke:#000000;stroke-linecap:square;stroke-linejoin:miter;stroke-width:0.8;"/>
   </g>
   <g id="patch_105">
    <path d="M 54 252
L 388.8 252
" style="fill:none;stroke:#000000;stroke-linecap:square;stroke-linejoin:miter;stroke-width:0.8;"/>
   </g>
   <g id="patch_106">
    <path d="M 54 34.56
L 388.8 34.56
" style="fill:none;stroke:#000000;stroke-linecap:square;stroke-linejoin:miter;stroke-width:0.8;"/>
   </g>
  </g>
 </g>
 <defs>
  <clipPath id="p5102692fd2">
   <rect height="217.44" width="334.8" x="54" y="34.56"/>
  </clipPath>
 </defs>
</svg>
