<?xml version="1.0" encoding="utf-8" standalone="no"?>
<!DOCTYPE svg PUBLIC "-//W3C//DTD SVG 1.1//EN"
  "http://www.w3.org/Graphics/SVG/1.1/DTD/svg11.dtd">
<!-- Created with matplotlib (https://matplotlib.org/) -->
<svg height="288pt" version="1.1" viewBox="0 0 432 288" width="432pt" xmlns="http://www.w3.org/2000/svg" xmlns:xlink="http://www.w3.org/1999/xlink">
 <defs>
  <style type="text/css">
*{stroke-linecap:butt;stroke-linejoin:round;}
  </style>
 </defs>
 <g id="figure_1">
  <g id="patch_1">
   <path d="M 0 288
L 432 288
L 432 0
L 0 0
z
" style="fill:#ffffff;"/>
  </g>
  <g id="axes_1">
   <g id="patch_2">
    <path d="M 54 252
L 388.8 252
L 388.8 34.56
L 54 34.56
z
" style="fill:#ffffff;"/>
   </g>
   <g id="patch_3">
    <path clip-path="url(#p1a2a5bf5b2)" d="M 92.767516 252
L 99.051703 252
L 99.051703 244.206417
L 92.767516 244.206417
z
" style="fill:#808080;opacity:0.4;"/>
   </g>
   <g id="patch_4">
    <path clip-path="url(#p1a2a5bf5b2)" d="M 99.051703 252
L 105.335889 252
L 105.335889 221.691624
L 99.051703 221.691624
z
" style="fill:#808080;opacity:0.4;"/>
   </g>
   <g id="patch_5">
    <path clip-path="url(#p1a2a5bf5b2)" d="M 105.335889 252
L 111.620075 252
L 111.620075 201.77469
L 105.335889 201.77469
z
" style="fill:#808080;opacity:0.4;"/>
   </g>
   <g id="patch_6">
    <path clip-path="url(#p1a2a5bf5b2)" d="M 111.620075 252
L 117.904261 252
L 117.904261 180.12585
L 111.620075 180.12585
z
" style="fill:#808080;opacity:0.4;"/>
   </g>
   <g id="patch_7">
    <path clip-path="url(#p1a2a5bf5b2)" d="M 117.904261 252
L 124.188447 252
L 124.188447 200.908737
L 117.904261 200.908737
z
" style="fill:#808080;opacity:0.4;"/>
   </g>
   <g id="patch_8">
    <path clip-path="url(#p1a2a5bf5b2)" d="M 124.188447 252
L 130.472633 252
L 130.472633 201.77469
L 124.188447 201.77469
z
" style="fill:#808080;opacity:0.4;"/>
   </g>
   <g id="patch_9">
    <path clip-path="url(#p1a2a5bf5b2)" d="M 130.472633 252
L 136.756819 252
L 136.756819 210.434227
L 130.472633 210.434227
z
" style="fill:#808080;opacity:0.4;"/>
   </g>
   <g id="patch_10">
    <path clip-path="url(#p1a2a5bf5b2)" d="M 136.756819 252
L 143.041005 252
L 143.041005 219.959716
L 136.756819 219.959716
z
" style="fill:#808080;opacity:0.4;"/>
   </g>
   <g id="patch_11">
    <path clip-path="url(#p1a2a5bf5b2)" d="M 143.041005 252
L 149.325191 252
L 149.325191 240.742603
L 143.041005 240.742603
z
" style="fill:#808080;opacity:0.4;"/>
   </g>
   <g id="patch_12">
    <path clip-path="url(#p1a2a5bf5b2)" d="M 149.325191 252
L 155.609377 252
L 155.609377 229.485206
L 149.325191 229.485206
z
" style="fill:#808080;opacity:0.4;"/>
   </g>
   <g id="patch_13">
    <path clip-path="url(#p1a2a5bf5b2)" d="M 155.609377 252
L 161.893563 252
L 161.893563 240.742603
L 155.609377 240.742603
z
" style="fill:#808080;opacity:0.4;"/>
   </g>
   <g id="patch_14">
    <path clip-path="url(#p1a2a5bf5b2)" d="M 161.893563 252
L 168.177749 252
L 168.177749 240.742603
L 161.893563 240.742603
z
" style="fill:#808080;opacity:0.4;"/>
   </g>
   <g id="patch_15">
    <path clip-path="url(#p1a2a5bf5b2)" d="M 168.177749 252
L 174.461935 252
L 174.461935 249.402139
L 168.177749 249.402139
z
" style="fill:#808080;opacity:0.4;"/>
   </g>
   <g id="patch_16">
    <path clip-path="url(#p1a2a5bf5b2)" d="M 174.461935 252
L 180.746121 252
L 180.746121 249.402139
L 174.461935 249.402139
z
" style="fill:#808080;opacity:0.4;"/>
   </g>
   <g id="patch_17">
    <path clip-path="url(#p1a2a5bf5b2)" d="M 180.746121 252
L 187.030307 252
L 187.030307 249.402139
L 180.746121 249.402139
z
" style="fill:#808080;opacity:0.4;"/>
   </g>
   <g id="patch_18">
    <path clip-path="url(#p1a2a5bf5b2)" d="M 187.030307 252
L 193.314493 252
L 193.314493 247.670232
L 187.030307 247.670232
z
" style="fill:#808080;opacity:0.4;"/>
   </g>
   <g id="patch_19">
    <path clip-path="url(#p1a2a5bf5b2)" d="M 193.314493 252
L 199.598679 252
L 199.598679 252
L 193.314493 252
z
" style="fill:#808080;opacity:0.4;"/>
   </g>
   <g id="patch_20">
    <path clip-path="url(#p1a2a5bf5b2)" d="M 199.598679 252
L 205.882865 252
L 205.882865 252
L 199.598679 252
z
" style="fill:#808080;opacity:0.4;"/>
   </g>
   <g id="patch_21">
    <path clip-path="url(#p1a2a5bf5b2)" d="M 205.882865 252
L 212.167051 252
L 212.167051 251.134046
L 205.882865 251.134046
z
" style="fill:#808080;opacity:0.4;"/>
   </g>
   <g id="patch_22">
    <path clip-path="url(#p1a2a5bf5b2)" d="M 212.167051 252
L 218.451237 252
L 218.451237 252
L 212.167051 252
z
" style="fill:#808080;opacity:0.4;"/>
   </g>
   <g id="patch_23">
    <path clip-path="url(#p1a2a5bf5b2)" d="M 218.451237 252
L 224.735423 252
L 224.735423 251.134046
L 218.451237 251.134046
z
" style="fill:#808080;opacity:0.4;"/>
   </g>
   <g id="patch_24">
    <path clip-path="url(#p1a2a5bf5b2)" d="M 224.735423 252
L 231.019609 252
L 231.019609 252
L 224.735423 252
z
" style="fill:#808080;opacity:0.4;"/>
   </g>
   <g id="patch_25">
    <path clip-path="url(#p1a2a5bf5b2)" d="M 231.019609 252
L 237.303795 252
L 237.303795 251.134046
L 231.019609 251.134046
z
" style="fill:#808080;opacity:0.4;"/>
   </g>
   <g id="patch_26">
    <path clip-path="url(#p1a2a5bf5b2)" d="M 237.303795 252
L 243.587981 252
L 243.587981 252
L 237.303795 252
z
" style="fill:#808080;opacity:0.4;"/>
   </g>
   <g id="patch_27">
    <path clip-path="url(#p1a2a5bf5b2)" d="M 243.587981 252
L 249.872167 252
L 249.872167 252
L 243.587981 252
z
" style="fill:#808080;opacity:0.4;"/>
   </g>
   <g id="patch_28">
    <path clip-path="url(#p1a2a5bf5b2)" d="M 249.872167 252
L 256.156353 252
L 256.156353 252
L 249.872167 252
z
" style="fill:#808080;opacity:0.4;"/>
   </g>
   <g id="patch_29">
    <path clip-path="url(#p1a2a5bf5b2)" d="M 256.156353 252
L 262.440539 252
L 262.440539 252
L 256.156353 252
z
" style="fill:#808080;opacity:0.4;"/>
   </g>
   <g id="patch_30">
    <path clip-path="url(#p1a2a5bf5b2)" d="M 262.440539 252
L 268.724726 252
L 268.724726 251.134046
L 262.440539 251.134046
z
" style="fill:#808080;opacity:0.4;"/>
   </g>
   <g id="patch_31">
    <path clip-path="url(#p1a2a5bf5b2)" d="M 268.724726 252
L 275.008912 252
L 275.008912 252
L 268.724726 252
z
" style="fill:#808080;opacity:0.4;"/>
   </g>
   <g id="patch_32">
    <path clip-path="url(#p1a2a5bf5b2)" d="M 275.008912 252
L 281.293098 252
L 281.293098 252
L 275.008912 252
z
" style="fill:#808080;opacity:0.4;"/>
   </g>
   <g id="patch_33">
    <path clip-path="url(#p1a2a5bf5b2)" d="M 281.293098 252
L 287.577284 252
L 287.577284 252
L 281.293098 252
z
" style="fill:#808080;opacity:0.4;"/>
   </g>
   <g id="patch_34">
    <path clip-path="url(#p1a2a5bf5b2)" d="M 287.577284 252
L 293.86147 252
L 293.86147 252
L 287.577284 252
z
" style="fill:#808080;opacity:0.4;"/>
   </g>
   <g id="patch_35">
    <path clip-path="url(#p1a2a5bf5b2)" d="M 293.86147 252
L 300.145656 252
L 300.145656 251.134046
L 293.86147 251.134046
z
" style="fill:#808080;opacity:0.4;"/>
   </g>
   <g id="patch_36">
    <path clip-path="url(#p1a2a5bf5b2)" d="M 300.145656 252
L 306.429842 252
L 306.429842 252
L 300.145656 252
z
" style="fill:#808080;opacity:0.4;"/>
   </g>
   <g id="patch_37">
    <path clip-path="url(#p1a2a5bf5b2)" d="M 306.429842 252
L 312.714028 252
L 312.714028 249.402139
L 306.429842 249.402139
z
" style="fill:#808080;opacity:0.4;"/>
   </g>
   <g id="patch_38">
    <path clip-path="url(#p1a2a5bf5b2)" d="M 312.714028 252
L 318.998214 252
L 318.998214 252
L 312.714028 252
z
" style="fill:#808080;opacity:0.4;"/>
   </g>
   <g id="patch_39">
    <path clip-path="url(#p1a2a5bf5b2)" d="M 318.998214 252
L 325.2824 252
L 325.2824 251.134046
L 318.998214 251.134046
z
" style="fill:#808080;opacity:0.4;"/>
   </g>
   <g id="patch_40">
    <path clip-path="url(#p1a2a5bf5b2)" d="M 325.2824 252
L 331.566586 252
L 331.566586 252
L 325.2824 252
z
" style="fill:#808080;opacity:0.4;"/>
   </g>
   <g id="patch_41">
    <path clip-path="url(#p1a2a5bf5b2)" d="M 331.566586 252
L 337.850772 252
L 337.850772 252
L 331.566586 252
z
" style="fill:#808080;opacity:0.4;"/>
   </g>
   <g id="patch_42">
    <path clip-path="url(#p1a2a5bf5b2)" d="M 337.850772 252
L 344.134958 252
L 344.134958 252
L 337.850772 252
z
" style="fill:#808080;opacity:0.4;"/>
   </g>
   <g id="patch_43">
    <path clip-path="url(#p1a2a5bf5b2)" d="M 344.134958 252
L 350.419144 252
L 350.419144 252
L 344.134958 252
z
" style="fill:#808080;opacity:0.4;"/>
   </g>
   <g id="patch_44">
    <path clip-path="url(#p1a2a5bf5b2)" d="M 350.419144 252
L 356.70333 252
L 356.70333 251.134046
L 350.419144 251.134046
z
" style="fill:#808080;opacity:0.4;"/>
   </g>
   <g id="patch_45">
    <path clip-path="url(#p1a2a5bf5b2)" d="M 81.319629 252
L 86.223789 252
L 86.223789 44.914286
L 81.319629 44.914286
z
" style="fill:#0000ff;opacity:0.4;"/>
   </g>
   <g id="patch_46">
    <path clip-path="url(#p1a2a5bf5b2)" d="M 86.223789 252
L 91.127949 252
L 91.127949 131.0061
L 86.223789 131.0061
z
" style="fill:#0000ff;opacity:0.4;"/>
   </g>
   <g id="patch_47">
    <path clip-path="url(#p1a2a5bf5b2)" d="M 91.127949 252
L 96.032109 252
L 96.032109 193.829856
L 91.127949 193.829856
z
" style="fill:#0000ff;opacity:0.4;"/>
   </g>
   <g id="patch_48">
    <path clip-path="url(#p1a2a5bf5b2)" d="M 96.032109 252
L 100.936269 252
L 100.936269 238.039165
L 96.032109 238.039165
z
" style="fill:#0000ff;opacity:0.4;"/>
   </g>
   <g id="patch_49">
    <path clip-path="url(#p1a2a5bf5b2)" d="M 100.936269 252
L 105.840429 252
L 105.840429 238.039165
L 100.936269 238.039165
z
" style="fill:#0000ff;opacity:0.4;"/>
   </g>
   <g id="patch_50">
    <path clip-path="url(#p1a2a5bf5b2)" d="M 105.840429 252
L 110.744589 252
L 110.744589 233.385554
L 105.840429 233.385554
z
" style="fill:#0000ff;opacity:0.4;"/>
   </g>
   <g id="patch_51">
    <path clip-path="url(#p1a2a5bf5b2)" d="M 110.744589 252
L 115.648748 252
L 115.648748 233.385554
L 110.744589 233.385554
z
" style="fill:#0000ff;opacity:0.4;"/>
   </g>
   <g id="patch_52">
    <path clip-path="url(#p1a2a5bf5b2)" d="M 115.648748 252
L 120.552908 252
L 120.552908 231.058748
L 115.648748 231.058748
z
" style="fill:#0000ff;opacity:0.4;"/>
   </g>
   <g id="patch_53">
    <path clip-path="url(#p1a2a5bf5b2)" d="M 120.552908 252
L 125.457068 252
L 125.457068 238.039165
L 120.552908 238.039165
z
" style="fill:#0000ff;opacity:0.4;"/>
   </g>
   <g id="patch_54">
    <path clip-path="url(#p1a2a5bf5b2)" d="M 125.457068 252
L 130.361228 252
L 130.361228 245.019583
L 125.457068 245.019583
z
" style="fill:#0000ff;opacity:0.4;"/>
   </g>
   <g id="patch_55">
    <path clip-path="url(#p1a2a5bf5b2)" d="M 130.361228 252
L 135.265388 252
L 135.265388 252
L 130.361228 252
z
" style="fill:#0000ff;opacity:0.4;"/>
   </g>
   <g id="patch_56">
    <path clip-path="url(#p1a2a5bf5b2)" d="M 135.265388 252
L 140.169548 252
L 140.169548 245.019583
L 135.265388 245.019583
z
" style="fill:#0000ff;opacity:0.4;"/>
   </g>
   <g id="patch_57">
    <path clip-path="url(#p1a2a5bf5b2)" d="M 140.169548 252
L 145.073708 252
L 145.073708 249.673194
L 140.169548 249.673194
z
" style="fill:#0000ff;opacity:0.4;"/>
   </g>
   <g id="patch_58">
    <path clip-path="url(#p1a2a5bf5b2)" d="M 145.073708 252
L 149.977868 252
L 149.977868 240.365971
L 145.073708 240.365971
z
" style="fill:#0000ff;opacity:0.4;"/>
   </g>
   <g id="patch_59">
    <path clip-path="url(#p1a2a5bf5b2)" d="M 149.977868 252
L 154.882028 252
L 154.882028 247.346388
L 149.977868 247.346388
z
" style="fill:#0000ff;opacity:0.4;"/>
   </g>
   <g id="patch_60">
    <path clip-path="url(#p1a2a5bf5b2)" d="M 154.882028 252
L 159.786188 252
L 159.786188 249.673194
L 154.882028 249.673194
z
" style="fill:#0000ff;opacity:0.4;"/>
   </g>
   <g id="patch_61">
    <path clip-path="url(#p1a2a5bf5b2)" d="M 159.786188 252
L 164.690348 252
L 164.690348 247.346388
L 159.786188 247.346388
z
" style="fill:#0000ff;opacity:0.4;"/>
   </g>
   <g id="patch_62">
    <path clip-path="url(#p1a2a5bf5b2)" d="M 164.690348 252
L 169.594508 252
L 169.594508 252
L 164.690348 252
z
" style="fill:#0000ff;opacity:0.4;"/>
   </g>
   <g id="patch_63">
    <path clip-path="url(#p1a2a5bf5b2)" d="M 169.594508 252
L 174.498667 252
L 174.498667 252
L 169.594508 252
z
" style="fill:#0000ff;opacity:0.4;"/>
   </g>
   <g id="patch_64">
    <path clip-path="url(#p1a2a5bf5b2)" d="M 174.498667 252
L 179.402827 252
L 179.402827 252
L 174.498667 252
z
" style="fill:#0000ff;opacity:0.4;"/>
   </g>
   <g id="patch_65">
    <path clip-path="url(#p1a2a5bf5b2)" d="M 179.402827 252
L 184.306987 252
L 184.306987 252
L 179.402827 252
z
" style="fill:#0000ff;opacity:0.4;"/>
   </g>
   <g id="patch_66">
    <path clip-path="url(#p1a2a5bf5b2)" d="M 184.306987 252
L 189.211147 252
L 189.211147 252
L 184.306987 252
z
" style="fill:#0000ff;opacity:0.4;"/>
   </g>
   <g id="patch_67">
    <path clip-path="url(#p1a2a5bf5b2)" d="M 189.211147 252
L 194.115307 252
L 194.115307 252
L 189.211147 252
z
" style="fill:#0000ff;opacity:0.4;"/>
   </g>
   <g id="patch_68">
    <path clip-path="url(#p1a2a5bf5b2)" d="M 194.115307 252
L 199.019467 252
L 199.019467 252
L 194.115307 252
z
" style="fill:#0000ff;opacity:0.4;"/>
   </g>
   <g id="patch_69">
    <path clip-path="url(#p1a2a5bf5b2)" d="M 199.019467 252
L 203.923627 252
L 203.923627 252
L 199.019467 252
z
" style="fill:#0000ff;opacity:0.4;"/>
   </g>
   <g id="patch_70">
    <path clip-path="url(#p1a2a5bf5b2)" d="M 203.923627 252
L 208.827787 252
L 208.827787 252
L 203.923627 252
z
" style="fill:#0000ff;opacity:0.4;"/>
   </g>
   <g id="patch_71">
    <path clip-path="url(#p1a2a5bf5b2)" d="M 208.827787 252
L 213.731947 252
L 213.731947 252
L 208.827787 252
z
" style="fill:#0000ff;opacity:0.4;"/>
   </g>
   <g id="patch_72">
    <path clip-path="url(#p1a2a5bf5b2)" d="M 213.731947 252
L 218.636107 252
L 218.636107 252
L 213.731947 252
z
" style="fill:#0000ff;opacity:0.4;"/>
   </g>
   <g id="patch_73">
    <path clip-path="url(#p1a2a5bf5b2)" d="M 218.636107 252
L 223.540267 252
L 223.540267 252
L 218.636107 252
z
" style="fill:#0000ff;opacity:0.4;"/>
   </g>
   <g id="patch_74">
    <path clip-path="url(#p1a2a5bf5b2)" d="M 223.540267 252
L 228.444427 252
L 228.444427 252
L 223.540267 252
z
" style="fill:#0000ff;opacity:0.4;"/>
   </g>
   <g id="patch_75">
    <path clip-path="url(#p1a2a5bf5b2)" d="M 228.444427 252
L 233.348586 252
L 233.348586 252
L 228.444427 252
z
" style="fill:#0000ff;opacity:0.4;"/>
   </g>
   <g id="patch_76">
    <path clip-path="url(#p1a2a5bf5b2)" d="M 233.348586 252
L 238.252746 252
L 238.252746 249.673194
L 233.348586 249.673194
z
" style="fill:#0000ff;opacity:0.4;"/>
   </g>
   <g id="matplotlib.axis_1">
    <g id="xtick_1">
     <g id="line2d_1">
      <defs>
       <path d="M 0 0
L 0 3.5
" id="m545f44663b" style="stroke:#000000;stroke-width:0.8;"/>
      </defs>
      <g>
       <use style="stroke:#000000;stroke-width:0.8;" x="81.243414" xlink:href="#m545f44663b" y="252"/>
      </g>
     </g>
     <g id="text_1">
      <!-- 0 -->
      <defs>
       <path d="M 31.78125 66.40625
Q 24.171875 66.40625 20.328125 58.90625
Q 16.5 51.421875 16.5 36.375
Q 16.5 21.390625 20.328125 13.890625
Q 24.171875 6.390625 31.78125 6.390625
Q 39.453125 6.390625 43.28125 13.890625
Q 47.125 21.390625 47.125 36.375
Q 47.125 51.421875 43.28125 58.90625
Q 39.453125 66.40625 31.78125 66.40625
z
M 31.78125 74.21875
Q 44.046875 74.21875 50.515625 64.515625
Q 56.984375 54.828125 56.984375 36.375
Q 56.984375 17.96875 50.515625 8.265625
Q 44.046875 -1.421875 31.78125 -1.421875
Q 19.53125 -1.421875 13.0625 8.265625
Q 6.59375 17.96875 6.59375 36.375
Q 6.59375 54.828125 13.0625 64.515625
Q 19.53125 74.21875 31.78125 74.21875
z
" id="DejaVuSans-48"/>
      </defs>
      <g transform="translate(78.062164 266.598437)scale(0.1 -0.1)">
       <use xlink:href="#DejaVuSans-48"/>
      </g>
     </g>
    </g>
    <g id="xtick_2">
     <g id="line2d_2">
      <g>
       <use style="stroke:#000000;stroke-width:0.8;" x="127.573055" xlink:href="#m545f44663b" y="252"/>
      </g>
     </g>
     <g id="text_2">
      <!-- 25 -->
      <defs>
       <path d="M 19.1875 8.296875
L 53.609375 8.296875
L 53.609375 0
L 7.328125 0
L 7.328125 8.296875
Q 12.9375 14.109375 22.625 23.890625
Q 32.328125 33.6875 34.8125 36.53125
Q 39.546875 41.84375 41.421875 45.53125
Q 43.3125 49.21875 43.3125 52.78125
Q 43.3125 58.59375 39.234375 62.25
Q 35.15625 65.921875 28.609375 65.921875
Q 23.96875 65.921875 18.8125 64.3125
Q 13.671875 62.703125 7.8125 59.421875
L 7.8125 69.390625
Q 13.765625 71.78125 18.9375 73
Q 24.125 74.21875 28.421875 74.21875
Q 39.75 74.21875 46.484375 68.546875
Q 53.21875 62.890625 53.21875 53.421875
Q 53.21875 48.921875 51.53125 44.890625
Q 49.859375 40.875 45.40625 35.40625
Q 44.1875 33.984375 37.640625 27.21875
Q 31.109375 20.453125 19.1875 8.296875
z
" id="DejaVuSans-50"/>
       <path d="M 10.796875 72.90625
L 49.515625 72.90625
L 49.515625 64.59375
L 19.828125 64.59375
L 19.828125 46.734375
Q 21.96875 47.46875 24.109375 47.828125
Q 26.265625 48.1875 28.421875 48.1875
Q 40.625 48.1875 47.75 41.5
Q 54.890625 34.8125 54.890625 23.390625
Q 54.890625 11.625 47.5625 5.09375
Q 40.234375 -1.421875 26.90625 -1.421875
Q 22.3125 -1.421875 17.546875 -0.640625
Q 12.796875 0.140625 7.71875 1.703125
L 7.71875 11.625
Q 12.109375 9.234375 16.796875 8.0625
Q 21.484375 6.890625 26.703125 6.890625
Q 35.15625 6.890625 40.078125 11.328125
Q 45.015625 15.765625 45.015625 23.390625
Q 45.015625 31 40.078125 35.4375
Q 35.15625 39.890625 26.703125 39.890625
Q 22.75 39.890625 18.8125 39.015625
Q 14.890625 38.140625 10.796875 36.28125
z
" id="DejaVuSans-53"/>
      </defs>
      <g transform="translate(121.210555 266.598437)scale(0.1 -0.1)">
       <use xlink:href="#DejaVuSans-50"/>
       <use x="63.623047" xlink:href="#DejaVuSans-53"/>
      </g>
     </g>
    </g>
    <g id="xtick_3">
     <g id="line2d_3">
      <g>
       <use style="stroke:#000000;stroke-width:0.8;" x="173.902695" xlink:href="#m545f44663b" y="252"/>
      </g>
     </g>
     <g id="text_3">
      <!-- 50 -->
      <g transform="translate(167.540195 266.598437)scale(0.1 -0.1)">
       <use xlink:href="#DejaVuSans-53"/>
       <use x="63.623047" xlink:href="#DejaVuSans-48"/>
      </g>
     </g>
    </g>
    <g id="xtick_4">
     <g id="line2d_4">
      <g>
       <use style="stroke:#000000;stroke-width:0.8;" x="220.232336" xlink:href="#m545f44663b" y="252"/>
      </g>
     </g>
     <g id="text_4">
      <!-- 75 -->
      <defs>
       <path d="M 8.203125 72.90625
L 55.078125 72.90625
L 55.078125 68.703125
L 28.609375 0
L 18.3125 0
L 43.21875 64.59375
L 8.203125 64.59375
z
" id="DejaVuSans-55"/>
      </defs>
      <g transform="translate(213.869836 266.598437)scale(0.1 -0.1)">
       <use xlink:href="#DejaVuSans-55"/>
       <use x="63.623047" xlink:href="#DejaVuSans-53"/>
      </g>
     </g>
    </g>
    <g id="xtick_5">
     <g id="line2d_5">
      <g>
       <use style="stroke:#000000;stroke-width:0.8;" x="266.561977" xlink:href="#m545f44663b" y="252"/>
      </g>
     </g>
     <g id="text_5">
      <!-- 100 -->
      <defs>
       <path d="M 12.40625 8.296875
L 28.515625 8.296875
L 28.515625 63.921875
L 10.984375 60.40625
L 10.984375 69.390625
L 28.421875 72.90625
L 38.28125 72.90625
L 38.28125 8.296875
L 54.390625 8.296875
L 54.390625 0
L 12.40625 0
z
" id="DejaVuSans-49"/>
      </defs>
      <g transform="translate(257.018227 266.598437)scale(0.1 -0.1)">
       <use xlink:href="#DejaVuSans-49"/>
       <use x="63.623047" xlink:href="#DejaVuSans-48"/>
       <use x="127.246094" xlink:href="#DejaVuSans-48"/>
      </g>
     </g>
    </g>
    <g id="xtick_6">
     <g id="line2d_6">
      <g>
       <use style="stroke:#000000;stroke-width:0.8;" x="312.891617" xlink:href="#m545f44663b" y="252"/>
      </g>
     </g>
     <g id="text_6">
      <!-- 125 -->
      <g transform="translate(303.347867 266.598437)scale(0.1 -0.1)">
       <use xlink:href="#DejaVuSans-49"/>
       <use x="63.623047" xlink:href="#DejaVuSans-50"/>
       <use x="127.246094" xlink:href="#DejaVuSans-53"/>
      </g>
     </g>
    </g>
    <g id="xtick_7">
     <g id="line2d_7">
      <g>
       <use style="stroke:#000000;stroke-width:0.8;" x="359.221258" xlink:href="#m545f44663b" y="252"/>
      </g>
     </g>
     <g id="text_7">
      <!-- 150 -->
      <g transform="translate(349.677508 266.598437)scale(0.1 -0.1)">
       <use xlink:href="#DejaVuSans-49"/>
       <use x="63.623047" xlink:href="#DejaVuSans-53"/>
       <use x="127.246094" xlink:href="#DejaVuSans-48"/>
      </g>
     </g>
    </g>
    <g id="text_8">
     <!-- median acc expression_pa14 -->
     <defs>
      <path d="M 52 44.1875
Q 55.375 50.25 60.0625 53.125
Q 64.75 56 71.09375 56
Q 79.640625 56 84.28125 50.015625
Q 88.921875 44.046875 88.921875 33.015625
L 88.921875 0
L 79.890625 0
L 79.890625 32.71875
Q 79.890625 40.578125 77.09375 44.375
Q 74.3125 48.1875 68.609375 48.1875
Q 61.625 48.1875 57.5625 43.546875
Q 53.515625 38.921875 53.515625 30.90625
L 53.515625 0
L 44.484375 0
L 44.484375 32.71875
Q 44.484375 40.625 41.703125 44.40625
Q 38.921875 48.1875 33.109375 48.1875
Q 26.21875 48.1875 22.15625 43.53125
Q 18.109375 38.875 18.109375 30.90625
L 18.109375 0
L 9.078125 0
L 9.078125 54.6875
L 18.109375 54.6875
L 18.109375 46.1875
Q 21.1875 51.21875 25.484375 53.609375
Q 29.78125 56 35.6875 56
Q 41.65625 56 45.828125 52.96875
Q 50 49.953125 52 44.1875
z
" id="DejaVuSans-109"/>
      <path d="M 56.203125 29.59375
L 56.203125 25.203125
L 14.890625 25.203125
Q 15.484375 15.921875 20.484375 11.0625
Q 25.484375 6.203125 34.421875 6.203125
Q 39.59375 6.203125 44.453125 7.46875
Q 49.3125 8.734375 54.109375 11.28125
L 54.109375 2.78125
Q 49.265625 0.734375 44.1875 -0.34375
Q 39.109375 -1.421875 33.890625 -1.421875
Q 20.796875 -1.421875 13.15625 6.1875
Q 5.515625 13.8125 5.515625 26.8125
Q 5.515625 40.234375 12.765625 48.109375
Q 20.015625 56 32.328125 56
Q 43.359375 56 49.78125 48.890625
Q 56.203125 41.796875 56.203125 29.59375
z
M 47.21875 32.234375
Q 47.125 39.59375 43.09375 43.984375
Q 39.0625 48.390625 32.421875 48.390625
Q 24.90625 48.390625 20.390625 44.140625
Q 15.875 39.890625 15.1875 32.171875
z
" id="DejaVuSans-101"/>
      <path d="M 45.40625 46.390625
L 45.40625 75.984375
L 54.390625 75.984375
L 54.390625 0
L 45.40625 0
L 45.40625 8.203125
Q 42.578125 3.328125 38.25 0.953125
Q 33.9375 -1.421875 27.875 -1.421875
Q 17.96875 -1.421875 11.734375 6.484375
Q 5.515625 14.40625 5.515625 27.296875
Q 5.515625 40.1875 11.734375 48.09375
Q 17.96875 56 27.875 56
Q 33.9375 56 38.25 53.625
Q 42.578125 51.265625 45.40625 46.390625
z
M 14.796875 27.296875
Q 14.796875 17.390625 18.875 11.75
Q 22.953125 6.109375 30.078125 6.109375
Q 37.203125 6.109375 41.296875 11.75
Q 45.40625 17.390625 45.40625 27.296875
Q 45.40625 37.203125 41.296875 42.84375
Q 37.203125 48.484375 30.078125 48.484375
Q 22.953125 48.484375 18.875 42.84375
Q 14.796875 37.203125 14.796875 27.296875
z
" id="DejaVuSans-100"/>
      <path d="M 9.421875 54.6875
L 18.40625 54.6875
L 18.40625 0
L 9.421875 0
z
M 9.421875 75.984375
L 18.40625 75.984375
L 18.40625 64.59375
L 9.421875 64.59375
z
" id="DejaVuSans-105"/>
      <path d="M 34.28125 27.484375
Q 23.390625 27.484375 19.1875 25
Q 14.984375 22.515625 14.984375 16.5
Q 14.984375 11.71875 18.140625 8.90625
Q 21.296875 6.109375 26.703125 6.109375
Q 34.1875 6.109375 38.703125 11.40625
Q 43.21875 16.703125 43.21875 25.484375
L 43.21875 27.484375
z
M 52.203125 31.203125
L 52.203125 0
L 43.21875 0
L 43.21875 8.296875
Q 40.140625 3.328125 35.546875 0.953125
Q 30.953125 -1.421875 24.3125 -1.421875
Q 15.921875 -1.421875 10.953125 3.296875
Q 6 8.015625 6 15.921875
Q 6 25.140625 12.171875 29.828125
Q 18.359375 34.515625 30.609375 34.515625
L 43.21875 34.515625
L 43.21875 35.40625
Q 43.21875 41.609375 39.140625 45
Q 35.0625 48.390625 27.6875 48.390625
Q 23 48.390625 18.546875 47.265625
Q 14.109375 46.140625 10.015625 43.890625
L 10.015625 52.203125
Q 14.9375 54.109375 19.578125 55.046875
Q 24.21875 56 28.609375 56
Q 40.484375 56 46.34375 49.84375
Q 52.203125 43.703125 52.203125 31.203125
z
" id="DejaVuSans-97"/>
      <path d="M 54.890625 33.015625
L 54.890625 0
L 45.90625 0
L 45.90625 32.71875
Q 45.90625 40.484375 42.875 44.328125
Q 39.84375 48.1875 33.796875 48.1875
Q 26.515625 48.1875 22.3125 43.546875
Q 18.109375 38.921875 18.109375 30.90625
L 18.109375 0
L 9.078125 0
L 9.078125 54.6875
L 18.109375 54.6875
L 18.109375 46.1875
Q 21.34375 51.125 25.703125 53.5625
Q 30.078125 56 35.796875 56
Q 45.21875 56 50.046875 50.171875
Q 54.890625 44.34375 54.890625 33.015625
z
" id="DejaVuSans-110"/>
      <path id="DejaVuSans-32"/>
      <path d="M 48.78125 52.59375
L 48.78125 44.1875
Q 44.96875 46.296875 41.140625 47.34375
Q 37.3125 48.390625 33.40625 48.390625
Q 24.65625 48.390625 19.8125 42.84375
Q 14.984375 37.3125 14.984375 27.296875
Q 14.984375 17.28125 19.8125 11.734375
Q 24.65625 6.203125 33.40625 6.203125
Q 37.3125 6.203125 41.140625 7.25
Q 44.96875 8.296875 48.78125 10.40625
L 48.78125 2.09375
Q 45.015625 0.34375 40.984375 -0.53125
Q 36.96875 -1.421875 32.421875 -1.421875
Q 20.0625 -1.421875 12.78125 6.34375
Q 5.515625 14.109375 5.515625 27.296875
Q 5.515625 40.671875 12.859375 48.328125
Q 20.21875 56 33.015625 56
Q 37.15625 56 41.109375 55.140625
Q 45.0625 54.296875 48.78125 52.59375
z
" id="DejaVuSans-99"/>
      <path d="M 54.890625 54.6875
L 35.109375 28.078125
L 55.90625 0
L 45.3125 0
L 29.390625 21.484375
L 13.484375 0
L 2.875 0
L 24.125 28.609375
L 4.6875 54.6875
L 15.28125 54.6875
L 29.78125 35.203125
L 44.28125 54.6875
z
" id="DejaVuSans-120"/>
      <path d="M 18.109375 8.203125
L 18.109375 -20.796875
L 9.078125 -20.796875
L 9.078125 54.6875
L 18.109375 54.6875
L 18.109375 46.390625
Q 20.953125 51.265625 25.265625 53.625
Q 29.59375 56 35.59375 56
Q 45.5625 56 51.78125 48.09375
Q 58.015625 40.1875 58.015625 27.296875
Q 58.015625 14.40625 51.78125 6.484375
Q 45.5625 -1.421875 35.59375 -1.421875
Q 29.59375 -1.421875 25.265625 0.953125
Q 20.953125 3.328125 18.109375 8.203125
z
M 48.6875 27.296875
Q 48.6875 37.203125 44.609375 42.84375
Q 40.53125 48.484375 33.40625 48.484375
Q 26.265625 48.484375 22.1875 42.84375
Q 18.109375 37.203125 18.109375 27.296875
Q 18.109375 17.390625 22.1875 11.75
Q 26.265625 6.109375 33.40625 6.109375
Q 40.53125 6.109375 44.609375 11.75
Q 48.6875 17.390625 48.6875 27.296875
z
" id="DejaVuSans-112"/>
      <path d="M 41.109375 46.296875
Q 39.59375 47.171875 37.8125 47.578125
Q 36.03125 48 33.890625 48
Q 26.265625 48 22.1875 43.046875
Q 18.109375 38.09375 18.109375 28.8125
L 18.109375 0
L 9.078125 0
L 9.078125 54.6875
L 18.109375 54.6875
L 18.109375 46.1875
Q 20.953125 51.171875 25.484375 53.578125
Q 30.03125 56 36.53125 56
Q 37.453125 56 38.578125 55.875
Q 39.703125 55.765625 41.0625 55.515625
z
" id="DejaVuSans-114"/>
      <path d="M 44.28125 53.078125
L 44.28125 44.578125
Q 40.484375 46.53125 36.375 47.5
Q 32.28125 48.484375 27.875 48.484375
Q 21.1875 48.484375 17.84375 46.4375
Q 14.5 44.390625 14.5 40.28125
Q 14.5 37.15625 16.890625 35.375
Q 19.28125 33.59375 26.515625 31.984375
L 29.59375 31.296875
Q 39.15625 29.25 43.1875 25.515625
Q 47.21875 21.78125 47.21875 15.09375
Q 47.21875 7.46875 41.1875 3.015625
Q 35.15625 -1.421875 24.609375 -1.421875
Q 20.21875 -1.421875 15.453125 -0.5625
Q 10.6875 0.296875 5.421875 2
L 5.421875 11.28125
Q 10.40625 8.6875 15.234375 7.390625
Q 20.0625 6.109375 24.8125 6.109375
Q 31.15625 6.109375 34.5625 8.28125
Q 37.984375 10.453125 37.984375 14.40625
Q 37.984375 18.0625 35.515625 20.015625
Q 33.0625 21.96875 24.703125 23.78125
L 21.578125 24.515625
Q 13.234375 26.265625 9.515625 29.90625
Q 5.8125 33.546875 5.8125 39.890625
Q 5.8125 47.609375 11.28125 51.796875
Q 16.75 56 26.8125 56
Q 31.78125 56 36.171875 55.265625
Q 40.578125 54.546875 44.28125 53.078125
z
" id="DejaVuSans-115"/>
      <path d="M 30.609375 48.390625
Q 23.390625 48.390625 19.1875 42.75
Q 14.984375 37.109375 14.984375 27.296875
Q 14.984375 17.484375 19.15625 11.84375
Q 23.34375 6.203125 30.609375 6.203125
Q 37.796875 6.203125 41.984375 11.859375
Q 46.1875 17.53125 46.1875 27.296875
Q 46.1875 37.015625 41.984375 42.703125
Q 37.796875 48.390625 30.609375 48.390625
z
M 30.609375 56
Q 42.328125 56 49.015625 48.375
Q 55.71875 40.765625 55.71875 27.296875
Q 55.71875 13.875 49.015625 6.21875
Q 42.328125 -1.421875 30.609375 -1.421875
Q 18.84375 -1.421875 12.171875 6.21875
Q 5.515625 13.875 5.515625 27.296875
Q 5.515625 40.765625 12.171875 48.375
Q 18.84375 56 30.609375 56
z
" id="DejaVuSans-111"/>
      <path d="M 50.984375 -16.609375
L 50.984375 -23.578125
L -0.984375 -23.578125
L -0.984375 -16.609375
z
" id="DejaVuSans-95"/>
      <path d="M 37.796875 64.3125
L 12.890625 25.390625
L 37.796875 25.390625
z
M 35.203125 72.90625
L 47.609375 72.90625
L 47.609375 25.390625
L 58.015625 25.390625
L 58.015625 17.1875
L 47.609375 17.1875
L 47.609375 0
L 37.796875 0
L 37.796875 17.1875
L 4.890625 17.1875
L 4.890625 26.703125
z
" id="DejaVuSans-52"/>
     </defs>
     <g transform="translate(148.649219 280.276563)scale(0.1 -0.1)">
      <use xlink:href="#DejaVuSans-109"/>
      <use x="97.412109" xlink:href="#DejaVuSans-101"/>
      <use x="158.935547" xlink:href="#DejaVuSans-100"/>
      <use x="222.412109" xlink:href="#DejaVuSans-105"/>
      <use x="250.195312" xlink:href="#DejaVuSans-97"/>
      <use x="311.474609" xlink:href="#DejaVuSans-110"/>
      <use x="374.853516" xlink:href="#DejaVuSans-32"/>
      <use x="406.640625" xlink:href="#DejaVuSans-97"/>
      <use x="467.919922" xlink:href="#DejaVuSans-99"/>
      <use x="522.900391" xlink:href="#DejaVuSans-99"/>
      <use x="577.880859" xlink:href="#DejaVuSans-32"/>
      <use x="609.667969" xlink:href="#DejaVuSans-101"/>
      <use x="671.175781" xlink:href="#DejaVuSans-120"/>
      <use x="730.355469" xlink:href="#DejaVuSans-112"/>
      <use x="793.832031" xlink:href="#DejaVuSans-114"/>
      <use x="834.914062" xlink:href="#DejaVuSans-101"/>
      <use x="896.4375" xlink:href="#DejaVuSans-115"/>
      <use x="948.537109" xlink:href="#DejaVuSans-115"/>
      <use x="1000.636719" xlink:href="#DejaVuSans-105"/>
      <use x="1028.419922" xlink:href="#DejaVuSans-111"/>
      <use x="1089.601562" xlink:href="#DejaVuSans-110"/>
      <use x="1152.980469" xlink:href="#DejaVuSans-95"/>
      <use x="1202.980469" xlink:href="#DejaVuSans-112"/>
      <use x="1266.457031" xlink:href="#DejaVuSans-97"/>
      <use x="1327.736328" xlink:href="#DejaVuSans-49"/>
      <use x="1391.359375" xlink:href="#DejaVuSans-52"/>
     </g>
    </g>
   </g>
   <g id="matplotlib.axis_2">
    <g id="ytick_1">
     <g id="line2d_8">
      <defs>
       <path d="M 0 0
L -3.5 0
" id="m52424ffb18" style="stroke:#000000;stroke-width:0.8;"/>
      </defs>
      <g>
       <use style="stroke:#000000;stroke-width:0.8;" x="54" xlink:href="#m52424ffb18" y="252"/>
      </g>
     </g>
     <g id="text_9">
      <!-- 0.00 -->
      <defs>
       <path d="M 10.6875 12.40625
L 21 12.40625
L 21 0
L 10.6875 0
z
" id="DejaVuSans-46"/>
      </defs>
      <g transform="translate(24.734375 255.799219)scale(0.1 -0.1)">
       <use xlink:href="#DejaVuSans-48"/>
       <use x="63.623047" xlink:href="#DejaVuSans-46"/>
       <use x="95.410156" xlink:href="#DejaVuSans-48"/>
       <use x="159.033203" xlink:href="#DejaVuSans-48"/>
      </g>
     </g>
    </g>
    <g id="ytick_2">
     <g id="line2d_9">
      <g>
       <use style="stroke:#000000;stroke-width:0.8;" x="54" xlink:href="#m52424ffb18" y="224.044859"/>
      </g>
     </g>
     <g id="text_10">
      <!-- 0.02 -->
      <g transform="translate(24.734375 227.844078)scale(0.1 -0.1)">
       <use xlink:href="#DejaVuSans-48"/>
       <use x="63.623047" xlink:href="#DejaVuSans-46"/>
       <use x="95.410156" xlink:href="#DejaVuSans-48"/>
       <use x="159.033203" xlink:href="#DejaVuSans-50"/>
      </g>
     </g>
    </g>
    <g id="ytick_3">
     <g id="line2d_10">
      <g>
       <use style="stroke:#000000;stroke-width:0.8;" x="54" xlink:href="#m52424ffb18" y="196.089718"/>
      </g>
     </g>
     <g id="text_11">
      <!-- 0.04 -->
      <g transform="translate(24.734375 199.888937)scale(0.1 -0.1)">
       <use xlink:href="#DejaVuSans-48"/>
       <use x="63.623047" xlink:href="#DejaVuSans-46"/>
       <use x="95.410156" xlink:href="#DejaVuSans-48"/>
       <use x="159.033203" xlink:href="#DejaVuSans-52"/>
      </g>
     </g>
    </g>
    <g id="ytick_4">
     <g id="line2d_11">
      <g>
       <use style="stroke:#000000;stroke-width:0.8;" x="54" xlink:href="#m52424ffb18" y="168.134577"/>
      </g>
     </g>
     <g id="text_12">
      <!-- 0.06 -->
      <defs>
       <path d="M 33.015625 40.375
Q 26.375 40.375 22.484375 35.828125
Q 18.609375 31.296875 18.609375 23.390625
Q 18.609375 15.53125 22.484375 10.953125
Q 26.375 6.390625 33.015625 6.390625
Q 39.65625 6.390625 43.53125 10.953125
Q 47.40625 15.53125 47.40625 23.390625
Q 47.40625 31.296875 43.53125 35.828125
Q 39.65625 40.375 33.015625 40.375
z
M 52.59375 71.296875
L 52.59375 62.3125
Q 48.875 64.0625 45.09375 64.984375
Q 41.3125 65.921875 37.59375 65.921875
Q 27.828125 65.921875 22.671875 59.328125
Q 17.53125 52.734375 16.796875 39.40625
Q 19.671875 43.65625 24.015625 45.921875
Q 28.375 48.1875 33.59375 48.1875
Q 44.578125 48.1875 50.953125 41.515625
Q 57.328125 34.859375 57.328125 23.390625
Q 57.328125 12.15625 50.6875 5.359375
Q 44.046875 -1.421875 33.015625 -1.421875
Q 20.359375 -1.421875 13.671875 8.265625
Q 6.984375 17.96875 6.984375 36.375
Q 6.984375 53.65625 15.1875 63.9375
Q 23.390625 74.21875 37.203125 74.21875
Q 40.921875 74.21875 44.703125 73.484375
Q 48.484375 72.75 52.59375 71.296875
z
" id="DejaVuSans-54"/>
      </defs>
      <g transform="translate(24.734375 171.933796)scale(0.1 -0.1)">
       <use xlink:href="#DejaVuSans-48"/>
       <use x="63.623047" xlink:href="#DejaVuSans-46"/>
       <use x="95.410156" xlink:href="#DejaVuSans-48"/>
       <use x="159.033203" xlink:href="#DejaVuSans-54"/>
      </g>
     </g>
    </g>
    <g id="ytick_5">
     <g id="line2d_12">
      <g>
       <use style="stroke:#000000;stroke-width:0.8;" x="54" xlink:href="#m52424ffb18" y="140.179436"/>
      </g>
     </g>
     <g id="text_13">
      <!-- 0.08 -->
      <defs>
       <path d="M 31.78125 34.625
Q 24.75 34.625 20.71875 30.859375
Q 16.703125 27.09375 16.703125 20.515625
Q 16.703125 13.921875 20.71875 10.15625
Q 24.75 6.390625 31.78125 6.390625
Q 38.8125 6.390625 42.859375 10.171875
Q 46.921875 13.96875 46.921875 20.515625
Q 46.921875 27.09375 42.890625 30.859375
Q 38.875 34.625 31.78125 34.625
z
M 21.921875 38.8125
Q 15.578125 40.375 12.03125 44.71875
Q 8.5 49.078125 8.5 55.328125
Q 8.5 64.0625 14.71875 69.140625
Q 20.953125 74.21875 31.78125 74.21875
Q 42.671875 74.21875 48.875 69.140625
Q 55.078125 64.0625 55.078125 55.328125
Q 55.078125 49.078125 51.53125 44.71875
Q 48 40.375 41.703125 38.8125
Q 48.828125 37.15625 52.796875 32.3125
Q 56.78125 27.484375 56.78125 20.515625
Q 56.78125 9.90625 50.3125 4.234375
Q 43.84375 -1.421875 31.78125 -1.421875
Q 19.734375 -1.421875 13.25 4.234375
Q 6.78125 9.90625 6.78125 20.515625
Q 6.78125 27.484375 10.78125 32.3125
Q 14.796875 37.15625 21.921875 38.8125
z
M 18.3125 54.390625
Q 18.3125 48.734375 21.84375 45.5625
Q 25.390625 42.390625 31.78125 42.390625
Q 38.140625 42.390625 41.71875 45.5625
Q 45.3125 48.734375 45.3125 54.390625
Q 45.3125 60.0625 41.71875 63.234375
Q 38.140625 66.40625 31.78125 66.40625
Q 25.390625 66.40625 21.84375 63.234375
Q 18.3125 60.0625 18.3125 54.390625
z
" id="DejaVuSans-56"/>
      </defs>
      <g transform="translate(24.734375 143.978655)scale(0.1 -0.1)">
       <use xlink:href="#DejaVuSans-48"/>
       <use x="63.623047" xlink:href="#DejaVuSans-46"/>
       <use x="95.410156" xlink:href="#DejaVuSans-48"/>
       <use x="159.033203" xlink:href="#DejaVuSans-56"/>
      </g>
     </g>
    </g>
    <g id="ytick_6">
     <g id="line2d_13">
      <g>
       <use style="stroke:#000000;stroke-width:0.8;" x="54" xlink:href="#m52424ffb18" y="112.224295"/>
      </g>
     </g>
     <g id="text_14">
      <!-- 0.10 -->
      <g transform="translate(24.734375 116.023514)scale(0.1 -0.1)">
       <use xlink:href="#DejaVuSans-48"/>
       <use x="63.623047" xlink:href="#DejaVuSans-46"/>
       <use x="95.410156" xlink:href="#DejaVuSans-49"/>
       <use x="159.033203" xlink:href="#DejaVuSans-48"/>
      </g>
     </g>
    </g>
    <g id="ytick_7">
     <g id="line2d_14">
      <g>
       <use style="stroke:#000000;stroke-width:0.8;" x="54" xlink:href="#m52424ffb18" y="84.269154"/>
      </g>
     </g>
     <g id="text_15">
      <!-- 0.12 -->
      <g transform="translate(24.734375 88.068373)scale(0.1 -0.1)">
       <use xlink:href="#DejaVuSans-48"/>
       <use x="63.623047" xlink:href="#DejaVuSans-46"/>
       <use x="95.410156" xlink:href="#DejaVuSans-49"/>
       <use x="159.033203" xlink:href="#DejaVuSans-50"/>
      </g>
     </g>
    </g>
    <g id="ytick_8">
     <g id="line2d_15">
      <g>
       <use style="stroke:#000000;stroke-width:0.8;" x="54" xlink:href="#m52424ffb18" y="56.314013"/>
      </g>
     </g>
     <g id="text_16">
      <!-- 0.14 -->
      <g transform="translate(24.734375 60.113232)scale(0.1 -0.1)">
       <use xlink:href="#DejaVuSans-48"/>
       <use x="63.623047" xlink:href="#DejaVuSans-46"/>
       <use x="95.410156" xlink:href="#DejaVuSans-49"/>
       <use x="159.033203" xlink:href="#DejaVuSans-52"/>
      </g>
     </g>
    </g>
   </g>
   <g id="line2d_16">
    <path clip-path="url(#p1a2a5bf5b2)" d="M 75.889028 251.984232
L 80.577104 251.856451
L 82.921141 251.632702
L 85.265179 251.162776
L 87.609217 250.270755
L 89.953255 248.71257
L 92.297292 246.187483
L 94.64133 242.40545
L 96.985368 237.22535
L 99.329406 230.800301
L 106.361519 209.294769
L 108.705556 203.087843
L 111.049594 197.950332
L 113.393632 194.29025
L 115.73767 192.492265
L 118.081707 192.624862
L 120.425745 194.308645
L 122.769783 196.920831
L 127.457858 203.090815
L 132.145934 209.712086
L 134.489971 213.268864
L 136.834009 217.083864
L 143.866122 229.151607
L 146.21016 232.145323
L 148.554198 234.123923
L 150.898235 235.331525
L 155.586311 237.236903
L 162.618424 240.631093
L 164.962462 241.917797
L 167.306499 243.438815
L 171.994575 246.7052
L 174.338612 247.95672
L 176.68265 248.743161
L 179.026688 249.095153
L 181.370726 249.147857
L 186.058801 249.061558
L 188.402839 249.225299
L 190.746876 249.607553
L 197.77899 251.167671
L 200.123027 251.462002
L 204.811103 251.607995
L 225.907442 251.489938
L 232.939555 251.59127
L 244.659744 251.974176
L 256.379932 251.956217
L 270.444159 251.645214
L 279.82031 251.942166
L 284.508385 251.90553
L 300.916649 251.345195
L 307.948762 250.932058
L 312.636838 251.088306
L 317.324913 251.409363
L 324.357026 251.565591
L 343.109328 251.976871
L 350.141441 251.804538
L 357.173554 251.618012
L 364.205667 251.840285
L 371.23778 251.985041
L 373.581818 251.99182
L 373.581818 251.99182
" style="fill:none;stroke:#808080;stroke-linecap:square;stroke-width:1.5;"/>
   </g>
   <g id="line2d_17">
    <path clip-path="url(#p1a2a5bf5b2)" d="M 69.218182 251.670873
L 70.64445 251.044961
L 72.070717 249.49341
L 73.496985 246.103711
L 74.923253 239.56492
L 76.349521 228.450494
L 77.775789 211.867755
L 79.202056 190.291449
L 82.054592 143.266914
L 83.48086 126.178932
L 84.907128 117.984951
L 86.333396 119.479485
L 87.759663 129.036357
L 89.185931 143.542971
L 92.038467 175.190489
L 93.464735 188.78726
L 94.891002 200.350057
L 96.31727 210.129449
L 97.743538 218.327294
L 99.169806 224.948324
L 100.596074 229.918522
L 102.022341 233.268614
L 103.448609 235.218448
L 104.874877 236.125975
L 106.301145 236.360532
L 107.727413 236.187755
L 109.15368 235.731821
L 110.579948 235.027926
L 114.858752 232.224005
L 116.28502 231.659894
L 117.711287 231.635984
L 119.137555 232.302234
L 120.563823 233.70402
L 121.990091 235.742503
L 126.268894 243.099551
L 127.695162 245.1703
L 129.12143 246.859995
L 130.547698 248.119812
L 131.973965 248.892939
L 133.400233 249.144081
L 134.826501 248.913801
L 136.252769 248.338517
L 140.531572 246.211696
L 143.384108 245.063893
L 144.810376 244.633325
L 146.236644 244.440504
L 147.662911 244.589233
L 149.089179 245.081147
L 153.367983 247.254735
L 154.79425 247.782739
L 156.220518 248.155895
L 159.073054 248.600487
L 161.925589 249.07891
L 164.778125 250.005022
L 167.630661 251.069907
L 169.056928 251.46262
L 171.909464 251.873986
L 176.188268 251.994187
L 216.123766 252
L 228.960176 251.916039
L 231.812712 251.678185
L 237.517783 250.903945
L 238.944051 250.901835
L 241.796587 251.235025
L 244.649122 251.672444
L 247.501658 251.90755
L 250.354194 251.887505
L 250.354194 251.887505
" style="fill:none;stroke:#0000ff;stroke-linecap:square;stroke-width:1.5;"/>
   </g>
   <g id="patch_77">
    <path d="M 54 252
L 54 34.56
" style="fill:none;stroke:#000000;stroke-linecap:square;stroke-linejoin:miter;stroke-width:0.8;"/>
   </g>
   <g id="patch_78">
    <path d="M 388.8 252
L 388.8 34.56
" style="fill:none;stroke:#000000;stroke-linecap:square;stroke-linejoin:miter;stroke-width:0.8;"/>
   </g>
   <g id="patch_79">
    <path d="M 54 252
L 388.8 252
" style="fill:none;stroke:#000000;stroke-linecap:square;stroke-linejoin:miter;stroke-width:0.8;"/>
   </g>
   <g id="patch_80">
    <path d="M 54 34.56
L 388.8 34.56
" style="fill:none;stroke:#000000;stroke-linecap:square;stroke-linejoin:miter;stroke-width:0.8;"/>
   </g>
  </g>
 </g>
 <defs>
  <clipPath id="p1a2a5bf5b2">
   <rect height="217.44" width="334.8" x="54" y="34.56"/>
  </clipPath>
 </defs>
</svg>
