<?xml version="1.0" encoding="utf-8" standalone="no"?>
<!DOCTYPE svg PUBLIC "-//W3C//DTD SVG 1.1//EN"
  "http://www.w3.org/Graphics/SVG/1.1/DTD/svg11.dtd">
<!-- Created with matplotlib (https://matplotlib.org/) -->
<svg height="234.352441pt" version="1.1" viewBox="0 0 261.051791 234.352441" width="261.051791pt" xmlns="http://www.w3.org/2000/svg" xmlns:xlink="http://www.w3.org/1999/xlink">
 <defs>
  <style type="text/css">
*{stroke-linecap:butt;stroke-linejoin:round;}
  </style>
 </defs>
 <g id="figure_1">
  <g id="patch_1">
   <path d="M 0 234.352441
L 261.051791 234.352441
L 261.051791 0
L 0 0
z
" style="fill:none;"/>
  </g>
  <g id="axes_1">
   <g id="patch_2">
    <path clip-path="url(#pbfc11b7b68)" d="M 68.573987 162.218887
C 63.055768 150.176554 60.198992 137.084578 60.198992 123.838125
C 60.198992 110.591672 63.055768 97.499696 68.573987 85.457363
C 61.539512 89.100493 55.640167 94.608388 51.523385 101.376574
C 47.406603 108.14476 45.228704 115.916242 45.228704 123.838125
C 45.228704 131.760008 47.406603 139.53149 51.523385 146.299676
C 55.640167 153.067862 61.539512 158.575757 68.573987 162.218887
" style="fill:#ff0000;opacity:0.4;"/>
   </g>
   <g id="patch_3">
    <path clip-path="url(#pbfc11b7b68)" d="M 68.573987 85.457363
C 75.162005 82.045451 82.51886 80.386562 89.933601 80.641006
C 97.348342 80.89545 104.574171 83.054758 110.912801 86.91026
C 117.251431 90.765762 122.491882 96.189129 126.127727 102.656257
C 129.763573 109.123386 131.673796 116.41902 131.673796 123.838125
C 131.673796 131.25723 129.763573 138.552864 126.127727 145.019993
C 122.491882 151.487121 117.251431 156.910488 110.912801 160.76599
C 104.574171 164.621492 97.348342 166.7808 89.933601 167.035244
C 82.51886 167.289688 75.162005 165.630799 68.573987 162.218887
C 72.921228 171.70581 78.848861 180.385555 86.103429 187.886986
C 93.357996 195.388418 101.834604 201.603072 111.170803 206.265218
C 120.507002 210.927365 130.5678 213.969593 140.923009 215.261822
C 151.278219 216.55405 161.778114 216.077595 171.973732 213.852828
C 182.16935 211.628061 191.913273 207.687151 200.788863 202.198605
C 209.664452 196.710059 217.543376 189.753238 224.088741 181.625605
C 230.634106 173.497972 235.751272 164.317045 239.221437 154.47539
C 242.691602 144.633735 244.46459 134.273652 244.46459 123.838125
C 244.46459 113.402598 242.691602 103.042515 239.221437 93.20086
C 235.751272 83.359205 230.634106 74.178278 224.088741 66.050645
C 217.543376 57.923012 209.664452 50.966191 200.788863 45.477645
C 191.913273 39.989099 182.16935 36.048189 171.973732 33.823422
C 161.778114 31.598655 151.278219 31.1222 140.923009 32.414428
C 130.5678 33.706657 120.507002 36.748885 111.170803 41.411032
C 101.834604 46.073178 93.357996 52.287832 86.103429 59.789264
C 78.848861 67.290695 72.921228 75.97044 68.573987 85.457363
" style="fill:#0000ff;opacity:0.3;"/>
   </g>
   <g id="patch_4">
    <path clip-path="url(#pbfc11b7b68)" d="M 68.573987 162.218887
C 75.162005 165.630799 82.51886 167.289688 89.933601 167.035244
C 97.348342 166.7808 104.574171 164.621492 110.912801 160.76599
C 117.251431 156.910488 122.491882 151.487121 126.127727 145.019993
C 129.763573 138.552864 131.673796 131.25723 131.673796 123.838125
C 131.673796 116.41902 129.763573 109.123386 126.127727 102.656257
C 122.491882 96.189129 117.251431 90.765762 110.912801 86.91026
C 104.574171 83.054758 97.348342 80.89545 89.933601 80.641006
C 82.51886 80.386562 75.162005 82.045451 68.573987 85.457363
C 63.055768 97.499696 60.198992 110.591672 60.198992 123.838125
C 60.198992 137.084578 63.055768 150.176554 68.573987 162.218887
" style="fill:#800080;opacity:0.3;"/>
   </g>
   <g id="text_1">
    <!-- 170 -->
    <defs>
     <path d="M 12.40625 8.296875
L 28.515625 8.296875
L 28.515625 63.921875
L 10.984375 60.40625
L 10.984375 69.390625
L 28.421875 72.90625
L 38.28125 72.90625
L 38.28125 8.296875
L 54.390625 8.296875
L 54.390625 0
L 12.40625 0
z
" id="DejaVuSans-49"/>
     <path d="M 8.203125 72.90625
L 55.078125 72.90625
L 55.078125 68.703125
L 28.609375 0
L 18.3125 0
L 43.21875 64.59375
L 8.203125 64.59375
z
" id="DejaVuSans-55"/>
     <path d="M 31.78125 66.40625
Q 24.171875 66.40625 20.328125 58.90625
Q 16.5 51.421875 16.5 36.375
Q 16.5 21.390625 20.328125 13.890625
Q 24.171875 6.390625 31.78125 6.390625
Q 39.453125 6.390625 43.28125 13.890625
Q 47.125 21.390625 47.125 36.375
Q 47.125 51.421875 43.28125 58.90625
Q 39.453125 66.40625 31.78125 66.40625
z
M 31.78125 74.21875
Q 44.046875 74.21875 50.515625 64.515625
Q 56.984375 54.828125 56.984375 36.375
Q 56.984375 17.96875 50.515625 8.265625
Q 44.046875 -1.421875 31.78125 -1.421875
Q 19.53125 -1.421875 13.0625 8.265625
Q 6.59375 17.96875 6.59375 36.375
Q 6.59375 54.828125 13.0625 64.515625
Q 19.53125 74.21875 31.78125 74.21875
z
" id="DejaVuSans-48"/>
    </defs>
    <g transform="translate(43.170098 126.5975)scale(0.1 -0.1)">
     <use xlink:href="#DejaVuSans-49"/>
     <use x="63.623047" xlink:href="#DejaVuSans-55"/>
     <use x="127.246094" xlink:href="#DejaVuSans-48"/>
    </g>
   </g>
   <g id="text_2">
    <!-- 4348 -->
    <defs>
     <path d="M 37.796875 64.3125
L 12.890625 25.390625
L 37.796875 25.390625
z
M 35.203125 72.90625
L 47.609375 72.90625
L 47.609375 25.390625
L 58.015625 25.390625
L 58.015625 17.1875
L 47.609375 17.1875
L 47.609375 0
L 37.796875 0
L 37.796875 17.1875
L 4.890625 17.1875
L 4.890625 26.703125
z
" id="DejaVuSans-52"/>
     <path d="M 40.578125 39.3125
Q 47.65625 37.796875 51.625 33
Q 55.609375 28.21875 55.609375 21.1875
Q 55.609375 10.40625 48.1875 4.484375
Q 40.765625 -1.421875 27.09375 -1.421875
Q 22.515625 -1.421875 17.65625 -0.515625
Q 12.796875 0.390625 7.625 2.203125
L 7.625 11.71875
Q 11.71875 9.328125 16.59375 8.109375
Q 21.484375 6.890625 26.8125 6.890625
Q 36.078125 6.890625 40.9375 10.546875
Q 45.796875 14.203125 45.796875 21.1875
Q 45.796875 27.640625 41.28125 31.265625
Q 36.765625 34.90625 28.71875 34.90625
L 20.21875 34.90625
L 20.21875 43.015625
L 29.109375 43.015625
Q 36.375 43.015625 40.234375 45.921875
Q 44.09375 48.828125 44.09375 54.296875
Q 44.09375 59.90625 40.109375 62.90625
Q 36.140625 65.921875 28.71875 65.921875
Q 24.65625 65.921875 20.015625 65.03125
Q 15.375 64.15625 9.8125 62.3125
L 9.8125 71.09375
Q 15.4375 72.65625 20.34375 73.4375
Q 25.25 74.21875 29.59375 74.21875
Q 40.828125 74.21875 47.359375 69.109375
Q 53.90625 64.015625 53.90625 55.328125
Q 53.90625 49.265625 50.4375 45.09375
Q 46.96875 40.921875 40.578125 39.3125
z
" id="DejaVuSans-51"/>
     <path d="M 31.78125 34.625
Q 24.75 34.625 20.71875 30.859375
Q 16.703125 27.09375 16.703125 20.515625
Q 16.703125 13.921875 20.71875 10.15625
Q 24.75 6.390625 31.78125 6.390625
Q 38.8125 6.390625 42.859375 10.171875
Q 46.921875 13.96875 46.921875 20.515625
Q 46.921875 27.09375 42.890625 30.859375
Q 38.875 34.625 31.78125 34.625
z
M 21.921875 38.8125
Q 15.578125 40.375 12.03125 44.71875
Q 8.5 49.078125 8.5 55.328125
Q 8.5 64.0625 14.71875 69.140625
Q 20.953125 74.21875 31.78125 74.21875
Q 42.671875 74.21875 48.875 69.140625
Q 55.078125 64.0625 55.078125 55.328125
Q 55.078125 49.078125 51.53125 44.71875
Q 48 40.375 41.703125 38.8125
Q 48.828125 37.15625 52.796875 32.3125
Q 56.78125 27.484375 56.78125 20.515625
Q 56.78125 9.90625 50.3125 4.234375
Q 43.84375 -1.421875 31.78125 -1.421875
Q 19.734375 -1.421875 13.25 4.234375
Q 6.78125 9.90625 6.78125 20.515625
Q 6.78125 27.484375 10.78125 32.3125
Q 14.796875 37.15625 21.921875 38.8125
z
M 18.3125 54.390625
Q 18.3125 48.734375 21.84375 45.5625
Q 25.390625 42.390625 31.78125 42.390625
Q 38.140625 42.390625 41.71875 45.5625
Q 45.3125 48.734375 45.3125 54.390625
Q 45.3125 60.0625 41.71875 63.234375
Q 38.140625 66.40625 31.78125 66.40625
Q 25.390625 66.40625 21.84375 63.234375
Q 18.3125 60.0625 18.3125 54.390625
z
" id="DejaVuSans-56"/>
    </defs>
    <g transform="translate(175.344193 126.5975)scale(0.1 -0.1)">
     <use xlink:href="#DejaVuSans-52"/>
     <use x="63.623047" xlink:href="#DejaVuSans-51"/>
     <use x="127.246094" xlink:href="#DejaVuSans-52"/>
     <use x="190.869141" xlink:href="#DejaVuSans-56"/>
    </g>
   </g>
   <g id="text_3">
    <!-- 1009 -->
    <defs>
     <path d="M 10.984375 1.515625
L 10.984375 10.5
Q 14.703125 8.734375 18.5 7.8125
Q 22.3125 6.890625 25.984375 6.890625
Q 35.75 6.890625 40.890625 13.453125
Q 46.046875 20.015625 46.78125 33.40625
Q 43.953125 29.203125 39.59375 26.953125
Q 35.25 24.703125 29.984375 24.703125
Q 19.046875 24.703125 12.671875 31.3125
Q 6.296875 37.9375 6.296875 49.421875
Q 6.296875 60.640625 12.9375 67.421875
Q 19.578125 74.21875 30.609375 74.21875
Q 43.265625 74.21875 49.921875 64.515625
Q 56.59375 54.828125 56.59375 36.375
Q 56.59375 19.140625 48.40625 8.859375
Q 40.234375 -1.421875 26.421875 -1.421875
Q 22.703125 -1.421875 18.890625 -0.6875
Q 15.09375 0.046875 10.984375 1.515625
z
M 30.609375 32.421875
Q 37.25 32.421875 41.125 36.953125
Q 45.015625 41.5 45.015625 49.421875
Q 45.015625 57.28125 41.125 61.84375
Q 37.25 66.40625 30.609375 66.40625
Q 23.96875 66.40625 20.09375 61.84375
Q 16.21875 57.28125 16.21875 49.421875
Q 16.21875 41.5 20.09375 36.953125
Q 23.96875 32.421875 30.609375 32.421875
z
" id="DejaVuSans-57"/>
    </defs>
    <g transform="translate(83.211394 126.5975)scale(0.1 -0.1)">
     <use xlink:href="#DejaVuSans-49"/>
     <use x="63.623047" xlink:href="#DejaVuSans-48"/>
     <use x="127.246094" xlink:href="#DejaVuSans-48"/>
     <use x="190.869141" xlink:href="#DejaVuSans-57"/>
    </g>
   </g>
   <g id="text_4">
    <!-- common DEGs -->
    <defs>
     <path d="M 48.78125 52.59375
L 48.78125 44.1875
Q 44.96875 46.296875 41.140625 47.34375
Q 37.3125 48.390625 33.40625 48.390625
Q 24.65625 48.390625 19.8125 42.84375
Q 14.984375 37.3125 14.984375 27.296875
Q 14.984375 17.28125 19.8125 11.734375
Q 24.65625 6.203125 33.40625 6.203125
Q 37.3125 6.203125 41.140625 7.25
Q 44.96875 8.296875 48.78125 10.40625
L 48.78125 2.09375
Q 45.015625 0.34375 40.984375 -0.53125
Q 36.96875 -1.421875 32.421875 -1.421875
Q 20.0625 -1.421875 12.78125 6.34375
Q 5.515625 14.109375 5.515625 27.296875
Q 5.515625 40.671875 12.859375 48.328125
Q 20.21875 56 33.015625 56
Q 37.15625 56 41.109375 55.140625
Q 45.0625 54.296875 48.78125 52.59375
z
" id="DejaVuSans-99"/>
     <path d="M 30.609375 48.390625
Q 23.390625 48.390625 19.1875 42.75
Q 14.984375 37.109375 14.984375 27.296875
Q 14.984375 17.484375 19.15625 11.84375
Q 23.34375 6.203125 30.609375 6.203125
Q 37.796875 6.203125 41.984375 11.859375
Q 46.1875 17.53125 46.1875 27.296875
Q 46.1875 37.015625 41.984375 42.703125
Q 37.796875 48.390625 30.609375 48.390625
z
M 30.609375 56
Q 42.328125 56 49.015625 48.375
Q 55.71875 40.765625 55.71875 27.296875
Q 55.71875 13.875 49.015625 6.21875
Q 42.328125 -1.421875 30.609375 -1.421875
Q 18.84375 -1.421875 12.171875 6.21875
Q 5.515625 13.875 5.515625 27.296875
Q 5.515625 40.765625 12.171875 48.375
Q 18.84375 56 30.609375 56
z
" id="DejaVuSans-111"/>
     <path d="M 52 44.1875
Q 55.375 50.25 60.0625 53.125
Q 64.75 56 71.09375 56
Q 79.640625 56 84.28125 50.015625
Q 88.921875 44.046875 88.921875 33.015625
L 88.921875 0
L 79.890625 0
L 79.890625 32.71875
Q 79.890625 40.578125 77.09375 44.375
Q 74.3125 48.1875 68.609375 48.1875
Q 61.625 48.1875 57.5625 43.546875
Q 53.515625 38.921875 53.515625 30.90625
L 53.515625 0
L 44.484375 0
L 44.484375 32.71875
Q 44.484375 40.625 41.703125 44.40625
Q 38.921875 48.1875 33.109375 48.1875
Q 26.21875 48.1875 22.15625 43.53125
Q 18.109375 38.875 18.109375 30.90625
L 18.109375 0
L 9.078125 0
L 9.078125 54.6875
L 18.109375 54.6875
L 18.109375 46.1875
Q 21.1875 51.21875 25.484375 53.609375
Q 29.78125 56 35.6875 56
Q 41.65625 56 45.828125 52.96875
Q 50 49.953125 52 44.1875
z
" id="DejaVuSans-109"/>
     <path d="M 54.890625 33.015625
L 54.890625 0
L 45.90625 0
L 45.90625 32.71875
Q 45.90625 40.484375 42.875 44.328125
Q 39.84375 48.1875 33.796875 48.1875
Q 26.515625 48.1875 22.3125 43.546875
Q 18.109375 38.921875 18.109375 30.90625
L 18.109375 0
L 9.078125 0
L 9.078125 54.6875
L 18.109375 54.6875
L 18.109375 46.1875
Q 21.34375 51.125 25.703125 53.5625
Q 30.078125 56 35.796875 56
Q 45.21875 56 50.046875 50.171875
Q 54.890625 44.34375 54.890625 33.015625
z
" id="DejaVuSans-110"/>
     <path id="DejaVuSans-32"/>
     <path d="M 19.671875 64.796875
L 19.671875 8.109375
L 31.59375 8.109375
Q 46.6875 8.109375 53.6875 14.9375
Q 60.6875 21.78125 60.6875 36.53125
Q 60.6875 51.171875 53.6875 57.984375
Q 46.6875 64.796875 31.59375 64.796875
z
M 9.8125 72.90625
L 30.078125 72.90625
Q 51.265625 72.90625 61.171875 64.09375
Q 71.09375 55.28125 71.09375 36.53125
Q 71.09375 17.671875 61.125 8.828125
Q 51.171875 0 30.078125 0
L 9.8125 0
z
" id="DejaVuSans-68"/>
     <path d="M 9.8125 72.90625
L 55.90625 72.90625
L 55.90625 64.59375
L 19.671875 64.59375
L 19.671875 43.015625
L 54.390625 43.015625
L 54.390625 34.71875
L 19.671875 34.71875
L 19.671875 8.296875
L 56.78125 8.296875
L 56.78125 0
L 9.8125 0
z
" id="DejaVuSans-69"/>
     <path d="M 59.515625 10.40625
L 59.515625 29.984375
L 43.40625 29.984375
L 43.40625 38.09375
L 69.28125 38.09375
L 69.28125 6.78125
Q 63.578125 2.734375 56.6875 0.65625
Q 49.8125 -1.421875 42 -1.421875
Q 24.90625 -1.421875 15.25 8.5625
Q 5.609375 18.5625 5.609375 36.375
Q 5.609375 54.25 15.25 64.234375
Q 24.90625 74.21875 42 74.21875
Q 49.125 74.21875 55.546875 72.453125
Q 61.96875 70.703125 67.390625 67.28125
L 67.390625 56.78125
Q 61.921875 61.421875 55.765625 63.765625
Q 49.609375 66.109375 42.828125 66.109375
Q 29.4375 66.109375 22.71875 58.640625
Q 16.015625 51.171875 16.015625 36.375
Q 16.015625 21.625 22.71875 14.15625
Q 29.4375 6.6875 42.828125 6.6875
Q 48.046875 6.6875 52.140625 7.59375
Q 56.25 8.5 59.515625 10.40625
z
" id="DejaVuSans-71"/>
     <path d="M 44.28125 53.078125
L 44.28125 44.578125
Q 40.484375 46.53125 36.375 47.5
Q 32.28125 48.484375 27.875 48.484375
Q 21.1875 48.484375 17.84375 46.4375
Q 14.5 44.390625 14.5 40.28125
Q 14.5 37.15625 16.890625 35.375
Q 19.28125 33.59375 26.515625 31.984375
L 29.59375 31.296875
Q 39.15625 29.25 43.1875 25.515625
Q 47.21875 21.78125 47.21875 15.09375
Q 47.21875 7.46875 41.1875 3.015625
Q 35.15625 -1.421875 24.609375 -1.421875
Q 20.21875 -1.421875 15.453125 -0.5625
Q 10.6875 0.296875 5.421875 2
L 5.421875 11.28125
Q 10.40625 8.6875 15.234375 7.390625
Q 20.0625 6.109375 24.8125 6.109375
Q 31.15625 6.109375 34.5625 8.28125
Q 37.984375 10.453125 37.984375 14.40625
Q 37.984375 18.0625 35.515625 20.015625
Q 33.0625 21.96875 24.703125 23.78125
L 21.578125 24.515625
Q 13.234375 26.265625 9.515625 29.90625
Q 5.8125 33.546875 5.8125 39.890625
Q 5.8125 47.609375 11.28125 51.796875
Q 16.75 56 26.8125 56
Q 31.78125 56 36.171875 55.265625
Q 40.578125 54.546875 44.28125 53.078125
z
" id="DejaVuSans-115"/>
    </defs>
    <g transform="translate(-0 182.946563)scale(0.12 -0.12)">
     <use xlink:href="#DejaVuSans-99"/>
     <use x="54.980469" xlink:href="#DejaVuSans-111"/>
     <use x="116.162109" xlink:href="#DejaVuSans-109"/>
     <use x="213.574219" xlink:href="#DejaVuSans-109"/>
     <use x="310.986328" xlink:href="#DejaVuSans-111"/>
     <use x="372.167969" xlink:href="#DejaVuSans-110"/>
     <use x="435.546875" xlink:href="#DejaVuSans-32"/>
     <use x="467.333984" xlink:href="#DejaVuSans-68"/>
     <use x="544.335938" xlink:href="#DejaVuSans-69"/>
     <use x="607.519531" xlink:href="#DejaVuSans-71"/>
     <use x="685.009766" xlink:href="#DejaVuSans-115"/>
    </g>
   </g>
   <g id="text_5">
    <!-- Core genes -->
    <defs>
     <path d="M 64.40625 67.28125
L 64.40625 56.890625
Q 59.421875 61.53125 53.78125 63.8125
Q 48.140625 66.109375 41.796875 66.109375
Q 29.296875 66.109375 22.65625 58.46875
Q 16.015625 50.828125 16.015625 36.375
Q 16.015625 21.96875 22.65625 14.328125
Q 29.296875 6.6875 41.796875 6.6875
Q 48.140625 6.6875 53.78125 8.984375
Q 59.421875 11.28125 64.40625 15.921875
L 64.40625 5.609375
Q 59.234375 2.09375 53.4375 0.328125
Q 47.65625 -1.421875 41.21875 -1.421875
Q 24.65625 -1.421875 15.125 8.703125
Q 5.609375 18.84375 5.609375 36.375
Q 5.609375 53.953125 15.125 64.078125
Q 24.65625 74.21875 41.21875 74.21875
Q 47.75 74.21875 53.53125 72.484375
Q 59.328125 70.75 64.40625 67.28125
z
" id="DejaVuSans-67"/>
     <path d="M 41.109375 46.296875
Q 39.59375 47.171875 37.8125 47.578125
Q 36.03125 48 33.890625 48
Q 26.265625 48 22.1875 43.046875
Q 18.109375 38.09375 18.109375 28.8125
L 18.109375 0
L 9.078125 0
L 9.078125 54.6875
L 18.109375 54.6875
L 18.109375 46.1875
Q 20.953125 51.171875 25.484375 53.578125
Q 30.03125 56 36.53125 56
Q 37.453125 56 38.578125 55.875
Q 39.703125 55.765625 41.0625 55.515625
z
" id="DejaVuSans-114"/>
     <path d="M 56.203125 29.59375
L 56.203125 25.203125
L 14.890625 25.203125
Q 15.484375 15.921875 20.484375 11.0625
Q 25.484375 6.203125 34.421875 6.203125
Q 39.59375 6.203125 44.453125 7.46875
Q 49.3125 8.734375 54.109375 11.28125
L 54.109375 2.78125
Q 49.265625 0.734375 44.1875 -0.34375
Q 39.109375 -1.421875 33.890625 -1.421875
Q 20.796875 -1.421875 13.15625 6.1875
Q 5.515625 13.8125 5.515625 26.8125
Q 5.515625 40.234375 12.765625 48.109375
Q 20.015625 56 32.328125 56
Q 43.359375 56 49.78125 48.890625
Q 56.203125 41.796875 56.203125 29.59375
z
M 47.21875 32.234375
Q 47.125 39.59375 43.09375 43.984375
Q 39.0625 48.390625 32.421875 48.390625
Q 24.90625 48.390625 20.390625 44.140625
Q 15.875 39.890625 15.1875 32.171875
z
" id="DejaVuSans-101"/>
     <path d="M 45.40625 27.984375
Q 45.40625 37.75 41.375 43.109375
Q 37.359375 48.484375 30.078125 48.484375
Q 22.859375 48.484375 18.828125 43.109375
Q 14.796875 37.75 14.796875 27.984375
Q 14.796875 18.265625 18.828125 12.890625
Q 22.859375 7.515625 30.078125 7.515625
Q 37.359375 7.515625 41.375 12.890625
Q 45.40625 18.265625 45.40625 27.984375
z
M 54.390625 6.78125
Q 54.390625 -7.171875 48.1875 -13.984375
Q 42 -20.796875 29.203125 -20.796875
Q 24.46875 -20.796875 20.265625 -20.09375
Q 16.0625 -19.390625 12.109375 -17.921875
L 12.109375 -9.1875
Q 16.0625 -11.328125 19.921875 -12.34375
Q 23.78125 -13.375 27.78125 -13.375
Q 36.625 -13.375 41.015625 -8.765625
Q 45.40625 -4.15625 45.40625 5.171875
L 45.40625 9.625
Q 42.625 4.78125 38.28125 2.390625
Q 33.9375 0 27.875 0
Q 17.828125 0 11.671875 7.65625
Q 5.515625 15.328125 5.515625 27.984375
Q 5.515625 40.671875 11.671875 48.328125
Q 17.828125 56 27.875 56
Q 33.9375 56 38.28125 53.609375
Q 42.625 51.21875 45.40625 46.390625
L 45.40625 54.6875
L 54.390625 54.6875
z
" id="DejaVuSans-103"/>
    </defs>
    <g transform="translate(152.331791 231.856816)scale(0.12 -0.12)">
     <use xlink:href="#DejaVuSans-67"/>
     <use x="69.824219" xlink:href="#DejaVuSans-111"/>
     <use x="131.005859" xlink:href="#DejaVuSans-114"/>
     <use x="172.087891" xlink:href="#DejaVuSans-101"/>
     <use x="233.611328" xlink:href="#DejaVuSans-32"/>
     <use x="265.398438" xlink:href="#DejaVuSans-103"/>
     <use x="328.875" xlink:href="#DejaVuSans-101"/>
     <use x="390.398438" xlink:href="#DejaVuSans-110"/>
     <use x="453.777344" xlink:href="#DejaVuSans-101"/>
     <use x="515.300781" xlink:href="#DejaVuSans-115"/>
    </g>
   </g>
   <g id="text_6">
    <!-- PA14 common DEGs vs core genes -->
    <defs>
     <path d="M 19.671875 64.796875
L 19.671875 37.40625
L 32.078125 37.40625
Q 38.96875 37.40625 42.71875 40.96875
Q 46.484375 44.53125 46.484375 51.125
Q 46.484375 57.671875 42.71875 61.234375
Q 38.96875 64.796875 32.078125 64.796875
z
M 9.8125 72.90625
L 32.078125 72.90625
Q 44.34375 72.90625 50.609375 67.359375
Q 56.890625 61.8125 56.890625 51.125
Q 56.890625 40.328125 50.609375 34.8125
Q 44.34375 29.296875 32.078125 29.296875
L 19.671875 29.296875
L 19.671875 0
L 9.8125 0
z
" id="DejaVuSans-80"/>
     <path d="M 34.1875 63.1875
L 20.796875 26.90625
L 47.609375 26.90625
z
M 28.609375 72.90625
L 39.796875 72.90625
L 67.578125 0
L 57.328125 0
L 50.6875 18.703125
L 17.828125 18.703125
L 11.1875 0
L 0.78125 0
z
" id="DejaVuSans-65"/>
     <path d="M 2.984375 54.6875
L 12.5 54.6875
L 29.59375 8.796875
L 46.6875 54.6875
L 56.203125 54.6875
L 35.6875 0
L 23.484375 0
z
" id="DejaVuSans-118"/>
    </defs>
    <g transform="translate(39.717272 9.118125)scale(0.12 -0.12)">
     <use xlink:href="#DejaVuSans-80"/>
     <use x="60.208984" xlink:href="#DejaVuSans-65"/>
     <use x="128.617188" xlink:href="#DejaVuSans-49"/>
     <use x="192.240234" xlink:href="#DejaVuSans-52"/>
     <use x="255.863281" xlink:href="#DejaVuSans-32"/>
     <use x="287.650391" xlink:href="#DejaVuSans-99"/>
     <use x="342.630859" xlink:href="#DejaVuSans-111"/>
     <use x="403.8125" xlink:href="#DejaVuSans-109"/>
     <use x="501.224609" xlink:href="#DejaVuSans-109"/>
     <use x="598.636719" xlink:href="#DejaVuSans-111"/>
     <use x="659.818359" xlink:href="#DejaVuSans-110"/>
     <use x="723.197266" xlink:href="#DejaVuSans-32"/>
     <use x="754.984375" xlink:href="#DejaVuSans-68"/>
     <use x="831.986328" xlink:href="#DejaVuSans-69"/>
     <use x="895.169922" xlink:href="#DejaVuSans-71"/>
     <use x="972.660156" xlink:href="#DejaVuSans-115"/>
     <use x="1024.759766" xlink:href="#DejaVuSans-32"/>
     <use x="1056.546875" xlink:href="#DejaVuSans-118"/>
     <use x="1115.726562" xlink:href="#DejaVuSans-115"/>
     <use x="1167.826172" xlink:href="#DejaVuSans-32"/>
     <use x="1199.613281" xlink:href="#DejaVuSans-99"/>
     <use x="1254.59375" xlink:href="#DejaVuSans-111"/>
     <use x="1315.775391" xlink:href="#DejaVuSans-114"/>
     <use x="1356.857422" xlink:href="#DejaVuSans-101"/>
     <use x="1418.380859" xlink:href="#DejaVuSans-32"/>
     <use x="1450.167969" xlink:href="#DejaVuSans-103"/>
     <use x="1513.644531" xlink:href="#DejaVuSans-101"/>
     <use x="1575.167969" xlink:href="#DejaVuSans-110"/>
     <use x="1638.546875" xlink:href="#DejaVuSans-101"/>
     <use x="1700.070312" xlink:href="#DejaVuSans-115"/>
    </g>
   </g>
  </g>
 </g>
 <defs>
  <clipPath id="pbfc11b7b68">
   <rect height="217.44" width="232.410288" x="28.641503" y="15.118125"/>
  </clipPath>
 </defs>
</svg>
