<?xml version="1.0" encoding="utf-8" standalone="no"?>
<!DOCTYPE svg PUBLIC "-//W3C//DTD SVG 1.1//EN"
  "http://www.w3.org/Graphics/SVG/1.1/DTD/svg11.dtd">
<!-- Created with matplotlib (https://matplotlib.org/) -->
<svg height="233.075607pt" version="1.1" viewBox="0 0 324.470219 233.075607" width="324.470219pt" xmlns="http://www.w3.org/2000/svg" xmlns:xlink="http://www.w3.org/1999/xlink">
 <defs>
  <style type="text/css">
*{stroke-linecap:butt;stroke-linejoin:round;}
  </style>
 </defs>
 <g id="figure_1">
  <g id="patch_1">
   <path d="M 0 233.075607
L 324.470219 233.075607
L 324.470219 0
L 0 0
z
" style="fill:none;"/>
  </g>
  <g id="axes_1">
   <g id="patch_2">
    <path clip-path="url(#p98f7ce4aae)" d="M 185.643398 170.74545
C 178.668067 165.079258 173.043653 157.927872 169.180976 149.813643
C 165.318299 141.699415 163.313753 132.824836 163.313753 123.838125
C 163.313753 114.851414 165.318299 105.976835 169.180976 97.862607
C 173.043653 89.748378 178.668067 82.596992 185.643398 76.9308
C 180.562412 68.598482 174.161184 61.146804 166.690305 54.867479
C 159.219427 48.588154 150.777675 43.564205 141.695523 39.992307
C 132.61337 36.420409 123.010898 34.347788 113.264018 33.855581
C 103.517137 33.363374 93.754718 34.45809 84.358933 37.096873
C 74.963148 39.735656 66.058226 43.883617 57.992769 49.378375
C 49.927313 54.873132 42.807961 61.642037 36.913418 69.420103
C 31.018875 77.198169 26.427077 85.882558 23.317779 95.133299
C 20.208482 104.384041 18.622795 114.078824 18.622795 123.838125
C 18.622795 133.597426 20.208482 143.292209 23.317779 152.542951
C 26.427077 161.793692 31.018875 170.478081 36.913418 178.256147
C 42.807961 186.034213 49.927313 192.803118 57.992769 198.297875
C 66.058226 203.792633 74.963148 207.940594 84.358933 210.579377
C 93.754718 213.21816 103.517137 214.312876 113.264018 213.820669
C 123.010898 213.328462 132.61337 211.255841 141.695523 207.683943
C 150.777675 204.112045 159.219427 199.088096 166.690305 192.808771
C 174.161184 186.529446 180.562412 179.077768 185.643398 170.74545
" style="fill:#ff0000;opacity:0.4;"/>
   </g>
   <g id="patch_3">
    <path clip-path="url(#p98f7ce4aae)" d="M 185.643398 76.9308
C 194.258497 91.058715 198.817205 107.290681 198.817205 123.838125
C 198.817205 140.385569 194.258497 156.617535 185.643398 170.74545
C 194.508051 177.946372 205.234985 182.489007 216.575103 183.844386
C 227.915222 185.199765 239.410584 183.313155 249.722612 178.404243
C 260.034641 173.495331 268.746911 165.76235 274.844922 156.105767
C 280.942934 146.449184 284.180435 135.258954 284.180435 123.838125
C 284.180435 112.417296 280.942934 101.227066 274.844922 91.570483
C 268.746911 81.9139 260.034641 74.180919 249.722612 69.272007
C 239.410584 64.363095 227.915222 62.476485 216.575103 63.831864
C 205.234985 65.187243 194.508051 69.729878 185.643398 76.9308
" style="fill:#0000ff;opacity:0.3;"/>
   </g>
   <g id="patch_4">
    <path clip-path="url(#p98f7ce4aae)" d="M 185.643398 170.74545
C 194.258497 156.617535 198.817205 140.385569 198.817205 123.838125
C 198.817205 107.290681 194.258497 91.058715 185.643398 76.9308
C 178.668067 82.596992 173.043653 89.748378 169.180976 97.862607
C 165.318299 105.976835 163.313753 114.851414 163.313753 123.838125
C 163.313753 132.824836 165.318299 141.699415 169.180976 149.813643
C 173.043653 157.927872 178.668067 165.079258 185.643398 170.74545
" style="fill:#800080;opacity:0.3;"/>
   </g>
   <g id="text_1">
    <!-- 1072 -->
    <defs>
     <path d="M 12.40625 8.296875
L 28.515625 8.296875
L 28.515625 63.921875
L 10.984375 60.40625
L 10.984375 69.390625
L 28.421875 72.90625
L 38.28125 72.90625
L 38.28125 8.296875
L 54.390625 8.296875
L 54.390625 0
L 12.40625 0
z
" id="DejaVuSans-49"/>
     <path d="M 31.78125 66.40625
Q 24.171875 66.40625 20.328125 58.90625
Q 16.5 51.421875 16.5 36.375
Q 16.5 21.390625 20.328125 13.890625
Q 24.171875 6.390625 31.78125 6.390625
Q 39.453125 6.390625 43.28125 13.890625
Q 47.125 21.390625 47.125 36.375
Q 47.125 51.421875 43.28125 58.90625
Q 39.453125 66.40625 31.78125 66.40625
z
M 31.78125 74.21875
Q 44.046875 74.21875 50.515625 64.515625
Q 56.984375 54.828125 56.984375 36.375
Q 56.984375 17.96875 50.515625 8.265625
Q 44.046875 -1.421875 31.78125 -1.421875
Q 19.53125 -1.421875 13.0625 8.265625
Q 6.59375 17.96875 6.59375 36.375
Q 6.59375 54.828125 13.0625 64.515625
Q 19.53125 74.21875 31.78125 74.21875
z
" id="DejaVuSans-48"/>
     <path d="M 8.203125 72.90625
L 55.078125 72.90625
L 55.078125 68.703125
L 28.609375 0
L 18.3125 0
L 43.21875 64.59375
L 8.203125 64.59375
z
" id="DejaVuSans-55"/>
     <path d="M 19.1875 8.296875
L 53.609375 8.296875
L 53.609375 0
L 7.328125 0
L 7.328125 8.296875
Q 12.9375 14.109375 22.625 23.890625
Q 32.328125 33.6875 34.8125 36.53125
Q 39.546875 41.84375 41.421875 45.53125
Q 43.3125 49.21875 43.3125 52.78125
Q 43.3125 58.59375 39.234375 62.25
Q 35.15625 65.921875 28.609375 65.921875
Q 23.96875 65.921875 18.8125 64.3125
Q 13.671875 62.703125 7.8125 59.421875
L 7.8125 69.390625
Q 13.765625 71.78125 18.9375 73
Q 24.125 74.21875 28.421875 74.21875
Q 39.75 74.21875 46.484375 68.546875
Q 53.21875 62.890625 53.21875 53.421875
Q 53.21875 48.921875 51.53125 44.890625
Q 49.859375 40.875 45.40625 35.40625
Q 44.1875 33.984375 37.640625 27.21875
Q 31.109375 20.453125 19.1875 8.296875
z
" id="DejaVuSans-50"/>
    </defs>
    <g transform="translate(78.243274 126.5975)scale(0.1 -0.1)">
     <use xlink:href="#DejaVuSans-49"/>
     <use x="63.623047" xlink:href="#DejaVuSans-48"/>
     <use x="127.246094" xlink:href="#DejaVuSans-55"/>
     <use x="190.869141" xlink:href="#DejaVuSans-50"/>
    </g>
   </g>
   <g id="text_2">
    <!-- 424 -->
    <defs>
     <path d="M 37.796875 64.3125
L 12.890625 25.390625
L 37.796875 25.390625
z
M 35.203125 72.90625
L 47.609375 72.90625
L 47.609375 25.390625
L 58.015625 25.390625
L 58.015625 17.1875
L 47.609375 17.1875
L 47.609375 0
L 37.796875 0
L 37.796875 17.1875
L 4.890625 17.1875
L 4.890625 26.703125
z
" id="DejaVuSans-52"/>
    </defs>
    <g transform="translate(231.95507 126.5975)scale(0.1 -0.1)">
     <use xlink:href="#DejaVuSans-52"/>
     <use x="63.623047" xlink:href="#DejaVuSans-50"/>
     <use x="127.246094" xlink:href="#DejaVuSans-52"/>
    </g>
   </g>
   <g id="text_3">
    <!-- 106 -->
    <defs>
     <path d="M 33.015625 40.375
Q 26.375 40.375 22.484375 35.828125
Q 18.609375 31.296875 18.609375 23.390625
Q 18.609375 15.53125 22.484375 10.953125
Q 26.375 6.390625 33.015625 6.390625
Q 39.65625 6.390625 43.53125 10.953125
Q 47.40625 15.53125 47.40625 23.390625
Q 47.40625 31.296875 43.53125 35.828125
Q 39.65625 40.375 33.015625 40.375
z
M 52.59375 71.296875
L 52.59375 62.3125
Q 48.875 64.0625 45.09375 64.984375
Q 41.3125 65.921875 37.59375 65.921875
Q 27.828125 65.921875 22.671875 59.328125
Q 17.53125 52.734375 16.796875 39.40625
Q 19.671875 43.65625 24.015625 45.921875
Q 28.375 48.1875 33.59375 48.1875
Q 44.578125 48.1875 50.953125 41.515625
Q 57.328125 34.859375 57.328125 23.390625
Q 57.328125 12.15625 50.6875 5.359375
Q 44.046875 -1.421875 33.015625 -1.421875
Q 20.359375 -1.421875 13.671875 8.265625
Q 6.984375 17.96875 6.984375 36.375
Q 6.984375 53.65625 15.1875 63.9375
Q 23.390625 74.21875 37.203125 74.21875
Q 40.921875 74.21875 44.703125 73.484375
Q 48.484375 72.75 52.59375 71.296875
z
" id="DejaVuSans-54"/>
    </defs>
    <g transform="translate(171.521729 126.5975)scale(0.1 -0.1)">
     <use xlink:href="#DejaVuSans-49"/>
     <use x="63.623047" xlink:href="#DejaVuSans-48"/>
     <use x="127.246094" xlink:href="#DejaVuSans-54"/>
    </g>
   </g>
   <g id="text_4">
    <!-- common DEGs -->
    <defs>
     <path d="M 48.78125 52.59375
L 48.78125 44.1875
Q 44.96875 46.296875 41.140625 47.34375
Q 37.3125 48.390625 33.40625 48.390625
Q 24.65625 48.390625 19.8125 42.84375
Q 14.984375 37.3125 14.984375 27.296875
Q 14.984375 17.28125 19.8125 11.734375
Q 24.65625 6.203125 33.40625 6.203125
Q 37.3125 6.203125 41.140625 7.25
Q 44.96875 8.296875 48.78125 10.40625
L 48.78125 2.09375
Q 45.015625 0.34375 40.984375 -0.53125
Q 36.96875 -1.421875 32.421875 -1.421875
Q 20.0625 -1.421875 12.78125 6.34375
Q 5.515625 14.109375 5.515625 27.296875
Q 5.515625 40.671875 12.859375 48.328125
Q 20.21875 56 33.015625 56
Q 37.15625 56 41.109375 55.140625
Q 45.0625 54.296875 48.78125 52.59375
z
" id="DejaVuSans-99"/>
     <path d="M 30.609375 48.390625
Q 23.390625 48.390625 19.1875 42.75
Q 14.984375 37.109375 14.984375 27.296875
Q 14.984375 17.484375 19.15625 11.84375
Q 23.34375 6.203125 30.609375 6.203125
Q 37.796875 6.203125 41.984375 11.859375
Q 46.1875 17.53125 46.1875 27.296875
Q 46.1875 37.015625 41.984375 42.703125
Q 37.796875 48.390625 30.609375 48.390625
z
M 30.609375 56
Q 42.328125 56 49.015625 48.375
Q 55.71875 40.765625 55.71875 27.296875
Q 55.71875 13.875 49.015625 6.21875
Q 42.328125 -1.421875 30.609375 -1.421875
Q 18.84375 -1.421875 12.171875 6.21875
Q 5.515625 13.875 5.515625 27.296875
Q 5.515625 40.765625 12.171875 48.375
Q 18.84375 56 30.609375 56
z
" id="DejaVuSans-111"/>
     <path d="M 52 44.1875
Q 55.375 50.25 60.0625 53.125
Q 64.75 56 71.09375 56
Q 79.640625 56 84.28125 50.015625
Q 88.921875 44.046875 88.921875 33.015625
L 88.921875 0
L 79.890625 0
L 79.890625 32.71875
Q 79.890625 40.578125 77.09375 44.375
Q 74.3125 48.1875 68.609375 48.1875
Q 61.625 48.1875 57.5625 43.546875
Q 53.515625 38.921875 53.515625 30.90625
L 53.515625 0
L 44.484375 0
L 44.484375 32.71875
Q 44.484375 40.625 41.703125 44.40625
Q 38.921875 48.1875 33.109375 48.1875
Q 26.21875 48.1875 22.15625 43.53125
Q 18.109375 38.875 18.109375 30.90625
L 18.109375 0
L 9.078125 0
L 9.078125 54.6875
L 18.109375 54.6875
L 18.109375 46.1875
Q 21.1875 51.21875 25.484375 53.609375
Q 29.78125 56 35.6875 56
Q 41.65625 56 45.828125 52.96875
Q 50 49.953125 52 44.1875
z
" id="DejaVuSans-109"/>
     <path d="M 54.890625 33.015625
L 54.890625 0
L 45.90625 0
L 45.90625 32.71875
Q 45.90625 40.484375 42.875 44.328125
Q 39.84375 48.1875 33.796875 48.1875
Q 26.515625 48.1875 22.3125 43.546875
Q 18.109375 38.921875 18.109375 30.90625
L 18.109375 0
L 9.078125 0
L 9.078125 54.6875
L 18.109375 54.6875
L 18.109375 46.1875
Q 21.34375 51.125 25.703125 53.5625
Q 30.078125 56 35.796875 56
Q 45.21875 56 50.046875 50.171875
Q 54.890625 44.34375 54.890625 33.015625
z
" id="DejaVuSans-110"/>
     <path id="DejaVuSans-32"/>
     <path d="M 19.671875 64.796875
L 19.671875 8.109375
L 31.59375 8.109375
Q 46.6875 8.109375 53.6875 14.9375
Q 60.6875 21.78125 60.6875 36.53125
Q 60.6875 51.171875 53.6875 57.984375
Q 46.6875 64.796875 31.59375 64.796875
z
M 9.8125 72.90625
L 30.078125 72.90625
Q 51.265625 72.90625 61.171875 64.09375
Q 71.09375 55.28125 71.09375 36.53125
Q 71.09375 17.671875 61.125 8.828125
Q 51.171875 0 30.078125 0
L 9.8125 0
z
" id="DejaVuSans-68"/>
     <path d="M 9.8125 72.90625
L 55.90625 72.90625
L 55.90625 64.59375
L 19.671875 64.59375
L 19.671875 43.015625
L 54.390625 43.015625
L 54.390625 34.71875
L 19.671875 34.71875
L 19.671875 8.296875
L 56.78125 8.296875
L 56.78125 0
L 9.8125 0
z
" id="DejaVuSans-69"/>
     <path d="M 59.515625 10.40625
L 59.515625 29.984375
L 43.40625 29.984375
L 43.40625 38.09375
L 69.28125 38.09375
L 69.28125 6.78125
Q 63.578125 2.734375 56.6875 0.65625
Q 49.8125 -1.421875 42 -1.421875
Q 24.90625 -1.421875 15.25 8.5625
Q 5.609375 18.5625 5.609375 36.375
Q 5.609375 54.25 15.25 64.234375
Q 24.90625 74.21875 42 74.21875
Q 49.125 74.21875 55.546875 72.453125
Q 61.96875 70.703125 67.390625 67.28125
L 67.390625 56.78125
Q 61.921875 61.421875 55.765625 63.765625
Q 49.609375 66.109375 42.828125 66.109375
Q 29.4375 66.109375 22.71875 58.640625
Q 16.015625 51.171875 16.015625 36.375
Q 16.015625 21.625 22.71875 14.15625
Q 29.4375 6.6875 42.828125 6.6875
Q 48.046875 6.6875 52.140625 7.59375
Q 56.25 8.5 59.515625 10.40625
z
" id="DejaVuSans-71"/>
     <path d="M 44.28125 53.078125
L 44.28125 44.578125
Q 40.484375 46.53125 36.375 47.5
Q 32.28125 48.484375 27.875 48.484375
Q 21.1875 48.484375 17.84375 46.4375
Q 14.5 44.390625 14.5 40.28125
Q 14.5 37.15625 16.890625 35.375
Q 19.28125 33.59375 26.515625 31.984375
L 29.59375 31.296875
Q 39.15625 29.25 43.1875 25.515625
Q 47.21875 21.78125 47.21875 15.09375
Q 47.21875 7.46875 41.1875 3.015625
Q 35.15625 -1.421875 24.609375 -1.421875
Q 20.21875 -1.421875 15.453125 -0.5625
Q 10.6875 0.296875 5.421875 2
L 5.421875 11.28125
Q 10.40625 8.6875 15.234375 7.390625
Q 20.0625 6.109375 24.8125 6.109375
Q 31.15625 6.109375 34.5625 8.28125
Q 37.984375 10.453125 37.984375 14.40625
Q 37.984375 18.0625 35.515625 20.015625
Q 33.0625 21.96875 24.703125 23.78125
L 21.578125 24.515625
Q 13.234375 26.265625 9.515625 29.90625
Q 5.8125 33.546875 5.8125 39.890625
Q 5.8125 47.609375 11.28125 51.796875
Q 16.75 56 26.8125 56
Q 31.78125 56 36.171875 55.265625
Q 40.578125 54.546875 44.28125 53.078125
z
" id="DejaVuSans-115"/>
    </defs>
    <g transform="translate(20.26875 230.579982)scale(0.12 -0.12)">
     <use xlink:href="#DejaVuSans-99"/>
     <use x="54.980469" xlink:href="#DejaVuSans-111"/>
     <use x="116.162109" xlink:href="#DejaVuSans-109"/>
     <use x="213.574219" xlink:href="#DejaVuSans-109"/>
     <use x="310.986328" xlink:href="#DejaVuSans-111"/>
     <use x="372.167969" xlink:href="#DejaVuSans-110"/>
     <use x="435.546875" xlink:href="#DejaVuSans-32"/>
     <use x="467.333984" xlink:href="#DejaVuSans-68"/>
     <use x="544.335938" xlink:href="#DejaVuSans-69"/>
     <use x="607.519531" xlink:href="#DejaVuSans-71"/>
     <use x="685.009766" xlink:href="#DejaVuSans-115"/>
    </g>
   </g>
   <g id="text_5">
    <!-- Accessory genes -->
    <defs>
     <path d="M 34.1875 63.1875
L 20.796875 26.90625
L 47.609375 26.90625
z
M 28.609375 72.90625
L 39.796875 72.90625
L 67.578125 0
L 57.328125 0
L 50.6875 18.703125
L 17.828125 18.703125
L 11.1875 0
L 0.78125 0
z
" id="DejaVuSans-65"/>
     <path d="M 56.203125 29.59375
L 56.203125 25.203125
L 14.890625 25.203125
Q 15.484375 15.921875 20.484375 11.0625
Q 25.484375 6.203125 34.421875 6.203125
Q 39.59375 6.203125 44.453125 7.46875
Q 49.3125 8.734375 54.109375 11.28125
L 54.109375 2.78125
Q 49.265625 0.734375 44.1875 -0.34375
Q 39.109375 -1.421875 33.890625 -1.421875
Q 20.796875 -1.421875 13.15625 6.1875
Q 5.515625 13.8125 5.515625 26.8125
Q 5.515625 40.234375 12.765625 48.109375
Q 20.015625 56 32.328125 56
Q 43.359375 56 49.78125 48.890625
Q 56.203125 41.796875 56.203125 29.59375
z
M 47.21875 32.234375
Q 47.125 39.59375 43.09375 43.984375
Q 39.0625 48.390625 32.421875 48.390625
Q 24.90625 48.390625 20.390625 44.140625
Q 15.875 39.890625 15.1875 32.171875
z
" id="DejaVuSans-101"/>
     <path d="M 41.109375 46.296875
Q 39.59375 47.171875 37.8125 47.578125
Q 36.03125 48 33.890625 48
Q 26.265625 48 22.1875 43.046875
Q 18.109375 38.09375 18.109375 28.8125
L 18.109375 0
L 9.078125 0
L 9.078125 54.6875
L 18.109375 54.6875
L 18.109375 46.1875
Q 20.953125 51.171875 25.484375 53.578125
Q 30.03125 56 36.53125 56
Q 37.453125 56 38.578125 55.875
Q 39.703125 55.765625 41.0625 55.515625
z
" id="DejaVuSans-114"/>
     <path d="M 32.171875 -5.078125
Q 28.375 -14.84375 24.75 -17.8125
Q 21.140625 -20.796875 15.09375 -20.796875
L 7.90625 -20.796875
L 7.90625 -13.28125
L 13.1875 -13.28125
Q 16.890625 -13.28125 18.9375 -11.515625
Q 21 -9.765625 23.484375 -3.21875
L 25.09375 0.875
L 2.984375 54.6875
L 12.5 54.6875
L 29.59375 11.921875
L 46.6875 54.6875
L 56.203125 54.6875
z
" id="DejaVuSans-121"/>
     <path d="M 45.40625 27.984375
Q 45.40625 37.75 41.375 43.109375
Q 37.359375 48.484375 30.078125 48.484375
Q 22.859375 48.484375 18.828125 43.109375
Q 14.796875 37.75 14.796875 27.984375
Q 14.796875 18.265625 18.828125 12.890625
Q 22.859375 7.515625 30.078125 7.515625
Q 37.359375 7.515625 41.375 12.890625
Q 45.40625 18.265625 45.40625 27.984375
z
M 54.390625 6.78125
Q 54.390625 -7.171875 48.1875 -13.984375
Q 42 -20.796875 29.203125 -20.796875
Q 24.46875 -20.796875 20.265625 -20.09375
Q 16.0625 -19.390625 12.109375 -17.921875
L 12.109375 -9.1875
Q 16.0625 -11.328125 19.921875 -12.34375
Q 23.78125 -13.375 27.78125 -13.375
Q 36.625 -13.375 41.015625 -8.765625
Q 45.40625 -4.15625 45.40625 5.171875
L 45.40625 9.625
Q 42.625 4.78125 38.28125 2.390625
Q 33.9375 0 27.875 0
Q 17.828125 0 11.671875 7.65625
Q 5.515625 15.328125 5.515625 27.984375
Q 5.515625 40.671875 11.671875 48.328125
Q 17.828125 56 27.875 56
Q 33.9375 56 38.28125 53.609375
Q 42.625 51.21875 45.40625 46.390625
L 45.40625 54.6875
L 54.390625 54.6875
z
" id="DejaVuSans-103"/>
    </defs>
    <g transform="translate(223.747094 200.916119)scale(0.12 -0.12)">
     <use xlink:href="#DejaVuSans-65"/>
     <use x="68.392578" xlink:href="#DejaVuSans-99"/>
     <use x="123.373047" xlink:href="#DejaVuSans-99"/>
     <use x="178.353516" xlink:href="#DejaVuSans-101"/>
     <use x="239.876953" xlink:href="#DejaVuSans-115"/>
     <use x="291.976562" xlink:href="#DejaVuSans-115"/>
     <use x="344.076172" xlink:href="#DejaVuSans-111"/>
     <use x="405.257812" xlink:href="#DejaVuSans-114"/>
     <use x="446.371094" xlink:href="#DejaVuSans-121"/>
     <use x="505.550781" xlink:href="#DejaVuSans-32"/>
     <use x="537.337891" xlink:href="#DejaVuSans-103"/>
     <use x="600.814453" xlink:href="#DejaVuSans-101"/>
     <use x="662.337891" xlink:href="#DejaVuSans-110"/>
     <use x="725.716797" xlink:href="#DejaVuSans-101"/>
     <use x="787.240234" xlink:href="#DejaVuSans-115"/>
    </g>
   </g>
   <g id="text_6">
    <!-- PA14 common DEGs vs accessory genes -->
    <defs>
     <path d="M 19.671875 64.796875
L 19.671875 37.40625
L 32.078125 37.40625
Q 38.96875 37.40625 42.71875 40.96875
Q 46.484375 44.53125 46.484375 51.125
Q 46.484375 57.671875 42.71875 61.234375
Q 38.96875 64.796875 32.078125 64.796875
z
M 9.8125 72.90625
L 32.078125 72.90625
Q 44.34375 72.90625 50.609375 67.359375
Q 56.890625 61.8125 56.890625 51.125
Q 56.890625 40.328125 50.609375 34.8125
Q 44.34375 29.296875 32.078125 29.296875
L 19.671875 29.296875
L 19.671875 0
L 9.8125 0
z
" id="DejaVuSans-80"/>
     <path d="M 2.984375 54.6875
L 12.5 54.6875
L 29.59375 8.796875
L 46.6875 54.6875
L 56.203125 54.6875
L 35.6875 0
L 23.484375 0
z
" id="DejaVuSans-118"/>
     <path d="M 34.28125 27.484375
Q 23.390625 27.484375 19.1875 25
Q 14.984375 22.515625 14.984375 16.5
Q 14.984375 11.71875 18.140625 8.90625
Q 21.296875 6.109375 26.703125 6.109375
Q 34.1875 6.109375 38.703125 11.40625
Q 43.21875 16.703125 43.21875 25.484375
L 43.21875 27.484375
z
M 52.203125 31.203125
L 52.203125 0
L 43.21875 0
L 43.21875 8.296875
Q 40.140625 3.328125 35.546875 0.953125
Q 30.953125 -1.421875 24.3125 -1.421875
Q 15.921875 -1.421875 10.953125 3.296875
Q 6 8.015625 6 15.921875
Q 6 25.140625 12.171875 29.828125
Q 18.359375 34.515625 30.609375 34.515625
L 43.21875 34.515625
L 43.21875 35.40625
Q 43.21875 41.609375 39.140625 45
Q 35.0625 48.390625 27.6875 48.390625
Q 23 48.390625 18.546875 47.265625
Q 14.109375 46.140625 10.015625 43.890625
L 10.015625 52.203125
Q 14.9375 54.109375 19.578125 55.046875
Q 24.21875 56 28.609375 56
Q 40.484375 56 46.34375 49.84375
Q 52.203125 43.703125 52.203125 31.203125
z
" id="DejaVuSans-97"/>
    </defs>
    <g transform="translate(29.491928 9.118125)scale(0.12 -0.12)">
     <use xlink:href="#DejaVuSans-80"/>
     <use x="60.208984" xlink:href="#DejaVuSans-65"/>
     <use x="128.617188" xlink:href="#DejaVuSans-49"/>
     <use x="192.240234" xlink:href="#DejaVuSans-52"/>
     <use x="255.863281" xlink:href="#DejaVuSans-32"/>
     <use x="287.650391" xlink:href="#DejaVuSans-99"/>
     <use x="342.630859" xlink:href="#DejaVuSans-111"/>
     <use x="403.8125" xlink:href="#DejaVuSans-109"/>
     <use x="501.224609" xlink:href="#DejaVuSans-109"/>
     <use x="598.636719" xlink:href="#DejaVuSans-111"/>
     <use x="659.818359" xlink:href="#DejaVuSans-110"/>
     <use x="723.197266" xlink:href="#DejaVuSans-32"/>
     <use x="754.984375" xlink:href="#DejaVuSans-68"/>
     <use x="831.986328" xlink:href="#DejaVuSans-69"/>
     <use x="895.169922" xlink:href="#DejaVuSans-71"/>
     <use x="972.660156" xlink:href="#DejaVuSans-115"/>
     <use x="1024.759766" xlink:href="#DejaVuSans-32"/>
     <use x="1056.546875" xlink:href="#DejaVuSans-118"/>
     <use x="1115.726562" xlink:href="#DejaVuSans-115"/>
     <use x="1167.826172" xlink:href="#DejaVuSans-32"/>
     <use x="1199.613281" xlink:href="#DejaVuSans-97"/>
     <use x="1260.892578" xlink:href="#DejaVuSans-99"/>
     <use x="1315.873047" xlink:href="#DejaVuSans-99"/>
     <use x="1370.853516" xlink:href="#DejaVuSans-101"/>
     <use x="1432.376953" xlink:href="#DejaVuSans-115"/>
     <use x="1484.476562" xlink:href="#DejaVuSans-115"/>
     <use x="1536.576172" xlink:href="#DejaVuSans-111"/>
     <use x="1597.757812" xlink:href="#DejaVuSans-114"/>
     <use x="1638.871094" xlink:href="#DejaVuSans-121"/>
     <use x="1698.050781" xlink:href="#DejaVuSans-32"/>
     <use x="1729.837891" xlink:href="#DejaVuSans-103"/>
     <use x="1793.314453" xlink:href="#DejaVuSans-101"/>
     <use x="1854.837891" xlink:href="#DejaVuSans-110"/>
     <use x="1918.216797" xlink:href="#DejaVuSans-101"/>
     <use x="1979.740234" xlink:href="#DejaVuSans-115"/>
    </g>
   </g>
  </g>
 </g>
 <defs>
  <clipPath id="p98f7ce4aae">
   <rect height="217.44" width="302.803231" x="0" y="15.118125"/>
  </clipPath>
 </defs>
</svg>
