<?xml version="1.0" encoding="utf-8" standalone="no"?>
<!DOCTYPE svg PUBLIC "-//W3C//DTD SVG 1.1//EN"
  "http://www.w3.org/Graphics/SVG/1.1/DTD/svg11.dtd">
<!-- Created with matplotlib (https://matplotlib.org/) -->
<svg height="233.404551pt" version="1.1" viewBox="0 0 311.294882 233.404551" width="311.294882pt" xmlns="http://www.w3.org/2000/svg" xmlns:xlink="http://www.w3.org/1999/xlink">
 <defs>
  <style type="text/css">
*{stroke-linecap:butt;stroke-linejoin:round;}
  </style>
 </defs>
 <g id="figure_1">
  <g id="patch_1">
   <path d="M 0 233.404551
L 311.294882 233.404551
L 311.294882 0
L 0 0
z
" style="fill:none;"/>
  </g>
  <g id="axes_1">
   <g id="patch_2">
    <path clip-path="url(#pd12b7df193)" d="M 181.589182 177.32359
C 171.956233 172.103711 163.910039 164.377113 158.304229 154.963519
C 152.69842 145.549926 149.738504 134.79444 149.738504 123.838125
C 149.738504 112.88181 152.69842 102.126324 158.304229 92.712731
C 163.910039 83.299137 171.956233 75.572539 181.589182 70.35266
C 175.987601 62.721005 169.221729 56.016496 161.539357 50.484677
C 153.856984 44.952859 145.353055 40.662096 136.339014 37.769531
C 127.324972 34.876967 117.912221 33.41835 108.445487 33.4471
C 98.978754 33.47585 89.575035 34.991612 80.578729 37.938873
C 71.582423 40.886133 63.104712 45.228469 55.45608 50.806847
C 47.807449 56.385225 41.082424 63.130705 35.5273 70.796242
C 29.972175 78.46178 25.655606 86.952639 22.735681 95.957854
C 19.815755 104.963069 18.328558 114.371348 18.328558 123.838125
C 18.328558 133.304902 19.815755 142.713181 22.735681 151.718396
C 25.655606 160.723611 29.972175 169.21447 35.5273 176.880008
C 41.082424 184.545545 47.807449 191.291025 55.45608 196.869403
C 63.104712 202.447781 71.582423 206.790117 80.578729 209.737377
C 89.575035 212.684638 98.978754 214.2004 108.445487 214.22915
C 117.912221 214.2579 127.324972 212.799283 136.339014 209.906719
C 145.353055 207.014154 153.856984 202.723391 161.539357 197.191573
C 169.221729 191.659754 175.987601 184.955245 181.589182 177.32359
" style="fill:#ff0000;opacity:0.4;"/>
   </g>
   <g id="patch_3">
    <path clip-path="url(#pd12b7df193)" d="M 181.589182 70.35266
C 192.971199 85.859644 199.111442 104.602302 199.111442 123.838125
C 199.111442 143.073948 192.971199 161.816606 181.589182 177.32359
C 190.854728 182.344382 201.267862 184.872385 211.804138 184.658893
C 222.340413 184.445402 232.642595 181.497655 241.697151 176.105653
C 250.751708 170.71365 258.251642 163.06021 263.459107 153.898279
C 268.666573 144.736347 271.40501 134.376563 271.40501 123.838125
C 271.40501 113.299687 268.666573 102.939903 263.459107 93.777971
C 258.251642 84.61604 250.751708 76.9626 241.697151 71.570597
C 232.642595 66.178595 222.340413 63.230848 211.804138 63.017357
C 201.267862 62.803865 190.854728 65.331868 181.589182 70.35266
" style="fill:#0000ff;opacity:0.3;"/>
   </g>
   <g id="patch_4">
    <path clip-path="url(#pd12b7df193)" d="M 181.589182 177.32359
C 192.971199 161.816606 199.111442 143.073948 199.111442 123.838125
C 199.111442 104.602302 192.971199 85.859644 181.589182 70.35266
C 171.956233 75.572539 163.910039 83.299137 158.304229 92.712731
C 152.69842 102.126324 149.738504 112.88181 149.738504 123.838125
C 149.738504 134.79444 152.69842 145.549926 158.304229 154.963519
C 163.910039 164.377113 171.956233 172.103711 181.589182 177.32359
" style="fill:#800080;opacity:0.3;"/>
   </g>
   <g id="text_1">
    <!-- 1009 -->
    <defs>
     <path d="M 12.40625 8.296875
L 28.515625 8.296875
L 28.515625 63.921875
L 10.984375 60.40625
L 10.984375 69.390625
L 28.421875 72.90625
L 38.28125 72.90625
L 38.28125 8.296875
L 54.390625 8.296875
L 54.390625 0
L 12.40625 0
z
" id="DejaVuSans-49"/>
     <path d="M 31.78125 66.40625
Q 24.171875 66.40625 20.328125 58.90625
Q 16.5 51.421875 16.5 36.375
Q 16.5 21.390625 20.328125 13.890625
Q 24.171875 6.390625 31.78125 6.390625
Q 39.453125 6.390625 43.28125 13.890625
Q 47.125 21.390625 47.125 36.375
Q 47.125 51.421875 43.28125 58.90625
Q 39.453125 66.40625 31.78125 66.40625
z
M 31.78125 74.21875
Q 44.046875 74.21875 50.515625 64.515625
Q 56.984375 54.828125 56.984375 36.375
Q 56.984375 17.96875 50.515625 8.265625
Q 44.046875 -1.421875 31.78125 -1.421875
Q 19.53125 -1.421875 13.0625 8.265625
Q 6.59375 17.96875 6.59375 36.375
Q 6.59375 54.828125 13.0625 64.515625
Q 19.53125 74.21875 31.78125 74.21875
z
" id="DejaVuSans-48"/>
     <path d="M 10.984375 1.515625
L 10.984375 10.5
Q 14.703125 8.734375 18.5 7.8125
Q 22.3125 6.890625 25.984375 6.890625
Q 35.75 6.890625 40.890625 13.453125
Q 46.046875 20.015625 46.78125 33.40625
Q 43.953125 29.203125 39.59375 26.953125
Q 35.25 24.703125 29.984375 24.703125
Q 19.046875 24.703125 12.671875 31.3125
Q 6.296875 37.9375 6.296875 49.421875
Q 6.296875 60.640625 12.9375 67.421875
Q 19.578125 74.21875 30.609375 74.21875
Q 43.265625 74.21875 49.921875 64.515625
Q 56.59375 54.828125 56.59375 36.375
Q 56.59375 19.140625 48.40625 8.859375
Q 40.234375 -1.421875 26.421875 -1.421875
Q 22.703125 -1.421875 18.890625 -0.6875
Q 15.09375 0.046875 10.984375 1.515625
z
M 30.609375 32.421875
Q 37.25 32.421875 41.125 36.953125
Q 45.015625 41.5 45.015625 49.421875
Q 45.015625 57.28125 41.125 61.84375
Q 37.25 66.40625 30.609375 66.40625
Q 23.96875 66.40625 20.09375 61.84375
Q 16.21875 57.28125 16.21875 49.421875
Q 16.21875 41.5 20.09375 36.953125
Q 23.96875 32.421875 30.609375 32.421875
z
" id="DejaVuSans-57"/>
    </defs>
    <g transform="translate(71.308531 126.5975)scale(0.1 -0.1)">
     <use xlink:href="#DejaVuSans-49"/>
     <use x="63.623047" xlink:href="#DejaVuSans-48"/>
     <use x="127.246094" xlink:href="#DejaVuSans-48"/>
     <use x="190.869141" xlink:href="#DejaVuSans-57"/>
    </g>
   </g>
   <g id="text_2">
    <!-- 364 -->
    <defs>
     <path d="M 40.578125 39.3125
Q 47.65625 37.796875 51.625 33
Q 55.609375 28.21875 55.609375 21.1875
Q 55.609375 10.40625 48.1875 4.484375
Q 40.765625 -1.421875 27.09375 -1.421875
Q 22.515625 -1.421875 17.65625 -0.515625
Q 12.796875 0.390625 7.625 2.203125
L 7.625 11.71875
Q 11.71875 9.328125 16.59375 8.109375
Q 21.484375 6.890625 26.8125 6.890625
Q 36.078125 6.890625 40.9375 10.546875
Q 45.796875 14.203125 45.796875 21.1875
Q 45.796875 27.640625 41.28125 31.265625
Q 36.765625 34.90625 28.71875 34.90625
L 20.21875 34.90625
L 20.21875 43.015625
L 29.109375 43.015625
Q 36.375 43.015625 40.234375 45.921875
Q 44.09375 48.828125 44.09375 54.296875
Q 44.09375 59.90625 40.109375 62.90625
Q 36.140625 65.921875 28.71875 65.921875
Q 24.65625 65.921875 20.015625 65.03125
Q 15.375 64.15625 9.8125 62.3125
L 9.8125 71.09375
Q 15.4375 72.65625 20.34375 73.4375
Q 25.25 74.21875 29.59375 74.21875
Q 40.828125 74.21875 47.359375 69.109375
Q 53.90625 64.015625 53.90625 55.328125
Q 53.90625 49.265625 50.4375 45.09375
Q 46.96875 40.921875 40.578125 39.3125
z
" id="DejaVuSans-51"/>
     <path d="M 33.015625 40.375
Q 26.375 40.375 22.484375 35.828125
Q 18.609375 31.296875 18.609375 23.390625
Q 18.609375 15.53125 22.484375 10.953125
Q 26.375 6.390625 33.015625 6.390625
Q 39.65625 6.390625 43.53125 10.953125
Q 47.40625 15.53125 47.40625 23.390625
Q 47.40625 31.296875 43.53125 35.828125
Q 39.65625 40.375 33.015625 40.375
z
M 52.59375 71.296875
L 52.59375 62.3125
Q 48.875 64.0625 45.09375 64.984375
Q 41.3125 65.921875 37.59375 65.921875
Q 27.828125 65.921875 22.671875 59.328125
Q 17.53125 52.734375 16.796875 39.40625
Q 19.671875 43.65625 24.015625 45.921875
Q 28.375 48.1875 33.59375 48.1875
Q 44.578125 48.1875 50.953125 41.515625
Q 57.328125 34.859375 57.328125 23.390625
Q 57.328125 12.15625 50.6875 5.359375
Q 44.046875 -1.421875 33.015625 -1.421875
Q 20.359375 -1.421875 13.671875 8.265625
Q 6.984375 17.96875 6.984375 36.375
Q 6.984375 53.65625 15.1875 63.9375
Q 23.390625 74.21875 37.203125 74.21875
Q 40.921875 74.21875 44.703125 73.484375
Q 48.484375 72.75 52.59375 71.296875
z
" id="DejaVuSans-54"/>
     <path d="M 37.796875 64.3125
L 12.890625 25.390625
L 37.796875 25.390625
z
M 35.203125 72.90625
L 47.609375 72.90625
L 47.609375 25.390625
L 58.015625 25.390625
L 58.015625 17.1875
L 47.609375 17.1875
L 47.609375 0
L 37.796875 0
L 37.796875 17.1875
L 4.890625 17.1875
L 4.890625 26.703125
z
" id="DejaVuSans-52"/>
    </defs>
    <g transform="translate(225.714476 126.5975)scale(0.1 -0.1)">
     <use xlink:href="#DejaVuSans-51"/>
     <use x="63.623047" xlink:href="#DejaVuSans-54"/>
     <use x="127.246094" xlink:href="#DejaVuSans-52"/>
    </g>
   </g>
   <g id="text_3">
    <!-- 170 -->
    <defs>
     <path d="M 8.203125 72.90625
L 55.078125 72.90625
L 55.078125 68.703125
L 28.609375 0
L 18.3125 0
L 43.21875 64.59375
L 8.203125 64.59375
z
" id="DejaVuSans-55"/>
    </defs>
    <g transform="translate(164.881223 126.5975)scale(0.1 -0.1)">
     <use xlink:href="#DejaVuSans-49"/>
     <use x="63.623047" xlink:href="#DejaVuSans-55"/>
     <use x="127.246094" xlink:href="#DejaVuSans-48"/>
    </g>
   </g>
   <g id="text_4">
    <!-- common DEGs -->
    <defs>
     <path d="M 48.78125 52.59375
L 48.78125 44.1875
Q 44.96875 46.296875 41.140625 47.34375
Q 37.3125 48.390625 33.40625 48.390625
Q 24.65625 48.390625 19.8125 42.84375
Q 14.984375 37.3125 14.984375 27.296875
Q 14.984375 17.28125 19.8125 11.734375
Q 24.65625 6.203125 33.40625 6.203125
Q 37.3125 6.203125 41.140625 7.25
Q 44.96875 8.296875 48.78125 10.40625
L 48.78125 2.09375
Q 45.015625 0.34375 40.984375 -0.53125
Q 36.96875 -1.421875 32.421875 -1.421875
Q 20.0625 -1.421875 12.78125 6.34375
Q 5.515625 14.109375 5.515625 27.296875
Q 5.515625 40.671875 12.859375 48.328125
Q 20.21875 56 33.015625 56
Q 37.15625 56 41.109375 55.140625
Q 45.0625 54.296875 48.78125 52.59375
z
" id="DejaVuSans-99"/>
     <path d="M 30.609375 48.390625
Q 23.390625 48.390625 19.1875 42.75
Q 14.984375 37.109375 14.984375 27.296875
Q 14.984375 17.484375 19.15625 11.84375
Q 23.34375 6.203125 30.609375 6.203125
Q 37.796875 6.203125 41.984375 11.859375
Q 46.1875 17.53125 46.1875 27.296875
Q 46.1875 37.015625 41.984375 42.703125
Q 37.796875 48.390625 30.609375 48.390625
z
M 30.609375 56
Q 42.328125 56 49.015625 48.375
Q 55.71875 40.765625 55.71875 27.296875
Q 55.71875 13.875 49.015625 6.21875
Q 42.328125 -1.421875 30.609375 -1.421875
Q 18.84375 -1.421875 12.171875 6.21875
Q 5.515625 13.875 5.515625 27.296875
Q 5.515625 40.765625 12.171875 48.375
Q 18.84375 56 30.609375 56
z
" id="DejaVuSans-111"/>
     <path d="M 52 44.1875
Q 55.375 50.25 60.0625 53.125
Q 64.75 56 71.09375 56
Q 79.640625 56 84.28125 50.015625
Q 88.921875 44.046875 88.921875 33.015625
L 88.921875 0
L 79.890625 0
L 79.890625 32.71875
Q 79.890625 40.578125 77.09375 44.375
Q 74.3125 48.1875 68.609375 48.1875
Q 61.625 48.1875 57.5625 43.546875
Q 53.515625 38.921875 53.515625 30.90625
L 53.515625 0
L 44.484375 0
L 44.484375 32.71875
Q 44.484375 40.625 41.703125 44.40625
Q 38.921875 48.1875 33.109375 48.1875
Q 26.21875 48.1875 22.15625 43.53125
Q 18.109375 38.875 18.109375 30.90625
L 18.109375 0
L 9.078125 0
L 9.078125 54.6875
L 18.109375 54.6875
L 18.109375 46.1875
Q 21.1875 51.21875 25.484375 53.609375
Q 29.78125 56 35.6875 56
Q 41.65625 56 45.828125 52.96875
Q 50 49.953125 52 44.1875
z
" id="DejaVuSans-109"/>
     <path d="M 54.890625 33.015625
L 54.890625 0
L 45.90625 0
L 45.90625 32.71875
Q 45.90625 40.484375 42.875 44.328125
Q 39.84375 48.1875 33.796875 48.1875
Q 26.515625 48.1875 22.3125 43.546875
Q 18.109375 38.921875 18.109375 30.90625
L 18.109375 0
L 9.078125 0
L 9.078125 54.6875
L 18.109375 54.6875
L 18.109375 46.1875
Q 21.34375 51.125 25.703125 53.5625
Q 30.078125 56 35.796875 56
Q 45.21875 56 50.046875 50.171875
Q 54.890625 44.34375 54.890625 33.015625
z
" id="DejaVuSans-110"/>
     <path id="DejaVuSans-32"/>
     <path d="M 19.671875 64.796875
L 19.671875 8.109375
L 31.59375 8.109375
Q 46.6875 8.109375 53.6875 14.9375
Q 60.6875 21.78125 60.6875 36.53125
Q 60.6875 51.171875 53.6875 57.984375
Q 46.6875 64.796875 31.59375 64.796875
z
M 9.8125 72.90625
L 30.078125 72.90625
Q 51.265625 72.90625 61.171875 64.09375
Q 71.09375 55.28125 71.09375 36.53125
Q 71.09375 17.671875 61.125 8.828125
Q 51.171875 0 30.078125 0
L 9.8125 0
z
" id="DejaVuSans-68"/>
     <path d="M 9.8125 72.90625
L 55.90625 72.90625
L 55.90625 64.59375
L 19.671875 64.59375
L 19.671875 43.015625
L 54.390625 43.015625
L 54.390625 34.71875
L 19.671875 34.71875
L 19.671875 8.296875
L 56.78125 8.296875
L 56.78125 0
L 9.8125 0
z
" id="DejaVuSans-69"/>
     <path d="M 59.515625 10.40625
L 59.515625 29.984375
L 43.40625 29.984375
L 43.40625 38.09375
L 69.28125 38.09375
L 69.28125 6.78125
Q 63.578125 2.734375 56.6875 0.65625
Q 49.8125 -1.421875 42 -1.421875
Q 24.90625 -1.421875 15.25 8.5625
Q 5.609375 18.5625 5.609375 36.375
Q 5.609375 54.25 15.25 64.234375
Q 24.90625 74.21875 42 74.21875
Q 49.125 74.21875 55.546875 72.453125
Q 61.96875 70.703125 67.390625 67.28125
L 67.390625 56.78125
Q 61.921875 61.421875 55.765625 63.765625
Q 49.609375 66.109375 42.828125 66.109375
Q 29.4375 66.109375 22.71875 58.640625
Q 16.015625 51.171875 16.015625 36.375
Q 16.015625 21.625 22.71875 14.15625
Q 29.4375 6.6875 42.828125 6.6875
Q 48.046875 6.6875 52.140625 7.59375
Q 56.25 8.5 59.515625 10.40625
z
" id="DejaVuSans-71"/>
     <path d="M 44.28125 53.078125
L 44.28125 44.578125
Q 40.484375 46.53125 36.375 47.5
Q 32.28125 48.484375 27.875 48.484375
Q 21.1875 48.484375 17.84375 46.4375
Q 14.5 44.390625 14.5 40.28125
Q 14.5 37.15625 16.890625 35.375
Q 19.28125 33.59375 26.515625 31.984375
L 29.59375 31.296875
Q 39.15625 29.25 43.1875 25.515625
Q 47.21875 21.78125 47.21875 15.09375
Q 47.21875 7.46875 41.1875 3.015625
Q 35.15625 -1.421875 24.609375 -1.421875
Q 20.21875 -1.421875 15.453125 -0.5625
Q 10.6875 0.296875 5.421875 2
L 5.421875 11.28125
Q 10.40625 8.6875 15.234375 7.390625
Q 20.0625 6.109375 24.8125 6.109375
Q 31.15625 6.109375 34.5625 8.28125
Q 37.984375 10.453125 37.984375 14.40625
Q 37.984375 18.0625 35.515625 20.015625
Q 33.0625 21.96875 24.703125 23.78125
L 21.578125 24.515625
Q 13.234375 26.265625 9.515625 29.90625
Q 5.8125 33.546875 5.8125 39.890625
Q 5.8125 47.609375 11.28125 51.796875
Q 16.75 56 26.8125 56
Q 31.78125 56 36.171875 55.265625
Q 40.578125 54.546875 44.28125 53.078125
z
" id="DejaVuSans-115"/>
    </defs>
    <g transform="translate(20.26875 230.908926)scale(0.12 -0.12)">
     <use xlink:href="#DejaVuSans-99"/>
     <use x="54.980469" xlink:href="#DejaVuSans-111"/>
     <use x="116.162109" xlink:href="#DejaVuSans-109"/>
     <use x="213.574219" xlink:href="#DejaVuSans-109"/>
     <use x="310.986328" xlink:href="#DejaVuSans-111"/>
     <use x="372.167969" xlink:href="#DejaVuSans-110"/>
     <use x="435.546875" xlink:href="#DejaVuSans-32"/>
     <use x="467.333984" xlink:href="#DejaVuSans-68"/>
     <use x="544.335938" xlink:href="#DejaVuSans-69"/>
     <use x="607.519531" xlink:href="#DejaVuSans-71"/>
     <use x="685.009766" xlink:href="#DejaVuSans-115"/>
    </g>
   </g>
   <g id="text_5">
    <!-- Accessory genes -->
    <defs>
     <path d="M 34.1875 63.1875
L 20.796875 26.90625
L 47.609375 26.90625
z
M 28.609375 72.90625
L 39.796875 72.90625
L 67.578125 0
L 57.328125 0
L 50.6875 18.703125
L 17.828125 18.703125
L 11.1875 0
L 0.78125 0
z
" id="DejaVuSans-65"/>
     <path d="M 56.203125 29.59375
L 56.203125 25.203125
L 14.890625 25.203125
Q 15.484375 15.921875 20.484375 11.0625
Q 25.484375 6.203125 34.421875 6.203125
Q 39.59375 6.203125 44.453125 7.46875
Q 49.3125 8.734375 54.109375 11.28125
L 54.109375 2.78125
Q 49.265625 0.734375 44.1875 -0.34375
Q 39.109375 -1.421875 33.890625 -1.421875
Q 20.796875 -1.421875 13.15625 6.1875
Q 5.515625 13.8125 5.515625 26.8125
Q 5.515625 40.234375 12.765625 48.109375
Q 20.015625 56 32.328125 56
Q 43.359375 56 49.78125 48.890625
Q 56.203125 41.796875 56.203125 29.59375
z
M 47.21875 32.234375
Q 47.125 39.59375 43.09375 43.984375
Q 39.0625 48.390625 32.421875 48.390625
Q 24.90625 48.390625 20.390625 44.140625
Q 15.875 39.890625 15.1875 32.171875
z
" id="DejaVuSans-101"/>
     <path d="M 41.109375 46.296875
Q 39.59375 47.171875 37.8125 47.578125
Q 36.03125 48 33.890625 48
Q 26.265625 48 22.1875 43.046875
Q 18.109375 38.09375 18.109375 28.8125
L 18.109375 0
L 9.078125 0
L 9.078125 54.6875
L 18.109375 54.6875
L 18.109375 46.1875
Q 20.953125 51.171875 25.484375 53.578125
Q 30.03125 56 36.53125 56
Q 37.453125 56 38.578125 55.875
Q 39.703125 55.765625 41.0625 55.515625
z
" id="DejaVuSans-114"/>
     <path d="M 32.171875 -5.078125
Q 28.375 -14.84375 24.75 -17.8125
Q 21.140625 -20.796875 15.09375 -20.796875
L 7.90625 -20.796875
L 7.90625 -13.28125
L 13.1875 -13.28125
Q 16.890625 -13.28125 18.9375 -11.515625
Q 21 -9.765625 23.484375 -3.21875
L 25.09375 0.875
L 2.984375 54.6875
L 12.5 54.6875
L 29.59375 11.921875
L 46.6875 54.6875
L 56.203125 54.6875
z
" id="DejaVuSans-121"/>
     <path d="M 45.40625 27.984375
Q 45.40625 37.75 41.375 43.109375
Q 37.359375 48.484375 30.078125 48.484375
Q 22.859375 48.484375 18.828125 43.109375
Q 14.796875 37.75 14.796875 27.984375
Q 14.796875 18.265625 18.828125 12.890625
Q 22.859375 7.515625 30.078125 7.515625
Q 37.359375 7.515625 41.375 12.890625
Q 45.40625 18.265625 45.40625 27.984375
z
M 54.390625 6.78125
Q 54.390625 -7.171875 48.1875 -13.984375
Q 42 -20.796875 29.203125 -20.796875
Q 24.46875 -20.796875 20.265625 -20.09375
Q 16.0625 -19.390625 12.109375 -17.921875
L 12.109375 -9.1875
Q 16.0625 -11.328125 19.921875 -12.34375
Q 23.78125 -13.375 27.78125 -13.375
Q 36.625 -13.375 41.015625 -8.765625
Q 45.40625 -4.15625 45.40625 5.171875
L 45.40625 9.625
Q 42.625 4.78125 38.28125 2.390625
Q 33.9375 0 27.875 0
Q 17.828125 0 11.671875 7.65625
Q 5.515625 15.328125 5.515625 27.984375
Q 5.515625 40.671875 11.671875 48.328125
Q 17.828125 56 27.875 56
Q 33.9375 56 38.28125 53.609375
Q 42.625 51.21875 45.40625 46.390625
L 45.40625 54.6875
L 54.390625 54.6875
z
" id="DejaVuSans-103"/>
    </defs>
    <g transform="translate(210.571757 201.350737)scale(0.12 -0.12)">
     <use xlink:href="#DejaVuSans-65"/>
     <use x="68.392578" xlink:href="#DejaVuSans-99"/>
     <use x="123.373047" xlink:href="#DejaVuSans-99"/>
     <use x="178.353516" xlink:href="#DejaVuSans-101"/>
     <use x="239.876953" xlink:href="#DejaVuSans-115"/>
     <use x="291.976562" xlink:href="#DejaVuSans-115"/>
     <use x="344.076172" xlink:href="#DejaVuSans-111"/>
     <use x="405.257812" xlink:href="#DejaVuSans-114"/>
     <use x="446.371094" xlink:href="#DejaVuSans-121"/>
     <use x="505.550781" xlink:href="#DejaVuSans-32"/>
     <use x="537.337891" xlink:href="#DejaVuSans-103"/>
     <use x="600.814453" xlink:href="#DejaVuSans-101"/>
     <use x="662.337891" xlink:href="#DejaVuSans-110"/>
     <use x="725.716797" xlink:href="#DejaVuSans-101"/>
     <use x="787.240234" xlink:href="#DejaVuSans-115"/>
    </g>
   </g>
   <g id="text_6">
    <!-- PA14 common DEGs vs accessory genes -->
    <defs>
     <path d="M 19.671875 64.796875
L 19.671875 37.40625
L 32.078125 37.40625
Q 38.96875 37.40625 42.71875 40.96875
Q 46.484375 44.53125 46.484375 51.125
Q 46.484375 57.671875 42.71875 61.234375
Q 38.96875 64.796875 32.078125 64.796875
z
M 9.8125 72.90625
L 32.078125 72.90625
Q 44.34375 72.90625 50.609375 67.359375
Q 56.890625 61.8125 56.890625 51.125
Q 56.890625 40.328125 50.609375 34.8125
Q 44.34375 29.296875 32.078125 29.296875
L 19.671875 29.296875
L 19.671875 0
L 9.8125 0
z
" id="DejaVuSans-80"/>
     <path d="M 2.984375 54.6875
L 12.5 54.6875
L 29.59375 8.796875
L 46.6875 54.6875
L 56.203125 54.6875
L 35.6875 0
L 23.484375 0
z
" id="DejaVuSans-118"/>
     <path d="M 34.28125 27.484375
Q 23.390625 27.484375 19.1875 25
Q 14.984375 22.515625 14.984375 16.5
Q 14.984375 11.71875 18.140625 8.90625
Q 21.296875 6.109375 26.703125 6.109375
Q 34.1875 6.109375 38.703125 11.40625
Q 43.21875 16.703125 43.21875 25.484375
L 43.21875 27.484375
z
M 52.203125 31.203125
L 52.203125 0
L 43.21875 0
L 43.21875 8.296875
Q 40.140625 3.328125 35.546875 0.953125
Q 30.953125 -1.421875 24.3125 -1.421875
Q 15.921875 -1.421875 10.953125 3.296875
Q 6 8.015625 6 15.921875
Q 6 25.140625 12.171875 29.828125
Q 18.359375 34.515625 30.609375 34.515625
L 43.21875 34.515625
L 43.21875 35.40625
Q 43.21875 41.609375 39.140625 45
Q 35.0625 48.390625 27.6875 48.390625
Q 23 48.390625 18.546875 47.265625
Q 14.109375 46.140625 10.015625 43.890625
L 10.015625 52.203125
Q 14.9375 54.109375 19.578125 55.046875
Q 24.21875 56 28.609375 56
Q 40.484375 56 46.34375 49.84375
Q 52.203125 43.703125 52.203125 31.203125
z
" id="DejaVuSans-97"/>
    </defs>
    <g transform="translate(22.957097 9.118125)scale(0.12 -0.12)">
     <use xlink:href="#DejaVuSans-80"/>
     <use x="60.208984" xlink:href="#DejaVuSans-65"/>
     <use x="128.617188" xlink:href="#DejaVuSans-49"/>
     <use x="192.240234" xlink:href="#DejaVuSans-52"/>
     <use x="255.863281" xlink:href="#DejaVuSans-32"/>
     <use x="287.650391" xlink:href="#DejaVuSans-99"/>
     <use x="342.630859" xlink:href="#DejaVuSans-111"/>
     <use x="403.8125" xlink:href="#DejaVuSans-109"/>
     <use x="501.224609" xlink:href="#DejaVuSans-109"/>
     <use x="598.636719" xlink:href="#DejaVuSans-111"/>
     <use x="659.818359" xlink:href="#DejaVuSans-110"/>
     <use x="723.197266" xlink:href="#DejaVuSans-32"/>
     <use x="754.984375" xlink:href="#DejaVuSans-68"/>
     <use x="831.986328" xlink:href="#DejaVuSans-69"/>
     <use x="895.169922" xlink:href="#DejaVuSans-71"/>
     <use x="972.660156" xlink:href="#DejaVuSans-115"/>
     <use x="1024.759766" xlink:href="#DejaVuSans-32"/>
     <use x="1056.546875" xlink:href="#DejaVuSans-118"/>
     <use x="1115.726562" xlink:href="#DejaVuSans-115"/>
     <use x="1167.826172" xlink:href="#DejaVuSans-32"/>
     <use x="1199.613281" xlink:href="#DejaVuSans-97"/>
     <use x="1260.892578" xlink:href="#DejaVuSans-99"/>
     <use x="1315.873047" xlink:href="#DejaVuSans-99"/>
     <use x="1370.853516" xlink:href="#DejaVuSans-101"/>
     <use x="1432.376953" xlink:href="#DejaVuSans-115"/>
     <use x="1484.476562" xlink:href="#DejaVuSans-115"/>
     <use x="1536.576172" xlink:href="#DejaVuSans-111"/>
     <use x="1597.757812" xlink:href="#DejaVuSans-114"/>
     <use x="1638.871094" xlink:href="#DejaVuSans-121"/>
     <use x="1698.050781" xlink:href="#DejaVuSans-32"/>
     <use x="1729.837891" xlink:href="#DejaVuSans-103"/>
     <use x="1793.314453" xlink:href="#DejaVuSans-101"/>
     <use x="1854.837891" xlink:href="#DejaVuSans-110"/>
     <use x="1918.216797" xlink:href="#DejaVuSans-101"/>
     <use x="1979.740234" xlink:href="#DejaVuSans-115"/>
    </g>
   </g>
  </g>
 </g>
 <defs>
  <clipPath id="pd12b7df193">
   <rect height="217.44" width="289.733568" x="0" y="15.118125"/>
  </clipPath>
 </defs>
</svg>
