<?xml version="1.0" encoding="utf-8" standalone="no"?>
<!DOCTYPE svg PUBLIC "-//W3C//DTD SVG 1.1//EN"
  "http://www.w3.org/Graphics/SVG/1.1/DTD/svg11.dtd">
<!-- Created with matplotlib (https://matplotlib.org/) -->
<svg height="353.245625pt" version="1.1" viewBox="0 0 442.211875 353.245625" width="442.211875pt" xmlns="http://www.w3.org/2000/svg" xmlns:xlink="http://www.w3.org/1999/xlink">
 <defs>
  <style type="text/css">
*{stroke-linecap:butt;stroke-linejoin:round;}
  </style>
 </defs>
 <g id="figure_1">
  <g id="patch_1">
   <path d="M 0 353.245625
L 442.211875 353.245625
L 442.211875 0
L 0 0
z
" style="fill:none;"/>
  </g>
  <g id="axes_1">
   <g id="patch_2">
    <path d="M 43.636875 319.018125
L 333.993125 319.018125
L 333.993125 15.118125
L 43.636875 15.118125
z
" style="fill:none;"/>
   </g>
   <g id="patch_3">
    <path clip-path="url(#p5c79d601b7)" d="M 56.834886 319.018125
L 62.700669 319.018125
L 62.700669 319.018125
L 56.834886 319.018125
z
" style="fill:#4e1c80;fill-opacity:0.5;stroke:#000000;stroke-linejoin:miter;stroke-width:0.621389;"/>
   </g>
   <g id="patch_4">
    <path clip-path="url(#p5c79d601b7)" d="M 62.700669 319.018125
L 68.566452 319.018125
L 68.566452 319.018125
L 62.700669 319.018125
z
" style="fill:#4e1c80;fill-opacity:0.5;stroke:#000000;stroke-linejoin:miter;stroke-width:0.621389;"/>
   </g>
   <g id="patch_5">
    <path clip-path="url(#p5c79d601b7)" d="M 68.566452 319.018125
L 74.432235 319.018125
L 74.432235 319.018125
L 68.566452 319.018125
z
" style="fill:#4e1c80;fill-opacity:0.5;stroke:#000000;stroke-linejoin:miter;stroke-width:0.621389;"/>
   </g>
   <g id="patch_6">
    <path clip-path="url(#p5c79d601b7)" d="M 74.432235 319.018125
L 80.298018 319.018125
L 80.298018 319.018125
L 74.432235 319.018125
z
" style="fill:#4e1c80;fill-opacity:0.5;stroke:#000000;stroke-linejoin:miter;stroke-width:0.621389;"/>
   </g>
   <g id="patch_7">
    <path clip-path="url(#p5c79d601b7)" d="M 80.298018 319.018125
L 86.163801 319.018125
L 86.163801 319.018125
L 80.298018 319.018125
z
" style="fill:#4e1c80;fill-opacity:0.5;stroke:#000000;stroke-linejoin:miter;stroke-width:0.621389;"/>
   </g>
   <g id="patch_8">
    <path clip-path="url(#p5c79d601b7)" d="M 86.163801 319.018125
L 92.029583 319.018125
L 92.029583 319.018125
L 86.163801 319.018125
z
" style="fill:#4e1c80;fill-opacity:0.5;stroke:#000000;stroke-linejoin:miter;stroke-width:0.621389;"/>
   </g>
   <g id="patch_9">
    <path clip-path="url(#p5c79d601b7)" d="M 92.029583 319.018125
L 97.895366 319.018125
L 97.895366 319.018125
L 92.029583 319.018125
z
" style="fill:#4e1c80;fill-opacity:0.5;stroke:#000000;stroke-linejoin:miter;stroke-width:0.621389;"/>
   </g>
   <g id="patch_10">
    <path clip-path="url(#p5c79d601b7)" d="M 97.895366 319.018125
L 103.761149 319.018125
L 103.761149 319.018125
L 97.895366 319.018125
z
" style="fill:#4e1c80;fill-opacity:0.5;stroke:#000000;stroke-linejoin:miter;stroke-width:0.621389;"/>
   </g>
   <g id="patch_11">
    <path clip-path="url(#p5c79d601b7)" d="M 103.761149 319.018125
L 109.626932 319.018125
L 109.626932 319.018125
L 103.761149 319.018125
z
" style="fill:#4e1c80;fill-opacity:0.5;stroke:#000000;stroke-linejoin:miter;stroke-width:0.621389;"/>
   </g>
   <g id="patch_12">
    <path clip-path="url(#p5c79d601b7)" d="M 109.626932 319.018125
L 115.492715 319.018125
L 115.492715 319.018125
L 109.626932 319.018125
z
" style="fill:#4e1c80;fill-opacity:0.5;stroke:#000000;stroke-linejoin:miter;stroke-width:0.621389;"/>
   </g>
   <g id="patch_13">
    <path clip-path="url(#p5c79d601b7)" d="M 115.492715 319.018125
L 121.358497 319.018125
L 121.358497 319.018125
L 115.492715 319.018125
z
" style="fill:#4e1c80;fill-opacity:0.5;stroke:#000000;stroke-linejoin:miter;stroke-width:0.621389;"/>
   </g>
   <g id="patch_14">
    <path clip-path="url(#p5c79d601b7)" d="M 121.358497 319.018125
L 127.22428 319.018125
L 127.22428 319.018125
L 121.358497 319.018125
z
" style="fill:#4e1c80;fill-opacity:0.5;stroke:#000000;stroke-linejoin:miter;stroke-width:0.621389;"/>
   </g>
   <g id="patch_15">
    <path clip-path="url(#p5c79d601b7)" d="M 127.22428 319.018125
L 133.090063 319.018125
L 133.090063 319.018125
L 127.22428 319.018125
z
" style="fill:#4e1c80;fill-opacity:0.5;stroke:#000000;stroke-linejoin:miter;stroke-width:0.621389;"/>
   </g>
   <g id="patch_16">
    <path clip-path="url(#p5c79d601b7)" d="M 133.090063 319.018125
L 138.955846 319.018125
L 138.955846 319.018125
L 133.090063 319.018125
z
" style="fill:#4e1c80;fill-opacity:0.5;stroke:#000000;stroke-linejoin:miter;stroke-width:0.621389;"/>
   </g>
   <g id="patch_17">
    <path clip-path="url(#p5c79d601b7)" d="M 138.955846 319.018125
L 144.821629 319.018125
L 144.821629 319.018125
L 138.955846 319.018125
z
" style="fill:#4e1c80;fill-opacity:0.5;stroke:#000000;stroke-linejoin:miter;stroke-width:0.621389;"/>
   </g>
   <g id="patch_18">
    <path clip-path="url(#p5c79d601b7)" d="M 144.821629 319.018125
L 150.687412 319.018125
L 150.687412 319.018125
L 144.821629 319.018125
z
" style="fill:#4e1c80;fill-opacity:0.5;stroke:#000000;stroke-linejoin:miter;stroke-width:0.621389;"/>
   </g>
   <g id="patch_19">
    <path clip-path="url(#p5c79d601b7)" d="M 150.687412 319.018125
L 156.553194 319.018125
L 156.553194 319.018125
L 150.687412 319.018125
z
" style="fill:#4e1c80;fill-opacity:0.5;stroke:#000000;stroke-linejoin:miter;stroke-width:0.621389;"/>
   </g>
   <g id="patch_20">
    <path clip-path="url(#p5c79d601b7)" d="M 156.553194 319.018125
L 162.418977 319.018125
L 162.418977 319.018125
L 156.553194 319.018125
z
" style="fill:#4e1c80;fill-opacity:0.5;stroke:#000000;stroke-linejoin:miter;stroke-width:0.621389;"/>
   </g>
   <g id="patch_21">
    <path clip-path="url(#p5c79d601b7)" d="M 162.418977 319.018125
L 168.28476 319.018125
L 168.28476 319.018125
L 162.418977 319.018125
z
" style="fill:#4e1c80;fill-opacity:0.5;stroke:#000000;stroke-linejoin:miter;stroke-width:0.621389;"/>
   </g>
   <g id="patch_22">
    <path clip-path="url(#p5c79d601b7)" d="M 168.28476 319.018125
L 174.150543 319.018125
L 174.150543 319.018125
L 168.28476 319.018125
z
" style="fill:#4e1c80;fill-opacity:0.5;stroke:#000000;stroke-linejoin:miter;stroke-width:0.621389;"/>
   </g>
   <g id="patch_23">
    <path clip-path="url(#p5c79d601b7)" d="M 174.150543 319.018125
L 180.016326 319.018125
L 180.016326 319.018125
L 174.150543 319.018125
z
" style="fill:#4e1c80;fill-opacity:0.5;stroke:#000000;stroke-linejoin:miter;stroke-width:0.621389;"/>
   </g>
   <g id="patch_24">
    <path clip-path="url(#p5c79d601b7)" d="M 180.016326 319.018125
L 185.882109 319.018125
L 185.882109 319.018125
L 180.016326 319.018125
z
" style="fill:#4e1c80;fill-opacity:0.5;stroke:#000000;stroke-linejoin:miter;stroke-width:0.621389;"/>
   </g>
   <g id="patch_25">
    <path clip-path="url(#p5c79d601b7)" d="M 185.882109 319.018125
L 191.747891 319.018125
L 191.747891 319.018125
L 185.882109 319.018125
z
" style="fill:#4e1c80;fill-opacity:0.5;stroke:#000000;stroke-linejoin:miter;stroke-width:0.621389;"/>
   </g>
   <g id="patch_26">
    <path clip-path="url(#p5c79d601b7)" d="M 191.747891 319.018125
L 197.613674 319.018125
L 197.613674 319.018125
L 191.747891 319.018125
z
" style="fill:#4e1c80;fill-opacity:0.5;stroke:#000000;stroke-linejoin:miter;stroke-width:0.621389;"/>
   </g>
   <g id="patch_27">
    <path clip-path="url(#p5c79d601b7)" d="M 197.613674 319.018125
L 203.479457 319.018125
L 203.479457 319.018125
L 197.613674 319.018125
z
" style="fill:#4e1c80;fill-opacity:0.5;stroke:#000000;stroke-linejoin:miter;stroke-width:0.621389;"/>
   </g>
   <g id="patch_28">
    <path clip-path="url(#p5c79d601b7)" d="M 203.479457 319.018125
L 209.34524 319.018125
L 209.34524 319.018125
L 203.479457 319.018125
z
" style="fill:#4e1c80;fill-opacity:0.5;stroke:#000000;stroke-linejoin:miter;stroke-width:0.621389;"/>
   </g>
   <g id="patch_29">
    <path clip-path="url(#p5c79d601b7)" d="M 209.34524 319.018125
L 215.211023 319.018125
L 215.211023 319.018125
L 209.34524 319.018125
z
" style="fill:#4e1c80;fill-opacity:0.5;stroke:#000000;stroke-linejoin:miter;stroke-width:0.621389;"/>
   </g>
   <g id="patch_30">
    <path clip-path="url(#p5c79d601b7)" d="M 215.211023 319.018125
L 221.076806 319.018125
L 221.076806 319.018125
L 215.211023 319.018125
z
" style="fill:#4e1c80;fill-opacity:0.5;stroke:#000000;stroke-linejoin:miter;stroke-width:0.621389;"/>
   </g>
   <g id="patch_31">
    <path clip-path="url(#p5c79d601b7)" d="M 221.076806 319.018125
L 226.942588 319.018125
L 226.942588 319.018125
L 221.076806 319.018125
z
" style="fill:#4e1c80;fill-opacity:0.5;stroke:#000000;stroke-linejoin:miter;stroke-width:0.621389;"/>
   </g>
   <g id="patch_32">
    <path clip-path="url(#p5c79d601b7)" d="M 226.942588 319.018125
L 232.808371 319.018125
L 232.808371 319.018125
L 226.942588 319.018125
z
" style="fill:#4e1c80;fill-opacity:0.5;stroke:#000000;stroke-linejoin:miter;stroke-width:0.621389;"/>
   </g>
   <g id="patch_33">
    <path clip-path="url(#p5c79d601b7)" d="M 232.808371 319.018125
L 238.674154 319.018125
L 238.674154 319.018125
L 232.808371 319.018125
z
" style="fill:#4e1c80;fill-opacity:0.5;stroke:#000000;stroke-linejoin:miter;stroke-width:0.621389;"/>
   </g>
   <g id="patch_34">
    <path clip-path="url(#p5c79d601b7)" d="M 238.674154 319.018125
L 244.539937 319.018125
L 244.539937 319.018125
L 238.674154 319.018125
z
" style="fill:#4e1c80;fill-opacity:0.5;stroke:#000000;stroke-linejoin:miter;stroke-width:0.621389;"/>
   </g>
   <g id="patch_35">
    <path clip-path="url(#p5c79d601b7)" d="M 244.539937 319.018125
L 250.40572 319.018125
L 250.40572 319.018125
L 244.539937 319.018125
z
" style="fill:#4e1c80;fill-opacity:0.5;stroke:#000000;stroke-linejoin:miter;stroke-width:0.621389;"/>
   </g>
   <g id="patch_36">
    <path clip-path="url(#p5c79d601b7)" d="M 250.40572 319.018125
L 256.271503 319.018125
L 256.271503 274.490652
L 250.40572 274.490652
z
" style="fill:#4e1c80;fill-opacity:0.5;stroke:#000000;stroke-linejoin:miter;stroke-width:0.621389;"/>
   </g>
   <g id="patch_37">
    <path clip-path="url(#p5c79d601b7)" d="M 256.271503 319.018125
L 262.137285 319.018125
L 262.137285 257.998996
L 256.271503 257.998996
z
" style="fill:#4e1c80;fill-opacity:0.5;stroke:#000000;stroke-linejoin:miter;stroke-width:0.621389;"/>
   </g>
   <g id="patch_38">
    <path clip-path="url(#p5c79d601b7)" d="M 262.137285 319.018125
L 268.003068 319.018125
L 268.003068 278.613567
L 262.137285 278.613567
z
" style="fill:#4e1c80;fill-opacity:0.5;stroke:#000000;stroke-linejoin:miter;stroke-width:0.621389;"/>
   </g>
   <g id="patch_39">
    <path clip-path="url(#p5c79d601b7)" d="M 268.003068 319.018125
L 273.868851 319.018125
L 273.868851 287.683978
L 268.003068 287.683978
z
" style="fill:#4e1c80;fill-opacity:0.5;stroke:#000000;stroke-linejoin:miter;stroke-width:0.621389;"/>
   </g>
   <g id="patch_40">
    <path clip-path="url(#p5c79d601b7)" d="M 273.868851 319.018125
L 279.734634 319.018125
L 279.734634 302.526469
L 273.868851 302.526469
z
" style="fill:#4e1c80;fill-opacity:0.5;stroke:#000000;stroke-linejoin:miter;stroke-width:0.621389;"/>
   </g>
   <g id="patch_41">
    <path clip-path="url(#p5c79d601b7)" d="M 279.734634 319.018125
L 285.600417 319.018125
L 285.600417 309.947714
L 279.734634 309.947714
z
" style="fill:#4e1c80;fill-opacity:0.5;stroke:#000000;stroke-linejoin:miter;stroke-width:0.621389;"/>
   </g>
   <g id="patch_42">
    <path clip-path="url(#p5c79d601b7)" d="M 285.600417 319.018125
L 291.466199 319.018125
L 291.466199 310.772297
L 285.600417 310.772297
z
" style="fill:#4e1c80;fill-opacity:0.5;stroke:#000000;stroke-linejoin:miter;stroke-width:0.621389;"/>
   </g>
   <g id="patch_43">
    <path clip-path="url(#p5c79d601b7)" d="M 291.466199 319.018125
L 297.331982 319.018125
L 297.331982 314.895211
L 291.466199 314.895211
z
" style="fill:#4e1c80;fill-opacity:0.5;stroke:#000000;stroke-linejoin:miter;stroke-width:0.621389;"/>
   </g>
   <g id="patch_44">
    <path clip-path="url(#p5c79d601b7)" d="M 297.331982 319.018125
L 303.197765 319.018125
L 303.197765 316.544377
L 297.331982 316.544377
z
" style="fill:#4e1c80;fill-opacity:0.5;stroke:#000000;stroke-linejoin:miter;stroke-width:0.621389;"/>
   </g>
   <g id="patch_45">
    <path clip-path="url(#p5c79d601b7)" d="M 303.197765 319.018125
L 309.063548 319.018125
L 309.063548 318.193542
L 303.197765 318.193542
z
" style="fill:#4e1c80;fill-opacity:0.5;stroke:#000000;stroke-linejoin:miter;stroke-width:0.621389;"/>
   </g>
   <g id="patch_46">
    <path clip-path="url(#p5c79d601b7)" d="M 309.063548 319.018125
L 314.929331 319.018125
L 314.929331 318.193542
L 309.063548 318.193542
z
" style="fill:#4e1c80;fill-opacity:0.5;stroke:#000000;stroke-linejoin:miter;stroke-width:0.621389;"/>
   </g>
   <g id="patch_47">
    <path clip-path="url(#p5c79d601b7)" d="M 314.929331 319.018125
L 320.795114 319.018125
L 320.795114 318.193542
L 314.929331 318.193542
z
" style="fill:#4e1c80;fill-opacity:0.5;stroke:#000000;stroke-linejoin:miter;stroke-width:0.621389;"/>
   </g>
   <g id="patch_48">
    <path clip-path="url(#p5c79d601b7)" d="M 56.834886 319.018125
L 62.700669 319.018125
L 62.700669 317.368959
L 56.834886 317.368959
z
" style="fill:#a6aed0;fill-opacity:0.5;stroke:#000000;stroke-linejoin:miter;stroke-width:0.621389;"/>
   </g>
   <g id="patch_49">
    <path clip-path="url(#p5c79d601b7)" d="M 62.700669 319.018125
L 68.566452 319.018125
L 68.566452 316.544377
L 62.700669 316.544377
z
" style="fill:#a6aed0;fill-opacity:0.5;stroke:#000000;stroke-linejoin:miter;stroke-width:0.621389;"/>
   </g>
   <g id="patch_50">
    <path clip-path="url(#p5c79d601b7)" d="M 68.566452 319.018125
L 74.432235 319.018125
L 74.432235 317.368959
L 68.566452 317.368959
z
" style="fill:#a6aed0;fill-opacity:0.5;stroke:#000000;stroke-linejoin:miter;stroke-width:0.621389;"/>
   </g>
   <g id="patch_51">
    <path clip-path="url(#p5c79d601b7)" d="M 74.432235 319.018125
L 80.298018 319.018125
L 80.298018 318.193542
L 74.432235 318.193542
z
" style="fill:#a6aed0;fill-opacity:0.5;stroke:#000000;stroke-linejoin:miter;stroke-width:0.621389;"/>
   </g>
   <g id="patch_52">
    <path clip-path="url(#p5c79d601b7)" d="M 80.298018 319.018125
L 86.163801 319.018125
L 86.163801 313.246045
L 80.298018 313.246045
z
" style="fill:#a6aed0;fill-opacity:0.5;stroke:#000000;stroke-linejoin:miter;stroke-width:0.621389;"/>
   </g>
   <g id="patch_53">
    <path clip-path="url(#p5c79d601b7)" d="M 86.163801 319.018125
L 92.029583 319.018125
L 92.029583 314.070628
L 86.163801 314.070628
z
" style="fill:#a6aed0;fill-opacity:0.5;stroke:#000000;stroke-linejoin:miter;stroke-width:0.621389;"/>
   </g>
   <g id="patch_54">
    <path clip-path="url(#p5c79d601b7)" d="M 92.029583 319.018125
L 97.895366 319.018125
L 97.895366 309.123131
L 92.029583 309.123131
z
" style="fill:#a6aed0;fill-opacity:0.5;stroke:#000000;stroke-linejoin:miter;stroke-width:0.621389;"/>
   </g>
   <g id="patch_55">
    <path clip-path="url(#p5c79d601b7)" d="M 97.895366 319.018125
L 103.761149 319.018125
L 103.761149 306.649383
L 97.895366 306.649383
z
" style="fill:#a6aed0;fill-opacity:0.5;stroke:#000000;stroke-linejoin:miter;stroke-width:0.621389;"/>
   </g>
   <g id="patch_56">
    <path clip-path="url(#p5c79d601b7)" d="M 103.761149 319.018125
L 109.626932 319.018125
L 109.626932 295.929806
L 103.761149 295.929806
z
" style="fill:#a6aed0;fill-opacity:0.5;stroke:#000000;stroke-linejoin:miter;stroke-width:0.621389;"/>
   </g>
   <g id="patch_57">
    <path clip-path="url(#p5c79d601b7)" d="M 109.626932 319.018125
L 115.492715 319.018125
L 115.492715 291.806892
L 109.626932 291.806892
z
" style="fill:#a6aed0;fill-opacity:0.5;stroke:#000000;stroke-linejoin:miter;stroke-width:0.621389;"/>
   </g>
   <g id="patch_58">
    <path clip-path="url(#p5c79d601b7)" d="M 115.492715 319.018125
L 121.358497 319.018125
L 121.358497 275.315235
L 115.492715 275.315235
z
" style="fill:#a6aed0;fill-opacity:0.5;stroke:#000000;stroke-linejoin:miter;stroke-width:0.621389;"/>
   </g>
   <g id="patch_59">
    <path clip-path="url(#p5c79d601b7)" d="M 121.358497 319.018125
L 127.22428 319.018125
L 127.22428 263.771076
L 121.358497 263.771076
z
" style="fill:#a6aed0;fill-opacity:0.5;stroke:#000000;stroke-linejoin:miter;stroke-width:0.621389;"/>
   </g>
   <g id="patch_60">
    <path clip-path="url(#p5c79d601b7)" d="M 127.22428 319.018125
L 133.090063 319.018125
L 133.090063 287.683978
L 127.22428 287.683978
z
" style="fill:#a6aed0;fill-opacity:0.5;stroke:#000000;stroke-linejoin:miter;stroke-width:0.621389;"/>
   </g>
   <g id="patch_61">
    <path clip-path="url(#p5c79d601b7)" d="M 133.090063 319.018125
L 138.955846 319.018125
L 138.955846 319.018125
L 133.090063 319.018125
z
" style="fill:#a6aed0;fill-opacity:0.5;stroke:#000000;stroke-linejoin:miter;stroke-width:0.621389;"/>
   </g>
   <g id="patch_62">
    <path clip-path="url(#p5c79d601b7)" d="M 138.955846 319.018125
L 144.821629 319.018125
L 144.821629 319.018125
L 138.955846 319.018125
z
" style="fill:#a6aed0;fill-opacity:0.5;stroke:#000000;stroke-linejoin:miter;stroke-width:0.621389;"/>
   </g>
   <g id="patch_63">
    <path clip-path="url(#p5c79d601b7)" d="M 144.821629 319.018125
L 150.687412 319.018125
L 150.687412 319.018125
L 144.821629 319.018125
z
" style="fill:#a6aed0;fill-opacity:0.5;stroke:#000000;stroke-linejoin:miter;stroke-width:0.621389;"/>
   </g>
   <g id="patch_64">
    <path clip-path="url(#p5c79d601b7)" d="M 150.687412 319.018125
L 156.553194 319.018125
L 156.553194 319.018125
L 150.687412 319.018125
z
" style="fill:#a6aed0;fill-opacity:0.5;stroke:#000000;stroke-linejoin:miter;stroke-width:0.621389;"/>
   </g>
   <g id="patch_65">
    <path clip-path="url(#p5c79d601b7)" d="M 156.553194 319.018125
L 162.418977 319.018125
L 162.418977 319.018125
L 156.553194 319.018125
z
" style="fill:#a6aed0;fill-opacity:0.5;stroke:#000000;stroke-linejoin:miter;stroke-width:0.621389;"/>
   </g>
   <g id="patch_66">
    <path clip-path="url(#p5c79d601b7)" d="M 162.418977 319.018125
L 168.28476 319.018125
L 168.28476 319.018125
L 162.418977 319.018125
z
" style="fill:#a6aed0;fill-opacity:0.5;stroke:#000000;stroke-linejoin:miter;stroke-width:0.621389;"/>
   </g>
   <g id="patch_67">
    <path clip-path="url(#p5c79d601b7)" d="M 168.28476 319.018125
L 174.150543 319.018125
L 174.150543 319.018125
L 168.28476 319.018125
z
" style="fill:#a6aed0;fill-opacity:0.5;stroke:#000000;stroke-linejoin:miter;stroke-width:0.621389;"/>
   </g>
   <g id="patch_68">
    <path clip-path="url(#p5c79d601b7)" d="M 174.150543 319.018125
L 180.016326 319.018125
L 180.016326 319.018125
L 174.150543 319.018125
z
" style="fill:#a6aed0;fill-opacity:0.5;stroke:#000000;stroke-linejoin:miter;stroke-width:0.621389;"/>
   </g>
   <g id="patch_69">
    <path clip-path="url(#p5c79d601b7)" d="M 180.016326 319.018125
L 185.882109 319.018125
L 185.882109 319.018125
L 180.016326 319.018125
z
" style="fill:#a6aed0;fill-opacity:0.5;stroke:#000000;stroke-linejoin:miter;stroke-width:0.621389;"/>
   </g>
   <g id="patch_70">
    <path clip-path="url(#p5c79d601b7)" d="M 185.882109 319.018125
L 191.747891 319.018125
L 191.747891 319.018125
L 185.882109 319.018125
z
" style="fill:#a6aed0;fill-opacity:0.5;stroke:#000000;stroke-linejoin:miter;stroke-width:0.621389;"/>
   </g>
   <g id="patch_71">
    <path clip-path="url(#p5c79d601b7)" d="M 191.747891 319.018125
L 197.613674 319.018125
L 197.613674 319.018125
L 191.747891 319.018125
z
" style="fill:#a6aed0;fill-opacity:0.5;stroke:#000000;stroke-linejoin:miter;stroke-width:0.621389;"/>
   </g>
   <g id="patch_72">
    <path clip-path="url(#p5c79d601b7)" d="M 197.613674 319.018125
L 203.479457 319.018125
L 203.479457 319.018125
L 197.613674 319.018125
z
" style="fill:#a6aed0;fill-opacity:0.5;stroke:#000000;stroke-linejoin:miter;stroke-width:0.621389;"/>
   </g>
   <g id="patch_73">
    <path clip-path="url(#p5c79d601b7)" d="M 203.479457 319.018125
L 209.34524 319.018125
L 209.34524 319.018125
L 203.479457 319.018125
z
" style="fill:#a6aed0;fill-opacity:0.5;stroke:#000000;stroke-linejoin:miter;stroke-width:0.621389;"/>
   </g>
   <g id="patch_74">
    <path clip-path="url(#p5c79d601b7)" d="M 209.34524 319.018125
L 215.211023 319.018125
L 215.211023 319.018125
L 209.34524 319.018125
z
" style="fill:#a6aed0;fill-opacity:0.5;stroke:#000000;stroke-linejoin:miter;stroke-width:0.621389;"/>
   </g>
   <g id="patch_75">
    <path clip-path="url(#p5c79d601b7)" d="M 215.211023 319.018125
L 221.076806 319.018125
L 221.076806 319.018125
L 215.211023 319.018125
z
" style="fill:#a6aed0;fill-opacity:0.5;stroke:#000000;stroke-linejoin:miter;stroke-width:0.621389;"/>
   </g>
   <g id="patch_76">
    <path clip-path="url(#p5c79d601b7)" d="M 221.076806 319.018125
L 226.942588 319.018125
L 226.942588 319.018125
L 221.076806 319.018125
z
" style="fill:#a6aed0;fill-opacity:0.5;stroke:#000000;stroke-linejoin:miter;stroke-width:0.621389;"/>
   </g>
   <g id="patch_77">
    <path clip-path="url(#p5c79d601b7)" d="M 226.942588 319.018125
L 232.808371 319.018125
L 232.808371 319.018125
L 226.942588 319.018125
z
" style="fill:#a6aed0;fill-opacity:0.5;stroke:#000000;stroke-linejoin:miter;stroke-width:0.621389;"/>
   </g>
   <g id="patch_78">
    <path clip-path="url(#p5c79d601b7)" d="M 232.808371 319.018125
L 238.674154 319.018125
L 238.674154 319.018125
L 232.808371 319.018125
z
" style="fill:#a6aed0;fill-opacity:0.5;stroke:#000000;stroke-linejoin:miter;stroke-width:0.621389;"/>
   </g>
   <g id="patch_79">
    <path clip-path="url(#p5c79d601b7)" d="M 238.674154 319.018125
L 244.539937 319.018125
L 244.539937 319.018125
L 238.674154 319.018125
z
" style="fill:#a6aed0;fill-opacity:0.5;stroke:#000000;stroke-linejoin:miter;stroke-width:0.621389;"/>
   </g>
   <g id="patch_80">
    <path clip-path="url(#p5c79d601b7)" d="M 244.539937 319.018125
L 250.40572 319.018125
L 250.40572 319.018125
L 244.539937 319.018125
z
" style="fill:#a6aed0;fill-opacity:0.5;stroke:#000000;stroke-linejoin:miter;stroke-width:0.621389;"/>
   </g>
   <g id="patch_81">
    <path clip-path="url(#p5c79d601b7)" d="M 250.40572 319.018125
L 256.271503 319.018125
L 256.271503 319.018125
L 250.40572 319.018125
z
" style="fill:#a6aed0;fill-opacity:0.5;stroke:#000000;stroke-linejoin:miter;stroke-width:0.621389;"/>
   </g>
   <g id="patch_82">
    <path clip-path="url(#p5c79d601b7)" d="M 256.271503 319.018125
L 262.137285 319.018125
L 262.137285 319.018125
L 256.271503 319.018125
z
" style="fill:#a6aed0;fill-opacity:0.5;stroke:#000000;stroke-linejoin:miter;stroke-width:0.621389;"/>
   </g>
   <g id="patch_83">
    <path clip-path="url(#p5c79d601b7)" d="M 262.137285 319.018125
L 268.003068 319.018125
L 268.003068 319.018125
L 262.137285 319.018125
z
" style="fill:#a6aed0;fill-opacity:0.5;stroke:#000000;stroke-linejoin:miter;stroke-width:0.621389;"/>
   </g>
   <g id="patch_84">
    <path clip-path="url(#p5c79d601b7)" d="M 268.003068 319.018125
L 273.868851 319.018125
L 273.868851 319.018125
L 268.003068 319.018125
z
" style="fill:#a6aed0;fill-opacity:0.5;stroke:#000000;stroke-linejoin:miter;stroke-width:0.621389;"/>
   </g>
   <g id="patch_85">
    <path clip-path="url(#p5c79d601b7)" d="M 273.868851 319.018125
L 279.734634 319.018125
L 279.734634 319.018125
L 273.868851 319.018125
z
" style="fill:#a6aed0;fill-opacity:0.5;stroke:#000000;stroke-linejoin:miter;stroke-width:0.621389;"/>
   </g>
   <g id="patch_86">
    <path clip-path="url(#p5c79d601b7)" d="M 279.734634 319.018125
L 285.600417 319.018125
L 285.600417 319.018125
L 279.734634 319.018125
z
" style="fill:#a6aed0;fill-opacity:0.5;stroke:#000000;stroke-linejoin:miter;stroke-width:0.621389;"/>
   </g>
   <g id="patch_87">
    <path clip-path="url(#p5c79d601b7)" d="M 285.600417 319.018125
L 291.466199 319.018125
L 291.466199 319.018125
L 285.600417 319.018125
z
" style="fill:#a6aed0;fill-opacity:0.5;stroke:#000000;stroke-linejoin:miter;stroke-width:0.621389;"/>
   </g>
   <g id="patch_88">
    <path clip-path="url(#p5c79d601b7)" d="M 291.466199 319.018125
L 297.331982 319.018125
L 297.331982 319.018125
L 291.466199 319.018125
z
" style="fill:#a6aed0;fill-opacity:0.5;stroke:#000000;stroke-linejoin:miter;stroke-width:0.621389;"/>
   </g>
   <g id="patch_89">
    <path clip-path="url(#p5c79d601b7)" d="M 297.331982 319.018125
L 303.197765 319.018125
L 303.197765 319.018125
L 297.331982 319.018125
z
" style="fill:#a6aed0;fill-opacity:0.5;stroke:#000000;stroke-linejoin:miter;stroke-width:0.621389;"/>
   </g>
   <g id="patch_90">
    <path clip-path="url(#p5c79d601b7)" d="M 303.197765 319.018125
L 309.063548 319.018125
L 309.063548 319.018125
L 303.197765 319.018125
z
" style="fill:#a6aed0;fill-opacity:0.5;stroke:#000000;stroke-linejoin:miter;stroke-width:0.621389;"/>
   </g>
   <g id="patch_91">
    <path clip-path="url(#p5c79d601b7)" d="M 309.063548 319.018125
L 314.929331 319.018125
L 314.929331 319.018125
L 309.063548 319.018125
z
" style="fill:#a6aed0;fill-opacity:0.5;stroke:#000000;stroke-linejoin:miter;stroke-width:0.621389;"/>
   </g>
   <g id="patch_92">
    <path clip-path="url(#p5c79d601b7)" d="M 314.929331 319.018125
L 320.795114 319.018125
L 320.795114 319.018125
L 314.929331 319.018125
z
" style="fill:#a6aed0;fill-opacity:0.5;stroke:#000000;stroke-linejoin:miter;stroke-width:0.621389;"/>
   </g>
   <g id="patch_93">
    <path clip-path="url(#p5c79d601b7)" d="M 56.834886 319.018125
L 62.700669 319.018125
L 62.700669 319.018125
L 56.834886 319.018125
z
" style="fill:#a9a9a9;fill-opacity:0.5;stroke:#000000;stroke-linejoin:miter;stroke-width:0.621389;"/>
   </g>
   <g id="patch_94">
    <path clip-path="url(#p5c79d601b7)" d="M 62.700669 319.018125
L 68.566452 319.018125
L 68.566452 319.018125
L 62.700669 319.018125
z
" style="fill:#a9a9a9;fill-opacity:0.5;stroke:#000000;stroke-linejoin:miter;stroke-width:0.621389;"/>
   </g>
   <g id="patch_95">
    <path clip-path="url(#p5c79d601b7)" d="M 68.566452 319.018125
L 74.432235 319.018125
L 74.432235 319.018125
L 68.566452 319.018125
z
" style="fill:#a9a9a9;fill-opacity:0.5;stroke:#000000;stroke-linejoin:miter;stroke-width:0.621389;"/>
   </g>
   <g id="patch_96">
    <path clip-path="url(#p5c79d601b7)" d="M 74.432235 319.018125
L 80.298018 319.018125
L 80.298018 319.018125
L 74.432235 319.018125
z
" style="fill:#a9a9a9;fill-opacity:0.5;stroke:#000000;stroke-linejoin:miter;stroke-width:0.621389;"/>
   </g>
   <g id="patch_97">
    <path clip-path="url(#p5c79d601b7)" d="M 80.298018 319.018125
L 86.163801 319.018125
L 86.163801 319.018125
L 80.298018 319.018125
z
" style="fill:#a9a9a9;fill-opacity:0.5;stroke:#000000;stroke-linejoin:miter;stroke-width:0.621389;"/>
   </g>
   <g id="patch_98">
    <path clip-path="url(#p5c79d601b7)" d="M 86.163801 319.018125
L 92.029583 319.018125
L 92.029583 319.018125
L 86.163801 319.018125
z
" style="fill:#a9a9a9;fill-opacity:0.5;stroke:#000000;stroke-linejoin:miter;stroke-width:0.621389;"/>
   </g>
   <g id="patch_99">
    <path clip-path="url(#p5c79d601b7)" d="M 92.029583 319.018125
L 97.895366 319.018125
L 97.895366 319.018125
L 92.029583 319.018125
z
" style="fill:#a9a9a9;fill-opacity:0.5;stroke:#000000;stroke-linejoin:miter;stroke-width:0.621389;"/>
   </g>
   <g id="patch_100">
    <path clip-path="url(#p5c79d601b7)" d="M 97.895366 319.018125
L 103.761149 319.018125
L 103.761149 319.018125
L 97.895366 319.018125
z
" style="fill:#a9a9a9;fill-opacity:0.5;stroke:#000000;stroke-linejoin:miter;stroke-width:0.621389;"/>
   </g>
   <g id="patch_101">
    <path clip-path="url(#p5c79d601b7)" d="M 103.761149 319.018125
L 109.626932 319.018125
L 109.626932 319.018125
L 103.761149 319.018125
z
" style="fill:#a9a9a9;fill-opacity:0.5;stroke:#000000;stroke-linejoin:miter;stroke-width:0.621389;"/>
   </g>
   <g id="patch_102">
    <path clip-path="url(#p5c79d601b7)" d="M 109.626932 319.018125
L 115.492715 319.018125
L 115.492715 319.018125
L 109.626932 319.018125
z
" style="fill:#a9a9a9;fill-opacity:0.5;stroke:#000000;stroke-linejoin:miter;stroke-width:0.621389;"/>
   </g>
   <g id="patch_103">
    <path clip-path="url(#p5c79d601b7)" d="M 115.492715 319.018125
L 121.358497 319.018125
L 121.358497 319.018125
L 115.492715 319.018125
z
" style="fill:#a9a9a9;fill-opacity:0.5;stroke:#000000;stroke-linejoin:miter;stroke-width:0.621389;"/>
   </g>
   <g id="patch_104">
    <path clip-path="url(#p5c79d601b7)" d="M 121.358497 319.018125
L 127.22428 319.018125
L 127.22428 319.018125
L 121.358497 319.018125
z
" style="fill:#a9a9a9;fill-opacity:0.5;stroke:#000000;stroke-linejoin:miter;stroke-width:0.621389;"/>
   </g>
   <g id="patch_105">
    <path clip-path="url(#p5c79d601b7)" d="M 127.22428 319.018125
L 133.090063 319.018125
L 133.090063 283.561064
L 127.22428 283.561064
z
" style="fill:#a9a9a9;fill-opacity:0.5;stroke:#000000;stroke-linejoin:miter;stroke-width:0.621389;"/>
   </g>
   <g id="patch_106">
    <path clip-path="url(#p5c79d601b7)" d="M 133.090063 319.018125
L 138.955846 319.018125
L 138.955846 214.296106
L 133.090063 214.296106
z
" style="fill:#a9a9a9;fill-opacity:0.5;stroke:#000000;stroke-linejoin:miter;stroke-width:0.621389;"/>
   </g>
   <g id="patch_107">
    <path clip-path="url(#p5c79d601b7)" d="M 138.955846 319.018125
L 144.821629 319.018125
L 144.821629 197.80445
L 138.955846 197.80445
z
" style="fill:#a9a9a9;fill-opacity:0.5;stroke:#000000;stroke-linejoin:miter;stroke-width:0.621389;"/>
   </g>
   <g id="patch_108">
    <path clip-path="url(#p5c79d601b7)" d="M 144.821629 319.018125
L 150.687412 319.018125
L 150.687412 173.066965
L 144.821629 173.066965
z
" style="fill:#a9a9a9;fill-opacity:0.5;stroke:#000000;stroke-linejoin:miter;stroke-width:0.621389;"/>
   </g>
   <g id="patch_109">
    <path clip-path="url(#p5c79d601b7)" d="M 150.687412 319.018125
L 156.553194 319.018125
L 156.553194 135.136155
L 150.687412 135.136155
z
" style="fill:#a9a9a9;fill-opacity:0.5;stroke:#000000;stroke-linejoin:miter;stroke-width:0.621389;"/>
   </g>
   <g id="patch_110">
    <path clip-path="url(#p5c79d601b7)" d="M 156.553194 319.018125
L 162.418977 319.018125
L 162.418977 109.574088
L 156.553194 109.574088
z
" style="fill:#a9a9a9;fill-opacity:0.5;stroke:#000000;stroke-linejoin:miter;stroke-width:0.621389;"/>
   </g>
   <g id="patch_111">
    <path clip-path="url(#p5c79d601b7)" d="M 162.418977 319.018125
L 168.28476 319.018125
L 168.28476 75.766192
L 162.418977 75.766192
z
" style="fill:#a9a9a9;fill-opacity:0.5;stroke:#000000;stroke-linejoin:miter;stroke-width:0.621389;"/>
   </g>
   <g id="patch_112">
    <path clip-path="url(#p5c79d601b7)" d="M 168.28476 319.018125
L 174.150543 319.018125
L 174.150543 96.380762
L 168.28476 96.380762
z
" style="fill:#a9a9a9;fill-opacity:0.5;stroke:#000000;stroke-linejoin:miter;stroke-width:0.621389;"/>
   </g>
   <g id="patch_113">
    <path clip-path="url(#p5c79d601b7)" d="M 174.150543 319.018125
L 180.016326 319.018125
L 180.016326 90.608683
L 174.150543 90.608683
z
" style="fill:#a9a9a9;fill-opacity:0.5;stroke:#000000;stroke-linejoin:miter;stroke-width:0.621389;"/>
   </g>
   <g id="patch_114">
    <path clip-path="url(#p5c79d601b7)" d="M 180.016326 319.018125
L 185.882109 319.018125
L 185.882109 82.362854
L 180.016326 82.362854
z
" style="fill:#a9a9a9;fill-opacity:0.5;stroke:#000000;stroke-linejoin:miter;stroke-width:0.621389;"/>
   </g>
   <g id="patch_115">
    <path clip-path="url(#p5c79d601b7)" d="M 185.882109 319.018125
L 191.747891 319.018125
L 191.747891 49.379541
L 185.882109 49.379541
z
" style="fill:#a9a9a9;fill-opacity:0.5;stroke:#000000;stroke-linejoin:miter;stroke-width:0.621389;"/>
   </g>
   <g id="patch_116">
    <path clip-path="url(#p5c79d601b7)" d="M 191.747891 319.018125
L 197.613674 319.018125
L 197.613674 29.589554
L 191.747891 29.589554
z
" style="fill:#a9a9a9;fill-opacity:0.5;stroke:#000000;stroke-linejoin:miter;stroke-width:0.621389;"/>
   </g>
   <g id="patch_117">
    <path clip-path="url(#p5c79d601b7)" d="M 197.613674 319.018125
L 203.479457 319.018125
L 203.479457 58.449952
L 197.613674 58.449952
z
" style="fill:#a9a9a9;fill-opacity:0.5;stroke:#000000;stroke-linejoin:miter;stroke-width:0.621389;"/>
   </g>
   <g id="patch_118">
    <path clip-path="url(#p5c79d601b7)" d="M 203.479457 319.018125
L 209.34524 319.018125
L 209.34524 84.836603
L 203.479457 84.836603
z
" style="fill:#a9a9a9;fill-opacity:0.5;stroke:#000000;stroke-linejoin:miter;stroke-width:0.621389;"/>
   </g>
   <g id="patch_119">
    <path clip-path="url(#p5c79d601b7)" d="M 209.34524 319.018125
L 215.211023 319.018125
L 215.211023 79.889106
L 209.34524 79.889106
z
" style="fill:#a9a9a9;fill-opacity:0.5;stroke:#000000;stroke-linejoin:miter;stroke-width:0.621389;"/>
   </g>
   <g id="patch_120">
    <path clip-path="url(#p5c79d601b7)" d="M 215.211023 319.018125
L 221.076806 319.018125
L 221.076806 108.749505
L 215.211023 108.749505
z
" style="fill:#a9a9a9;fill-opacity:0.5;stroke:#000000;stroke-linejoin:miter;stroke-width:0.621389;"/>
   </g>
   <g id="patch_121">
    <path clip-path="url(#p5c79d601b7)" d="M 221.076806 319.018125
L 226.942588 319.018125
L 226.942588 139.259069
L 221.076806 139.259069
z
" style="fill:#a9a9a9;fill-opacity:0.5;stroke:#000000;stroke-linejoin:miter;stroke-width:0.621389;"/>
   </g>
   <g id="patch_122">
    <path clip-path="url(#p5c79d601b7)" d="M 226.942588 319.018125
L 232.808371 319.018125
L 232.808371 140.908235
L 226.942588 140.908235
z
" style="fill:#a9a9a9;fill-opacity:0.5;stroke:#000000;stroke-linejoin:miter;stroke-width:0.621389;"/>
   </g>
   <g id="patch_123">
    <path clip-path="url(#p5c79d601b7)" d="M 232.808371 319.018125
L 238.674154 319.018125
L 238.674154 186.26029
L 232.808371 186.26029
z
" style="fill:#a9a9a9;fill-opacity:0.5;stroke:#000000;stroke-linejoin:miter;stroke-width:0.621389;"/>
   </g>
   <g id="patch_124">
    <path clip-path="url(#p5c79d601b7)" d="M 238.674154 319.018125
L 244.539937 319.018125
L 244.539937 210.173192
L 238.674154 210.173192
z
" style="fill:#a9a9a9;fill-opacity:0.5;stroke:#000000;stroke-linejoin:miter;stroke-width:0.621389;"/>
   </g>
   <g id="patch_125">
    <path clip-path="url(#p5c79d601b7)" d="M 244.539937 319.018125
L 250.40572 319.018125
L 250.40572 209.348609
L 244.539937 209.348609
z
" style="fill:#a9a9a9;fill-opacity:0.5;stroke:#000000;stroke-linejoin:miter;stroke-width:0.621389;"/>
   </g>
   <g id="patch_126">
    <path clip-path="url(#p5c79d601b7)" d="M 250.40572 319.018125
L 256.271503 319.018125
L 256.271503 293.456057
L 250.40572 293.456057
z
" style="fill:#a9a9a9;fill-opacity:0.5;stroke:#000000;stroke-linejoin:miter;stroke-width:0.621389;"/>
   </g>
   <g id="patch_127">
    <path clip-path="url(#p5c79d601b7)" d="M 256.271503 319.018125
L 262.137285 319.018125
L 262.137285 319.018125
L 256.271503 319.018125
z
" style="fill:#a9a9a9;fill-opacity:0.5;stroke:#000000;stroke-linejoin:miter;stroke-width:0.621389;"/>
   </g>
   <g id="patch_128">
    <path clip-path="url(#p5c79d601b7)" d="M 262.137285 319.018125
L 268.003068 319.018125
L 268.003068 319.018125
L 262.137285 319.018125
z
" style="fill:#a9a9a9;fill-opacity:0.5;stroke:#000000;stroke-linejoin:miter;stroke-width:0.621389;"/>
   </g>
   <g id="patch_129">
    <path clip-path="url(#p5c79d601b7)" d="M 268.003068 319.018125
L 273.868851 319.018125
L 273.868851 319.018125
L 268.003068 319.018125
z
" style="fill:#a9a9a9;fill-opacity:0.5;stroke:#000000;stroke-linejoin:miter;stroke-width:0.621389;"/>
   </g>
   <g id="patch_130">
    <path clip-path="url(#p5c79d601b7)" d="M 273.868851 319.018125
L 279.734634 319.018125
L 279.734634 319.018125
L 273.868851 319.018125
z
" style="fill:#a9a9a9;fill-opacity:0.5;stroke:#000000;stroke-linejoin:miter;stroke-width:0.621389;"/>
   </g>
   <g id="patch_131">
    <path clip-path="url(#p5c79d601b7)" d="M 279.734634 319.018125
L 285.600417 319.018125
L 285.600417 319.018125
L 279.734634 319.018125
z
" style="fill:#a9a9a9;fill-opacity:0.5;stroke:#000000;stroke-linejoin:miter;stroke-width:0.621389;"/>
   </g>
   <g id="patch_132">
    <path clip-path="url(#p5c79d601b7)" d="M 285.600417 319.018125
L 291.466199 319.018125
L 291.466199 319.018125
L 285.600417 319.018125
z
" style="fill:#a9a9a9;fill-opacity:0.5;stroke:#000000;stroke-linejoin:miter;stroke-width:0.621389;"/>
   </g>
   <g id="patch_133">
    <path clip-path="url(#p5c79d601b7)" d="M 291.466199 319.018125
L 297.331982 319.018125
L 297.331982 319.018125
L 291.466199 319.018125
z
" style="fill:#a9a9a9;fill-opacity:0.5;stroke:#000000;stroke-linejoin:miter;stroke-width:0.621389;"/>
   </g>
   <g id="patch_134">
    <path clip-path="url(#p5c79d601b7)" d="M 297.331982 319.018125
L 303.197765 319.018125
L 303.197765 319.018125
L 297.331982 319.018125
z
" style="fill:#a9a9a9;fill-opacity:0.5;stroke:#000000;stroke-linejoin:miter;stroke-width:0.621389;"/>
   </g>
   <g id="patch_135">
    <path clip-path="url(#p5c79d601b7)" d="M 303.197765 319.018125
L 309.063548 319.018125
L 309.063548 319.018125
L 303.197765 319.018125
z
" style="fill:#a9a9a9;fill-opacity:0.5;stroke:#000000;stroke-linejoin:miter;stroke-width:0.621389;"/>
   </g>
   <g id="patch_136">
    <path clip-path="url(#p5c79d601b7)" d="M 309.063548 319.018125
L 314.929331 319.018125
L 314.929331 319.018125
L 309.063548 319.018125
z
" style="fill:#a9a9a9;fill-opacity:0.5;stroke:#000000;stroke-linejoin:miter;stroke-width:0.621389;"/>
   </g>
   <g id="patch_137">
    <path clip-path="url(#p5c79d601b7)" d="M 314.929331 319.018125
L 320.795114 319.018125
L 320.795114 319.018125
L 314.929331 319.018125
z
" style="fill:#a9a9a9;fill-opacity:0.5;stroke:#000000;stroke-linejoin:miter;stroke-width:0.621389;"/>
   </g>
   <g id="matplotlib.axis_1">
    <g id="xtick_1">
     <g id="line2d_1">
      <defs>
       <path d="M 0 0
L 0 3.5
" id="m8edb340b73" style="stroke:#000000;stroke-width:0.8;"/>
      </defs>
      <g>
       <use style="stroke:#000000;stroke-width:0.8;" x="47.606735" xlink:href="#m8edb340b73" y="319.018125"/>
      </g>
     </g>
     <g id="text_1">
      <!-- 0.0 -->
      <defs>
       <path d="M 31.78125 66.40625
Q 24.171875 66.40625 20.328125 58.90625
Q 16.5 51.421875 16.5 36.375
Q 16.5 21.390625 20.328125 13.890625
Q 24.171875 6.390625 31.78125 6.390625
Q 39.453125 6.390625 43.28125 13.890625
Q 47.125 21.390625 47.125 36.375
Q 47.125 51.421875 43.28125 58.90625
Q 39.453125 66.40625 31.78125 66.40625
z
M 31.78125 74.21875
Q 44.046875 74.21875 50.515625 64.515625
Q 56.984375 54.828125 56.984375 36.375
Q 56.984375 17.96875 50.515625 8.265625
Q 44.046875 -1.421875 31.78125 -1.421875
Q 19.53125 -1.421875 13.0625 8.265625
Q 6.59375 17.96875 6.59375 36.375
Q 6.59375 54.828125 13.0625 64.515625
Q 19.53125 74.21875 31.78125 74.21875
z
" id="DejaVuSans-48"/>
       <path d="M 10.6875 12.40625
L 21 12.40625
L 21 0
L 10.6875 0
z
" id="DejaVuSans-46"/>
      </defs>
      <g transform="translate(39.655172 333.616562)scale(0.1 -0.1)">
       <use xlink:href="#DejaVuSans-48"/>
       <use x="63.623047" xlink:href="#DejaVuSans-46"/>
       <use x="95.410156" xlink:href="#DejaVuSans-48"/>
      </g>
     </g>
    </g>
    <g id="xtick_2">
     <g id="line2d_2">
      <g>
       <use style="stroke:#000000;stroke-width:0.8;" x="87.084596" xlink:href="#m8edb340b73" y="319.018125"/>
      </g>
     </g>
     <g id="text_2">
      <!-- 0.1 -->
      <defs>
       <path d="M 12.40625 8.296875
L 28.515625 8.296875
L 28.515625 63.921875
L 10.984375 60.40625
L 10.984375 69.390625
L 28.421875 72.90625
L 38.28125 72.90625
L 38.28125 8.296875
L 54.390625 8.296875
L 54.390625 0
L 12.40625 0
z
" id="DejaVuSans-49"/>
      </defs>
      <g transform="translate(79.133034 333.616562)scale(0.1 -0.1)">
       <use xlink:href="#DejaVuSans-48"/>
       <use x="63.623047" xlink:href="#DejaVuSans-46"/>
       <use x="95.410156" xlink:href="#DejaVuSans-49"/>
      </g>
     </g>
    </g>
    <g id="xtick_3">
     <g id="line2d_3">
      <g>
       <use style="stroke:#000000;stroke-width:0.8;" x="126.562458" xlink:href="#m8edb340b73" y="319.018125"/>
      </g>
     </g>
     <g id="text_3">
      <!-- 0.2 -->
      <defs>
       <path d="M 19.1875 8.296875
L 53.609375 8.296875
L 53.609375 0
L 7.328125 0
L 7.328125 8.296875
Q 12.9375 14.109375 22.625 23.890625
Q 32.328125 33.6875 34.8125 36.53125
Q 39.546875 41.84375 41.421875 45.53125
Q 43.3125 49.21875 43.3125 52.78125
Q 43.3125 58.59375 39.234375 62.25
Q 35.15625 65.921875 28.609375 65.921875
Q 23.96875 65.921875 18.8125 64.3125
Q 13.671875 62.703125 7.8125 59.421875
L 7.8125 69.390625
Q 13.765625 71.78125 18.9375 73
Q 24.125 74.21875 28.421875 74.21875
Q 39.75 74.21875 46.484375 68.546875
Q 53.21875 62.890625 53.21875 53.421875
Q 53.21875 48.921875 51.53125 44.890625
Q 49.859375 40.875 45.40625 35.40625
Q 44.1875 33.984375 37.640625 27.21875
Q 31.109375 20.453125 19.1875 8.296875
z
" id="DejaVuSans-50"/>
      </defs>
      <g transform="translate(118.610895 333.616562)scale(0.1 -0.1)">
       <use xlink:href="#DejaVuSans-48"/>
       <use x="63.623047" xlink:href="#DejaVuSans-46"/>
       <use x="95.410156" xlink:href="#DejaVuSans-50"/>
      </g>
     </g>
    </g>
    <g id="xtick_4">
     <g id="line2d_4">
      <g>
       <use style="stroke:#000000;stroke-width:0.8;" x="166.040319" xlink:href="#m8edb340b73" y="319.018125"/>
      </g>
     </g>
     <g id="text_4">
      <!-- 0.3 -->
      <defs>
       <path d="M 40.578125 39.3125
Q 47.65625 37.796875 51.625 33
Q 55.609375 28.21875 55.609375 21.1875
Q 55.609375 10.40625 48.1875 4.484375
Q 40.765625 -1.421875 27.09375 -1.421875
Q 22.515625 -1.421875 17.65625 -0.515625
Q 12.796875 0.390625 7.625 2.203125
L 7.625 11.71875
Q 11.71875 9.328125 16.59375 8.109375
Q 21.484375 6.890625 26.8125 6.890625
Q 36.078125 6.890625 40.9375 10.546875
Q 45.796875 14.203125 45.796875 21.1875
Q 45.796875 27.640625 41.28125 31.265625
Q 36.765625 34.90625 28.71875 34.90625
L 20.21875 34.90625
L 20.21875 43.015625
L 29.109375 43.015625
Q 36.375 43.015625 40.234375 45.921875
Q 44.09375 48.828125 44.09375 54.296875
Q 44.09375 59.90625 40.109375 62.90625
Q 36.140625 65.921875 28.71875 65.921875
Q 24.65625 65.921875 20.015625 65.03125
Q 15.375 64.15625 9.8125 62.3125
L 9.8125 71.09375
Q 15.4375 72.65625 20.34375 73.4375
Q 25.25 74.21875 29.59375 74.21875
Q 40.828125 74.21875 47.359375 69.109375
Q 53.90625 64.015625 53.90625 55.328125
Q 53.90625 49.265625 50.4375 45.09375
Q 46.96875 40.921875 40.578125 39.3125
z
" id="DejaVuSans-51"/>
      </defs>
      <g transform="translate(158.088757 333.616562)scale(0.1 -0.1)">
       <use xlink:href="#DejaVuSans-48"/>
       <use x="63.623047" xlink:href="#DejaVuSans-46"/>
       <use x="95.410156" xlink:href="#DejaVuSans-51"/>
      </g>
     </g>
    </g>
    <g id="xtick_5">
     <g id="line2d_5">
      <g>
       <use style="stroke:#000000;stroke-width:0.8;" x="205.518181" xlink:href="#m8edb340b73" y="319.018125"/>
      </g>
     </g>
     <g id="text_5">
      <!-- 0.4 -->
      <defs>
       <path d="M 37.796875 64.3125
L 12.890625 25.390625
L 37.796875 25.390625
z
M 35.203125 72.90625
L 47.609375 72.90625
L 47.609375 25.390625
L 58.015625 25.390625
L 58.015625 17.1875
L 47.609375 17.1875
L 47.609375 0
L 37.796875 0
L 37.796875 17.1875
L 4.890625 17.1875
L 4.890625 26.703125
z
" id="DejaVuSans-52"/>
      </defs>
      <g transform="translate(197.566618 333.616562)scale(0.1 -0.1)">
       <use xlink:href="#DejaVuSans-48"/>
       <use x="63.623047" xlink:href="#DejaVuSans-46"/>
       <use x="95.410156" xlink:href="#DejaVuSans-52"/>
      </g>
     </g>
    </g>
    <g id="xtick_6">
     <g id="line2d_6">
      <g>
       <use style="stroke:#000000;stroke-width:0.8;" x="244.996042" xlink:href="#m8edb340b73" y="319.018125"/>
      </g>
     </g>
     <g id="text_6">
      <!-- 0.5 -->
      <defs>
       <path d="M 10.796875 72.90625
L 49.515625 72.90625
L 49.515625 64.59375
L 19.828125 64.59375
L 19.828125 46.734375
Q 21.96875 47.46875 24.109375 47.828125
Q 26.265625 48.1875 28.421875 48.1875
Q 40.625 48.1875 47.75 41.5
Q 54.890625 34.8125 54.890625 23.390625
Q 54.890625 11.625 47.5625 5.09375
Q 40.234375 -1.421875 26.90625 -1.421875
Q 22.3125 -1.421875 17.546875 -0.640625
Q 12.796875 0.140625 7.71875 1.703125
L 7.71875 11.625
Q 12.109375 9.234375 16.796875 8.0625
Q 21.484375 6.890625 26.703125 6.890625
Q 35.15625 6.890625 40.078125 11.328125
Q 45.015625 15.765625 45.015625 23.390625
Q 45.015625 31 40.078125 35.4375
Q 35.15625 39.890625 26.703125 39.890625
Q 22.75 39.890625 18.8125 39.015625
Q 14.890625 38.140625 10.796875 36.28125
z
" id="DejaVuSans-53"/>
      </defs>
      <g transform="translate(237.044479 333.616562)scale(0.1 -0.1)">
       <use xlink:href="#DejaVuSans-48"/>
       <use x="63.623047" xlink:href="#DejaVuSans-46"/>
       <use x="95.410156" xlink:href="#DejaVuSans-53"/>
      </g>
     </g>
    </g>
    <g id="xtick_7">
     <g id="line2d_7">
      <g>
       <use style="stroke:#000000;stroke-width:0.8;" x="284.473903" xlink:href="#m8edb340b73" y="319.018125"/>
      </g>
     </g>
     <g id="text_7">
      <!-- 0.6 -->
      <defs>
       <path d="M 33.015625 40.375
Q 26.375 40.375 22.484375 35.828125
Q 18.609375 31.296875 18.609375 23.390625
Q 18.609375 15.53125 22.484375 10.953125
Q 26.375 6.390625 33.015625 6.390625
Q 39.65625 6.390625 43.53125 10.953125
Q 47.40625 15.53125 47.40625 23.390625
Q 47.40625 31.296875 43.53125 35.828125
Q 39.65625 40.375 33.015625 40.375
z
M 52.59375 71.296875
L 52.59375 62.3125
Q 48.875 64.0625 45.09375 64.984375
Q 41.3125 65.921875 37.59375 65.921875
Q 27.828125 65.921875 22.671875 59.328125
Q 17.53125 52.734375 16.796875 39.40625
Q 19.671875 43.65625 24.015625 45.921875
Q 28.375 48.1875 33.59375 48.1875
Q 44.578125 48.1875 50.953125 41.515625
Q 57.328125 34.859375 57.328125 23.390625
Q 57.328125 12.15625 50.6875 5.359375
Q 44.046875 -1.421875 33.015625 -1.421875
Q 20.359375 -1.421875 13.671875 8.265625
Q 6.984375 17.96875 6.984375 36.375
Q 6.984375 53.65625 15.1875 63.9375
Q 23.390625 74.21875 37.203125 74.21875
Q 40.921875 74.21875 44.703125 73.484375
Q 48.484375 72.75 52.59375 71.296875
z
" id="DejaVuSans-54"/>
      </defs>
      <g transform="translate(276.522341 333.616562)scale(0.1 -0.1)">
       <use xlink:href="#DejaVuSans-48"/>
       <use x="63.623047" xlink:href="#DejaVuSans-46"/>
       <use x="95.410156" xlink:href="#DejaVuSans-54"/>
      </g>
     </g>
    </g>
    <g id="xtick_8">
     <g id="line2d_8">
      <g>
       <use style="stroke:#000000;stroke-width:0.8;" x="323.951765" xlink:href="#m8edb340b73" y="319.018125"/>
      </g>
     </g>
     <g id="text_8">
      <!-- 0.7 -->
      <defs>
       <path d="M 8.203125 72.90625
L 55.078125 72.90625
L 55.078125 68.703125
L 28.609375 0
L 18.3125 0
L 43.21875 64.59375
L 8.203125 64.59375
z
" id="DejaVuSans-55"/>
      </defs>
      <g transform="translate(316.000202 333.616562)scale(0.1 -0.1)">
       <use xlink:href="#DejaVuSans-48"/>
       <use x="63.623047" xlink:href="#DejaVuSans-46"/>
       <use x="95.410156" xlink:href="#DejaVuSans-55"/>
      </g>
     </g>
    </g>
    <g id="text_9">
     <!-- Transcriptional similarity score -->
     <defs>
      <path d="M -0.296875 72.90625
L 61.375 72.90625
L 61.375 64.59375
L 35.5 64.59375
L 35.5 0
L 25.59375 0
L 25.59375 64.59375
L -0.296875 64.59375
z
" id="DejaVuSans-84"/>
      <path d="M 41.109375 46.296875
Q 39.59375 47.171875 37.8125 47.578125
Q 36.03125 48 33.890625 48
Q 26.265625 48 22.1875 43.046875
Q 18.109375 38.09375 18.109375 28.8125
L 18.109375 0
L 9.078125 0
L 9.078125 54.6875
L 18.109375 54.6875
L 18.109375 46.1875
Q 20.953125 51.171875 25.484375 53.578125
Q 30.03125 56 36.53125 56
Q 37.453125 56 38.578125 55.875
Q 39.703125 55.765625 41.0625 55.515625
z
" id="DejaVuSans-114"/>
      <path d="M 34.28125 27.484375
Q 23.390625 27.484375 19.1875 25
Q 14.984375 22.515625 14.984375 16.5
Q 14.984375 11.71875 18.140625 8.90625
Q 21.296875 6.109375 26.703125 6.109375
Q 34.1875 6.109375 38.703125 11.40625
Q 43.21875 16.703125 43.21875 25.484375
L 43.21875 27.484375
z
M 52.203125 31.203125
L 52.203125 0
L 43.21875 0
L 43.21875 8.296875
Q 40.140625 3.328125 35.546875 0.953125
Q 30.953125 -1.421875 24.3125 -1.421875
Q 15.921875 -1.421875 10.953125 3.296875
Q 6 8.015625 6 15.921875
Q 6 25.140625 12.171875 29.828125
Q 18.359375 34.515625 30.609375 34.515625
L 43.21875 34.515625
L 43.21875 35.40625
Q 43.21875 41.609375 39.140625 45
Q 35.0625 48.390625 27.6875 48.390625
Q 23 48.390625 18.546875 47.265625
Q 14.109375 46.140625 10.015625 43.890625
L 10.015625 52.203125
Q 14.9375 54.109375 19.578125 55.046875
Q 24.21875 56 28.609375 56
Q 40.484375 56 46.34375 49.84375
Q 52.203125 43.703125 52.203125 31.203125
z
" id="DejaVuSans-97"/>
      <path d="M 54.890625 33.015625
L 54.890625 0
L 45.90625 0
L 45.90625 32.71875
Q 45.90625 40.484375 42.875 44.328125
Q 39.84375 48.1875 33.796875 48.1875
Q 26.515625 48.1875 22.3125 43.546875
Q 18.109375 38.921875 18.109375 30.90625
L 18.109375 0
L 9.078125 0
L 9.078125 54.6875
L 18.109375 54.6875
L 18.109375 46.1875
Q 21.34375 51.125 25.703125 53.5625
Q 30.078125 56 35.796875 56
Q 45.21875 56 50.046875 50.171875
Q 54.890625 44.34375 54.890625 33.015625
z
" id="DejaVuSans-110"/>
      <path d="M 44.28125 53.078125
L 44.28125 44.578125
Q 40.484375 46.53125 36.375 47.5
Q 32.28125 48.484375 27.875 48.484375
Q 21.1875 48.484375 17.84375 46.4375
Q 14.5 44.390625 14.5 40.28125
Q 14.5 37.15625 16.890625 35.375
Q 19.28125 33.59375 26.515625 31.984375
L 29.59375 31.296875
Q 39.15625 29.25 43.1875 25.515625
Q 47.21875 21.78125 47.21875 15.09375
Q 47.21875 7.46875 41.1875 3.015625
Q 35.15625 -1.421875 24.609375 -1.421875
Q 20.21875 -1.421875 15.453125 -0.5625
Q 10.6875 0.296875 5.421875 2
L 5.421875 11.28125
Q 10.40625 8.6875 15.234375 7.390625
Q 20.0625 6.109375 24.8125 6.109375
Q 31.15625 6.109375 34.5625 8.28125
Q 37.984375 10.453125 37.984375 14.40625
Q 37.984375 18.0625 35.515625 20.015625
Q 33.0625 21.96875 24.703125 23.78125
L 21.578125 24.515625
Q 13.234375 26.265625 9.515625 29.90625
Q 5.8125 33.546875 5.8125 39.890625
Q 5.8125 47.609375 11.28125 51.796875
Q 16.75 56 26.8125 56
Q 31.78125 56 36.171875 55.265625
Q 40.578125 54.546875 44.28125 53.078125
z
" id="DejaVuSans-115"/>
      <path d="M 48.78125 52.59375
L 48.78125 44.1875
Q 44.96875 46.296875 41.140625 47.34375
Q 37.3125 48.390625 33.40625 48.390625
Q 24.65625 48.390625 19.8125 42.84375
Q 14.984375 37.3125 14.984375 27.296875
Q 14.984375 17.28125 19.8125 11.734375
Q 24.65625 6.203125 33.40625 6.203125
Q 37.3125 6.203125 41.140625 7.25
Q 44.96875 8.296875 48.78125 10.40625
L 48.78125 2.09375
Q 45.015625 0.34375 40.984375 -0.53125
Q 36.96875 -1.421875 32.421875 -1.421875
Q 20.0625 -1.421875 12.78125 6.34375
Q 5.515625 14.109375 5.515625 27.296875
Q 5.515625 40.671875 12.859375 48.328125
Q 20.21875 56 33.015625 56
Q 37.15625 56 41.109375 55.140625
Q 45.0625 54.296875 48.78125 52.59375
z
" id="DejaVuSans-99"/>
      <path d="M 9.421875 54.6875
L 18.40625 54.6875
L 18.40625 0
L 9.421875 0
z
M 9.421875 75.984375
L 18.40625 75.984375
L 18.40625 64.59375
L 9.421875 64.59375
z
" id="DejaVuSans-105"/>
      <path d="M 18.109375 8.203125
L 18.109375 -20.796875
L 9.078125 -20.796875
L 9.078125 54.6875
L 18.109375 54.6875
L 18.109375 46.390625
Q 20.953125 51.265625 25.265625 53.625
Q 29.59375 56 35.59375 56
Q 45.5625 56 51.78125 48.09375
Q 58.015625 40.1875 58.015625 27.296875
Q 58.015625 14.40625 51.78125 6.484375
Q 45.5625 -1.421875 35.59375 -1.421875
Q 29.59375 -1.421875 25.265625 0.953125
Q 20.953125 3.328125 18.109375 8.203125
z
M 48.6875 27.296875
Q 48.6875 37.203125 44.609375 42.84375
Q 40.53125 48.484375 33.40625 48.484375
Q 26.265625 48.484375 22.1875 42.84375
Q 18.109375 37.203125 18.109375 27.296875
Q 18.109375 17.390625 22.1875 11.75
Q 26.265625 6.109375 33.40625 6.109375
Q 40.53125 6.109375 44.609375 11.75
Q 48.6875 17.390625 48.6875 27.296875
z
" id="DejaVuSans-112"/>
      <path d="M 18.3125 70.21875
L 18.3125 54.6875
L 36.8125 54.6875
L 36.8125 47.703125
L 18.3125 47.703125
L 18.3125 18.015625
Q 18.3125 11.328125 20.140625 9.421875
Q 21.96875 7.515625 27.59375 7.515625
L 36.8125 7.515625
L 36.8125 0
L 27.59375 0
Q 17.1875 0 13.234375 3.875
Q 9.28125 7.765625 9.28125 18.015625
L 9.28125 47.703125
L 2.6875 47.703125
L 2.6875 54.6875
L 9.28125 54.6875
L 9.28125 70.21875
z
" id="DejaVuSans-116"/>
      <path d="M 30.609375 48.390625
Q 23.390625 48.390625 19.1875 42.75
Q 14.984375 37.109375 14.984375 27.296875
Q 14.984375 17.484375 19.15625 11.84375
Q 23.34375 6.203125 30.609375 6.203125
Q 37.796875 6.203125 41.984375 11.859375
Q 46.1875 17.53125 46.1875 27.296875
Q 46.1875 37.015625 41.984375 42.703125
Q 37.796875 48.390625 30.609375 48.390625
z
M 30.609375 56
Q 42.328125 56 49.015625 48.375
Q 55.71875 40.765625 55.71875 27.296875
Q 55.71875 13.875 49.015625 6.21875
Q 42.328125 -1.421875 30.609375 -1.421875
Q 18.84375 -1.421875 12.171875 6.21875
Q 5.515625 13.875 5.515625 27.296875
Q 5.515625 40.765625 12.171875 48.375
Q 18.84375 56 30.609375 56
z
" id="DejaVuSans-111"/>
      <path d="M 9.421875 75.984375
L 18.40625 75.984375
L 18.40625 0
L 9.421875 0
z
" id="DejaVuSans-108"/>
      <path id="DejaVuSans-32"/>
      <path d="M 52 44.1875
Q 55.375 50.25 60.0625 53.125
Q 64.75 56 71.09375 56
Q 79.640625 56 84.28125 50.015625
Q 88.921875 44.046875 88.921875 33.015625
L 88.921875 0
L 79.890625 0
L 79.890625 32.71875
Q 79.890625 40.578125 77.09375 44.375
Q 74.3125 48.1875 68.609375 48.1875
Q 61.625 48.1875 57.5625 43.546875
Q 53.515625 38.921875 53.515625 30.90625
L 53.515625 0
L 44.484375 0
L 44.484375 32.71875
Q 44.484375 40.625 41.703125 44.40625
Q 38.921875 48.1875 33.109375 48.1875
Q 26.21875 48.1875 22.15625 43.53125
Q 18.109375 38.875 18.109375 30.90625
L 18.109375 0
L 9.078125 0
L 9.078125 54.6875
L 18.109375 54.6875
L 18.109375 46.1875
Q 21.1875 51.21875 25.484375 53.609375
Q 29.78125 56 35.6875 56
Q 41.65625 56 45.828125 52.96875
Q 50 49.953125 52 44.1875
z
" id="DejaVuSans-109"/>
      <path d="M 32.171875 -5.078125
Q 28.375 -14.84375 24.75 -17.8125
Q 21.140625 -20.796875 15.09375 -20.796875
L 7.90625 -20.796875
L 7.90625 -13.28125
L 13.1875 -13.28125
Q 16.890625 -13.28125 18.9375 -11.515625
Q 21 -9.765625 23.484375 -3.21875
L 25.09375 0.875
L 2.984375 54.6875
L 12.5 54.6875
L 29.59375 11.921875
L 46.6875 54.6875
L 56.203125 54.6875
z
" id="DejaVuSans-121"/>
      <path d="M 56.203125 29.59375
L 56.203125 25.203125
L 14.890625 25.203125
Q 15.484375 15.921875 20.484375 11.0625
Q 25.484375 6.203125 34.421875 6.203125
Q 39.59375 6.203125 44.453125 7.46875
Q 49.3125 8.734375 54.109375 11.28125
L 54.109375 2.78125
Q 49.265625 0.734375 44.1875 -0.34375
Q 39.109375 -1.421875 33.890625 -1.421875
Q 20.796875 -1.421875 13.15625 6.1875
Q 5.515625 13.8125 5.515625 26.8125
Q 5.515625 40.234375 12.765625 48.109375
Q 20.015625 56 32.328125 56
Q 43.359375 56 49.78125 48.890625
Q 56.203125 41.796875 56.203125 29.59375
z
M 47.21875 32.234375
Q 47.125 39.59375 43.09375 43.984375
Q 39.0625 48.390625 32.421875 48.390625
Q 24.90625 48.390625 20.390625 44.140625
Q 15.875 39.890625 15.1875 32.171875
z
" id="DejaVuSans-101"/>
     </defs>
     <g transform="translate(80.837812 350.334062)scale(0.14 -0.14)">
      <use xlink:href="#DejaVuSans-84"/>
      <use x="60.865234" xlink:href="#DejaVuSans-114"/>
      <use x="101.978516" xlink:href="#DejaVuSans-97"/>
      <use x="163.257812" xlink:href="#DejaVuSans-110"/>
      <use x="226.636719" xlink:href="#DejaVuSans-115"/>
      <use x="278.736328" xlink:href="#DejaVuSans-99"/>
      <use x="333.716797" xlink:href="#DejaVuSans-114"/>
      <use x="374.830078" xlink:href="#DejaVuSans-105"/>
      <use x="402.613281" xlink:href="#DejaVuSans-112"/>
      <use x="466.089844" xlink:href="#DejaVuSans-116"/>
      <use x="505.298828" xlink:href="#DejaVuSans-105"/>
      <use x="533.082031" xlink:href="#DejaVuSans-111"/>
      <use x="594.263672" xlink:href="#DejaVuSans-110"/>
      <use x="657.642578" xlink:href="#DejaVuSans-97"/>
      <use x="718.921875" xlink:href="#DejaVuSans-108"/>
      <use x="746.705078" xlink:href="#DejaVuSans-32"/>
      <use x="778.492188" xlink:href="#DejaVuSans-115"/>
      <use x="830.591797" xlink:href="#DejaVuSans-105"/>
      <use x="858.375" xlink:href="#DejaVuSans-109"/>
      <use x="955.787109" xlink:href="#DejaVuSans-105"/>
      <use x="983.570312" xlink:href="#DejaVuSans-108"/>
      <use x="1011.353516" xlink:href="#DejaVuSans-97"/>
      <use x="1072.632812" xlink:href="#DejaVuSans-114"/>
      <use x="1113.746094" xlink:href="#DejaVuSans-105"/>
      <use x="1141.529297" xlink:href="#DejaVuSans-116"/>
      <use x="1180.738281" xlink:href="#DejaVuSans-121"/>
      <use x="1239.917969" xlink:href="#DejaVuSans-32"/>
      <use x="1271.705078" xlink:href="#DejaVuSans-115"/>
      <use x="1323.804688" xlink:href="#DejaVuSans-99"/>
      <use x="1378.785156" xlink:href="#DejaVuSans-111"/>
      <use x="1439.966797" xlink:href="#DejaVuSans-114"/>
      <use x="1481.048828" xlink:href="#DejaVuSans-101"/>
     </g>
    </g>
   </g>
   <g id="matplotlib.axis_2">
    <g id="ytick_1">
     <g id="line2d_9">
      <defs>
       <path d="M 0 0
L -3.5 0
" id="mb0bb0f30ba" style="stroke:#000000;stroke-width:0.8;"/>
      </defs>
      <g>
       <use style="stroke:#000000;stroke-width:0.8;" x="43.636875" xlink:href="#mb0bb0f30ba" y="319.018125"/>
      </g>
     </g>
     <g id="text_10">
      <!-- 0 -->
      <g transform="translate(30.274375 322.817344)scale(0.1 -0.1)">
       <use xlink:href="#DejaVuSans-48"/>
      </g>
     </g>
    </g>
    <g id="ytick_2">
     <g id="line2d_10">
      <g>
       <use style="stroke:#000000;stroke-width:0.8;" x="43.636875" xlink:href="#mb0bb0f30ba" y="277.788984"/>
      </g>
     </g>
     <g id="text_11">
      <!-- 50 -->
      <g transform="translate(23.911875 281.588203)scale(0.1 -0.1)">
       <use xlink:href="#DejaVuSans-53"/>
       <use x="63.623047" xlink:href="#DejaVuSans-48"/>
      </g>
     </g>
    </g>
    <g id="ytick_3">
     <g id="line2d_11">
      <g>
       <use style="stroke:#000000;stroke-width:0.8;" x="43.636875" xlink:href="#mb0bb0f30ba" y="236.559843"/>
      </g>
     </g>
     <g id="text_12">
      <!-- 100 -->
      <g transform="translate(17.549375 240.359061)scale(0.1 -0.1)">
       <use xlink:href="#DejaVuSans-49"/>
       <use x="63.623047" xlink:href="#DejaVuSans-48"/>
       <use x="127.246094" xlink:href="#DejaVuSans-48"/>
      </g>
     </g>
    </g>
    <g id="ytick_4">
     <g id="line2d_12">
      <g>
       <use style="stroke:#000000;stroke-width:0.8;" x="43.636875" xlink:href="#mb0bb0f30ba" y="195.330701"/>
      </g>
     </g>
     <g id="text_13">
      <!-- 150 -->
      <g transform="translate(17.549375 199.12992)scale(0.1 -0.1)">
       <use xlink:href="#DejaVuSans-49"/>
       <use x="63.623047" xlink:href="#DejaVuSans-53"/>
       <use x="127.246094" xlink:href="#DejaVuSans-48"/>
      </g>
     </g>
    </g>
    <g id="ytick_5">
     <g id="line2d_13">
      <g>
       <use style="stroke:#000000;stroke-width:0.8;" x="43.636875" xlink:href="#mb0bb0f30ba" y="154.10156"/>
      </g>
     </g>
     <g id="text_14">
      <!-- 200 -->
      <g transform="translate(17.549375 157.900779)scale(0.1 -0.1)">
       <use xlink:href="#DejaVuSans-50"/>
       <use x="63.623047" xlink:href="#DejaVuSans-48"/>
       <use x="127.246094" xlink:href="#DejaVuSans-48"/>
      </g>
     </g>
    </g>
    <g id="ytick_6">
     <g id="line2d_14">
      <g>
       <use style="stroke:#000000;stroke-width:0.8;" x="43.636875" xlink:href="#mb0bb0f30ba" y="112.872419"/>
      </g>
     </g>
     <g id="text_15">
      <!-- 250 -->
      <g transform="translate(17.549375 116.671638)scale(0.1 -0.1)">
       <use xlink:href="#DejaVuSans-50"/>
       <use x="63.623047" xlink:href="#DejaVuSans-53"/>
       <use x="127.246094" xlink:href="#DejaVuSans-48"/>
      </g>
     </g>
    </g>
    <g id="ytick_7">
     <g id="line2d_15">
      <g>
       <use style="stroke:#000000;stroke-width:0.8;" x="43.636875" xlink:href="#mb0bb0f30ba" y="71.643278"/>
      </g>
     </g>
     <g id="text_16">
      <!-- 300 -->
      <g transform="translate(17.549375 75.442496)scale(0.1 -0.1)">
       <use xlink:href="#DejaVuSans-51"/>
       <use x="63.623047" xlink:href="#DejaVuSans-48"/>
       <use x="127.246094" xlink:href="#DejaVuSans-48"/>
      </g>
     </g>
    </g>
    <g id="ytick_8">
     <g id="line2d_16">
      <g>
       <use style="stroke:#000000;stroke-width:0.8;" x="43.636875" xlink:href="#mb0bb0f30ba" y="30.414136"/>
      </g>
     </g>
     <g id="text_17">
      <!-- 350 -->
      <g transform="translate(17.549375 34.213355)scale(0.1 -0.1)">
       <use xlink:href="#DejaVuSans-51"/>
       <use x="63.623047" xlink:href="#DejaVuSans-53"/>
       <use x="127.246094" xlink:href="#DejaVuSans-48"/>
      </g>
     </g>
    </g>
    <g id="text_18">
     <!-- Count -->
     <defs>
      <path d="M 64.40625 67.28125
L 64.40625 56.890625
Q 59.421875 61.53125 53.78125 63.8125
Q 48.140625 66.109375 41.796875 66.109375
Q 29.296875 66.109375 22.65625 58.46875
Q 16.015625 50.828125 16.015625 36.375
Q 16.015625 21.96875 22.65625 14.328125
Q 29.296875 6.6875 41.796875 6.6875
Q 48.140625 6.6875 53.78125 8.984375
Q 59.421875 11.28125 64.40625 15.921875
L 64.40625 5.609375
Q 59.234375 2.09375 53.4375 0.328125
Q 47.65625 -1.421875 41.21875 -1.421875
Q 24.65625 -1.421875 15.125 8.703125
Q 5.609375 18.84375 5.609375 36.375
Q 5.609375 53.953125 15.125 64.078125
Q 24.65625 74.21875 41.21875 74.21875
Q 47.75 74.21875 53.53125 72.484375
Q 59.328125 70.75 64.40625 67.28125
z
" id="DejaVuSans-67"/>
      <path d="M 8.5 21.578125
L 8.5 54.6875
L 17.484375 54.6875
L 17.484375 21.921875
Q 17.484375 14.15625 20.5 10.265625
Q 23.53125 6.390625 29.59375 6.390625
Q 36.859375 6.390625 41.078125 11.03125
Q 45.3125 15.671875 45.3125 23.6875
L 45.3125 54.6875
L 54.296875 54.6875
L 54.296875 0
L 45.3125 0
L 45.3125 8.40625
Q 42.046875 3.421875 37.71875 1
Q 33.40625 -1.421875 27.6875 -1.421875
Q 18.265625 -1.421875 13.375 4.4375
Q 8.5 10.296875 8.5 21.578125
z
M 31.109375 56
z
" id="DejaVuSans-117"/>
     </defs>
     <g transform="translate(10.637812 187.855937)rotate(-90)scale(0.14 -0.14)">
      <use xlink:href="#DejaVuSans-67"/>
      <use x="69.824219" xlink:href="#DejaVuSans-111"/>
      <use x="131.005859" xlink:href="#DejaVuSans-117"/>
      <use x="194.384766" xlink:href="#DejaVuSans-110"/>
      <use x="257.763672" xlink:href="#DejaVuSans-116"/>
     </g>
    </g>
   </g>
   <g id="patch_138">
    <path d="M 43.636875 319.018125
L 43.636875 15.118125
" style="fill:none;stroke:#000000;stroke-linecap:square;stroke-linejoin:miter;stroke-width:0.8;"/>
   </g>
   <g id="patch_139">
    <path d="M 43.636875 319.018125
L 333.993125 319.018125
" style="fill:none;stroke:#000000;stroke-linecap:square;stroke-linejoin:miter;stroke-width:0.8;"/>
   </g>
   <g id="text_19">
    <!-- Similarity of core-core modules PA14 to PAO1 -->
    <defs>
     <path d="M 53.515625 70.515625
L 53.515625 60.890625
Q 47.90625 63.578125 42.921875 64.890625
Q 37.9375 66.21875 33.296875 66.21875
Q 25.25 66.21875 20.875 63.09375
Q 16.5 59.96875 16.5 54.203125
Q 16.5 49.359375 19.40625 46.890625
Q 22.3125 44.4375 30.421875 42.921875
L 36.375 41.703125
Q 47.40625 39.59375 52.65625 34.296875
Q 57.90625 29 57.90625 20.125
Q 57.90625 9.515625 50.796875 4.046875
Q 43.703125 -1.421875 29.984375 -1.421875
Q 24.8125 -1.421875 18.96875 -0.25
Q 13.140625 0.921875 6.890625 3.21875
L 6.890625 13.375
Q 12.890625 10.015625 18.65625 8.296875
Q 24.421875 6.59375 29.984375 6.59375
Q 38.421875 6.59375 43.015625 9.90625
Q 47.609375 13.234375 47.609375 19.390625
Q 47.609375 24.75 44.3125 27.78125
Q 41.015625 30.8125 33.5 32.328125
L 27.484375 33.5
Q 16.453125 35.6875 11.515625 40.375
Q 6.59375 45.0625 6.59375 53.421875
Q 6.59375 63.09375 13.40625 68.65625
Q 20.21875 74.21875 32.171875 74.21875
Q 37.3125 74.21875 42.625 73.28125
Q 47.953125 72.359375 53.515625 70.515625
z
" id="DejaVuSans-83"/>
     <path d="M 37.109375 75.984375
L 37.109375 68.5
L 28.515625 68.5
Q 23.6875 68.5 21.796875 66.546875
Q 19.921875 64.59375 19.921875 59.515625
L 19.921875 54.6875
L 34.71875 54.6875
L 34.71875 47.703125
L 19.921875 47.703125
L 19.921875 0
L 10.890625 0
L 10.890625 47.703125
L 2.296875 47.703125
L 2.296875 54.6875
L 10.890625 54.6875
L 10.890625 58.5
Q 10.890625 67.625 15.140625 71.796875
Q 19.390625 75.984375 28.609375 75.984375
z
" id="DejaVuSans-102"/>
     <path d="M 4.890625 31.390625
L 31.203125 31.390625
L 31.203125 23.390625
L 4.890625 23.390625
z
" id="DejaVuSans-45"/>
     <path d="M 45.40625 46.390625
L 45.40625 75.984375
L 54.390625 75.984375
L 54.390625 0
L 45.40625 0
L 45.40625 8.203125
Q 42.578125 3.328125 38.25 0.953125
Q 33.9375 -1.421875 27.875 -1.421875
Q 17.96875 -1.421875 11.734375 6.484375
Q 5.515625 14.40625 5.515625 27.296875
Q 5.515625 40.1875 11.734375 48.09375
Q 17.96875 56 27.875 56
Q 33.9375 56 38.25 53.625
Q 42.578125 51.265625 45.40625 46.390625
z
M 14.796875 27.296875
Q 14.796875 17.390625 18.875 11.75
Q 22.953125 6.109375 30.078125 6.109375
Q 37.203125 6.109375 41.296875 11.75
Q 45.40625 17.390625 45.40625 27.296875
Q 45.40625 37.203125 41.296875 42.84375
Q 37.203125 48.484375 30.078125 48.484375
Q 22.953125 48.484375 18.875 42.84375
Q 14.796875 37.203125 14.796875 27.296875
z
" id="DejaVuSans-100"/>
     <path d="M 19.671875 64.796875
L 19.671875 37.40625
L 32.078125 37.40625
Q 38.96875 37.40625 42.71875 40.96875
Q 46.484375 44.53125 46.484375 51.125
Q 46.484375 57.671875 42.71875 61.234375
Q 38.96875 64.796875 32.078125 64.796875
z
M 9.8125 72.90625
L 32.078125 72.90625
Q 44.34375 72.90625 50.609375 67.359375
Q 56.890625 61.8125 56.890625 51.125
Q 56.890625 40.328125 50.609375 34.8125
Q 44.34375 29.296875 32.078125 29.296875
L 19.671875 29.296875
L 19.671875 0
L 9.8125 0
z
" id="DejaVuSans-80"/>
     <path d="M 34.1875 63.1875
L 20.796875 26.90625
L 47.609375 26.90625
z
M 28.609375 72.90625
L 39.796875 72.90625
L 67.578125 0
L 57.328125 0
L 50.6875 18.703125
L 17.828125 18.703125
L 11.1875 0
L 0.78125 0
z
" id="DejaVuSans-65"/>
     <path d="M 39.40625 66.21875
Q 28.65625 66.21875 22.328125 58.203125
Q 16.015625 50.203125 16.015625 36.375
Q 16.015625 22.609375 22.328125 14.59375
Q 28.65625 6.59375 39.40625 6.59375
Q 50.140625 6.59375 56.421875 14.59375
Q 62.703125 22.609375 62.703125 36.375
Q 62.703125 50.203125 56.421875 58.203125
Q 50.140625 66.21875 39.40625 66.21875
z
M 39.40625 74.21875
Q 54.734375 74.21875 63.90625 63.9375
Q 73.09375 53.65625 73.09375 36.375
Q 73.09375 19.140625 63.90625 8.859375
Q 54.734375 -1.421875 39.40625 -1.421875
Q 24.03125 -1.421875 14.8125 8.828125
Q 5.609375 19.09375 5.609375 36.375
Q 5.609375 53.65625 14.8125 63.9375
Q 24.03125 74.21875 39.40625 74.21875
z
" id="DejaVuSans-79"/>
    </defs>
    <g transform="translate(51.56125 9.118125)scale(0.12 -0.12)">
     <use xlink:href="#DejaVuSans-83"/>
     <use x="63.476562" xlink:href="#DejaVuSans-105"/>
     <use x="91.259766" xlink:href="#DejaVuSans-109"/>
     <use x="188.671875" xlink:href="#DejaVuSans-105"/>
     <use x="216.455078" xlink:href="#DejaVuSans-108"/>
     <use x="244.238281" xlink:href="#DejaVuSans-97"/>
     <use x="305.517578" xlink:href="#DejaVuSans-114"/>
     <use x="346.630859" xlink:href="#DejaVuSans-105"/>
     <use x="374.414062" xlink:href="#DejaVuSans-116"/>
     <use x="413.623047" xlink:href="#DejaVuSans-121"/>
     <use x="472.802734" xlink:href="#DejaVuSans-32"/>
     <use x="504.589844" xlink:href="#DejaVuSans-111"/>
     <use x="565.771484" xlink:href="#DejaVuSans-102"/>
     <use x="600.976562" xlink:href="#DejaVuSans-32"/>
     <use x="632.763672" xlink:href="#DejaVuSans-99"/>
     <use x="687.744141" xlink:href="#DejaVuSans-111"/>
     <use x="748.925781" xlink:href="#DejaVuSans-114"/>
     <use x="790.007812" xlink:href="#DejaVuSans-101"/>
     <use x="851.53125" xlink:href="#DejaVuSans-45"/>
     <use x="887.615234" xlink:href="#DejaVuSans-99"/>
     <use x="942.595703" xlink:href="#DejaVuSans-111"/>
     <use x="1003.777344" xlink:href="#DejaVuSans-114"/>
     <use x="1044.859375" xlink:href="#DejaVuSans-101"/>
     <use x="1106.382812" xlink:href="#DejaVuSans-32"/>
     <use x="1138.169922" xlink:href="#DejaVuSans-109"/>
     <use x="1235.582031" xlink:href="#DejaVuSans-111"/>
     <use x="1296.763672" xlink:href="#DejaVuSans-100"/>
     <use x="1360.240234" xlink:href="#DejaVuSans-117"/>
     <use x="1423.619141" xlink:href="#DejaVuSans-108"/>
     <use x="1451.402344" xlink:href="#DejaVuSans-101"/>
     <use x="1512.925781" xlink:href="#DejaVuSans-115"/>
     <use x="1565.025391" xlink:href="#DejaVuSans-32"/>
     <use x="1596.8125" xlink:href="#DejaVuSans-80"/>
     <use x="1657.021484" xlink:href="#DejaVuSans-65"/>
     <use x="1725.429688" xlink:href="#DejaVuSans-49"/>
     <use x="1789.052734" xlink:href="#DejaVuSans-52"/>
     <use x="1852.675781" xlink:href="#DejaVuSans-32"/>
     <use x="1884.462891" xlink:href="#DejaVuSans-116"/>
     <use x="1923.671875" xlink:href="#DejaVuSans-111"/>
     <use x="1984.853516" xlink:href="#DejaVuSans-32"/>
     <use x="2016.640625" xlink:href="#DejaVuSans-80"/>
     <use x="2076.849609" xlink:href="#DejaVuSans-65"/>
     <use x="2145.242188" xlink:href="#DejaVuSans-79"/>
     <use x="2223.953125" xlink:href="#DejaVuSans-49"/>
    </g>
   </g>
  </g>
  <g id="legend_1">
   <g id="text_20">
    <!-- label -->
    <defs>
     <path d="M 48.6875 27.296875
Q 48.6875 37.203125 44.609375 42.84375
Q 40.53125 48.484375 33.40625 48.484375
Q 26.265625 48.484375 22.1875 42.84375
Q 18.109375 37.203125 18.109375 27.296875
Q 18.109375 17.390625 22.1875 11.75
Q 26.265625 6.109375 33.40625 6.109375
Q 40.53125 6.109375 44.609375 11.75
Q 48.6875 17.390625 48.6875 27.296875
z
M 18.109375 46.390625
Q 20.953125 51.265625 25.265625 53.625
Q 29.59375 56 35.59375 56
Q 45.5625 56 51.78125 48.09375
Q 58.015625 40.1875 58.015625 27.296875
Q 58.015625 14.40625 51.78125 6.484375
Q 45.5625 -1.421875 35.59375 -1.421875
Q 29.59375 -1.421875 25.265625 0.953125
Q 20.953125 3.328125 18.109375 8.203125
L 18.109375 0
L 9.078125 0
L 9.078125 75.984375
L 18.109375 75.984375
z
" id="DejaVuSans-98"/>
    </defs>
    <g transform="translate(377.766562 157.365)scale(0.1 -0.1)">
     <use xlink:href="#DejaVuSans-108"/>
     <use x="27.783203" xlink:href="#DejaVuSans-97"/>
     <use x="89.0625" xlink:href="#DejaVuSans-98"/>
     <use x="152.539062" xlink:href="#DejaVuSans-101"/>
     <use x="214.0625" xlink:href="#DejaVuSans-108"/>
    </g>
   </g>
   <g id="patch_140">
    <path d="M 346.507187 172.043125
L 366.507187 172.043125
L 366.507187 165.043125
L 346.507187 165.043125
z
" style="fill:#a9a9a9;fill-opacity:0.5;stroke:#000000;stroke-linejoin:miter;"/>
   </g>
   <g id="patch_141">
    <path d="M 346.507187 186.72125
L 366.507187 186.72125
L 366.507187 179.72125
L 346.507187 179.72125
z
" style="fill:#a6aed0;fill-opacity:0.5;stroke:#000000;stroke-linejoin:miter;"/>
   </g>
   <g id="text_21">
    <!-- least stable -->
    <g transform="translate(374.507187 186.72125)scale(0.1 -0.1)">
     <use xlink:href="#DejaVuSans-108"/>
     <use x="27.783203" xlink:href="#DejaVuSans-101"/>
     <use x="89.306641" xlink:href="#DejaVuSans-97"/>
     <use x="150.585938" xlink:href="#DejaVuSans-115"/>
     <use x="202.685547" xlink:href="#DejaVuSans-116"/>
     <use x="241.894531" xlink:href="#DejaVuSans-32"/>
     <use x="273.681641" xlink:href="#DejaVuSans-115"/>
     <use x="325.78125" xlink:href="#DejaVuSans-116"/>
     <use x="364.990234" xlink:href="#DejaVuSans-97"/>
     <use x="426.269531" xlink:href="#DejaVuSans-98"/>
     <use x="489.746094" xlink:href="#DejaVuSans-108"/>
     <use x="517.529297" xlink:href="#DejaVuSans-101"/>
    </g>
   </g>
   <g id="patch_142">
    <path d="M 346.507187 201.399375
L 366.507187 201.399375
L 366.507187 194.399375
L 346.507187 194.399375
z
" style="fill:#4e1c80;fill-opacity:0.5;stroke:#000000;stroke-linejoin:miter;"/>
   </g>
   <g id="text_22">
    <!-- most stable -->
    <g transform="translate(374.507187 201.399375)scale(0.1 -0.1)">
     <use xlink:href="#DejaVuSans-109"/>
     <use x="97.412109" xlink:href="#DejaVuSans-111"/>
     <use x="158.59375" xlink:href="#DejaVuSans-115"/>
     <use x="210.693359" xlink:href="#DejaVuSans-116"/>
     <use x="249.902344" xlink:href="#DejaVuSans-32"/>
     <use x="281.689453" xlink:href="#DejaVuSans-115"/>
     <use x="333.789062" xlink:href="#DejaVuSans-116"/>
     <use x="372.998047" xlink:href="#DejaVuSans-97"/>
     <use x="434.277344" xlink:href="#DejaVuSans-98"/>
     <use x="497.753906" xlink:href="#DejaVuSans-108"/>
     <use x="525.537109" xlink:href="#DejaVuSans-101"/>
    </g>
   </g>
  </g>
 </g>
 <defs>
  <clipPath id="p5c79d601b7">
   <rect height="303.9" width="290.35625" x="43.636875" y="15.118125"/>
  </clipPath>
 </defs>
</svg>
