<?xml version="1.0" encoding="utf-8" standalone="no"?>
<!DOCTYPE svg PUBLIC "-//W3C//DTD SVG 1.1//EN"
  "http://www.w3.org/Graphics/SVG/1.1/DTD/svg11.dtd">
<!-- Created with matplotlib (https://matplotlib.org/) -->
<svg height="600.162187pt" version="1.1" viewBox="0 0 1318.85 600.162187" width="1318.85pt" xmlns="http://www.w3.org/2000/svg" xmlns:xlink="http://www.w3.org/1999/xlink">
 <defs>
  <style type="text/css">
*{stroke-linecap:butt;stroke-linejoin:round;}
  </style>
 </defs>
 <g id="figure_1">
  <g id="patch_1">
   <path d="M -0 600.162187
L 1318.85 600.162187
L 1318.85 0
L -0 0
z
" style="fill:#ffffff;"/>
  </g>
  <g id="axes_1">
   <g id="patch_2">
    <path d="M 46.41 570.477187
L 716.01 570.477187
L 716.01 26.877187
L 46.41 26.877187
z
" style="fill:#ffffff;"/>
   </g>
   <g id="patch_3">
    <path clip-path="url(#pe12d822b85)" d="M 122.500909 570.477187
L 335.555455 570.477187
L 335.555455 570.477187
L 122.500909 570.477187
z
" style="fill:#66c2a5;"/>
   </g>
   <g id="patch_4">
    <path clip-path="url(#pe12d822b85)" d="M 426.864545 570.477187
L 639.919091 570.477187
L 639.919091 559.222529
L 426.864545 559.222529
z
" style="fill:#66c2a5;"/>
   </g>
   <g id="patch_5">
    <path clip-path="url(#pe12d822b85)" d="M 122.500909 570.477187
L 335.555455 570.477187
L 335.555455 547.967871
L 122.500909 547.967871
z
" style="fill:#66c2a5;"/>
   </g>
   <g id="patch_6">
    <path clip-path="url(#pe12d822b85)" d="M 426.864545 559.222529
L 639.919091 559.222529
L 639.919091 525.458554
L 426.864545 525.458554
z
" style="fill:#66c2a5;"/>
   </g>
   <g id="patch_7">
    <path clip-path="url(#pe12d822b85)" d="M 122.500909 570.477187
L 335.555455 570.477187
L 335.555455 570.477187
L 122.500909 570.477187
z
" style="fill:#66c2a5;"/>
   </g>
   <g id="patch_8">
    <path clip-path="url(#pe12d822b85)" d="M 426.864545 525.458554
L 639.919091 525.458554
L 639.919091 514.203896
L 426.864545 514.203896
z
" style="fill:#66c2a5;"/>
   </g>
   <g id="patch_9">
    <path clip-path="url(#pe12d822b85)" d="M 122.500909 570.477187
L 335.555455 570.477187
L 335.555455 570.477187
L 122.500909 570.477187
z
" style="fill:#fc8d62;"/>
   </g>
   <g id="patch_10">
    <path clip-path="url(#pe12d822b85)" d="M 426.864545 514.203896
L 639.919091 514.203896
L 639.919091 502.949237
L 426.864545 502.949237
z
" style="fill:#fc8d62;"/>
   </g>
   <g id="patch_11">
    <path clip-path="url(#pe12d822b85)" d="M 122.500909 570.477187
L 335.555455 570.477187
L 335.555455 570.477187
L 122.500909 570.477187
z
" style="fill:#fc8d62;"/>
   </g>
   <g id="patch_12">
    <path clip-path="url(#pe12d822b85)" d="M 426.864545 502.949237
L 639.919091 502.949237
L 639.919091 491.694579
L 426.864545 491.694579
z
" style="fill:#fc8d62;"/>
   </g>
   <g id="patch_13">
    <path clip-path="url(#pe12d822b85)" d="M 122.500909 570.477187
L 335.555455 570.477187
L 335.555455 570.477187
L 122.500909 570.477187
z
" style="fill:#fc8d62;"/>
   </g>
   <g id="patch_14">
    <path clip-path="url(#pe12d822b85)" d="M 426.864545 491.694579
L 639.919091 491.694579
L 639.919091 480.43992
L 426.864545 480.43992
z
" style="fill:#fc8d62;"/>
   </g>
   <g id="patch_15">
    <path clip-path="url(#pe12d822b85)" d="M 122.500909 570.477187
L 335.555455 570.477187
L 335.555455 570.477187
L 122.500909 570.477187
z
" style="fill:#8da0cb;"/>
   </g>
   <g id="patch_16">
    <path clip-path="url(#pe12d822b85)" d="M 426.864545 480.43992
L 639.919091 480.43992
L 639.919091 435.421287
L 426.864545 435.421287
z
" style="fill:#8da0cb;"/>
   </g>
   <g id="patch_17">
    <path clip-path="url(#pe12d822b85)" d="M 122.500909 547.967871
L 335.555455 547.967871
L 335.555455 525.458554
L 122.500909 525.458554
z
" style="fill:#8da0cb;"/>
   </g>
   <g id="patch_18">
    <path clip-path="url(#pe12d822b85)" d="M 426.864545 435.421287
L 639.919091 435.421287
L 639.919091 356.638678
L 426.864545 356.638678
z
" style="fill:#8da0cb;"/>
   </g>
   <g id="patch_19">
    <path clip-path="url(#pe12d822b85)" d="M 122.500909 570.477187
L 335.555455 570.477187
L 335.555455 570.477187
L 122.500909 570.477187
z
" style="fill:#8da0cb;"/>
   </g>
   <g id="patch_20">
    <path clip-path="url(#pe12d822b85)" d="M 426.864545 356.638678
L 639.919091 356.638678
L 639.919091 345.38402
L 426.864545 345.38402
z
" style="fill:#8da0cb;"/>
   </g>
   <g id="patch_21">
    <path clip-path="url(#pe12d822b85)" d="M 122.500909 570.477187
L 335.555455 570.477187
L 335.555455 570.477187
L 122.500909 570.477187
z
" style="fill:#e78ac3;"/>
   </g>
   <g id="patch_22">
    <path clip-path="url(#pe12d822b85)" d="M 426.864545 345.38402
L 639.919091 345.38402
L 639.919091 311.620045
L 426.864545 311.620045
z
" style="fill:#e78ac3;"/>
   </g>
   <g id="patch_23">
    <path clip-path="url(#pe12d822b85)" d="M 122.500909 570.477187
L 335.555455 570.477187
L 335.555455 570.477187
L 122.500909 570.477187
z
" style="fill:#e78ac3;"/>
   </g>
   <g id="patch_24">
    <path clip-path="url(#pe12d822b85)" d="M 426.864545 311.620045
L 639.919091 311.620045
L 639.919091 300.365386
L 426.864545 300.365386
z
" style="fill:#e78ac3;"/>
   </g>
   <g id="patch_25">
    <path clip-path="url(#pe12d822b85)" d="M 122.500909 525.458554
L 335.555455 525.458554
L 335.555455 514.203896
L 122.500909 514.203896
z
" style="fill:#e78ac3;"/>
   </g>
   <g id="patch_26">
    <path clip-path="url(#pe12d822b85)" d="M 426.864545 570.477187
L 639.919091 570.477187
L 639.919091 570.477187
L 426.864545 570.477187
z
" style="fill:#e78ac3;"/>
   </g>
   <g id="patch_27">
    <path clip-path="url(#pe12d822b85)" d="M 122.500909 570.477187
L 335.555455 570.477187
L 335.555455 570.477187
L 122.500909 570.477187
z
" style="fill:#a6d854;"/>
   </g>
   <g id="patch_28">
    <path clip-path="url(#pe12d822b85)" d="M 426.864545 300.365386
L 639.919091 300.365386
L 639.919091 289.110728
L 426.864545 289.110728
z
" style="fill:#a6d854;"/>
   </g>
   <g id="patch_29">
    <path clip-path="url(#pe12d822b85)" d="M 122.500909 570.477187
L 335.555455 570.477187
L 335.555455 570.477187
L 122.500909 570.477187
z
" style="fill:#a6d854;"/>
   </g>
   <g id="patch_30">
    <path clip-path="url(#pe12d822b85)" d="M 426.864545 289.110728
L 639.919091 289.110728
L 639.919091 277.856069
L 426.864545 277.856069
z
" style="fill:#a6d854;"/>
   </g>
   <g id="patch_31">
    <path clip-path="url(#pe12d822b85)" d="M 122.500909 570.477187
L 335.555455 570.477187
L 335.555455 570.477187
L 122.500909 570.477187
z
" style="fill:#a6d854;"/>
   </g>
   <g id="patch_32">
    <path clip-path="url(#pe12d822b85)" d="M 426.864545 277.856069
L 639.919091 277.856069
L 639.919091 266.601411
L 426.864545 266.601411
z
" style="fill:#a6d854;"/>
   </g>
   <g id="patch_33">
    <path clip-path="url(#pe12d822b85)" d="M 122.500909 514.203896
L 335.555455 514.203896
L 335.555455 502.949237
L 122.500909 502.949237
z
" style="fill:#ffd92f;"/>
   </g>
   <g id="patch_34">
    <path clip-path="url(#pe12d822b85)" d="M 426.864545 570.477187
L 639.919091 570.477187
L 639.919091 570.477187
L 426.864545 570.477187
z
" style="fill:#ffd92f;"/>
   </g>
   <g id="patch_35">
    <path clip-path="url(#pe12d822b85)" d="M 122.500909 570.477187
L 335.555455 570.477187
L 335.555455 570.477187
L 122.500909 570.477187
z
" style="fill:#ffd92f;"/>
   </g>
   <g id="patch_36">
    <path clip-path="url(#pe12d822b85)" d="M 426.864545 266.601411
L 639.919091 266.601411
L 639.919091 255.346753
L 426.864545 255.346753
z
" style="fill:#ffd92f;"/>
   </g>
   <g id="patch_37">
    <path clip-path="url(#pe12d822b85)" d="M 122.500909 502.949237
L 335.555455 502.949237
L 335.555455 491.694579
L 122.500909 491.694579
z
" style="fill:#ffd92f;"/>
   </g>
   <g id="patch_38">
    <path clip-path="url(#pe12d822b85)" d="M 426.864545 570.477187
L 639.919091 570.477187
L 639.919091 570.477187
L 426.864545 570.477187
z
" style="fill:#ffd92f;"/>
   </g>
   <g id="patch_39">
    <path clip-path="url(#pe12d822b85)" d="M 122.500909 570.477187
L 335.555455 570.477187
L 335.555455 570.477187
L 122.500909 570.477187
z
" style="fill:#e5c494;"/>
   </g>
   <g id="patch_40">
    <path clip-path="url(#pe12d822b85)" d="M 426.864545 255.346753
L 639.919091 255.346753
L 639.919091 244.092094
L 426.864545 244.092094
z
" style="fill:#e5c494;"/>
   </g>
   <g id="patch_41">
    <path clip-path="url(#pe12d822b85)" d="M 122.500909 491.694579
L 335.555455 491.694579
L 335.555455 480.43992
L 122.500909 480.43992
z
" style="fill:#e5c494;"/>
   </g>
   <g id="patch_42">
    <path clip-path="url(#pe12d822b85)" d="M 426.864545 570.477187
L 639.919091 570.477187
L 639.919091 570.477187
L 426.864545 570.477187
z
" style="fill:#e5c494;"/>
   </g>
   <g id="patch_43">
    <path clip-path="url(#pe12d822b85)" d="M 122.500909 480.43992
L 335.555455 480.43992
L 335.555455 469.185262
L 122.500909 469.185262
z
" style="fill:#e5c494;"/>
   </g>
   <g id="patch_44">
    <path clip-path="url(#pe12d822b85)" d="M 426.864545 570.477187
L 639.919091 570.477187
L 639.919091 570.477187
L 426.864545 570.477187
z
" style="fill:#e5c494;"/>
   </g>
   <g id="patch_45">
    <path clip-path="url(#pe12d822b85)" d="M 122.500909 570.477187
L 335.555455 570.477187
L 335.555455 570.477187
L 122.500909 570.477187
z
" style="fill:#b3b3b3;"/>
   </g>
   <g id="patch_46">
    <path clip-path="url(#pe12d822b85)" d="M 426.864545 244.092094
L 639.919091 244.092094
L 639.919091 232.837436
L 426.864545 232.837436
z
" style="fill:#b3b3b3;"/>
   </g>
   <g id="patch_47">
    <path clip-path="url(#pe12d822b85)" d="M 122.500909 570.477187
L 335.555455 570.477187
L 335.555455 570.477187
L 122.500909 570.477187
z
" style="fill:#b3b3b3;"/>
   </g>
   <g id="patch_48">
    <path clip-path="url(#pe12d822b85)" d="M 426.864545 232.837436
L 639.919091 232.837436
L 639.919091 221.582778
L 426.864545 221.582778
z
" style="fill:#b3b3b3;"/>
   </g>
   <g id="patch_49">
    <path clip-path="url(#pe12d822b85)" d="M 122.500909 469.185262
L 335.555455 469.185262
L 335.555455 401.657312
L 122.500909 401.657312
z
" style="fill:#b3b3b3;"/>
   </g>
   <g id="patch_50">
    <path clip-path="url(#pe12d822b85)" d="M 426.864545 221.582778
L 639.919091 221.582778
L 639.919091 64.01756
L 426.864545 64.01756
z
" style="fill:#b3b3b3;"/>
   </g>
   <g id="patch_51">
    <path clip-path="url(#pe12d822b85)" d="M 122.500909 401.657312
L 335.555455 401.657312
L 335.555455 379.147995
L 122.500909 379.147995
z
" style="fill:#b3b3b3;"/>
   </g>
   <g id="patch_52">
    <path clip-path="url(#pe12d822b85)" d="M 426.864545 64.01756
L 639.919091 64.01756
L 639.919091 52.762902
L 426.864545 52.762902
z
" style="fill:#b3b3b3;"/>
   </g>
   <g id="matplotlib.axis_1">
    <g id="xtick_1">
     <g id="line2d_1">
      <defs>
       <path d="M 0 0
L 0 3.5
" id="m6964f410cf" style="stroke:#000000;stroke-width:0.8;"/>
      </defs>
      <g>
       <use style="stroke:#000000;stroke-width:0.8;" x="229.028182" xlink:href="#m6964f410cf" y="570.477187"/>
      </g>
     </g>
     <g id="text_1">
      <!-- PA14 compendium -->
      <defs>
       <path d="M 19.671875 64.796875
L 19.671875 37.40625
L 32.078125 37.40625
Q 38.96875 37.40625 42.71875 40.96875
Q 46.484375 44.53125 46.484375 51.125
Q 46.484375 57.671875 42.71875 61.234375
Q 38.96875 64.796875 32.078125 64.796875
z
M 9.8125 72.90625
L 32.078125 72.90625
Q 44.34375 72.90625 50.609375 67.359375
Q 56.890625 61.8125 56.890625 51.125
Q 56.890625 40.328125 50.609375 34.8125
Q 44.34375 29.296875 32.078125 29.296875
L 19.671875 29.296875
L 19.671875 0
L 9.8125 0
z
" id="DejaVuSans-80"/>
       <path d="M 34.1875 63.1875
L 20.796875 26.90625
L 47.609375 26.90625
z
M 28.609375 72.90625
L 39.796875 72.90625
L 67.578125 0
L 57.328125 0
L 50.6875 18.703125
L 17.828125 18.703125
L 11.1875 0
L 0.78125 0
z
" id="DejaVuSans-65"/>
       <path d="M 12.40625 8.296875
L 28.515625 8.296875
L 28.515625 63.921875
L 10.984375 60.40625
L 10.984375 69.390625
L 28.421875 72.90625
L 38.28125 72.90625
L 38.28125 8.296875
L 54.390625 8.296875
L 54.390625 0
L 12.40625 0
z
" id="DejaVuSans-49"/>
       <path d="M 37.796875 64.3125
L 12.890625 25.390625
L 37.796875 25.390625
z
M 35.203125 72.90625
L 47.609375 72.90625
L 47.609375 25.390625
L 58.015625 25.390625
L 58.015625 17.1875
L 47.609375 17.1875
L 47.609375 0
L 37.796875 0
L 37.796875 17.1875
L 4.890625 17.1875
L 4.890625 26.703125
z
" id="DejaVuSans-52"/>
       <path id="DejaVuSans-32"/>
       <path d="M 48.78125 52.59375
L 48.78125 44.1875
Q 44.96875 46.296875 41.140625 47.34375
Q 37.3125 48.390625 33.40625 48.390625
Q 24.65625 48.390625 19.8125 42.84375
Q 14.984375 37.3125 14.984375 27.296875
Q 14.984375 17.28125 19.8125 11.734375
Q 24.65625 6.203125 33.40625 6.203125
Q 37.3125 6.203125 41.140625 7.25
Q 44.96875 8.296875 48.78125 10.40625
L 48.78125 2.09375
Q 45.015625 0.34375 40.984375 -0.53125
Q 36.96875 -1.421875 32.421875 -1.421875
Q 20.0625 -1.421875 12.78125 6.34375
Q 5.515625 14.109375 5.515625 27.296875
Q 5.515625 40.671875 12.859375 48.328125
Q 20.21875 56 33.015625 56
Q 37.15625 56 41.109375 55.140625
Q 45.0625 54.296875 48.78125 52.59375
z
" id="DejaVuSans-99"/>
       <path d="M 30.609375 48.390625
Q 23.390625 48.390625 19.1875 42.75
Q 14.984375 37.109375 14.984375 27.296875
Q 14.984375 17.484375 19.15625 11.84375
Q 23.34375 6.203125 30.609375 6.203125
Q 37.796875 6.203125 41.984375 11.859375
Q 46.1875 17.53125 46.1875 27.296875
Q 46.1875 37.015625 41.984375 42.703125
Q 37.796875 48.390625 30.609375 48.390625
z
M 30.609375 56
Q 42.328125 56 49.015625 48.375
Q 55.71875 40.765625 55.71875 27.296875
Q 55.71875 13.875 49.015625 6.21875
Q 42.328125 -1.421875 30.609375 -1.421875
Q 18.84375 -1.421875 12.171875 6.21875
Q 5.515625 13.875 5.515625 27.296875
Q 5.515625 40.765625 12.171875 48.375
Q 18.84375 56 30.609375 56
z
" id="DejaVuSans-111"/>
       <path d="M 52 44.1875
Q 55.375 50.25 60.0625 53.125
Q 64.75 56 71.09375 56
Q 79.640625 56 84.28125 50.015625
Q 88.921875 44.046875 88.921875 33.015625
L 88.921875 0
L 79.890625 0
L 79.890625 32.71875
Q 79.890625 40.578125 77.09375 44.375
Q 74.3125 48.1875 68.609375 48.1875
Q 61.625 48.1875 57.5625 43.546875
Q 53.515625 38.921875 53.515625 30.90625
L 53.515625 0
L 44.484375 0
L 44.484375 32.71875
Q 44.484375 40.625 41.703125 44.40625
Q 38.921875 48.1875 33.109375 48.1875
Q 26.21875 48.1875 22.15625 43.53125
Q 18.109375 38.875 18.109375 30.90625
L 18.109375 0
L 9.078125 0
L 9.078125 54.6875
L 18.109375 54.6875
L 18.109375 46.1875
Q 21.1875 51.21875 25.484375 53.609375
Q 29.78125 56 35.6875 56
Q 41.65625 56 45.828125 52.96875
Q 50 49.953125 52 44.1875
z
" id="DejaVuSans-109"/>
       <path d="M 18.109375 8.203125
L 18.109375 -20.796875
L 9.078125 -20.796875
L 9.078125 54.6875
L 18.109375 54.6875
L 18.109375 46.390625
Q 20.953125 51.265625 25.265625 53.625
Q 29.59375 56 35.59375 56
Q 45.5625 56 51.78125 48.09375
Q 58.015625 40.1875 58.015625 27.296875
Q 58.015625 14.40625 51.78125 6.484375
Q 45.5625 -1.421875 35.59375 -1.421875
Q 29.59375 -1.421875 25.265625 0.953125
Q 20.953125 3.328125 18.109375 8.203125
z
M 48.6875 27.296875
Q 48.6875 37.203125 44.609375 42.84375
Q 40.53125 48.484375 33.40625 48.484375
Q 26.265625 48.484375 22.1875 42.84375
Q 18.109375 37.203125 18.109375 27.296875
Q 18.109375 17.390625 22.1875 11.75
Q 26.265625 6.109375 33.40625 6.109375
Q 40.53125 6.109375 44.609375 11.75
Q 48.6875 17.390625 48.6875 27.296875
z
" id="DejaVuSans-112"/>
       <path d="M 56.203125 29.59375
L 56.203125 25.203125
L 14.890625 25.203125
Q 15.484375 15.921875 20.484375 11.0625
Q 25.484375 6.203125 34.421875 6.203125
Q 39.59375 6.203125 44.453125 7.46875
Q 49.3125 8.734375 54.109375 11.28125
L 54.109375 2.78125
Q 49.265625 0.734375 44.1875 -0.34375
Q 39.109375 -1.421875 33.890625 -1.421875
Q 20.796875 -1.421875 13.15625 6.1875
Q 5.515625 13.8125 5.515625 26.8125
Q 5.515625 40.234375 12.765625 48.109375
Q 20.015625 56 32.328125 56
Q 43.359375 56 49.78125 48.890625
Q 56.203125 41.796875 56.203125 29.59375
z
M 47.21875 32.234375
Q 47.125 39.59375 43.09375 43.984375
Q 39.0625 48.390625 32.421875 48.390625
Q 24.90625 48.390625 20.390625 44.140625
Q 15.875 39.890625 15.1875 32.171875
z
" id="DejaVuSans-101"/>
       <path d="M 54.890625 33.015625
L 54.890625 0
L 45.90625 0
L 45.90625 32.71875
Q 45.90625 40.484375 42.875 44.328125
Q 39.84375 48.1875 33.796875 48.1875
Q 26.515625 48.1875 22.3125 43.546875
Q 18.109375 38.921875 18.109375 30.90625
L 18.109375 0
L 9.078125 0
L 9.078125 54.6875
L 18.109375 54.6875
L 18.109375 46.1875
Q 21.34375 51.125 25.703125 53.5625
Q 30.078125 56 35.796875 56
Q 45.21875 56 50.046875 50.171875
Q 54.890625 44.34375 54.890625 33.015625
z
" id="DejaVuSans-110"/>
       <path d="M 45.40625 46.390625
L 45.40625 75.984375
L 54.390625 75.984375
L 54.390625 0
L 45.40625 0
L 45.40625 8.203125
Q 42.578125 3.328125 38.25 0.953125
Q 33.9375 -1.421875 27.875 -1.421875
Q 17.96875 -1.421875 11.734375 6.484375
Q 5.515625 14.40625 5.515625 27.296875
Q 5.515625 40.1875 11.734375 48.09375
Q 17.96875 56 27.875 56
Q 33.9375 56 38.25 53.625
Q 42.578125 51.265625 45.40625 46.390625
z
M 14.796875 27.296875
Q 14.796875 17.390625 18.875 11.75
Q 22.953125 6.109375 30.078125 6.109375
Q 37.203125 6.109375 41.296875 11.75
Q 45.40625 17.390625 45.40625 27.296875
Q 45.40625 37.203125 41.296875 42.84375
Q 37.203125 48.484375 30.078125 48.484375
Q 22.953125 48.484375 18.875 42.84375
Q 14.796875 37.203125 14.796875 27.296875
z
" id="DejaVuSans-100"/>
       <path d="M 9.421875 54.6875
L 18.40625 54.6875
L 18.40625 0
L 9.421875 0
z
M 9.421875 75.984375
L 18.40625 75.984375
L 18.40625 64.59375
L 9.421875 64.59375
z
" id="DejaVuSans-105"/>
       <path d="M 8.5 21.578125
L 8.5 54.6875
L 17.484375 54.6875
L 17.484375 21.921875
Q 17.484375 14.15625 20.5 10.265625
Q 23.53125 6.390625 29.59375 6.390625
Q 36.859375 6.390625 41.078125 11.03125
Q 45.3125 15.671875 45.3125 23.6875
L 45.3125 54.6875
L 54.296875 54.6875
L 54.296875 0
L 45.3125 0
L 45.3125 8.40625
Q 42.046875 3.421875 37.71875 1
Q 33.40625 -1.421875 27.6875 -1.421875
Q 18.265625 -1.421875 13.375 4.4375
Q 8.5 10.296875 8.5 21.578125
z
M 31.109375 56
z
" id="DejaVuSans-117"/>
      </defs>
      <g transform="translate(153.695682 589.634687)scale(0.16 -0.16)">
       <use xlink:href="#DejaVuSans-80"/>
       <use x="60.208984" xlink:href="#DejaVuSans-65"/>
       <use x="128.617188" xlink:href="#DejaVuSans-49"/>
       <use x="192.240234" xlink:href="#DejaVuSans-52"/>
       <use x="255.863281" xlink:href="#DejaVuSans-32"/>
       <use x="287.650391" xlink:href="#DejaVuSans-99"/>
       <use x="342.630859" xlink:href="#DejaVuSans-111"/>
       <use x="403.8125" xlink:href="#DejaVuSans-109"/>
       <use x="501.224609" xlink:href="#DejaVuSans-112"/>
       <use x="564.701172" xlink:href="#DejaVuSans-101"/>
       <use x="626.224609" xlink:href="#DejaVuSans-110"/>
       <use x="689.603516" xlink:href="#DejaVuSans-100"/>
       <use x="753.080078" xlink:href="#DejaVuSans-105"/>
       <use x="780.863281" xlink:href="#DejaVuSans-117"/>
       <use x="844.242188" xlink:href="#DejaVuSans-109"/>
      </g>
     </g>
    </g>
    <g id="xtick_2">
     <g id="line2d_2">
      <g>
       <use style="stroke:#000000;stroke-width:0.8;" x="533.391818" xlink:href="#m6964f410cf" y="570.477187"/>
      </g>
     </g>
     <g id="text_2">
      <!-- PAO1 compendium -->
      <defs>
       <path d="M 39.40625 66.21875
Q 28.65625 66.21875 22.328125 58.203125
Q 16.015625 50.203125 16.015625 36.375
Q 16.015625 22.609375 22.328125 14.59375
Q 28.65625 6.59375 39.40625 6.59375
Q 50.140625 6.59375 56.421875 14.59375
Q 62.703125 22.609375 62.703125 36.375
Q 62.703125 50.203125 56.421875 58.203125
Q 50.140625 66.21875 39.40625 66.21875
z
M 39.40625 74.21875
Q 54.734375 74.21875 63.90625 63.9375
Q 73.09375 53.65625 73.09375 36.375
Q 73.09375 19.140625 63.90625 8.859375
Q 54.734375 -1.421875 39.40625 -1.421875
Q 24.03125 -1.421875 14.8125 8.828125
Q 5.609375 19.09375 5.609375 36.375
Q 5.609375 53.65625 14.8125 63.9375
Q 24.03125 74.21875 39.40625 74.21875
z
" id="DejaVuSans-79"/>
      </defs>
      <g transform="translate(456.853068 589.634687)scale(0.16 -0.16)">
       <use xlink:href="#DejaVuSans-80"/>
       <use x="60.208984" xlink:href="#DejaVuSans-65"/>
       <use x="128.601562" xlink:href="#DejaVuSans-79"/>
       <use x="207.3125" xlink:href="#DejaVuSans-49"/>
       <use x="270.935547" xlink:href="#DejaVuSans-32"/>
       <use x="302.722656" xlink:href="#DejaVuSans-99"/>
       <use x="357.703125" xlink:href="#DejaVuSans-111"/>
       <use x="418.884766" xlink:href="#DejaVuSans-109"/>
       <use x="516.296875" xlink:href="#DejaVuSans-112"/>
       <use x="579.773438" xlink:href="#DejaVuSans-101"/>
       <use x="641.296875" xlink:href="#DejaVuSans-110"/>
       <use x="704.675781" xlink:href="#DejaVuSans-100"/>
       <use x="768.152344" xlink:href="#DejaVuSans-105"/>
       <use x="795.935547" xlink:href="#DejaVuSans-117"/>
       <use x="859.314453" xlink:href="#DejaVuSans-109"/>
      </g>
     </g>
    </g>
   </g>
   <g id="matplotlib.axis_2">
    <g id="ytick_1">
     <g id="line2d_3">
      <defs>
       <path d="M 0 0
L -3.5 0
" id="mc445e2197c" style="stroke:#000000;stroke-width:0.8;"/>
      </defs>
      <g>
       <use style="stroke:#000000;stroke-width:0.8;" x="46.41" xlink:href="#mc445e2197c" y="570.477187"/>
      </g>
     </g>
     <g id="text_3">
      <!-- 0 -->
      <defs>
       <path d="M 31.78125 66.40625
Q 24.171875 66.40625 20.328125 58.90625
Q 16.5 51.421875 16.5 36.375
Q 16.5 21.390625 20.328125 13.890625
Q 24.171875 6.390625 31.78125 6.390625
Q 39.453125 6.390625 43.28125 13.890625
Q 47.125 21.390625 47.125 36.375
Q 47.125 51.421875 43.28125 58.90625
Q 39.453125 66.40625 31.78125 66.40625
z
M 31.78125 74.21875
Q 44.046875 74.21875 50.515625 64.515625
Q 56.984375 54.828125 56.984375 36.375
Q 56.984375 17.96875 50.515625 8.265625
Q 44.046875 -1.421875 31.78125 -1.421875
Q 19.53125 -1.421875 13.0625 8.265625
Q 6.59375 17.96875 6.59375 36.375
Q 6.59375 54.828125 13.0625 64.515625
Q 19.53125 74.21875 31.78125 74.21875
z
" id="DejaVuSans-48"/>
      </defs>
      <g transform="translate(33.0475 574.276406)scale(0.1 -0.1)">
       <use xlink:href="#DejaVuSans-48"/>
      </g>
     </g>
    </g>
    <g id="ytick_2">
     <g id="line2d_4">
      <g>
       <use style="stroke:#000000;stroke-width:0.8;" x="46.41" xlink:href="#mc445e2197c" y="457.930604"/>
      </g>
     </g>
     <g id="text_4">
      <!-- 10 -->
      <g transform="translate(26.685 461.729822)scale(0.1 -0.1)">
       <use xlink:href="#DejaVuSans-49"/>
       <use x="63.623047" xlink:href="#DejaVuSans-48"/>
      </g>
     </g>
    </g>
    <g id="ytick_3">
     <g id="line2d_5">
      <g>
       <use style="stroke:#000000;stroke-width:0.8;" x="46.41" xlink:href="#mc445e2197c" y="345.38402"/>
      </g>
     </g>
     <g id="text_5">
      <!-- 20 -->
      <defs>
       <path d="M 19.1875 8.296875
L 53.609375 8.296875
L 53.609375 0
L 7.328125 0
L 7.328125 8.296875
Q 12.9375 14.109375 22.625 23.890625
Q 32.328125 33.6875 34.8125 36.53125
Q 39.546875 41.84375 41.421875 45.53125
Q 43.3125 49.21875 43.3125 52.78125
Q 43.3125 58.59375 39.234375 62.25
Q 35.15625 65.921875 28.609375 65.921875
Q 23.96875 65.921875 18.8125 64.3125
Q 13.671875 62.703125 7.8125 59.421875
L 7.8125 69.390625
Q 13.765625 71.78125 18.9375 73
Q 24.125 74.21875 28.421875 74.21875
Q 39.75 74.21875 46.484375 68.546875
Q 53.21875 62.890625 53.21875 53.421875
Q 53.21875 48.921875 51.53125 44.890625
Q 49.859375 40.875 45.40625 35.40625
Q 44.1875 33.984375 37.640625 27.21875
Q 31.109375 20.453125 19.1875 8.296875
z
" id="DejaVuSans-50"/>
      </defs>
      <g transform="translate(26.685 349.183239)scale(0.1 -0.1)">
       <use xlink:href="#DejaVuSans-50"/>
       <use x="63.623047" xlink:href="#DejaVuSans-48"/>
      </g>
     </g>
    </g>
    <g id="ytick_4">
     <g id="line2d_6">
      <g>
       <use style="stroke:#000000;stroke-width:0.8;" x="46.41" xlink:href="#mc445e2197c" y="232.837436"/>
      </g>
     </g>
     <g id="text_6">
      <!-- 30 -->
      <defs>
       <path d="M 40.578125 39.3125
Q 47.65625 37.796875 51.625 33
Q 55.609375 28.21875 55.609375 21.1875
Q 55.609375 10.40625 48.1875 4.484375
Q 40.765625 -1.421875 27.09375 -1.421875
Q 22.515625 -1.421875 17.65625 -0.515625
Q 12.796875 0.390625 7.625 2.203125
L 7.625 11.71875
Q 11.71875 9.328125 16.59375 8.109375
Q 21.484375 6.890625 26.8125 6.890625
Q 36.078125 6.890625 40.9375 10.546875
Q 45.796875 14.203125 45.796875 21.1875
Q 45.796875 27.640625 41.28125 31.265625
Q 36.765625 34.90625 28.71875 34.90625
L 20.21875 34.90625
L 20.21875 43.015625
L 29.109375 43.015625
Q 36.375 43.015625 40.234375 45.921875
Q 44.09375 48.828125 44.09375 54.296875
Q 44.09375 59.90625 40.109375 62.90625
Q 36.140625 65.921875 28.71875 65.921875
Q 24.65625 65.921875 20.015625 65.03125
Q 15.375 64.15625 9.8125 62.3125
L 9.8125 71.09375
Q 15.4375 72.65625 20.34375 73.4375
Q 25.25 74.21875 29.59375 74.21875
Q 40.828125 74.21875 47.359375 69.109375
Q 53.90625 64.015625 53.90625 55.328125
Q 53.90625 49.265625 50.4375 45.09375
Q 46.96875 40.921875 40.578125 39.3125
z
" id="DejaVuSans-51"/>
      </defs>
      <g transform="translate(26.685 236.636655)scale(0.1 -0.1)">
       <use xlink:href="#DejaVuSans-51"/>
       <use x="63.623047" xlink:href="#DejaVuSans-48"/>
      </g>
     </g>
    </g>
    <g id="ytick_5">
     <g id="line2d_7">
      <g>
       <use style="stroke:#000000;stroke-width:0.8;" x="46.41" xlink:href="#mc445e2197c" y="120.290852"/>
      </g>
     </g>
     <g id="text_7">
      <!-- 40 -->
      <g transform="translate(26.685 124.090071)scale(0.1 -0.1)">
       <use xlink:href="#DejaVuSans-52"/>
       <use x="63.623047" xlink:href="#DejaVuSans-48"/>
      </g>
     </g>
    </g>
    <g id="text_8">
     <!-- Count -->
     <defs>
      <path d="M 64.40625 67.28125
L 64.40625 56.890625
Q 59.421875 61.53125 53.78125 63.8125
Q 48.140625 66.109375 41.796875 66.109375
Q 29.296875 66.109375 22.65625 58.46875
Q 16.015625 50.828125 16.015625 36.375
Q 16.015625 21.96875 22.65625 14.328125
Q 29.296875 6.6875 41.796875 6.6875
Q 48.140625 6.6875 53.78125 8.984375
Q 59.421875 11.28125 64.40625 15.921875
L 64.40625 5.609375
Q 59.234375 2.09375 53.4375 0.328125
Q 47.65625 -1.421875 41.21875 -1.421875
Q 24.65625 -1.421875 15.125 8.703125
Q 5.609375 18.84375 5.609375 36.375
Q 5.609375 53.953125 15.125 64.078125
Q 24.65625 74.21875 41.21875 74.21875
Q 47.75 74.21875 53.53125 72.484375
Q 59.328125 70.75 64.40625 67.28125
z
" id="DejaVuSans-67"/>
      <path d="M 18.3125 70.21875
L 18.3125 54.6875
L 36.8125 54.6875
L 36.8125 47.703125
L 18.3125 47.703125
L 18.3125 18.015625
Q 18.3125 11.328125 20.140625 9.421875
Q 21.96875 7.515625 27.59375 7.515625
L 36.8125 7.515625
L 36.8125 0
L 27.59375 0
Q 17.1875 0 13.234375 3.875
Q 9.28125 7.765625 9.28125 18.015625
L 9.28125 47.703125
L 2.6875 47.703125
L 2.6875 54.6875
L 9.28125 54.6875
L 9.28125 70.21875
z
" id="DejaVuSans-116"/>
     </defs>
     <g transform="translate(19.3575 322.434687)rotate(-90)scale(0.16 -0.16)">
      <use xlink:href="#DejaVuSans-67"/>
      <use x="69.824219" xlink:href="#DejaVuSans-111"/>
      <use x="131.005859" xlink:href="#DejaVuSans-117"/>
      <use x="194.384766" xlink:href="#DejaVuSans-110"/>
      <use x="257.763672" xlink:href="#DejaVuSans-116"/>
     </g>
    </g>
   </g>
   <g id="patch_53">
    <path d="M 46.41 570.477187
L 46.41 26.877187
" style="fill:none;stroke:#000000;stroke-linecap:square;stroke-linejoin:miter;stroke-width:0.8;"/>
   </g>
   <g id="patch_54">
    <path d="M 716.01 570.477187
L 716.01 26.877187
" style="fill:none;stroke:#000000;stroke-linecap:square;stroke-linejoin:miter;stroke-width:0.8;"/>
   </g>
   <g id="patch_55">
    <path d="M 46.41 570.477187
L 716.01 570.477187
" style="fill:none;stroke:#000000;stroke-linecap:square;stroke-linejoin:miter;stroke-width:0.8;"/>
   </g>
   <g id="patch_56">
    <path d="M 46.41 26.877187
L 716.01 26.877187
" style="fill:none;stroke:#000000;stroke-linecap:square;stroke-linejoin:miter;stroke-width:0.8;"/>
   </g>
   <g id="text_9">
    <!-- Gene function studied in experiments -->
    <defs>
     <path d="M 59.515625 10.40625
L 59.515625 29.984375
L 43.40625 29.984375
L 43.40625 38.09375
L 69.28125 38.09375
L 69.28125 6.78125
Q 63.578125 2.734375 56.6875 0.65625
Q 49.8125 -1.421875 42 -1.421875
Q 24.90625 -1.421875 15.25 8.5625
Q 5.609375 18.5625 5.609375 36.375
Q 5.609375 54.25 15.25 64.234375
Q 24.90625 74.21875 42 74.21875
Q 49.125 74.21875 55.546875 72.453125
Q 61.96875 70.703125 67.390625 67.28125
L 67.390625 56.78125
Q 61.921875 61.421875 55.765625 63.765625
Q 49.609375 66.109375 42.828125 66.109375
Q 29.4375 66.109375 22.71875 58.640625
Q 16.015625 51.171875 16.015625 36.375
Q 16.015625 21.625 22.71875 14.15625
Q 29.4375 6.6875 42.828125 6.6875
Q 48.046875 6.6875 52.140625 7.59375
Q 56.25 8.5 59.515625 10.40625
z
" id="DejaVuSans-71"/>
     <path d="M 37.109375 75.984375
L 37.109375 68.5
L 28.515625 68.5
Q 23.6875 68.5 21.796875 66.546875
Q 19.921875 64.59375 19.921875 59.515625
L 19.921875 54.6875
L 34.71875 54.6875
L 34.71875 47.703125
L 19.921875 47.703125
L 19.921875 0
L 10.890625 0
L 10.890625 47.703125
L 2.296875 47.703125
L 2.296875 54.6875
L 10.890625 54.6875
L 10.890625 58.5
Q 10.890625 67.625 15.140625 71.796875
Q 19.390625 75.984375 28.609375 75.984375
z
" id="DejaVuSans-102"/>
     <path d="M 44.28125 53.078125
L 44.28125 44.578125
Q 40.484375 46.53125 36.375 47.5
Q 32.28125 48.484375 27.875 48.484375
Q 21.1875 48.484375 17.84375 46.4375
Q 14.5 44.390625 14.5 40.28125
Q 14.5 37.15625 16.890625 35.375
Q 19.28125 33.59375 26.515625 31.984375
L 29.59375 31.296875
Q 39.15625 29.25 43.1875 25.515625
Q 47.21875 21.78125 47.21875 15.09375
Q 47.21875 7.46875 41.1875 3.015625
Q 35.15625 -1.421875 24.609375 -1.421875
Q 20.21875 -1.421875 15.453125 -0.5625
Q 10.6875 0.296875 5.421875 2
L 5.421875 11.28125
Q 10.40625 8.6875 15.234375 7.390625
Q 20.0625 6.109375 24.8125 6.109375
Q 31.15625 6.109375 34.5625 8.28125
Q 37.984375 10.453125 37.984375 14.40625
Q 37.984375 18.0625 35.515625 20.015625
Q 33.0625 21.96875 24.703125 23.78125
L 21.578125 24.515625
Q 13.234375 26.265625 9.515625 29.90625
Q 5.8125 33.546875 5.8125 39.890625
Q 5.8125 47.609375 11.28125 51.796875
Q 16.75 56 26.8125 56
Q 31.78125 56 36.171875 55.265625
Q 40.578125 54.546875 44.28125 53.078125
z
" id="DejaVuSans-115"/>
     <path d="M 54.890625 54.6875
L 35.109375 28.078125
L 55.90625 0
L 45.3125 0
L 29.390625 21.484375
L 13.484375 0
L 2.875 0
L 24.125 28.609375
L 4.6875 54.6875
L 15.28125 54.6875
L 29.78125 35.203125
L 44.28125 54.6875
z
" id="DejaVuSans-120"/>
     <path d="M 41.109375 46.296875
Q 39.59375 47.171875 37.8125 47.578125
Q 36.03125 48 33.890625 48
Q 26.265625 48 22.1875 43.046875
Q 18.109375 38.09375 18.109375 28.8125
L 18.109375 0
L 9.078125 0
L 9.078125 54.6875
L 18.109375 54.6875
L 18.109375 46.1875
Q 20.953125 51.171875 25.484375 53.578125
Q 30.03125 56 36.53125 56
Q 37.453125 56 38.578125 55.875
Q 39.703125 55.765625 41.0625 55.515625
z
" id="DejaVuSans-114"/>
    </defs>
    <g transform="translate(211.122656 20.877187)scale(0.18 -0.18)">
     <use xlink:href="#DejaVuSans-71"/>
     <use x="77.490234" xlink:href="#DejaVuSans-101"/>
     <use x="139.013672" xlink:href="#DejaVuSans-110"/>
     <use x="202.392578" xlink:href="#DejaVuSans-101"/>
     <use x="263.916016" xlink:href="#DejaVuSans-32"/>
     <use x="295.703125" xlink:href="#DejaVuSans-102"/>
     <use x="330.908203" xlink:href="#DejaVuSans-117"/>
     <use x="394.287109" xlink:href="#DejaVuSans-110"/>
     <use x="457.666016" xlink:href="#DejaVuSans-99"/>
     <use x="512.646484" xlink:href="#DejaVuSans-116"/>
     <use x="551.855469" xlink:href="#DejaVuSans-105"/>
     <use x="579.638672" xlink:href="#DejaVuSans-111"/>
     <use x="640.820312" xlink:href="#DejaVuSans-110"/>
     <use x="704.199219" xlink:href="#DejaVuSans-32"/>
     <use x="735.986328" xlink:href="#DejaVuSans-115"/>
     <use x="788.085938" xlink:href="#DejaVuSans-116"/>
     <use x="827.294922" xlink:href="#DejaVuSans-117"/>
     <use x="890.673828" xlink:href="#DejaVuSans-100"/>
     <use x="954.150391" xlink:href="#DejaVuSans-105"/>
     <use x="981.933594" xlink:href="#DejaVuSans-101"/>
     <use x="1043.457031" xlink:href="#DejaVuSans-100"/>
     <use x="1106.933594" xlink:href="#DejaVuSans-32"/>
     <use x="1138.720703" xlink:href="#DejaVuSans-105"/>
     <use x="1166.503906" xlink:href="#DejaVuSans-110"/>
     <use x="1229.882812" xlink:href="#DejaVuSans-32"/>
     <use x="1261.669922" xlink:href="#DejaVuSans-101"/>
     <use x="1323.177734" xlink:href="#DejaVuSans-120"/>
     <use x="1382.357422" xlink:href="#DejaVuSans-112"/>
     <use x="1445.833984" xlink:href="#DejaVuSans-101"/>
     <use x="1507.357422" xlink:href="#DejaVuSans-114"/>
     <use x="1548.470703" xlink:href="#DejaVuSans-105"/>
     <use x="1576.253906" xlink:href="#DejaVuSans-109"/>
     <use x="1673.666016" xlink:href="#DejaVuSans-101"/>
     <use x="1735.189453" xlink:href="#DejaVuSans-110"/>
     <use x="1798.568359" xlink:href="#DejaVuSans-116"/>
     <use x="1837.777344" xlink:href="#DejaVuSans-115"/>
    </g>
   </g>
   <g id="legend_1">
    <g id="patch_57">
     <path d="M 752.494375 551.811562
L 1308.85 551.811562
Q 1311.65 551.811562 1311.65 549.011562
L 1311.65 36.677187
Q 1311.65 33.877187 1308.85 33.877187
L 752.494375 33.877187
Q 749.694375 33.877187 749.694375 36.677187
L 749.694375 549.011562
Q 749.694375 551.811562 752.494375 551.811562
z
" style="fill:#ffffff;opacity:0.8;stroke:#cccccc;stroke-linejoin:miter;"/>
    </g>
    <g id="patch_58">
     <path d="M 755.294375 50.115
L 783.294375 50.115
L 783.294375 40.315
L 755.294375 40.315
z
" style="fill:#66c2a5;"/>
    </g>
    <g id="text_10">
     <!--  chemotaxis-specific methylesterase -->
     <defs>
      <path d="M 54.890625 33.015625
L 54.890625 0
L 45.90625 0
L 45.90625 32.71875
Q 45.90625 40.484375 42.875 44.328125
Q 39.84375 48.1875 33.796875 48.1875
Q 26.515625 48.1875 22.3125 43.546875
Q 18.109375 38.921875 18.109375 30.90625
L 18.109375 0
L 9.078125 0
L 9.078125 75.984375
L 18.109375 75.984375
L 18.109375 46.1875
Q 21.34375 51.125 25.703125 53.5625
Q 30.078125 56 35.796875 56
Q 45.21875 56 50.046875 50.171875
Q 54.890625 44.34375 54.890625 33.015625
z
" id="DejaVuSans-104"/>
      <path d="M 34.28125 27.484375
Q 23.390625 27.484375 19.1875 25
Q 14.984375 22.515625 14.984375 16.5
Q 14.984375 11.71875 18.140625 8.90625
Q 21.296875 6.109375 26.703125 6.109375
Q 34.1875 6.109375 38.703125 11.40625
Q 43.21875 16.703125 43.21875 25.484375
L 43.21875 27.484375
z
M 52.203125 31.203125
L 52.203125 0
L 43.21875 0
L 43.21875 8.296875
Q 40.140625 3.328125 35.546875 0.953125
Q 30.953125 -1.421875 24.3125 -1.421875
Q 15.921875 -1.421875 10.953125 3.296875
Q 6 8.015625 6 15.921875
Q 6 25.140625 12.171875 29.828125
Q 18.359375 34.515625 30.609375 34.515625
L 43.21875 34.515625
L 43.21875 35.40625
Q 43.21875 41.609375 39.140625 45
Q 35.0625 48.390625 27.6875 48.390625
Q 23 48.390625 18.546875 47.265625
Q 14.109375 46.140625 10.015625 43.890625
L 10.015625 52.203125
Q 14.9375 54.109375 19.578125 55.046875
Q 24.21875 56 28.609375 56
Q 40.484375 56 46.34375 49.84375
Q 52.203125 43.703125 52.203125 31.203125
z
" id="DejaVuSans-97"/>
      <path d="M 4.890625 31.390625
L 31.203125 31.390625
L 31.203125 23.390625
L 4.890625 23.390625
z
" id="DejaVuSans-45"/>
      <path d="M 32.171875 -5.078125
Q 28.375 -14.84375 24.75 -17.8125
Q 21.140625 -20.796875 15.09375 -20.796875
L 7.90625 -20.796875
L 7.90625 -13.28125
L 13.1875 -13.28125
Q 16.890625 -13.28125 18.9375 -11.515625
Q 21 -9.765625 23.484375 -3.21875
L 25.09375 0.875
L 2.984375 54.6875
L 12.5 54.6875
L 29.59375 11.921875
L 46.6875 54.6875
L 56.203125 54.6875
z
" id="DejaVuSans-121"/>
      <path d="M 9.421875 75.984375
L 18.40625 75.984375
L 18.40625 0
L 9.421875 0
z
" id="DejaVuSans-108"/>
     </defs>
     <g transform="translate(794.494375 50.115)scale(0.14 -0.14)">
      <use xlink:href="#DejaVuSans-32"/>
      <use x="31.787109" xlink:href="#DejaVuSans-99"/>
      <use x="86.767578" xlink:href="#DejaVuSans-104"/>
      <use x="150.146484" xlink:href="#DejaVuSans-101"/>
      <use x="211.669922" xlink:href="#DejaVuSans-109"/>
      <use x="309.082031" xlink:href="#DejaVuSans-111"/>
      <use x="370.263672" xlink:href="#DejaVuSans-116"/>
      <use x="409.472656" xlink:href="#DejaVuSans-97"/>
      <use x="470.751953" xlink:href="#DejaVuSans-120"/>
      <use x="529.931641" xlink:href="#DejaVuSans-105"/>
      <use x="557.714844" xlink:href="#DejaVuSans-115"/>
      <use x="609.814453" xlink:href="#DejaVuSans-45"/>
      <use x="645.898438" xlink:href="#DejaVuSans-115"/>
      <use x="697.998047" xlink:href="#DejaVuSans-112"/>
      <use x="761.474609" xlink:href="#DejaVuSans-101"/>
      <use x="822.998047" xlink:href="#DejaVuSans-99"/>
      <use x="877.978516" xlink:href="#DejaVuSans-105"/>
      <use x="905.761719" xlink:href="#DejaVuSans-102"/>
      <use x="940.966797" xlink:href="#DejaVuSans-105"/>
      <use x="968.75" xlink:href="#DejaVuSans-99"/>
      <use x="1023.730469" xlink:href="#DejaVuSans-32"/>
      <use x="1055.517578" xlink:href="#DejaVuSans-109"/>
      <use x="1152.929688" xlink:href="#DejaVuSans-101"/>
      <use x="1214.453125" xlink:href="#DejaVuSans-116"/>
      <use x="1253.662109" xlink:href="#DejaVuSans-104"/>
      <use x="1317.041016" xlink:href="#DejaVuSans-121"/>
      <use x="1376.220703" xlink:href="#DejaVuSans-108"/>
      <use x="1404.003906" xlink:href="#DejaVuSans-101"/>
      <use x="1465.527344" xlink:href="#DejaVuSans-115"/>
      <use x="1517.626953" xlink:href="#DejaVuSans-116"/>
      <use x="1556.835938" xlink:href="#DejaVuSans-101"/>
      <use x="1618.359375" xlink:href="#DejaVuSans-114"/>
      <use x="1659.472656" xlink:href="#DejaVuSans-97"/>
      <use x="1720.751953" xlink:href="#DejaVuSans-115"/>
      <use x="1772.851562" xlink:href="#DejaVuSans-101"/>
     </g>
    </g>
    <g id="patch_59">
     <path d="M 755.294375 70.664375
L 783.294375 70.664375
L 783.294375 60.864375
L 755.294375 60.864375
z
" style="fill:#66c2a5;"/>
    </g>
    <g id="text_11">
     <!--  hypothetical protein -->
     <g transform="translate(794.494375 70.664375)scale(0.14 -0.14)">
      <use xlink:href="#DejaVuSans-32"/>
      <use x="31.787109" xlink:href="#DejaVuSans-104"/>
      <use x="95.166016" xlink:href="#DejaVuSans-121"/>
      <use x="154.345703" xlink:href="#DejaVuSans-112"/>
      <use x="217.822266" xlink:href="#DejaVuSans-111"/>
      <use x="279.003906" xlink:href="#DejaVuSans-116"/>
      <use x="318.212891" xlink:href="#DejaVuSans-104"/>
      <use x="381.591797" xlink:href="#DejaVuSans-101"/>
      <use x="443.115234" xlink:href="#DejaVuSans-116"/>
      <use x="482.324219" xlink:href="#DejaVuSans-105"/>
      <use x="510.107422" xlink:href="#DejaVuSans-99"/>
      <use x="565.087891" xlink:href="#DejaVuSans-97"/>
      <use x="626.367188" xlink:href="#DejaVuSans-108"/>
      <use x="654.150391" xlink:href="#DejaVuSans-32"/>
      <use x="685.9375" xlink:href="#DejaVuSans-112"/>
      <use x="749.414062" xlink:href="#DejaVuSans-114"/>
      <use x="790.496094" xlink:href="#DejaVuSans-111"/>
      <use x="851.677734" xlink:href="#DejaVuSans-116"/>
      <use x="890.886719" xlink:href="#DejaVuSans-101"/>
      <use x="952.410156" xlink:href="#DejaVuSans-105"/>
      <use x="980.193359" xlink:href="#DejaVuSans-110"/>
     </g>
    </g>
    <g id="patch_60">
     <path d="M 755.294375 91.21375
L 783.294375 91.21375
L 783.294375 81.41375
L 755.294375 81.41375
z
" style="fill:#66c2a5;"/>
    </g>
    <g id="text_12">
     <!-- 2-ketogluconate transporter -->
     <defs>
      <path d="M 9.078125 75.984375
L 18.109375 75.984375
L 18.109375 31.109375
L 44.921875 54.6875
L 56.390625 54.6875
L 27.390625 29.109375
L 57.625 0
L 45.90625 0
L 18.109375 26.703125
L 18.109375 0
L 9.078125 0
z
" id="DejaVuSans-107"/>
      <path d="M 45.40625 27.984375
Q 45.40625 37.75 41.375 43.109375
Q 37.359375 48.484375 30.078125 48.484375
Q 22.859375 48.484375 18.828125 43.109375
Q 14.796875 37.75 14.796875 27.984375
Q 14.796875 18.265625 18.828125 12.890625
Q 22.859375 7.515625 30.078125 7.515625
Q 37.359375 7.515625 41.375 12.890625
Q 45.40625 18.265625 45.40625 27.984375
z
M 54.390625 6.78125
Q 54.390625 -7.171875 48.1875 -13.984375
Q 42 -20.796875 29.203125 -20.796875
Q 24.46875 -20.796875 20.265625 -20.09375
Q 16.0625 -19.390625 12.109375 -17.921875
L 12.109375 -9.1875
Q 16.0625 -11.328125 19.921875 -12.34375
Q 23.78125 -13.375 27.78125 -13.375
Q 36.625 -13.375 41.015625 -8.765625
Q 45.40625 -4.15625 45.40625 5.171875
L 45.40625 9.625
Q 42.625 4.78125 38.28125 2.390625
Q 33.9375 0 27.875 0
Q 17.828125 0 11.671875 7.65625
Q 5.515625 15.328125 5.515625 27.984375
Q 5.515625 40.671875 11.671875 48.328125
Q 17.828125 56 27.875 56
Q 33.9375 56 38.28125 53.609375
Q 42.625 51.21875 45.40625 46.390625
L 45.40625 54.6875
L 54.390625 54.6875
z
" id="DejaVuSans-103"/>
     </defs>
     <g transform="translate(794.494375 91.21375)scale(0.14 -0.14)">
      <use xlink:href="#DejaVuSans-50"/>
      <use x="63.623047" xlink:href="#DejaVuSans-45"/>
      <use x="99.707031" xlink:href="#DejaVuSans-107"/>
      <use x="157.570312" xlink:href="#DejaVuSans-101"/>
      <use x="219.09375" xlink:href="#DejaVuSans-116"/>
      <use x="258.302734" xlink:href="#DejaVuSans-111"/>
      <use x="319.484375" xlink:href="#DejaVuSans-103"/>
      <use x="382.960938" xlink:href="#DejaVuSans-108"/>
      <use x="410.744141" xlink:href="#DejaVuSans-117"/>
      <use x="474.123047" xlink:href="#DejaVuSans-99"/>
      <use x="529.103516" xlink:href="#DejaVuSans-111"/>
      <use x="590.285156" xlink:href="#DejaVuSans-110"/>
      <use x="653.664062" xlink:href="#DejaVuSans-97"/>
      <use x="714.943359" xlink:href="#DejaVuSans-116"/>
      <use x="754.152344" xlink:href="#DejaVuSans-101"/>
      <use x="815.675781" xlink:href="#DejaVuSans-32"/>
      <use x="847.462891" xlink:href="#DejaVuSans-116"/>
      <use x="886.671875" xlink:href="#DejaVuSans-114"/>
      <use x="927.785156" xlink:href="#DejaVuSans-97"/>
      <use x="989.064453" xlink:href="#DejaVuSans-110"/>
      <use x="1052.443359" xlink:href="#DejaVuSans-115"/>
      <use x="1104.542969" xlink:href="#DejaVuSans-112"/>
      <use x="1168.019531" xlink:href="#DejaVuSans-111"/>
      <use x="1229.201172" xlink:href="#DejaVuSans-114"/>
      <use x="1270.314453" xlink:href="#DejaVuSans-116"/>
      <use x="1309.523438" xlink:href="#DejaVuSans-101"/>
      <use x="1371.046875" xlink:href="#DejaVuSans-114"/>
     </g>
    </g>
    <g id="patch_61">
     <path d="M 755.294375 111.763125
L 783.294375 111.763125
L 783.294375 101.963125
L 755.294375 101.963125
z
" style="fill:#fc8d62;"/>
    </g>
    <g id="text_13">
     <!-- ABC transporter ATP-binding protein -->
     <defs>
      <path d="M 19.671875 34.8125
L 19.671875 8.109375
L 35.5 8.109375
Q 43.453125 8.109375 47.28125 11.40625
Q 51.125 14.703125 51.125 21.484375
Q 51.125 28.328125 47.28125 31.5625
Q 43.453125 34.8125 35.5 34.8125
z
M 19.671875 64.796875
L 19.671875 42.828125
L 34.28125 42.828125
Q 41.5 42.828125 45.03125 45.53125
Q 48.578125 48.25 48.578125 53.8125
Q 48.578125 59.328125 45.03125 62.0625
Q 41.5 64.796875 34.28125 64.796875
z
M 9.8125 72.90625
L 35.015625 72.90625
Q 46.296875 72.90625 52.390625 68.21875
Q 58.5 63.53125 58.5 54.890625
Q 58.5 48.1875 55.375 44.234375
Q 52.25 40.28125 46.1875 39.3125
Q 53.46875 37.75 57.5 32.78125
Q 61.53125 27.828125 61.53125 20.40625
Q 61.53125 10.640625 54.890625 5.3125
Q 48.25 0 35.984375 0
L 9.8125 0
z
" id="DejaVuSans-66"/>
      <path d="M -0.296875 72.90625
L 61.375 72.90625
L 61.375 64.59375
L 35.5 64.59375
L 35.5 0
L 25.59375 0
L 25.59375 64.59375
L -0.296875 64.59375
z
" id="DejaVuSans-84"/>
      <path d="M 48.6875 27.296875
Q 48.6875 37.203125 44.609375 42.84375
Q 40.53125 48.484375 33.40625 48.484375
Q 26.265625 48.484375 22.1875 42.84375
Q 18.109375 37.203125 18.109375 27.296875
Q 18.109375 17.390625 22.1875 11.75
Q 26.265625 6.109375 33.40625 6.109375
Q 40.53125 6.109375 44.609375 11.75
Q 48.6875 17.390625 48.6875 27.296875
z
M 18.109375 46.390625
Q 20.953125 51.265625 25.265625 53.625
Q 29.59375 56 35.59375 56
Q 45.5625 56 51.78125 48.09375
Q 58.015625 40.1875 58.015625 27.296875
Q 58.015625 14.40625 51.78125 6.484375
Q 45.5625 -1.421875 35.59375 -1.421875
Q 29.59375 -1.421875 25.265625 0.953125
Q 20.953125 3.328125 18.109375 8.203125
L 18.109375 0
L 9.078125 0
L 9.078125 75.984375
L 18.109375 75.984375
z
" id="DejaVuSans-98"/>
     </defs>
     <g transform="translate(794.494375 111.763125)scale(0.14 -0.14)">
      <use xlink:href="#DejaVuSans-65"/>
      <use x="68.408203" xlink:href="#DejaVuSans-66"/>
      <use x="136.996094" xlink:href="#DejaVuSans-67"/>
      <use x="206.820312" xlink:href="#DejaVuSans-32"/>
      <use x="238.607422" xlink:href="#DejaVuSans-116"/>
      <use x="277.816406" xlink:href="#DejaVuSans-114"/>
      <use x="318.929688" xlink:href="#DejaVuSans-97"/>
      <use x="380.208984" xlink:href="#DejaVuSans-110"/>
      <use x="443.587891" xlink:href="#DejaVuSans-115"/>
      <use x="495.6875" xlink:href="#DejaVuSans-112"/>
      <use x="559.164062" xlink:href="#DejaVuSans-111"/>
      <use x="620.345703" xlink:href="#DejaVuSans-114"/>
      <use x="661.458984" xlink:href="#DejaVuSans-116"/>
      <use x="700.667969" xlink:href="#DejaVuSans-101"/>
      <use x="762.191406" xlink:href="#DejaVuSans-114"/>
      <use x="803.304688" xlink:href="#DejaVuSans-32"/>
      <use x="835.091797" xlink:href="#DejaVuSans-65"/>
      <use x="903.390625" xlink:href="#DejaVuSans-84"/>
      <use x="964.474609" xlink:href="#DejaVuSans-80"/>
      <use x="1024.746094" xlink:href="#DejaVuSans-45"/>
      <use x="1060.830078" xlink:href="#DejaVuSans-98"/>
      <use x="1124.306641" xlink:href="#DejaVuSans-105"/>
      <use x="1152.089844" xlink:href="#DejaVuSans-110"/>
      <use x="1215.46875" xlink:href="#DejaVuSans-100"/>
      <use x="1278.945312" xlink:href="#DejaVuSans-105"/>
      <use x="1306.728516" xlink:href="#DejaVuSans-110"/>
      <use x="1370.107422" xlink:href="#DejaVuSans-103"/>
      <use x="1433.583984" xlink:href="#DejaVuSans-32"/>
      <use x="1465.371094" xlink:href="#DejaVuSans-112"/>
      <use x="1528.847656" xlink:href="#DejaVuSans-114"/>
      <use x="1569.929688" xlink:href="#DejaVuSans-111"/>
      <use x="1631.111328" xlink:href="#DejaVuSans-116"/>
      <use x="1670.320312" xlink:href="#DejaVuSans-101"/>
      <use x="1731.84375" xlink:href="#DejaVuSans-105"/>
      <use x="1759.626953" xlink:href="#DejaVuSans-110"/>
     </g>
    </g>
    <g id="patch_62">
     <path d="M 755.294375 132.3125
L 783.294375 132.3125
L 783.294375 122.5125
L 755.294375 122.5125
z
" style="fill:#fc8d62;"/>
    </g>
    <g id="text_14">
     <!-- ATP-dependent RNA helicase -->
     <defs>
      <path d="M 44.390625 34.1875
Q 47.5625 33.109375 50.5625 29.59375
Q 53.5625 26.078125 56.59375 19.921875
L 66.609375 0
L 56 0
L 46.6875 18.703125
Q 43.0625 26.03125 39.671875 28.421875
Q 36.28125 30.8125 30.421875 30.8125
L 19.671875 30.8125
L 19.671875 0
L 9.8125 0
L 9.8125 72.90625
L 32.078125 72.90625
Q 44.578125 72.90625 50.734375 67.671875
Q 56.890625 62.453125 56.890625 51.90625
Q 56.890625 45.015625 53.6875 40.46875
Q 50.484375 35.9375 44.390625 34.1875
z
M 19.671875 64.796875
L 19.671875 38.921875
L 32.078125 38.921875
Q 39.203125 38.921875 42.84375 42.21875
Q 46.484375 45.515625 46.484375 51.90625
Q 46.484375 58.296875 42.84375 61.546875
Q 39.203125 64.796875 32.078125 64.796875
z
" id="DejaVuSans-82"/>
      <path d="M 9.8125 72.90625
L 23.09375 72.90625
L 55.421875 11.921875
L 55.421875 72.90625
L 64.984375 72.90625
L 64.984375 0
L 51.703125 0
L 19.390625 60.984375
L 19.390625 0
L 9.8125 0
z
" id="DejaVuSans-78"/>
     </defs>
     <g transform="translate(794.494375 132.3125)scale(0.14 -0.14)">
      <use xlink:href="#DejaVuSans-65"/>
      <use x="68.298828" xlink:href="#DejaVuSans-84"/>
      <use x="129.382812" xlink:href="#DejaVuSans-80"/>
      <use x="189.654297" xlink:href="#DejaVuSans-45"/>
      <use x="225.738281" xlink:href="#DejaVuSans-100"/>
      <use x="289.214844" xlink:href="#DejaVuSans-101"/>
      <use x="350.738281" xlink:href="#DejaVuSans-112"/>
      <use x="414.214844" xlink:href="#DejaVuSans-101"/>
      <use x="475.738281" xlink:href="#DejaVuSans-110"/>
      <use x="539.117188" xlink:href="#DejaVuSans-100"/>
      <use x="602.59375" xlink:href="#DejaVuSans-101"/>
      <use x="664.117188" xlink:href="#DejaVuSans-110"/>
      <use x="727.496094" xlink:href="#DejaVuSans-116"/>
      <use x="766.705078" xlink:href="#DejaVuSans-32"/>
      <use x="798.492188" xlink:href="#DejaVuSans-82"/>
      <use x="867.974609" xlink:href="#DejaVuSans-78"/>
      <use x="942.779297" xlink:href="#DejaVuSans-65"/>
      <use x="1011.1875" xlink:href="#DejaVuSans-32"/>
      <use x="1042.974609" xlink:href="#DejaVuSans-104"/>
      <use x="1106.353516" xlink:href="#DejaVuSans-101"/>
      <use x="1167.876953" xlink:href="#DejaVuSans-108"/>
      <use x="1195.660156" xlink:href="#DejaVuSans-105"/>
      <use x="1223.443359" xlink:href="#DejaVuSans-99"/>
      <use x="1278.423828" xlink:href="#DejaVuSans-97"/>
      <use x="1339.703125" xlink:href="#DejaVuSans-115"/>
      <use x="1391.802734" xlink:href="#DejaVuSans-101"/>
     </g>
    </g>
    <g id="patch_63">
     <path d="M 755.294375 152.861875
L 783.294375 152.861875
L 783.294375 143.061875
L 755.294375 143.061875
z
" style="fill:#fc8d62;"/>
    </g>
    <g id="text_15">
     <!-- ClpA/B-type protease -->
     <defs>
      <path d="M 25.390625 72.90625
L 33.6875 72.90625
L 8.296875 -9.28125
L 0 -9.28125
z
" id="DejaVuSans-47"/>
     </defs>
     <g transform="translate(794.494375 152.861875)scale(0.14 -0.14)">
      <use xlink:href="#DejaVuSans-67"/>
      <use x="69.824219" xlink:href="#DejaVuSans-108"/>
      <use x="97.607422" xlink:href="#DejaVuSans-112"/>
      <use x="161.083984" xlink:href="#DejaVuSans-65"/>
      <use x="229.492188" xlink:href="#DejaVuSans-47"/>
      <use x="263.183594" xlink:href="#DejaVuSans-66"/>
      <use x="331.787109" xlink:href="#DejaVuSans-45"/>
      <use x="367.871094" xlink:href="#DejaVuSans-116"/>
      <use x="407.080078" xlink:href="#DejaVuSans-121"/>
      <use x="466.259766" xlink:href="#DejaVuSans-112"/>
      <use x="529.736328" xlink:href="#DejaVuSans-101"/>
      <use x="591.259766" xlink:href="#DejaVuSans-32"/>
      <use x="623.046875" xlink:href="#DejaVuSans-112"/>
      <use x="686.523438" xlink:href="#DejaVuSans-114"/>
      <use x="727.605469" xlink:href="#DejaVuSans-111"/>
      <use x="788.787109" xlink:href="#DejaVuSans-116"/>
      <use x="827.996094" xlink:href="#DejaVuSans-101"/>
      <use x="889.519531" xlink:href="#DejaVuSans-97"/>
      <use x="950.798828" xlink:href="#DejaVuSans-115"/>
      <use x="1002.898438" xlink:href="#DejaVuSans-101"/>
     </g>
    </g>
    <g id="patch_64">
     <path d="M 755.294375 173.41125
L 783.294375 173.41125
L 783.294375 163.61125
L 755.294375 163.61125
z
" style="fill:#8da0cb;"/>
    </g>
    <g id="text_16">
     <!-- GTP pyrophosphokinase -->
     <g transform="translate(794.494375 173.41125)scale(0.14 -0.14)">
      <use xlink:href="#DejaVuSans-71"/>
      <use x="77.443359" xlink:href="#DejaVuSans-84"/>
      <use x="138.527344" xlink:href="#DejaVuSans-80"/>
      <use x="198.830078" xlink:href="#DejaVuSans-32"/>
      <use x="230.617188" xlink:href="#DejaVuSans-112"/>
      <use x="294.09375" xlink:href="#DejaVuSans-121"/>
      <use x="353.273438" xlink:href="#DejaVuSans-114"/>
      <use x="394.355469" xlink:href="#DejaVuSans-111"/>
      <use x="455.537109" xlink:href="#DejaVuSans-112"/>
      <use x="519.013672" xlink:href="#DejaVuSans-104"/>
      <use x="582.392578" xlink:href="#DejaVuSans-111"/>
      <use x="643.574219" xlink:href="#DejaVuSans-115"/>
      <use x="695.673828" xlink:href="#DejaVuSans-112"/>
      <use x="759.150391" xlink:href="#DejaVuSans-104"/>
      <use x="822.529297" xlink:href="#DejaVuSans-111"/>
      <use x="883.710938" xlink:href="#DejaVuSans-107"/>
      <use x="941.621094" xlink:href="#DejaVuSans-105"/>
      <use x="969.404297" xlink:href="#DejaVuSans-110"/>
      <use x="1032.783203" xlink:href="#DejaVuSans-97"/>
      <use x="1094.0625" xlink:href="#DejaVuSans-115"/>
      <use x="1146.162109" xlink:href="#DejaVuSans-101"/>
     </g>
    </g>
    <g id="patch_65">
     <path d="M 755.294375 193.960625
L 783.294375 193.960625
L 783.294375 184.160625
L 755.294375 184.160625
z
" style="fill:#8da0cb;"/>
    </g>
    <g id="text_17">
     <!-- RNA polymerase sigma factor -->
     <g transform="translate(794.494375 193.960625)scale(0.14 -0.14)">
      <use xlink:href="#DejaVuSans-82"/>
      <use x="69.482422" xlink:href="#DejaVuSans-78"/>
      <use x="144.287109" xlink:href="#DejaVuSans-65"/>
      <use x="212.695312" xlink:href="#DejaVuSans-32"/>
      <use x="244.482422" xlink:href="#DejaVuSans-112"/>
      <use x="307.958984" xlink:href="#DejaVuSans-111"/>
      <use x="369.140625" xlink:href="#DejaVuSans-108"/>
      <use x="396.923828" xlink:href="#DejaVuSans-121"/>
      <use x="456.103516" xlink:href="#DejaVuSans-109"/>
      <use x="553.515625" xlink:href="#DejaVuSans-101"/>
      <use x="615.039062" xlink:href="#DejaVuSans-114"/>
      <use x="656.152344" xlink:href="#DejaVuSans-97"/>
      <use x="717.431641" xlink:href="#DejaVuSans-115"/>
      <use x="769.53125" xlink:href="#DejaVuSans-101"/>
      <use x="831.054688" xlink:href="#DejaVuSans-32"/>
      <use x="862.841797" xlink:href="#DejaVuSans-115"/>
      <use x="914.941406" xlink:href="#DejaVuSans-105"/>
      <use x="942.724609" xlink:href="#DejaVuSans-103"/>
      <use x="1006.201172" xlink:href="#DejaVuSans-109"/>
      <use x="1103.613281" xlink:href="#DejaVuSans-97"/>
      <use x="1164.892578" xlink:href="#DejaVuSans-32"/>
      <use x="1196.679688" xlink:href="#DejaVuSans-102"/>
      <use x="1231.884766" xlink:href="#DejaVuSans-97"/>
      <use x="1293.164062" xlink:href="#DejaVuSans-99"/>
      <use x="1348.144531" xlink:href="#DejaVuSans-116"/>
      <use x="1387.353516" xlink:href="#DejaVuSans-111"/>
      <use x="1448.535156" xlink:href="#DejaVuSans-114"/>
     </g>
    </g>
    <g id="patch_66">
     <path d="M 755.294375 214.51
L 783.294375 214.51
L 783.294375 204.71
L 755.294375 204.71
z
" style="fill:#8da0cb;"/>
    </g>
    <g id="text_18">
     <!-- RNA pyrophosphohydrolase -->
     <g transform="translate(794.494375 214.51)scale(0.14 -0.14)">
      <use xlink:href="#DejaVuSans-82"/>
      <use x="69.482422" xlink:href="#DejaVuSans-78"/>
      <use x="144.287109" xlink:href="#DejaVuSans-65"/>
      <use x="212.695312" xlink:href="#DejaVuSans-32"/>
      <use x="244.482422" xlink:href="#DejaVuSans-112"/>
      <use x="307.958984" xlink:href="#DejaVuSans-121"/>
      <use x="367.138672" xlink:href="#DejaVuSans-114"/>
      <use x="408.220703" xlink:href="#DejaVuSans-111"/>
      <use x="469.402344" xlink:href="#DejaVuSans-112"/>
      <use x="532.878906" xlink:href="#DejaVuSans-104"/>
      <use x="596.257812" xlink:href="#DejaVuSans-111"/>
      <use x="657.439453" xlink:href="#DejaVuSans-115"/>
      <use x="709.539062" xlink:href="#DejaVuSans-112"/>
      <use x="773.015625" xlink:href="#DejaVuSans-104"/>
      <use x="836.394531" xlink:href="#DejaVuSans-111"/>
      <use x="897.576172" xlink:href="#DejaVuSans-104"/>
      <use x="960.955078" xlink:href="#DejaVuSans-121"/>
      <use x="1020.134766" xlink:href="#DejaVuSans-100"/>
      <use x="1083.611328" xlink:href="#DejaVuSans-114"/>
      <use x="1124.693359" xlink:href="#DejaVuSans-111"/>
      <use x="1185.875" xlink:href="#DejaVuSans-108"/>
      <use x="1213.658203" xlink:href="#DejaVuSans-97"/>
      <use x="1274.9375" xlink:href="#DejaVuSans-115"/>
      <use x="1327.037109" xlink:href="#DejaVuSans-101"/>
     </g>
    </g>
    <g id="patch_67">
     <path d="M 755.294375 235.059375
L 783.294375 235.059375
L 783.294375 225.259375
L 755.294375 225.259375
z
" style="fill:#e78ac3;"/>
    </g>
    <g id="text_19">
     <!-- RNA-binding protein Hfq -->
     <defs>
      <path d="M 9.8125 72.90625
L 19.671875 72.90625
L 19.671875 43.015625
L 55.515625 43.015625
L 55.515625 72.90625
L 65.375 72.90625
L 65.375 0
L 55.515625 0
L 55.515625 34.71875
L 19.671875 34.71875
L 19.671875 0
L 9.8125 0
z
" id="DejaVuSans-72"/>
      <path d="M 14.796875 27.296875
Q 14.796875 17.390625 18.875 11.75
Q 22.953125 6.109375 30.078125 6.109375
Q 37.203125 6.109375 41.296875 11.75
Q 45.40625 17.390625 45.40625 27.296875
Q 45.40625 37.203125 41.296875 42.84375
Q 37.203125 48.484375 30.078125 48.484375
Q 22.953125 48.484375 18.875 42.84375
Q 14.796875 37.203125 14.796875 27.296875
z
M 45.40625 8.203125
Q 42.578125 3.328125 38.25 0.953125
Q 33.9375 -1.421875 27.875 -1.421875
Q 17.96875 -1.421875 11.734375 6.484375
Q 5.515625 14.40625 5.515625 27.296875
Q 5.515625 40.1875 11.734375 48.09375
Q 17.96875 56 27.875 56
Q 33.9375 56 38.25 53.625
Q 42.578125 51.265625 45.40625 46.390625
L 45.40625 54.6875
L 54.390625 54.6875
L 54.390625 -20.796875
L 45.40625 -20.796875
z
" id="DejaVuSans-113"/>
     </defs>
     <g transform="translate(794.494375 235.059375)scale(0.14 -0.14)">
      <use xlink:href="#DejaVuSans-82"/>
      <use x="69.482422" xlink:href="#DejaVuSans-78"/>
      <use x="144.287109" xlink:href="#DejaVuSans-65"/>
      <use x="212.664062" xlink:href="#DejaVuSans-45"/>
      <use x="248.748047" xlink:href="#DejaVuSans-98"/>
      <use x="312.224609" xlink:href="#DejaVuSans-105"/>
      <use x="340.007812" xlink:href="#DejaVuSans-110"/>
      <use x="403.386719" xlink:href="#DejaVuSans-100"/>
      <use x="466.863281" xlink:href="#DejaVuSans-105"/>
      <use x="494.646484" xlink:href="#DejaVuSans-110"/>
      <use x="558.025391" xlink:href="#DejaVuSans-103"/>
      <use x="621.501953" xlink:href="#DejaVuSans-32"/>
      <use x="653.289062" xlink:href="#DejaVuSans-112"/>
      <use x="716.765625" xlink:href="#DejaVuSans-114"/>
      <use x="757.847656" xlink:href="#DejaVuSans-111"/>
      <use x="819.029297" xlink:href="#DejaVuSans-116"/>
      <use x="858.238281" xlink:href="#DejaVuSans-101"/>
      <use x="919.761719" xlink:href="#DejaVuSans-105"/>
      <use x="947.544922" xlink:href="#DejaVuSans-110"/>
      <use x="1010.923828" xlink:href="#DejaVuSans-32"/>
      <use x="1042.710938" xlink:href="#DejaVuSans-72"/>
      <use x="1117.90625" xlink:href="#DejaVuSans-102"/>
      <use x="1153.111328" xlink:href="#DejaVuSans-113"/>
     </g>
    </g>
    <g id="patch_68">
     <path d="M 755.294375 255.60875
L 783.294375 255.60875
L 783.294375 245.80875
L 755.294375 245.80875
z
" style="fill:#e78ac3;"/>
    </g>
    <g id="text_20">
     <!-- adhesin -->
     <g transform="translate(794.494375 255.60875)scale(0.14 -0.14)">
      <use xlink:href="#DejaVuSans-97"/>
      <use x="61.279297" xlink:href="#DejaVuSans-100"/>
      <use x="124.755859" xlink:href="#DejaVuSans-104"/>
      <use x="188.134766" xlink:href="#DejaVuSans-101"/>
      <use x="249.658203" xlink:href="#DejaVuSans-115"/>
      <use x="301.757812" xlink:href="#DejaVuSans-105"/>
      <use x="329.541016" xlink:href="#DejaVuSans-110"/>
     </g>
    </g>
    <g id="patch_69">
     <path d="M 755.294375 276.158125
L 783.294375 276.158125
L 783.294375 266.358125
L 755.294375 266.358125
z
" style="fill:#e78ac3;"/>
    </g>
    <g id="text_21">
     <!-- anthranilate- -CoA ligase -->
     <g transform="translate(794.494375 276.158125)scale(0.14 -0.14)">
      <use xlink:href="#DejaVuSans-97"/>
      <use x="61.279297" xlink:href="#DejaVuSans-110"/>
      <use x="124.658203" xlink:href="#DejaVuSans-116"/>
      <use x="163.867188" xlink:href="#DejaVuSans-104"/>
      <use x="227.246094" xlink:href="#DejaVuSans-114"/>
      <use x="268.359375" xlink:href="#DejaVuSans-97"/>
      <use x="329.638672" xlink:href="#DejaVuSans-110"/>
      <use x="393.017578" xlink:href="#DejaVuSans-105"/>
      <use x="420.800781" xlink:href="#DejaVuSans-108"/>
      <use x="448.583984" xlink:href="#DejaVuSans-97"/>
      <use x="509.863281" xlink:href="#DejaVuSans-116"/>
      <use x="549.072266" xlink:href="#DejaVuSans-101"/>
      <use x="610.595703" xlink:href="#DejaVuSans-45"/>
      <use x="646.679688" xlink:href="#DejaVuSans-45"/>
      <use x="682.763672" xlink:href="#DejaVuSans-67"/>
      <use x="752.587891" xlink:href="#DejaVuSans-111"/>
      <use x="813.769531" xlink:href="#DejaVuSans-65"/>
      <use x="882.177734" xlink:href="#DejaVuSans-32"/>
      <use x="913.964844" xlink:href="#DejaVuSans-108"/>
      <use x="941.748047" xlink:href="#DejaVuSans-105"/>
      <use x="969.53125" xlink:href="#DejaVuSans-103"/>
      <use x="1033.007812" xlink:href="#DejaVuSans-97"/>
      <use x="1094.287109" xlink:href="#DejaVuSans-115"/>
      <use x="1146.386719" xlink:href="#DejaVuSans-101"/>
     </g>
    </g>
    <g id="patch_70">
     <path d="M 755.294375 296.7075
L 783.294375 296.7075
L 783.294375 286.9075
L 755.294375 286.9075
z
" style="fill:#a6d854;"/>
    </g>
    <g id="text_22">
     <!-- anti-sigma factor -->
     <g transform="translate(794.494375 296.7075)scale(0.14 -0.14)">
      <use xlink:href="#DejaVuSans-97"/>
      <use x="61.279297" xlink:href="#DejaVuSans-110"/>
      <use x="124.658203" xlink:href="#DejaVuSans-116"/>
      <use x="163.867188" xlink:href="#DejaVuSans-105"/>
      <use x="191.650391" xlink:href="#DejaVuSans-45"/>
      <use x="227.734375" xlink:href="#DejaVuSans-115"/>
      <use x="279.833984" xlink:href="#DejaVuSans-105"/>
      <use x="307.617188" xlink:href="#DejaVuSans-103"/>
      <use x="371.09375" xlink:href="#DejaVuSans-109"/>
      <use x="468.505859" xlink:href="#DejaVuSans-97"/>
      <use x="529.785156" xlink:href="#DejaVuSans-32"/>
      <use x="561.572266" xlink:href="#DejaVuSans-102"/>
      <use x="596.777344" xlink:href="#DejaVuSans-97"/>
      <use x="658.056641" xlink:href="#DejaVuSans-99"/>
      <use x="713.037109" xlink:href="#DejaVuSans-116"/>
      <use x="752.246094" xlink:href="#DejaVuSans-111"/>
      <use x="813.427734" xlink:href="#DejaVuSans-114"/>
     </g>
    </g>
    <g id="patch_71">
     <path d="M 755.294375 317.256875
L 783.294375 317.256875
L 783.294375 307.456875
L 755.294375 307.456875
z
" style="fill:#a6d854;"/>
    </g>
    <g id="text_23">
     <!-- biofilm formation protein -->
     <g transform="translate(794.494375 317.256875)scale(0.14 -0.14)">
      <use xlink:href="#DejaVuSans-98"/>
      <use x="63.476562" xlink:href="#DejaVuSans-105"/>
      <use x="91.259766" xlink:href="#DejaVuSans-111"/>
      <use x="152.441406" xlink:href="#DejaVuSans-102"/>
      <use x="187.646484" xlink:href="#DejaVuSans-105"/>
      <use x="215.429688" xlink:href="#DejaVuSans-108"/>
      <use x="243.212891" xlink:href="#DejaVuSans-109"/>
      <use x="340.625" xlink:href="#DejaVuSans-32"/>
      <use x="372.412109" xlink:href="#DejaVuSans-102"/>
      <use x="407.617188" xlink:href="#DejaVuSans-111"/>
      <use x="468.798828" xlink:href="#DejaVuSans-114"/>
      <use x="509.896484" xlink:href="#DejaVuSans-109"/>
      <use x="607.308594" xlink:href="#DejaVuSans-97"/>
      <use x="668.587891" xlink:href="#DejaVuSans-116"/>
      <use x="707.796875" xlink:href="#DejaVuSans-105"/>
      <use x="735.580078" xlink:href="#DejaVuSans-111"/>
      <use x="796.761719" xlink:href="#DejaVuSans-110"/>
      <use x="860.140625" xlink:href="#DejaVuSans-32"/>
      <use x="891.927734" xlink:href="#DejaVuSans-112"/>
      <use x="955.404297" xlink:href="#DejaVuSans-114"/>
      <use x="996.486328" xlink:href="#DejaVuSans-111"/>
      <use x="1057.667969" xlink:href="#DejaVuSans-116"/>
      <use x="1096.876953" xlink:href="#DejaVuSans-101"/>
      <use x="1158.400391" xlink:href="#DejaVuSans-105"/>
      <use x="1186.183594" xlink:href="#DejaVuSans-110"/>
     </g>
    </g>
    <g id="patch_72">
     <path d="M 755.294375 337.80625
L 783.294375 337.80625
L 783.294375 328.00625
L 755.294375 328.00625
z
" style="fill:#a6d854;"/>
    </g>
    <g id="text_24">
     <!-- carbon storage regulator -->
     <g transform="translate(794.494375 337.80625)scale(0.14 -0.14)">
      <use xlink:href="#DejaVuSans-99"/>
      <use x="54.980469" xlink:href="#DejaVuSans-97"/>
      <use x="116.259766" xlink:href="#DejaVuSans-114"/>
      <use x="157.373047" xlink:href="#DejaVuSans-98"/>
      <use x="220.849609" xlink:href="#DejaVuSans-111"/>
      <use x="282.03125" xlink:href="#DejaVuSans-110"/>
      <use x="345.410156" xlink:href="#DejaVuSans-32"/>
      <use x="377.197266" xlink:href="#DejaVuSans-115"/>
      <use x="429.296875" xlink:href="#DejaVuSans-116"/>
      <use x="468.505859" xlink:href="#DejaVuSans-111"/>
      <use x="529.6875" xlink:href="#DejaVuSans-114"/>
      <use x="570.800781" xlink:href="#DejaVuSans-97"/>
      <use x="632.080078" xlink:href="#DejaVuSans-103"/>
      <use x="695.556641" xlink:href="#DejaVuSans-101"/>
      <use x="757.080078" xlink:href="#DejaVuSans-32"/>
      <use x="788.867188" xlink:href="#DejaVuSans-114"/>
      <use x="829.949219" xlink:href="#DejaVuSans-101"/>
      <use x="891.472656" xlink:href="#DejaVuSans-103"/>
      <use x="954.949219" xlink:href="#DejaVuSans-117"/>
      <use x="1018.328125" xlink:href="#DejaVuSans-108"/>
      <use x="1046.111328" xlink:href="#DejaVuSans-97"/>
      <use x="1107.390625" xlink:href="#DejaVuSans-116"/>
      <use x="1146.599609" xlink:href="#DejaVuSans-111"/>
      <use x="1207.78125" xlink:href="#DejaVuSans-114"/>
     </g>
    </g>
    <g id="patch_73">
     <path d="M 755.294375 358.355625
L 783.294375 358.355625
L 783.294375 348.555625
L 755.294375 348.555625
z
" style="fill:#ffd92f;"/>
    </g>
    <g id="text_25">
     <!-- elastase -->
     <g transform="translate(794.494375 358.355625)scale(0.14 -0.14)">
      <use xlink:href="#DejaVuSans-101"/>
      <use x="61.523438" xlink:href="#DejaVuSans-108"/>
      <use x="89.306641" xlink:href="#DejaVuSans-97"/>
      <use x="150.585938" xlink:href="#DejaVuSans-115"/>
      <use x="202.685547" xlink:href="#DejaVuSans-116"/>
      <use x="241.894531" xlink:href="#DejaVuSans-97"/>
      <use x="303.173828" xlink:href="#DejaVuSans-115"/>
      <use x="355.273438" xlink:href="#DejaVuSans-101"/>
     </g>
    </g>
    <g id="patch_74">
     <path d="M 755.294375 378.905
L 783.294375 378.905
L 783.294375 369.105
L 755.294375 369.105
z
" style="fill:#ffd92f;"/>
    </g>
    <g id="text_26">
     <!-- elongation factor G -->
     <g transform="translate(794.494375 378.905)scale(0.14 -0.14)">
      <use xlink:href="#DejaVuSans-101"/>
      <use x="61.523438" xlink:href="#DejaVuSans-108"/>
      <use x="89.306641" xlink:href="#DejaVuSans-111"/>
      <use x="150.488281" xlink:href="#DejaVuSans-110"/>
      <use x="213.867188" xlink:href="#DejaVuSans-103"/>
      <use x="277.34375" xlink:href="#DejaVuSans-97"/>
      <use x="338.623047" xlink:href="#DejaVuSans-116"/>
      <use x="377.832031" xlink:href="#DejaVuSans-105"/>
      <use x="405.615234" xlink:href="#DejaVuSans-111"/>
      <use x="466.796875" xlink:href="#DejaVuSans-110"/>
      <use x="530.175781" xlink:href="#DejaVuSans-32"/>
      <use x="561.962891" xlink:href="#DejaVuSans-102"/>
      <use x="597.167969" xlink:href="#DejaVuSans-97"/>
      <use x="658.447266" xlink:href="#DejaVuSans-99"/>
      <use x="713.427734" xlink:href="#DejaVuSans-116"/>
      <use x="752.636719" xlink:href="#DejaVuSans-111"/>
      <use x="813.818359" xlink:href="#DejaVuSans-114"/>
      <use x="854.931641" xlink:href="#DejaVuSans-32"/>
      <use x="886.71875" xlink:href="#DejaVuSans-71"/>
     </g>
    </g>
    <g id="patch_75">
     <path d="M 755.294375 399.454375
L 783.294375 399.454375
L 783.294375 389.654375
L 755.294375 389.654375
z
" style="fill:#ffd92f;"/>
    </g>
    <g id="text_27">
     <!-- flagellar hook-associated protein -->
     <g transform="translate(794.494375 399.454375)scale(0.14 -0.14)">
      <use xlink:href="#DejaVuSans-102"/>
      <use x="35.205078" xlink:href="#DejaVuSans-108"/>
      <use x="62.988281" xlink:href="#DejaVuSans-97"/>
      <use x="124.267578" xlink:href="#DejaVuSans-103"/>
      <use x="187.744141" xlink:href="#DejaVuSans-101"/>
      <use x="249.267578" xlink:href="#DejaVuSans-108"/>
      <use x="277.050781" xlink:href="#DejaVuSans-108"/>
      <use x="304.833984" xlink:href="#DejaVuSans-97"/>
      <use x="366.113281" xlink:href="#DejaVuSans-114"/>
      <use x="407.226562" xlink:href="#DejaVuSans-32"/>
      <use x="439.013672" xlink:href="#DejaVuSans-104"/>
      <use x="502.392578" xlink:href="#DejaVuSans-111"/>
      <use x="563.574219" xlink:href="#DejaVuSans-111"/>
      <use x="624.755859" xlink:href="#DejaVuSans-107"/>
      <use x="682.666016" xlink:href="#DejaVuSans-45"/>
      <use x="718.75" xlink:href="#DejaVuSans-97"/>
      <use x="780.029297" xlink:href="#DejaVuSans-115"/>
      <use x="832.128906" xlink:href="#DejaVuSans-115"/>
      <use x="884.228516" xlink:href="#DejaVuSans-111"/>
      <use x="945.410156" xlink:href="#DejaVuSans-99"/>
      <use x="1000.390625" xlink:href="#DejaVuSans-105"/>
      <use x="1028.173828" xlink:href="#DejaVuSans-97"/>
      <use x="1089.453125" xlink:href="#DejaVuSans-116"/>
      <use x="1128.662109" xlink:href="#DejaVuSans-101"/>
      <use x="1190.185547" xlink:href="#DejaVuSans-100"/>
      <use x="1253.662109" xlink:href="#DejaVuSans-32"/>
      <use x="1285.449219" xlink:href="#DejaVuSans-112"/>
      <use x="1348.925781" xlink:href="#DejaVuSans-114"/>
      <use x="1390.007812" xlink:href="#DejaVuSans-111"/>
      <use x="1451.189453" xlink:href="#DejaVuSans-116"/>
      <use x="1490.398438" xlink:href="#DejaVuSans-101"/>
      <use x="1551.921875" xlink:href="#DejaVuSans-105"/>
      <use x="1579.705078" xlink:href="#DejaVuSans-110"/>
     </g>
    </g>
    <g id="patch_76">
     <path d="M 755.294375 420.00375
L 783.294375 420.00375
L 783.294375 410.20375
L 755.294375 410.20375
z
" style="fill:#e5c494;"/>
    </g>
    <g id="text_28">
     <!-- guanidinobutyrase -->
     <g transform="translate(794.494375 420.00375)scale(0.14 -0.14)">
      <use xlink:href="#DejaVuSans-103"/>
      <use x="63.476562" xlink:href="#DejaVuSans-117"/>
      <use x="126.855469" xlink:href="#DejaVuSans-97"/>
      <use x="188.134766" xlink:href="#DejaVuSans-110"/>
      <use x="251.513672" xlink:href="#DejaVuSans-105"/>
      <use x="279.296875" xlink:href="#DejaVuSans-100"/>
      <use x="342.773438" xlink:href="#DejaVuSans-105"/>
      <use x="370.556641" xlink:href="#DejaVuSans-110"/>
      <use x="433.935547" xlink:href="#DejaVuSans-111"/>
      <use x="495.117188" xlink:href="#DejaVuSans-98"/>
      <use x="558.59375" xlink:href="#DejaVuSans-117"/>
      <use x="621.972656" xlink:href="#DejaVuSans-116"/>
      <use x="661.181641" xlink:href="#DejaVuSans-121"/>
      <use x="720.361328" xlink:href="#DejaVuSans-114"/>
      <use x="761.474609" xlink:href="#DejaVuSans-97"/>
      <use x="822.753906" xlink:href="#DejaVuSans-115"/>
      <use x="874.853516" xlink:href="#DejaVuSans-101"/>
     </g>
    </g>
    <g id="patch_77">
     <path d="M 755.294375 440.553125
L 783.294375 440.553125
L 783.294375 430.753125
L 755.294375 430.753125
z
" style="fill:#e5c494;"/>
    </g>
    <g id="text_29">
     <!-- heparinase -->
     <g transform="translate(794.494375 440.553125)scale(0.14 -0.14)">
      <use xlink:href="#DejaVuSans-104"/>
      <use x="63.378906" xlink:href="#DejaVuSans-101"/>
      <use x="124.902344" xlink:href="#DejaVuSans-112"/>
      <use x="188.378906" xlink:href="#DejaVuSans-97"/>
      <use x="249.658203" xlink:href="#DejaVuSans-114"/>
      <use x="290.771484" xlink:href="#DejaVuSans-105"/>
      <use x="318.554688" xlink:href="#DejaVuSans-110"/>
      <use x="381.933594" xlink:href="#DejaVuSans-97"/>
      <use x="443.212891" xlink:href="#DejaVuSans-115"/>
      <use x="495.3125" xlink:href="#DejaVuSans-101"/>
     </g>
    </g>
    <g id="patch_78">
     <path d="M 755.294375 461.1025
L 783.294375 461.1025
L 783.294375 451.3025
L 755.294375 451.3025
z
" style="fill:#e5c494;"/>
    </g>
    <g id="text_30">
     <!-- molecular chaperone -->
     <g transform="translate(794.494375 461.1025)scale(0.14 -0.14)">
      <use xlink:href="#DejaVuSans-109"/>
      <use x="97.412109" xlink:href="#DejaVuSans-111"/>
      <use x="158.59375" xlink:href="#DejaVuSans-108"/>
      <use x="186.376953" xlink:href="#DejaVuSans-101"/>
      <use x="247.900391" xlink:href="#DejaVuSans-99"/>
      <use x="302.880859" xlink:href="#DejaVuSans-117"/>
      <use x="366.259766" xlink:href="#DejaVuSans-108"/>
      <use x="394.042969" xlink:href="#DejaVuSans-97"/>
      <use x="455.322266" xlink:href="#DejaVuSans-114"/>
      <use x="496.435547" xlink:href="#DejaVuSans-32"/>
      <use x="528.222656" xlink:href="#DejaVuSans-99"/>
      <use x="583.203125" xlink:href="#DejaVuSans-104"/>
      <use x="646.582031" xlink:href="#DejaVuSans-97"/>
      <use x="707.861328" xlink:href="#DejaVuSans-112"/>
      <use x="771.337891" xlink:href="#DejaVuSans-101"/>
      <use x="832.861328" xlink:href="#DejaVuSans-114"/>
      <use x="873.943359" xlink:href="#DejaVuSans-111"/>
      <use x="935.125" xlink:href="#DejaVuSans-110"/>
      <use x="998.503906" xlink:href="#DejaVuSans-101"/>
     </g>
    </g>
    <g id="patch_79">
     <path d="M 755.294375 481.651875
L 783.294375 481.651875
L 783.294375 471.851875
L 755.294375 471.851875
z
" style="fill:#b3b3b3;"/>
    </g>
    <g id="text_31">
     <!-- regulatory RNA -->
     <g transform="translate(794.494375 481.651875)scale(0.14 -0.14)">
      <use xlink:href="#DejaVuSans-114"/>
      <use x="41.082031" xlink:href="#DejaVuSans-101"/>
      <use x="102.605469" xlink:href="#DejaVuSans-103"/>
      <use x="166.082031" xlink:href="#DejaVuSans-117"/>
      <use x="229.460938" xlink:href="#DejaVuSans-108"/>
      <use x="257.244141" xlink:href="#DejaVuSans-97"/>
      <use x="318.523438" xlink:href="#DejaVuSans-116"/>
      <use x="357.732422" xlink:href="#DejaVuSans-111"/>
      <use x="418.914062" xlink:href="#DejaVuSans-114"/>
      <use x="460.027344" xlink:href="#DejaVuSans-121"/>
      <use x="519.207031" xlink:href="#DejaVuSans-32"/>
      <use x="550.994141" xlink:href="#DejaVuSans-82"/>
      <use x="620.476562" xlink:href="#DejaVuSans-78"/>
      <use x="695.28125" xlink:href="#DejaVuSans-65"/>
     </g>
    </g>
    <g id="patch_80">
     <path d="M 755.294375 502.20125
L 783.294375 502.20125
L 783.294375 492.40125
L 755.294375 492.40125
z
" style="fill:#b3b3b3;"/>
    </g>
    <g id="text_32">
     <!-- resistance-nodulation-cell division (RND) efflux membrane fusion protein -->
     <defs>
      <path d="M 2.984375 54.6875
L 12.5 54.6875
L 29.59375 8.796875
L 46.6875 54.6875
L 56.203125 54.6875
L 35.6875 0
L 23.484375 0
z
" id="DejaVuSans-118"/>
      <path d="M 31 75.875
Q 24.46875 64.65625 21.28125 53.65625
Q 18.109375 42.671875 18.109375 31.390625
Q 18.109375 20.125 21.3125 9.0625
Q 24.515625 -2 31 -13.1875
L 23.1875 -13.1875
Q 15.875 -1.703125 12.234375 9.375
Q 8.59375 20.453125 8.59375 31.390625
Q 8.59375 42.28125 12.203125 53.3125
Q 15.828125 64.359375 23.1875 75.875
z
" id="DejaVuSans-40"/>
      <path d="M 19.671875 64.796875
L 19.671875 8.109375
L 31.59375 8.109375
Q 46.6875 8.109375 53.6875 14.9375
Q 60.6875 21.78125 60.6875 36.53125
Q 60.6875 51.171875 53.6875 57.984375
Q 46.6875 64.796875 31.59375 64.796875
z
M 9.8125 72.90625
L 30.078125 72.90625
Q 51.265625 72.90625 61.171875 64.09375
Q 71.09375 55.28125 71.09375 36.53125
Q 71.09375 17.671875 61.125 8.828125
Q 51.171875 0 30.078125 0
L 9.8125 0
z
" id="DejaVuSans-68"/>
      <path d="M 8.015625 75.875
L 15.828125 75.875
Q 23.140625 64.359375 26.78125 53.3125
Q 30.421875 42.28125 30.421875 31.390625
Q 30.421875 20.453125 26.78125 9.375
Q 23.140625 -1.703125 15.828125 -13.1875
L 8.015625 -13.1875
Q 14.5 -2 17.703125 9.0625
Q 20.90625 20.125 20.90625 31.390625
Q 20.90625 42.671875 17.703125 53.65625
Q 14.5 64.65625 8.015625 75.875
z
" id="DejaVuSans-41"/>
     </defs>
     <g transform="translate(794.494375 502.20125)scale(0.14 -0.14)">
      <use xlink:href="#DejaVuSans-114"/>
      <use x="41.082031" xlink:href="#DejaVuSans-101"/>
      <use x="102.605469" xlink:href="#DejaVuSans-115"/>
      <use x="154.705078" xlink:href="#DejaVuSans-105"/>
      <use x="182.488281" xlink:href="#DejaVuSans-115"/>
      <use x="234.587891" xlink:href="#DejaVuSans-116"/>
      <use x="273.796875" xlink:href="#DejaVuSans-97"/>
      <use x="335.076172" xlink:href="#DejaVuSans-110"/>
      <use x="398.455078" xlink:href="#DejaVuSans-99"/>
      <use x="453.435547" xlink:href="#DejaVuSans-101"/>
      <use x="514.958984" xlink:href="#DejaVuSans-45"/>
      <use x="551.042969" xlink:href="#DejaVuSans-110"/>
      <use x="614.421875" xlink:href="#DejaVuSans-111"/>
      <use x="675.603516" xlink:href="#DejaVuSans-100"/>
      <use x="739.080078" xlink:href="#DejaVuSans-117"/>
      <use x="802.458984" xlink:href="#DejaVuSans-108"/>
      <use x="830.242188" xlink:href="#DejaVuSans-97"/>
      <use x="891.521484" xlink:href="#DejaVuSans-116"/>
      <use x="930.730469" xlink:href="#DejaVuSans-105"/>
      <use x="958.513672" xlink:href="#DejaVuSans-111"/>
      <use x="1019.695312" xlink:href="#DejaVuSans-110"/>
      <use x="1083.074219" xlink:href="#DejaVuSans-45"/>
      <use x="1119.158203" xlink:href="#DejaVuSans-99"/>
      <use x="1174.138672" xlink:href="#DejaVuSans-101"/>
      <use x="1235.662109" xlink:href="#DejaVuSans-108"/>
      <use x="1263.445312" xlink:href="#DejaVuSans-108"/>
      <use x="1291.228516" xlink:href="#DejaVuSans-32"/>
      <use x="1323.015625" xlink:href="#DejaVuSans-100"/>
      <use x="1386.492188" xlink:href="#DejaVuSans-105"/>
      <use x="1414.275391" xlink:href="#DejaVuSans-118"/>
      <use x="1473.455078" xlink:href="#DejaVuSans-105"/>
      <use x="1501.238281" xlink:href="#DejaVuSans-115"/>
      <use x="1553.337891" xlink:href="#DejaVuSans-105"/>
      <use x="1581.121094" xlink:href="#DejaVuSans-111"/>
      <use x="1642.302734" xlink:href="#DejaVuSans-110"/>
      <use x="1705.681641" xlink:href="#DejaVuSans-32"/>
      <use x="1737.46875" xlink:href="#DejaVuSans-40"/>
      <use x="1776.482422" xlink:href="#DejaVuSans-82"/>
      <use x="1845.964844" xlink:href="#DejaVuSans-78"/>
      <use x="1920.769531" xlink:href="#DejaVuSans-68"/>
      <use x="1997.771484" xlink:href="#DejaVuSans-41"/>
      <use x="2036.785156" xlink:href="#DejaVuSans-32"/>
      <use x="2068.572266" xlink:href="#DejaVuSans-101"/>
      <use x="2130.095703" xlink:href="#DejaVuSans-102"/>
      <use x="2165.300781" xlink:href="#DejaVuSans-102"/>
      <use x="2200.505859" xlink:href="#DejaVuSans-108"/>
      <use x="2228.289062" xlink:href="#DejaVuSans-117"/>
      <use x="2291.667969" xlink:href="#DejaVuSans-120"/>
      <use x="2350.847656" xlink:href="#DejaVuSans-32"/>
      <use x="2382.634766" xlink:href="#DejaVuSans-109"/>
      <use x="2480.046875" xlink:href="#DejaVuSans-101"/>
      <use x="2541.570312" xlink:href="#DejaVuSans-109"/>
      <use x="2638.982422" xlink:href="#DejaVuSans-98"/>
      <use x="2702.458984" xlink:href="#DejaVuSans-114"/>
      <use x="2743.572266" xlink:href="#DejaVuSans-97"/>
      <use x="2804.851562" xlink:href="#DejaVuSans-110"/>
      <use x="2868.230469" xlink:href="#DejaVuSans-101"/>
      <use x="2929.753906" xlink:href="#DejaVuSans-32"/>
      <use x="2961.541016" xlink:href="#DejaVuSans-102"/>
      <use x="2996.746094" xlink:href="#DejaVuSans-117"/>
      <use x="3060.125" xlink:href="#DejaVuSans-115"/>
      <use x="3112.224609" xlink:href="#DejaVuSans-105"/>
      <use x="3140.007812" xlink:href="#DejaVuSans-111"/>
      <use x="3201.189453" xlink:href="#DejaVuSans-110"/>
      <use x="3264.568359" xlink:href="#DejaVuSans-32"/>
      <use x="3296.355469" xlink:href="#DejaVuSans-112"/>
      <use x="3359.832031" xlink:href="#DejaVuSans-114"/>
      <use x="3400.914062" xlink:href="#DejaVuSans-111"/>
      <use x="3462.095703" xlink:href="#DejaVuSans-116"/>
      <use x="3501.304688" xlink:href="#DejaVuSans-101"/>
      <use x="3562.828125" xlink:href="#DejaVuSans-105"/>
      <use x="3590.611328" xlink:href="#DejaVuSans-110"/>
     </g>
    </g>
    <g id="patch_81">
     <path d="M 755.294375 522.750625
L 783.294375 522.750625
L 783.294375 512.950625
L 755.294375 512.950625
z
" style="fill:#b3b3b3;"/>
    </g>
    <g id="text_33">
     <!-- transcriptional regulator -->
     <g transform="translate(794.494375 522.750625)scale(0.14 -0.14)">
      <use xlink:href="#DejaVuSans-116"/>
      <use x="39.208984" xlink:href="#DejaVuSans-114"/>
      <use x="80.322266" xlink:href="#DejaVuSans-97"/>
      <use x="141.601562" xlink:href="#DejaVuSans-110"/>
      <use x="204.980469" xlink:href="#DejaVuSans-115"/>
      <use x="257.080078" xlink:href="#DejaVuSans-99"/>
      <use x="312.060547" xlink:href="#DejaVuSans-114"/>
      <use x="353.173828" xlink:href="#DejaVuSans-105"/>
      <use x="380.957031" xlink:href="#DejaVuSans-112"/>
      <use x="444.433594" xlink:href="#DejaVuSans-116"/>
      <use x="483.642578" xlink:href="#DejaVuSans-105"/>
      <use x="511.425781" xlink:href="#DejaVuSans-111"/>
      <use x="572.607422" xlink:href="#DejaVuSans-110"/>
      <use x="635.986328" xlink:href="#DejaVuSans-97"/>
      <use x="697.265625" xlink:href="#DejaVuSans-108"/>
      <use x="725.048828" xlink:href="#DejaVuSans-32"/>
      <use x="756.835938" xlink:href="#DejaVuSans-114"/>
      <use x="797.917969" xlink:href="#DejaVuSans-101"/>
      <use x="859.441406" xlink:href="#DejaVuSans-103"/>
      <use x="922.917969" xlink:href="#DejaVuSans-117"/>
      <use x="986.296875" xlink:href="#DejaVuSans-108"/>
      <use x="1014.080078" xlink:href="#DejaVuSans-97"/>
      <use x="1075.359375" xlink:href="#DejaVuSans-116"/>
      <use x="1114.568359" xlink:href="#DejaVuSans-111"/>
      <use x="1175.75" xlink:href="#DejaVuSans-114"/>
     </g>
    </g>
    <g id="patch_82">
     <path d="M 755.294375 543.3
L 783.294375 543.3
L 783.294375 533.5
L 755.294375 533.5
z
" style="fill:#b3b3b3;"/>
    </g>
    <g id="text_34">
     <!-- two-component sensor -->
     <defs>
      <path d="M 4.203125 54.6875
L 13.1875 54.6875
L 24.421875 12.015625
L 35.59375 54.6875
L 46.1875 54.6875
L 57.421875 12.015625
L 68.609375 54.6875
L 77.59375 54.6875
L 63.28125 0
L 52.6875 0
L 40.921875 44.828125
L 29.109375 0
L 18.5 0
z
" id="DejaVuSans-119"/>
     </defs>
     <g transform="translate(794.494375 543.3)scale(0.14 -0.14)">
      <use xlink:href="#DejaVuSans-116"/>
      <use x="39.208984" xlink:href="#DejaVuSans-119"/>
      <use x="120.996094" xlink:href="#DejaVuSans-111"/>
      <use x="182.193359" xlink:href="#DejaVuSans-45"/>
      <use x="218.277344" xlink:href="#DejaVuSans-99"/>
      <use x="273.257812" xlink:href="#DejaVuSans-111"/>
      <use x="334.439453" xlink:href="#DejaVuSans-109"/>
      <use x="431.851562" xlink:href="#DejaVuSans-112"/>
      <use x="495.328125" xlink:href="#DejaVuSans-111"/>
      <use x="556.509766" xlink:href="#DejaVuSans-110"/>
      <use x="619.888672" xlink:href="#DejaVuSans-101"/>
      <use x="681.412109" xlink:href="#DejaVuSans-110"/>
      <use x="744.791016" xlink:href="#DejaVuSans-116"/>
      <use x="784" xlink:href="#DejaVuSans-32"/>
      <use x="815.787109" xlink:href="#DejaVuSans-115"/>
      <use x="867.886719" xlink:href="#DejaVuSans-101"/>
      <use x="929.410156" xlink:href="#DejaVuSans-110"/>
      <use x="992.789062" xlink:href="#DejaVuSans-115"/>
      <use x="1044.888672" xlink:href="#DejaVuSans-111"/>
      <use x="1106.070312" xlink:href="#DejaVuSans-114"/>
     </g>
    </g>
   </g>
  </g>
 </g>
 <defs>
  <clipPath id="pe12d822b85">
   <rect height="543.6" width="669.6" x="46.41" y="26.877187"/>
  </clipPath>
 </defs>
</svg>
