<?xml version="1.0" encoding="utf-8" standalone="no"?>
<!DOCTYPE svg PUBLIC "-//W3C//DTD SVG 1.1//EN"
  "http://www.w3.org/Graphics/SVG/1.1/DTD/svg11.dtd">
<!-- Created with matplotlib (https://matplotlib.org/) -->
<svg height="491.442187pt" version="1.1" viewBox="0 0 1040.492625 491.442187" width="1040.492625pt" xmlns="http://www.w3.org/2000/svg" xmlns:xlink="http://www.w3.org/1999/xlink">
 <defs>
  <style type="text/css">
*{stroke-linecap:butt;stroke-linejoin:round;}
  </style>
 </defs>
 <g id="figure_1">
  <g id="patch_1">
   <path d="M 0 491.442187
L 1040.492625 491.442187
L 1040.492625 0
L 0 0
z
" style="fill:#ffffff;"/>
  </g>
  <g id="axes_1">
   <g id="patch_2">
    <path d="M 55.980625 461.757187
L 725.580625 461.757187
L 725.580625 26.877187
L 55.980625 26.877187
z
" style="fill:#ffffff;"/>
   </g>
   <g id="patch_3">
    <path clip-path="url(#pb1896dfa22)" d="M 139.680625 461.757187
L 307.080625 461.757187
L 307.080625 457.155283
L 139.680625 457.155283
z
" style="fill:#2bad8f;"/>
   </g>
   <g id="patch_4">
    <path clip-path="url(#pb1896dfa22)" d="M 474.480625 461.757187
L 641.880625 461.757187
L 641.880625 461.757187
L 474.480625 461.757187
z
" style="fill:#2bad8f;"/>
   </g>
   <g id="patch_5">
    <path clip-path="url(#pb1896dfa22)" d="M 139.680625 457.155283
L 307.080625 457.155283
L 307.080625 447.951473
L 139.680625 447.951473
z
" style="fill:#a5d1ab;"/>
   </g>
   <g id="patch_6">
    <path clip-path="url(#pb1896dfa22)" d="M 474.480625 461.757187
L 641.880625 461.757187
L 641.880625 461.757187
L 474.480625 461.757187
z
" style="fill:#a5d1ab;"/>
   </g>
   <g id="patch_7">
    <path clip-path="url(#pb1896dfa22)" d="M 139.680625 461.757187
L 307.080625 461.757187
L 307.080625 461.757187
L 139.680625 461.757187
z
" style="fill:#f2e380;"/>
   </g>
   <g id="patch_8">
    <path clip-path="url(#pb1896dfa22)" d="M 474.480625 461.757187
L 641.880625 461.757187
L 641.880625 457.155283
L 474.480625 457.155283
z
" style="fill:#f2e380;"/>
   </g>
   <g id="patch_9">
    <path clip-path="url(#pb1896dfa22)" d="M 139.680625 447.951473
L 307.080625 447.951473
L 307.080625 369.719092
L 139.680625 369.719092
z
" style="fill:#eb9f6a;"/>
   </g>
   <g id="patch_10">
    <path clip-path="url(#pb1896dfa22)" d="M 474.480625 457.155283
L 641.880625 457.155283
L 641.880625 222.45814
L 474.480625 222.45814
z
" style="fill:#eb9f6a;"/>
   </g>
   <g id="patch_11">
    <path clip-path="url(#pb1896dfa22)" d="M 139.680625 461.757187
L 307.080625 461.757187
L 307.080625 461.757187
L 139.680625 461.757187
z
" style="fill:#4363d8;"/>
   </g>
   <g id="patch_12">
    <path clip-path="url(#pb1896dfa22)" d="M 474.480625 222.45814
L 641.880625 222.45814
L 641.880625 217.856235
L 474.480625 217.856235
z
" style="fill:#4363d8;"/>
   </g>
   <g id="patch_13">
    <path clip-path="url(#pb1896dfa22)" d="M 139.680625 369.719092
L 307.080625 369.719092
L 307.080625 346.709568
L 139.680625 346.709568
z
" style="fill:#7d438f;"/>
   </g>
   <g id="patch_14">
    <path clip-path="url(#pb1896dfa22)" d="M 474.480625 217.856235
L 641.880625 217.856235
L 641.880625 167.235283
L 474.480625 167.235283
z
" style="fill:#7d438f;"/>
   </g>
   <g id="patch_15">
    <path clip-path="url(#pb1896dfa22)" d="M 139.680625 346.709568
L 307.080625 346.709568
L 307.080625 337.505759
L 139.680625 337.505759
z
" style="fill:#e8c5e6;"/>
   </g>
   <g id="patch_16">
    <path clip-path="url(#pb1896dfa22)" d="M 474.480625 461.757187
L 641.880625 461.757187
L 641.880625 461.757187
L 474.480625 461.757187
z
" style="fill:#e8c5e6;"/>
   </g>
   <g id="patch_17">
    <path clip-path="url(#pb1896dfa22)" d="M 139.680625 337.505759
L 307.080625 337.505759
L 307.080625 277.680997
L 139.680625 277.680997
z
" style="fill:#79c2d1;"/>
   </g>
   <g id="patch_18">
    <path clip-path="url(#pb1896dfa22)" d="M 474.480625 167.235283
L 641.880625 167.235283
L 641.880625 75.197187
L 474.480625 75.197187
z
" style="fill:#79c2d1;"/>
   </g>
   <g id="patch_19">
    <path clip-path="url(#pb1896dfa22)" d="M 139.680625 277.680997
L 307.080625 277.680997
L 307.080625 273.079092
L 139.680625 273.079092
z
" style="fill:#a8cc3b;"/>
   </g>
   <g id="patch_20">
    <path clip-path="url(#pb1896dfa22)" d="M 474.480625 461.757187
L 641.880625 461.757187
L 641.880625 461.757187
L 474.480625 461.757187
z
" style="fill:#a8cc3b;"/>
   </g>
   <g id="patch_21">
    <path clip-path="url(#pb1896dfa22)" d="M 139.680625 461.757187
L 307.080625 461.757187
L 307.080625 461.757187
L 139.680625 461.757187
z
" style="fill:#f5b0b0;"/>
   </g>
   <g id="patch_22">
    <path clip-path="url(#pb1896dfa22)" d="M 474.480625 75.197187
L 641.880625 75.197187
L 641.880625 70.595283
L 474.480625 70.595283
z
" style="fill:#f5b0b0;"/>
   </g>
   <g id="patch_23">
    <path clip-path="url(#pb1896dfa22)" d="M 139.680625 273.079092
L 307.080625 273.079092
L 307.080625 263.875283
L 139.680625 263.875283
z
" style="fill:#d0aee6;"/>
   </g>
   <g id="patch_24">
    <path clip-path="url(#pb1896dfa22)" d="M 474.480625 70.595283
L 641.880625 70.595283
L 641.880625 65.993378
L 474.480625 65.993378
z
" style="fill:#d0aee6;"/>
   </g>
   <g id="patch_25">
    <path clip-path="url(#pb1896dfa22)" d="M 139.680625 263.875283
L 307.080625 263.875283
L 307.080625 254.671473
L 139.680625 254.671473
z
" style="fill:#fffac8;"/>
   </g>
   <g id="patch_26">
    <path clip-path="url(#pb1896dfa22)" d="M 474.480625 65.993378
L 641.880625 65.993378
L 641.880625 47.585759
L 474.480625 47.585759
z
" style="fill:#fffac8;"/>
   </g>
   <g id="matplotlib.axis_1">
    <g id="xtick_1">
     <g id="line2d_1">
      <defs>
       <path d="M 0 0
L 0 3.5
" id="m23e019f7b1" style="stroke:#000000;stroke-width:0.8;"/>
      </defs>
      <g>
       <use style="stroke:#000000;stroke-width:0.8;" x="223.380625" xlink:href="#m23e019f7b1" y="461.757187"/>
      </g>
     </g>
     <g id="text_1">
      <!-- PA14 compendium -->
      <defs>
       <path d="M 19.671875 64.796875
L 19.671875 37.40625
L 32.078125 37.40625
Q 38.96875 37.40625 42.71875 40.96875
Q 46.484375 44.53125 46.484375 51.125
Q 46.484375 57.671875 42.71875 61.234375
Q 38.96875 64.796875 32.078125 64.796875
z
M 9.8125 72.90625
L 32.078125 72.90625
Q 44.34375 72.90625 50.609375 67.359375
Q 56.890625 61.8125 56.890625 51.125
Q 56.890625 40.328125 50.609375 34.8125
Q 44.34375 29.296875 32.078125 29.296875
L 19.671875 29.296875
L 19.671875 0
L 9.8125 0
z
" id="DejaVuSans-80"/>
       <path d="M 34.1875 63.1875
L 20.796875 26.90625
L 47.609375 26.90625
z
M 28.609375 72.90625
L 39.796875 72.90625
L 67.578125 0
L 57.328125 0
L 50.6875 18.703125
L 17.828125 18.703125
L 11.1875 0
L 0.78125 0
z
" id="DejaVuSans-65"/>
       <path d="M 12.40625 8.296875
L 28.515625 8.296875
L 28.515625 63.921875
L 10.984375 60.40625
L 10.984375 69.390625
L 28.421875 72.90625
L 38.28125 72.90625
L 38.28125 8.296875
L 54.390625 8.296875
L 54.390625 0
L 12.40625 0
z
" id="DejaVuSans-49"/>
       <path d="M 37.796875 64.3125
L 12.890625 25.390625
L 37.796875 25.390625
z
M 35.203125 72.90625
L 47.609375 72.90625
L 47.609375 25.390625
L 58.015625 25.390625
L 58.015625 17.1875
L 47.609375 17.1875
L 47.609375 0
L 37.796875 0
L 37.796875 17.1875
L 4.890625 17.1875
L 4.890625 26.703125
z
" id="DejaVuSans-52"/>
       <path id="DejaVuSans-32"/>
       <path d="M 48.78125 52.59375
L 48.78125 44.1875
Q 44.96875 46.296875 41.140625 47.34375
Q 37.3125 48.390625 33.40625 48.390625
Q 24.65625 48.390625 19.8125 42.84375
Q 14.984375 37.3125 14.984375 27.296875
Q 14.984375 17.28125 19.8125 11.734375
Q 24.65625 6.203125 33.40625 6.203125
Q 37.3125 6.203125 41.140625 7.25
Q 44.96875 8.296875 48.78125 10.40625
L 48.78125 2.09375
Q 45.015625 0.34375 40.984375 -0.53125
Q 36.96875 -1.421875 32.421875 -1.421875
Q 20.0625 -1.421875 12.78125 6.34375
Q 5.515625 14.109375 5.515625 27.296875
Q 5.515625 40.671875 12.859375 48.328125
Q 20.21875 56 33.015625 56
Q 37.15625 56 41.109375 55.140625
Q 45.0625 54.296875 48.78125 52.59375
z
" id="DejaVuSans-99"/>
       <path d="M 30.609375 48.390625
Q 23.390625 48.390625 19.1875 42.75
Q 14.984375 37.109375 14.984375 27.296875
Q 14.984375 17.484375 19.15625 11.84375
Q 23.34375 6.203125 30.609375 6.203125
Q 37.796875 6.203125 41.984375 11.859375
Q 46.1875 17.53125 46.1875 27.296875
Q 46.1875 37.015625 41.984375 42.703125
Q 37.796875 48.390625 30.609375 48.390625
z
M 30.609375 56
Q 42.328125 56 49.015625 48.375
Q 55.71875 40.765625 55.71875 27.296875
Q 55.71875 13.875 49.015625 6.21875
Q 42.328125 -1.421875 30.609375 -1.421875
Q 18.84375 -1.421875 12.171875 6.21875
Q 5.515625 13.875 5.515625 27.296875
Q 5.515625 40.765625 12.171875 48.375
Q 18.84375 56 30.609375 56
z
" id="DejaVuSans-111"/>
       <path d="M 52 44.1875
Q 55.375 50.25 60.0625 53.125
Q 64.75 56 71.09375 56
Q 79.640625 56 84.28125 50.015625
Q 88.921875 44.046875 88.921875 33.015625
L 88.921875 0
L 79.890625 0
L 79.890625 32.71875
Q 79.890625 40.578125 77.09375 44.375
Q 74.3125 48.1875 68.609375 48.1875
Q 61.625 48.1875 57.5625 43.546875
Q 53.515625 38.921875 53.515625 30.90625
L 53.515625 0
L 44.484375 0
L 44.484375 32.71875
Q 44.484375 40.625 41.703125 44.40625
Q 38.921875 48.1875 33.109375 48.1875
Q 26.21875 48.1875 22.15625 43.53125
Q 18.109375 38.875 18.109375 30.90625
L 18.109375 0
L 9.078125 0
L 9.078125 54.6875
L 18.109375 54.6875
L 18.109375 46.1875
Q 21.1875 51.21875 25.484375 53.609375
Q 29.78125 56 35.6875 56
Q 41.65625 56 45.828125 52.96875
Q 50 49.953125 52 44.1875
z
" id="DejaVuSans-109"/>
       <path d="M 18.109375 8.203125
L 18.109375 -20.796875
L 9.078125 -20.796875
L 9.078125 54.6875
L 18.109375 54.6875
L 18.109375 46.390625
Q 20.953125 51.265625 25.265625 53.625
Q 29.59375 56 35.59375 56
Q 45.5625 56 51.78125 48.09375
Q 58.015625 40.1875 58.015625 27.296875
Q 58.015625 14.40625 51.78125 6.484375
Q 45.5625 -1.421875 35.59375 -1.421875
Q 29.59375 -1.421875 25.265625 0.953125
Q 20.953125 3.328125 18.109375 8.203125
z
M 48.6875 27.296875
Q 48.6875 37.203125 44.609375 42.84375
Q 40.53125 48.484375 33.40625 48.484375
Q 26.265625 48.484375 22.1875 42.84375
Q 18.109375 37.203125 18.109375 27.296875
Q 18.109375 17.390625 22.1875 11.75
Q 26.265625 6.109375 33.40625 6.109375
Q 40.53125 6.109375 44.609375 11.75
Q 48.6875 17.390625 48.6875 27.296875
z
" id="DejaVuSans-112"/>
       <path d="M 56.203125 29.59375
L 56.203125 25.203125
L 14.890625 25.203125
Q 15.484375 15.921875 20.484375 11.0625
Q 25.484375 6.203125 34.421875 6.203125
Q 39.59375 6.203125 44.453125 7.46875
Q 49.3125 8.734375 54.109375 11.28125
L 54.109375 2.78125
Q 49.265625 0.734375 44.1875 -0.34375
Q 39.109375 -1.421875 33.890625 -1.421875
Q 20.796875 -1.421875 13.15625 6.1875
Q 5.515625 13.8125 5.515625 26.8125
Q 5.515625 40.234375 12.765625 48.109375
Q 20.015625 56 32.328125 56
Q 43.359375 56 49.78125 48.890625
Q 56.203125 41.796875 56.203125 29.59375
z
M 47.21875 32.234375
Q 47.125 39.59375 43.09375 43.984375
Q 39.0625 48.390625 32.421875 48.390625
Q 24.90625 48.390625 20.390625 44.140625
Q 15.875 39.890625 15.1875 32.171875
z
" id="DejaVuSans-101"/>
       <path d="M 54.890625 33.015625
L 54.890625 0
L 45.90625 0
L 45.90625 32.71875
Q 45.90625 40.484375 42.875 44.328125
Q 39.84375 48.1875 33.796875 48.1875
Q 26.515625 48.1875 22.3125 43.546875
Q 18.109375 38.921875 18.109375 30.90625
L 18.109375 0
L 9.078125 0
L 9.078125 54.6875
L 18.109375 54.6875
L 18.109375 46.1875
Q 21.34375 51.125 25.703125 53.5625
Q 30.078125 56 35.796875 56
Q 45.21875 56 50.046875 50.171875
Q 54.890625 44.34375 54.890625 33.015625
z
" id="DejaVuSans-110"/>
       <path d="M 45.40625 46.390625
L 45.40625 75.984375
L 54.390625 75.984375
L 54.390625 0
L 45.40625 0
L 45.40625 8.203125
Q 42.578125 3.328125 38.25 0.953125
Q 33.9375 -1.421875 27.875 -1.421875
Q 17.96875 -1.421875 11.734375 6.484375
Q 5.515625 14.40625 5.515625 27.296875
Q 5.515625 40.1875 11.734375 48.09375
Q 17.96875 56 27.875 56
Q 33.9375 56 38.25 53.625
Q 42.578125 51.265625 45.40625 46.390625
z
M 14.796875 27.296875
Q 14.796875 17.390625 18.875 11.75
Q 22.953125 6.109375 30.078125 6.109375
Q 37.203125 6.109375 41.296875 11.75
Q 45.40625 17.390625 45.40625 27.296875
Q 45.40625 37.203125 41.296875 42.84375
Q 37.203125 48.484375 30.078125 48.484375
Q 22.953125 48.484375 18.875 42.84375
Q 14.796875 37.203125 14.796875 27.296875
z
" id="DejaVuSans-100"/>
       <path d="M 9.421875 54.6875
L 18.40625 54.6875
L 18.40625 0
L 9.421875 0
z
M 9.421875 75.984375
L 18.40625 75.984375
L 18.40625 64.59375
L 9.421875 64.59375
z
" id="DejaVuSans-105"/>
       <path d="M 8.5 21.578125
L 8.5 54.6875
L 17.484375 54.6875
L 17.484375 21.921875
Q 17.484375 14.15625 20.5 10.265625
Q 23.53125 6.390625 29.59375 6.390625
Q 36.859375 6.390625 41.078125 11.03125
Q 45.3125 15.671875 45.3125 23.6875
L 45.3125 54.6875
L 54.296875 54.6875
L 54.296875 0
L 45.3125 0
L 45.3125 8.40625
Q 42.046875 3.421875 37.71875 1
Q 33.40625 -1.421875 27.6875 -1.421875
Q 18.265625 -1.421875 13.375 4.4375
Q 8.5 10.296875 8.5 21.578125
z
M 31.109375 56
z
" id="DejaVuSans-117"/>
      </defs>
      <g transform="translate(148.048125 480.914687)scale(0.16 -0.16)">
       <use xlink:href="#DejaVuSans-80"/>
       <use x="60.208984" xlink:href="#DejaVuSans-65"/>
       <use x="128.617188" xlink:href="#DejaVuSans-49"/>
       <use x="192.240234" xlink:href="#DejaVuSans-52"/>
       <use x="255.863281" xlink:href="#DejaVuSans-32"/>
       <use x="287.650391" xlink:href="#DejaVuSans-99"/>
       <use x="342.630859" xlink:href="#DejaVuSans-111"/>
       <use x="403.8125" xlink:href="#DejaVuSans-109"/>
       <use x="501.224609" xlink:href="#DejaVuSans-112"/>
       <use x="564.701172" xlink:href="#DejaVuSans-101"/>
       <use x="626.224609" xlink:href="#DejaVuSans-110"/>
       <use x="689.603516" xlink:href="#DejaVuSans-100"/>
       <use x="753.080078" xlink:href="#DejaVuSans-105"/>
       <use x="780.863281" xlink:href="#DejaVuSans-117"/>
       <use x="844.242188" xlink:href="#DejaVuSans-109"/>
      </g>
     </g>
    </g>
    <g id="xtick_2">
     <g id="line2d_2">
      <g>
       <use style="stroke:#000000;stroke-width:0.8;" x="558.180625" xlink:href="#m23e019f7b1" y="461.757187"/>
      </g>
     </g>
     <g id="text_2">
      <!-- PAO1 compendium -->
      <defs>
       <path d="M 39.40625 66.21875
Q 28.65625 66.21875 22.328125 58.203125
Q 16.015625 50.203125 16.015625 36.375
Q 16.015625 22.609375 22.328125 14.59375
Q 28.65625 6.59375 39.40625 6.59375
Q 50.140625 6.59375 56.421875 14.59375
Q 62.703125 22.609375 62.703125 36.375
Q 62.703125 50.203125 56.421875 58.203125
Q 50.140625 66.21875 39.40625 66.21875
z
M 39.40625 74.21875
Q 54.734375 74.21875 63.90625 63.9375
Q 73.09375 53.65625 73.09375 36.375
Q 73.09375 19.140625 63.90625 8.859375
Q 54.734375 -1.421875 39.40625 -1.421875
Q 24.03125 -1.421875 14.8125 8.828125
Q 5.609375 19.09375 5.609375 36.375
Q 5.609375 53.65625 14.8125 63.9375
Q 24.03125 74.21875 39.40625 74.21875
z
" id="DejaVuSans-79"/>
      </defs>
      <g transform="translate(481.641875 480.914687)scale(0.16 -0.16)">
       <use xlink:href="#DejaVuSans-80"/>
       <use x="60.208984" xlink:href="#DejaVuSans-65"/>
       <use x="128.601562" xlink:href="#DejaVuSans-79"/>
       <use x="207.3125" xlink:href="#DejaVuSans-49"/>
       <use x="270.935547" xlink:href="#DejaVuSans-32"/>
       <use x="302.722656" xlink:href="#DejaVuSans-99"/>
       <use x="357.703125" xlink:href="#DejaVuSans-111"/>
       <use x="418.884766" xlink:href="#DejaVuSans-109"/>
       <use x="516.296875" xlink:href="#DejaVuSans-112"/>
       <use x="579.773438" xlink:href="#DejaVuSans-101"/>
       <use x="641.296875" xlink:href="#DejaVuSans-110"/>
       <use x="704.675781" xlink:href="#DejaVuSans-100"/>
       <use x="768.152344" xlink:href="#DejaVuSans-105"/>
       <use x="795.935547" xlink:href="#DejaVuSans-117"/>
       <use x="859.314453" xlink:href="#DejaVuSans-109"/>
      </g>
     </g>
    </g>
   </g>
   <g id="matplotlib.axis_2">
    <g id="ytick_1">
     <g id="line2d_3">
      <defs>
       <path d="M 0 0
L -3.5 0
" id="ma722e5f7b4" style="stroke:#000000;stroke-width:0.8;"/>
      </defs>
      <g>
       <use style="stroke:#000000;stroke-width:0.8;" x="55.980625" xlink:href="#ma722e5f7b4" y="461.757187"/>
      </g>
     </g>
     <g id="text_3">
      <!-- 0 -->
      <defs>
       <path d="M 31.78125 66.40625
Q 24.171875 66.40625 20.328125 58.90625
Q 16.5 51.421875 16.5 36.375
Q 16.5 21.390625 20.328125 13.890625
Q 24.171875 6.390625 31.78125 6.390625
Q 39.453125 6.390625 43.28125 13.890625
Q 47.125 21.390625 47.125 36.375
Q 47.125 51.421875 43.28125 58.90625
Q 39.453125 66.40625 31.78125 66.40625
z
M 31.78125 74.21875
Q 44.046875 74.21875 50.515625 64.515625
Q 56.984375 54.828125 56.984375 36.375
Q 56.984375 17.96875 50.515625 8.265625
Q 44.046875 -1.421875 31.78125 -1.421875
Q 19.53125 -1.421875 13.0625 8.265625
Q 6.59375 17.96875 6.59375 36.375
Q 6.59375 54.828125 13.0625 64.515625
Q 19.53125 74.21875 31.78125 74.21875
z
" id="DejaVuSans-48"/>
      </defs>
      <g transform="translate(38.800625 467.835937)scale(0.16 -0.16)">
       <use xlink:href="#DejaVuSans-48"/>
      </g>
     </g>
    </g>
    <g id="ytick_2">
     <g id="line2d_4">
      <g>
       <use style="stroke:#000000;stroke-width:0.8;" x="55.980625" xlink:href="#ma722e5f7b4" y="369.719092"/>
      </g>
     </g>
     <g id="text_4">
      <!-- 20 -->
      <defs>
       <path d="M 19.1875 8.296875
L 53.609375 8.296875
L 53.609375 0
L 7.328125 0
L 7.328125 8.296875
Q 12.9375 14.109375 22.625 23.890625
Q 32.328125 33.6875 34.8125 36.53125
Q 39.546875 41.84375 41.421875 45.53125
Q 43.3125 49.21875 43.3125 52.78125
Q 43.3125 58.59375 39.234375 62.25
Q 35.15625 65.921875 28.609375 65.921875
Q 23.96875 65.921875 18.8125 64.3125
Q 13.671875 62.703125 7.8125 59.421875
L 7.8125 69.390625
Q 13.765625 71.78125 18.9375 73
Q 24.125 74.21875 28.421875 74.21875
Q 39.75 74.21875 46.484375 68.546875
Q 53.21875 62.890625 53.21875 53.421875
Q 53.21875 48.921875 51.53125 44.890625
Q 49.859375 40.875 45.40625 35.40625
Q 44.1875 33.984375 37.640625 27.21875
Q 31.109375 20.453125 19.1875 8.296875
z
" id="DejaVuSans-50"/>
      </defs>
      <g transform="translate(28.620625 375.797842)scale(0.16 -0.16)">
       <use xlink:href="#DejaVuSans-50"/>
       <use x="63.623047" xlink:href="#DejaVuSans-48"/>
      </g>
     </g>
    </g>
    <g id="ytick_3">
     <g id="line2d_5">
      <g>
       <use style="stroke:#000000;stroke-width:0.8;" x="55.980625" xlink:href="#ma722e5f7b4" y="277.680997"/>
      </g>
     </g>
     <g id="text_5">
      <!-- 40 -->
      <g transform="translate(28.620625 283.759747)scale(0.16 -0.16)">
       <use xlink:href="#DejaVuSans-52"/>
       <use x="63.623047" xlink:href="#DejaVuSans-48"/>
      </g>
     </g>
    </g>
    <g id="ytick_4">
     <g id="line2d_6">
      <g>
       <use style="stroke:#000000;stroke-width:0.8;" x="55.980625" xlink:href="#ma722e5f7b4" y="185.642902"/>
      </g>
     </g>
     <g id="text_6">
      <!-- 60 -->
      <defs>
       <path d="M 33.015625 40.375
Q 26.375 40.375 22.484375 35.828125
Q 18.609375 31.296875 18.609375 23.390625
Q 18.609375 15.53125 22.484375 10.953125
Q 26.375 6.390625 33.015625 6.390625
Q 39.65625 6.390625 43.53125 10.953125
Q 47.40625 15.53125 47.40625 23.390625
Q 47.40625 31.296875 43.53125 35.828125
Q 39.65625 40.375 33.015625 40.375
z
M 52.59375 71.296875
L 52.59375 62.3125
Q 48.875 64.0625 45.09375 64.984375
Q 41.3125 65.921875 37.59375 65.921875
Q 27.828125 65.921875 22.671875 59.328125
Q 17.53125 52.734375 16.796875 39.40625
Q 19.671875 43.65625 24.015625 45.921875
Q 28.375 48.1875 33.59375 48.1875
Q 44.578125 48.1875 50.953125 41.515625
Q 57.328125 34.859375 57.328125 23.390625
Q 57.328125 12.15625 50.6875 5.359375
Q 44.046875 -1.421875 33.015625 -1.421875
Q 20.359375 -1.421875 13.671875 8.265625
Q 6.984375 17.96875 6.984375 36.375
Q 6.984375 53.65625 15.1875 63.9375
Q 23.390625 74.21875 37.203125 74.21875
Q 40.921875 74.21875 44.703125 73.484375
Q 48.484375 72.75 52.59375 71.296875
z
" id="DejaVuSans-54"/>
      </defs>
      <g transform="translate(28.620625 191.721652)scale(0.16 -0.16)">
       <use xlink:href="#DejaVuSans-54"/>
       <use x="63.623047" xlink:href="#DejaVuSans-48"/>
      </g>
     </g>
    </g>
    <g id="ytick_5">
     <g id="line2d_7">
      <g>
       <use style="stroke:#000000;stroke-width:0.8;" x="55.980625" xlink:href="#ma722e5f7b4" y="93.604807"/>
      </g>
     </g>
     <g id="text_7">
      <!-- 80 -->
      <defs>
       <path d="M 31.78125 34.625
Q 24.75 34.625 20.71875 30.859375
Q 16.703125 27.09375 16.703125 20.515625
Q 16.703125 13.921875 20.71875 10.15625
Q 24.75 6.390625 31.78125 6.390625
Q 38.8125 6.390625 42.859375 10.171875
Q 46.921875 13.96875 46.921875 20.515625
Q 46.921875 27.09375 42.890625 30.859375
Q 38.875 34.625 31.78125 34.625
z
M 21.921875 38.8125
Q 15.578125 40.375 12.03125 44.71875
Q 8.5 49.078125 8.5 55.328125
Q 8.5 64.0625 14.71875 69.140625
Q 20.953125 74.21875 31.78125 74.21875
Q 42.671875 74.21875 48.875 69.140625
Q 55.078125 64.0625 55.078125 55.328125
Q 55.078125 49.078125 51.53125 44.71875
Q 48 40.375 41.703125 38.8125
Q 48.828125 37.15625 52.796875 32.3125
Q 56.78125 27.484375 56.78125 20.515625
Q 56.78125 9.90625 50.3125 4.234375
Q 43.84375 -1.421875 31.78125 -1.421875
Q 19.734375 -1.421875 13.25 4.234375
Q 6.78125 9.90625 6.78125 20.515625
Q 6.78125 27.484375 10.78125 32.3125
Q 14.796875 37.15625 21.921875 38.8125
z
M 18.3125 54.390625
Q 18.3125 48.734375 21.84375 45.5625
Q 25.390625 42.390625 31.78125 42.390625
Q 38.140625 42.390625 41.71875 45.5625
Q 45.3125 48.734375 45.3125 54.390625
Q 45.3125 60.0625 41.71875 63.234375
Q 38.140625 66.40625 31.78125 66.40625
Q 25.390625 66.40625 21.84375 63.234375
Q 18.3125 60.0625 18.3125 54.390625
z
" id="DejaVuSans-56"/>
      </defs>
      <g transform="translate(28.620625 99.683557)scale(0.16 -0.16)">
       <use xlink:href="#DejaVuSans-56"/>
       <use x="63.623047" xlink:href="#DejaVuSans-48"/>
      </g>
     </g>
    </g>
    <g id="text_8">
     <!-- Count -->
     <defs>
      <path d="M 64.40625 67.28125
L 64.40625 56.890625
Q 59.421875 61.53125 53.78125 63.8125
Q 48.140625 66.109375 41.796875 66.109375
Q 29.296875 66.109375 22.65625 58.46875
Q 16.015625 50.828125 16.015625 36.375
Q 16.015625 21.96875 22.65625 14.328125
Q 29.296875 6.6875 41.796875 6.6875
Q 48.140625 6.6875 53.78125 8.984375
Q 59.421875 11.28125 64.40625 15.921875
L 64.40625 5.609375
Q 59.234375 2.09375 53.4375 0.328125
Q 47.65625 -1.421875 41.21875 -1.421875
Q 24.65625 -1.421875 15.125 8.703125
Q 5.609375 18.84375 5.609375 36.375
Q 5.609375 53.953125 15.125 64.078125
Q 24.65625 74.21875 41.21875 74.21875
Q 47.75 74.21875 53.53125 72.484375
Q 59.328125 70.75 64.40625 67.28125
z
" id="DejaVuSans-67"/>
      <path d="M 18.3125 70.21875
L 18.3125 54.6875
L 36.8125 54.6875
L 36.8125 47.703125
L 18.3125 47.703125
L 18.3125 18.015625
Q 18.3125 11.328125 20.140625 9.421875
Q 21.96875 7.515625 27.59375 7.515625
L 36.8125 7.515625
L 36.8125 0
L 27.59375 0
Q 17.1875 0 13.234375 3.875
Q 9.28125 7.765625 9.28125 18.015625
L 9.28125 47.703125
L 2.6875 47.703125
L 2.6875 54.6875
L 9.28125 54.6875
L 9.28125 70.21875
z
" id="DejaVuSans-116"/>
     </defs>
     <g transform="translate(20.877188 271.044375)rotate(-90)scale(0.18 -0.18)">
      <use xlink:href="#DejaVuSans-67"/>
      <use x="69.824219" xlink:href="#DejaVuSans-111"/>
      <use x="131.005859" xlink:href="#DejaVuSans-117"/>
      <use x="194.384766" xlink:href="#DejaVuSans-110"/>
      <use x="257.763672" xlink:href="#DejaVuSans-116"/>
     </g>
    </g>
   </g>
   <g id="patch_27">
    <path d="M 55.980625 461.757187
L 55.980625 26.877187
" style="fill:none;stroke:#000000;stroke-linecap:square;stroke-linejoin:miter;stroke-width:0.8;"/>
   </g>
   <g id="patch_28">
    <path d="M 725.580625 461.757187
L 725.580625 26.877187
" style="fill:none;stroke:#000000;stroke-linecap:square;stroke-linejoin:miter;stroke-width:0.8;"/>
   </g>
   <g id="patch_29">
    <path d="M 55.980625 461.757187
L 725.580625 461.757187
" style="fill:none;stroke:#000000;stroke-linecap:square;stroke-linejoin:miter;stroke-width:0.8;"/>
   </g>
   <g id="patch_30">
    <path d="M 55.980625 26.877187
L 725.580625 26.877187
" style="fill:none;stroke:#000000;stroke-linecap:square;stroke-linejoin:miter;stroke-width:0.8;"/>
   </g>
   <g id="text_9">
    <!-- Media used in experiments -->
    <defs>
     <path d="M 9.8125 72.90625
L 24.515625 72.90625
L 43.109375 23.296875
L 61.8125 72.90625
L 76.515625 72.90625
L 76.515625 0
L 66.890625 0
L 66.890625 64.015625
L 48.09375 14.015625
L 38.1875 14.015625
L 19.390625 64.015625
L 19.390625 0
L 9.8125 0
z
" id="DejaVuSans-77"/>
     <path d="M 34.28125 27.484375
Q 23.390625 27.484375 19.1875 25
Q 14.984375 22.515625 14.984375 16.5
Q 14.984375 11.71875 18.140625 8.90625
Q 21.296875 6.109375 26.703125 6.109375
Q 34.1875 6.109375 38.703125 11.40625
Q 43.21875 16.703125 43.21875 25.484375
L 43.21875 27.484375
z
M 52.203125 31.203125
L 52.203125 0
L 43.21875 0
L 43.21875 8.296875
Q 40.140625 3.328125 35.546875 0.953125
Q 30.953125 -1.421875 24.3125 -1.421875
Q 15.921875 -1.421875 10.953125 3.296875
Q 6 8.015625 6 15.921875
Q 6 25.140625 12.171875 29.828125
Q 18.359375 34.515625 30.609375 34.515625
L 43.21875 34.515625
L 43.21875 35.40625
Q 43.21875 41.609375 39.140625 45
Q 35.0625 48.390625 27.6875 48.390625
Q 23 48.390625 18.546875 47.265625
Q 14.109375 46.140625 10.015625 43.890625
L 10.015625 52.203125
Q 14.9375 54.109375 19.578125 55.046875
Q 24.21875 56 28.609375 56
Q 40.484375 56 46.34375 49.84375
Q 52.203125 43.703125 52.203125 31.203125
z
" id="DejaVuSans-97"/>
     <path d="M 44.28125 53.078125
L 44.28125 44.578125
Q 40.484375 46.53125 36.375 47.5
Q 32.28125 48.484375 27.875 48.484375
Q 21.1875 48.484375 17.84375 46.4375
Q 14.5 44.390625 14.5 40.28125
Q 14.5 37.15625 16.890625 35.375
Q 19.28125 33.59375 26.515625 31.984375
L 29.59375 31.296875
Q 39.15625 29.25 43.1875 25.515625
Q 47.21875 21.78125 47.21875 15.09375
Q 47.21875 7.46875 41.1875 3.015625
Q 35.15625 -1.421875 24.609375 -1.421875
Q 20.21875 -1.421875 15.453125 -0.5625
Q 10.6875 0.296875 5.421875 2
L 5.421875 11.28125
Q 10.40625 8.6875 15.234375 7.390625
Q 20.0625 6.109375 24.8125 6.109375
Q 31.15625 6.109375 34.5625 8.28125
Q 37.984375 10.453125 37.984375 14.40625
Q 37.984375 18.0625 35.515625 20.015625
Q 33.0625 21.96875 24.703125 23.78125
L 21.578125 24.515625
Q 13.234375 26.265625 9.515625 29.90625
Q 5.8125 33.546875 5.8125 39.890625
Q 5.8125 47.609375 11.28125 51.796875
Q 16.75 56 26.8125 56
Q 31.78125 56 36.171875 55.265625
Q 40.578125 54.546875 44.28125 53.078125
z
" id="DejaVuSans-115"/>
     <path d="M 54.890625 54.6875
L 35.109375 28.078125
L 55.90625 0
L 45.3125 0
L 29.390625 21.484375
L 13.484375 0
L 2.875 0
L 24.125 28.609375
L 4.6875 54.6875
L 15.28125 54.6875
L 29.78125 35.203125
L 44.28125 54.6875
z
" id="DejaVuSans-120"/>
     <path d="M 41.109375 46.296875
Q 39.59375 47.171875 37.8125 47.578125
Q 36.03125 48 33.890625 48
Q 26.265625 48 22.1875 43.046875
Q 18.109375 38.09375 18.109375 28.8125
L 18.109375 0
L 9.078125 0
L 9.078125 54.6875
L 18.109375 54.6875
L 18.109375 46.1875
Q 20.953125 51.171875 25.484375 53.578125
Q 30.03125 56 36.53125 56
Q 37.453125 56 38.578125 55.875
Q 39.703125 55.765625 41.0625 55.515625
z
" id="DejaVuSans-114"/>
    </defs>
    <g transform="translate(268.78 20.877187)scale(0.18 -0.18)">
     <use xlink:href="#DejaVuSans-77"/>
     <use x="86.279297" xlink:href="#DejaVuSans-101"/>
     <use x="147.802734" xlink:href="#DejaVuSans-100"/>
     <use x="211.279297" xlink:href="#DejaVuSans-105"/>
     <use x="239.0625" xlink:href="#DejaVuSans-97"/>
     <use x="300.341797" xlink:href="#DejaVuSans-32"/>
     <use x="332.128906" xlink:href="#DejaVuSans-117"/>
     <use x="395.507812" xlink:href="#DejaVuSans-115"/>
     <use x="447.607422" xlink:href="#DejaVuSans-101"/>
     <use x="509.130859" xlink:href="#DejaVuSans-100"/>
     <use x="572.607422" xlink:href="#DejaVuSans-32"/>
     <use x="604.394531" xlink:href="#DejaVuSans-105"/>
     <use x="632.177734" xlink:href="#DejaVuSans-110"/>
     <use x="695.556641" xlink:href="#DejaVuSans-32"/>
     <use x="727.34375" xlink:href="#DejaVuSans-101"/>
     <use x="788.851562" xlink:href="#DejaVuSans-120"/>
     <use x="848.03125" xlink:href="#DejaVuSans-112"/>
     <use x="911.507812" xlink:href="#DejaVuSans-101"/>
     <use x="973.03125" xlink:href="#DejaVuSans-114"/>
     <use x="1014.144531" xlink:href="#DejaVuSans-105"/>
     <use x="1041.927734" xlink:href="#DejaVuSans-109"/>
     <use x="1139.339844" xlink:href="#DejaVuSans-101"/>
     <use x="1200.863281" xlink:href="#DejaVuSans-110"/>
     <use x="1264.242188" xlink:href="#DejaVuSans-116"/>
     <use x="1303.451172" xlink:href="#DejaVuSans-115"/>
    </g>
   </g>
   <g id="legend_1">
    <g id="patch_31">
     <path d="M 740.292312 284.669687
L 1030.492625 284.669687
Q 1033.292625 284.669687 1033.292625 281.869687
L 1033.292625 36.677187
Q 1033.292625 33.877187 1030.492625 33.877187
L 740.292312 33.877187
Q 737.492313 33.877187 737.492313 36.677187
L 737.492313 281.869687
Q 737.492313 284.669687 740.292312 284.669687
z
" style="fill:#ffffff;opacity:0.8;stroke:#cccccc;stroke-linejoin:miter;"/>
    </g>
    <g id="patch_32">
     <path d="M 743.092313 50.115
L 771.092313 50.115
L 771.092313 40.315
L 743.092313 40.315
z
" style="fill:#2bad8f;"/>
    </g>
    <g id="text_10">
     <!--  Animal Model, LB -->
     <defs>
      <path d="M 9.421875 75.984375
L 18.40625 75.984375
L 18.40625 0
L 9.421875 0
z
" id="DejaVuSans-108"/>
      <path d="M 11.71875 12.40625
L 22.015625 12.40625
L 22.015625 4
L 14.015625 -11.625
L 7.71875 -11.625
L 11.71875 4
z
" id="DejaVuSans-44"/>
      <path d="M 9.8125 72.90625
L 19.671875 72.90625
L 19.671875 8.296875
L 55.171875 8.296875
L 55.171875 0
L 9.8125 0
z
" id="DejaVuSans-76"/>
      <path d="M 19.671875 34.8125
L 19.671875 8.109375
L 35.5 8.109375
Q 43.453125 8.109375 47.28125 11.40625
Q 51.125 14.703125 51.125 21.484375
Q 51.125 28.328125 47.28125 31.5625
Q 43.453125 34.8125 35.5 34.8125
z
M 19.671875 64.796875
L 19.671875 42.828125
L 34.28125 42.828125
Q 41.5 42.828125 45.03125 45.53125
Q 48.578125 48.25 48.578125 53.8125
Q 48.578125 59.328125 45.03125 62.0625
Q 41.5 64.796875 34.28125 64.796875
z
M 9.8125 72.90625
L 35.015625 72.90625
Q 46.296875 72.90625 52.390625 68.21875
Q 58.5 63.53125 58.5 54.890625
Q 58.5 48.1875 55.375 44.234375
Q 52.25 40.28125 46.1875 39.3125
Q 53.46875 37.75 57.5 32.78125
Q 61.53125 27.828125 61.53125 20.40625
Q 61.53125 10.640625 54.890625 5.3125
Q 48.25 0 35.984375 0
L 9.8125 0
z
" id="DejaVuSans-66"/>
     </defs>
     <g transform="translate(782.292313 50.115)scale(0.14 -0.14)">
      <use xlink:href="#DejaVuSans-32"/>
      <use x="31.787109" xlink:href="#DejaVuSans-65"/>
      <use x="100.195312" xlink:href="#DejaVuSans-110"/>
      <use x="163.574219" xlink:href="#DejaVuSans-105"/>
      <use x="191.357422" xlink:href="#DejaVuSans-109"/>
      <use x="288.769531" xlink:href="#DejaVuSans-97"/>
      <use x="350.048828" xlink:href="#DejaVuSans-108"/>
      <use x="377.832031" xlink:href="#DejaVuSans-32"/>
      <use x="409.619141" xlink:href="#DejaVuSans-77"/>
      <use x="495.898438" xlink:href="#DejaVuSans-111"/>
      <use x="557.080078" xlink:href="#DejaVuSans-100"/>
      <use x="620.556641" xlink:href="#DejaVuSans-101"/>
      <use x="682.080078" xlink:href="#DejaVuSans-108"/>
      <use x="709.863281" xlink:href="#DejaVuSans-44"/>
      <use x="741.650391" xlink:href="#DejaVuSans-32"/>
      <use x="773.4375" xlink:href="#DejaVuSans-76"/>
      <use x="829.150391" xlink:href="#DejaVuSans-66"/>
     </g>
    </g>
    <g id="patch_33">
     <path d="M 743.092313 70.664375
L 771.092313 70.664375
L 771.092313 60.864375
L 743.092313 60.864375
z
" style="fill:#a5d1ab;"/>
    </g>
    <g id="text_11">
     <!-- Blood -->
     <g transform="translate(782.292313 70.664375)scale(0.14 -0.14)">
      <use xlink:href="#DejaVuSans-66"/>
      <use x="68.603516" xlink:href="#DejaVuSans-108"/>
      <use x="96.386719" xlink:href="#DejaVuSans-111"/>
      <use x="157.568359" xlink:href="#DejaVuSans-111"/>
      <use x="218.75" xlink:href="#DejaVuSans-100"/>
     </g>
    </g>
    <g id="patch_34">
     <path d="M 743.092313 91.21375
L 771.092313 91.21375
L 771.092313 81.41375
L 743.092313 81.41375
z
" style="fill:#f2e380;"/>
    </g>
    <g id="text_12">
     <!-- King's B -->
     <defs>
      <path d="M 9.8125 72.90625
L 19.671875 72.90625
L 19.671875 42.09375
L 52.390625 72.90625
L 65.09375 72.90625
L 28.90625 38.921875
L 67.671875 0
L 54.6875 0
L 19.671875 35.109375
L 19.671875 0
L 9.8125 0
z
" id="DejaVuSans-75"/>
      <path d="M 45.40625 27.984375
Q 45.40625 37.75 41.375 43.109375
Q 37.359375 48.484375 30.078125 48.484375
Q 22.859375 48.484375 18.828125 43.109375
Q 14.796875 37.75 14.796875 27.984375
Q 14.796875 18.265625 18.828125 12.890625
Q 22.859375 7.515625 30.078125 7.515625
Q 37.359375 7.515625 41.375 12.890625
Q 45.40625 18.265625 45.40625 27.984375
z
M 54.390625 6.78125
Q 54.390625 -7.171875 48.1875 -13.984375
Q 42 -20.796875 29.203125 -20.796875
Q 24.46875 -20.796875 20.265625 -20.09375
Q 16.0625 -19.390625 12.109375 -17.921875
L 12.109375 -9.1875
Q 16.0625 -11.328125 19.921875 -12.34375
Q 23.78125 -13.375 27.78125 -13.375
Q 36.625 -13.375 41.015625 -8.765625
Q 45.40625 -4.15625 45.40625 5.171875
L 45.40625 9.625
Q 42.625 4.78125 38.28125 2.390625
Q 33.9375 0 27.875 0
Q 17.828125 0 11.671875 7.65625
Q 5.515625 15.328125 5.515625 27.984375
Q 5.515625 40.671875 11.671875 48.328125
Q 17.828125 56 27.875 56
Q 33.9375 56 38.28125 53.609375
Q 42.625 51.21875 45.40625 46.390625
L 45.40625 54.6875
L 54.390625 54.6875
z
" id="DejaVuSans-103"/>
      <path d="M 17.921875 72.90625
L 17.921875 45.796875
L 9.625 45.796875
L 9.625 72.90625
z
" id="DejaVuSans-39"/>
     </defs>
     <g transform="translate(782.292313 91.21375)scale(0.14 -0.14)">
      <use xlink:href="#DejaVuSans-75"/>
      <use x="65.576172" xlink:href="#DejaVuSans-105"/>
      <use x="93.359375" xlink:href="#DejaVuSans-110"/>
      <use x="156.738281" xlink:href="#DejaVuSans-103"/>
      <use x="220.214844" xlink:href="#DejaVuSans-39"/>
      <use x="247.705078" xlink:href="#DejaVuSans-115"/>
      <use x="299.804688" xlink:href="#DejaVuSans-32"/>
      <use x="331.591797" xlink:href="#DejaVuSans-66"/>
     </g>
    </g>
    <g id="patch_35">
     <path d="M 743.092313 111.763125
L 771.092313 111.763125
L 771.092313 101.963125
L 743.092313 101.963125
z
" style="fill:#eb9f6a;"/>
    </g>
    <g id="text_13">
     <!-- LB -->
     <g transform="translate(782.292313 111.763125)scale(0.14 -0.14)">
      <use xlink:href="#DejaVuSans-76"/>
      <use x="55.712891" xlink:href="#DejaVuSans-66"/>
     </g>
    </g>
    <g id="patch_36">
     <path d="M 743.092313 132.3125
L 771.092313 132.3125
L 771.092313 122.5125
L 743.092313 122.5125
z
" style="fill:#4363d8;"/>
    </g>
    <g id="text_14">
     <!-- LB, Minimal Medium, Animal Model -->
     <g transform="translate(782.292313 132.3125)scale(0.14 -0.14)">
      <use xlink:href="#DejaVuSans-76"/>
      <use x="55.712891" xlink:href="#DejaVuSans-66"/>
      <use x="124.316406" xlink:href="#DejaVuSans-44"/>
      <use x="156.103516" xlink:href="#DejaVuSans-32"/>
      <use x="187.890625" xlink:href="#DejaVuSans-77"/>
      <use x="274.169922" xlink:href="#DejaVuSans-105"/>
      <use x="301.953125" xlink:href="#DejaVuSans-110"/>
      <use x="365.332031" xlink:href="#DejaVuSans-105"/>
      <use x="393.115234" xlink:href="#DejaVuSans-109"/>
      <use x="490.527344" xlink:href="#DejaVuSans-97"/>
      <use x="551.806641" xlink:href="#DejaVuSans-108"/>
      <use x="579.589844" xlink:href="#DejaVuSans-32"/>
      <use x="611.376953" xlink:href="#DejaVuSans-77"/>
      <use x="697.65625" xlink:href="#DejaVuSans-101"/>
      <use x="759.179688" xlink:href="#DejaVuSans-100"/>
      <use x="822.65625" xlink:href="#DejaVuSans-105"/>
      <use x="850.439453" xlink:href="#DejaVuSans-117"/>
      <use x="913.818359" xlink:href="#DejaVuSans-109"/>
      <use x="1011.230469" xlink:href="#DejaVuSans-44"/>
      <use x="1043.017578" xlink:href="#DejaVuSans-32"/>
      <use x="1074.804688" xlink:href="#DejaVuSans-65"/>
      <use x="1143.212891" xlink:href="#DejaVuSans-110"/>
      <use x="1206.591797" xlink:href="#DejaVuSans-105"/>
      <use x="1234.375" xlink:href="#DejaVuSans-109"/>
      <use x="1331.787109" xlink:href="#DejaVuSans-97"/>
      <use x="1393.066406" xlink:href="#DejaVuSans-108"/>
      <use x="1420.849609" xlink:href="#DejaVuSans-32"/>
      <use x="1452.636719" xlink:href="#DejaVuSans-77"/>
      <use x="1538.916016" xlink:href="#DejaVuSans-111"/>
      <use x="1600.097656" xlink:href="#DejaVuSans-100"/>
      <use x="1663.574219" xlink:href="#DejaVuSans-101"/>
      <use x="1725.097656" xlink:href="#DejaVuSans-108"/>
     </g>
    </g>
    <g id="patch_37">
     <path d="M 743.092313 152.861875
L 771.092313 152.861875
L 771.092313 143.061875
L 743.092313 143.061875
z
" style="fill:#7d438f;"/>
    </g>
    <g id="text_15">
     <!-- Minimal Media -->
     <g transform="translate(782.292313 152.861875)scale(0.14 -0.14)">
      <use xlink:href="#DejaVuSans-77"/>
      <use x="86.279297" xlink:href="#DejaVuSans-105"/>
      <use x="114.0625" xlink:href="#DejaVuSans-110"/>
      <use x="177.441406" xlink:href="#DejaVuSans-105"/>
      <use x="205.224609" xlink:href="#DejaVuSans-109"/>
      <use x="302.636719" xlink:href="#DejaVuSans-97"/>
      <use x="363.916016" xlink:href="#DejaVuSans-108"/>
      <use x="391.699219" xlink:href="#DejaVuSans-32"/>
      <use x="423.486328" xlink:href="#DejaVuSans-77"/>
      <use x="509.765625" xlink:href="#DejaVuSans-101"/>
      <use x="571.289062" xlink:href="#DejaVuSans-100"/>
      <use x="634.765625" xlink:href="#DejaVuSans-105"/>
      <use x="662.548828" xlink:href="#DejaVuSans-97"/>
     </g>
    </g>
    <g id="patch_38">
     <path d="M 743.092313 173.41125
L 771.092313 173.41125
L 771.092313 163.61125
L 743.092313 163.61125
z
" style="fill:#e8c5e6;"/>
    </g>
    <g id="text_16">
     <!-- Mueller-Hinton  -->
     <defs>
      <path d="M 4.890625 31.390625
L 31.203125 31.390625
L 31.203125 23.390625
L 4.890625 23.390625
z
" id="DejaVuSans-45"/>
      <path d="M 9.8125 72.90625
L 19.671875 72.90625
L 19.671875 43.015625
L 55.515625 43.015625
L 55.515625 72.90625
L 65.375 72.90625
L 65.375 0
L 55.515625 0
L 55.515625 34.71875
L 19.671875 34.71875
L 19.671875 0
L 9.8125 0
z
" id="DejaVuSans-72"/>
     </defs>
     <g transform="translate(782.292313 173.41125)scale(0.14 -0.14)">
      <use xlink:href="#DejaVuSans-77"/>
      <use x="86.279297" xlink:href="#DejaVuSans-117"/>
      <use x="149.658203" xlink:href="#DejaVuSans-101"/>
      <use x="211.181641" xlink:href="#DejaVuSans-108"/>
      <use x="238.964844" xlink:href="#DejaVuSans-108"/>
      <use x="266.748047" xlink:href="#DejaVuSans-101"/>
      <use x="328.271484" xlink:href="#DejaVuSans-114"/>
      <use x="369.291016" xlink:href="#DejaVuSans-45"/>
      <use x="405.375" xlink:href="#DejaVuSans-72"/>
      <use x="480.570312" xlink:href="#DejaVuSans-105"/>
      <use x="508.353516" xlink:href="#DejaVuSans-110"/>
      <use x="571.732422" xlink:href="#DejaVuSans-116"/>
      <use x="610.941406" xlink:href="#DejaVuSans-111"/>
      <use x="672.123047" xlink:href="#DejaVuSans-110"/>
      <use x="735.501953" xlink:href="#DejaVuSans-32"/>
     </g>
    </g>
    <g id="patch_39">
     <path d="M 743.092313 193.960625
L 771.092313 193.960625
L 771.092313 184.160625
L 743.092313 184.160625
z
" style="fill:#79c2d1;"/>
    </g>
    <g id="text_17">
     <!-- Other -->
     <defs>
      <path d="M 54.890625 33.015625
L 54.890625 0
L 45.90625 0
L 45.90625 32.71875
Q 45.90625 40.484375 42.875 44.328125
Q 39.84375 48.1875 33.796875 48.1875
Q 26.515625 48.1875 22.3125 43.546875
Q 18.109375 38.921875 18.109375 30.90625
L 18.109375 0
L 9.078125 0
L 9.078125 75.984375
L 18.109375 75.984375
L 18.109375 46.1875
Q 21.34375 51.125 25.703125 53.5625
Q 30.078125 56 35.796875 56
Q 45.21875 56 50.046875 50.171875
Q 54.890625 44.34375 54.890625 33.015625
z
" id="DejaVuSans-104"/>
     </defs>
     <g transform="translate(782.292313 193.960625)scale(0.14 -0.14)">
      <use xlink:href="#DejaVuSans-79"/>
      <use x="78.710938" xlink:href="#DejaVuSans-116"/>
      <use x="117.919922" xlink:href="#DejaVuSans-104"/>
      <use x="181.298828" xlink:href="#DejaVuSans-101"/>
      <use x="242.822266" xlink:href="#DejaVuSans-114"/>
     </g>
    </g>
    <g id="patch_40">
     <path d="M 743.092313 214.51
L 771.092313 214.51
L 771.092313 204.71
L 743.092313 204.71
z
" style="fill:#a8cc3b;"/>
    </g>
    <g id="text_18">
     <!-- PIA -->
     <defs>
      <path d="M 9.8125 72.90625
L 19.671875 72.90625
L 19.671875 0
L 9.8125 0
z
" id="DejaVuSans-73"/>
     </defs>
     <g transform="translate(782.292313 214.51)scale(0.14 -0.14)">
      <use xlink:href="#DejaVuSans-80"/>
      <use x="60.302734" xlink:href="#DejaVuSans-73"/>
      <use x="89.794922" xlink:href="#DejaVuSans-65"/>
     </g>
    </g>
    <g id="patch_41">
     <path d="M 743.092313 235.059375
L 771.092313 235.059375
L 771.092313 225.259375
L 743.092313 225.259375
z
" style="fill:#f5b0b0;"/>
    </g>
    <g id="text_19">
     <!-- PIA,  Animal Model -->
     <g transform="translate(782.292313 235.059375)scale(0.14 -0.14)">
      <use xlink:href="#DejaVuSans-80"/>
      <use x="60.302734" xlink:href="#DejaVuSans-73"/>
      <use x="89.794922" xlink:href="#DejaVuSans-65"/>
      <use x="158.203125" xlink:href="#DejaVuSans-44"/>
      <use x="189.990234" xlink:href="#DejaVuSans-32"/>
      <use x="221.777344" xlink:href="#DejaVuSans-32"/>
      <use x="253.564453" xlink:href="#DejaVuSans-65"/>
      <use x="321.972656" xlink:href="#DejaVuSans-110"/>
      <use x="385.351562" xlink:href="#DejaVuSans-105"/>
      <use x="413.134766" xlink:href="#DejaVuSans-109"/>
      <use x="510.546875" xlink:href="#DejaVuSans-97"/>
      <use x="571.826172" xlink:href="#DejaVuSans-108"/>
      <use x="599.609375" xlink:href="#DejaVuSans-32"/>
      <use x="631.396484" xlink:href="#DejaVuSans-77"/>
      <use x="717.675781" xlink:href="#DejaVuSans-111"/>
      <use x="778.857422" xlink:href="#DejaVuSans-100"/>
      <use x="842.333984" xlink:href="#DejaVuSans-101"/>
      <use x="903.857422" xlink:href="#DejaVuSans-108"/>
     </g>
    </g>
    <g id="patch_42">
     <path d="M 743.092313 255.60875
L 771.092313 255.60875
L 771.092313 245.80875
L 743.092313 245.80875
z
" style="fill:#d0aee6;"/>
    </g>
    <g id="text_20">
     <!-- SCFM -->
     <defs>
      <path d="M 53.515625 70.515625
L 53.515625 60.890625
Q 47.90625 63.578125 42.921875 64.890625
Q 37.9375 66.21875 33.296875 66.21875
Q 25.25 66.21875 20.875 63.09375
Q 16.5 59.96875 16.5 54.203125
Q 16.5 49.359375 19.40625 46.890625
Q 22.3125 44.4375 30.421875 42.921875
L 36.375 41.703125
Q 47.40625 39.59375 52.65625 34.296875
Q 57.90625 29 57.90625 20.125
Q 57.90625 9.515625 50.796875 4.046875
Q 43.703125 -1.421875 29.984375 -1.421875
Q 24.8125 -1.421875 18.96875 -0.25
Q 13.140625 0.921875 6.890625 3.21875
L 6.890625 13.375
Q 12.890625 10.015625 18.65625 8.296875
Q 24.421875 6.59375 29.984375 6.59375
Q 38.421875 6.59375 43.015625 9.90625
Q 47.609375 13.234375 47.609375 19.390625
Q 47.609375 24.75 44.3125 27.78125
Q 41.015625 30.8125 33.5 32.328125
L 27.484375 33.5
Q 16.453125 35.6875 11.515625 40.375
Q 6.59375 45.0625 6.59375 53.421875
Q 6.59375 63.09375 13.40625 68.65625
Q 20.21875 74.21875 32.171875 74.21875
Q 37.3125 74.21875 42.625 73.28125
Q 47.953125 72.359375 53.515625 70.515625
z
" id="DejaVuSans-83"/>
      <path d="M 9.8125 72.90625
L 51.703125 72.90625
L 51.703125 64.59375
L 19.671875 64.59375
L 19.671875 43.109375
L 48.578125 43.109375
L 48.578125 34.8125
L 19.671875 34.8125
L 19.671875 0
L 9.8125 0
z
" id="DejaVuSans-70"/>
     </defs>
     <g transform="translate(782.292313 255.60875)scale(0.14 -0.14)">
      <use xlink:href="#DejaVuSans-83"/>
      <use x="63.476562" xlink:href="#DejaVuSans-67"/>
      <use x="133.300781" xlink:href="#DejaVuSans-70"/>
      <use x="190.820312" xlink:href="#DejaVuSans-77"/>
     </g>
    </g>
    <g id="patch_43">
     <path d="M 743.092313 276.158125
L 771.092313 276.158125
L 771.092313 266.358125
L 743.092313 266.358125
z
" style="fill:#fffac8;"/>
    </g>
    <g id="text_21">
     <!-- TSB -->
     <defs>
      <path d="M -0.296875 72.90625
L 61.375 72.90625
L 61.375 64.59375
L 35.5 64.59375
L 35.5 0
L 25.59375 0
L 25.59375 64.59375
L -0.296875 64.59375
z
" id="DejaVuSans-84"/>
     </defs>
     <g transform="translate(782.292313 276.158125)scale(0.14 -0.14)">
      <use xlink:href="#DejaVuSans-84"/>
      <use x="61.083984" xlink:href="#DejaVuSans-83"/>
      <use x="124.560547" xlink:href="#DejaVuSans-66"/>
     </g>
    </g>
   </g>
  </g>
 </g>
 <defs>
  <clipPath id="pb1896dfa22">
   <rect height="434.88" width="669.6" x="55.980625" y="26.877187"/>
  </clipPath>
 </defs>
</svg>
