<?xml version="1.0" encoding="utf-8" standalone="no"?>
<!DOCTYPE svg PUBLIC "-//W3C//DTD SVG 1.1//EN"
  "http://www.w3.org/Graphics/SVG/1.1/DTD/svg11.dtd">
<!-- Created with matplotlib (https://matplotlib.org/) -->
<svg height="288pt" version="1.1" viewBox="0 0 432 288" width="432pt" xmlns="http://www.w3.org/2000/svg" xmlns:xlink="http://www.w3.org/1999/xlink">
 <defs>
  <style type="text/css">
*{stroke-linecap:butt;stroke-linejoin:round;}
  </style>
 </defs>
 <g id="figure_1">
  <g id="patch_1">
   <path d="M 0 288
L 432 288
L 432 0
L 0 0
z
" style="fill:#ffffff;"/>
  </g>
  <g id="axes_1">
   <g id="patch_2">
    <path d="M 54 252
L 388.8 252
L 388.8 34.56
L 54 34.56
z
" style="fill:#ffffff;"/>
   </g>
   <g id="patch_3">
    <path clip-path="url(#p9d54f848b9)" d="M 77.484311 252
L 83.921214 252
L 83.921214 248.402978
L 77.484311 248.402978
z
" style="fill:#c6a9b5;opacity:0.7;"/>
   </g>
   <g id="patch_4">
    <path clip-path="url(#p9d54f848b9)" d="M 83.921214 252
L 90.358116 252
L 90.358116 228.362425
L 83.921214 228.362425
z
" style="fill:#c6a9b5;opacity:0.7;"/>
   </g>
   <g id="patch_5">
    <path clip-path="url(#p9d54f848b9)" d="M 90.358116 252
L 96.795018 252
L 96.795018 219.626799
L 90.358116 219.626799
z
" style="fill:#c6a9b5;opacity:0.7;"/>
   </g>
   <g id="patch_6">
    <path clip-path="url(#p9d54f848b9)" d="M 96.795018 252
L 103.231921 252
L 103.231921 211.405034
L 96.795018 211.405034
z
" style="fill:#c6a9b5;opacity:0.7;"/>
   </g>
   <g id="patch_7">
    <path clip-path="url(#p9d54f848b9)" d="M 103.231921 252
L 109.668823 252
L 109.668823 197.016944
L 103.231921 197.016944
z
" style="fill:#c6a9b5;opacity:0.7;"/>
   </g>
   <g id="patch_8">
    <path clip-path="url(#p9d54f848b9)" d="M 109.668823 252
L 116.105725 252
L 116.105725 209.349592
L 109.668823 209.349592
z
" style="fill:#c6a9b5;opacity:0.7;"/>
   </g>
   <g id="patch_9">
    <path clip-path="url(#p9d54f848b9)" d="M 116.105725 252
L 122.542628 252
L 122.542628 213.974335
L 116.105725 213.974335
z
" style="fill:#c6a9b5;opacity:0.7;"/>
   </g>
   <g id="patch_10">
    <path clip-path="url(#p9d54f848b9)" d="M 122.542628 252
L 128.97953 252
L 128.97953 222.709961
L 122.542628 222.709961
z
" style="fill:#c6a9b5;opacity:0.7;"/>
   </g>
   <g id="patch_11">
    <path clip-path="url(#p9d54f848b9)" d="M 128.97953 252
L 135.416432 252
L 135.416432 220.140659
L 128.97953 220.140659
z
" style="fill:#c6a9b5;opacity:0.7;"/>
   </g>
   <g id="patch_12">
    <path clip-path="url(#p9d54f848b9)" d="M 135.416432 252
L 141.853335 252
L 141.853335 234.528749
L 135.416432 234.528749
z
" style="fill:#c6a9b5;opacity:0.7;"/>
   </g>
   <g id="patch_13">
    <path clip-path="url(#p9d54f848b9)" d="M 141.853335 252
L 148.290237 252
L 148.290237 239.667352
L 141.853335 239.667352
z
" style="fill:#c6a9b5;opacity:0.7;"/>
   </g>
   <g id="patch_14">
    <path clip-path="url(#p9d54f848b9)" d="M 148.290237 252
L 154.727139 252
L 154.727139 246.347536
L 148.290237 246.347536
z
" style="fill:#c6a9b5;opacity:0.7;"/>
   </g>
   <g id="patch_15">
    <path clip-path="url(#p9d54f848b9)" d="M 154.727139 252
L 161.164042 252
L 161.164042 246.861397
L 154.727139 246.861397
z
" style="fill:#c6a9b5;opacity:0.7;"/>
   </g>
   <g id="patch_16">
    <path clip-path="url(#p9d54f848b9)" d="M 161.164042 252
L 167.600944 252
L 167.600944 246.861397
L 161.164042 246.861397
z
" style="fill:#c6a9b5;opacity:0.7;"/>
   </g>
   <g id="patch_17">
    <path clip-path="url(#p9d54f848b9)" d="M 167.600944 252
L 174.037846 252
L 174.037846 249.430698
L 167.600944 249.430698
z
" style="fill:#c6a9b5;opacity:0.7;"/>
   </g>
   <g id="patch_18">
    <path clip-path="url(#p9d54f848b9)" d="M 174.037846 252
L 180.474749 252
L 180.474749 250.972279
L 174.037846 250.972279
z
" style="fill:#c6a9b5;opacity:0.7;"/>
   </g>
   <g id="patch_19">
    <path clip-path="url(#p9d54f848b9)" d="M 180.474749 252
L 186.911651 252
L 186.911651 249.430698
L 180.474749 249.430698
z
" style="fill:#c6a9b5;opacity:0.7;"/>
   </g>
   <g id="patch_20">
    <path clip-path="url(#p9d54f848b9)" d="M 186.911651 252
L 193.348553 252
L 193.348553 248.402978
L 186.911651 248.402978
z
" style="fill:#c6a9b5;opacity:0.7;"/>
   </g>
   <g id="patch_21">
    <path clip-path="url(#p9d54f848b9)" d="M 193.348553 252
L 199.785456 252
L 199.785456 248.916838
L 193.348553 248.916838
z
" style="fill:#c6a9b5;opacity:0.7;"/>
   </g>
   <g id="patch_22">
    <path clip-path="url(#p9d54f848b9)" d="M 199.785456 252
L 206.222358 252
L 206.222358 250.458419
L 199.785456 250.458419
z
" style="fill:#c6a9b5;opacity:0.7;"/>
   </g>
   <g id="patch_23">
    <path clip-path="url(#p9d54f848b9)" d="M 206.222358 252
L 212.65926 252
L 212.65926 252
L 206.222358 252
z
" style="fill:#c6a9b5;opacity:0.7;"/>
   </g>
   <g id="patch_24">
    <path clip-path="url(#p9d54f848b9)" d="M 212.65926 252
L 219.096162 252
L 219.096162 249.430698
L 212.65926 249.430698
z
" style="fill:#c6a9b5;opacity:0.7;"/>
   </g>
   <g id="patch_25">
    <path clip-path="url(#p9d54f848b9)" d="M 219.096162 252
L 225.533065 252
L 225.533065 248.916838
L 219.096162 248.916838
z
" style="fill:#c6a9b5;opacity:0.7;"/>
   </g>
   <g id="patch_26">
    <path clip-path="url(#p9d54f848b9)" d="M 225.533065 252
L 231.969967 252
L 231.969967 251.48614
L 225.533065 251.48614
z
" style="fill:#c6a9b5;opacity:0.7;"/>
   </g>
   <g id="patch_27">
    <path clip-path="url(#p9d54f848b9)" d="M 231.969967 252
L 238.406869 252
L 238.406869 250.972279
L 231.969967 250.972279
z
" style="fill:#c6a9b5;opacity:0.7;"/>
   </g>
   <g id="patch_28">
    <path clip-path="url(#p9d54f848b9)" d="M 238.406869 252
L 244.843772 252
L 244.843772 250.458419
L 238.406869 250.458419
z
" style="fill:#c6a9b5;opacity:0.7;"/>
   </g>
   <g id="patch_29">
    <path clip-path="url(#p9d54f848b9)" d="M 244.843772 252
L 251.280674 252
L 251.280674 252
L 244.843772 252
z
" style="fill:#c6a9b5;opacity:0.7;"/>
   </g>
   <g id="patch_30">
    <path clip-path="url(#p9d54f848b9)" d="M 251.280674 252
L 257.717576 252
L 257.717576 252
L 251.280674 252
z
" style="fill:#c6a9b5;opacity:0.7;"/>
   </g>
   <g id="patch_31">
    <path clip-path="url(#p9d54f848b9)" d="M 257.717576 252
L 264.154479 252
L 264.154479 250.972279
L 257.717576 250.972279
z
" style="fill:#c6a9b5;opacity:0.7;"/>
   </g>
   <g id="patch_32">
    <path clip-path="url(#p9d54f848b9)" d="M 264.154479 252
L 270.591381 252
L 270.591381 252
L 264.154479 252
z
" style="fill:#c6a9b5;opacity:0.7;"/>
   </g>
   <g id="patch_33">
    <path clip-path="url(#p9d54f848b9)" d="M 270.591381 252
L 277.028283 252
L 277.028283 252
L 270.591381 252
z
" style="fill:#c6a9b5;opacity:0.7;"/>
   </g>
   <g id="patch_34">
    <path clip-path="url(#p9d54f848b9)" d="M 277.028283 252
L 283.465186 252
L 283.465186 252
L 277.028283 252
z
" style="fill:#c6a9b5;opacity:0.7;"/>
   </g>
   <g id="patch_35">
    <path clip-path="url(#p9d54f848b9)" d="M 283.465186 252
L 289.902088 252
L 289.902088 252
L 283.465186 252
z
" style="fill:#c6a9b5;opacity:0.7;"/>
   </g>
   <g id="patch_36">
    <path clip-path="url(#p9d54f848b9)" d="M 289.902088 252
L 296.33899 252
L 296.33899 252
L 289.902088 252
z
" style="fill:#c6a9b5;opacity:0.7;"/>
   </g>
   <g id="patch_37">
    <path clip-path="url(#p9d54f848b9)" d="M 296.33899 252
L 302.775893 252
L 302.775893 251.48614
L 296.33899 251.48614
z
" style="fill:#c6a9b5;opacity:0.7;"/>
   </g>
   <g id="patch_38">
    <path clip-path="url(#p9d54f848b9)" d="M 302.775893 252
L 309.212795 252
L 309.212795 252
L 302.775893 252
z
" style="fill:#c6a9b5;opacity:0.7;"/>
   </g>
   <g id="patch_39">
    <path clip-path="url(#p9d54f848b9)" d="M 309.212795 252
L 315.649697 252
L 315.649697 251.48614
L 309.212795 251.48614
z
" style="fill:#c6a9b5;opacity:0.7;"/>
   </g>
   <g id="patch_40">
    <path clip-path="url(#p9d54f848b9)" d="M 315.649697 252
L 322.0866 252
L 322.0866 250.972279
L 315.649697 250.972279
z
" style="fill:#c6a9b5;opacity:0.7;"/>
   </g>
   <g id="patch_41">
    <path clip-path="url(#p9d54f848b9)" d="M 322.0866 252
L 328.523502 252
L 328.523502 252
L 322.0866 252
z
" style="fill:#c6a9b5;opacity:0.7;"/>
   </g>
   <g id="patch_42">
    <path clip-path="url(#p9d54f848b9)" d="M 328.523502 252
L 334.960404 252
L 334.960404 252
L 328.523502 252
z
" style="fill:#c6a9b5;opacity:0.7;"/>
   </g>
   <g id="patch_43">
    <path clip-path="url(#p9d54f848b9)" d="M 334.960404 252
L 341.397307 252
L 341.397307 251.48614
L 334.960404 251.48614
z
" style="fill:#c6a9b5;opacity:0.7;"/>
   </g>
   <g id="patch_44">
    <path clip-path="url(#p9d54f848b9)" d="M 341.397307 252
L 347.834209 252
L 347.834209 251.48614
L 341.397307 251.48614
z
" style="fill:#c6a9b5;opacity:0.7;"/>
   </g>
   <g id="patch_45">
    <path clip-path="url(#p9d54f848b9)" d="M 347.834209 252
L 354.271111 252
L 354.271111 252
L 347.834209 252
z
" style="fill:#c6a9b5;opacity:0.7;"/>
   </g>
   <g id="patch_46">
    <path clip-path="url(#p9d54f848b9)" d="M 354.271111 252
L 360.708014 252
L 360.708014 252
L 354.271111 252
z
" style="fill:#c6a9b5;opacity:0.7;"/>
   </g>
   <g id="patch_47">
    <path clip-path="url(#p9d54f848b9)" d="M 360.708014 252
L 367.144916 252
L 367.144916 252
L 360.708014 252
z
" style="fill:#c6a9b5;opacity:0.7;"/>
   </g>
   <g id="patch_48">
    <path clip-path="url(#p9d54f848b9)" d="M 367.144916 252
L 373.581818 252
L 373.581818 251.48614
L 367.144916 251.48614
z
" style="fill:#c6a9b5;opacity:0.7;"/>
   </g>
   <g id="patch_49">
    <path clip-path="url(#p9d54f848b9)" d="M 69.218182 252
L 72.817026 252
L 72.817026 44.914286
L 69.218182 44.914286
z
" style="fill:#808080;opacity:0.7;"/>
   </g>
   <g id="patch_50">
    <path clip-path="url(#p9d54f848b9)" d="M 72.817026 252
L 76.415869 252
L 76.415869 169.782347
L 72.817026 169.782347
z
" style="fill:#808080;opacity:0.7;"/>
   </g>
   <g id="patch_51">
    <path clip-path="url(#p9d54f848b9)" d="M 76.415869 252
L 80.014713 252
L 80.014713 197.530805
L 76.415869 197.530805
z
" style="fill:#808080;opacity:0.7;"/>
   </g>
   <g id="patch_52">
    <path clip-path="url(#p9d54f848b9)" d="M 80.014713 252
L 83.613557 252
L 83.613557 208.835732
L 80.014713 208.835732
z
" style="fill:#808080;opacity:0.7;"/>
   </g>
   <g id="patch_53">
    <path clip-path="url(#p9d54f848b9)" d="M 83.613557 252
L 87.212401 252
L 87.212401 232.987168
L 83.613557 232.987168
z
" style="fill:#808080;opacity:0.7;"/>
   </g>
   <g id="patch_54">
    <path clip-path="url(#p9d54f848b9)" d="M 87.212401 252
L 90.811244 252
L 90.811244 235.042609
L 87.212401 235.042609
z
" style="fill:#808080;opacity:0.7;"/>
   </g>
   <g id="patch_55">
    <path clip-path="url(#p9d54f848b9)" d="M 90.811244 252
L 94.410088 252
L 94.410088 242.750514
L 90.811244 242.750514
z
" style="fill:#808080;opacity:0.7;"/>
   </g>
   <g id="patch_56">
    <path clip-path="url(#p9d54f848b9)" d="M 94.410088 252
L 98.008932 252
L 98.008932 243.778235
L 94.410088 243.778235
z
" style="fill:#808080;opacity:0.7;"/>
   </g>
   <g id="patch_57">
    <path clip-path="url(#p9d54f848b9)" d="M 98.008932 252
L 101.607776 252
L 101.607776 240.695073
L 98.008932 240.695073
z
" style="fill:#808080;opacity:0.7;"/>
   </g>
   <g id="patch_58">
    <path clip-path="url(#p9d54f848b9)" d="M 101.607776 252
L 105.20662 252
L 105.20662 245.833676
L 101.607776 245.833676
z
" style="fill:#808080;opacity:0.7;"/>
   </g>
   <g id="patch_59">
    <path clip-path="url(#p9d54f848b9)" d="M 105.20662 252
L 108.805463 252
L 108.805463 249.430698
L 105.20662 249.430698
z
" style="fill:#808080;opacity:0.7;"/>
   </g>
   <g id="patch_60">
    <path clip-path="url(#p9d54f848b9)" d="M 108.805463 252
L 112.404307 252
L 112.404307 248.916838
L 108.805463 248.916838
z
" style="fill:#808080;opacity:0.7;"/>
   </g>
   <g id="patch_61">
    <path clip-path="url(#p9d54f848b9)" d="M 112.404307 252
L 116.003151 252
L 116.003151 246.347536
L 112.404307 246.347536
z
" style="fill:#808080;opacity:0.7;"/>
   </g>
   <g id="patch_62">
    <path clip-path="url(#p9d54f848b9)" d="M 116.003151 252
L 119.601995 252
L 119.601995 243.778235
L 116.003151 243.778235
z
" style="fill:#808080;opacity:0.7;"/>
   </g>
   <g id="patch_63">
    <path clip-path="url(#p9d54f848b9)" d="M 119.601995 252
L 123.200838 252
L 123.200838 243.778235
L 119.601995 243.778235
z
" style="fill:#808080;opacity:0.7;"/>
   </g>
   <g id="patch_64">
    <path clip-path="url(#p9d54f848b9)" d="M 123.200838 252
L 126.799682 252
L 126.799682 246.861397
L 123.200838 246.861397
z
" style="fill:#808080;opacity:0.7;"/>
   </g>
   <g id="patch_65">
    <path clip-path="url(#p9d54f848b9)" d="M 126.799682 252
L 130.398526 252
L 130.398526 245.319816
L 126.799682 245.319816
z
" style="fill:#808080;opacity:0.7;"/>
   </g>
   <g id="patch_66">
    <path clip-path="url(#p9d54f848b9)" d="M 130.398526 252
L 133.99737 252
L 133.99737 248.916838
L 130.398526 248.916838
z
" style="fill:#808080;opacity:0.7;"/>
   </g>
   <g id="patch_67">
    <path clip-path="url(#p9d54f848b9)" d="M 133.99737 252
L 137.596213 252
L 137.596213 248.916838
L 133.99737 248.916838
z
" style="fill:#808080;opacity:0.7;"/>
   </g>
   <g id="patch_68">
    <path clip-path="url(#p9d54f848b9)" d="M 137.596213 252
L 141.195057 252
L 141.195057 249.430698
L 137.596213 249.430698
z
" style="fill:#808080;opacity:0.7;"/>
   </g>
   <g id="patch_69">
    <path clip-path="url(#p9d54f848b9)" d="M 141.195057 252
L 144.793901 252
L 144.793901 249.944559
L 141.195057 249.944559
z
" style="fill:#808080;opacity:0.7;"/>
   </g>
   <g id="patch_70">
    <path clip-path="url(#p9d54f848b9)" d="M 144.793901 252
L 148.392745 252
L 148.392745 248.402978
L 144.793901 248.402978
z
" style="fill:#808080;opacity:0.7;"/>
   </g>
   <g id="patch_71">
    <path clip-path="url(#p9d54f848b9)" d="M 148.392745 252
L 151.991589 252
L 151.991589 249.944559
L 148.392745 249.944559
z
" style="fill:#808080;opacity:0.7;"/>
   </g>
   <g id="patch_72">
    <path clip-path="url(#p9d54f848b9)" d="M 151.991589 252
L 155.590432 252
L 155.590432 250.458419
L 151.991589 250.458419
z
" style="fill:#808080;opacity:0.7;"/>
   </g>
   <g id="patch_73">
    <path clip-path="url(#p9d54f848b9)" d="M 155.590432 252
L 159.189276 252
L 159.189276 249.430698
L 155.590432 249.430698
z
" style="fill:#808080;opacity:0.7;"/>
   </g>
   <g id="patch_74">
    <path clip-path="url(#p9d54f848b9)" d="M 159.189276 252
L 162.78812 252
L 162.78812 250.972279
L 159.189276 250.972279
z
" style="fill:#808080;opacity:0.7;"/>
   </g>
   <g id="patch_75">
    <path clip-path="url(#p9d54f848b9)" d="M 162.78812 252
L 166.386964 252
L 166.386964 250.972279
L 162.78812 250.972279
z
" style="fill:#808080;opacity:0.7;"/>
   </g>
   <g id="patch_76">
    <path clip-path="url(#p9d54f848b9)" d="M 166.386964 252
L 169.985807 252
L 169.985807 249.944559
L 166.386964 249.944559
z
" style="fill:#808080;opacity:0.7;"/>
   </g>
   <g id="patch_77">
    <path clip-path="url(#p9d54f848b9)" d="M 169.985807 252
L 173.584651 252
L 173.584651 250.458419
L 169.985807 250.458419
z
" style="fill:#808080;opacity:0.7;"/>
   </g>
   <g id="patch_78">
    <path clip-path="url(#p9d54f848b9)" d="M 173.584651 252
L 177.183495 252
L 177.183495 250.972279
L 173.584651 250.972279
z
" style="fill:#808080;opacity:0.7;"/>
   </g>
   <g id="patch_79">
    <path clip-path="url(#p9d54f848b9)" d="M 177.183495 252
L 180.782339 252
L 180.782339 251.48614
L 177.183495 251.48614
z
" style="fill:#808080;opacity:0.7;"/>
   </g>
   <g id="patch_80">
    <path clip-path="url(#p9d54f848b9)" d="M 180.782339 252
L 184.381182 252
L 184.381182 251.48614
L 180.782339 251.48614
z
" style="fill:#808080;opacity:0.7;"/>
   </g>
   <g id="patch_81">
    <path clip-path="url(#p9d54f848b9)" d="M 184.381182 252
L 187.980026 252
L 187.980026 252
L 184.381182 252
z
" style="fill:#808080;opacity:0.7;"/>
   </g>
   <g id="patch_82">
    <path clip-path="url(#p9d54f848b9)" d="M 187.980026 252
L 191.57887 252
L 191.57887 252
L 187.980026 252
z
" style="fill:#808080;opacity:0.7;"/>
   </g>
   <g id="patch_83">
    <path clip-path="url(#p9d54f848b9)" d="M 191.57887 252
L 195.177714 252
L 195.177714 251.48614
L 191.57887 251.48614
z
" style="fill:#808080;opacity:0.7;"/>
   </g>
   <g id="patch_84">
    <path clip-path="url(#p9d54f848b9)" d="M 195.177714 252
L 198.776558 252
L 198.776558 252
L 195.177714 252
z
" style="fill:#808080;opacity:0.7;"/>
   </g>
   <g id="patch_85">
    <path clip-path="url(#p9d54f848b9)" d="M 198.776558 252
L 202.375401 252
L 202.375401 252
L 198.776558 252
z
" style="fill:#808080;opacity:0.7;"/>
   </g>
   <g id="patch_86">
    <path clip-path="url(#p9d54f848b9)" d="M 202.375401 252
L 205.974245 252
L 205.974245 252
L 202.375401 252
z
" style="fill:#808080;opacity:0.7;"/>
   </g>
   <g id="patch_87">
    <path clip-path="url(#p9d54f848b9)" d="M 205.974245 252
L 209.573089 252
L 209.573089 251.48614
L 205.974245 251.48614
z
" style="fill:#808080;opacity:0.7;"/>
   </g>
   <g id="patch_88">
    <path clip-path="url(#p9d54f848b9)" d="M 209.573089 252
L 213.171933 252
L 213.171933 252
L 209.573089 252
z
" style="fill:#808080;opacity:0.7;"/>
   </g>
   <g id="patch_89">
    <path clip-path="url(#p9d54f848b9)" d="M 213.171933 252
L 216.770776 252
L 216.770776 251.48614
L 213.171933 251.48614
z
" style="fill:#808080;opacity:0.7;"/>
   </g>
   <g id="patch_90">
    <path clip-path="url(#p9d54f848b9)" d="M 216.770776 252
L 220.36962 252
L 220.36962 252
L 216.770776 252
z
" style="fill:#808080;opacity:0.7;"/>
   </g>
   <g id="patch_91">
    <path clip-path="url(#p9d54f848b9)" d="M 220.36962 252
L 223.968464 252
L 223.968464 252
L 220.36962 252
z
" style="fill:#808080;opacity:0.7;"/>
   </g>
   <g id="patch_92">
    <path clip-path="url(#p9d54f848b9)" d="M 223.968464 252
L 227.567308 252
L 227.567308 250.972279
L 223.968464 250.972279
z
" style="fill:#808080;opacity:0.7;"/>
   </g>
   <g id="patch_93">
    <path clip-path="url(#p9d54f848b9)" d="M 227.567308 252
L 231.166151 252
L 231.166151 252
L 227.567308 252
z
" style="fill:#808080;opacity:0.7;"/>
   </g>
   <g id="patch_94">
    <path clip-path="url(#p9d54f848b9)" d="M 231.166151 252
L 234.764995 252
L 234.764995 252
L 231.166151 252
z
" style="fill:#808080;opacity:0.7;"/>
   </g>
   <g id="patch_95">
    <path clip-path="url(#p9d54f848b9)" d="M 234.764995 252
L 238.363839 252
L 238.363839 252
L 234.764995 252
z
" style="fill:#808080;opacity:0.7;"/>
   </g>
   <g id="patch_96">
    <path clip-path="url(#p9d54f848b9)" d="M 238.363839 252
L 241.962683 252
L 241.962683 251.48614
L 238.363839 251.48614
z
" style="fill:#808080;opacity:0.7;"/>
   </g>
   <g id="patch_97">
    <path clip-path="url(#p9d54f848b9)" d="M 241.962683 252
L 245.561527 252
L 245.561527 251.48614
L 241.962683 251.48614
z
" style="fill:#808080;opacity:0.7;"/>
   </g>
   <g id="patch_98">
    <path clip-path="url(#p9d54f848b9)" d="M 245.561527 252
L 249.16037 252
L 249.16037 251.48614
L 245.561527 251.48614
z
" style="fill:#808080;opacity:0.7;"/>
   </g>
   <g id="matplotlib.axis_1">
    <g id="xtick_1">
     <g id="line2d_1">
      <defs>
       <path d="M 0 0
L 0 3.5
" id="m3384e0522f" style="stroke:#000000;stroke-width:0.8;"/>
      </defs>
      <g>
       <use style="stroke:#000000;stroke-width:0.8;" x="69.116297" xlink:href="#m3384e0522f" y="252"/>
      </g>
     </g>
     <g id="text_1">
      <!-- 0 -->
      <defs>
       <path d="M 31.78125 66.40625
Q 24.171875 66.40625 20.328125 58.90625
Q 16.5 51.421875 16.5 36.375
Q 16.5 21.390625 20.328125 13.890625
Q 24.171875 6.390625 31.78125 6.390625
Q 39.453125 6.390625 43.28125 13.890625
Q 47.125 21.390625 47.125 36.375
Q 47.125 51.421875 43.28125 58.90625
Q 39.453125 66.40625 31.78125 66.40625
z
M 31.78125 74.21875
Q 44.046875 74.21875 50.515625 64.515625
Q 56.984375 54.828125 56.984375 36.375
Q 56.984375 17.96875 50.515625 8.265625
Q 44.046875 -1.421875 31.78125 -1.421875
Q 19.53125 -1.421875 13.0625 8.265625
Q 6.59375 17.96875 6.59375 36.375
Q 6.59375 54.828125 13.0625 64.515625
Q 19.53125 74.21875 31.78125 74.21875
z
" id="DejaVuSans-48"/>
      </defs>
      <g transform="translate(65.935047 266.598437)scale(0.1 -0.1)">
       <use xlink:href="#DejaVuSans-48"/>
      </g>
     </g>
    </g>
    <g id="xtick_2">
     <g id="line2d_2">
      <g>
       <use style="stroke:#000000;stroke-width:0.8;" x="124.022137" xlink:href="#m3384e0522f" y="252"/>
      </g>
     </g>
     <g id="text_2">
      <!-- 100 -->
      <defs>
       <path d="M 12.40625 8.296875
L 28.515625 8.296875
L 28.515625 63.921875
L 10.984375 60.40625
L 10.984375 69.390625
L 28.421875 72.90625
L 38.28125 72.90625
L 38.28125 8.296875
L 54.390625 8.296875
L 54.390625 0
L 12.40625 0
z
" id="DejaVuSans-49"/>
      </defs>
      <g transform="translate(114.478387 266.598437)scale(0.1 -0.1)">
       <use xlink:href="#DejaVuSans-49"/>
       <use x="63.623047" xlink:href="#DejaVuSans-48"/>
       <use x="127.246094" xlink:href="#DejaVuSans-48"/>
      </g>
     </g>
    </g>
    <g id="xtick_3">
     <g id="line2d_3">
      <g>
       <use style="stroke:#000000;stroke-width:0.8;" x="178.927978" xlink:href="#m3384e0522f" y="252"/>
      </g>
     </g>
     <g id="text_3">
      <!-- 200 -->
      <defs>
       <path d="M 19.1875 8.296875
L 53.609375 8.296875
L 53.609375 0
L 7.328125 0
L 7.328125 8.296875
Q 12.9375 14.109375 22.625 23.890625
Q 32.328125 33.6875 34.8125 36.53125
Q 39.546875 41.84375 41.421875 45.53125
Q 43.3125 49.21875 43.3125 52.78125
Q 43.3125 58.59375 39.234375 62.25
Q 35.15625 65.921875 28.609375 65.921875
Q 23.96875 65.921875 18.8125 64.3125
Q 13.671875 62.703125 7.8125 59.421875
L 7.8125 69.390625
Q 13.765625 71.78125 18.9375 73
Q 24.125 74.21875 28.421875 74.21875
Q 39.75 74.21875 46.484375 68.546875
Q 53.21875 62.890625 53.21875 53.421875
Q 53.21875 48.921875 51.53125 44.890625
Q 49.859375 40.875 45.40625 35.40625
Q 44.1875 33.984375 37.640625 27.21875
Q 31.109375 20.453125 19.1875 8.296875
z
" id="DejaVuSans-50"/>
      </defs>
      <g transform="translate(169.384228 266.598437)scale(0.1 -0.1)">
       <use xlink:href="#DejaVuSans-50"/>
       <use x="63.623047" xlink:href="#DejaVuSans-48"/>
       <use x="127.246094" xlink:href="#DejaVuSans-48"/>
      </g>
     </g>
    </g>
    <g id="xtick_4">
     <g id="line2d_4">
      <g>
       <use style="stroke:#000000;stroke-width:0.8;" x="233.833818" xlink:href="#m3384e0522f" y="252"/>
      </g>
     </g>
     <g id="text_4">
      <!-- 300 -->
      <defs>
       <path d="M 40.578125 39.3125
Q 47.65625 37.796875 51.625 33
Q 55.609375 28.21875 55.609375 21.1875
Q 55.609375 10.40625 48.1875 4.484375
Q 40.765625 -1.421875 27.09375 -1.421875
Q 22.515625 -1.421875 17.65625 -0.515625
Q 12.796875 0.390625 7.625 2.203125
L 7.625 11.71875
Q 11.71875 9.328125 16.59375 8.109375
Q 21.484375 6.890625 26.8125 6.890625
Q 36.078125 6.890625 40.9375 10.546875
Q 45.796875 14.203125 45.796875 21.1875
Q 45.796875 27.640625 41.28125 31.265625
Q 36.765625 34.90625 28.71875 34.90625
L 20.21875 34.90625
L 20.21875 43.015625
L 29.109375 43.015625
Q 36.375 43.015625 40.234375 45.921875
Q 44.09375 48.828125 44.09375 54.296875
Q 44.09375 59.90625 40.109375 62.90625
Q 36.140625 65.921875 28.71875 65.921875
Q 24.65625 65.921875 20.015625 65.03125
Q 15.375 64.15625 9.8125 62.3125
L 9.8125 71.09375
Q 15.4375 72.65625 20.34375 73.4375
Q 25.25 74.21875 29.59375 74.21875
Q 40.828125 74.21875 47.359375 69.109375
Q 53.90625 64.015625 53.90625 55.328125
Q 53.90625 49.265625 50.4375 45.09375
Q 46.96875 40.921875 40.578125 39.3125
z
" id="DejaVuSans-51"/>
      </defs>
      <g transform="translate(224.290068 266.598437)scale(0.1 -0.1)">
       <use xlink:href="#DejaVuSans-51"/>
       <use x="63.623047" xlink:href="#DejaVuSans-48"/>
       <use x="127.246094" xlink:href="#DejaVuSans-48"/>
      </g>
     </g>
    </g>
    <g id="xtick_5">
     <g id="line2d_5">
      <g>
       <use style="stroke:#000000;stroke-width:0.8;" x="288.739658" xlink:href="#m3384e0522f" y="252"/>
      </g>
     </g>
     <g id="text_5">
      <!-- 400 -->
      <defs>
       <path d="M 37.796875 64.3125
L 12.890625 25.390625
L 37.796875 25.390625
z
M 35.203125 72.90625
L 47.609375 72.90625
L 47.609375 25.390625
L 58.015625 25.390625
L 58.015625 17.1875
L 47.609375 17.1875
L 47.609375 0
L 37.796875 0
L 37.796875 17.1875
L 4.890625 17.1875
L 4.890625 26.703125
z
" id="DejaVuSans-52"/>
      </defs>
      <g transform="translate(279.195908 266.598437)scale(0.1 -0.1)">
       <use xlink:href="#DejaVuSans-52"/>
       <use x="63.623047" xlink:href="#DejaVuSans-48"/>
       <use x="127.246094" xlink:href="#DejaVuSans-48"/>
      </g>
     </g>
    </g>
    <g id="xtick_6">
     <g id="line2d_6">
      <g>
       <use style="stroke:#000000;stroke-width:0.8;" x="343.645499" xlink:href="#m3384e0522f" y="252"/>
      </g>
     </g>
     <g id="text_6">
      <!-- 500 -->
      <defs>
       <path d="M 10.796875 72.90625
L 49.515625 72.90625
L 49.515625 64.59375
L 19.828125 64.59375
L 19.828125 46.734375
Q 21.96875 47.46875 24.109375 47.828125
Q 26.265625 48.1875 28.421875 48.1875
Q 40.625 48.1875 47.75 41.5
Q 54.890625 34.8125 54.890625 23.390625
Q 54.890625 11.625 47.5625 5.09375
Q 40.234375 -1.421875 26.90625 -1.421875
Q 22.3125 -1.421875 17.546875 -0.640625
Q 12.796875 0.140625 7.71875 1.703125
L 7.71875 11.625
Q 12.109375 9.234375 16.796875 8.0625
Q 21.484375 6.890625 26.703125 6.890625
Q 35.15625 6.890625 40.078125 11.328125
Q 45.015625 15.765625 45.015625 23.390625
Q 45.015625 31 40.078125 35.4375
Q 35.15625 39.890625 26.703125 39.890625
Q 22.75 39.890625 18.8125 39.015625
Q 14.890625 38.140625 10.796875 36.28125
z
" id="DejaVuSans-53"/>
      </defs>
      <g transform="translate(334.101749 266.598437)scale(0.1 -0.1)">
       <use xlink:href="#DejaVuSans-53"/>
       <use x="63.623047" xlink:href="#DejaVuSans-48"/>
       <use x="127.246094" xlink:href="#DejaVuSans-48"/>
      </g>
     </g>
    </g>
    <g id="text_7">
     <!-- median acc expression_pao1 -->
     <defs>
      <path d="M 52 44.1875
Q 55.375 50.25 60.0625 53.125
Q 64.75 56 71.09375 56
Q 79.640625 56 84.28125 50.015625
Q 88.921875 44.046875 88.921875 33.015625
L 88.921875 0
L 79.890625 0
L 79.890625 32.71875
Q 79.890625 40.578125 77.09375 44.375
Q 74.3125 48.1875 68.609375 48.1875
Q 61.625 48.1875 57.5625 43.546875
Q 53.515625 38.921875 53.515625 30.90625
L 53.515625 0
L 44.484375 0
L 44.484375 32.71875
Q 44.484375 40.625 41.703125 44.40625
Q 38.921875 48.1875 33.109375 48.1875
Q 26.21875 48.1875 22.15625 43.53125
Q 18.109375 38.875 18.109375 30.90625
L 18.109375 0
L 9.078125 0
L 9.078125 54.6875
L 18.109375 54.6875
L 18.109375 46.1875
Q 21.1875 51.21875 25.484375 53.609375
Q 29.78125 56 35.6875 56
Q 41.65625 56 45.828125 52.96875
Q 50 49.953125 52 44.1875
z
" id="DejaVuSans-109"/>
      <path d="M 56.203125 29.59375
L 56.203125 25.203125
L 14.890625 25.203125
Q 15.484375 15.921875 20.484375 11.0625
Q 25.484375 6.203125 34.421875 6.203125
Q 39.59375 6.203125 44.453125 7.46875
Q 49.3125 8.734375 54.109375 11.28125
L 54.109375 2.78125
Q 49.265625 0.734375 44.1875 -0.34375
Q 39.109375 -1.421875 33.890625 -1.421875
Q 20.796875 -1.421875 13.15625 6.1875
Q 5.515625 13.8125 5.515625 26.8125
Q 5.515625 40.234375 12.765625 48.109375
Q 20.015625 56 32.328125 56
Q 43.359375 56 49.78125 48.890625
Q 56.203125 41.796875 56.203125 29.59375
z
M 47.21875 32.234375
Q 47.125 39.59375 43.09375 43.984375
Q 39.0625 48.390625 32.421875 48.390625
Q 24.90625 48.390625 20.390625 44.140625
Q 15.875 39.890625 15.1875 32.171875
z
" id="DejaVuSans-101"/>
      <path d="M 45.40625 46.390625
L 45.40625 75.984375
L 54.390625 75.984375
L 54.390625 0
L 45.40625 0
L 45.40625 8.203125
Q 42.578125 3.328125 38.25 0.953125
Q 33.9375 -1.421875 27.875 -1.421875
Q 17.96875 -1.421875 11.734375 6.484375
Q 5.515625 14.40625 5.515625 27.296875
Q 5.515625 40.1875 11.734375 48.09375
Q 17.96875 56 27.875 56
Q 33.9375 56 38.25 53.625
Q 42.578125 51.265625 45.40625 46.390625
z
M 14.796875 27.296875
Q 14.796875 17.390625 18.875 11.75
Q 22.953125 6.109375 30.078125 6.109375
Q 37.203125 6.109375 41.296875 11.75
Q 45.40625 17.390625 45.40625 27.296875
Q 45.40625 37.203125 41.296875 42.84375
Q 37.203125 48.484375 30.078125 48.484375
Q 22.953125 48.484375 18.875 42.84375
Q 14.796875 37.203125 14.796875 27.296875
z
" id="DejaVuSans-100"/>
      <path d="M 9.421875 54.6875
L 18.40625 54.6875
L 18.40625 0
L 9.421875 0
z
M 9.421875 75.984375
L 18.40625 75.984375
L 18.40625 64.59375
L 9.421875 64.59375
z
" id="DejaVuSans-105"/>
      <path d="M 34.28125 27.484375
Q 23.390625 27.484375 19.1875 25
Q 14.984375 22.515625 14.984375 16.5
Q 14.984375 11.71875 18.140625 8.90625
Q 21.296875 6.109375 26.703125 6.109375
Q 34.1875 6.109375 38.703125 11.40625
Q 43.21875 16.703125 43.21875 25.484375
L 43.21875 27.484375
z
M 52.203125 31.203125
L 52.203125 0
L 43.21875 0
L 43.21875 8.296875
Q 40.140625 3.328125 35.546875 0.953125
Q 30.953125 -1.421875 24.3125 -1.421875
Q 15.921875 -1.421875 10.953125 3.296875
Q 6 8.015625 6 15.921875
Q 6 25.140625 12.171875 29.828125
Q 18.359375 34.515625 30.609375 34.515625
L 43.21875 34.515625
L 43.21875 35.40625
Q 43.21875 41.609375 39.140625 45
Q 35.0625 48.390625 27.6875 48.390625
Q 23 48.390625 18.546875 47.265625
Q 14.109375 46.140625 10.015625 43.890625
L 10.015625 52.203125
Q 14.9375 54.109375 19.578125 55.046875
Q 24.21875 56 28.609375 56
Q 40.484375 56 46.34375 49.84375
Q 52.203125 43.703125 52.203125 31.203125
z
" id="DejaVuSans-97"/>
      <path d="M 54.890625 33.015625
L 54.890625 0
L 45.90625 0
L 45.90625 32.71875
Q 45.90625 40.484375 42.875 44.328125
Q 39.84375 48.1875 33.796875 48.1875
Q 26.515625 48.1875 22.3125 43.546875
Q 18.109375 38.921875 18.109375 30.90625
L 18.109375 0
L 9.078125 0
L 9.078125 54.6875
L 18.109375 54.6875
L 18.109375 46.1875
Q 21.34375 51.125 25.703125 53.5625
Q 30.078125 56 35.796875 56
Q 45.21875 56 50.046875 50.171875
Q 54.890625 44.34375 54.890625 33.015625
z
" id="DejaVuSans-110"/>
      <path id="DejaVuSans-32"/>
      <path d="M 48.78125 52.59375
L 48.78125 44.1875
Q 44.96875 46.296875 41.140625 47.34375
Q 37.3125 48.390625 33.40625 48.390625
Q 24.65625 48.390625 19.8125 42.84375
Q 14.984375 37.3125 14.984375 27.296875
Q 14.984375 17.28125 19.8125 11.734375
Q 24.65625 6.203125 33.40625 6.203125
Q 37.3125 6.203125 41.140625 7.25
Q 44.96875 8.296875 48.78125 10.40625
L 48.78125 2.09375
Q 45.015625 0.34375 40.984375 -0.53125
Q 36.96875 -1.421875 32.421875 -1.421875
Q 20.0625 -1.421875 12.78125 6.34375
Q 5.515625 14.109375 5.515625 27.296875
Q 5.515625 40.671875 12.859375 48.328125
Q 20.21875 56 33.015625 56
Q 37.15625 56 41.109375 55.140625
Q 45.0625 54.296875 48.78125 52.59375
z
" id="DejaVuSans-99"/>
      <path d="M 54.890625 54.6875
L 35.109375 28.078125
L 55.90625 0
L 45.3125 0
L 29.390625 21.484375
L 13.484375 0
L 2.875 0
L 24.125 28.609375
L 4.6875 54.6875
L 15.28125 54.6875
L 29.78125 35.203125
L 44.28125 54.6875
z
" id="DejaVuSans-120"/>
      <path d="M 18.109375 8.203125
L 18.109375 -20.796875
L 9.078125 -20.796875
L 9.078125 54.6875
L 18.109375 54.6875
L 18.109375 46.390625
Q 20.953125 51.265625 25.265625 53.625
Q 29.59375 56 35.59375 56
Q 45.5625 56 51.78125 48.09375
Q 58.015625 40.1875 58.015625 27.296875
Q 58.015625 14.40625 51.78125 6.484375
Q 45.5625 -1.421875 35.59375 -1.421875
Q 29.59375 -1.421875 25.265625 0.953125
Q 20.953125 3.328125 18.109375 8.203125
z
M 48.6875 27.296875
Q 48.6875 37.203125 44.609375 42.84375
Q 40.53125 48.484375 33.40625 48.484375
Q 26.265625 48.484375 22.1875 42.84375
Q 18.109375 37.203125 18.109375 27.296875
Q 18.109375 17.390625 22.1875 11.75
Q 26.265625 6.109375 33.40625 6.109375
Q 40.53125 6.109375 44.609375 11.75
Q 48.6875 17.390625 48.6875 27.296875
z
" id="DejaVuSans-112"/>
      <path d="M 41.109375 46.296875
Q 39.59375 47.171875 37.8125 47.578125
Q 36.03125 48 33.890625 48
Q 26.265625 48 22.1875 43.046875
Q 18.109375 38.09375 18.109375 28.8125
L 18.109375 0
L 9.078125 0
L 9.078125 54.6875
L 18.109375 54.6875
L 18.109375 46.1875
Q 20.953125 51.171875 25.484375 53.578125
Q 30.03125 56 36.53125 56
Q 37.453125 56 38.578125 55.875
Q 39.703125 55.765625 41.0625 55.515625
z
" id="DejaVuSans-114"/>
      <path d="M 44.28125 53.078125
L 44.28125 44.578125
Q 40.484375 46.53125 36.375 47.5
Q 32.28125 48.484375 27.875 48.484375
Q 21.1875 48.484375 17.84375 46.4375
Q 14.5 44.390625 14.5 40.28125
Q 14.5 37.15625 16.890625 35.375
Q 19.28125 33.59375 26.515625 31.984375
L 29.59375 31.296875
Q 39.15625 29.25 43.1875 25.515625
Q 47.21875 21.78125 47.21875 15.09375
Q 47.21875 7.46875 41.1875 3.015625
Q 35.15625 -1.421875 24.609375 -1.421875
Q 20.21875 -1.421875 15.453125 -0.5625
Q 10.6875 0.296875 5.421875 2
L 5.421875 11.28125
Q 10.40625 8.6875 15.234375 7.390625
Q 20.0625 6.109375 24.8125 6.109375
Q 31.15625 6.109375 34.5625 8.28125
Q 37.984375 10.453125 37.984375 14.40625
Q 37.984375 18.0625 35.515625 20.015625
Q 33.0625 21.96875 24.703125 23.78125
L 21.578125 24.515625
Q 13.234375 26.265625 9.515625 29.90625
Q 5.8125 33.546875 5.8125 39.890625
Q 5.8125 47.609375 11.28125 51.796875
Q 16.75 56 26.8125 56
Q 31.78125 56 36.171875 55.265625
Q 40.578125 54.546875 44.28125 53.078125
z
" id="DejaVuSans-115"/>
      <path d="M 30.609375 48.390625
Q 23.390625 48.390625 19.1875 42.75
Q 14.984375 37.109375 14.984375 27.296875
Q 14.984375 17.484375 19.15625 11.84375
Q 23.34375 6.203125 30.609375 6.203125
Q 37.796875 6.203125 41.984375 11.859375
Q 46.1875 17.53125 46.1875 27.296875
Q 46.1875 37.015625 41.984375 42.703125
Q 37.796875 48.390625 30.609375 48.390625
z
M 30.609375 56
Q 42.328125 56 49.015625 48.375
Q 55.71875 40.765625 55.71875 27.296875
Q 55.71875 13.875 49.015625 6.21875
Q 42.328125 -1.421875 30.609375 -1.421875
Q 18.84375 -1.421875 12.171875 6.21875
Q 5.515625 13.875 5.515625 27.296875
Q 5.515625 40.765625 12.171875 48.375
Q 18.84375 56 30.609375 56
z
" id="DejaVuSans-111"/>
      <path d="M 50.984375 -16.609375
L 50.984375 -23.578125
L -0.984375 -23.578125
L -0.984375 -16.609375
z
" id="DejaVuSans-95"/>
     </defs>
     <g transform="translate(148.771094 280.276563)scale(0.1 -0.1)">
      <use xlink:href="#DejaVuSans-109"/>
      <use x="97.412109" xlink:href="#DejaVuSans-101"/>
      <use x="158.935547" xlink:href="#DejaVuSans-100"/>
      <use x="222.412109" xlink:href="#DejaVuSans-105"/>
      <use x="250.195312" xlink:href="#DejaVuSans-97"/>
      <use x="311.474609" xlink:href="#DejaVuSans-110"/>
      <use x="374.853516" xlink:href="#DejaVuSans-32"/>
      <use x="406.640625" xlink:href="#DejaVuSans-97"/>
      <use x="467.919922" xlink:href="#DejaVuSans-99"/>
      <use x="522.900391" xlink:href="#DejaVuSans-99"/>
      <use x="577.880859" xlink:href="#DejaVuSans-32"/>
      <use x="609.667969" xlink:href="#DejaVuSans-101"/>
      <use x="671.175781" xlink:href="#DejaVuSans-120"/>
      <use x="730.355469" xlink:href="#DejaVuSans-112"/>
      <use x="793.832031" xlink:href="#DejaVuSans-114"/>
      <use x="834.914062" xlink:href="#DejaVuSans-101"/>
      <use x="896.4375" xlink:href="#DejaVuSans-115"/>
      <use x="948.537109" xlink:href="#DejaVuSans-115"/>
      <use x="1000.636719" xlink:href="#DejaVuSans-105"/>
      <use x="1028.419922" xlink:href="#DejaVuSans-111"/>
      <use x="1089.601562" xlink:href="#DejaVuSans-110"/>
      <use x="1152.980469" xlink:href="#DejaVuSans-95"/>
      <use x="1202.980469" xlink:href="#DejaVuSans-112"/>
      <use x="1266.457031" xlink:href="#DejaVuSans-97"/>
      <use x="1327.736328" xlink:href="#DejaVuSans-111"/>
      <use x="1388.917969" xlink:href="#DejaVuSans-49"/>
     </g>
    </g>
   </g>
   <g id="matplotlib.axis_2">
    <g id="ytick_1">
     <g id="line2d_7">
      <defs>
       <path d="M 0 0
L -3.5 0
" id="m28de60131b" style="stroke:#000000;stroke-width:0.8;"/>
      </defs>
      <g>
       <use style="stroke:#000000;stroke-width:0.8;" x="54" xlink:href="#m28de60131b" y="252"/>
      </g>
     </g>
     <g id="text_8">
      <!-- 0 -->
      <g transform="translate(40.6375 255.799219)scale(0.1 -0.1)">
       <use xlink:href="#DejaVuSans-48"/>
      </g>
     </g>
    </g>
    <g id="ytick_2">
     <g id="line2d_8">
      <g>
       <use style="stroke:#000000;stroke-width:0.8;" x="54" xlink:href="#m28de60131b" y="226.306983"/>
      </g>
     </g>
     <g id="text_9">
      <!-- 50 -->
      <g transform="translate(34.275 230.106202)scale(0.1 -0.1)">
       <use xlink:href="#DejaVuSans-53"/>
       <use x="63.623047" xlink:href="#DejaVuSans-48"/>
      </g>
     </g>
    </g>
    <g id="ytick_3">
     <g id="line2d_9">
      <g>
       <use style="stroke:#000000;stroke-width:0.8;" x="54" xlink:href="#m28de60131b" y="200.613967"/>
      </g>
     </g>
     <g id="text_10">
      <!-- 100 -->
      <g transform="translate(27.9125 204.413185)scale(0.1 -0.1)">
       <use xlink:href="#DejaVuSans-49"/>
       <use x="63.623047" xlink:href="#DejaVuSans-48"/>
       <use x="127.246094" xlink:href="#DejaVuSans-48"/>
      </g>
     </g>
    </g>
    <g id="ytick_4">
     <g id="line2d_10">
      <g>
       <use style="stroke:#000000;stroke-width:0.8;" x="54" xlink:href="#m28de60131b" y="174.92095"/>
      </g>
     </g>
     <g id="text_11">
      <!-- 150 -->
      <g transform="translate(27.9125 178.720169)scale(0.1 -0.1)">
       <use xlink:href="#DejaVuSans-49"/>
       <use x="63.623047" xlink:href="#DejaVuSans-53"/>
       <use x="127.246094" xlink:href="#DejaVuSans-48"/>
      </g>
     </g>
    </g>
    <g id="ytick_5">
     <g id="line2d_11">
      <g>
       <use style="stroke:#000000;stroke-width:0.8;" x="54" xlink:href="#m28de60131b" y="149.227933"/>
      </g>
     </g>
     <g id="text_12">
      <!-- 200 -->
      <g transform="translate(27.9125 153.027152)scale(0.1 -0.1)">
       <use xlink:href="#DejaVuSans-50"/>
       <use x="63.623047" xlink:href="#DejaVuSans-48"/>
       <use x="127.246094" xlink:href="#DejaVuSans-48"/>
      </g>
     </g>
    </g>
    <g id="ytick_6">
     <g id="line2d_12">
      <g>
       <use style="stroke:#000000;stroke-width:0.8;" x="54" xlink:href="#m28de60131b" y="123.534917"/>
      </g>
     </g>
     <g id="text_13">
      <!-- 250 -->
      <g transform="translate(27.9125 127.334135)scale(0.1 -0.1)">
       <use xlink:href="#DejaVuSans-50"/>
       <use x="63.623047" xlink:href="#DejaVuSans-53"/>
       <use x="127.246094" xlink:href="#DejaVuSans-48"/>
      </g>
     </g>
    </g>
    <g id="ytick_7">
     <g id="line2d_13">
      <g>
       <use style="stroke:#000000;stroke-width:0.8;" x="54" xlink:href="#m28de60131b" y="97.8419"/>
      </g>
     </g>
     <g id="text_14">
      <!-- 300 -->
      <g transform="translate(27.9125 101.641119)scale(0.1 -0.1)">
       <use xlink:href="#DejaVuSans-51"/>
       <use x="63.623047" xlink:href="#DejaVuSans-48"/>
       <use x="127.246094" xlink:href="#DejaVuSans-48"/>
      </g>
     </g>
    </g>
    <g id="ytick_8">
     <g id="line2d_14">
      <g>
       <use style="stroke:#000000;stroke-width:0.8;" x="54" xlink:href="#m28de60131b" y="72.148883"/>
      </g>
     </g>
     <g id="text_15">
      <!-- 350 -->
      <g transform="translate(27.9125 75.948102)scale(0.1 -0.1)">
       <use xlink:href="#DejaVuSans-51"/>
       <use x="63.623047" xlink:href="#DejaVuSans-53"/>
       <use x="127.246094" xlink:href="#DejaVuSans-48"/>
      </g>
     </g>
    </g>
    <g id="ytick_9">
     <g id="line2d_15">
      <g>
       <use style="stroke:#000000;stroke-width:0.8;" x="54" xlink:href="#m28de60131b" y="46.455867"/>
      </g>
     </g>
     <g id="text_16">
      <!-- 400 -->
      <g transform="translate(27.9125 50.255085)scale(0.1 -0.1)">
       <use xlink:href="#DejaVuSans-52"/>
       <use x="63.623047" xlink:href="#DejaVuSans-48"/>
       <use x="127.246094" xlink:href="#DejaVuSans-48"/>
      </g>
     </g>
    </g>
   </g>
   <g id="line2d_16">
    <path clip-path="url(#p9d54f848b9)" d="M 82.842757 252
L 82.842757 -1
" style="fill:none;stroke:#ff0000;stroke-linecap:square;stroke-width:1.5;"/>
   </g>
   <g id="patch_99">
    <path d="M 54 252
L 54 34.56
" style="fill:none;stroke:#000000;stroke-linecap:square;stroke-linejoin:miter;stroke-width:0.8;"/>
   </g>
   <g id="patch_100">
    <path d="M 388.8 252
L 388.8 34.56
" style="fill:none;stroke:#000000;stroke-linecap:square;stroke-linejoin:miter;stroke-width:0.8;"/>
   </g>
   <g id="patch_101">
    <path d="M 54 252
L 388.8 252
" style="fill:none;stroke:#000000;stroke-linecap:square;stroke-linejoin:miter;stroke-width:0.8;"/>
   </g>
   <g id="patch_102">
    <path d="M 54 34.56
L 388.8 34.56
" style="fill:none;stroke:#000000;stroke-linecap:square;stroke-linejoin:miter;stroke-width:0.8;"/>
   </g>
  </g>
 </g>
 <defs>
  <clipPath id="p9d54f848b9">
   <rect height="217.44" width="334.8" x="54" y="34.56"/>
  </clipPath>
 </defs>
</svg>
