<?xml version="1.0" encoding="utf-8" standalone="no"?>
<!DOCTYPE svg PUBLIC "-//W3C//DTD SVG 1.1//EN"
  "http://www.w3.org/Graphics/SVG/1.1/DTD/svg11.dtd">
<!-- Created with matplotlib (https://matplotlib.org/) -->
<svg height="279.245625pt" version="1.1" viewBox="0 0 409.280625 279.245625" width="409.280625pt" xmlns="http://www.w3.org/2000/svg" xmlns:xlink="http://www.w3.org/1999/xlink">
 <defs>
  <style type="text/css">
*{stroke-linecap:butt;stroke-linejoin:round;}
  </style>
 </defs>
 <g id="figure_1">
  <g id="patch_1">
   <path d="M 0 279.245625
L 409.280625 279.245625
L 409.280625 0
L 0 0
z
" style="fill:#ffffff;"/>
  </g>
  <g id="axes_1">
   <g id="patch_2">
    <path d="M 63.780625 228.14
L 398.580625 228.14
L 398.580625 10.7
L 63.780625 10.7
z
" style="fill:#ffffff;"/>
   </g>
   <g id="patch_3">
    <path clip-path="url(#p90551972b5)" d="M 78.998807 62950.328486
L 81.150632 62950.328486
L 81.150632 20.583636
L 78.998807 20.583636
z
" style="fill:#795c34;opacity:0.6;"/>
   </g>
   <g id="patch_4">
    <path clip-path="url(#p90551972b5)" d="M 81.150632 62950.328486
L 83.302458 62950.328486
L 83.302458 83.431395
L 81.150632 83.431395
z
" style="fill:#795c34;opacity:0.6;"/>
   </g>
   <g id="patch_5">
    <path clip-path="url(#p90551972b5)" d="M 83.302458 62950.328486
L 85.454284 62950.328486
L 85.454284 97.868618
L 83.302458 97.868618
z
" style="fill:#795c34;opacity:0.6;"/>
   </g>
   <g id="patch_6">
    <path clip-path="url(#p90551972b5)" d="M 85.454284 62950.328486
L 87.606109 62950.328486
L 87.606109 105.815919
L 85.454284 105.815919
z
" style="fill:#795c34;opacity:0.6;"/>
   </g>
   <g id="patch_7">
    <path clip-path="url(#p90551972b5)" d="M 87.606109 62950.328486
L 89.757935 62950.328486
L 89.757935 123.835187
L 87.606109 123.835187
z
" style="fill:#795c34;opacity:0.6;"/>
   </g>
   <g id="patch_8">
    <path clip-path="url(#p90551972b5)" d="M 89.757935 62950.328486
L 91.909761 62950.328486
L 91.909761 127.473142
L 89.757935 127.473142
z
" style="fill:#795c34;opacity:0.6;"/>
   </g>
   <g id="patch_9">
    <path clip-path="url(#p90551972b5)" d="M 91.909761 62950.328486
L 94.061586 62950.328486
L 94.061586 142.719422
L 91.909761 142.719422
z
" style="fill:#795c34;opacity:0.6;"/>
   </g>
   <g id="patch_10">
    <path clip-path="url(#p90551972b5)" d="M 94.061586 62950.328486
L 96.213412 62950.328486
L 96.213412 152.927643
L 94.061586 152.927643
z
" style="fill:#795c34;opacity:0.6;"/>
   </g>
   <g id="patch_11">
    <path clip-path="url(#p90551972b5)" d="M 96.213412 62950.328486
L 98.365238 62950.328486
L 98.365238 169.441323
L 96.213412 169.441323
z
" style="fill:#795c34;opacity:0.6;"/>
   </g>
   <g id="patch_12">
    <path clip-path="url(#p90551972b5)" d="M 98.365238 62950.328486
L 100.517063 62950.328486
L 100.517063 161.603657
L 98.365238 161.603657
z
" style="fill:#795c34;opacity:0.6;"/>
   </g>
   <g id="patch_13">
    <path clip-path="url(#p90551972b5)" d="M 100.517063 62950.328486
L 102.668889 62950.328486
L 102.668889 158.394754
L 100.517063 158.394754
z
" style="fill:#795c34;opacity:0.6;"/>
   </g>
   <g id="patch_14">
    <path clip-path="url(#p90551972b5)" d="M 102.668889 62950.328486
L 104.820715 62950.328486
L 104.820715 169.441323
L 102.668889 169.441323
z
" style="fill:#795c34;opacity:0.6;"/>
   </g>
   <g id="patch_15">
    <path clip-path="url(#p90551972b5)" d="M 104.820715 62950.328486
L 106.97254 62950.328486
L 106.97254 62950.328486
L 104.820715 62950.328486
z
" style="fill:#795c34;opacity:0.6;"/>
   </g>
   <g id="patch_16">
    <path clip-path="url(#p90551972b5)" d="M 106.97254 62950.328486
L 109.124366 62950.328486
L 109.124366 161.603657
L 106.97254 161.603657
z
" style="fill:#795c34;opacity:0.6;"/>
   </g>
   <g id="patch_17">
    <path clip-path="url(#p90551972b5)" d="M 109.124366 62950.328486
L 111.276192 62950.328486
L 111.276192 199.372128
L 109.124366 199.372128
z
" style="fill:#795c34;opacity:0.6;"/>
   </g>
   <g id="patch_18">
    <path clip-path="url(#p90551972b5)" d="M 111.276192 62950.328486
L 113.428017 62950.328486
L 113.428017 174.408527
L 111.276192 174.408527
z
" style="fill:#795c34;opacity:0.6;"/>
   </g>
   <g id="patch_19">
    <path clip-path="url(#p90551972b5)" d="M 113.428017 62950.328486
L 115.579843 62950.328486
L 115.579843 174.408527
L 113.428017 174.408527
z
" style="fill:#795c34;opacity:0.6;"/>
   </g>
   <g id="patch_20">
    <path clip-path="url(#p90551972b5)" d="M 115.579843 62950.328486
L 117.731669 62950.328486
L 117.731669 199.372128
L 115.579843 199.372128
z
" style="fill:#795c34;opacity:0.6;"/>
   </g>
   <g id="patch_21">
    <path clip-path="url(#p90551972b5)" d="M 117.731669 62950.328486
L 119.883494 62950.328486
L 119.883494 199.372128
L 117.731669 199.372128
z
" style="fill:#795c34;opacity:0.6;"/>
   </g>
   <g id="patch_22">
    <path clip-path="url(#p90551972b5)" d="M 119.883494 62950.328486
L 122.03532 62950.328486
L 122.03532 199.372128
L 119.883494 199.372128
z
" style="fill:#795c34;opacity:0.6;"/>
   </g>
   <g id="patch_23">
    <path clip-path="url(#p90551972b5)" d="M 122.03532 62950.328486
L 124.187146 62950.328486
L 124.187146 174.408527
L 122.03532 174.408527
z
" style="fill:#795c34;opacity:0.6;"/>
   </g>
   <g id="patch_24">
    <path clip-path="url(#p90551972b5)" d="M 124.187146 62950.328486
L 126.338971 62950.328486
L 126.338971 161.603657
L 124.187146 161.603657
z
" style="fill:#795c34;opacity:0.6;"/>
   </g>
   <g id="patch_25">
    <path clip-path="url(#p90551972b5)" d="M 126.338971 62950.328486
L 128.490797 62950.328486
L 128.490797 188.325559
L 126.338971 188.325559
z
" style="fill:#795c34;opacity:0.6;"/>
   </g>
   <g id="patch_26">
    <path clip-path="url(#p90551972b5)" d="M 128.490797 62950.328486
L 130.642623 62950.328486
L 130.642623 199.372128
L 128.490797 199.372128
z
" style="fill:#795c34;opacity:0.6;"/>
   </g>
   <g id="patch_27">
    <path clip-path="url(#p90551972b5)" d="M 130.642623 62950.328486
L 132.794448 62950.328486
L 132.794448 188.325559
L 130.642623 188.325559
z
" style="fill:#795c34;opacity:0.6;"/>
   </g>
   <g id="patch_28">
    <path clip-path="url(#p90551972b5)" d="M 132.794448 62950.328486
L 134.946274 62950.328486
L 134.946274 218.256364
L 132.794448 218.256364
z
" style="fill:#795c34;opacity:0.6;"/>
   </g>
   <g id="patch_29">
    <path clip-path="url(#p90551972b5)" d="M 134.946274 62950.328486
L 137.0981 62950.328486
L 137.0981 218.256364
L 134.946274 218.256364
z
" style="fill:#795c34;opacity:0.6;"/>
   </g>
   <g id="patch_30">
    <path clip-path="url(#p90551972b5)" d="M 137.0981 62950.328486
L 139.249925 62950.328486
L 139.249925 218.256364
L 137.0981 218.256364
z
" style="fill:#795c34;opacity:0.6;"/>
   </g>
   <g id="patch_31">
    <path clip-path="url(#p90551972b5)" d="M 139.249925 62950.328486
L 141.401751 62950.328486
L 141.401751 218.256364
L 139.249925 218.256364
z
" style="fill:#795c34;opacity:0.6;"/>
   </g>
   <g id="patch_32">
    <path clip-path="url(#p90551972b5)" d="M 141.401751 62950.328486
L 143.553577 62950.328486
L 143.553577 199.372128
L 141.401751 199.372128
z
" style="fill:#795c34;opacity:0.6;"/>
   </g>
   <g id="patch_33">
    <path clip-path="url(#p90551972b5)" d="M 143.553577 62950.328486
L 145.705402 62950.328486
L 145.705402 199.372128
L 143.553577 199.372128
z
" style="fill:#795c34;opacity:0.6;"/>
   </g>
   <g id="patch_34">
    <path clip-path="url(#p90551972b5)" d="M 145.705402 62950.328486
L 147.857228 62950.328486
L 147.857228 62950.328486
L 145.705402 62950.328486
z
" style="fill:#795c34;opacity:0.6;"/>
   </g>
   <g id="patch_35">
    <path clip-path="url(#p90551972b5)" d="M 147.857228 62950.328486
L 150.009053 62950.328486
L 150.009053 62950.328486
L 147.857228 62950.328486
z
" style="fill:#795c34;opacity:0.6;"/>
   </g>
   <g id="patch_36">
    <path clip-path="url(#p90551972b5)" d="M 150.009053 62950.328486
L 152.160879 62950.328486
L 152.160879 218.256364
L 150.009053 218.256364
z
" style="fill:#795c34;opacity:0.6;"/>
   </g>
   <g id="patch_37">
    <path clip-path="url(#p90551972b5)" d="M 152.160879 62950.328486
L 154.312705 62950.328486
L 154.312705 62950.328486
L 152.160879 62950.328486
z
" style="fill:#795c34;opacity:0.6;"/>
   </g>
   <g id="patch_38">
    <path clip-path="url(#p90551972b5)" d="M 154.312705 62950.328486
L 156.46453 62950.328486
L 156.46453 62950.328486
L 154.312705 62950.328486
z
" style="fill:#795c34;opacity:0.6;"/>
   </g>
   <g id="patch_39">
    <path clip-path="url(#p90551972b5)" d="M 156.46453 62950.328486
L 158.616356 62950.328486
L 158.616356 218.256364
L 156.46453 218.256364
z
" style="fill:#795c34;opacity:0.6;"/>
   </g>
   <g id="patch_40">
    <path clip-path="url(#p90551972b5)" d="M 158.616356 62950.328486
L 160.768182 62950.328486
L 160.768182 218.256364
L 158.616356 218.256364
z
" style="fill:#795c34;opacity:0.6;"/>
   </g>
   <g id="patch_41">
    <path clip-path="url(#p90551972b5)" d="M 160.768182 62950.328486
L 162.920007 62950.328486
L 162.920007 218.256364
L 160.768182 218.256364
z
" style="fill:#795c34;opacity:0.6;"/>
   </g>
   <g id="patch_42">
    <path clip-path="url(#p90551972b5)" d="M 162.920007 62950.328486
L 165.071833 62950.328486
L 165.071833 199.372128
L 162.920007 199.372128
z
" style="fill:#795c34;opacity:0.6;"/>
   </g>
   <g id="patch_43">
    <path clip-path="url(#p90551972b5)" d="M 165.071833 62950.328486
L 167.223659 62950.328486
L 167.223659 188.325559
L 165.071833 188.325559
z
" style="fill:#795c34;opacity:0.6;"/>
   </g>
   <g id="patch_44">
    <path clip-path="url(#p90551972b5)" d="M 167.223659 62950.328486
L 169.375484 62950.328486
L 169.375484 188.325559
L 167.223659 188.325559
z
" style="fill:#795c34;opacity:0.6;"/>
   </g>
   <g id="patch_45">
    <path clip-path="url(#p90551972b5)" d="M 169.375484 62950.328486
L 171.52731 62950.328486
L 171.52731 199.372128
L 169.375484 199.372128
z
" style="fill:#795c34;opacity:0.6;"/>
   </g>
   <g id="patch_46">
    <path clip-path="url(#p90551972b5)" d="M 171.52731 62950.328486
L 173.679136 62950.328486
L 173.679136 199.372128
L 171.52731 199.372128
z
" style="fill:#795c34;opacity:0.6;"/>
   </g>
   <g id="patch_47">
    <path clip-path="url(#p90551972b5)" d="M 173.679136 62950.328486
L 175.830961 62950.328486
L 175.830961 62950.328486
L 173.679136 62950.328486
z
" style="fill:#795c34;opacity:0.6;"/>
   </g>
   <g id="patch_48">
    <path clip-path="url(#p90551972b5)" d="M 175.830961 62950.328486
L 177.982787 62950.328486
L 177.982787 62950.328486
L 175.830961 62950.328486
z
" style="fill:#795c34;opacity:0.6;"/>
   </g>
   <g id="patch_49">
    <path clip-path="url(#p90551972b5)" d="M 177.982787 62950.328486
L 180.134613 62950.328486
L 180.134613 218.256364
L 177.982787 218.256364
z
" style="fill:#795c34;opacity:0.6;"/>
   </g>
   <g id="patch_50">
    <path clip-path="url(#p90551972b5)" d="M 180.134613 62950.328486
L 182.286438 62950.328486
L 182.286438 218.256364
L 180.134613 218.256364
z
" style="fill:#795c34;opacity:0.6;"/>
   </g>
   <g id="patch_51">
    <path clip-path="url(#p90551972b5)" d="M 182.286438 62950.328486
L 184.438264 62950.328486
L 184.438264 62950.328486
L 182.286438 62950.328486
z
" style="fill:#795c34;opacity:0.6;"/>
   </g>
   <g id="patch_52">
    <path clip-path="url(#p90551972b5)" d="M 184.438264 62950.328486
L 186.59009 62950.328486
L 186.59009 218.256364
L 184.438264 218.256364
z
" style="fill:#795c34;opacity:0.6;"/>
   </g>
   <g id="patch_53">
    <path clip-path="url(#p90551972b5)" d="M 78.998807 62950.328486
L 89.144261 62950.328486
L 89.144261 165.241612
L 78.998807 165.241612
z
" style="fill:#895881;opacity:0.7;"/>
   </g>
   <g id="patch_54">
    <path clip-path="url(#p90551972b5)" d="M 89.144261 62950.328486
L 99.289716 62950.328486
L 99.289716 62950.328486
L 89.144261 62950.328486
z
" style="fill:#895881;opacity:0.7;"/>
   </g>
   <g id="patch_55">
    <path clip-path="url(#p90551972b5)" d="M 99.289716 62950.328486
L 109.43517 62950.328486
L 109.43517 169.441323
L 99.289716 169.441323
z
" style="fill:#895881;opacity:0.7;"/>
   </g>
   <g id="patch_56">
    <path clip-path="url(#p90551972b5)" d="M 109.43517 62950.328486
L 119.580625 62950.328486
L 119.580625 130.56069
L 109.43517 130.56069
z
" style="fill:#895881;opacity:0.7;"/>
   </g>
   <g id="patch_57">
    <path clip-path="url(#p90551972b5)" d="M 119.580625 62950.328486
L 129.72608 62950.328486
L 129.72608 98.871585
L 119.580625 98.871585
z
" style="fill:#895881;opacity:0.7;"/>
   </g>
   <g id="patch_58">
    <path clip-path="url(#p90551972b5)" d="M 129.72608 62950.328486
L 139.871534 62950.328486
L 139.871534 101.36626
L 129.72608 101.36626
z
" style="fill:#895881;opacity:0.7;"/>
   </g>
   <g id="patch_59">
    <path clip-path="url(#p90551972b5)" d="M 139.871534 62950.328486
L 150.016989 62950.328486
L 150.016989 109.579713
L 139.871534 109.579713
z
" style="fill:#895881;opacity:0.7;"/>
   </g>
   <g id="patch_60">
    <path clip-path="url(#p90551972b5)" d="M 150.016989 62950.328486
L 160.162443 62950.328486
L 160.162443 107.632872
L 150.016989 107.632872
z
" style="fill:#895881;opacity:0.7;"/>
   </g>
   <g id="patch_61">
    <path clip-path="url(#p90551972b5)" d="M 160.162443 62950.328486
L 170.307898 62950.328486
L 170.307898 124.700154
L 160.162443 124.700154
z
" style="fill:#895881;opacity:0.7;"/>
   </g>
   <g id="patch_62">
    <path clip-path="url(#p90551972b5)" d="M 170.307898 62950.328486
L 180.453352 62950.328486
L 180.453352 130.56069
L 170.307898 130.56069
z
" style="fill:#895881;opacity:0.7;"/>
   </g>
   <g id="patch_63">
    <path clip-path="url(#p90551972b5)" d="M 180.453352 62950.328486
L 190.598807 62950.328486
L 190.598807 138.037501
L 180.453352 138.037501
z
" style="fill:#895881;opacity:0.7;"/>
   </g>
   <g id="patch_64">
    <path clip-path="url(#p90551972b5)" d="M 190.598807 62950.328486
L 200.744261 62950.328486
L 200.744261 146.357377
L 190.598807 146.357377
z
" style="fill:#895881;opacity:0.7;"/>
   </g>
   <g id="patch_65">
    <path clip-path="url(#p90551972b5)" d="M 200.744261 62950.328486
L 210.889716 62950.328486
L 210.889716 150.557088
L 200.744261 150.557088
z
" style="fill:#895881;opacity:0.7;"/>
   </g>
   <g id="patch_66">
    <path clip-path="url(#p90551972b5)" d="M 210.889716 62950.328486
L 221.03517 62950.328486
L 221.03517 155.524292
L 210.889716 155.524292
z
" style="fill:#895881;opacity:0.7;"/>
   </g>
   <g id="patch_67">
    <path clip-path="url(#p90551972b5)" d="M 221.03517 62950.328486
L 231.180625 62950.328486
L 231.180625 218.256364
L 221.03517 218.256364
z
" style="fill:#895881;opacity:0.7;"/>
   </g>
   <g id="patch_68">
    <path clip-path="url(#p90551972b5)" d="M 231.180625 62950.328486
L 241.32608 62950.328486
L 241.32608 169.441323
L 231.180625 169.441323
z
" style="fill:#895881;opacity:0.7;"/>
   </g>
   <g id="patch_69">
    <path clip-path="url(#p90551972b5)" d="M 241.32608 62950.328486
L 251.471534 62950.328486
L 251.471534 199.372128
L 241.32608 199.372128
z
" style="fill:#895881;opacity:0.7;"/>
   </g>
   <g id="patch_70">
    <path clip-path="url(#p90551972b5)" d="M 251.471534 62950.328486
L 261.616989 62950.328486
L 261.616989 174.408527
L 251.471534 174.408527
z
" style="fill:#895881;opacity:0.7;"/>
   </g>
   <g id="patch_71">
    <path clip-path="url(#p90551972b5)" d="M 261.616989 62950.328486
L 271.762443 62950.328486
L 271.762443 218.256364
L 261.616989 218.256364
z
" style="fill:#895881;opacity:0.7;"/>
   </g>
   <g id="patch_72">
    <path clip-path="url(#p90551972b5)" d="M 271.762443 62950.328486
L 281.907898 62950.328486
L 281.907898 218.256364
L 271.762443 218.256364
z
" style="fill:#895881;opacity:0.7;"/>
   </g>
   <g id="patch_73">
    <path clip-path="url(#p90551972b5)" d="M 281.907898 62950.328486
L 292.053352 62950.328486
L 292.053352 199.372128
L 281.907898 199.372128
z
" style="fill:#895881;opacity:0.7;"/>
   </g>
   <g id="patch_74">
    <path clip-path="url(#p90551972b5)" d="M 292.053352 62950.328486
L 302.198807 62950.328486
L 302.198807 218.256364
L 292.053352 218.256364
z
" style="fill:#895881;opacity:0.7;"/>
   </g>
   <g id="patch_75">
    <path clip-path="url(#p90551972b5)" d="M 302.198807 62950.328486
L 312.344261 62950.328486
L 312.344261 218.256364
L 302.198807 218.256364
z
" style="fill:#895881;opacity:0.7;"/>
   </g>
   <g id="patch_76">
    <path clip-path="url(#p90551972b5)" d="M 312.344261 62950.328486
L 322.489716 62950.328486
L 322.489716 218.256364
L 312.344261 218.256364
z
" style="fill:#895881;opacity:0.7;"/>
   </g>
   <g id="patch_77">
    <path clip-path="url(#p90551972b5)" d="M 322.489716 62950.328486
L 332.63517 62950.328486
L 332.63517 218.256364
L 322.489716 218.256364
z
" style="fill:#895881;opacity:0.7;"/>
   </g>
   <g id="patch_78">
    <path clip-path="url(#p90551972b5)" d="M 332.63517 62950.328486
L 342.780625 62950.328486
L 342.780625 62950.328486
L 332.63517 62950.328486
z
" style="fill:#895881;opacity:0.7;"/>
   </g>
   <g id="patch_79">
    <path clip-path="url(#p90551972b5)" d="M 342.780625 62950.328486
L 352.92608 62950.328486
L 352.92608 62950.328486
L 342.780625 62950.328486
z
" style="fill:#895881;opacity:0.7;"/>
   </g>
   <g id="patch_80">
    <path clip-path="url(#p90551972b5)" d="M 352.92608 62950.328486
L 363.071534 62950.328486
L 363.071534 188.325559
L 352.92608 188.325559
z
" style="fill:#895881;opacity:0.7;"/>
   </g>
   <g id="patch_81">
    <path clip-path="url(#p90551972b5)" d="M 363.071534 62950.328486
L 373.216989 62950.328486
L 373.216989 218.256364
L 363.071534 218.256364
z
" style="fill:#895881;opacity:0.7;"/>
   </g>
   <g id="patch_82">
    <path clip-path="url(#p90551972b5)" d="M 373.216989 62950.328486
L 383.362443 62950.328486
L 383.362443 218.256364
L 373.216989 218.256364
z
" style="fill:#895881;opacity:0.7;"/>
   </g>
   <g id="matplotlib.axis_1">
    <g id="xtick_1">
     <g id="line2d_1">
      <defs>
       <path d="M 0 0
L 0 3.5
" id="mef17568275" style="stroke:#000000;stroke-width:0.8;"/>
      </defs>
      <g>
       <use style="stroke:#000000;stroke-width:0.8;" x="78.998807" xlink:href="#mef17568275" y="228.14"/>
      </g>
     </g>
     <g id="text_1">
      <!-- 0 -->
      <defs>
       <path d="M 31.78125 66.40625
Q 24.171875 66.40625 20.328125 58.90625
Q 16.5 51.421875 16.5 36.375
Q 16.5 21.390625 20.328125 13.890625
Q 24.171875 6.390625 31.78125 6.390625
Q 39.453125 6.390625 43.28125 13.890625
Q 47.125 21.390625 47.125 36.375
Q 47.125 51.421875 43.28125 58.90625
Q 39.453125 66.40625 31.78125 66.40625
z
M 31.78125 74.21875
Q 44.046875 74.21875 50.515625 64.515625
Q 56.984375 54.828125 56.984375 36.375
Q 56.984375 17.96875 50.515625 8.265625
Q 44.046875 -1.421875 31.78125 -1.421875
Q 19.53125 -1.421875 13.0625 8.265625
Q 6.59375 17.96875 6.59375 36.375
Q 6.59375 54.828125 13.0625 64.515625
Q 19.53125 74.21875 31.78125 74.21875
z
" id="DejaVuSans-48"/>
      </defs>
      <g transform="translate(73.908807 247.2975)scale(0.16 -0.16)">
       <use xlink:href="#DejaVuSans-48"/>
      </g>
     </g>
    </g>
    <g id="xtick_2">
     <g id="line2d_2">
      <g>
       <use style="stroke:#000000;stroke-width:0.8;" x="177.41358" xlink:href="#mef17568275" y="228.14"/>
      </g>
     </g>
     <g id="text_2">
      <!-- 100 -->
      <defs>
       <path d="M 12.40625 8.296875
L 28.515625 8.296875
L 28.515625 63.921875
L 10.984375 60.40625
L 10.984375 69.390625
L 28.421875 72.90625
L 38.28125 72.90625
L 38.28125 8.296875
L 54.390625 8.296875
L 54.390625 0
L 12.40625 0
z
" id="DejaVuSans-49"/>
      </defs>
      <g transform="translate(162.14358 247.2975)scale(0.16 -0.16)">
       <use xlink:href="#DejaVuSans-49"/>
       <use x="63.623047" xlink:href="#DejaVuSans-48"/>
       <use x="127.246094" xlink:href="#DejaVuSans-48"/>
      </g>
     </g>
    </g>
    <g id="xtick_3">
     <g id="line2d_3">
      <g>
       <use style="stroke:#000000;stroke-width:0.8;" x="275.828353" xlink:href="#mef17568275" y="228.14"/>
      </g>
     </g>
     <g id="text_3">
      <!-- 200 -->
      <defs>
       <path d="M 19.1875 8.296875
L 53.609375 8.296875
L 53.609375 0
L 7.328125 0
L 7.328125 8.296875
Q 12.9375 14.109375 22.625 23.890625
Q 32.328125 33.6875 34.8125 36.53125
Q 39.546875 41.84375 41.421875 45.53125
Q 43.3125 49.21875 43.3125 52.78125
Q 43.3125 58.59375 39.234375 62.25
Q 35.15625 65.921875 28.609375 65.921875
Q 23.96875 65.921875 18.8125 64.3125
Q 13.671875 62.703125 7.8125 59.421875
L 7.8125 69.390625
Q 13.765625 71.78125 18.9375 73
Q 24.125 74.21875 28.421875 74.21875
Q 39.75 74.21875 46.484375 68.546875
Q 53.21875 62.890625 53.21875 53.421875
Q 53.21875 48.921875 51.53125 44.890625
Q 49.859375 40.875 45.40625 35.40625
Q 44.1875 33.984375 37.640625 27.21875
Q 31.109375 20.453125 19.1875 8.296875
z
" id="DejaVuSans-50"/>
      </defs>
      <g transform="translate(260.558353 247.2975)scale(0.16 -0.16)">
       <use xlink:href="#DejaVuSans-50"/>
       <use x="63.623047" xlink:href="#DejaVuSans-48"/>
       <use x="127.246094" xlink:href="#DejaVuSans-48"/>
      </g>
     </g>
    </g>
    <g id="xtick_4">
     <g id="line2d_4">
      <g>
       <use style="stroke:#000000;stroke-width:0.8;" x="374.243127" xlink:href="#mef17568275" y="228.14"/>
      </g>
     </g>
     <g id="text_4">
      <!-- 300 -->
      <defs>
       <path d="M 40.578125 39.3125
Q 47.65625 37.796875 51.625 33
Q 55.609375 28.21875 55.609375 21.1875
Q 55.609375 10.40625 48.1875 4.484375
Q 40.765625 -1.421875 27.09375 -1.421875
Q 22.515625 -1.421875 17.65625 -0.515625
Q 12.796875 0.390625 7.625 2.203125
L 7.625 11.71875
Q 11.71875 9.328125 16.59375 8.109375
Q 21.484375 6.890625 26.8125 6.890625
Q 36.078125 6.890625 40.9375 10.546875
Q 45.796875 14.203125 45.796875 21.1875
Q 45.796875 27.640625 41.28125 31.265625
Q 36.765625 34.90625 28.71875 34.90625
L 20.21875 34.90625
L 20.21875 43.015625
L 29.109375 43.015625
Q 36.375 43.015625 40.234375 45.921875
Q 44.09375 48.828125 44.09375 54.296875
Q 44.09375 59.90625 40.109375 62.90625
Q 36.140625 65.921875 28.71875 65.921875
Q 24.65625 65.921875 20.015625 65.03125
Q 15.375 64.15625 9.8125 62.3125
L 9.8125 71.09375
Q 15.4375 72.65625 20.34375 73.4375
Q 25.25 74.21875 29.59375 74.21875
Q 40.828125 74.21875 47.359375 69.109375
Q 53.90625 64.015625 53.90625 55.328125
Q 53.90625 49.265625 50.4375 45.09375
Q 46.96875 40.921875 40.578125 39.3125
z
" id="DejaVuSans-51"/>
      </defs>
      <g transform="translate(358.973127 247.2975)scale(0.16 -0.16)">
       <use xlink:href="#DejaVuSans-51"/>
       <use x="63.623047" xlink:href="#DejaVuSans-48"/>
       <use x="127.246094" xlink:href="#DejaVuSans-48"/>
      </g>
     </g>
    </g>
    <g id="text_5">
     <!-- PA14 expression -->
     <defs>
      <path d="M 19.671875 64.796875
L 19.671875 37.40625
L 32.078125 37.40625
Q 38.96875 37.40625 42.71875 40.96875
Q 46.484375 44.53125 46.484375 51.125
Q 46.484375 57.671875 42.71875 61.234375
Q 38.96875 64.796875 32.078125 64.796875
z
M 9.8125 72.90625
L 32.078125 72.90625
Q 44.34375 72.90625 50.609375 67.359375
Q 56.890625 61.8125 56.890625 51.125
Q 56.890625 40.328125 50.609375 34.8125
Q 44.34375 29.296875 32.078125 29.296875
L 19.671875 29.296875
L 19.671875 0
L 9.8125 0
z
" id="DejaVuSans-80"/>
      <path d="M 34.1875 63.1875
L 20.796875 26.90625
L 47.609375 26.90625
z
M 28.609375 72.90625
L 39.796875 72.90625
L 67.578125 0
L 57.328125 0
L 50.6875 18.703125
L 17.828125 18.703125
L 11.1875 0
L 0.78125 0
z
" id="DejaVuSans-65"/>
      <path d="M 37.796875 64.3125
L 12.890625 25.390625
L 37.796875 25.390625
z
M 35.203125 72.90625
L 47.609375 72.90625
L 47.609375 25.390625
L 58.015625 25.390625
L 58.015625 17.1875
L 47.609375 17.1875
L 47.609375 0
L 37.796875 0
L 37.796875 17.1875
L 4.890625 17.1875
L 4.890625 26.703125
z
" id="DejaVuSans-52"/>
      <path id="DejaVuSans-32"/>
      <path d="M 56.203125 29.59375
L 56.203125 25.203125
L 14.890625 25.203125
Q 15.484375 15.921875 20.484375 11.0625
Q 25.484375 6.203125 34.421875 6.203125
Q 39.59375 6.203125 44.453125 7.46875
Q 49.3125 8.734375 54.109375 11.28125
L 54.109375 2.78125
Q 49.265625 0.734375 44.1875 -0.34375
Q 39.109375 -1.421875 33.890625 -1.421875
Q 20.796875 -1.421875 13.15625 6.1875
Q 5.515625 13.8125 5.515625 26.8125
Q 5.515625 40.234375 12.765625 48.109375
Q 20.015625 56 32.328125 56
Q 43.359375 56 49.78125 48.890625
Q 56.203125 41.796875 56.203125 29.59375
z
M 47.21875 32.234375
Q 47.125 39.59375 43.09375 43.984375
Q 39.0625 48.390625 32.421875 48.390625
Q 24.90625 48.390625 20.390625 44.140625
Q 15.875 39.890625 15.1875 32.171875
z
" id="DejaVuSans-101"/>
      <path d="M 54.890625 54.6875
L 35.109375 28.078125
L 55.90625 0
L 45.3125 0
L 29.390625 21.484375
L 13.484375 0
L 2.875 0
L 24.125 28.609375
L 4.6875 54.6875
L 15.28125 54.6875
L 29.78125 35.203125
L 44.28125 54.6875
z
" id="DejaVuSans-120"/>
      <path d="M 18.109375 8.203125
L 18.109375 -20.796875
L 9.078125 -20.796875
L 9.078125 54.6875
L 18.109375 54.6875
L 18.109375 46.390625
Q 20.953125 51.265625 25.265625 53.625
Q 29.59375 56 35.59375 56
Q 45.5625 56 51.78125 48.09375
Q 58.015625 40.1875 58.015625 27.296875
Q 58.015625 14.40625 51.78125 6.484375
Q 45.5625 -1.421875 35.59375 -1.421875
Q 29.59375 -1.421875 25.265625 0.953125
Q 20.953125 3.328125 18.109375 8.203125
z
M 48.6875 27.296875
Q 48.6875 37.203125 44.609375 42.84375
Q 40.53125 48.484375 33.40625 48.484375
Q 26.265625 48.484375 22.1875 42.84375
Q 18.109375 37.203125 18.109375 27.296875
Q 18.109375 17.390625 22.1875 11.75
Q 26.265625 6.109375 33.40625 6.109375
Q 40.53125 6.109375 44.609375 11.75
Q 48.6875 17.390625 48.6875 27.296875
z
" id="DejaVuSans-112"/>
      <path d="M 41.109375 46.296875
Q 39.59375 47.171875 37.8125 47.578125
Q 36.03125 48 33.890625 48
Q 26.265625 48 22.1875 43.046875
Q 18.109375 38.09375 18.109375 28.8125
L 18.109375 0
L 9.078125 0
L 9.078125 54.6875
L 18.109375 54.6875
L 18.109375 46.1875
Q 20.953125 51.171875 25.484375 53.578125
Q 30.03125 56 36.53125 56
Q 37.453125 56 38.578125 55.875
Q 39.703125 55.765625 41.0625 55.515625
z
" id="DejaVuSans-114"/>
      <path d="M 44.28125 53.078125
L 44.28125 44.578125
Q 40.484375 46.53125 36.375 47.5
Q 32.28125 48.484375 27.875 48.484375
Q 21.1875 48.484375 17.84375 46.4375
Q 14.5 44.390625 14.5 40.28125
Q 14.5 37.15625 16.890625 35.375
Q 19.28125 33.59375 26.515625 31.984375
L 29.59375 31.296875
Q 39.15625 29.25 43.1875 25.515625
Q 47.21875 21.78125 47.21875 15.09375
Q 47.21875 7.46875 41.1875 3.015625
Q 35.15625 -1.421875 24.609375 -1.421875
Q 20.21875 -1.421875 15.453125 -0.5625
Q 10.6875 0.296875 5.421875 2
L 5.421875 11.28125
Q 10.40625 8.6875 15.234375 7.390625
Q 20.0625 6.109375 24.8125 6.109375
Q 31.15625 6.109375 34.5625 8.28125
Q 37.984375 10.453125 37.984375 14.40625
Q 37.984375 18.0625 35.515625 20.015625
Q 33.0625 21.96875 24.703125 23.78125
L 21.578125 24.515625
Q 13.234375 26.265625 9.515625 29.90625
Q 5.8125 33.546875 5.8125 39.890625
Q 5.8125 47.609375 11.28125 51.796875
Q 16.75 56 26.8125 56
Q 31.78125 56 36.171875 55.265625
Q 40.578125 54.546875 44.28125 53.078125
z
" id="DejaVuSans-115"/>
      <path d="M 9.421875 54.6875
L 18.40625 54.6875
L 18.40625 0
L 9.421875 0
z
M 9.421875 75.984375
L 18.40625 75.984375
L 18.40625 64.59375
L 9.421875 64.59375
z
" id="DejaVuSans-105"/>
      <path d="M 30.609375 48.390625
Q 23.390625 48.390625 19.1875 42.75
Q 14.984375 37.109375 14.984375 27.296875
Q 14.984375 17.484375 19.15625 11.84375
Q 23.34375 6.203125 30.609375 6.203125
Q 37.796875 6.203125 41.984375 11.859375
Q 46.1875 17.53125 46.1875 27.296875
Q 46.1875 37.015625 41.984375 42.703125
Q 37.796875 48.390625 30.609375 48.390625
z
M 30.609375 56
Q 42.328125 56 49.015625 48.375
Q 55.71875 40.765625 55.71875 27.296875
Q 55.71875 13.875 49.015625 6.21875
Q 42.328125 -1.421875 30.609375 -1.421875
Q 18.84375 -1.421875 12.171875 6.21875
Q 5.515625 13.875 5.515625 27.296875
Q 5.515625 40.765625 12.171875 48.375
Q 18.84375 56 30.609375 56
z
" id="DejaVuSans-111"/>
      <path d="M 54.890625 33.015625
L 54.890625 0
L 45.90625 0
L 45.90625 32.71875
Q 45.90625 40.484375 42.875 44.328125
Q 39.84375 48.1875 33.796875 48.1875
Q 26.515625 48.1875 22.3125 43.546875
Q 18.109375 38.921875 18.109375 30.90625
L 18.109375 0
L 9.078125 0
L 9.078125 54.6875
L 18.109375 54.6875
L 18.109375 46.1875
Q 21.34375 51.125 25.703125 53.5625
Q 30.078125 56 35.796875 56
Q 45.21875 56 50.046875 50.171875
Q 54.890625 44.34375 54.890625 33.015625
z
" id="DejaVuSans-110"/>
     </defs>
     <g transform="translate(156.393438 268.302187)scale(0.18 -0.18)">
      <use xlink:href="#DejaVuSans-80"/>
      <use x="60.208984" xlink:href="#DejaVuSans-65"/>
      <use x="128.617188" xlink:href="#DejaVuSans-49"/>
      <use x="192.240234" xlink:href="#DejaVuSans-52"/>
      <use x="255.863281" xlink:href="#DejaVuSans-32"/>
      <use x="287.650391" xlink:href="#DejaVuSans-101"/>
      <use x="349.158203" xlink:href="#DejaVuSans-120"/>
      <use x="408.337891" xlink:href="#DejaVuSans-112"/>
      <use x="471.814453" xlink:href="#DejaVuSans-114"/>
      <use x="512.896484" xlink:href="#DejaVuSans-101"/>
      <use x="574.419922" xlink:href="#DejaVuSans-115"/>
      <use x="626.519531" xlink:href="#DejaVuSans-115"/>
      <use x="678.619141" xlink:href="#DejaVuSans-105"/>
      <use x="706.402344" xlink:href="#DejaVuSans-111"/>
      <use x="767.583984" xlink:href="#DejaVuSans-110"/>
     </g>
    </g>
   </g>
   <g id="matplotlib.axis_2">
    <g id="ytick_1">
     <g id="line2d_5">
      <defs>
       <path d="M 0 0
L -3.5 0
" id="mfc94ba37e1" style="stroke:#000000;stroke-width:0.8;"/>
      </defs>
      <g>
       <use style="stroke:#000000;stroke-width:0.8;" x="63.780625" xlink:href="#mfc94ba37e1" y="218.256364"/>
      </g>
     </g>
     <g id="text_6">
      <!-- $\mathdefault{10^{0}}$ -->
      <g transform="translate(28.620625 224.335114)scale(0.16 -0.16)">
       <use transform="translate(0 0.765625)" xlink:href="#DejaVuSans-49"/>
       <use transform="translate(63.623047 0.765625)" xlink:href="#DejaVuSans-48"/>
       <use transform="translate(128.203125 39.046875)scale(0.7)" xlink:href="#DejaVuSans-48"/>
      </g>
     </g>
    </g>
    <g id="ytick_2">
     <g id="line2d_6">
      <g>
       <use style="stroke:#000000;stroke-width:0.8;" x="63.780625" xlink:href="#mfc94ba37e1" y="155.524292"/>
      </g>
     </g>
     <g id="text_7">
      <!-- $\mathdefault{10^{1}}$ -->
      <g transform="translate(28.620625 161.603042)scale(0.16 -0.16)">
       <use transform="translate(0 0.684375)" xlink:href="#DejaVuSans-49"/>
       <use transform="translate(63.623047 0.684375)" xlink:href="#DejaVuSans-48"/>
       <use transform="translate(128.203125 38.965625)scale(0.7)" xlink:href="#DejaVuSans-49"/>
      </g>
     </g>
    </g>
    <g id="ytick_3">
     <g id="line2d_7">
      <g>
       <use style="stroke:#000000;stroke-width:0.8;" x="63.780625" xlink:href="#mfc94ba37e1" y="92.792219"/>
      </g>
     </g>
     <g id="text_8">
      <!-- $\mathdefault{10^{2}}$ -->
      <g transform="translate(28.620625 98.870969)scale(0.16 -0.16)">
       <use transform="translate(0 0.765625)" xlink:href="#DejaVuSans-49"/>
       <use transform="translate(63.623047 0.765625)" xlink:href="#DejaVuSans-48"/>
       <use transform="translate(128.203125 39.046875)scale(0.7)" xlink:href="#DejaVuSans-50"/>
      </g>
     </g>
    </g>
    <g id="ytick_4">
     <g id="line2d_8">
      <g>
       <use style="stroke:#000000;stroke-width:0.8;" x="63.780625" xlink:href="#mfc94ba37e1" y="30.060147"/>
      </g>
     </g>
     <g id="text_9">
      <!-- $\mathdefault{10^{3}}$ -->
      <g transform="translate(28.620625 36.138897)scale(0.16 -0.16)">
       <use transform="translate(0 0.765625)" xlink:href="#DejaVuSans-49"/>
       <use transform="translate(63.623047 0.765625)" xlink:href="#DejaVuSans-48"/>
       <use transform="translate(128.203125 39.046875)scale(0.7)" xlink:href="#DejaVuSans-51"/>
      </g>
     </g>
    </g>
    <g id="ytick_5">
     <g id="line2d_9">
      <defs>
       <path d="M 0 0
L -2 0
" id="m9a009c4448" style="stroke:#000000;stroke-width:0.6;"/>
      </defs>
      <g>
       <use style="stroke:#000000;stroke-width:0.6;" x="63.780625" xlink:href="#m9a009c4448" y="227.973685"/>
      </g>
     </g>
    </g>
    <g id="ytick_6">
     <g id="line2d_10">
      <g>
       <use style="stroke:#000000;stroke-width:0.6;" x="63.780625" xlink:href="#m9a009c4448" y="224.33573"/>
      </g>
     </g>
    </g>
    <g id="ytick_7">
     <g id="line2d_11">
      <g>
       <use style="stroke:#000000;stroke-width:0.6;" x="63.780625" xlink:href="#m9a009c4448" y="221.126826"/>
      </g>
     </g>
    </g>
    <g id="ytick_8">
     <g id="line2d_12">
      <g>
       <use style="stroke:#000000;stroke-width:0.6;" x="63.780625" xlink:href="#m9a009c4448" y="199.372128"/>
      </g>
     </g>
    </g>
    <g id="ytick_9">
     <g id="line2d_13">
      <g>
       <use style="stroke:#000000;stroke-width:0.6;" x="63.780625" xlink:href="#m9a009c4448" y="188.325559"/>
      </g>
     </g>
    </g>
    <g id="ytick_10">
     <g id="line2d_14">
      <g>
       <use style="stroke:#000000;stroke-width:0.6;" x="63.780625" xlink:href="#m9a009c4448" y="180.487893"/>
      </g>
     </g>
    </g>
    <g id="ytick_11">
     <g id="line2d_15">
      <g>
       <use style="stroke:#000000;stroke-width:0.6;" x="63.780625" xlink:href="#m9a009c4448" y="174.408527"/>
      </g>
     </g>
    </g>
    <g id="ytick_12">
     <g id="line2d_16">
      <g>
       <use style="stroke:#000000;stroke-width:0.6;" x="63.780625" xlink:href="#m9a009c4448" y="169.441323"/>
      </g>
     </g>
    </g>
    <g id="ytick_13">
     <g id="line2d_17">
      <g>
       <use style="stroke:#000000;stroke-width:0.6;" x="63.780625" xlink:href="#m9a009c4448" y="165.241612"/>
      </g>
     </g>
    </g>
    <g id="ytick_14">
     <g id="line2d_18">
      <g>
       <use style="stroke:#000000;stroke-width:0.6;" x="63.780625" xlink:href="#m9a009c4448" y="161.603657"/>
      </g>
     </g>
    </g>
    <g id="ytick_15">
     <g id="line2d_19">
      <g>
       <use style="stroke:#000000;stroke-width:0.6;" x="63.780625" xlink:href="#m9a009c4448" y="158.394754"/>
      </g>
     </g>
    </g>
    <g id="ytick_16">
     <g id="line2d_20">
      <g>
       <use style="stroke:#000000;stroke-width:0.6;" x="63.780625" xlink:href="#m9a009c4448" y="136.640056"/>
      </g>
     </g>
    </g>
    <g id="ytick_17">
     <g id="line2d_21">
      <g>
       <use style="stroke:#000000;stroke-width:0.6;" x="63.780625" xlink:href="#m9a009c4448" y="125.593487"/>
      </g>
     </g>
    </g>
    <g id="ytick_18">
     <g id="line2d_22">
      <g>
       <use style="stroke:#000000;stroke-width:0.6;" x="63.780625" xlink:href="#m9a009c4448" y="117.755821"/>
      </g>
     </g>
    </g>
    <g id="ytick_19">
     <g id="line2d_23">
      <g>
       <use style="stroke:#000000;stroke-width:0.6;" x="63.780625" xlink:href="#m9a009c4448" y="111.676455"/>
      </g>
     </g>
    </g>
    <g id="ytick_20">
     <g id="line2d_24">
      <g>
       <use style="stroke:#000000;stroke-width:0.6;" x="63.780625" xlink:href="#m9a009c4448" y="106.709251"/>
      </g>
     </g>
    </g>
    <g id="ytick_21">
     <g id="line2d_25">
      <g>
       <use style="stroke:#000000;stroke-width:0.6;" x="63.780625" xlink:href="#m9a009c4448" y="102.50954"/>
      </g>
     </g>
    </g>
    <g id="ytick_22">
     <g id="line2d_26">
      <g>
       <use style="stroke:#000000;stroke-width:0.6;" x="63.780625" xlink:href="#m9a009c4448" y="98.871585"/>
      </g>
     </g>
    </g>
    <g id="ytick_23">
     <g id="line2d_27">
      <g>
       <use style="stroke:#000000;stroke-width:0.6;" x="63.780625" xlink:href="#m9a009c4448" y="95.662682"/>
      </g>
     </g>
    </g>
    <g id="ytick_24">
     <g id="line2d_28">
      <g>
       <use style="stroke:#000000;stroke-width:0.6;" x="63.780625" xlink:href="#m9a009c4448" y="73.907984"/>
      </g>
     </g>
    </g>
    <g id="ytick_25">
     <g id="line2d_29">
      <g>
       <use style="stroke:#000000;stroke-width:0.6;" x="63.780625" xlink:href="#m9a009c4448" y="62.861414"/>
      </g>
     </g>
    </g>
    <g id="ytick_26">
     <g id="line2d_30">
      <g>
       <use style="stroke:#000000;stroke-width:0.6;" x="63.780625" xlink:href="#m9a009c4448" y="55.023749"/>
      </g>
     </g>
    </g>
    <g id="ytick_27">
     <g id="line2d_31">
      <g>
       <use style="stroke:#000000;stroke-width:0.6;" x="63.780625" xlink:href="#m9a009c4448" y="48.944383"/>
      </g>
     </g>
    </g>
    <g id="ytick_28">
     <g id="line2d_32">
      <g>
       <use style="stroke:#000000;stroke-width:0.6;" x="63.780625" xlink:href="#m9a009c4448" y="43.977179"/>
      </g>
     </g>
    </g>
    <g id="ytick_29">
     <g id="line2d_33">
      <g>
       <use style="stroke:#000000;stroke-width:0.6;" x="63.780625" xlink:href="#m9a009c4448" y="39.777468"/>
      </g>
     </g>
    </g>
    <g id="ytick_30">
     <g id="line2d_34">
      <g>
       <use style="stroke:#000000;stroke-width:0.6;" x="63.780625" xlink:href="#m9a009c4448" y="36.139513"/>
      </g>
     </g>
    </g>
    <g id="ytick_31">
     <g id="line2d_35">
      <g>
       <use style="stroke:#000000;stroke-width:0.6;" x="63.780625" xlink:href="#m9a009c4448" y="32.930609"/>
      </g>
     </g>
    </g>
    <g id="ytick_32">
     <g id="line2d_36">
      <g>
       <use style="stroke:#000000;stroke-width:0.6;" x="63.780625" xlink:href="#m9a009c4448" y="11.175912"/>
      </g>
     </g>
    </g>
    <g id="text_10">
     <!-- Count -->
     <defs>
      <path d="M 64.40625 67.28125
L 64.40625 56.890625
Q 59.421875 61.53125 53.78125 63.8125
Q 48.140625 66.109375 41.796875 66.109375
Q 29.296875 66.109375 22.65625 58.46875
Q 16.015625 50.828125 16.015625 36.375
Q 16.015625 21.96875 22.65625 14.328125
Q 29.296875 6.6875 41.796875 6.6875
Q 48.140625 6.6875 53.78125 8.984375
Q 59.421875 11.28125 64.40625 15.921875
L 64.40625 5.609375
Q 59.234375 2.09375 53.4375 0.328125
Q 47.65625 -1.421875 41.21875 -1.421875
Q 24.65625 -1.421875 15.125 8.703125
Q 5.609375 18.84375 5.609375 36.375
Q 5.609375 53.953125 15.125 64.078125
Q 24.65625 74.21875 41.21875 74.21875
Q 47.75 74.21875 53.53125 72.484375
Q 59.328125 70.75 64.40625 67.28125
z
" id="DejaVuSans-67"/>
      <path d="M 8.5 21.578125
L 8.5 54.6875
L 17.484375 54.6875
L 17.484375 21.921875
Q 17.484375 14.15625 20.5 10.265625
Q 23.53125 6.390625 29.59375 6.390625
Q 36.859375 6.390625 41.078125 11.03125
Q 45.3125 15.671875 45.3125 23.6875
L 45.3125 54.6875
L 54.296875 54.6875
L 54.296875 0
L 45.3125 0
L 45.3125 8.40625
Q 42.046875 3.421875 37.71875 1
Q 33.40625 -1.421875 27.6875 -1.421875
Q 18.265625 -1.421875 13.375 4.4375
Q 8.5 10.296875 8.5 21.578125
z
M 31.109375 56
z
" id="DejaVuSans-117"/>
      <path d="M 18.3125 70.21875
L 18.3125 54.6875
L 36.8125 54.6875
L 36.8125 47.703125
L 18.3125 47.703125
L 18.3125 18.015625
Q 18.3125 11.328125 20.140625 9.421875
Q 21.96875 7.515625 27.59375 7.515625
L 36.8125 7.515625
L 36.8125 0
L 27.59375 0
Q 17.1875 0 13.234375 3.875
Q 9.28125 7.765625 9.28125 18.015625
L 9.28125 47.703125
L 2.6875 47.703125
L 2.6875 54.6875
L 9.28125 54.6875
L 9.28125 70.21875
z
" id="DejaVuSans-116"/>
     </defs>
     <g transform="translate(20.877188 146.147187)rotate(-90)scale(0.18 -0.18)">
      <use xlink:href="#DejaVuSans-67"/>
      <use x="69.824219" xlink:href="#DejaVuSans-111"/>
      <use x="131.005859" xlink:href="#DejaVuSans-117"/>
      <use x="194.384766" xlink:href="#DejaVuSans-110"/>
      <use x="257.763672" xlink:href="#DejaVuSans-116"/>
     </g>
    </g>
   </g>
   <g id="line2d_37">
    <path clip-path="url(#p90551972b5)" d="M 103.6025 228.14
L 103.6025 10.7
" style="fill:none;stroke:#000000;stroke-dasharray:5.55,2.4;stroke-dashoffset:0;stroke-width:1.5;"/>
   </g>
   <g id="patch_83">
    <path d="M 63.780625 228.14
L 63.780625 10.7
" style="fill:none;stroke:#000000;stroke-linecap:square;stroke-linejoin:miter;stroke-width:0.8;"/>
   </g>
   <g id="patch_84">
    <path d="M 398.580625 228.14
L 398.580625 10.7
" style="fill:none;stroke:#000000;stroke-linecap:square;stroke-linejoin:miter;stroke-width:0.8;"/>
   </g>
   <g id="patch_85">
    <path d="M 63.780625 228.14
L 398.580625 228.14
" style="fill:none;stroke:#000000;stroke-linecap:square;stroke-linejoin:miter;stroke-width:0.8;"/>
   </g>
   <g id="patch_86">
    <path d="M 63.780625 10.7
L 398.580625 10.7
" style="fill:none;stroke:#000000;stroke-linecap:square;stroke-linejoin:miter;stroke-width:0.8;"/>
   </g>
   <g id="legend_1">
    <g id="patch_87">
     <path d="M 259.400625 70.47
L 387.380625 70.47
Q 390.580625 70.47 390.580625 67.27
L 390.580625 21.9
Q 390.580625 18.7 387.380625 18.7
L 259.400625 18.7
Q 256.200625 18.7 256.200625 21.9
L 256.200625 67.27
Q 256.200625 70.47 259.400625 70.47
z
" style="fill:#ffffff;opacity:0.8;stroke:#cccccc;stroke-linejoin:miter;"/>
    </g>
    <g id="patch_88">
     <path d="M 262.600625 37.2575
L 294.600625 37.2575
L 294.600625 26.0575
L 262.600625 26.0575
z
" style="fill:#795c34;opacity:0.6;"/>
    </g>
    <g id="text_11">
     <!-- non-PA14 -->
     <defs>
      <path d="M 4.890625 31.390625
L 31.203125 31.390625
L 31.203125 23.390625
L 4.890625 23.390625
z
" id="DejaVuSans-45"/>
     </defs>
     <g transform="translate(307.400625 37.2575)scale(0.16 -0.16)">
      <use xlink:href="#DejaVuSans-110"/>
      <use x="63.378906" xlink:href="#DejaVuSans-111"/>
      <use x="124.560547" xlink:href="#DejaVuSans-110"/>
      <use x="187.939453" xlink:href="#DejaVuSans-45"/>
      <use x="224.023438" xlink:href="#DejaVuSans-80"/>
      <use x="284.232422" xlink:href="#DejaVuSans-65"/>
      <use x="352.640625" xlink:href="#DejaVuSans-49"/>
      <use x="416.263672" xlink:href="#DejaVuSans-52"/>
     </g>
    </g>
    <g id="patch_89">
     <path d="M 262.600625 60.7425
L 294.600625 60.7425
L 294.600625 49.5425
L 262.600625 49.5425
z
" style="fill:#895881;opacity:0.7;"/>
    </g>
    <g id="text_12">
     <!-- PA14 -->
     <g transform="translate(307.400625 60.7425)scale(0.16 -0.16)">
      <use xlink:href="#DejaVuSans-80"/>
      <use x="60.208984" xlink:href="#DejaVuSans-65"/>
      <use x="128.617188" xlink:href="#DejaVuSans-49"/>
      <use x="192.240234" xlink:href="#DejaVuSans-52"/>
     </g>
    </g>
   </g>
  </g>
 </g>
 <defs>
  <clipPath id="p90551972b5">
   <rect height="217.44" width="334.8" x="63.780625" y="10.7"/>
  </clipPath>
 </defs>
</svg>
