<?xml version="1.0" encoding="utf-8" standalone="no"?>
<!DOCTYPE svg PUBLIC "-//W3C//DTD SVG 1.1//EN"
  "http://www.w3.org/Graphics/SVG/1.1/DTD/svg11.dtd">
<!-- Created with matplotlib (https://matplotlib.org/) -->
<svg height="279.245625pt" version="1.1" viewBox="0 0 409.280625 279.245625" width="409.280625pt" xmlns="http://www.w3.org/2000/svg" xmlns:xlink="http://www.w3.org/1999/xlink">
 <defs>
  <style type="text/css">
*{stroke-linecap:butt;stroke-linejoin:round;}
  </style>
 </defs>
 <g id="figure_1">
  <g id="patch_1">
   <path d="M 0 279.245625
L 409.280625 279.245625
L 409.280625 0
L 0 0
z
" style="fill:#ffffff;"/>
  </g>
  <g id="axes_1">
   <g id="patch_2">
    <path d="M 63.780625 228.14
L 398.580625 228.14
L 398.580625 10.7
L 63.780625 10.7
z
" style="fill:#ffffff;"/>
   </g>
   <g id="patch_3">
    <path clip-path="url(#p82dad06438)" d="M 78.998807 65246.232203
L 82.083301 65246.232203
L 82.083301 20.583636
L 78.998807 20.583636
z
" style="fill:#795c34;opacity:0.6;"/>
   </g>
   <g id="patch_4">
    <path clip-path="url(#p82dad06438)" d="M 82.083301 65246.232203
L 85.167796 65246.232203
L 85.167796 75.461454
L 82.083301 75.461454
z
" style="fill:#795c34;opacity:0.6;"/>
   </g>
   <g id="patch_5">
    <path clip-path="url(#p82dad06438)" d="M 85.167796 65246.232203
L 88.25229 65246.232203
L 88.25229 89.060619
L 85.167796 89.060619
z
" style="fill:#795c34;opacity:0.6;"/>
   </g>
   <g id="patch_6">
    <path clip-path="url(#p82dad06438)" d="M 88.25229 65246.232203
L 91.336785 65246.232203
L 91.336785 91.810591
L 88.25229 91.810591
z
" style="fill:#795c34;opacity:0.6;"/>
   </g>
   <g id="patch_7">
    <path clip-path="url(#p82dad06438)" d="M 91.336785 65246.232203
L 94.421279 65246.232203
L 94.421279 118.66739
L 91.336785 118.66739
z
" style="fill:#795c34;opacity:0.6;"/>
   </g>
   <g id="patch_8">
    <path clip-path="url(#p82dad06438)" d="M 94.421279 65246.232203
L 97.505774 65246.232203
L 97.505774 123.159582
L 94.421279 123.159582
z
" style="fill:#795c34;opacity:0.6;"/>
   </g>
   <g id="patch_9">
    <path clip-path="url(#p82dad06438)" d="M 97.505774 65246.232203
L 100.590268 65246.232203
L 100.590268 135.101605
L 97.505774 135.101605
z
" style="fill:#795c34;opacity:0.6;"/>
   </g>
   <g id="patch_10">
    <path clip-path="url(#p82dad06438)" d="M 100.590268 65246.232203
L 103.674763 65246.232203
L 103.674763 148.079392
L 100.590268 148.079392
z
" style="fill:#795c34;opacity:0.6;"/>
   </g>
   <g id="patch_11">
    <path clip-path="url(#p82dad06438)" d="M 103.674763 65246.232203
L 106.759257 65246.232203
L 106.759257 135.101605
L 103.674763 135.101605
z
" style="fill:#795c34;opacity:0.6;"/>
   </g>
   <g id="patch_12">
    <path clip-path="url(#p82dad06438)" d="M 106.759257 65246.232203
L 109.843752 65246.232203
L 109.843752 153.228388
L 106.759257 153.228388
z
" style="fill:#795c34;opacity:0.6;"/>
   </g>
   <g id="patch_13">
    <path clip-path="url(#p82dad06438)" d="M 109.843752 65246.232203
L 112.928246 65246.232203
L 112.928246 172.803759
L 109.843752 172.803759
z
" style="fill:#795c34;opacity:0.6;"/>
   </g>
   <g id="patch_14">
    <path clip-path="url(#p82dad06438)" d="M 112.928246 65246.232203
L 116.012741 65246.232203
L 116.012741 163.301349
L 112.928246 163.301349
z
" style="fill:#795c34;opacity:0.6;"/>
   </g>
   <g id="patch_15">
    <path clip-path="url(#p82dad06438)" d="M 116.012741 65246.232203
L 119.097235 65246.232203
L 119.097235 153.228388
L 116.012741 153.228388
z
" style="fill:#795c34;opacity:0.6;"/>
   </g>
   <g id="patch_16">
    <path clip-path="url(#p82dad06438)" d="M 119.097235 65246.232203
L 122.18173 65246.232203
L 122.18173 141.77753
L 119.097235 141.77753
z
" style="fill:#795c34;opacity:0.6;"/>
   </g>
   <g id="patch_17">
    <path clip-path="url(#p82dad06438)" d="M 122.18173 65246.232203
L 125.266224 65246.232203
L 125.266224 141.77753
L 122.18173 141.77753
z
" style="fill:#795c34;opacity:0.6;"/>
   </g>
   <g id="patch_18">
    <path clip-path="url(#p82dad06438)" d="M 125.266224 65246.232203
L 128.350719 65246.232203
L 128.350719 148.079392
L 125.266224 148.079392
z
" style="fill:#795c34;opacity:0.6;"/>
   </g>
   <g id="patch_19">
    <path clip-path="url(#p82dad06438)" d="M 128.350719 65246.232203
L 131.435213 65246.232203
L 131.435213 156.203905
L 128.350719 156.203905
z
" style="fill:#795c34;opacity:0.6;"/>
   </g>
   <g id="patch_20">
    <path clip-path="url(#p82dad06438)" d="M 131.435213 65246.232203
L 134.519708 65246.232203
L 134.519708 172.803759
L 131.435213 172.803759
z
" style="fill:#795c34;opacity:0.6;"/>
   </g>
   <g id="patch_21">
    <path clip-path="url(#p82dad06438)" d="M 134.519708 65246.232203
L 137.604203 65246.232203
L 137.604203 179.105621
L 134.519708 179.105621
z
" style="fill:#795c34;opacity:0.6;"/>
   </g>
   <g id="patch_22">
    <path clip-path="url(#p82dad06438)" d="M 137.604203 65246.232203
L 140.688697 65246.232203
L 140.688697 167.654763
L 137.604203 167.654763
z
" style="fill:#795c34;opacity:0.6;"/>
   </g>
   <g id="patch_23">
    <path clip-path="url(#p82dad06438)" d="M 140.688697 65246.232203
L 143.773192 65246.232203
L 143.773192 218.256364
L 140.688697 218.256364
z
" style="fill:#795c34;opacity:0.6;"/>
   </g>
   <g id="patch_24">
    <path clip-path="url(#p82dad06438)" d="M 143.773192 65246.232203
L 146.857686 65246.232203
L 146.857686 163.301349
L 143.773192 163.301349
z
" style="fill:#795c34;opacity:0.6;"/>
   </g>
   <g id="patch_25">
    <path clip-path="url(#p82dad06438)" d="M 146.857686 65246.232203
L 149.942181 65246.232203
L 149.942181 179.105621
L 146.857686 179.105621
z
" style="fill:#795c34;opacity:0.6;"/>
   </g>
   <g id="patch_26">
    <path clip-path="url(#p82dad06438)" d="M 149.942181 65246.232203
L 153.026675 65246.232203
L 153.026675 218.256364
L 149.942181 218.256364
z
" style="fill:#795c34;opacity:0.6;"/>
   </g>
   <g id="patch_27">
    <path clip-path="url(#p82dad06438)" d="M 153.026675 65246.232203
L 156.11117 65246.232203
L 156.11117 172.803759
L 153.026675 172.803759
z
" style="fill:#795c34;opacity:0.6;"/>
   </g>
   <g id="patch_28">
    <path clip-path="url(#p82dad06438)" d="M 156.11117 65246.232203
L 159.195664 65246.232203
L 159.195664 218.256364
L 156.11117 218.256364
z
" style="fill:#795c34;opacity:0.6;"/>
   </g>
   <g id="patch_29">
    <path clip-path="url(#p82dad06438)" d="M 159.195664 65246.232203
L 162.280159 65246.232203
L 162.280159 187.230134
L 159.195664 187.230134
z
" style="fill:#795c34;opacity:0.6;"/>
   </g>
   <g id="patch_30">
    <path clip-path="url(#p82dad06438)" d="M 162.280159 65246.232203
L 165.364653 65246.232203
L 165.364653 198.680992
L 162.280159 198.680992
z
" style="fill:#795c34;opacity:0.6;"/>
   </g>
   <g id="patch_31">
    <path clip-path="url(#p82dad06438)" d="M 165.364653 65246.232203
L 168.449148 65246.232203
L 168.449148 198.680992
L 165.364653 198.680992
z
" style="fill:#795c34;opacity:0.6;"/>
   </g>
   <g id="patch_32">
    <path clip-path="url(#p82dad06438)" d="M 168.449148 65246.232203
L 171.533642 65246.232203
L 171.533642 218.256364
L 168.449148 218.256364
z
" style="fill:#795c34;opacity:0.6;"/>
   </g>
   <g id="patch_33">
    <path clip-path="url(#p82dad06438)" d="M 171.533642 65246.232203
L 174.618137 65246.232203
L 174.618137 218.256364
L 171.533642 218.256364
z
" style="fill:#795c34;opacity:0.6;"/>
   </g>
   <g id="patch_34">
    <path clip-path="url(#p82dad06438)" d="M 174.618137 65246.232203
L 177.702631 65246.232203
L 177.702631 198.680992
L 174.618137 198.680992
z
" style="fill:#795c34;opacity:0.6;"/>
   </g>
   <g id="patch_35">
    <path clip-path="url(#p82dad06438)" d="M 177.702631 65246.232203
L 180.787126 65246.232203
L 180.787126 65246.232203
L 177.702631 65246.232203
z
" style="fill:#795c34;opacity:0.6;"/>
   </g>
   <g id="patch_36">
    <path clip-path="url(#p82dad06438)" d="M 180.787126 65246.232203
L 183.87162 65246.232203
L 183.87162 65246.232203
L 180.787126 65246.232203
z
" style="fill:#795c34;opacity:0.6;"/>
   </g>
   <g id="patch_37">
    <path clip-path="url(#p82dad06438)" d="M 183.87162 65246.232203
L 186.956115 65246.232203
L 186.956115 65246.232203
L 183.87162 65246.232203
z
" style="fill:#795c34;opacity:0.6;"/>
   </g>
   <g id="patch_38">
    <path clip-path="url(#p82dad06438)" d="M 186.956115 65246.232203
L 190.040609 65246.232203
L 190.040609 218.256364
L 186.956115 218.256364
z
" style="fill:#795c34;opacity:0.6;"/>
   </g>
   <g id="patch_39">
    <path clip-path="url(#p82dad06438)" d="M 190.040609 65246.232203
L 193.125104 65246.232203
L 193.125104 65246.232203
L 190.040609 65246.232203
z
" style="fill:#795c34;opacity:0.6;"/>
   </g>
   <g id="patch_40">
    <path clip-path="url(#p82dad06438)" d="M 193.125104 65246.232203
L 196.209598 65246.232203
L 196.209598 65246.232203
L 193.125104 65246.232203
z
" style="fill:#795c34;opacity:0.6;"/>
   </g>
   <g id="patch_41">
    <path clip-path="url(#p82dad06438)" d="M 196.209598 65246.232203
L 199.294093 65246.232203
L 199.294093 65246.232203
L 196.209598 65246.232203
z
" style="fill:#795c34;opacity:0.6;"/>
   </g>
   <g id="patch_42">
    <path clip-path="url(#p82dad06438)" d="M 199.294093 65246.232203
L 202.378587 65246.232203
L 202.378587 218.256364
L 199.294093 218.256364
z
" style="fill:#795c34;opacity:0.6;"/>
   </g>
   <g id="patch_43">
    <path clip-path="url(#p82dad06438)" d="M 202.378587 65246.232203
L 205.463082 65246.232203
L 205.463082 65246.232203
L 202.378587 65246.232203
z
" style="fill:#795c34;opacity:0.6;"/>
   </g>
   <g id="patch_44">
    <path clip-path="url(#p82dad06438)" d="M 205.463082 65246.232203
L 208.547576 65246.232203
L 208.547576 218.256364
L 205.463082 218.256364
z
" style="fill:#795c34;opacity:0.6;"/>
   </g>
   <g id="patch_45">
    <path clip-path="url(#p82dad06438)" d="M 208.547576 65246.232203
L 211.632071 65246.232203
L 211.632071 65246.232203
L 208.547576 65246.232203
z
" style="fill:#795c34;opacity:0.6;"/>
   </g>
   <g id="patch_46">
    <path clip-path="url(#p82dad06438)" d="M 211.632071 65246.232203
L 214.716565 65246.232203
L 214.716565 218.256364
L 211.632071 218.256364
z
" style="fill:#795c34;opacity:0.6;"/>
   </g>
   <g id="patch_47">
    <path clip-path="url(#p82dad06438)" d="M 214.716565 65246.232203
L 217.80106 65246.232203
L 217.80106 198.680992
L 214.716565 198.680992
z
" style="fill:#795c34;opacity:0.6;"/>
   </g>
   <g id="patch_48">
    <path clip-path="url(#p82dad06438)" d="M 217.80106 65246.232203
L 220.885554 65246.232203
L 220.885554 65246.232203
L 217.80106 65246.232203
z
" style="fill:#795c34;opacity:0.6;"/>
   </g>
   <g id="patch_49">
    <path clip-path="url(#p82dad06438)" d="M 220.885554 65246.232203
L 223.970049 65246.232203
L 223.970049 65246.232203
L 220.885554 65246.232203
z
" style="fill:#795c34;opacity:0.6;"/>
   </g>
   <g id="patch_50">
    <path clip-path="url(#p82dad06438)" d="M 223.970049 65246.232203
L 227.054543 65246.232203
L 227.054543 65246.232203
L 223.970049 65246.232203
z
" style="fill:#795c34;opacity:0.6;"/>
   </g>
   <g id="patch_51">
    <path clip-path="url(#p82dad06438)" d="M 227.054543 65246.232203
L 230.139038 65246.232203
L 230.139038 218.256364
L 227.054543 218.256364
z
" style="fill:#795c34;opacity:0.6;"/>
   </g>
   <g id="patch_52">
    <path clip-path="url(#p82dad06438)" d="M 230.139038 65246.232203
L 233.223532 65246.232203
L 233.223532 218.256364
L 230.139038 218.256364
z
" style="fill:#795c34;opacity:0.6;"/>
   </g>
   <g id="patch_53">
    <path clip-path="url(#p82dad06438)" d="M 79.242065 65246.232203
L 85.324472 65246.232203
L 85.324472 198.680992
L 79.242065 198.680992
z
" style="fill:#c6a9b5;opacity:0.7;"/>
   </g>
   <g id="patch_54">
    <path clip-path="url(#p82dad06438)" d="M 85.324472 65246.232203
L 91.40688 65246.232203
L 91.40688 172.803759
L 85.324472 172.803759
z
" style="fill:#c6a9b5;opacity:0.7;"/>
   </g>
   <g id="patch_55">
    <path clip-path="url(#p82dad06438)" d="M 91.40688 65246.232203
L 97.489287 65246.232203
L 97.489287 109.523225
L 91.40688 109.523225
z
" style="fill:#c6a9b5;opacity:0.7;"/>
   </g>
   <g id="patch_56">
    <path clip-path="url(#p82dad06438)" d="M 97.489287 65246.232203
L 103.571695 65246.232203
L 103.571695 98.273373
L 97.489287 98.273373
z
" style="fill:#c6a9b5;opacity:0.7;"/>
   </g>
   <g id="patch_57">
    <path clip-path="url(#p82dad06438)" d="M 103.571695 65246.232203
L 109.654103 65246.232203
L 109.654103 94.151446
L 103.571695 94.151446
z
" style="fill:#c6a9b5;opacity:0.7;"/>
   </g>
   <g id="patch_58">
    <path clip-path="url(#p82dad06438)" d="M 109.654103 65246.232203
L 115.73651 65246.232203
L 115.73651 87.919402
L 109.654103 87.919402
z
" style="fill:#c6a9b5;opacity:0.7;"/>
   </g>
   <g id="patch_59">
    <path clip-path="url(#p82dad06438)" d="M 115.73651 65246.232203
L 121.818918 65246.232203
L 121.818918 89.353278
L 115.73651 89.353278
z
" style="fill:#c6a9b5;opacity:0.7;"/>
   </g>
   <g id="patch_60">
    <path clip-path="url(#p82dad06438)" d="M 121.818918 65246.232203
L 127.901325 65246.232203
L 127.901325 101.24889
L 121.818918 101.24889
z
" style="fill:#c6a9b5;opacity:0.7;"/>
   </g>
   <g id="patch_61">
    <path clip-path="url(#p82dad06438)" d="M 127.901325 65246.232203
L 133.983733 65246.232203
L 133.983733 104.075376
L 127.901325 104.075376
z
" style="fill:#c6a9b5;opacity:0.7;"/>
   </g>
   <g id="patch_62">
    <path clip-path="url(#p82dad06438)" d="M 133.983733 65246.232203
L 140.06614 65246.232203
L 140.06614 120.379507
L 133.983733 120.379507
z
" style="fill:#c6a9b5;opacity:0.7;"/>
   </g>
   <g id="patch_63">
    <path clip-path="url(#p82dad06438)" d="M 140.06614 65246.232203
L 146.148548 65246.232203
L 146.148548 132.275119
L 140.06614 132.275119
z
" style="fill:#c6a9b5;opacity:0.7;"/>
   </g>
   <g id="patch_64">
    <path clip-path="url(#p82dad06438)" d="M 146.148548 65246.232203
L 152.230956 65246.232203
L 152.230956 153.228388
L 146.148548 153.228388
z
" style="fill:#c6a9b5;opacity:0.7;"/>
   </g>
   <g id="patch_65">
    <path clip-path="url(#p82dad06438)" d="M 152.230956 65246.232203
L 158.313363 65246.232203
L 158.313363 156.203905
L 152.230956 156.203905
z
" style="fill:#c6a9b5;opacity:0.7;"/>
   </g>
   <g id="patch_66">
    <path clip-path="url(#p82dad06438)" d="M 158.313363 65246.232203
L 164.395771 65246.232203
L 164.395771 179.105621
L 158.313363 179.105621
z
" style="fill:#c6a9b5;opacity:0.7;"/>
   </g>
   <g id="patch_67">
    <path clip-path="url(#p82dad06438)" d="M 164.395771 65246.232203
L 170.478178 65246.232203
L 170.478178 179.105621
L 164.395771 179.105621
z
" style="fill:#c6a9b5;opacity:0.7;"/>
   </g>
   <g id="patch_68">
    <path clip-path="url(#p82dad06438)" d="M 170.478178 65246.232203
L 176.560586 65246.232203
L 176.560586 198.680992
L 170.478178 198.680992
z
" style="fill:#c6a9b5;opacity:0.7;"/>
   </g>
   <g id="patch_69">
    <path clip-path="url(#p82dad06438)" d="M 176.560586 65246.232203
L 182.642993 65246.232203
L 182.642993 172.803759
L 176.560586 172.803759
z
" style="fill:#c6a9b5;opacity:0.7;"/>
   </g>
   <g id="patch_70">
    <path clip-path="url(#p82dad06438)" d="M 182.642993 65246.232203
L 188.725401 65246.232203
L 188.725401 167.654763
L 182.642993 167.654763
z
" style="fill:#c6a9b5;opacity:0.7;"/>
   </g>
   <g id="patch_71">
    <path clip-path="url(#p82dad06438)" d="M 188.725401 65246.232203
L 194.807809 65246.232203
L 194.807809 167.654763
L 188.725401 167.654763
z
" style="fill:#c6a9b5;opacity:0.7;"/>
   </g>
   <g id="patch_72">
    <path clip-path="url(#p82dad06438)" d="M 194.807809 65246.232203
L 200.890216 65246.232203
L 200.890216 65246.232203
L 194.807809 65246.232203
z
" style="fill:#c6a9b5;opacity:0.7;"/>
   </g>
   <g id="patch_73">
    <path clip-path="url(#p82dad06438)" d="M 200.890216 65246.232203
L 206.972624 65246.232203
L 206.972624 179.105621
L 200.890216 179.105621
z
" style="fill:#c6a9b5;opacity:0.7;"/>
   </g>
   <g id="patch_74">
    <path clip-path="url(#p82dad06438)" d="M 206.972624 65246.232203
L 213.055031 65246.232203
L 213.055031 179.105621
L 206.972624 179.105621
z
" style="fill:#c6a9b5;opacity:0.7;"/>
   </g>
   <g id="patch_75">
    <path clip-path="url(#p82dad06438)" d="M 213.055031 65246.232203
L 219.137439 65246.232203
L 219.137439 218.256364
L 213.055031 218.256364
z
" style="fill:#c6a9b5;opacity:0.7;"/>
   </g>
   <g id="patch_76">
    <path clip-path="url(#p82dad06438)" d="M 219.137439 65246.232203
L 225.219846 65246.232203
L 225.219846 198.680992
L 219.137439 198.680992
z
" style="fill:#c6a9b5;opacity:0.7;"/>
   </g>
   <g id="patch_77">
    <path clip-path="url(#p82dad06438)" d="M 225.219846 65246.232203
L 231.302254 65246.232203
L 231.302254 198.680992
L 225.219846 198.680992
z
" style="fill:#c6a9b5;opacity:0.7;"/>
   </g>
   <g id="patch_78">
    <path clip-path="url(#p82dad06438)" d="M 231.302254 65246.232203
L 237.384662 65246.232203
L 237.384662 65246.232203
L 231.302254 65246.232203
z
" style="fill:#c6a9b5;opacity:0.7;"/>
   </g>
   <g id="patch_79">
    <path clip-path="url(#p82dad06438)" d="M 237.384662 65246.232203
L 243.467069 65246.232203
L 243.467069 65246.232203
L 237.384662 65246.232203
z
" style="fill:#c6a9b5;opacity:0.7;"/>
   </g>
   <g id="patch_80">
    <path clip-path="url(#p82dad06438)" d="M 243.467069 65246.232203
L 249.549477 65246.232203
L 249.549477 198.680992
L 243.467069 198.680992
z
" style="fill:#c6a9b5;opacity:0.7;"/>
   </g>
   <g id="patch_81">
    <path clip-path="url(#p82dad06438)" d="M 249.549477 65246.232203
L 255.631884 65246.232203
L 255.631884 65246.232203
L 249.549477 65246.232203
z
" style="fill:#c6a9b5;opacity:0.7;"/>
   </g>
   <g id="patch_82">
    <path clip-path="url(#p82dad06438)" d="M 255.631884 65246.232203
L 261.714292 65246.232203
L 261.714292 65246.232203
L 255.631884 65246.232203
z
" style="fill:#c6a9b5;opacity:0.7;"/>
   </g>
   <g id="patch_83">
    <path clip-path="url(#p82dad06438)" d="M 261.714292 65246.232203
L 267.796699 65246.232203
L 267.796699 65246.232203
L 261.714292 65246.232203
z
" style="fill:#c6a9b5;opacity:0.7;"/>
   </g>
   <g id="patch_84">
    <path clip-path="url(#p82dad06438)" d="M 267.796699 65246.232203
L 273.879107 65246.232203
L 273.879107 65246.232203
L 267.796699 65246.232203
z
" style="fill:#c6a9b5;opacity:0.7;"/>
   </g>
   <g id="patch_85">
    <path clip-path="url(#p82dad06438)" d="M 273.879107 65246.232203
L 279.961514 65246.232203
L 279.961514 218.256364
L 273.879107 218.256364
z
" style="fill:#c6a9b5;opacity:0.7;"/>
   </g>
   <g id="patch_86">
    <path clip-path="url(#p82dad06438)" d="M 279.961514 65246.232203
L 286.043922 65246.232203
L 286.043922 65246.232203
L 279.961514 65246.232203
z
" style="fill:#c6a9b5;opacity:0.7;"/>
   </g>
   <g id="patch_87">
    <path clip-path="url(#p82dad06438)" d="M 286.043922 65246.232203
L 292.12633 65246.232203
L 292.12633 218.256364
L 286.043922 218.256364
z
" style="fill:#c6a9b5;opacity:0.7;"/>
   </g>
   <g id="patch_88">
    <path clip-path="url(#p82dad06438)" d="M 292.12633 65246.232203
L 298.208737 65246.232203
L 298.208737 198.680992
L 292.12633 198.680992
z
" style="fill:#c6a9b5;opacity:0.7;"/>
   </g>
   <g id="patch_89">
    <path clip-path="url(#p82dad06438)" d="M 298.208737 65246.232203
L 304.291145 65246.232203
L 304.291145 65246.232203
L 298.208737 65246.232203
z
" style="fill:#c6a9b5;opacity:0.7;"/>
   </g>
   <g id="patch_90">
    <path clip-path="url(#p82dad06438)" d="M 304.291145 65246.232203
L 310.373552 65246.232203
L 310.373552 65246.232203
L 304.291145 65246.232203
z
" style="fill:#c6a9b5;opacity:0.7;"/>
   </g>
   <g id="patch_91">
    <path clip-path="url(#p82dad06438)" d="M 310.373552 65246.232203
L 316.45596 65246.232203
L 316.45596 218.256364
L 310.373552 218.256364
z
" style="fill:#c6a9b5;opacity:0.7;"/>
   </g>
   <g id="patch_92">
    <path clip-path="url(#p82dad06438)" d="M 316.45596 65246.232203
L 322.538367 65246.232203
L 322.538367 218.256364
L 316.45596 218.256364
z
" style="fill:#c6a9b5;opacity:0.7;"/>
   </g>
   <g id="patch_93">
    <path clip-path="url(#p82dad06438)" d="M 322.538367 65246.232203
L 328.620775 65246.232203
L 328.620775 65246.232203
L 322.538367 65246.232203
z
" style="fill:#c6a9b5;opacity:0.7;"/>
   </g>
   <g id="patch_94">
    <path clip-path="url(#p82dad06438)" d="M 328.620775 65246.232203
L 334.703183 65246.232203
L 334.703183 65246.232203
L 328.620775 65246.232203
z
" style="fill:#c6a9b5;opacity:0.7;"/>
   </g>
   <g id="patch_95">
    <path clip-path="url(#p82dad06438)" d="M 334.703183 65246.232203
L 340.78559 65246.232203
L 340.78559 218.256364
L 334.703183 218.256364
z
" style="fill:#c6a9b5;opacity:0.7;"/>
   </g>
   <g id="patch_96">
    <path clip-path="url(#p82dad06438)" d="M 340.78559 65246.232203
L 346.867998 65246.232203
L 346.867998 65246.232203
L 340.78559 65246.232203
z
" style="fill:#c6a9b5;opacity:0.7;"/>
   </g>
   <g id="patch_97">
    <path clip-path="url(#p82dad06438)" d="M 346.867998 65246.232203
L 352.950405 65246.232203
L 352.950405 218.256364
L 346.867998 218.256364
z
" style="fill:#c6a9b5;opacity:0.7;"/>
   </g>
   <g id="patch_98">
    <path clip-path="url(#p82dad06438)" d="M 352.950405 65246.232203
L 359.032813 65246.232203
L 359.032813 65246.232203
L 352.950405 65246.232203
z
" style="fill:#c6a9b5;opacity:0.7;"/>
   </g>
   <g id="patch_99">
    <path clip-path="url(#p82dad06438)" d="M 359.032813 65246.232203
L 365.11522 65246.232203
L 365.11522 65246.232203
L 359.032813 65246.232203
z
" style="fill:#c6a9b5;opacity:0.7;"/>
   </g>
   <g id="patch_100">
    <path clip-path="url(#p82dad06438)" d="M 365.11522 65246.232203
L 371.197628 65246.232203
L 371.197628 65246.232203
L 365.11522 65246.232203
z
" style="fill:#c6a9b5;opacity:0.7;"/>
   </g>
   <g id="patch_101">
    <path clip-path="url(#p82dad06438)" d="M 371.197628 65246.232203
L 377.280036 65246.232203
L 377.280036 65246.232203
L 371.197628 65246.232203
z
" style="fill:#c6a9b5;opacity:0.7;"/>
   </g>
   <g id="patch_102">
    <path clip-path="url(#p82dad06438)" d="M 377.280036 65246.232203
L 383.362443 65246.232203
L 383.362443 198.680992
L 377.280036 198.680992
z
" style="fill:#c6a9b5;opacity:0.7;"/>
   </g>
   <g id="matplotlib.axis_1">
    <g id="xtick_1">
     <g id="line2d_1">
      <defs>
       <path d="M 0 0
L 0 3.5
" id="m881fdb5aee" style="stroke:#000000;stroke-width:0.8;"/>
      </defs>
      <g>
       <use style="stroke:#000000;stroke-width:0.8;" x="78.998807" xlink:href="#m881fdb5aee" y="228.14"/>
      </g>
     </g>
     <g id="text_1">
      <!-- 0 -->
      <defs>
       <path d="M 31.78125 66.40625
Q 24.171875 66.40625 20.328125 58.90625
Q 16.5 51.421875 16.5 36.375
Q 16.5 21.390625 20.328125 13.890625
Q 24.171875 6.390625 31.78125 6.390625
Q 39.453125 6.390625 43.28125 13.890625
Q 47.125 21.390625 47.125 36.375
Q 47.125 51.421875 43.28125 58.90625
Q 39.453125 66.40625 31.78125 66.40625
z
M 31.78125 74.21875
Q 44.046875 74.21875 50.515625 64.515625
Q 56.984375 54.828125 56.984375 36.375
Q 56.984375 17.96875 50.515625 8.265625
Q 44.046875 -1.421875 31.78125 -1.421875
Q 19.53125 -1.421875 13.0625 8.265625
Q 6.59375 17.96875 6.59375 36.375
Q 6.59375 54.828125 13.0625 64.515625
Q 19.53125 74.21875 31.78125 74.21875
z
" id="DejaVuSans-48"/>
      </defs>
      <g transform="translate(73.908807 247.2975)scale(0.16 -0.16)">
       <use xlink:href="#DejaVuSans-48"/>
      </g>
     </g>
    </g>
    <g id="xtick_2">
     <g id="line2d_2">
      <g>
       <use style="stroke:#000000;stroke-width:0.8;" x="174.194297" xlink:href="#m881fdb5aee" y="228.14"/>
      </g>
     </g>
     <g id="text_2">
      <!-- 200 -->
      <defs>
       <path d="M 19.1875 8.296875
L 53.609375 8.296875
L 53.609375 0
L 7.328125 0
L 7.328125 8.296875
Q 12.9375 14.109375 22.625 23.890625
Q 32.328125 33.6875 34.8125 36.53125
Q 39.546875 41.84375 41.421875 45.53125
Q 43.3125 49.21875 43.3125 52.78125
Q 43.3125 58.59375 39.234375 62.25
Q 35.15625 65.921875 28.609375 65.921875
Q 23.96875 65.921875 18.8125 64.3125
Q 13.671875 62.703125 7.8125 59.421875
L 7.8125 69.390625
Q 13.765625 71.78125 18.9375 73
Q 24.125 74.21875 28.421875 74.21875
Q 39.75 74.21875 46.484375 68.546875
Q 53.21875 62.890625 53.21875 53.421875
Q 53.21875 48.921875 51.53125 44.890625
Q 49.859375 40.875 45.40625 35.40625
Q 44.1875 33.984375 37.640625 27.21875
Q 31.109375 20.453125 19.1875 8.296875
z
" id="DejaVuSans-50"/>
      </defs>
      <g transform="translate(158.924297 247.2975)scale(0.16 -0.16)">
       <use xlink:href="#DejaVuSans-50"/>
       <use x="63.623047" xlink:href="#DejaVuSans-48"/>
       <use x="127.246094" xlink:href="#DejaVuSans-48"/>
      </g>
     </g>
    </g>
    <g id="xtick_3">
     <g id="line2d_3">
      <g>
       <use style="stroke:#000000;stroke-width:0.8;" x="269.389787" xlink:href="#m881fdb5aee" y="228.14"/>
      </g>
     </g>
     <g id="text_3">
      <!-- 400 -->
      <defs>
       <path d="M 37.796875 64.3125
L 12.890625 25.390625
L 37.796875 25.390625
z
M 35.203125 72.90625
L 47.609375 72.90625
L 47.609375 25.390625
L 58.015625 25.390625
L 58.015625 17.1875
L 47.609375 17.1875
L 47.609375 0
L 37.796875 0
L 37.796875 17.1875
L 4.890625 17.1875
L 4.890625 26.703125
z
" id="DejaVuSans-52"/>
      </defs>
      <g transform="translate(254.119787 247.2975)scale(0.16 -0.16)">
       <use xlink:href="#DejaVuSans-52"/>
       <use x="63.623047" xlink:href="#DejaVuSans-48"/>
       <use x="127.246094" xlink:href="#DejaVuSans-48"/>
      </g>
     </g>
    </g>
    <g id="xtick_4">
     <g id="line2d_4">
      <g>
       <use style="stroke:#000000;stroke-width:0.8;" x="364.585277" xlink:href="#m881fdb5aee" y="228.14"/>
      </g>
     </g>
     <g id="text_4">
      <!-- 600 -->
      <defs>
       <path d="M 33.015625 40.375
Q 26.375 40.375 22.484375 35.828125
Q 18.609375 31.296875 18.609375 23.390625
Q 18.609375 15.53125 22.484375 10.953125
Q 26.375 6.390625 33.015625 6.390625
Q 39.65625 6.390625 43.53125 10.953125
Q 47.40625 15.53125 47.40625 23.390625
Q 47.40625 31.296875 43.53125 35.828125
Q 39.65625 40.375 33.015625 40.375
z
M 52.59375 71.296875
L 52.59375 62.3125
Q 48.875 64.0625 45.09375 64.984375
Q 41.3125 65.921875 37.59375 65.921875
Q 27.828125 65.921875 22.671875 59.328125
Q 17.53125 52.734375 16.796875 39.40625
Q 19.671875 43.65625 24.015625 45.921875
Q 28.375 48.1875 33.59375 48.1875
Q 44.578125 48.1875 50.953125 41.515625
Q 57.328125 34.859375 57.328125 23.390625
Q 57.328125 12.15625 50.6875 5.359375
Q 44.046875 -1.421875 33.015625 -1.421875
Q 20.359375 -1.421875 13.671875 8.265625
Q 6.984375 17.96875 6.984375 36.375
Q 6.984375 53.65625 15.1875 63.9375
Q 23.390625 74.21875 37.203125 74.21875
Q 40.921875 74.21875 44.703125 73.484375
Q 48.484375 72.75 52.59375 71.296875
z
" id="DejaVuSans-54"/>
      </defs>
      <g transform="translate(349.315277 247.2975)scale(0.16 -0.16)">
       <use xlink:href="#DejaVuSans-54"/>
       <use x="63.623047" xlink:href="#DejaVuSans-48"/>
       <use x="127.246094" xlink:href="#DejaVuSans-48"/>
      </g>
     </g>
    </g>
    <g id="text_5">
     <!-- PAO1 expression -->
     <defs>
      <path d="M 19.671875 64.796875
L 19.671875 37.40625
L 32.078125 37.40625
Q 38.96875 37.40625 42.71875 40.96875
Q 46.484375 44.53125 46.484375 51.125
Q 46.484375 57.671875 42.71875 61.234375
Q 38.96875 64.796875 32.078125 64.796875
z
M 9.8125 72.90625
L 32.078125 72.90625
Q 44.34375 72.90625 50.609375 67.359375
Q 56.890625 61.8125 56.890625 51.125
Q 56.890625 40.328125 50.609375 34.8125
Q 44.34375 29.296875 32.078125 29.296875
L 19.671875 29.296875
L 19.671875 0
L 9.8125 0
z
" id="DejaVuSans-80"/>
      <path d="M 34.1875 63.1875
L 20.796875 26.90625
L 47.609375 26.90625
z
M 28.609375 72.90625
L 39.796875 72.90625
L 67.578125 0
L 57.328125 0
L 50.6875 18.703125
L 17.828125 18.703125
L 11.1875 0
L 0.78125 0
z
" id="DejaVuSans-65"/>
      <path d="M 39.40625 66.21875
Q 28.65625 66.21875 22.328125 58.203125
Q 16.015625 50.203125 16.015625 36.375
Q 16.015625 22.609375 22.328125 14.59375
Q 28.65625 6.59375 39.40625 6.59375
Q 50.140625 6.59375 56.421875 14.59375
Q 62.703125 22.609375 62.703125 36.375
Q 62.703125 50.203125 56.421875 58.203125
Q 50.140625 66.21875 39.40625 66.21875
z
M 39.40625 74.21875
Q 54.734375 74.21875 63.90625 63.9375
Q 73.09375 53.65625 73.09375 36.375
Q 73.09375 19.140625 63.90625 8.859375
Q 54.734375 -1.421875 39.40625 -1.421875
Q 24.03125 -1.421875 14.8125 8.828125
Q 5.609375 19.09375 5.609375 36.375
Q 5.609375 53.65625 14.8125 63.9375
Q 24.03125 74.21875 39.40625 74.21875
z
" id="DejaVuSans-79"/>
      <path d="M 12.40625 8.296875
L 28.515625 8.296875
L 28.515625 63.921875
L 10.984375 60.40625
L 10.984375 69.390625
L 28.421875 72.90625
L 38.28125 72.90625
L 38.28125 8.296875
L 54.390625 8.296875
L 54.390625 0
L 12.40625 0
z
" id="DejaVuSans-49"/>
      <path id="DejaVuSans-32"/>
      <path d="M 56.203125 29.59375
L 56.203125 25.203125
L 14.890625 25.203125
Q 15.484375 15.921875 20.484375 11.0625
Q 25.484375 6.203125 34.421875 6.203125
Q 39.59375 6.203125 44.453125 7.46875
Q 49.3125 8.734375 54.109375 11.28125
L 54.109375 2.78125
Q 49.265625 0.734375 44.1875 -0.34375
Q 39.109375 -1.421875 33.890625 -1.421875
Q 20.796875 -1.421875 13.15625 6.1875
Q 5.515625 13.8125 5.515625 26.8125
Q 5.515625 40.234375 12.765625 48.109375
Q 20.015625 56 32.328125 56
Q 43.359375 56 49.78125 48.890625
Q 56.203125 41.796875 56.203125 29.59375
z
M 47.21875 32.234375
Q 47.125 39.59375 43.09375 43.984375
Q 39.0625 48.390625 32.421875 48.390625
Q 24.90625 48.390625 20.390625 44.140625
Q 15.875 39.890625 15.1875 32.171875
z
" id="DejaVuSans-101"/>
      <path d="M 54.890625 54.6875
L 35.109375 28.078125
L 55.90625 0
L 45.3125 0
L 29.390625 21.484375
L 13.484375 0
L 2.875 0
L 24.125 28.609375
L 4.6875 54.6875
L 15.28125 54.6875
L 29.78125 35.203125
L 44.28125 54.6875
z
" id="DejaVuSans-120"/>
      <path d="M 18.109375 8.203125
L 18.109375 -20.796875
L 9.078125 -20.796875
L 9.078125 54.6875
L 18.109375 54.6875
L 18.109375 46.390625
Q 20.953125 51.265625 25.265625 53.625
Q 29.59375 56 35.59375 56
Q 45.5625 56 51.78125 48.09375
Q 58.015625 40.1875 58.015625 27.296875
Q 58.015625 14.40625 51.78125 6.484375
Q 45.5625 -1.421875 35.59375 -1.421875
Q 29.59375 -1.421875 25.265625 0.953125
Q 20.953125 3.328125 18.109375 8.203125
z
M 48.6875 27.296875
Q 48.6875 37.203125 44.609375 42.84375
Q 40.53125 48.484375 33.40625 48.484375
Q 26.265625 48.484375 22.1875 42.84375
Q 18.109375 37.203125 18.109375 27.296875
Q 18.109375 17.390625 22.1875 11.75
Q 26.265625 6.109375 33.40625 6.109375
Q 40.53125 6.109375 44.609375 11.75
Q 48.6875 17.390625 48.6875 27.296875
z
" id="DejaVuSans-112"/>
      <path d="M 41.109375 46.296875
Q 39.59375 47.171875 37.8125 47.578125
Q 36.03125 48 33.890625 48
Q 26.265625 48 22.1875 43.046875
Q 18.109375 38.09375 18.109375 28.8125
L 18.109375 0
L 9.078125 0
L 9.078125 54.6875
L 18.109375 54.6875
L 18.109375 46.1875
Q 20.953125 51.171875 25.484375 53.578125
Q 30.03125 56 36.53125 56
Q 37.453125 56 38.578125 55.875
Q 39.703125 55.765625 41.0625 55.515625
z
" id="DejaVuSans-114"/>
      <path d="M 44.28125 53.078125
L 44.28125 44.578125
Q 40.484375 46.53125 36.375 47.5
Q 32.28125 48.484375 27.875 48.484375
Q 21.1875 48.484375 17.84375 46.4375
Q 14.5 44.390625 14.5 40.28125
Q 14.5 37.15625 16.890625 35.375
Q 19.28125 33.59375 26.515625 31.984375
L 29.59375 31.296875
Q 39.15625 29.25 43.1875 25.515625
Q 47.21875 21.78125 47.21875 15.09375
Q 47.21875 7.46875 41.1875 3.015625
Q 35.15625 -1.421875 24.609375 -1.421875
Q 20.21875 -1.421875 15.453125 -0.5625
Q 10.6875 0.296875 5.421875 2
L 5.421875 11.28125
Q 10.40625 8.6875 15.234375 7.390625
Q 20.0625 6.109375 24.8125 6.109375
Q 31.15625 6.109375 34.5625 8.28125
Q 37.984375 10.453125 37.984375 14.40625
Q 37.984375 18.0625 35.515625 20.015625
Q 33.0625 21.96875 24.703125 23.78125
L 21.578125 24.515625
Q 13.234375 26.265625 9.515625 29.90625
Q 5.8125 33.546875 5.8125 39.890625
Q 5.8125 47.609375 11.28125 51.796875
Q 16.75 56 26.8125 56
Q 31.78125 56 36.171875 55.265625
Q 40.578125 54.546875 44.28125 53.078125
z
" id="DejaVuSans-115"/>
      <path d="M 9.421875 54.6875
L 18.40625 54.6875
L 18.40625 0
L 9.421875 0
z
M 9.421875 75.984375
L 18.40625 75.984375
L 18.40625 64.59375
L 9.421875 64.59375
z
" id="DejaVuSans-105"/>
      <path d="M 30.609375 48.390625
Q 23.390625 48.390625 19.1875 42.75
Q 14.984375 37.109375 14.984375 27.296875
Q 14.984375 17.484375 19.15625 11.84375
Q 23.34375 6.203125 30.609375 6.203125
Q 37.796875 6.203125 41.984375 11.859375
Q 46.1875 17.53125 46.1875 27.296875
Q 46.1875 37.015625 41.984375 42.703125
Q 37.796875 48.390625 30.609375 48.390625
z
M 30.609375 56
Q 42.328125 56 49.015625 48.375
Q 55.71875 40.765625 55.71875 27.296875
Q 55.71875 13.875 49.015625 6.21875
Q 42.328125 -1.421875 30.609375 -1.421875
Q 18.84375 -1.421875 12.171875 6.21875
Q 5.515625 13.875 5.515625 27.296875
Q 5.515625 40.765625 12.171875 48.375
Q 18.84375 56 30.609375 56
z
" id="DejaVuSans-111"/>
      <path d="M 54.890625 33.015625
L 54.890625 0
L 45.90625 0
L 45.90625 32.71875
Q 45.90625 40.484375 42.875 44.328125
Q 39.84375 48.1875 33.796875 48.1875
Q 26.515625 48.1875 22.3125 43.546875
Q 18.109375 38.921875 18.109375 30.90625
L 18.109375 0
L 9.078125 0
L 9.078125 54.6875
L 18.109375 54.6875
L 18.109375 46.1875
Q 21.34375 51.125 25.703125 53.5625
Q 30.078125 56 35.796875 56
Q 45.21875 56 50.046875 50.171875
Q 54.890625 44.34375 54.890625 33.015625
z
" id="DejaVuSans-110"/>
     </defs>
     <g transform="translate(155.036406 268.302187)scale(0.18 -0.18)">
      <use xlink:href="#DejaVuSans-80"/>
      <use x="60.208984" xlink:href="#DejaVuSans-65"/>
      <use x="128.601562" xlink:href="#DejaVuSans-79"/>
      <use x="207.3125" xlink:href="#DejaVuSans-49"/>
      <use x="270.935547" xlink:href="#DejaVuSans-32"/>
      <use x="302.722656" xlink:href="#DejaVuSans-101"/>
      <use x="364.230469" xlink:href="#DejaVuSans-120"/>
      <use x="423.410156" xlink:href="#DejaVuSans-112"/>
      <use x="486.886719" xlink:href="#DejaVuSans-114"/>
      <use x="527.96875" xlink:href="#DejaVuSans-101"/>
      <use x="589.492188" xlink:href="#DejaVuSans-115"/>
      <use x="641.591797" xlink:href="#DejaVuSans-115"/>
      <use x="693.691406" xlink:href="#DejaVuSans-105"/>
      <use x="721.474609" xlink:href="#DejaVuSans-111"/>
      <use x="782.65625" xlink:href="#DejaVuSans-110"/>
     </g>
    </g>
   </g>
   <g id="matplotlib.axis_2">
    <g id="ytick_1">
     <g id="line2d_5">
      <defs>
       <path d="M 0 0
L -3.5 0
" id="m8bb89b5294" style="stroke:#000000;stroke-width:0.8;"/>
      </defs>
      <g>
       <use style="stroke:#000000;stroke-width:0.8;" x="63.780625" xlink:href="#m8bb89b5294" y="218.256364"/>
      </g>
     </g>
     <g id="text_6">
      <!-- $\mathdefault{10^{0}}$ -->
      <g transform="translate(28.620625 224.335114)scale(0.16 -0.16)">
       <use transform="translate(0 0.765625)" xlink:href="#DejaVuSans-49"/>
       <use transform="translate(63.623047 0.765625)" xlink:href="#DejaVuSans-48"/>
       <use transform="translate(128.203125 39.046875)scale(0.7)" xlink:href="#DejaVuSans-48"/>
      </g>
     </g>
    </g>
    <g id="ytick_2">
     <g id="line2d_6">
      <g>
       <use style="stroke:#000000;stroke-width:0.8;" x="63.780625" xlink:href="#m8bb89b5294" y="153.228388"/>
      </g>
     </g>
     <g id="text_7">
      <!-- $\mathdefault{10^{1}}$ -->
      <g transform="translate(28.620625 159.307138)scale(0.16 -0.16)">
       <use transform="translate(0 0.684375)" xlink:href="#DejaVuSans-49"/>
       <use transform="translate(63.623047 0.684375)" xlink:href="#DejaVuSans-48"/>
       <use transform="translate(128.203125 38.965625)scale(0.7)" xlink:href="#DejaVuSans-49"/>
      </g>
     </g>
    </g>
    <g id="ytick_3">
     <g id="line2d_7">
      <g>
       <use style="stroke:#000000;stroke-width:0.8;" x="63.780625" xlink:href="#m8bb89b5294" y="88.200412"/>
      </g>
     </g>
     <g id="text_8">
      <!-- $\mathdefault{10^{2}}$ -->
      <g transform="translate(28.620625 94.279162)scale(0.16 -0.16)">
       <use transform="translate(0 0.765625)" xlink:href="#DejaVuSans-49"/>
       <use transform="translate(63.623047 0.765625)" xlink:href="#DejaVuSans-48"/>
       <use transform="translate(128.203125 39.046875)scale(0.7)" xlink:href="#DejaVuSans-50"/>
      </g>
     </g>
    </g>
    <g id="ytick_4">
     <g id="line2d_8">
      <g>
       <use style="stroke:#000000;stroke-width:0.8;" x="63.780625" xlink:href="#m8bb89b5294" y="23.172436"/>
      </g>
     </g>
     <g id="text_9">
      <!-- $\mathdefault{10^{3}}$ -->
      <defs>
       <path d="M 40.578125 39.3125
Q 47.65625 37.796875 51.625 33
Q 55.609375 28.21875 55.609375 21.1875
Q 55.609375 10.40625 48.1875 4.484375
Q 40.765625 -1.421875 27.09375 -1.421875
Q 22.515625 -1.421875 17.65625 -0.515625
Q 12.796875 0.390625 7.625 2.203125
L 7.625 11.71875
Q 11.71875 9.328125 16.59375 8.109375
Q 21.484375 6.890625 26.8125 6.890625
Q 36.078125 6.890625 40.9375 10.546875
Q 45.796875 14.203125 45.796875 21.1875
Q 45.796875 27.640625 41.28125 31.265625
Q 36.765625 34.90625 28.71875 34.90625
L 20.21875 34.90625
L 20.21875 43.015625
L 29.109375 43.015625
Q 36.375 43.015625 40.234375 45.921875
Q 44.09375 48.828125 44.09375 54.296875
Q 44.09375 59.90625 40.109375 62.90625
Q 36.140625 65.921875 28.71875 65.921875
Q 24.65625 65.921875 20.015625 65.03125
Q 15.375 64.15625 9.8125 62.3125
L 9.8125 71.09375
Q 15.4375 72.65625 20.34375 73.4375
Q 25.25 74.21875 29.59375 74.21875
Q 40.828125 74.21875 47.359375 69.109375
Q 53.90625 64.015625 53.90625 55.328125
Q 53.90625 49.265625 50.4375 45.09375
Q 46.96875 40.921875 40.578125 39.3125
z
" id="DejaVuSans-51"/>
      </defs>
      <g transform="translate(28.620625 29.251186)scale(0.16 -0.16)">
       <use transform="translate(0 0.765625)" xlink:href="#DejaVuSans-49"/>
       <use transform="translate(63.623047 0.765625)" xlink:href="#DejaVuSans-48"/>
       <use transform="translate(128.203125 39.046875)scale(0.7)" xlink:href="#DejaVuSans-51"/>
      </g>
     </g>
    </g>
    <g id="ytick_5">
     <g id="line2d_9">
      <defs>
       <path d="M 0 0
L -2 0
" id="md1fa4084ab" style="stroke:#000000;stroke-width:0.6;"/>
      </defs>
      <g>
       <use style="stroke:#000000;stroke-width:0.6;" x="63.780625" xlink:href="#md1fa4084ab" y="228.329325"/>
      </g>
     </g>
    </g>
    <g id="ytick_6">
     <g id="line2d_10">
      <g>
       <use style="stroke:#000000;stroke-width:0.6;" x="63.780625" xlink:href="#md1fa4084ab" y="224.558226"/>
      </g>
     </g>
    </g>
    <g id="ytick_7">
     <g id="line2d_11">
      <g>
       <use style="stroke:#000000;stroke-width:0.6;" x="63.780625" xlink:href="#md1fa4084ab" y="221.231881"/>
      </g>
     </g>
    </g>
    <g id="ytick_8">
     <g id="line2d_12">
      <g>
       <use style="stroke:#000000;stroke-width:0.6;" x="63.780625" xlink:href="#md1fa4084ab" y="198.680992"/>
      </g>
     </g>
    </g>
    <g id="ytick_9">
     <g id="line2d_13">
      <g>
       <use style="stroke:#000000;stroke-width:0.6;" x="63.780625" xlink:href="#md1fa4084ab" y="187.230134"/>
      </g>
     </g>
    </g>
    <g id="ytick_10">
     <g id="line2d_14">
      <g>
       <use style="stroke:#000000;stroke-width:0.6;" x="63.780625" xlink:href="#md1fa4084ab" y="179.105621"/>
      </g>
     </g>
    </g>
    <g id="ytick_11">
     <g id="line2d_15">
      <g>
       <use style="stroke:#000000;stroke-width:0.6;" x="63.780625" xlink:href="#md1fa4084ab" y="172.803759"/>
      </g>
     </g>
    </g>
    <g id="ytick_12">
     <g id="line2d_16">
      <g>
       <use style="stroke:#000000;stroke-width:0.6;" x="63.780625" xlink:href="#md1fa4084ab" y="167.654763"/>
      </g>
     </g>
    </g>
    <g id="ytick_13">
     <g id="line2d_17">
      <g>
       <use style="stroke:#000000;stroke-width:0.6;" x="63.780625" xlink:href="#md1fa4084ab" y="163.301349"/>
      </g>
     </g>
    </g>
    <g id="ytick_14">
     <g id="line2d_18">
      <g>
       <use style="stroke:#000000;stroke-width:0.6;" x="63.780625" xlink:href="#md1fa4084ab" y="159.53025"/>
      </g>
     </g>
    </g>
    <g id="ytick_15">
     <g id="line2d_19">
      <g>
       <use style="stroke:#000000;stroke-width:0.6;" x="63.780625" xlink:href="#md1fa4084ab" y="156.203905"/>
      </g>
     </g>
    </g>
    <g id="ytick_16">
     <g id="line2d_20">
      <g>
       <use style="stroke:#000000;stroke-width:0.6;" x="63.780625" xlink:href="#md1fa4084ab" y="133.653017"/>
      </g>
     </g>
    </g>
    <g id="ytick_17">
     <g id="line2d_21">
      <g>
       <use style="stroke:#000000;stroke-width:0.6;" x="63.780625" xlink:href="#md1fa4084ab" y="122.202158"/>
      </g>
     </g>
    </g>
    <g id="ytick_18">
     <g id="line2d_22">
      <g>
       <use style="stroke:#000000;stroke-width:0.6;" x="63.780625" xlink:href="#md1fa4084ab" y="114.077645"/>
      </g>
     </g>
    </g>
    <g id="ytick_19">
     <g id="line2d_23">
      <g>
       <use style="stroke:#000000;stroke-width:0.6;" x="63.780625" xlink:href="#md1fa4084ab" y="107.775783"/>
      </g>
     </g>
    </g>
    <g id="ytick_20">
     <g id="line2d_24">
      <g>
       <use style="stroke:#000000;stroke-width:0.6;" x="63.780625" xlink:href="#md1fa4084ab" y="102.626787"/>
      </g>
     </g>
    </g>
    <g id="ytick_21">
     <g id="line2d_25">
      <g>
       <use style="stroke:#000000;stroke-width:0.6;" x="63.780625" xlink:href="#md1fa4084ab" y="98.273373"/>
      </g>
     </g>
    </g>
    <g id="ytick_22">
     <g id="line2d_26">
      <g>
       <use style="stroke:#000000;stroke-width:0.6;" x="63.780625" xlink:href="#md1fa4084ab" y="94.502274"/>
      </g>
     </g>
    </g>
    <g id="ytick_23">
     <g id="line2d_27">
      <g>
       <use style="stroke:#000000;stroke-width:0.6;" x="63.780625" xlink:href="#md1fa4084ab" y="91.175929"/>
      </g>
     </g>
    </g>
    <g id="ytick_24">
     <g id="line2d_28">
      <g>
       <use style="stroke:#000000;stroke-width:0.6;" x="63.780625" xlink:href="#md1fa4084ab" y="68.625041"/>
      </g>
     </g>
    </g>
    <g id="ytick_25">
     <g id="line2d_29">
      <g>
       <use style="stroke:#000000;stroke-width:0.6;" x="63.780625" xlink:href="#md1fa4084ab" y="57.174183"/>
      </g>
     </g>
    </g>
    <g id="ytick_26">
     <g id="line2d_30">
      <g>
       <use style="stroke:#000000;stroke-width:0.6;" x="63.780625" xlink:href="#md1fa4084ab" y="49.049669"/>
      </g>
     </g>
    </g>
    <g id="ytick_27">
     <g id="line2d_31">
      <g>
       <use style="stroke:#000000;stroke-width:0.6;" x="63.780625" xlink:href="#md1fa4084ab" y="42.747807"/>
      </g>
     </g>
    </g>
    <g id="ytick_28">
     <g id="line2d_32">
      <g>
       <use style="stroke:#000000;stroke-width:0.6;" x="63.780625" xlink:href="#md1fa4084ab" y="37.598811"/>
      </g>
     </g>
    </g>
    <g id="ytick_29">
     <g id="line2d_33">
      <g>
       <use style="stroke:#000000;stroke-width:0.6;" x="63.780625" xlink:href="#md1fa4084ab" y="33.245397"/>
      </g>
     </g>
    </g>
    <g id="ytick_30">
     <g id="line2d_34">
      <g>
       <use style="stroke:#000000;stroke-width:0.6;" x="63.780625" xlink:href="#md1fa4084ab" y="29.474298"/>
      </g>
     </g>
    </g>
    <g id="ytick_31">
     <g id="line2d_35">
      <g>
       <use style="stroke:#000000;stroke-width:0.6;" x="63.780625" xlink:href="#md1fa4084ab" y="26.147953"/>
      </g>
     </g>
    </g>
    <g id="text_10">
     <!-- Count -->
     <defs>
      <path d="M 64.40625 67.28125
L 64.40625 56.890625
Q 59.421875 61.53125 53.78125 63.8125
Q 48.140625 66.109375 41.796875 66.109375
Q 29.296875 66.109375 22.65625 58.46875
Q 16.015625 50.828125 16.015625 36.375
Q 16.015625 21.96875 22.65625 14.328125
Q 29.296875 6.6875 41.796875 6.6875
Q 48.140625 6.6875 53.78125 8.984375
Q 59.421875 11.28125 64.40625 15.921875
L 64.40625 5.609375
Q 59.234375 2.09375 53.4375 0.328125
Q 47.65625 -1.421875 41.21875 -1.421875
Q 24.65625 -1.421875 15.125 8.703125
Q 5.609375 18.84375 5.609375 36.375
Q 5.609375 53.953125 15.125 64.078125
Q 24.65625 74.21875 41.21875 74.21875
Q 47.75 74.21875 53.53125 72.484375
Q 59.328125 70.75 64.40625 67.28125
z
" id="DejaVuSans-67"/>
      <path d="M 8.5 21.578125
L 8.5 54.6875
L 17.484375 54.6875
L 17.484375 21.921875
Q 17.484375 14.15625 20.5 10.265625
Q 23.53125 6.390625 29.59375 6.390625
Q 36.859375 6.390625 41.078125 11.03125
Q 45.3125 15.671875 45.3125 23.6875
L 45.3125 54.6875
L 54.296875 54.6875
L 54.296875 0
L 45.3125 0
L 45.3125 8.40625
Q 42.046875 3.421875 37.71875 1
Q 33.40625 -1.421875 27.6875 -1.421875
Q 18.265625 -1.421875 13.375 4.4375
Q 8.5 10.296875 8.5 21.578125
z
M 31.109375 56
z
" id="DejaVuSans-117"/>
      <path d="M 18.3125 70.21875
L 18.3125 54.6875
L 36.8125 54.6875
L 36.8125 47.703125
L 18.3125 47.703125
L 18.3125 18.015625
Q 18.3125 11.328125 20.140625 9.421875
Q 21.96875 7.515625 27.59375 7.515625
L 36.8125 7.515625
L 36.8125 0
L 27.59375 0
Q 17.1875 0 13.234375 3.875
Q 9.28125 7.765625 9.28125 18.015625
L 9.28125 47.703125
L 2.6875 47.703125
L 2.6875 54.6875
L 9.28125 54.6875
L 9.28125 70.21875
z
" id="DejaVuSans-116"/>
     </defs>
     <g transform="translate(20.877188 146.147187)rotate(-90)scale(0.18 -0.18)">
      <use xlink:href="#DejaVuSans-67"/>
      <use x="69.824219" xlink:href="#DejaVuSans-111"/>
      <use x="131.005859" xlink:href="#DejaVuSans-117"/>
      <use x="194.384766" xlink:href="#DejaVuSans-110"/>
      <use x="257.763672" xlink:href="#DejaVuSans-116"/>
     </g>
    </g>
   </g>
   <g id="line2d_36">
    <path clip-path="url(#p82dad06438)" d="M 90.898243 228.14
L 90.898243 10.7
" style="fill:none;stroke:#000000;stroke-dasharray:5.55,2.4;stroke-dashoffset:0;stroke-width:1.5;"/>
   </g>
   <g id="patch_103">
    <path d="M 63.780625 228.14
L 63.780625 10.7
" style="fill:none;stroke:#000000;stroke-linecap:square;stroke-linejoin:miter;stroke-width:0.8;"/>
   </g>
   <g id="patch_104">
    <path d="M 398.580625 228.14
L 398.580625 10.7
" style="fill:none;stroke:#000000;stroke-linecap:square;stroke-linejoin:miter;stroke-width:0.8;"/>
   </g>
   <g id="patch_105">
    <path d="M 63.780625 228.14
L 398.580625 228.14
" style="fill:none;stroke:#000000;stroke-linecap:square;stroke-linejoin:miter;stroke-width:0.8;"/>
   </g>
   <g id="patch_106">
    <path d="M 63.780625 10.7
L 398.580625 10.7
" style="fill:none;stroke:#000000;stroke-linecap:square;stroke-linejoin:miter;stroke-width:0.8;"/>
   </g>
   <g id="legend_1">
    <g id="patch_107">
     <path d="M 256.988125 70.47
L 387.380625 70.47
Q 390.580625 70.47 390.580625 67.27
L 390.580625 21.9
Q 390.580625 18.7 387.380625 18.7
L 256.988125 18.7
Q 253.788125 18.7 253.788125 21.9
L 253.788125 67.27
Q 253.788125 70.47 256.988125 70.47
z
" style="fill:#ffffff;opacity:0.8;stroke:#cccccc;stroke-linejoin:miter;"/>
    </g>
    <g id="patch_108">
     <path d="M 260.188125 37.2575
L 292.188125 37.2575
L 292.188125 26.0575
L 260.188125 26.0575
z
" style="fill:#795c34;opacity:0.6;"/>
    </g>
    <g id="text_11">
     <!-- non-PAO1 -->
     <defs>
      <path d="M 4.890625 31.390625
L 31.203125 31.390625
L 31.203125 23.390625
L 4.890625 23.390625
z
" id="DejaVuSans-45"/>
     </defs>
     <g transform="translate(304.988125 37.2575)scale(0.16 -0.16)">
      <use xlink:href="#DejaVuSans-110"/>
      <use x="63.378906" xlink:href="#DejaVuSans-111"/>
      <use x="124.560547" xlink:href="#DejaVuSans-110"/>
      <use x="187.939453" xlink:href="#DejaVuSans-45"/>
      <use x="224.023438" xlink:href="#DejaVuSans-80"/>
      <use x="284.232422" xlink:href="#DejaVuSans-65"/>
      <use x="352.625" xlink:href="#DejaVuSans-79"/>
      <use x="431.335938" xlink:href="#DejaVuSans-49"/>
     </g>
    </g>
    <g id="patch_109">
     <path d="M 260.188125 60.7425
L 292.188125 60.7425
L 292.188125 49.5425
L 260.188125 49.5425
z
" style="fill:#c6a9b5;opacity:0.7;"/>
    </g>
    <g id="text_12">
     <!-- PAO1 -->
     <g transform="translate(304.988125 60.7425)scale(0.16 -0.16)">
      <use xlink:href="#DejaVuSans-80"/>
      <use x="60.208984" xlink:href="#DejaVuSans-65"/>
      <use x="128.601562" xlink:href="#DejaVuSans-79"/>
      <use x="207.3125" xlink:href="#DejaVuSans-49"/>
     </g>
    </g>
   </g>
  </g>
 </g>
 <defs>
  <clipPath id="p82dad06438">
   <rect height="217.44" width="334.8" x="63.780625" y="10.7"/>
  </clipPath>
 </defs>
</svg>
