<?xml version="1.0" encoding="utf-8" standalone="no"?>
<!DOCTYPE svg PUBLIC "-//W3C//DTD SVG 1.1//EN"
  "http://www.w3.org/Graphics/SVG/1.1/DTD/svg11.dtd">
<!-- Created with matplotlib (https://matplotlib.org/) -->
<svg height="288pt" version="1.1" viewBox="0 0 432 288" width="432pt" xmlns="http://www.w3.org/2000/svg" xmlns:xlink="http://www.w3.org/1999/xlink">
 <defs>
  <style type="text/css">
*{stroke-linecap:butt;stroke-linejoin:round;}
  </style>
 </defs>
 <g id="figure_1">
  <g id="patch_1">
   <path d="M 0 288
L 432 288
L 432 0
L 0 0
z
" style="fill:#ffffff;"/>
  </g>
  <g id="axes_1">
   <g id="patch_2">
    <path d="M 54 252
L 388.8 252
L 388.8 34.56
L 54 34.56
z
" style="fill:#ffffff;"/>
   </g>
   <g id="patch_3">
    <path clip-path="url(#p247e086485)" d="M 69.218182 252
L 71.667741 252
L 71.667741 44.914286
L 69.218182 44.914286
z
" style="fill:#795c34;opacity:0.7;"/>
   </g>
   <g id="patch_4">
    <path clip-path="url(#p247e086485)" d="M 71.667741 252
L 74.117301 252
L 74.117301 124.842105
L 71.667741 124.842105
z
" style="fill:#795c34;opacity:0.7;"/>
   </g>
   <g id="patch_5">
    <path clip-path="url(#p247e086485)" d="M 74.117301 252
L 76.566861 252
L 76.566861 175.705263
L 74.117301 175.705263
z
" style="fill:#795c34;opacity:0.7;"/>
   </g>
   <g id="patch_6">
    <path clip-path="url(#p247e086485)" d="M 76.566861 252
L 79.01642 252
L 79.01642 208.403008
L 76.566861 208.403008
z
" style="fill:#795c34;opacity:0.7;"/>
   </g>
   <g id="patch_7">
    <path clip-path="url(#p247e086485)" d="M 79.01642 252
L 81.46598 252
L 81.46598 222.935338
L 79.01642 222.935338
z
" style="fill:#795c34;opacity:0.7;"/>
   </g>
   <g id="patch_8">
    <path clip-path="url(#p247e086485)" d="M 81.46598 252
L 83.915539 252
L 83.915539 236.559398
L 81.46598 236.559398
z
" style="fill:#795c34;opacity:0.7;"/>
   </g>
   <g id="patch_9">
    <path clip-path="url(#p247e086485)" d="M 83.915539 252
L 86.365099 252
L 86.365099 241.100752
L 83.915539 241.100752
z
" style="fill:#795c34;opacity:0.7;"/>
   </g>
   <g id="patch_10">
    <path clip-path="url(#p247e086485)" d="M 86.365099 252
L 88.814658 252
L 88.814658 247.458647
L 86.365099 247.458647
z
" style="fill:#795c34;opacity:0.7;"/>
   </g>
   <g id="patch_11">
    <path clip-path="url(#p247e086485)" d="M 88.814658 252
L 91.264218 252
L 91.264218 244.733835
L 88.814658 244.733835
z
" style="fill:#795c34;opacity:0.7;"/>
   </g>
   <g id="patch_12">
    <path clip-path="url(#p247e086485)" d="M 91.264218 252
L 93.713777 252
L 93.713777 246.550376
L 91.264218 246.550376
z
" style="fill:#795c34;opacity:0.7;"/>
   </g>
   <g id="patch_13">
    <path clip-path="url(#p247e086485)" d="M 93.713777 252
L 96.163337 252
L 96.163337 250.183459
L 93.713777 250.183459
z
" style="fill:#795c34;opacity:0.7;"/>
   </g>
   <g id="patch_14">
    <path clip-path="url(#p247e086485)" d="M 96.163337 252
L 98.612897 252
L 98.612897 245.642105
L 96.163337 245.642105
z
" style="fill:#795c34;opacity:0.7;"/>
   </g>
   <g id="patch_15">
    <path clip-path="url(#p247e086485)" d="M 98.612897 252
L 101.062456 252
L 101.062456 248.366917
L 98.612897 248.366917
z
" style="fill:#795c34;opacity:0.7;"/>
   </g>
   <g id="patch_16">
    <path clip-path="url(#p247e086485)" d="M 101.062456 252
L 103.512016 252
L 103.512016 248.366917
L 101.062456 248.366917
z
" style="fill:#795c34;opacity:0.7;"/>
   </g>
   <g id="patch_17">
    <path clip-path="url(#p247e086485)" d="M 103.512016 252
L 105.961575 252
L 105.961575 248.366917
L 103.512016 248.366917
z
" style="fill:#795c34;opacity:0.7;"/>
   </g>
   <g id="patch_18">
    <path clip-path="url(#p247e086485)" d="M 105.961575 252
L 108.411135 252
L 108.411135 247.458647
L 105.961575 247.458647
z
" style="fill:#795c34;opacity:0.7;"/>
   </g>
   <g id="patch_19">
    <path clip-path="url(#p247e086485)" d="M 108.411135 252
L 110.860694 252
L 110.860694 251.091729
L 108.411135 251.091729
z
" style="fill:#795c34;opacity:0.7;"/>
   </g>
   <g id="patch_20">
    <path clip-path="url(#p247e086485)" d="M 110.860694 252
L 113.310254 252
L 113.310254 249.275188
L 110.860694 249.275188
z
" style="fill:#795c34;opacity:0.7;"/>
   </g>
   <g id="patch_21">
    <path clip-path="url(#p247e086485)" d="M 113.310254 252
L 115.759814 252
L 115.759814 242.917293
L 113.310254 242.917293
z
" style="fill:#795c34;opacity:0.7;"/>
   </g>
   <g id="patch_22">
    <path clip-path="url(#p247e086485)" d="M 115.759814 252
L 118.209373 252
L 118.209373 248.366917
L 115.759814 248.366917
z
" style="fill:#795c34;opacity:0.7;"/>
   </g>
   <g id="patch_23">
    <path clip-path="url(#p247e086485)" d="M 118.209373 252
L 120.658933 252
L 120.658933 249.275188
L 118.209373 249.275188
z
" style="fill:#795c34;opacity:0.7;"/>
   </g>
   <g id="patch_24">
    <path clip-path="url(#p247e086485)" d="M 120.658933 252
L 123.108492 252
L 123.108492 249.275188
L 120.658933 249.275188
z
" style="fill:#795c34;opacity:0.7;"/>
   </g>
   <g id="patch_25">
    <path clip-path="url(#p247e086485)" d="M 123.108492 252
L 125.558052 252
L 125.558052 251.091729
L 123.108492 251.091729
z
" style="fill:#795c34;opacity:0.7;"/>
   </g>
   <g id="patch_26">
    <path clip-path="url(#p247e086485)" d="M 125.558052 252
L 128.007611 252
L 128.007611 250.183459
L 125.558052 250.183459
z
" style="fill:#795c34;opacity:0.7;"/>
   </g>
   <g id="patch_27">
    <path clip-path="url(#p247e086485)" d="M 128.007611 252
L 130.457171 252
L 130.457171 251.091729
L 128.007611 251.091729
z
" style="fill:#795c34;opacity:0.7;"/>
   </g>
   <g id="patch_28">
    <path clip-path="url(#p247e086485)" d="M 130.457171 252
L 132.906731 252
L 132.906731 251.091729
L 130.457171 251.091729
z
" style="fill:#795c34;opacity:0.7;"/>
   </g>
   <g id="patch_29">
    <path clip-path="url(#p247e086485)" d="M 132.906731 252
L 135.35629 252
L 135.35629 250.183459
L 132.906731 250.183459
z
" style="fill:#795c34;opacity:0.7;"/>
   </g>
   <g id="patch_30">
    <path clip-path="url(#p247e086485)" d="M 135.35629 252
L 137.80585 252
L 137.80585 252
L 135.35629 252
z
" style="fill:#795c34;opacity:0.7;"/>
   </g>
   <g id="patch_31">
    <path clip-path="url(#p247e086485)" d="M 137.80585 252
L 140.255409 252
L 140.255409 252
L 137.80585 252
z
" style="fill:#795c34;opacity:0.7;"/>
   </g>
   <g id="patch_32">
    <path clip-path="url(#p247e086485)" d="M 140.255409 252
L 142.704969 252
L 142.704969 251.091729
L 140.255409 251.091729
z
" style="fill:#795c34;opacity:0.7;"/>
   </g>
   <g id="patch_33">
    <path clip-path="url(#p247e086485)" d="M 142.704969 252
L 145.154528 252
L 145.154528 252
L 142.704969 252
z
" style="fill:#795c34;opacity:0.7;"/>
   </g>
   <g id="patch_34">
    <path clip-path="url(#p247e086485)" d="M 145.154528 252
L 147.604088 252
L 147.604088 252
L 145.154528 252
z
" style="fill:#795c34;opacity:0.7;"/>
   </g>
   <g id="patch_35">
    <path clip-path="url(#p247e086485)" d="M 147.604088 252
L 150.053648 252
L 150.053648 251.091729
L 147.604088 251.091729
z
" style="fill:#795c34;opacity:0.7;"/>
   </g>
   <g id="patch_36">
    <path clip-path="url(#p247e086485)" d="M 150.053648 252
L 152.503207 252
L 152.503207 250.183459
L 150.053648 250.183459
z
" style="fill:#795c34;opacity:0.7;"/>
   </g>
   <g id="patch_37">
    <path clip-path="url(#p247e086485)" d="M 152.503207 252
L 154.952767 252
L 154.952767 251.091729
L 152.503207 251.091729
z
" style="fill:#795c34;opacity:0.7;"/>
   </g>
   <g id="patch_38">
    <path clip-path="url(#p247e086485)" d="M 154.952767 252
L 157.402326 252
L 157.402326 248.366917
L 154.952767 248.366917
z
" style="fill:#795c34;opacity:0.7;"/>
   </g>
   <g id="patch_39">
    <path clip-path="url(#p247e086485)" d="M 157.402326 252
L 159.851886 252
L 159.851886 249.275188
L 157.402326 249.275188
z
" style="fill:#795c34;opacity:0.7;"/>
   </g>
   <g id="patch_40">
    <path clip-path="url(#p247e086485)" d="M 159.851886 252
L 162.301445 252
L 162.301445 249.275188
L 159.851886 249.275188
z
" style="fill:#795c34;opacity:0.7;"/>
   </g>
   <g id="patch_41">
    <path clip-path="url(#p247e086485)" d="M 162.301445 252
L 164.751005 252
L 164.751005 251.091729
L 162.301445 251.091729
z
" style="fill:#795c34;opacity:0.7;"/>
   </g>
   <g id="patch_42">
    <path clip-path="url(#p247e086485)" d="M 164.751005 252
L 167.200565 252
L 167.200565 252
L 164.751005 252
z
" style="fill:#795c34;opacity:0.7;"/>
   </g>
   <g id="patch_43">
    <path clip-path="url(#p247e086485)" d="M 167.200565 252
L 169.650124 252
L 169.650124 251.091729
L 167.200565 251.091729
z
" style="fill:#795c34;opacity:0.7;"/>
   </g>
   <g id="patch_44">
    <path clip-path="url(#p247e086485)" d="M 169.650124 252
L 172.099684 252
L 172.099684 251.091729
L 169.650124 251.091729
z
" style="fill:#795c34;opacity:0.7;"/>
   </g>
   <g id="patch_45">
    <path clip-path="url(#p247e086485)" d="M 172.099684 252
L 174.549243 252
L 174.549243 252
L 172.099684 252
z
" style="fill:#795c34;opacity:0.7;"/>
   </g>
   <g id="patch_46">
    <path clip-path="url(#p247e086485)" d="M 174.549243 252
L 176.998803 252
L 176.998803 251.091729
L 174.549243 251.091729
z
" style="fill:#795c34;opacity:0.7;"/>
   </g>
   <g id="patch_47">
    <path clip-path="url(#p247e086485)" d="M 176.998803 252
L 179.448362 252
L 179.448362 252
L 176.998803 252
z
" style="fill:#795c34;opacity:0.7;"/>
   </g>
   <g id="patch_48">
    <path clip-path="url(#p247e086485)" d="M 179.448362 252
L 181.897922 252
L 181.897922 252
L 179.448362 252
z
" style="fill:#795c34;opacity:0.7;"/>
   </g>
   <g id="patch_49">
    <path clip-path="url(#p247e086485)" d="M 181.897922 252
L 184.347481 252
L 184.347481 252
L 181.897922 252
z
" style="fill:#795c34;opacity:0.7;"/>
   </g>
   <g id="patch_50">
    <path clip-path="url(#p247e086485)" d="M 184.347481 252
L 186.797041 252
L 186.797041 252
L 184.347481 252
z
" style="fill:#795c34;opacity:0.7;"/>
   </g>
   <g id="patch_51">
    <path clip-path="url(#p247e086485)" d="M 186.797041 252
L 189.246601 252
L 189.246601 252
L 186.797041 252
z
" style="fill:#795c34;opacity:0.7;"/>
   </g>
   <g id="patch_52">
    <path clip-path="url(#p247e086485)" d="M 189.246601 252
L 191.69616 252
L 191.69616 251.091729
L 189.246601 251.091729
z
" style="fill:#795c34;opacity:0.7;"/>
   </g>
   <g id="patch_53">
    <path clip-path="url(#p247e086485)" d="M 93.735777 252
L 105.396029 252
L 105.396029 231.109774
L 93.735777 231.109774
z
" style="fill:#895881;opacity:0.8;"/>
   </g>
   <g id="patch_54">
    <path clip-path="url(#p247e086485)" d="M 105.396029 252
L 117.05628 252
L 117.05628 181.154887
L 105.396029 181.154887
z
" style="fill:#895881;opacity:0.8;"/>
   </g>
   <g id="patch_55">
    <path clip-path="url(#p247e086485)" d="M 117.05628 252
L 128.716532 252
L 128.716532 175.705263
L 117.05628 175.705263
z
" style="fill:#895881;opacity:0.8;"/>
   </g>
   <g id="patch_56">
    <path clip-path="url(#p247e086485)" d="M 128.716532 252
L 140.376784 252
L 140.376784 191.145865
L 128.716532 191.145865
z
" style="fill:#895881;opacity:0.8;"/>
   </g>
   <g id="patch_57">
    <path clip-path="url(#p247e086485)" d="M 140.376784 252
L 152.037036 252
L 152.037036 181.154887
L 140.376784 181.154887
z
" style="fill:#895881;opacity:0.8;"/>
   </g>
   <g id="patch_58">
    <path clip-path="url(#p247e086485)" d="M 152.037036 252
L 163.697287 252
L 163.697287 224.75188
L 152.037036 224.75188
z
" style="fill:#895881;opacity:0.8;"/>
   </g>
   <g id="patch_59">
    <path clip-path="url(#p247e086485)" d="M 163.697287 252
L 175.357539 252
L 175.357539 221.118797
L 163.697287 221.118797
z
" style="fill:#895881;opacity:0.8;"/>
   </g>
   <g id="patch_60">
    <path clip-path="url(#p247e086485)" d="M 175.357539 252
L 187.017791 252
L 187.017791 232.018045
L 175.357539 232.018045
z
" style="fill:#895881;opacity:0.8;"/>
   </g>
   <g id="patch_61">
    <path clip-path="url(#p247e086485)" d="M 187.017791 252
L 198.678042 252
L 198.678042 237.467669
L 187.017791 237.467669
z
" style="fill:#895881;opacity:0.8;"/>
   </g>
   <g id="patch_62">
    <path clip-path="url(#p247e086485)" d="M 198.678042 252
L 210.338294 252
L 210.338294 239.284211
L 198.678042 239.284211
z
" style="fill:#895881;opacity:0.8;"/>
   </g>
   <g id="patch_63">
    <path clip-path="url(#p247e086485)" d="M 210.338294 252
L 221.998546 252
L 221.998546 245.642105
L 210.338294 245.642105
z
" style="fill:#895881;opacity:0.8;"/>
   </g>
   <g id="patch_64">
    <path clip-path="url(#p247e086485)" d="M 221.998546 252
L 233.658798 252
L 233.658798 242.009023
L 221.998546 242.009023
z
" style="fill:#895881;opacity:0.8;"/>
   </g>
   <g id="patch_65">
    <path clip-path="url(#p247e086485)" d="M 233.658798 252
L 245.319049 252
L 245.319049 246.550376
L 233.658798 246.550376
z
" style="fill:#895881;opacity:0.8;"/>
   </g>
   <g id="patch_66">
    <path clip-path="url(#p247e086485)" d="M 245.319049 252
L 256.979301 252
L 256.979301 246.550376
L 245.319049 246.550376
z
" style="fill:#895881;opacity:0.8;"/>
   </g>
   <g id="patch_67">
    <path clip-path="url(#p247e086485)" d="M 256.979301 252
L 268.639553 252
L 268.639553 251.091729
L 256.979301 251.091729
z
" style="fill:#895881;opacity:0.8;"/>
   </g>
   <g id="patch_68">
    <path clip-path="url(#p247e086485)" d="M 268.639553 252
L 280.299804 252
L 280.299804 249.275188
L 268.639553 249.275188
z
" style="fill:#895881;opacity:0.8;"/>
   </g>
   <g id="patch_69">
    <path clip-path="url(#p247e086485)" d="M 280.299804 252
L 291.960056 252
L 291.960056 250.183459
L 280.299804 250.183459
z
" style="fill:#895881;opacity:0.8;"/>
   </g>
   <g id="patch_70">
    <path clip-path="url(#p247e086485)" d="M 291.960056 252
L 303.620308 252
L 303.620308 250.183459
L 291.960056 250.183459
z
" style="fill:#895881;opacity:0.8;"/>
   </g>
   <g id="patch_71">
    <path clip-path="url(#p247e086485)" d="M 303.620308 252
L 315.28056 252
L 315.28056 252
L 303.620308 252
z
" style="fill:#895881;opacity:0.8;"/>
   </g>
   <g id="patch_72">
    <path clip-path="url(#p247e086485)" d="M 315.28056 252
L 326.940811 252
L 326.940811 250.183459
L 315.28056 250.183459
z
" style="fill:#895881;opacity:0.8;"/>
   </g>
   <g id="patch_73">
    <path clip-path="url(#p247e086485)" d="M 326.940811 252
L 338.601063 252
L 338.601063 252
L 326.940811 252
z
" style="fill:#895881;opacity:0.8;"/>
   </g>
   <g id="patch_74">
    <path clip-path="url(#p247e086485)" d="M 338.601063 252
L 350.261315 252
L 350.261315 249.275188
L 338.601063 249.275188
z
" style="fill:#895881;opacity:0.8;"/>
   </g>
   <g id="patch_75">
    <path clip-path="url(#p247e086485)" d="M 350.261315 252
L 361.921566 252
L 361.921566 251.091729
L 350.261315 251.091729
z
" style="fill:#895881;opacity:0.8;"/>
   </g>
   <g id="patch_76">
    <path clip-path="url(#p247e086485)" d="M 361.921566 252
L 373.581818 252
L 373.581818 251.091729
L 361.921566 251.091729
z
" style="fill:#895881;opacity:0.8;"/>
   </g>
   <g id="matplotlib.axis_1">
    <g id="xtick_1">
     <g id="line2d_1">
      <defs>
       <path d="M 0 0
L 0 3.5
" id="m16a6add020" style="stroke:#000000;stroke-width:0.8;"/>
      </defs>
      <g>
       <use style="stroke:#000000;stroke-width:0.8;" x="68.819355" xlink:href="#m16a6add020" y="252"/>
      </g>
     </g>
     <g id="text_1">
      <!-- 0 -->
      <defs>
       <path d="M 31.78125 66.40625
Q 24.171875 66.40625 20.328125 58.90625
Q 16.5 51.421875 16.5 36.375
Q 16.5 21.390625 20.328125 13.890625
Q 24.171875 6.390625 31.78125 6.390625
Q 39.453125 6.390625 43.28125 13.890625
Q 47.125 21.390625 47.125 36.375
Q 47.125 51.421875 43.28125 58.90625
Q 39.453125 66.40625 31.78125 66.40625
z
M 31.78125 74.21875
Q 44.046875 74.21875 50.515625 64.515625
Q 56.984375 54.828125 56.984375 36.375
Q 56.984375 17.96875 50.515625 8.265625
Q 44.046875 -1.421875 31.78125 -1.421875
Q 19.53125 -1.421875 13.0625 8.265625
Q 6.59375 17.96875 6.59375 36.375
Q 6.59375 54.828125 13.0625 64.515625
Q 19.53125 74.21875 31.78125 74.21875
z
" id="DejaVuSans-48"/>
      </defs>
      <g transform="translate(63.729355 271.1575)scale(0.16 -0.16)">
       <use xlink:href="#DejaVuSans-48"/>
      </g>
     </g>
    </g>
    <g id="xtick_2">
     <g id="line2d_2">
      <g>
       <use style="stroke:#000000;stroke-width:0.8;" x="167.379688" xlink:href="#m16a6add020" y="252"/>
      </g>
     </g>
     <g id="text_2">
      <!-- 100 -->
      <defs>
       <path d="M 12.40625 8.296875
L 28.515625 8.296875
L 28.515625 63.921875
L 10.984375 60.40625
L 10.984375 69.390625
L 28.421875 72.90625
L 38.28125 72.90625
L 38.28125 8.296875
L 54.390625 8.296875
L 54.390625 0
L 12.40625 0
z
" id="DejaVuSans-49"/>
      </defs>
      <g transform="translate(152.109688 271.1575)scale(0.16 -0.16)">
       <use xlink:href="#DejaVuSans-49"/>
       <use x="63.623047" xlink:href="#DejaVuSans-48"/>
       <use x="127.246094" xlink:href="#DejaVuSans-48"/>
      </g>
     </g>
    </g>
    <g id="xtick_3">
     <g id="line2d_3">
      <g>
       <use style="stroke:#000000;stroke-width:0.8;" x="265.94002" xlink:href="#m16a6add020" y="252"/>
      </g>
     </g>
     <g id="text_3">
      <!-- 200 -->
      <defs>
       <path d="M 19.1875 8.296875
L 53.609375 8.296875
L 53.609375 0
L 7.328125 0
L 7.328125 8.296875
Q 12.9375 14.109375 22.625 23.890625
Q 32.328125 33.6875 34.8125 36.53125
Q 39.546875 41.84375 41.421875 45.53125
Q 43.3125 49.21875 43.3125 52.78125
Q 43.3125 58.59375 39.234375 62.25
Q 35.15625 65.921875 28.609375 65.921875
Q 23.96875 65.921875 18.8125 64.3125
Q 13.671875 62.703125 7.8125 59.421875
L 7.8125 69.390625
Q 13.765625 71.78125 18.9375 73
Q 24.125 74.21875 28.421875 74.21875
Q 39.75 74.21875 46.484375 68.546875
Q 53.21875 62.890625 53.21875 53.421875
Q 53.21875 48.921875 51.53125 44.890625
Q 49.859375 40.875 45.40625 35.40625
Q 44.1875 33.984375 37.640625 27.21875
Q 31.109375 20.453125 19.1875 8.296875
z
" id="DejaVuSans-50"/>
      </defs>
      <g transform="translate(250.67002 271.1575)scale(0.16 -0.16)">
       <use xlink:href="#DejaVuSans-50"/>
       <use x="63.623047" xlink:href="#DejaVuSans-48"/>
       <use x="127.246094" xlink:href="#DejaVuSans-48"/>
      </g>
     </g>
    </g>
    <g id="xtick_4">
     <g id="line2d_4">
      <g>
       <use style="stroke:#000000;stroke-width:0.8;" x="364.500352" xlink:href="#m16a6add020" y="252"/>
      </g>
     </g>
     <g id="text_4">
      <!-- 300 -->
      <defs>
       <path d="M 40.578125 39.3125
Q 47.65625 37.796875 51.625 33
Q 55.609375 28.21875 55.609375 21.1875
Q 55.609375 10.40625 48.1875 4.484375
Q 40.765625 -1.421875 27.09375 -1.421875
Q 22.515625 -1.421875 17.65625 -0.515625
Q 12.796875 0.390625 7.625 2.203125
L 7.625 11.71875
Q 11.71875 9.328125 16.59375 8.109375
Q 21.484375 6.890625 26.8125 6.890625
Q 36.078125 6.890625 40.9375 10.546875
Q 45.796875 14.203125 45.796875 21.1875
Q 45.796875 27.640625 41.28125 31.265625
Q 36.765625 34.90625 28.71875 34.90625
L 20.21875 34.90625
L 20.21875 43.015625
L 29.109375 43.015625
Q 36.375 43.015625 40.234375 45.921875
Q 44.09375 48.828125 44.09375 54.296875
Q 44.09375 59.90625 40.109375 62.90625
Q 36.140625 65.921875 28.71875 65.921875
Q 24.65625 65.921875 20.015625 65.03125
Q 15.375 64.15625 9.8125 62.3125
L 9.8125 71.09375
Q 15.4375 72.65625 20.34375 73.4375
Q 25.25 74.21875 29.59375 74.21875
Q 40.828125 74.21875 47.359375 69.109375
Q 53.90625 64.015625 53.90625 55.328125
Q 53.90625 49.265625 50.4375 45.09375
Q 46.96875 40.921875 40.578125 39.3125
z
" id="DejaVuSans-51"/>
      </defs>
      <g transform="translate(349.230352 271.1575)scale(0.16 -0.16)">
       <use xlink:href="#DejaVuSans-51"/>
       <use x="63.623047" xlink:href="#DejaVuSans-48"/>
       <use x="127.246094" xlink:href="#DejaVuSans-48"/>
      </g>
     </g>
    </g>
    <g id="text_5">
     <!-- PA14 expression -->
     <defs>
      <path d="M 19.671875 64.796875
L 19.671875 37.40625
L 32.078125 37.40625
Q 38.96875 37.40625 42.71875 40.96875
Q 46.484375 44.53125 46.484375 51.125
Q 46.484375 57.671875 42.71875 61.234375
Q 38.96875 64.796875 32.078125 64.796875
z
M 9.8125 72.90625
L 32.078125 72.90625
Q 44.34375 72.90625 50.609375 67.359375
Q 56.890625 61.8125 56.890625 51.125
Q 56.890625 40.328125 50.609375 34.8125
Q 44.34375 29.296875 32.078125 29.296875
L 19.671875 29.296875
L 19.671875 0
L 9.8125 0
z
" id="DejaVuSans-80"/>
      <path d="M 34.1875 63.1875
L 20.796875 26.90625
L 47.609375 26.90625
z
M 28.609375 72.90625
L 39.796875 72.90625
L 67.578125 0
L 57.328125 0
L 50.6875 18.703125
L 17.828125 18.703125
L 11.1875 0
L 0.78125 0
z
" id="DejaVuSans-65"/>
      <path d="M 37.796875 64.3125
L 12.890625 25.390625
L 37.796875 25.390625
z
M 35.203125 72.90625
L 47.609375 72.90625
L 47.609375 25.390625
L 58.015625 25.390625
L 58.015625 17.1875
L 47.609375 17.1875
L 47.609375 0
L 37.796875 0
L 37.796875 17.1875
L 4.890625 17.1875
L 4.890625 26.703125
z
" id="DejaVuSans-52"/>
      <path id="DejaVuSans-32"/>
      <path d="M 56.203125 29.59375
L 56.203125 25.203125
L 14.890625 25.203125
Q 15.484375 15.921875 20.484375 11.0625
Q 25.484375 6.203125 34.421875 6.203125
Q 39.59375 6.203125 44.453125 7.46875
Q 49.3125 8.734375 54.109375 11.28125
L 54.109375 2.78125
Q 49.265625 0.734375 44.1875 -0.34375
Q 39.109375 -1.421875 33.890625 -1.421875
Q 20.796875 -1.421875 13.15625 6.1875
Q 5.515625 13.8125 5.515625 26.8125
Q 5.515625 40.234375 12.765625 48.109375
Q 20.015625 56 32.328125 56
Q 43.359375 56 49.78125 48.890625
Q 56.203125 41.796875 56.203125 29.59375
z
M 47.21875 32.234375
Q 47.125 39.59375 43.09375 43.984375
Q 39.0625 48.390625 32.421875 48.390625
Q 24.90625 48.390625 20.390625 44.140625
Q 15.875 39.890625 15.1875 32.171875
z
" id="DejaVuSans-101"/>
      <path d="M 54.890625 54.6875
L 35.109375 28.078125
L 55.90625 0
L 45.3125 0
L 29.390625 21.484375
L 13.484375 0
L 2.875 0
L 24.125 28.609375
L 4.6875 54.6875
L 15.28125 54.6875
L 29.78125 35.203125
L 44.28125 54.6875
z
" id="DejaVuSans-120"/>
      <path d="M 18.109375 8.203125
L 18.109375 -20.796875
L 9.078125 -20.796875
L 9.078125 54.6875
L 18.109375 54.6875
L 18.109375 46.390625
Q 20.953125 51.265625 25.265625 53.625
Q 29.59375 56 35.59375 56
Q 45.5625 56 51.78125 48.09375
Q 58.015625 40.1875 58.015625 27.296875
Q 58.015625 14.40625 51.78125 6.484375
Q 45.5625 -1.421875 35.59375 -1.421875
Q 29.59375 -1.421875 25.265625 0.953125
Q 20.953125 3.328125 18.109375 8.203125
z
M 48.6875 27.296875
Q 48.6875 37.203125 44.609375 42.84375
Q 40.53125 48.484375 33.40625 48.484375
Q 26.265625 48.484375 22.1875 42.84375
Q 18.109375 37.203125 18.109375 27.296875
Q 18.109375 17.390625 22.1875 11.75
Q 26.265625 6.109375 33.40625 6.109375
Q 40.53125 6.109375 44.609375 11.75
Q 48.6875 17.390625 48.6875 27.296875
z
" id="DejaVuSans-112"/>
      <path d="M 41.109375 46.296875
Q 39.59375 47.171875 37.8125 47.578125
Q 36.03125 48 33.890625 48
Q 26.265625 48 22.1875 43.046875
Q 18.109375 38.09375 18.109375 28.8125
L 18.109375 0
L 9.078125 0
L 9.078125 54.6875
L 18.109375 54.6875
L 18.109375 46.1875
Q 20.953125 51.171875 25.484375 53.578125
Q 30.03125 56 36.53125 56
Q 37.453125 56 38.578125 55.875
Q 39.703125 55.765625 41.0625 55.515625
z
" id="DejaVuSans-114"/>
      <path d="M 44.28125 53.078125
L 44.28125 44.578125
Q 40.484375 46.53125 36.375 47.5
Q 32.28125 48.484375 27.875 48.484375
Q 21.1875 48.484375 17.84375 46.4375
Q 14.5 44.390625 14.5 40.28125
Q 14.5 37.15625 16.890625 35.375
Q 19.28125 33.59375 26.515625 31.984375
L 29.59375 31.296875
Q 39.15625 29.25 43.1875 25.515625
Q 47.21875 21.78125 47.21875 15.09375
Q 47.21875 7.46875 41.1875 3.015625
Q 35.15625 -1.421875 24.609375 -1.421875
Q 20.21875 -1.421875 15.453125 -0.5625
Q 10.6875 0.296875 5.421875 2
L 5.421875 11.28125
Q 10.40625 8.6875 15.234375 7.390625
Q 20.0625 6.109375 24.8125 6.109375
Q 31.15625 6.109375 34.5625 8.28125
Q 37.984375 10.453125 37.984375 14.40625
Q 37.984375 18.0625 35.515625 20.015625
Q 33.0625 21.96875 24.703125 23.78125
L 21.578125 24.515625
Q 13.234375 26.265625 9.515625 29.90625
Q 5.8125 33.546875 5.8125 39.890625
Q 5.8125 47.609375 11.28125 51.796875
Q 16.75 56 26.8125 56
Q 31.78125 56 36.171875 55.265625
Q 40.578125 54.546875 44.28125 53.078125
z
" id="DejaVuSans-115"/>
      <path d="M 9.421875 54.6875
L 18.40625 54.6875
L 18.40625 0
L 9.421875 0
z
M 9.421875 75.984375
L 18.40625 75.984375
L 18.40625 64.59375
L 9.421875 64.59375
z
" id="DejaVuSans-105"/>
      <path d="M 30.609375 48.390625
Q 23.390625 48.390625 19.1875 42.75
Q 14.984375 37.109375 14.984375 27.296875
Q 14.984375 17.484375 19.15625 11.84375
Q 23.34375 6.203125 30.609375 6.203125
Q 37.796875 6.203125 41.984375 11.859375
Q 46.1875 17.53125 46.1875 27.296875
Q 46.1875 37.015625 41.984375 42.703125
Q 37.796875 48.390625 30.609375 48.390625
z
M 30.609375 56
Q 42.328125 56 49.015625 48.375
Q 55.71875 40.765625 55.71875 27.296875
Q 55.71875 13.875 49.015625 6.21875
Q 42.328125 -1.421875 30.609375 -1.421875
Q 18.84375 -1.421875 12.171875 6.21875
Q 5.515625 13.875 5.515625 27.296875
Q 5.515625 40.765625 12.171875 48.375
Q 18.84375 56 30.609375 56
z
" id="DejaVuSans-111"/>
      <path d="M 54.890625 33.015625
L 54.890625 0
L 45.90625 0
L 45.90625 32.71875
Q 45.90625 40.484375 42.875 44.328125
Q 39.84375 48.1875 33.796875 48.1875
Q 26.515625 48.1875 22.3125 43.546875
Q 18.109375 38.921875 18.109375 30.90625
L 18.109375 0
L 9.078125 0
L 9.078125 54.6875
L 18.109375 54.6875
L 18.109375 46.1875
Q 21.34375 51.125 25.703125 53.5625
Q 30.078125 56 35.796875 56
Q 45.21875 56 50.046875 50.171875
Q 54.890625 44.34375 54.890625 33.015625
z
" id="DejaVuSans-110"/>
     </defs>
     <g transform="translate(146.612813 292.162188)scale(0.18 -0.18)">
      <use xlink:href="#DejaVuSans-80"/>
      <use x="60.208984" xlink:href="#DejaVuSans-65"/>
      <use x="128.617188" xlink:href="#DejaVuSans-49"/>
      <use x="192.240234" xlink:href="#DejaVuSans-52"/>
      <use x="255.863281" xlink:href="#DejaVuSans-32"/>
      <use x="287.650391" xlink:href="#DejaVuSans-101"/>
      <use x="349.158203" xlink:href="#DejaVuSans-120"/>
      <use x="408.337891" xlink:href="#DejaVuSans-112"/>
      <use x="471.814453" xlink:href="#DejaVuSans-114"/>
      <use x="512.896484" xlink:href="#DejaVuSans-101"/>
      <use x="574.419922" xlink:href="#DejaVuSans-115"/>
      <use x="626.519531" xlink:href="#DejaVuSans-115"/>
      <use x="678.619141" xlink:href="#DejaVuSans-105"/>
      <use x="706.402344" xlink:href="#DejaVuSans-111"/>
      <use x="767.583984" xlink:href="#DejaVuSans-110"/>
     </g>
    </g>
   </g>
   <g id="matplotlib.axis_2">
    <g id="ytick_1">
     <g id="line2d_5">
      <defs>
       <path d="M 0 0
L -3.5 0
" id="m9913c417ca" style="stroke:#000000;stroke-width:0.8;"/>
      </defs>
      <g>
       <use style="stroke:#000000;stroke-width:0.8;" x="54" xlink:href="#m9913c417ca" y="252"/>
      </g>
     </g>
     <g id="text_6">
      <!-- 0 -->
      <g transform="translate(36.82 258.07875)scale(0.16 -0.16)">
       <use xlink:href="#DejaVuSans-48"/>
      </g>
     </g>
    </g>
    <g id="ytick_2">
     <g id="line2d_6">
      <g>
       <use style="stroke:#000000;stroke-width:0.8;" x="54" xlink:href="#m9913c417ca" y="206.586466"/>
      </g>
     </g>
     <g id="text_7">
      <!-- 50 -->
      <defs>
       <path d="M 10.796875 72.90625
L 49.515625 72.90625
L 49.515625 64.59375
L 19.828125 64.59375
L 19.828125 46.734375
Q 21.96875 47.46875 24.109375 47.828125
Q 26.265625 48.1875 28.421875 48.1875
Q 40.625 48.1875 47.75 41.5
Q 54.890625 34.8125 54.890625 23.390625
Q 54.890625 11.625 47.5625 5.09375
Q 40.234375 -1.421875 26.90625 -1.421875
Q 22.3125 -1.421875 17.546875 -0.640625
Q 12.796875 0.140625 7.71875 1.703125
L 7.71875 11.625
Q 12.109375 9.234375 16.796875 8.0625
Q 21.484375 6.890625 26.703125 6.890625
Q 35.15625 6.890625 40.078125 11.328125
Q 45.015625 15.765625 45.015625 23.390625
Q 45.015625 31 40.078125 35.4375
Q 35.15625 39.890625 26.703125 39.890625
Q 22.75 39.890625 18.8125 39.015625
Q 14.890625 38.140625 10.796875 36.28125
z
" id="DejaVuSans-53"/>
      </defs>
      <g transform="translate(26.64 212.665216)scale(0.16 -0.16)">
       <use xlink:href="#DejaVuSans-53"/>
       <use x="63.623047" xlink:href="#DejaVuSans-48"/>
      </g>
     </g>
    </g>
    <g id="ytick_3">
     <g id="line2d_7">
      <g>
       <use style="stroke:#000000;stroke-width:0.8;" x="54" xlink:href="#m9913c417ca" y="161.172932"/>
      </g>
     </g>
     <g id="text_8">
      <!-- 100 -->
      <g transform="translate(16.46 167.251682)scale(0.16 -0.16)">
       <use xlink:href="#DejaVuSans-49"/>
       <use x="63.623047" xlink:href="#DejaVuSans-48"/>
       <use x="127.246094" xlink:href="#DejaVuSans-48"/>
      </g>
     </g>
    </g>
    <g id="ytick_4">
     <g id="line2d_8">
      <g>
       <use style="stroke:#000000;stroke-width:0.8;" x="54" xlink:href="#m9913c417ca" y="115.759398"/>
      </g>
     </g>
     <g id="text_9">
      <!-- 150 -->
      <g transform="translate(16.46 121.838148)scale(0.16 -0.16)">
       <use xlink:href="#DejaVuSans-49"/>
       <use x="63.623047" xlink:href="#DejaVuSans-53"/>
       <use x="127.246094" xlink:href="#DejaVuSans-48"/>
      </g>
     </g>
    </g>
    <g id="ytick_5">
     <g id="line2d_9">
      <g>
       <use style="stroke:#000000;stroke-width:0.8;" x="54" xlink:href="#m9913c417ca" y="70.345865"/>
      </g>
     </g>
     <g id="text_10">
      <!-- 200 -->
      <g transform="translate(16.46 76.424615)scale(0.16 -0.16)">
       <use xlink:href="#DejaVuSans-50"/>
       <use x="63.623047" xlink:href="#DejaVuSans-48"/>
       <use x="127.246094" xlink:href="#DejaVuSans-48"/>
      </g>
     </g>
    </g>
    <g id="text_11">
     <!-- Count -->
     <defs>
      <path d="M 64.40625 67.28125
L 64.40625 56.890625
Q 59.421875 61.53125 53.78125 63.8125
Q 48.140625 66.109375 41.796875 66.109375
Q 29.296875 66.109375 22.65625 58.46875
Q 16.015625 50.828125 16.015625 36.375
Q 16.015625 21.96875 22.65625 14.328125
Q 29.296875 6.6875 41.796875 6.6875
Q 48.140625 6.6875 53.78125 8.984375
Q 59.421875 11.28125 64.40625 15.921875
L 64.40625 5.609375
Q 59.234375 2.09375 53.4375 0.328125
Q 47.65625 -1.421875 41.21875 -1.421875
Q 24.65625 -1.421875 15.125 8.703125
Q 5.609375 18.84375 5.609375 36.375
Q 5.609375 53.953125 15.125 64.078125
Q 24.65625 74.21875 41.21875 74.21875
Q 47.75 74.21875 53.53125 72.484375
Q 59.328125 70.75 64.40625 67.28125
z
" id="DejaVuSans-67"/>
      <path d="M 8.5 21.578125
L 8.5 54.6875
L 17.484375 54.6875
L 17.484375 21.921875
Q 17.484375 14.15625 20.5 10.265625
Q 23.53125 6.390625 29.59375 6.390625
Q 36.859375 6.390625 41.078125 11.03125
Q 45.3125 15.671875 45.3125 23.6875
L 45.3125 54.6875
L 54.296875 54.6875
L 54.296875 0
L 45.3125 0
L 45.3125 8.40625
Q 42.046875 3.421875 37.71875 1
Q 33.40625 -1.421875 27.6875 -1.421875
Q 18.265625 -1.421875 13.375 4.4375
Q 8.5 10.296875 8.5 21.578125
z
M 31.109375 56
z
" id="DejaVuSans-117"/>
      <path d="M 18.3125 70.21875
L 18.3125 54.6875
L 36.8125 54.6875
L 36.8125 47.703125
L 18.3125 47.703125
L 18.3125 18.015625
Q 18.3125 11.328125 20.140625 9.421875
Q 21.96875 7.515625 27.59375 7.515625
L 36.8125 7.515625
L 36.8125 0
L 27.59375 0
Q 17.1875 0 13.234375 3.875
Q 9.28125 7.765625 9.28125 18.015625
L 9.28125 47.703125
L 2.6875 47.703125
L 2.6875 54.6875
L 9.28125 54.6875
L 9.28125 70.21875
z
" id="DejaVuSans-116"/>
     </defs>
     <g transform="translate(8.716563 170.007187)rotate(-90)scale(0.18 -0.18)">
      <use xlink:href="#DejaVuSans-67"/>
      <use x="69.824219" xlink:href="#DejaVuSans-111"/>
      <use x="131.005859" xlink:href="#DejaVuSans-117"/>
      <use x="194.384766" xlink:href="#DejaVuSans-110"/>
      <use x="257.763672" xlink:href="#DejaVuSans-116"/>
     </g>
    </g>
   </g>
   <g id="line2d_10">
    <path clip-path="url(#p247e086485)" d="M 93.459439 252
L 93.459439 34.56
" style="fill:none;stroke:#000000;stroke-dasharray:5.55,2.4;stroke-dashoffset:0;stroke-width:1.5;"/>
   </g>
   <g id="patch_77">
    <path d="M 54 252
L 54 34.56
" style="fill:none;stroke:#000000;stroke-linecap:square;stroke-linejoin:miter;stroke-width:0.8;"/>
   </g>
   <g id="patch_78">
    <path d="M 388.8 252
L 388.8 34.56
" style="fill:none;stroke:#000000;stroke-linecap:square;stroke-linejoin:miter;stroke-width:0.8;"/>
   </g>
   <g id="patch_79">
    <path d="M 54 252
L 388.8 252
" style="fill:none;stroke:#000000;stroke-linecap:square;stroke-linejoin:miter;stroke-width:0.8;"/>
   </g>
   <g id="patch_80">
    <path d="M 54 34.56
L 388.8 34.56
" style="fill:none;stroke:#000000;stroke-linecap:square;stroke-linejoin:miter;stroke-width:0.8;"/>
   </g>
   <g id="legend_1">
    <g id="patch_81">
     <path d="M 249.62 94.33
L 377.6 94.33
Q 380.8 94.33 380.8 91.13
L 380.8 45.76
Q 380.8 42.56 377.6 42.56
L 249.62 42.56
Q 246.42 42.56 246.42 45.76
L 246.42 91.13
Q 246.42 94.33 249.62 94.33
z
" style="fill:#ffffff;opacity:0.8;stroke:#cccccc;stroke-linejoin:miter;"/>
    </g>
    <g id="patch_82">
     <path d="M 252.82 61.1175
L 284.82 61.1175
L 284.82 49.9175
L 252.82 49.9175
z
" style="fill:#795c34;opacity:0.7;"/>
    </g>
    <g id="text_12">
     <!-- non-PA14 -->
     <defs>
      <path d="M 4.890625 31.390625
L 31.203125 31.390625
L 31.203125 23.390625
L 4.890625 23.390625
z
" id="DejaVuSans-45"/>
     </defs>
     <g transform="translate(297.62 61.1175)scale(0.16 -0.16)">
      <use xlink:href="#DejaVuSans-110"/>
      <use x="63.378906" xlink:href="#DejaVuSans-111"/>
      <use x="124.560547" xlink:href="#DejaVuSans-110"/>
      <use x="187.939453" xlink:href="#DejaVuSans-45"/>
      <use x="224.023438" xlink:href="#DejaVuSans-80"/>
      <use x="284.232422" xlink:href="#DejaVuSans-65"/>
      <use x="352.640625" xlink:href="#DejaVuSans-49"/>
      <use x="416.263672" xlink:href="#DejaVuSans-52"/>
     </g>
    </g>
    <g id="patch_83">
     <path d="M 252.82 84.6025
L 284.82 84.6025
L 284.82 73.4025
L 252.82 73.4025
z
" style="fill:#895881;opacity:0.8;"/>
    </g>
    <g id="text_13">
     <!-- PA14 -->
     <g transform="translate(297.62 84.6025)scale(0.16 -0.16)">
      <use xlink:href="#DejaVuSans-80"/>
      <use x="60.208984" xlink:href="#DejaVuSans-65"/>
      <use x="128.617188" xlink:href="#DejaVuSans-49"/>
      <use x="192.240234" xlink:href="#DejaVuSans-52"/>
     </g>
    </g>
   </g>
  </g>
 </g>
 <defs>
  <clipPath id="p247e086485">
   <rect height="217.44" width="334.8" x="54" y="34.56"/>
  </clipPath>
 </defs>
</svg>
