<?xml version="1.0" encoding="utf-8" standalone="no"?>
<!DOCTYPE svg PUBLIC "-//W3C//DTD SVG 1.1//EN"
  "http://www.w3.org/Graphics/SVG/1.1/DTD/svg11.dtd">
<!-- Created with matplotlib (https://matplotlib.org/) -->
<svg height="288pt" version="1.1" viewBox="0 0 432 288" width="432pt" xmlns="http://www.w3.org/2000/svg" xmlns:xlink="http://www.w3.org/1999/xlink">
 <defs>
  <style type="text/css">
*{stroke-linecap:butt;stroke-linejoin:round;}
  </style>
 </defs>
 <g id="figure_1">
  <g id="patch_1">
   <path d="M 0 288
L 432 288
L 432 0
L 0 0
z
" style="fill:#ffffff;"/>
  </g>
  <g id="axes_1">
   <g id="patch_2">
    <path d="M 54 252
L 388.8 252
L 388.8 34.56
L 54 34.56
z
" style="fill:#ffffff;"/>
   </g>
   <g id="patch_3">
    <path clip-path="url(#pb0258bca41)" d="M 69.218182 252
L 72.302676 252
L 72.302676 44.914286
L 69.218182 44.914286
z
" style="fill:#795c34;opacity:0.7;"/>
   </g>
   <g id="patch_4">
    <path clip-path="url(#pb0258bca41)" d="M 72.302676 252
L 75.387171 252
L 75.387171 222.335349
L 72.302676 222.335349
z
" style="fill:#795c34;opacity:0.7;"/>
   </g>
   <g id="patch_5">
    <path clip-path="url(#pb0258bca41)" d="M 75.387171 252
L 78.471665 252
L 78.471665 233.672158
L 75.387171 233.672158
z
" style="fill:#795c34;opacity:0.7;"/>
   </g>
   <g id="patch_6">
    <path clip-path="url(#pb0258bca41)" d="M 78.471665 252
L 81.55616 252
L 81.55616 235.37268
L 78.471665 235.37268
z
" style="fill:#795c34;opacity:0.7;"/>
   </g>
   <g id="patch_7">
    <path clip-path="url(#pb0258bca41)" d="M 81.55616 252
L 84.640654 252
L 84.640654 245.575808
L 81.55616 245.575808
z
" style="fill:#795c34;opacity:0.7;"/>
   </g>
   <g id="patch_8">
    <path clip-path="url(#pb0258bca41)" d="M 84.640654 252
L 87.725149 252
L 87.725149 246.520542
L 84.640654 246.520542
z
" style="fill:#795c34;opacity:0.7;"/>
   </g>
   <g id="patch_9">
    <path clip-path="url(#pb0258bca41)" d="M 87.725149 252
L 90.809643 252
L 90.809643 248.41001
L 87.725149 248.41001
z
" style="fill:#795c34;opacity:0.7;"/>
   </g>
   <g id="patch_10">
    <path clip-path="url(#pb0258bca41)" d="M 90.809643 252
L 93.894138 252
L 93.894138 249.732638
L 90.809643 249.732638
z
" style="fill:#795c34;opacity:0.7;"/>
   </g>
   <g id="patch_11">
    <path clip-path="url(#pb0258bca41)" d="M 93.894138 252
L 96.978632 252
L 96.978632 248.41001
L 93.894138 248.41001
z
" style="fill:#795c34;opacity:0.7;"/>
   </g>
   <g id="patch_12">
    <path clip-path="url(#pb0258bca41)" d="M 96.978632 252
L 100.063127 252
L 100.063127 250.110532
L 96.978632 250.110532
z
" style="fill:#795c34;opacity:0.7;"/>
   </g>
   <g id="patch_13">
    <path clip-path="url(#pb0258bca41)" d="M 100.063127 252
L 103.147621 252
L 103.147621 251.055266
L 100.063127 251.055266
z
" style="fill:#795c34;opacity:0.7;"/>
   </g>
   <g id="patch_14">
    <path clip-path="url(#pb0258bca41)" d="M 103.147621 252
L 106.232116 252
L 106.232116 250.677372
L 103.147621 250.677372
z
" style="fill:#795c34;opacity:0.7;"/>
   </g>
   <g id="patch_15">
    <path clip-path="url(#pb0258bca41)" d="M 106.232116 252
L 109.31661 252
L 109.31661 250.110532
L 106.232116 250.110532
z
" style="fill:#795c34;opacity:0.7;"/>
   </g>
   <g id="patch_16">
    <path clip-path="url(#pb0258bca41)" d="M 109.31661 252
L 112.401105 252
L 112.401105 249.165798
L 109.31661 249.165798
z
" style="fill:#795c34;opacity:0.7;"/>
   </g>
   <g id="patch_17">
    <path clip-path="url(#pb0258bca41)" d="M 112.401105 252
L 115.485599 252
L 115.485599 249.165798
L 112.401105 249.165798
z
" style="fill:#795c34;opacity:0.7;"/>
   </g>
   <g id="patch_18">
    <path clip-path="url(#pb0258bca41)" d="M 115.485599 252
L 118.570094 252
L 118.570094 249.732638
L 115.485599 249.732638
z
" style="fill:#795c34;opacity:0.7;"/>
   </g>
   <g id="patch_19">
    <path clip-path="url(#pb0258bca41)" d="M 118.570094 252
L 121.654588 252
L 121.654588 250.299479
L 118.570094 250.299479
z
" style="fill:#795c34;opacity:0.7;"/>
   </g>
   <g id="patch_20">
    <path clip-path="url(#pb0258bca41)" d="M 121.654588 252
L 124.739083 252
L 124.739083 251.055266
L 121.654588 251.055266
z
" style="fill:#795c34;opacity:0.7;"/>
   </g>
   <g id="patch_21">
    <path clip-path="url(#pb0258bca41)" d="M 124.739083 252
L 127.823578 252
L 127.823578 251.244213
L 124.739083 251.244213
z
" style="fill:#795c34;opacity:0.7;"/>
   </g>
   <g id="patch_22">
    <path clip-path="url(#pb0258bca41)" d="M 127.823578 252
L 130.908072 252
L 130.908072 250.866319
L 127.823578 250.866319
z
" style="fill:#795c34;opacity:0.7;"/>
   </g>
   <g id="patch_23">
    <path clip-path="url(#pb0258bca41)" d="M 130.908072 252
L 133.992567 252
L 133.992567 251.811053
L 130.908072 251.811053
z
" style="fill:#795c34;opacity:0.7;"/>
   </g>
   <g id="patch_24">
    <path clip-path="url(#pb0258bca41)" d="M 133.992567 252
L 137.077061 252
L 137.077061 250.677372
L 133.992567 250.677372
z
" style="fill:#795c34;opacity:0.7;"/>
   </g>
   <g id="patch_25">
    <path clip-path="url(#pb0258bca41)" d="M 137.077061 252
L 140.161556 252
L 140.161556 251.244213
L 137.077061 251.244213
z
" style="fill:#795c34;opacity:0.7;"/>
   </g>
   <g id="patch_26">
    <path clip-path="url(#pb0258bca41)" d="M 140.161556 252
L 143.24605 252
L 143.24605 251.811053
L 140.161556 251.811053
z
" style="fill:#795c34;opacity:0.7;"/>
   </g>
   <g id="patch_27">
    <path clip-path="url(#pb0258bca41)" d="M 143.24605 252
L 146.330545 252
L 146.330545 251.055266
L 143.24605 251.055266
z
" style="fill:#795c34;opacity:0.7;"/>
   </g>
   <g id="patch_28">
    <path clip-path="url(#pb0258bca41)" d="M 146.330545 252
L 149.415039 252
L 149.415039 251.811053
L 146.330545 251.811053
z
" style="fill:#795c34;opacity:0.7;"/>
   </g>
   <g id="patch_29">
    <path clip-path="url(#pb0258bca41)" d="M 149.415039 252
L 152.499534 252
L 152.499534 251.43316
L 149.415039 251.43316
z
" style="fill:#795c34;opacity:0.7;"/>
   </g>
   <g id="patch_30">
    <path clip-path="url(#pb0258bca41)" d="M 152.499534 252
L 155.584028 252
L 155.584028 251.622106
L 152.499534 251.622106
z
" style="fill:#795c34;opacity:0.7;"/>
   </g>
   <g id="patch_31">
    <path clip-path="url(#pb0258bca41)" d="M 155.584028 252
L 158.668523 252
L 158.668523 251.622106
L 155.584028 251.622106
z
" style="fill:#795c34;opacity:0.7;"/>
   </g>
   <g id="patch_32">
    <path clip-path="url(#pb0258bca41)" d="M 158.668523 252
L 161.753017 252
L 161.753017 251.811053
L 158.668523 251.811053
z
" style="fill:#795c34;opacity:0.7;"/>
   </g>
   <g id="patch_33">
    <path clip-path="url(#pb0258bca41)" d="M 161.753017 252
L 164.837512 252
L 164.837512 251.811053
L 161.753017 251.811053
z
" style="fill:#795c34;opacity:0.7;"/>
   </g>
   <g id="patch_34">
    <path clip-path="url(#pb0258bca41)" d="M 164.837512 252
L 167.922006 252
L 167.922006 251.622106
L 164.837512 251.622106
z
" style="fill:#795c34;opacity:0.7;"/>
   </g>
   <g id="patch_35">
    <path clip-path="url(#pb0258bca41)" d="M 167.922006 252
L 171.006501 252
L 171.006501 252
L 167.922006 252
z
" style="fill:#795c34;opacity:0.7;"/>
   </g>
   <g id="patch_36">
    <path clip-path="url(#pb0258bca41)" d="M 171.006501 252
L 174.090995 252
L 174.090995 252
L 171.006501 252
z
" style="fill:#795c34;opacity:0.7;"/>
   </g>
   <g id="patch_37">
    <path clip-path="url(#pb0258bca41)" d="M 174.090995 252
L 177.17549 252
L 177.17549 252
L 174.090995 252
z
" style="fill:#795c34;opacity:0.7;"/>
   </g>
   <g id="patch_38">
    <path clip-path="url(#pb0258bca41)" d="M 177.17549 252
L 180.259984 252
L 180.259984 251.811053
L 177.17549 251.811053
z
" style="fill:#795c34;opacity:0.7;"/>
   </g>
   <g id="patch_39">
    <path clip-path="url(#pb0258bca41)" d="M 180.259984 252
L 183.344479 252
L 183.344479 252
L 180.259984 252
z
" style="fill:#795c34;opacity:0.7;"/>
   </g>
   <g id="patch_40">
    <path clip-path="url(#pb0258bca41)" d="M 183.344479 252
L 186.428973 252
L 186.428973 252
L 183.344479 252
z
" style="fill:#795c34;opacity:0.7;"/>
   </g>
   <g id="patch_41">
    <path clip-path="url(#pb0258bca41)" d="M 186.428973 252
L 189.513468 252
L 189.513468 252
L 186.428973 252
z
" style="fill:#795c34;opacity:0.7;"/>
   </g>
   <g id="patch_42">
    <path clip-path="url(#pb0258bca41)" d="M 189.513468 252
L 192.597962 252
L 192.597962 251.811053
L 189.513468 251.811053
z
" style="fill:#795c34;opacity:0.7;"/>
   </g>
   <g id="patch_43">
    <path clip-path="url(#pb0258bca41)" d="M 192.597962 252
L 195.682457 252
L 195.682457 252
L 192.597962 252
z
" style="fill:#795c34;opacity:0.7;"/>
   </g>
   <g id="patch_44">
    <path clip-path="url(#pb0258bca41)" d="M 195.682457 252
L 198.766951 252
L 198.766951 251.811053
L 195.682457 251.811053
z
" style="fill:#795c34;opacity:0.7;"/>
   </g>
   <g id="patch_45">
    <path clip-path="url(#pb0258bca41)" d="M 198.766951 252
L 201.851446 252
L 201.851446 252
L 198.766951 252
z
" style="fill:#795c34;opacity:0.7;"/>
   </g>
   <g id="patch_46">
    <path clip-path="url(#pb0258bca41)" d="M 201.851446 252
L 204.93594 252
L 204.93594 251.811053
L 201.851446 251.811053
z
" style="fill:#795c34;opacity:0.7;"/>
   </g>
   <g id="patch_47">
    <path clip-path="url(#pb0258bca41)" d="M 204.93594 252
L 208.020435 252
L 208.020435 251.622106
L 204.93594 251.622106
z
" style="fill:#795c34;opacity:0.7;"/>
   </g>
   <g id="patch_48">
    <path clip-path="url(#pb0258bca41)" d="M 208.020435 252
L 211.104929 252
L 211.104929 252
L 208.020435 252
z
" style="fill:#795c34;opacity:0.7;"/>
   </g>
   <g id="patch_49">
    <path clip-path="url(#pb0258bca41)" d="M 211.104929 252
L 214.189424 252
L 214.189424 252
L 211.104929 252
z
" style="fill:#795c34;opacity:0.7;"/>
   </g>
   <g id="patch_50">
    <path clip-path="url(#pb0258bca41)" d="M 214.189424 252
L 217.273918 252
L 217.273918 252
L 214.189424 252
z
" style="fill:#795c34;opacity:0.7;"/>
   </g>
   <g id="patch_51">
    <path clip-path="url(#pb0258bca41)" d="M 217.273918 252
L 220.358413 252
L 220.358413 251.811053
L 217.273918 251.811053
z
" style="fill:#795c34;opacity:0.7;"/>
   </g>
   <g id="patch_52">
    <path clip-path="url(#pb0258bca41)" d="M 220.358413 252
L 223.442907 252
L 223.442907 251.811053
L 220.358413 251.811053
z
" style="fill:#795c34;opacity:0.7;"/>
   </g>
   <g id="patch_53">
    <path clip-path="url(#pb0258bca41)" d="M 69.46144 252
L 75.543847 252
L 75.543847 251.622106
L 69.46144 251.622106
z
" style="fill:#c6a9b5;opacity:0.9;"/>
   </g>
   <g id="patch_54">
    <path clip-path="url(#pb0258bca41)" d="M 75.543847 252
L 81.626255 252
L 81.626255 251.055266
L 75.543847 251.055266
z
" style="fill:#c6a9b5;opacity:0.9;"/>
   </g>
   <g id="patch_55">
    <path clip-path="url(#pb0258bca41)" d="M 81.626255 252
L 87.708662 252
L 87.708662 243.119499
L 81.626255 243.119499
z
" style="fill:#c6a9b5;opacity:0.9;"/>
   </g>
   <g id="patch_56">
    <path clip-path="url(#pb0258bca41)" d="M 87.708662 252
L 93.79107 252
L 93.79107 238.773723
L 87.708662 238.773723
z
" style="fill:#c6a9b5;opacity:0.9;"/>
   </g>
   <g id="patch_57">
    <path clip-path="url(#pb0258bca41)" d="M 93.79107 252
L 99.873478 252
L 99.873478 236.695308
L 93.79107 236.695308
z
" style="fill:#c6a9b5;opacity:0.9;"/>
   </g>
   <g id="patch_58">
    <path clip-path="url(#pb0258bca41)" d="M 99.873478 252
L 105.955885 252
L 105.955885 232.916371
L 99.873478 232.916371
z
" style="fill:#c6a9b5;opacity:0.9;"/>
   </g>
   <g id="patch_59">
    <path clip-path="url(#pb0258bca41)" d="M 105.955885 252
L 112.038293 252
L 112.038293 233.861105
L 105.955885 233.861105
z
" style="fill:#c6a9b5;opacity:0.9;"/>
   </g>
   <g id="patch_60">
    <path clip-path="url(#pb0258bca41)" d="M 112.038293 252
L 118.1207 252
L 118.1207 240.09635
L 112.038293 240.09635
z
" style="fill:#c6a9b5;opacity:0.9;"/>
   </g>
   <g id="patch_61">
    <path clip-path="url(#pb0258bca41)" d="M 118.1207 252
L 124.203108 252
L 124.203108 241.230031
L 118.1207 241.230031
z
" style="fill:#c6a9b5;opacity:0.9;"/>
   </g>
   <g id="patch_62">
    <path clip-path="url(#pb0258bca41)" d="M 124.203108 252
L 130.285515 252
L 130.285515 245.953702
L 124.203108 245.953702
z
" style="fill:#c6a9b5;opacity:0.9;"/>
   </g>
   <g id="patch_63">
    <path clip-path="url(#pb0258bca41)" d="M 130.285515 252
L 136.367923 252
L 136.367923 248.032117
L 130.285515 248.032117
z
" style="fill:#c6a9b5;opacity:0.9;"/>
   </g>
   <g id="patch_64">
    <path clip-path="url(#pb0258bca41)" d="M 136.367923 252
L 142.450331 252
L 142.450331 250.110532
L 136.367923 250.110532
z
" style="fill:#c6a9b5;opacity:0.9;"/>
   </g>
   <g id="patch_65">
    <path clip-path="url(#pb0258bca41)" d="M 142.450331 252
L 148.532738 252
L 148.532738 250.299479
L 142.450331 250.299479
z
" style="fill:#c6a9b5;opacity:0.9;"/>
   </g>
   <g id="patch_66">
    <path clip-path="url(#pb0258bca41)" d="M 148.532738 252
L 154.615146 252
L 154.615146 251.244213
L 148.532738 251.244213
z
" style="fill:#c6a9b5;opacity:0.9;"/>
   </g>
   <g id="patch_67">
    <path clip-path="url(#pb0258bca41)" d="M 154.615146 252
L 160.697553 252
L 160.697553 251.244213
L 154.615146 251.244213
z
" style="fill:#c6a9b5;opacity:0.9;"/>
   </g>
   <g id="patch_68">
    <path clip-path="url(#pb0258bca41)" d="M 160.697553 252
L 166.779961 252
L 166.779961 251.622106
L 160.697553 251.622106
z
" style="fill:#c6a9b5;opacity:0.9;"/>
   </g>
   <g id="patch_69">
    <path clip-path="url(#pb0258bca41)" d="M 166.779961 252
L 172.862368 252
L 172.862368 251.055266
L 166.779961 251.055266
z
" style="fill:#c6a9b5;opacity:0.9;"/>
   </g>
   <g id="patch_70">
    <path clip-path="url(#pb0258bca41)" d="M 172.862368 252
L 178.944776 252
L 178.944776 250.866319
L 172.862368 250.866319
z
" style="fill:#c6a9b5;opacity:0.9;"/>
   </g>
   <g id="patch_71">
    <path clip-path="url(#pb0258bca41)" d="M 178.944776 252
L 185.027184 252
L 185.027184 250.866319
L 178.944776 250.866319
z
" style="fill:#c6a9b5;opacity:0.9;"/>
   </g>
   <g id="patch_72">
    <path clip-path="url(#pb0258bca41)" d="M 185.027184 252
L 191.109591 252
L 191.109591 252
L 185.027184 252
z
" style="fill:#c6a9b5;opacity:0.9;"/>
   </g>
   <g id="patch_73">
    <path clip-path="url(#pb0258bca41)" d="M 191.109591 252
L 197.191999 252
L 197.191999 251.244213
L 191.109591 251.244213
z
" style="fill:#c6a9b5;opacity:0.9;"/>
   </g>
   <g id="patch_74">
    <path clip-path="url(#pb0258bca41)" d="M 197.191999 252
L 203.274406 252
L 203.274406 251.244213
L 197.191999 251.244213
z
" style="fill:#c6a9b5;opacity:0.9;"/>
   </g>
   <g id="patch_75">
    <path clip-path="url(#pb0258bca41)" d="M 203.274406 252
L 209.356814 252
L 209.356814 251.811053
L 203.274406 251.811053
z
" style="fill:#c6a9b5;opacity:0.9;"/>
   </g>
   <g id="patch_76">
    <path clip-path="url(#pb0258bca41)" d="M 209.356814 252
L 215.439221 252
L 215.439221 251.622106
L 209.356814 251.622106
z
" style="fill:#c6a9b5;opacity:0.9;"/>
   </g>
   <g id="patch_77">
    <path clip-path="url(#pb0258bca41)" d="M 215.439221 252
L 221.521629 252
L 221.521629 251.622106
L 215.439221 251.622106
z
" style="fill:#c6a9b5;opacity:0.9;"/>
   </g>
   <g id="patch_78">
    <path clip-path="url(#pb0258bca41)" d="M 221.521629 252
L 227.604037 252
L 227.604037 252
L 221.521629 252
z
" style="fill:#c6a9b5;opacity:0.9;"/>
   </g>
   <g id="patch_79">
    <path clip-path="url(#pb0258bca41)" d="M 227.604037 252
L 233.686444 252
L 233.686444 252
L 227.604037 252
z
" style="fill:#c6a9b5;opacity:0.9;"/>
   </g>
   <g id="patch_80">
    <path clip-path="url(#pb0258bca41)" d="M 233.686444 252
L 239.768852 252
L 239.768852 251.622106
L 233.686444 251.622106
z
" style="fill:#c6a9b5;opacity:0.9;"/>
   </g>
   <g id="patch_81">
    <path clip-path="url(#pb0258bca41)" d="M 239.768852 252
L 245.851259 252
L 245.851259 252
L 239.768852 252
z
" style="fill:#c6a9b5;opacity:0.9;"/>
   </g>
   <g id="patch_82">
    <path clip-path="url(#pb0258bca41)" d="M 245.851259 252
L 251.933667 252
L 251.933667 252
L 245.851259 252
z
" style="fill:#c6a9b5;opacity:0.9;"/>
   </g>
   <g id="patch_83">
    <path clip-path="url(#pb0258bca41)" d="M 251.933667 252
L 258.016074 252
L 258.016074 252
L 251.933667 252
z
" style="fill:#c6a9b5;opacity:0.9;"/>
   </g>
   <g id="patch_84">
    <path clip-path="url(#pb0258bca41)" d="M 258.016074 252
L 264.098482 252
L 264.098482 252
L 258.016074 252
z
" style="fill:#c6a9b5;opacity:0.9;"/>
   </g>
   <g id="patch_85">
    <path clip-path="url(#pb0258bca41)" d="M 264.098482 252
L 270.180889 252
L 270.180889 251.811053
L 264.098482 251.811053
z
" style="fill:#c6a9b5;opacity:0.9;"/>
   </g>
   <g id="patch_86">
    <path clip-path="url(#pb0258bca41)" d="M 270.180889 252
L 276.263297 252
L 276.263297 252
L 270.180889 252
z
" style="fill:#c6a9b5;opacity:0.9;"/>
   </g>
   <g id="patch_87">
    <path clip-path="url(#pb0258bca41)" d="M 276.263297 252
L 282.345705 252
L 282.345705 251.811053
L 276.263297 251.811053
z
" style="fill:#c6a9b5;opacity:0.9;"/>
   </g>
   <g id="patch_88">
    <path clip-path="url(#pb0258bca41)" d="M 282.345705 252
L 288.428112 252
L 288.428112 251.622106
L 282.345705 251.622106
z
" style="fill:#c6a9b5;opacity:0.9;"/>
   </g>
   <g id="patch_89">
    <path clip-path="url(#pb0258bca41)" d="M 288.428112 252
L 294.51052 252
L 294.51052 252
L 288.428112 252
z
" style="fill:#c6a9b5;opacity:0.9;"/>
   </g>
   <g id="patch_90">
    <path clip-path="url(#pb0258bca41)" d="M 294.51052 252
L 300.592927 252
L 300.592927 252
L 294.51052 252
z
" style="fill:#c6a9b5;opacity:0.9;"/>
   </g>
   <g id="patch_91">
    <path clip-path="url(#pb0258bca41)" d="M 300.592927 252
L 306.675335 252
L 306.675335 251.811053
L 300.592927 251.811053
z
" style="fill:#c6a9b5;opacity:0.9;"/>
   </g>
   <g id="patch_92">
    <path clip-path="url(#pb0258bca41)" d="M 306.675335 252
L 312.757742 252
L 312.757742 251.811053
L 306.675335 251.811053
z
" style="fill:#c6a9b5;opacity:0.9;"/>
   </g>
   <g id="patch_93">
    <path clip-path="url(#pb0258bca41)" d="M 312.757742 252
L 318.84015 252
L 318.84015 252
L 312.757742 252
z
" style="fill:#c6a9b5;opacity:0.9;"/>
   </g>
   <g id="patch_94">
    <path clip-path="url(#pb0258bca41)" d="M 318.84015 252
L 324.922558 252
L 324.922558 252
L 318.84015 252
z
" style="fill:#c6a9b5;opacity:0.9;"/>
   </g>
   <g id="patch_95">
    <path clip-path="url(#pb0258bca41)" d="M 324.922558 252
L 331.004965 252
L 331.004965 251.811053
L 324.922558 251.811053
z
" style="fill:#c6a9b5;opacity:0.9;"/>
   </g>
   <g id="patch_96">
    <path clip-path="url(#pb0258bca41)" d="M 331.004965 252
L 337.087373 252
L 337.087373 252
L 331.004965 252
z
" style="fill:#c6a9b5;opacity:0.9;"/>
   </g>
   <g id="patch_97">
    <path clip-path="url(#pb0258bca41)" d="M 337.087373 252
L 343.16978 252
L 343.16978 251.811053
L 337.087373 251.811053
z
" style="fill:#c6a9b5;opacity:0.9;"/>
   </g>
   <g id="patch_98">
    <path clip-path="url(#pb0258bca41)" d="M 343.16978 252
L 349.252188 252
L 349.252188 252
L 343.16978 252
z
" style="fill:#c6a9b5;opacity:0.9;"/>
   </g>
   <g id="patch_99">
    <path clip-path="url(#pb0258bca41)" d="M 349.252188 252
L 355.334595 252
L 355.334595 252
L 349.252188 252
z
" style="fill:#c6a9b5;opacity:0.9;"/>
   </g>
   <g id="patch_100">
    <path clip-path="url(#pb0258bca41)" d="M 355.334595 252
L 361.417003 252
L 361.417003 252
L 355.334595 252
z
" style="fill:#c6a9b5;opacity:0.9;"/>
   </g>
   <g id="patch_101">
    <path clip-path="url(#pb0258bca41)" d="M 361.417003 252
L 367.499411 252
L 367.499411 252
L 361.417003 252
z
" style="fill:#c6a9b5;opacity:0.9;"/>
   </g>
   <g id="patch_102">
    <path clip-path="url(#pb0258bca41)" d="M 367.499411 252
L 373.581818 252
L 373.581818 251.622106
L 367.499411 251.622106
z
" style="fill:#c6a9b5;opacity:0.9;"/>
   </g>
   <g id="matplotlib.axis_1">
    <g id="xtick_1">
     <g id="line2d_1">
      <defs>
       <path d="M 0 0
L 0 3.5
" id="m230e3c7f1d" style="stroke:#000000;stroke-width:0.8;"/>
      </defs>
      <g>
       <use style="stroke:#000000;stroke-width:0.8;" x="69.218182" xlink:href="#m230e3c7f1d" y="252"/>
      </g>
     </g>
     <g id="text_1">
      <!-- 0 -->
      <defs>
       <path d="M 31.78125 66.40625
Q 24.171875 66.40625 20.328125 58.90625
Q 16.5 51.421875 16.5 36.375
Q 16.5 21.390625 20.328125 13.890625
Q 24.171875 6.390625 31.78125 6.390625
Q 39.453125 6.390625 43.28125 13.890625
Q 47.125 21.390625 47.125 36.375
Q 47.125 51.421875 43.28125 58.90625
Q 39.453125 66.40625 31.78125 66.40625
z
M 31.78125 74.21875
Q 44.046875 74.21875 50.515625 64.515625
Q 56.984375 54.828125 56.984375 36.375
Q 56.984375 17.96875 50.515625 8.265625
Q 44.046875 -1.421875 31.78125 -1.421875
Q 19.53125 -1.421875 13.0625 8.265625
Q 6.59375 17.96875 6.59375 36.375
Q 6.59375 54.828125 13.0625 64.515625
Q 19.53125 74.21875 31.78125 74.21875
z
" id="DejaVuSans-48"/>
      </defs>
      <g transform="translate(64.128182 271.1575)scale(0.16 -0.16)">
       <use xlink:href="#DejaVuSans-48"/>
      </g>
     </g>
    </g>
    <g id="xtick_2">
     <g id="line2d_2">
      <g>
       <use style="stroke:#000000;stroke-width:0.8;" x="164.413672" xlink:href="#m230e3c7f1d" y="252"/>
      </g>
     </g>
     <g id="text_2">
      <!-- 200 -->
      <defs>
       <path d="M 19.1875 8.296875
L 53.609375 8.296875
L 53.609375 0
L 7.328125 0
L 7.328125 8.296875
Q 12.9375 14.109375 22.625 23.890625
Q 32.328125 33.6875 34.8125 36.53125
Q 39.546875 41.84375 41.421875 45.53125
Q 43.3125 49.21875 43.3125 52.78125
Q 43.3125 58.59375 39.234375 62.25
Q 35.15625 65.921875 28.609375 65.921875
Q 23.96875 65.921875 18.8125 64.3125
Q 13.671875 62.703125 7.8125 59.421875
L 7.8125 69.390625
Q 13.765625 71.78125 18.9375 73
Q 24.125 74.21875 28.421875 74.21875
Q 39.75 74.21875 46.484375 68.546875
Q 53.21875 62.890625 53.21875 53.421875
Q 53.21875 48.921875 51.53125 44.890625
Q 49.859375 40.875 45.40625 35.40625
Q 44.1875 33.984375 37.640625 27.21875
Q 31.109375 20.453125 19.1875 8.296875
z
" id="DejaVuSans-50"/>
      </defs>
      <g transform="translate(149.143672 271.1575)scale(0.16 -0.16)">
       <use xlink:href="#DejaVuSans-50"/>
       <use x="63.623047" xlink:href="#DejaVuSans-48"/>
       <use x="127.246094" xlink:href="#DejaVuSans-48"/>
      </g>
     </g>
    </g>
    <g id="xtick_3">
     <g id="line2d_3">
      <g>
       <use style="stroke:#000000;stroke-width:0.8;" x="259.609162" xlink:href="#m230e3c7f1d" y="252"/>
      </g>
     </g>
     <g id="text_3">
      <!-- 400 -->
      <defs>
       <path d="M 37.796875 64.3125
L 12.890625 25.390625
L 37.796875 25.390625
z
M 35.203125 72.90625
L 47.609375 72.90625
L 47.609375 25.390625
L 58.015625 25.390625
L 58.015625 17.1875
L 47.609375 17.1875
L 47.609375 0
L 37.796875 0
L 37.796875 17.1875
L 4.890625 17.1875
L 4.890625 26.703125
z
" id="DejaVuSans-52"/>
      </defs>
      <g transform="translate(244.339162 271.1575)scale(0.16 -0.16)">
       <use xlink:href="#DejaVuSans-52"/>
       <use x="63.623047" xlink:href="#DejaVuSans-48"/>
       <use x="127.246094" xlink:href="#DejaVuSans-48"/>
      </g>
     </g>
    </g>
    <g id="xtick_4">
     <g id="line2d_4">
      <g>
       <use style="stroke:#000000;stroke-width:0.8;" x="354.804652" xlink:href="#m230e3c7f1d" y="252"/>
      </g>
     </g>
     <g id="text_4">
      <!-- 600 -->
      <defs>
       <path d="M 33.015625 40.375
Q 26.375 40.375 22.484375 35.828125
Q 18.609375 31.296875 18.609375 23.390625
Q 18.609375 15.53125 22.484375 10.953125
Q 26.375 6.390625 33.015625 6.390625
Q 39.65625 6.390625 43.53125 10.953125
Q 47.40625 15.53125 47.40625 23.390625
Q 47.40625 31.296875 43.53125 35.828125
Q 39.65625 40.375 33.015625 40.375
z
M 52.59375 71.296875
L 52.59375 62.3125
Q 48.875 64.0625 45.09375 64.984375
Q 41.3125 65.921875 37.59375 65.921875
Q 27.828125 65.921875 22.671875 59.328125
Q 17.53125 52.734375 16.796875 39.40625
Q 19.671875 43.65625 24.015625 45.921875
Q 28.375 48.1875 33.59375 48.1875
Q 44.578125 48.1875 50.953125 41.515625
Q 57.328125 34.859375 57.328125 23.390625
Q 57.328125 12.15625 50.6875 5.359375
Q 44.046875 -1.421875 33.015625 -1.421875
Q 20.359375 -1.421875 13.671875 8.265625
Q 6.984375 17.96875 6.984375 36.375
Q 6.984375 53.65625 15.1875 63.9375
Q 23.390625 74.21875 37.203125 74.21875
Q 40.921875 74.21875 44.703125 73.484375
Q 48.484375 72.75 52.59375 71.296875
z
" id="DejaVuSans-54"/>
      </defs>
      <g transform="translate(339.534652 271.1575)scale(0.16 -0.16)">
       <use xlink:href="#DejaVuSans-54"/>
       <use x="63.623047" xlink:href="#DejaVuSans-48"/>
       <use x="127.246094" xlink:href="#DejaVuSans-48"/>
      </g>
     </g>
    </g>
    <g id="text_5">
     <!-- PAO1 expression -->
     <defs>
      <path d="M 19.671875 64.796875
L 19.671875 37.40625
L 32.078125 37.40625
Q 38.96875 37.40625 42.71875 40.96875
Q 46.484375 44.53125 46.484375 51.125
Q 46.484375 57.671875 42.71875 61.234375
Q 38.96875 64.796875 32.078125 64.796875
z
M 9.8125 72.90625
L 32.078125 72.90625
Q 44.34375 72.90625 50.609375 67.359375
Q 56.890625 61.8125 56.890625 51.125
Q 56.890625 40.328125 50.609375 34.8125
Q 44.34375 29.296875 32.078125 29.296875
L 19.671875 29.296875
L 19.671875 0
L 9.8125 0
z
" id="DejaVuSans-80"/>
      <path d="M 34.1875 63.1875
L 20.796875 26.90625
L 47.609375 26.90625
z
M 28.609375 72.90625
L 39.796875 72.90625
L 67.578125 0
L 57.328125 0
L 50.6875 18.703125
L 17.828125 18.703125
L 11.1875 0
L 0.78125 0
z
" id="DejaVuSans-65"/>
      <path d="M 39.40625 66.21875
Q 28.65625 66.21875 22.328125 58.203125
Q 16.015625 50.203125 16.015625 36.375
Q 16.015625 22.609375 22.328125 14.59375
Q 28.65625 6.59375 39.40625 6.59375
Q 50.140625 6.59375 56.421875 14.59375
Q 62.703125 22.609375 62.703125 36.375
Q 62.703125 50.203125 56.421875 58.203125
Q 50.140625 66.21875 39.40625 66.21875
z
M 39.40625 74.21875
Q 54.734375 74.21875 63.90625 63.9375
Q 73.09375 53.65625 73.09375 36.375
Q 73.09375 19.140625 63.90625 8.859375
Q 54.734375 -1.421875 39.40625 -1.421875
Q 24.03125 -1.421875 14.8125 8.828125
Q 5.609375 19.09375 5.609375 36.375
Q 5.609375 53.65625 14.8125 63.9375
Q 24.03125 74.21875 39.40625 74.21875
z
" id="DejaVuSans-79"/>
      <path d="M 12.40625 8.296875
L 28.515625 8.296875
L 28.515625 63.921875
L 10.984375 60.40625
L 10.984375 69.390625
L 28.421875 72.90625
L 38.28125 72.90625
L 38.28125 8.296875
L 54.390625 8.296875
L 54.390625 0
L 12.40625 0
z
" id="DejaVuSans-49"/>
      <path id="DejaVuSans-32"/>
      <path d="M 56.203125 29.59375
L 56.203125 25.203125
L 14.890625 25.203125
Q 15.484375 15.921875 20.484375 11.0625
Q 25.484375 6.203125 34.421875 6.203125
Q 39.59375 6.203125 44.453125 7.46875
Q 49.3125 8.734375 54.109375 11.28125
L 54.109375 2.78125
Q 49.265625 0.734375 44.1875 -0.34375
Q 39.109375 -1.421875 33.890625 -1.421875
Q 20.796875 -1.421875 13.15625 6.1875
Q 5.515625 13.8125 5.515625 26.8125
Q 5.515625 40.234375 12.765625 48.109375
Q 20.015625 56 32.328125 56
Q 43.359375 56 49.78125 48.890625
Q 56.203125 41.796875 56.203125 29.59375
z
M 47.21875 32.234375
Q 47.125 39.59375 43.09375 43.984375
Q 39.0625 48.390625 32.421875 48.390625
Q 24.90625 48.390625 20.390625 44.140625
Q 15.875 39.890625 15.1875 32.171875
z
" id="DejaVuSans-101"/>
      <path d="M 54.890625 54.6875
L 35.109375 28.078125
L 55.90625 0
L 45.3125 0
L 29.390625 21.484375
L 13.484375 0
L 2.875 0
L 24.125 28.609375
L 4.6875 54.6875
L 15.28125 54.6875
L 29.78125 35.203125
L 44.28125 54.6875
z
" id="DejaVuSans-120"/>
      <path d="M 18.109375 8.203125
L 18.109375 -20.796875
L 9.078125 -20.796875
L 9.078125 54.6875
L 18.109375 54.6875
L 18.109375 46.390625
Q 20.953125 51.265625 25.265625 53.625
Q 29.59375 56 35.59375 56
Q 45.5625 56 51.78125 48.09375
Q 58.015625 40.1875 58.015625 27.296875
Q 58.015625 14.40625 51.78125 6.484375
Q 45.5625 -1.421875 35.59375 -1.421875
Q 29.59375 -1.421875 25.265625 0.953125
Q 20.953125 3.328125 18.109375 8.203125
z
M 48.6875 27.296875
Q 48.6875 37.203125 44.609375 42.84375
Q 40.53125 48.484375 33.40625 48.484375
Q 26.265625 48.484375 22.1875 42.84375
Q 18.109375 37.203125 18.109375 27.296875
Q 18.109375 17.390625 22.1875 11.75
Q 26.265625 6.109375 33.40625 6.109375
Q 40.53125 6.109375 44.609375 11.75
Q 48.6875 17.390625 48.6875 27.296875
z
" id="DejaVuSans-112"/>
      <path d="M 41.109375 46.296875
Q 39.59375 47.171875 37.8125 47.578125
Q 36.03125 48 33.890625 48
Q 26.265625 48 22.1875 43.046875
Q 18.109375 38.09375 18.109375 28.8125
L 18.109375 0
L 9.078125 0
L 9.078125 54.6875
L 18.109375 54.6875
L 18.109375 46.1875
Q 20.953125 51.171875 25.484375 53.578125
Q 30.03125 56 36.53125 56
Q 37.453125 56 38.578125 55.875
Q 39.703125 55.765625 41.0625 55.515625
z
" id="DejaVuSans-114"/>
      <path d="M 44.28125 53.078125
L 44.28125 44.578125
Q 40.484375 46.53125 36.375 47.5
Q 32.28125 48.484375 27.875 48.484375
Q 21.1875 48.484375 17.84375 46.4375
Q 14.5 44.390625 14.5 40.28125
Q 14.5 37.15625 16.890625 35.375
Q 19.28125 33.59375 26.515625 31.984375
L 29.59375 31.296875
Q 39.15625 29.25 43.1875 25.515625
Q 47.21875 21.78125 47.21875 15.09375
Q 47.21875 7.46875 41.1875 3.015625
Q 35.15625 -1.421875 24.609375 -1.421875
Q 20.21875 -1.421875 15.453125 -0.5625
Q 10.6875 0.296875 5.421875 2
L 5.421875 11.28125
Q 10.40625 8.6875 15.234375 7.390625
Q 20.0625 6.109375 24.8125 6.109375
Q 31.15625 6.109375 34.5625 8.28125
Q 37.984375 10.453125 37.984375 14.40625
Q 37.984375 18.0625 35.515625 20.015625
Q 33.0625 21.96875 24.703125 23.78125
L 21.578125 24.515625
Q 13.234375 26.265625 9.515625 29.90625
Q 5.8125 33.546875 5.8125 39.890625
Q 5.8125 47.609375 11.28125 51.796875
Q 16.75 56 26.8125 56
Q 31.78125 56 36.171875 55.265625
Q 40.578125 54.546875 44.28125 53.078125
z
" id="DejaVuSans-115"/>
      <path d="M 9.421875 54.6875
L 18.40625 54.6875
L 18.40625 0
L 9.421875 0
z
M 9.421875 75.984375
L 18.40625 75.984375
L 18.40625 64.59375
L 9.421875 64.59375
z
" id="DejaVuSans-105"/>
      <path d="M 30.609375 48.390625
Q 23.390625 48.390625 19.1875 42.75
Q 14.984375 37.109375 14.984375 27.296875
Q 14.984375 17.484375 19.15625 11.84375
Q 23.34375 6.203125 30.609375 6.203125
Q 37.796875 6.203125 41.984375 11.859375
Q 46.1875 17.53125 46.1875 27.296875
Q 46.1875 37.015625 41.984375 42.703125
Q 37.796875 48.390625 30.609375 48.390625
z
M 30.609375 56
Q 42.328125 56 49.015625 48.375
Q 55.71875 40.765625 55.71875 27.296875
Q 55.71875 13.875 49.015625 6.21875
Q 42.328125 -1.421875 30.609375 -1.421875
Q 18.84375 -1.421875 12.171875 6.21875
Q 5.515625 13.875 5.515625 27.296875
Q 5.515625 40.765625 12.171875 48.375
Q 18.84375 56 30.609375 56
z
" id="DejaVuSans-111"/>
      <path d="M 54.890625 33.015625
L 54.890625 0
L 45.90625 0
L 45.90625 32.71875
Q 45.90625 40.484375 42.875 44.328125
Q 39.84375 48.1875 33.796875 48.1875
Q 26.515625 48.1875 22.3125 43.546875
Q 18.109375 38.921875 18.109375 30.90625
L 18.109375 0
L 9.078125 0
L 9.078125 54.6875
L 18.109375 54.6875
L 18.109375 46.1875
Q 21.34375 51.125 25.703125 53.5625
Q 30.078125 56 35.796875 56
Q 45.21875 56 50.046875 50.171875
Q 54.890625 44.34375 54.890625 33.015625
z
" id="DejaVuSans-110"/>
     </defs>
     <g transform="translate(145.255781 292.162188)scale(0.18 -0.18)">
      <use xlink:href="#DejaVuSans-80"/>
      <use x="60.208984" xlink:href="#DejaVuSans-65"/>
      <use x="128.601562" xlink:href="#DejaVuSans-79"/>
      <use x="207.3125" xlink:href="#DejaVuSans-49"/>
      <use x="270.935547" xlink:href="#DejaVuSans-32"/>
      <use x="302.722656" xlink:href="#DejaVuSans-101"/>
      <use x="364.230469" xlink:href="#DejaVuSans-120"/>
      <use x="423.410156" xlink:href="#DejaVuSans-112"/>
      <use x="486.886719" xlink:href="#DejaVuSans-114"/>
      <use x="527.96875" xlink:href="#DejaVuSans-101"/>
      <use x="589.492188" xlink:href="#DejaVuSans-115"/>
      <use x="641.591797" xlink:href="#DejaVuSans-115"/>
      <use x="693.691406" xlink:href="#DejaVuSans-105"/>
      <use x="721.474609" xlink:href="#DejaVuSans-111"/>
      <use x="782.65625" xlink:href="#DejaVuSans-110"/>
     </g>
    </g>
   </g>
   <g id="matplotlib.axis_2">
    <g id="ytick_1">
     <g id="line2d_5">
      <defs>
       <path d="M 0 0
L -3.5 0
" id="m2cd111570f" style="stroke:#000000;stroke-width:0.8;"/>
      </defs>
      <g>
       <use style="stroke:#000000;stroke-width:0.8;" x="54" xlink:href="#m2cd111570f" y="252"/>
      </g>
     </g>
     <g id="text_6">
      <!-- 0 -->
      <g transform="translate(36.82 258.07875)scale(0.16 -0.16)">
       <use xlink:href="#DejaVuSans-48"/>
      </g>
     </g>
    </g>
    <g id="ytick_2">
     <g id="line2d_6">
      <g>
       <use style="stroke:#000000;stroke-width:0.8;" x="54" xlink:href="#m2cd111570f" y="214.210636"/>
      </g>
     </g>
     <g id="text_7">
      <!-- 200 -->
      <g transform="translate(16.46 220.289386)scale(0.16 -0.16)">
       <use xlink:href="#DejaVuSans-50"/>
       <use x="63.623047" xlink:href="#DejaVuSans-48"/>
       <use x="127.246094" xlink:href="#DejaVuSans-48"/>
      </g>
     </g>
    </g>
    <g id="ytick_3">
     <g id="line2d_7">
      <g>
       <use style="stroke:#000000;stroke-width:0.8;" x="54" xlink:href="#m2cd111570f" y="176.421272"/>
      </g>
     </g>
     <g id="text_8">
      <!-- 400 -->
      <g transform="translate(16.46 182.500022)scale(0.16 -0.16)">
       <use xlink:href="#DejaVuSans-52"/>
       <use x="63.623047" xlink:href="#DejaVuSans-48"/>
       <use x="127.246094" xlink:href="#DejaVuSans-48"/>
      </g>
     </g>
    </g>
    <g id="ytick_4">
     <g id="line2d_8">
      <g>
       <use style="stroke:#000000;stroke-width:0.8;" x="54" xlink:href="#m2cd111570f" y="138.631908"/>
      </g>
     </g>
     <g id="text_9">
      <!-- 600 -->
      <g transform="translate(16.46 144.710658)scale(0.16 -0.16)">
       <use xlink:href="#DejaVuSans-54"/>
       <use x="63.623047" xlink:href="#DejaVuSans-48"/>
       <use x="127.246094" xlink:href="#DejaVuSans-48"/>
      </g>
     </g>
    </g>
    <g id="ytick_5">
     <g id="line2d_9">
      <g>
       <use style="stroke:#000000;stroke-width:0.8;" x="54" xlink:href="#m2cd111570f" y="100.842544"/>
      </g>
     </g>
     <g id="text_10">
      <!-- 800 -->
      <defs>
       <path d="M 31.78125 34.625
Q 24.75 34.625 20.71875 30.859375
Q 16.703125 27.09375 16.703125 20.515625
Q 16.703125 13.921875 20.71875 10.15625
Q 24.75 6.390625 31.78125 6.390625
Q 38.8125 6.390625 42.859375 10.171875
Q 46.921875 13.96875 46.921875 20.515625
Q 46.921875 27.09375 42.890625 30.859375
Q 38.875 34.625 31.78125 34.625
z
M 21.921875 38.8125
Q 15.578125 40.375 12.03125 44.71875
Q 8.5 49.078125 8.5 55.328125
Q 8.5 64.0625 14.71875 69.140625
Q 20.953125 74.21875 31.78125 74.21875
Q 42.671875 74.21875 48.875 69.140625
Q 55.078125 64.0625 55.078125 55.328125
Q 55.078125 49.078125 51.53125 44.71875
Q 48 40.375 41.703125 38.8125
Q 48.828125 37.15625 52.796875 32.3125
Q 56.78125 27.484375 56.78125 20.515625
Q 56.78125 9.90625 50.3125 4.234375
Q 43.84375 -1.421875 31.78125 -1.421875
Q 19.734375 -1.421875 13.25 4.234375
Q 6.78125 9.90625 6.78125 20.515625
Q 6.78125 27.484375 10.78125 32.3125
Q 14.796875 37.15625 21.921875 38.8125
z
M 18.3125 54.390625
Q 18.3125 48.734375 21.84375 45.5625
Q 25.390625 42.390625 31.78125 42.390625
Q 38.140625 42.390625 41.71875 45.5625
Q 45.3125 48.734375 45.3125 54.390625
Q 45.3125 60.0625 41.71875 63.234375
Q 38.140625 66.40625 31.78125 66.40625
Q 25.390625 66.40625 21.84375 63.234375
Q 18.3125 60.0625 18.3125 54.390625
z
" id="DejaVuSans-56"/>
      </defs>
      <g transform="translate(16.46 106.921294)scale(0.16 -0.16)">
       <use xlink:href="#DejaVuSans-56"/>
       <use x="63.623047" xlink:href="#DejaVuSans-48"/>
       <use x="127.246094" xlink:href="#DejaVuSans-48"/>
      </g>
     </g>
    </g>
    <g id="ytick_6">
     <g id="line2d_10">
      <g>
       <use style="stroke:#000000;stroke-width:0.8;" x="54" xlink:href="#m2cd111570f" y="63.05318"/>
      </g>
     </g>
     <g id="text_11">
      <!-- 1000 -->
      <g transform="translate(6.28 69.13193)scale(0.16 -0.16)">
       <use xlink:href="#DejaVuSans-49"/>
       <use x="63.623047" xlink:href="#DejaVuSans-48"/>
       <use x="127.246094" xlink:href="#DejaVuSans-48"/>
       <use x="190.869141" xlink:href="#DejaVuSans-48"/>
      </g>
     </g>
    </g>
    <g id="text_12">
     <!-- Count -->
     <defs>
      <path d="M 64.40625 67.28125
L 64.40625 56.890625
Q 59.421875 61.53125 53.78125 63.8125
Q 48.140625 66.109375 41.796875 66.109375
Q 29.296875 66.109375 22.65625 58.46875
Q 16.015625 50.828125 16.015625 36.375
Q 16.015625 21.96875 22.65625 14.328125
Q 29.296875 6.6875 41.796875 6.6875
Q 48.140625 6.6875 53.78125 8.984375
Q 59.421875 11.28125 64.40625 15.921875
L 64.40625 5.609375
Q 59.234375 2.09375 53.4375 0.328125
Q 47.65625 -1.421875 41.21875 -1.421875
Q 24.65625 -1.421875 15.125 8.703125
Q 5.609375 18.84375 5.609375 36.375
Q 5.609375 53.953125 15.125 64.078125
Q 24.65625 74.21875 41.21875 74.21875
Q 47.75 74.21875 53.53125 72.484375
Q 59.328125 70.75 64.40625 67.28125
z
" id="DejaVuSans-67"/>
      <path d="M 8.5 21.578125
L 8.5 54.6875
L 17.484375 54.6875
L 17.484375 21.921875
Q 17.484375 14.15625 20.5 10.265625
Q 23.53125 6.390625 29.59375 6.390625
Q 36.859375 6.390625 41.078125 11.03125
Q 45.3125 15.671875 45.3125 23.6875
L 45.3125 54.6875
L 54.296875 54.6875
L 54.296875 0
L 45.3125 0
L 45.3125 8.40625
Q 42.046875 3.421875 37.71875 1
Q 33.40625 -1.421875 27.6875 -1.421875
Q 18.265625 -1.421875 13.375 4.4375
Q 8.5 10.296875 8.5 21.578125
z
M 31.109375 56
z
" id="DejaVuSans-117"/>
      <path d="M 18.3125 70.21875
L 18.3125 54.6875
L 36.8125 54.6875
L 36.8125 47.703125
L 18.3125 47.703125
L 18.3125 18.015625
Q 18.3125 11.328125 20.140625 9.421875
Q 21.96875 7.515625 27.59375 7.515625
L 36.8125 7.515625
L 36.8125 0
L 27.59375 0
Q 17.1875 0 13.234375 3.875
Q 9.28125 7.765625 9.28125 18.015625
L 9.28125 47.703125
L 2.6875 47.703125
L 2.6875 54.6875
L 9.28125 54.6875
L 9.28125 70.21875
z
" id="DejaVuSans-116"/>
     </defs>
     <g transform="translate(-1.463437 170.007187)rotate(-90)scale(0.18 -0.18)">
      <use xlink:href="#DejaVuSans-67"/>
      <use x="69.824219" xlink:href="#DejaVuSans-111"/>
      <use x="131.005859" xlink:href="#DejaVuSans-117"/>
      <use x="194.384766" xlink:href="#DejaVuSans-110"/>
      <use x="257.763672" xlink:href="#DejaVuSans-116"/>
     </g>
    </g>
   </g>
   <g id="line2d_11">
    <path clip-path="url(#pb0258bca41)" d="M 69.218182 252
L 69.218182 34.56
" style="fill:none;stroke:#000000;stroke-dasharray:5.55,2.4;stroke-dashoffset:0;stroke-width:1.5;"/>
   </g>
   <g id="patch_103">
    <path d="M 54 252
L 54 34.56
" style="fill:none;stroke:#000000;stroke-linecap:square;stroke-linejoin:miter;stroke-width:0.8;"/>
   </g>
   <g id="patch_104">
    <path d="M 388.8 252
L 388.8 34.56
" style="fill:none;stroke:#000000;stroke-linecap:square;stroke-linejoin:miter;stroke-width:0.8;"/>
   </g>
   <g id="patch_105">
    <path d="M 54 252
L 388.8 252
" style="fill:none;stroke:#000000;stroke-linecap:square;stroke-linejoin:miter;stroke-width:0.8;"/>
   </g>
   <g id="patch_106">
    <path d="M 54 34.56
L 388.8 34.56
" style="fill:none;stroke:#000000;stroke-linecap:square;stroke-linejoin:miter;stroke-width:0.8;"/>
   </g>
   <g id="legend_1">
    <g id="patch_107">
     <path d="M 247.2075 94.33
L 377.6 94.33
Q 380.8 94.33 380.8 91.13
L 380.8 45.76
Q 380.8 42.56 377.6 42.56
L 247.2075 42.56
Q 244.0075 42.56 244.0075 45.76
L 244.0075 91.13
Q 244.0075 94.33 247.2075 94.33
z
" style="fill:#ffffff;opacity:0.8;stroke:#cccccc;stroke-linejoin:miter;"/>
    </g>
    <g id="patch_108">
     <path d="M 250.4075 61.1175
L 282.4075 61.1175
L 282.4075 49.9175
L 250.4075 49.9175
z
" style="fill:#795c34;opacity:0.7;"/>
    </g>
    <g id="text_13">
     <!-- non-PAO1 -->
     <defs>
      <path d="M 4.890625 31.390625
L 31.203125 31.390625
L 31.203125 23.390625
L 4.890625 23.390625
z
" id="DejaVuSans-45"/>
     </defs>
     <g transform="translate(295.2075 61.1175)scale(0.16 -0.16)">
      <use xlink:href="#DejaVuSans-110"/>
      <use x="63.378906" xlink:href="#DejaVuSans-111"/>
      <use x="124.560547" xlink:href="#DejaVuSans-110"/>
      <use x="187.939453" xlink:href="#DejaVuSans-45"/>
      <use x="224.023438" xlink:href="#DejaVuSans-80"/>
      <use x="284.232422" xlink:href="#DejaVuSans-65"/>
      <use x="352.625" xlink:href="#DejaVuSans-79"/>
      <use x="431.335938" xlink:href="#DejaVuSans-49"/>
     </g>
    </g>
    <g id="patch_109">
     <path d="M 250.4075 84.6025
L 282.4075 84.6025
L 282.4075 73.4025
L 250.4075 73.4025
z
" style="fill:#c6a9b5;opacity:0.9;"/>
    </g>
    <g id="text_14">
     <!-- PAO1 -->
     <g transform="translate(295.2075 84.6025)scale(0.16 -0.16)">
      <use xlink:href="#DejaVuSans-80"/>
      <use x="60.208984" xlink:href="#DejaVuSans-65"/>
      <use x="128.601562" xlink:href="#DejaVuSans-79"/>
      <use x="207.3125" xlink:href="#DejaVuSans-49"/>
     </g>
    </g>
   </g>
  </g>
 </g>
 <defs>
  <clipPath id="pb0258bca41">
   <rect height="217.44" width="334.8" x="54" y="34.56"/>
  </clipPath>
 </defs>
</svg>
