<?xml version="1.0" encoding="UTF-8" standalone="no"?>
<!-- Created with Inkscape (http://www.inkscape.org/) -->

<svg
   xmlns:dc="http://purl.org/dc/elements/1.1/"
   xmlns:cc="http://creativecommons.org/ns#"
   xmlns:rdf="http://www.w3.org/1999/02/22-rdf-syntax-ns#"
   xmlns:svg="http://www.w3.org/2000/svg"
   xmlns="http://www.w3.org/2000/svg"
   xmlns:sodipodi="http://sodipodi.sourceforge.net/DTD/sodipodi-0.dtd"
   xmlns:inkscape="http://www.inkscape.org/namespaces/inkscape"
   width="210mm"
   height="297mm"
   viewBox="0 0 210 297"
   version="1.1"
   id="svg8"
   inkscape:version="0.92.4 (5da689c313, 2019-01-14)"
   sodipodi:docname="fig2C_homolog_dist.svg">
  <defs
     id="defs2" />
  <sodipodi:namedview
     id="base"
     pagecolor="#ffffff"
     bordercolor="#666666"
     borderopacity="1.0"
     inkscape:pageopacity="0.0"
     inkscape:pageshadow="2"
     inkscape:zoom="0.35"
     inkscape:cx="-554.28571"
     inkscape:cy="560"
     inkscape:document-units="mm"
     inkscape:current-layer="layer1"
     showgrid="false"
     inkscape:window-width="1920"
     inkscape:window-height="1001"
     inkscape:window-x="-9"
     inkscape:window-y="-9"
     inkscape:window-maximized="1" />
  <metadata
     id="metadata5">
    <rdf:RDF>
      <cc:Work
         rdf:about="">
        <dc:format>image/svg+xml</dc:format>
        <dc:type
           rdf:resource="http://purl.org/dc/dcmitype/StillImage" />
        <dc:title />
      </cc:Work>
    </rdf:RDF>
  </metadata>
  <g
     inkscape:label="Layer 1"
     inkscape:groupmode="layer"
     id="layer1">
    <g
       style="fill:none;stroke:none;stroke-linecap:square;stroke-miterlimit:10"
       id="g1261"
       transform="matrix(0.22284846,0,0,0.22284846,0.75594905,0.28869429)">
      <g
         id="g1180"
         clip-path="url(#g106f458d04b_0_0.0)">
        <path
           id="path1040"
           d="M 0,0 H 960 V 540 H 0 Z"
           inkscape:connector-curvature="0"
           style="fill:#ffffff;fill-rule:evenodd" />
        <path
           id="path1042"
           d="m 81,89.997375 v 0 c 0,-37.277046 31.98167,-67.49606 71.43307,-67.49606 v 0 c 18.94522,0 37.11451,7.111172 50.51081,19.769138 13.3963,12.657967 20.92225,29.825855 20.92225,47.726925 v 0 c 0,37.277042 -31.98167,67.496062 -71.43306,67.496062 v 0 c -39.4514,0 -71.433071,-30.21902 -71.433071,-67.496062 z"
           inkscape:connector-curvature="0"
           style="fill:#000000;fill-opacity:0;fill-rule:evenodd" />
        <path
           id="path1044"
           d="m 81,89.997375 v 0 c 0,-37.277046 31.98167,-67.49606 71.43307,-67.49606 v 0 c 18.94522,0 37.11451,7.111172 50.51081,19.769138 13.3963,12.657967 20.92225,29.825855 20.92225,47.726925 v 0 c 0,37.277042 -31.98167,67.496062 -71.43306,67.496062 v 0 c -39.4514,0 -71.433071,-30.21902 -71.433071,-67.496062 z"
           inkscape:connector-curvature="0"
           style="fill-rule:evenodd;stroke:#595959;stroke-width:2;stroke-linecap:butt;stroke-linejoin:round" />
        <path
           id="path1046"
           d="m 137.84627,87.44862 q 0,0.90625 -0.3125,1.6875 -0.3125,0.765625 -0.875,1.328125 -0.70313,0.703125 -1.65625,1.046875 -0.95313,0.34375 -2.42188,0.34375 h -1.79687 v 5.0625 h -1.79688 v -13.5625 h 3.67188 q 1.21875,0 2.0625,0.203125 0.85937,0.203125 1.51562,0.640625 0.76563,0.515625 1.1875,1.296875 0.42188,0.765625 0.42188,1.953125 z m -1.875,0.04687 q 0,-0.703125 -0.25,-1.21875 -0.23438,-0.515625 -0.73438,-0.84375 -0.4375,-0.28125 -1,-0.40625 -0.5625,-0.125 -1.42187,-0.125 h -1.78125 v 5.421875 h 1.51562 q 1.09375,0 1.78125,-0.1875 0.6875,-0.203125 1.10938,-0.640625 0.4375,-0.4375 0.60937,-0.90625 0.17188,-0.484375 0.17188,-1.09375 z m 14.95335,9.421875 h -1.92187 l -1.32813,-3.78125 h -5.875 l -1.32812,3.78125 h -1.82813 l 4.9375,-13.5625 h 2.40625 z m -3.8125,-5.328125 -2.375,-6.65625 -2.39062,6.65625 z m 15.98767,-6.671875 q 0.82813,0.90625 1.26563,2.234375 0.4375,1.3125 0.4375,2.984375 0,1.6875 -0.45313,3.015625 -0.4375,1.3125 -1.25,2.203125 -0.84375,0.921875 -1.98437,1.390625 -1.14063,0.453125 -2.60938,0.453125 -1.4375,0 -2.60937,-0.46875 -1.15625,-0.484375 -1.98438,-1.375 -0.8125,-0.90625 -1.26562,-2.21875 -0.4375,-1.3125 -0.4375,-3 0,-1.65625 0.4375,-2.96875 0.4375,-1.3125 1.28125,-2.25 0.79687,-0.90625 1.98437,-1.375 1.1875,-0.46875 2.59375,-0.46875 1.45313,0 2.60938,0.484375 1.17187,0.46875 1.98437,1.359375 z m -0.17187,5.21875 q 0,-2.640625 -1.1875,-4.0625 -1.17188,-1.4375 -3.23438,-1.4375 -2.0625,0 -3.25,1.4375 -1.17187,1.421875 -1.17187,4.0625 0,2.671875 1.20312,4.09375 1.20313,1.40625 3.21875,1.40625 2.03125,0 3.21875,-1.40625 1.20313,-1.421875 1.20313,-4.09375 z m 12.79388,6.78125 h -7.34375 V 95.52674 h 2.82813 v -9.07812 h -2.82813 v -1.25 q 0.57813,0 1.23438,-0.09375 0.65625,-0.09375 0.98437,-0.28125 0.42188,-0.21875 0.65625,-0.5625 0.25,-0.359375 0.28125,-0.953125 h 1.42188 v 12.21875 h 2.76562 z"
           inkscape:connector-curvature="0"
           style="fill:#000000;fill-rule:nonzero" />
        <path
           id="path1048"
           d="m 81,297.24933 v 0 c 0,-37.27704 31.98167,-67.49605 71.43307,-67.49605 v 0 c 18.94522,0 37.11451,7.11118 50.51081,19.76913 13.3963,12.65798 20.92225,29.82586 20.92225,47.72692 v 0 c 0,37.27707 -31.98167,67.49606 -71.43306,67.49606 v 0 c -39.4514,0 -71.433071,-30.219 -71.433071,-67.49606 z"
           inkscape:connector-curvature="0"
           style="fill:#000000;fill-opacity:0;fill-rule:evenodd" />
        <path
           id="path1050"
           d="m 81,297.24933 v 0 c 0,-37.27704 31.98167,-67.49605 71.43307,-67.49605 v 0 c 18.94522,0 37.11451,7.11118 50.51081,19.76913 13.3963,12.65798 20.92225,29.82586 20.92225,47.72692 v 0 c 0,37.27707 -31.98167,67.49606 -71.43306,67.49606 v 0 c -39.4514,0 -71.433071,-30.219 -71.433071,-67.49606 z"
           inkscape:connector-curvature="0"
           style="fill-rule:evenodd;stroke:#595959;stroke-width:2;stroke-linecap:butt;stroke-linejoin:round" />
        <path
           id="path1052"
           d="m 139.25824,294.7006 q 0,0.90625 -0.3125,1.6875 -0.3125,0.76562 -0.875,1.32812 -0.70313,0.70313 -1.65625,1.04688 -0.95313,0.34375 -2.42188,0.34375 h -1.79687 v 5.0625 h -1.79688 v -13.5625 h 3.67188 q 1.21875,0 2.0625,0.20312 0.85937,0.20313 1.51562,0.64063 0.76563,0.51562 1.1875,1.29687 0.42188,0.76563 0.42188,1.95313 z m -1.875,0.0469 q 0,-0.70312 -0.25,-1.21875 -0.23438,-0.51562 -0.73438,-0.84375 -0.4375,-0.28125 -1,-0.40625 -0.5625,-0.125 -1.42187,-0.125 h -1.78125 v 5.42188 h 1.51562 q 1.09375,0 1.78125,-0.1875 0.6875,-0.20313 1.10938,-0.64063 0.4375,-0.4375 0.60937,-0.90625 0.17188,-0.48437 0.17188,-1.09375 z m 14.95335,9.42188 h -1.92187 l -1.32813,-3.78125 h -5.875 l -1.32812,3.78125 h -1.82813 l 4.9375,-13.5625 h 2.40625 z m -3.8125,-5.32813 -2.375,-6.65625 -2.39062,6.65625 z m 13.92517,5.32813 h -7.34375 v -1.39063 h 2.82813 v -9.07812 h -2.82813 v -1.25 q 0.57813,0 1.23438,-0.0937 0.65625,-0.0937 0.98437,-0.28125 0.42188,-0.21875 0.65625,-0.5625 0.25,-0.35938 0.28125,-0.95313 h 1.42188 v 12.21875 h 2.76562 z m 12.93869,-3.8125 h -2 v 3.8125 h -1.75 v -3.8125 h -6.5 v -2.09375 l 6.5625,-7.65625 h 1.6875 v 8.28125 h 2 z m -3.75,-1.46875 v -6.10938 l -5.26562,6.10938 z"
           inkscape:connector-curvature="0"
           style="fill:#000000;fill-rule:nonzero" />
        <path
           id="path1054"
           d="m 163.08784,357.55792 13.82678,-3.24411 3.05512,13.13388 -13.82677,3.24408 z"
           inkscape:connector-curvature="0"
           style="fill:#4e1c80;fill-opacity:0.93819999;fill-rule:evenodd" />
        <path
           id="path1056"
           d="m 163.08784,357.55792 13.82678,-3.24411 3.05512,13.13388 -13.82677,3.24408 z"
           inkscape:connector-curvature="0"
           style="fill-rule:evenodd;stroke:#595959;stroke-width:1;stroke-linecap:butt;stroke-linejoin:round" />
        <path
           id="path1058"
           d="m 46.362206,428.5165 h 19.086617 v 16.37796 H 46.362206 Z"
           inkscape:connector-curvature="0"
           style="fill:#4e1c80;fill-opacity:0.93819999;fill-rule:evenodd" />
        <path
           id="path1060"
           d="m 46.362206,428.5165 h 19.086617 v 16.37796 H 46.362206 Z"
           inkscape:connector-curvature="0"
           style="fill-rule:evenodd;stroke:#595959;stroke-width:1;stroke-linecap:butt;stroke-linejoin:round" />
        <path
           id="path1062"
           d="M 73.097115,418.7533 H 269.97901 v 38.77164 H 73.097115 Z"
           inkscape:connector-curvature="0"
           style="fill:#000000;fill-opacity:0;fill-rule:evenodd" />
        <path
           id="path1064"
           d="m 91.95649,432.84766 h -4.15625 v 10.26563 h -1.546875 v -10.26563 h -4.15625 v -1.375 h 9.859375 z m 8.23438,10.26563 h -1.468755 v -0.9375 q -0.1875,0.14062 -0.53125,0.375 -0.328125,0.23437 -0.640625,0.375 -0.359375,0.1875 -0.84375,0.3125 -0.46875,0.125 -1.109375,0.125 -1.1875,0 -2.015625,-0.78125 -0.8125,-0.79688 -0.8125,-2 0,-1 0.421875,-1.60938 0.4375,-0.60937 1.21875,-0.96875 0.796875,-0.34375 1.90625,-0.46875 1.125,-0.125 2.40625,-0.1875 v -0.23437 q 0,-0.5 -0.171875,-0.82813 -0.171875,-0.32812 -0.5,-0.51562 -0.3125,-0.17188 -0.75,-0.23438 -0.4375,-0.0625 -0.921875,-0.0625 -0.578125,0 -1.296875,0.15625 -0.703125,0.14063 -1.453125,0.4375 h -0.07813 v -1.5 q 0.421875,-0.10937 1.234375,-0.25 0.8125,-0.14062 1.609375,-0.14062 0.921875,0 1.59375,0.15625 0.6875,0.14062 1.1875,0.51562 0.5,0.35938 0.75,0.9375 0.265635,0.5625 0.265635,1.40625 z m -1.468755,-2.15625 v -2.42188 q -0.671875,0.0312 -1.578125,0.10938 -0.90625,0.0781 -1.4375,0.23437 -0.640625,0.17188 -1.03125,0.5625 -0.390625,0.375 -0.390625,1.03125 0,0.75 0.453125,1.14063 0.453125,0.375 1.390625,0.375 0.765625,0 1.40625,-0.29688 0.640625,-0.3125 1.1875,-0.73437 z m 9.734375,-4.96875 h -0.0781 q -0.32813,-0.0781 -0.64063,-0.10938 -0.29687,-0.0469 -0.71875,-0.0469 -0.6875,0 -1.32812,0.3125 -0.625,0.29687 -1.20313,0.76562 v 6.20313 h -1.46875 v -8.73438 h 1.46875 v 1.29688 q 0.875,-0.70313 1.53125,-1 0.67188,-0.29688 1.375,-0.29688 0.375,0 0.54688,0.0312 0.17187,0.0156 0.51562,0.0625 z m 8.46875,6.125 q 0,2.23437 -1.01562,3.26562 -1,1.04688 -3.09375,1.04688 -0.70313,0 -1.35938,-0.10938 -0.65625,-0.0937 -1.29687,-0.26562 v -1.5 h 0.0781 q 0.35938,0.14062 1.14063,0.34375 0.78125,0.20312 1.5625,0.20312 0.75,0 1.23437,-0.1875 0.5,-0.17187 0.76563,-0.48437 0.28125,-0.3125 0.39062,-0.75 0.125,-0.42188 0.125,-0.95313 v -0.79687 q -0.67187,0.53125 -1.28125,0.79687 -0.59375,0.25 -1.53125,0.25 -1.5625,0 -2.48437,-1.125 -0.92188,-1.125 -0.92188,-3.1875 0,-1.125 0.3125,-1.9375 0.32813,-0.8125 0.875,-1.40625 0.5,-0.5625 1.21875,-0.85937 0.73438,-0.3125 1.45313,-0.3125 0.76562,0 1.26562,0.15625 0.51563,0.14062 1.09375,0.45312 l 0.0937,-0.375 h 1.375 z m -1.46875,-1.40625 v -4.75 q -0.59375,-0.26563 -1.09375,-0.375 -0.5,-0.125 -1,-0.125 -1.21875,0 -1.92187,0.8125 -0.6875,0.8125 -0.6875,2.35937 0,1.46875 0.51562,2.23438 0.51563,0.75 1.71875,0.75 0.64063,0 1.28125,-0.23438 0.64063,-0.25 1.1875,-0.67187 z m 11.65625,-1.8125 h -6.42187 q 0,0.8125 0.23437,1.40625 0.25,0.59375 0.67188,0.98437 0.40625,0.375 0.95312,0.5625 0.5625,0.1875 1.23438,0.1875 0.89062,0 1.79687,-0.35937 0.90625,-0.35938 1.28125,-0.70313 h 0.0781 v 1.60938 q -0.73438,0.3125 -1.51563,0.53125 -0.76562,0.20312 -1.625,0.20312 -2.17187,0 -3.39062,-1.17187 -1.21875,-1.1875 -1.21875,-3.34375 0,-2.14063 1.17187,-3.39063 1.17188,-1.26562 3.07813,-1.26562 1.76562,0 2.71875,1.03125 0.95312,1.03125 0.95312,2.92187 z m -1.42187,-1.125 q -0.0156,-1.15625 -0.59375,-1.78125 -0.5625,-0.64063 -1.73438,-0.64063 -1.1875,0 -1.89062,0.70313 -0.6875,0.6875 -0.78125,1.71875 z m 8.18749,5.26562 q -0.42188,0.10938 -0.90625,0.17188 -0.48438,0.0781 -0.875,0.0781 -1.32813,0 -2.03125,-0.71875 -0.6875,-0.71875 -0.6875,-2.3125 v -4.64062 h -1 v -1.23438 h 1 v -2.5 h 1.46875 v 2.5 h 3.03125 v 1.23438 h -3.03125 v 3.98437 q 0,0.6875 0.0312,1.07813 0.0312,0.375 0.21875,0.71875 0.17187,0.3125 0.46875,0.45312 0.29687,0.14063 0.92187,0.14063 0.35938,0 0.75,-0.0937 0.39063,-0.10938 0.5625,-0.1875 h 0.0781 z m 13.85156,-0.46875 q -0.73438,0.34375 -1.40625,0.54688 -0.65625,0.20312 -1.39063,0.20312 -0.95312,0 -1.75,-0.28125 -0.78125,-0.28125 -1.34375,-0.84375 -0.5625,-0.5625 -0.875,-1.42187 -0.3125,-0.85938 -0.3125,-2.01563 0,-2.14062 1.17188,-3.35937 1.17187,-1.21875 3.10937,-1.21875 0.75,0 1.46875,0.21875 0.71875,0.20312 1.32813,0.51562 v 1.625 h -0.0781 q -0.67187,-0.51562 -1.39062,-0.79687 -0.71875,-0.28125 -1.39063,-0.28125 -1.25,0 -1.98437,0.84375 -0.71875,0.82812 -0.71875,2.45312 0,1.57813 0.70312,2.4375 0.71875,0.84375 2,0.84375 0.4375,0 0.89063,-0.10937 0.46875,-0.125 0.84375,-0.3125 0.3125,-0.17188 0.59375,-0.34375 0.28125,-0.1875 0.45312,-0.32813 h 0.0781 z m 9.32031,-3.8125 q 0,2.125 -1.09375,3.375 -1.09375,1.23438 -2.9375,1.23438 -1.84375,0 -2.9375,-1.23438 -1.09375,-1.25 -1.09375,-3.375 0,-2.14062 1.09375,-3.375 1.09375,-1.23437 2.9375,-1.23437 1.84375,0 2.9375,1.23437 1.09375,1.23438 1.09375,3.375 z m -1.51562,0 q 0,-1.70312 -0.67188,-2.51562 -0.65625,-0.82813 -1.84375,-0.82813 -1.1875,0 -1.85937,0.82813 -0.65625,0.8125 -0.65625,2.51562 0,1.64063 0.65625,2.48438 0.67187,0.84375 1.85937,0.84375 1.17188,0 1.84375,-0.82813 0.67188,-0.84375 0.67188,-2.5 z m 9.22656,-2.76562 h -0.0781 q -0.32812,-0.0781 -0.64062,-0.10938 -0.29688,-0.0469 -0.71875,-0.0469 -0.6875,0 -1.32813,0.3125 -0.625,0.29687 -1.20312,0.76562 v 6.20313 h -1.46875 v -8.73438 h 1.46875 v 1.29688 q 0.875,-0.70313 1.53125,-1 0.67187,-0.29688 1.375,-0.29688 0.375,0 0.54687,0.0312 0.17188,0.0156 0.51563,0.0625 z m 8.6875,2.90625 h -6.42188 q 0,0.8125 0.23438,1.40625 0.25,0.59375 0.67187,0.98437 0.40625,0.375 0.95313,0.5625 0.5625,0.1875 1.23437,0.1875 0.89063,0 1.79688,-0.35937 0.90625,-0.35938 1.28125,-0.70313 h 0.0781 v 1.60938 q -0.73437,0.3125 -1.51562,0.53125 -0.76563,0.20312 -1.625,0.20312 -2.17188,0 -3.39063,-1.17187 -1.21875,-1.1875 -1.21875,-3.34375 0,-2.14063 1.17188,-3.39063 1.17187,-1.26562 3.07812,-1.26562 1.76563,0 2.71875,1.03125 0.95313,1.03125 0.95313,2.92187 z m -1.42188,-1.125 q -0.0156,-1.15625 -0.59375,-1.78125 -0.5625,-0.64063 -1.73437,-0.64063 -1.1875,0 -1.89063,0.70313 -0.6875,0.6875 -0.78125,1.71875 z m 16.35938,4.34375 q 0,2.23437 -1.01563,3.26562 -1,1.04688 -3.09375,1.04688 -0.70312,0 -1.35937,-0.10938 -0.65625,-0.0937 -1.29688,-0.26562 v -1.5 h 0.0781 q 0.35937,0.14062 1.14062,0.34375 0.78125,0.20312 1.5625,0.20312 0.75,0 1.23438,-0.1875 0.5,-0.17187 0.76562,-0.48437 0.28125,-0.3125 0.39063,-0.75 0.125,-0.42188 0.125,-0.95313 v -0.79687 q -0.67188,0.53125 -1.28125,0.79687 -0.59375,0.25 -1.53125,0.25 -1.5625,0 -2.48438,-1.125 -0.92187,-1.125 -0.92187,-3.1875 0,-1.125 0.3125,-1.9375 0.32812,-0.8125 0.875,-1.40625 0.5,-0.5625 1.21875,-0.85937 0.73437,-0.3125 1.45312,-0.3125 0.76563,0 1.26563,0.15625 0.51562,0.14062 1.09375,0.45312 l 0.0937,-0.375 h 1.375 z m -1.46875,-1.40625 v -4.75 q -0.59375,-0.26563 -1.09375,-0.375 -0.5,-0.125 -1,-0.125 -1.21875,0 -1.92188,0.8125 -0.6875,0.8125 -0.6875,2.35937 0,1.46875 0.51563,2.23438 0.51562,0.75 1.71875,0.75 0.64062,0 1.28125,-0.23438 0.64062,-0.25 1.1875,-0.67187 z m 11.65625,-1.8125 h -6.42188 q 0,0.8125 0.23438,1.40625 0.25,0.59375 0.67187,0.98437 0.40625,0.375 0.95313,0.5625 0.5625,0.1875 1.23437,0.1875 0.89063,0 1.79688,-0.35937 0.90625,-0.35938 1.28125,-0.70313 h 0.0781 v 1.60938 q -0.73437,0.3125 -1.51562,0.53125 -0.76563,0.20312 -1.625,0.20312 -2.17188,0 -3.39063,-1.17187 -1.21875,-1.1875 -1.21875,-3.34375 0,-2.14063 1.17188,-3.39063 1.17187,-1.26562 3.07812,-1.26562 1.76563,0 2.71875,1.03125 0.95313,1.03125 0.95313,2.92187 z m -1.42188,-1.125 q -0.0156,-1.15625 -0.59375,-1.78125 -0.5625,-0.64063 -1.73437,-0.64063 -1.1875,0 -1.89063,0.70313 -0.6875,0.6875 -0.78125,1.71875 z m 10.95313,5.34375 h -1.46875 v -4.96875 q 0,-0.60938 -0.0781,-1.125 -0.0625,-0.53125 -0.25,-0.82813 -0.20312,-0.32812 -0.57812,-0.48437 -0.35938,-0.17188 -0.9375,-0.17188 -0.60938,0 -1.26563,0.29688 -0.65625,0.29687 -1.25,0.76562 v 6.51563 h -1.46875 v -8.73438 h 1.46875 v 0.96875 q 0.6875,-0.5625 1.42188,-0.875 0.73437,-0.32812 1.5,-0.32812 1.42187,0 2.15625,0.85937 0.75,0.84375 0.75,2.4375 z m 10.125,-4.21875 h -6.42188 q 0,0.8125 0.23438,1.40625 0.25,0.59375 0.67187,0.98437 0.40625,0.375 0.95313,0.5625 0.5625,0.1875 1.23437,0.1875 0.89063,0 1.79688,-0.35937 0.90625,-0.35938 1.28125,-0.70313 h 0.0781 v 1.60938 q -0.73437,0.3125 -1.51562,0.53125 -0.76563,0.20312 -1.625,0.20312 -2.17188,0 -3.39063,-1.17187 -1.21875,-1.1875 -1.21875,-3.34375 0,-2.14063 1.17188,-3.39063 1.17187,-1.26562 3.07812,-1.26562 1.76563,0 2.71875,1.03125 0.95313,1.03125 0.95313,2.92187 z m -1.42188,-1.125 q -0.0156,-1.15625 -0.59375,-1.78125 -0.5625,-0.64063 -1.73437,-0.64063 -1.1875,0 -1.89063,0.70313 -0.6875,0.6875 -0.78125,1.71875 z"
           inkscape:connector-curvature="0"
           style="fill:#000000;fill-rule:nonzero" />
        <path
           id="path1066"
           d="M 73.097115,451.6299 H 351.99476 v 38.77167 H 73.097115 Z"
           inkscape:connector-curvature="0"
           style="fill:#000000;fill-opacity:0;fill-rule:evenodd" />
        <path
           id="path1068"
           d="m 92.534615,475.98993 h -1.90625 L 85.11274,465.58368 v 10.40625 h -1.453125 v -11.64062 h 2.40625 l 5.03125,9.5 v -9.5 h 1.4375 z m 10.281255,-4.21875 h -6.42188 q 0,0.8125 0.234375,1.40625 0.25,0.59375 0.671875,0.98438 0.40625,0.375 0.953125,0.5625 0.5625,0.1875 1.234375,0.1875 0.89063,0 1.79688,-0.35938 0.90625,-0.35937 1.28125,-0.70312 h 0.0781 v 1.60937 q -0.73437,0.3125 -1.51562,0.53125 -0.76563,0.20313 -1.625005,0.20313 -2.171875,0 -3.390625,-1.17188 -1.21875,-1.1875 -1.21875,-3.34375 0,-2.14062 1.171875,-3.39062 1.171875,-1.26563 3.078125,-1.26563 1.76563,0 2.71875,1.03125 0.95313,1.03125 0.95313,2.92188 z m -1.42188,-1.125 q -0.0156,-1.15625 -0.59375,-1.78125 -0.5625,-0.64062 -1.734375,-0.64062 -1.1875,0 -1.890625,0.70312 -0.6875,0.6875 -0.78125,1.71875 z m 5.23438,-4.84375 h -1.65625 v -1.53125 h 1.65625 z m -0.0937,10.1875 h -1.46875 v -8.73437 h 1.46875 z m 9.98437,-1 q 0,2.23438 -1.01562,3.26563 -1,1.04687 -3.09375,1.04687 -0.70313,0 -1.35938,-0.10937 -0.65625,-0.0937 -1.29687,-0.26563 v -1.5 h 0.0781 q 0.35938,0.14063 1.14063,0.34375 0.78125,0.20313 1.5625,0.20313 0.75,0 1.23437,-0.1875 0.5,-0.17188 0.76563,-0.48438 0.28125,-0.3125 0.39062,-0.75 0.125,-0.42187 0.125,-0.95312 v -0.79688 q -0.67187,0.53125 -1.28125,0.79688 -0.59375,0.25 -1.53125,0.25 -1.5625,0 -2.48437,-1.125 -0.92188,-1.125 -0.92188,-3.1875 0,-1.125 0.3125,-1.9375 0.32813,-0.8125 0.875,-1.40625 0.5,-0.5625 1.21875,-0.85938 0.73438,-0.3125 1.45313,-0.3125 0.76562,0 1.26562,0.15625 0.51563,0.14063 1.09375,0.45313 l 0.0937,-0.375 h 1.375 z m -1.46875,-1.40625 v -4.75 q -0.59375,-0.26562 -1.09375,-0.375 -0.5,-0.125 -1,-0.125 -1.21875,0 -1.92187,0.8125 -0.6875,0.8125 -0.6875,2.35938 0,1.46875 0.51562,2.23437 0.51563,0.75 1.71875,0.75 0.64063,0 1.28125,-0.23437 0.64063,-0.25 1.1875,-0.67188 z m 11.65625,2.40625 h -1.46875 v -4.96875 q 0,-0.60937 -0.0781,-1.125 -0.0625,-0.53125 -0.25,-0.82812 -0.20313,-0.32813 -0.57813,-0.48438 -0.35937,-0.17187 -0.9375,-0.17187 -0.60937,0 -1.26562,0.29687 -0.65625,0.29688 -1.25,0.76563 v 6.51562 h -1.46875 v -12.15625 h 1.46875 v 4.39063 q 0.6875,-0.5625 1.42187,-0.875 0.73438,-0.32813 1.5,-0.32813 1.42188,0 2.15625,0.85938 0.75,0.84375 0.75,2.4375 z m 10.49999,-4.4375 q 0,1.09375 -0.3125,1.96875 -0.29687,0.875 -0.82812,1.46875 -0.54688,0.625 -1.21875,0.9375 -0.65625,0.3125 -1.45313,0.3125 -0.75,0 -1.3125,-0.1875 -0.54687,-0.17187 -1.07812,-0.46875 l -0.0937,0.40625 h -1.375 v -12.15625 h 1.46875 v 4.34375 q 0.60937,-0.51562 1.29687,-0.82812 0.70313,-0.32813 1.57813,-0.32813 1.54687,0 2.4375,1.1875 0.89062,1.1875 0.89062,3.34375 z m -1.51562,0.0469 q 0,-1.5625 -0.51563,-2.375 -0.51562,-0.8125 -1.65625,-0.8125 -0.64062,0 -1.29687,0.28125 -0.65625,0.28125 -1.21875,0.71875 v 5 q 0.625,0.28125 1.0625,0.39062 0.45312,0.10938 1.03125,0.10938 1.21875,0 1.90625,-0.79688 0.6875,-0.8125 0.6875,-2.51562 z m 11.25,0.0312 q 0,2.125 -1.09375,3.375 -1.09375,1.23437 -2.9375,1.23437 -1.84375,0 -2.9375,-1.23437 -1.09375,-1.25 -1.09375,-3.375 0,-2.14063 1.09375,-3.375 1.09375,-1.23438 2.9375,-1.23438 1.84375,0 2.9375,1.23438 1.09375,1.23437 1.09375,3.375 z m -1.51563,0 q 0,-1.70313 -0.67187,-2.51563 -0.65625,-0.82812 -1.84375,-0.82812 -1.1875,0 -1.85938,0.82812 -0.65625,0.8125 -0.65625,2.51563 0,1.64062 0.65625,2.48437 0.67188,0.84375 1.85938,0.84375 1.17187,0 1.84375,-0.82812 0.67187,-0.84375 0.67187,-2.5 z m 9.22656,-2.76563 h -0.0781 q -0.32813,-0.0781 -0.64063,-0.10937 -0.29687,-0.0469 -0.71875,-0.0469 -0.6875,0 -1.32812,0.3125 -0.625,0.29688 -1.20313,0.76563 v 6.20312 h -1.46875 v -8.73437 h 1.46875 v 1.29687 q 0.875,-0.70312 1.53125,-1 0.67188,-0.29687 1.375,-0.29687 0.375,0 0.54688,0.0312 0.17187,0.0156 0.51562,0.0625 z m 2.96875,-3.0625 h -1.65625 v -1.53125 h 1.65625 z m -0.0937,10.1875 h -1.46875 v -8.73437 h 1.46875 z m 10.20313,0 h -1.46875 v -4.96875 q 0,-0.60937 -0.0781,-1.125 -0.0625,-0.53125 -0.25,-0.82812 -0.20312,-0.32813 -0.57812,-0.48438 -0.35938,-0.17187 -0.9375,-0.17187 -0.60938,0 -1.26563,0.29687 -0.65625,0.29688 -1.25,0.76563 v 6.51562 h -1.46875 v -8.73437 h 1.46875 v 0.96875 q 0.6875,-0.5625 1.42188,-0.875 0.73437,-0.32813 1.5,-0.32813 1.42187,0 2.15625,0.85938 0.75,0.84375 0.75,2.4375 z m 9.90625,-1 q 0,2.23438 -1.01563,3.26563 -1,1.04687 -3.09375,1.04687 -0.70312,0 -1.35937,-0.10937 -0.65625,-0.0937 -1.29688,-0.26563 v -1.5 h 0.0781 q 0.35937,0.14063 1.14062,0.34375 0.78125,0.20313 1.5625,0.20313 0.75,0 1.23438,-0.1875 0.5,-0.17188 0.76562,-0.48438 0.28125,-0.3125 0.39063,-0.75 0.125,-0.42187 0.125,-0.95312 v -0.79688 q -0.67188,0.53125 -1.28125,0.79688 -0.59375,0.25 -1.53125,0.25 -1.5625,0 -2.48438,-1.125 -0.92187,-1.125 -0.92187,-3.1875 0,-1.125 0.3125,-1.9375 0.32812,-0.8125 0.875,-1.40625 0.5,-0.5625 1.21875,-0.85938 0.73437,-0.3125 1.45312,-0.3125 0.76563,0 1.26563,0.15625 0.51562,0.14063 1.09375,0.45313 l 0.0937,-0.375 h 1.375 z m -1.46875,-1.40625 v -4.75 q -0.59375,-0.26562 -1.09375,-0.375 -0.5,-0.125 -1,-0.125 -1.21875,0 -1.92188,0.8125 -0.6875,0.8125 -0.6875,2.35938 0,1.46875 0.51563,2.23437 0.51562,0.75 1.71875,0.75 0.64062,0 1.28125,-0.23437 0.64062,-0.25 1.1875,-0.67188 z m 16.4375,1.85938 q -0.73438,0.34375 -1.40625,0.54687 -0.65625,0.20313 -1.39063,0.20313 -0.95312,0 -1.75,-0.28125 -0.78125,-0.28125 -1.34375,-0.84375 -0.5625,-0.5625 -0.875,-1.42188 -0.3125,-0.85937 -0.3125,-2.01562 0,-2.14063 1.17188,-3.35938 1.17187,-1.21875 3.10937,-1.21875 0.75,0 1.46875,0.21875 0.71875,0.20313 1.32813,0.51563 v 1.625 h -0.0781 q -0.67187,-0.51563 -1.39062,-0.79688 -0.71875,-0.28125 -1.39063,-0.28125 -1.25,0 -1.98437,0.84375 -0.71875,0.82813 -0.71875,2.45313 0,1.57812 0.70312,2.4375 0.71875,0.84375 2,0.84375 0.4375,0 0.89063,-0.10938 0.46875,-0.125 0.84375,-0.3125 0.3125,-0.17187 0.59375,-0.34375 0.28125,-0.1875 0.45312,-0.32812 h 0.0781 z m 9.32031,-3.8125 q 0,2.125 -1.09375,3.375 -1.09375,1.23437 -2.9375,1.23437 -1.84375,0 -2.9375,-1.23437 -1.09375,-1.25 -1.09375,-3.375 0,-2.14063 1.09375,-3.375 1.09375,-1.23438 2.9375,-1.23438 1.84375,0 2.9375,1.23438 1.09375,1.23437 1.09375,3.375 z m -1.51562,0 q 0,-1.70313 -0.67188,-2.51563 -0.65625,-0.82812 -1.84375,-0.82812 -1.1875,0 -1.85937,0.82812 -0.65625,0.8125 -0.65625,2.51563 0,1.64062 0.65625,2.48437 0.67187,0.84375 1.85937,0.84375 1.17188,0 1.84375,-0.82812 0.67188,-0.84375 0.67188,-2.5 z m 9.22656,-2.76563 h -0.0781 q -0.32812,-0.0781 -0.64062,-0.10937 -0.29688,-0.0469 -0.71875,-0.0469 -0.6875,0 -1.32813,0.3125 -0.625,0.29688 -1.20312,0.76563 v 6.20312 h -1.46875 v -8.73437 h 1.46875 v 1.29687 q 0.875,-0.70312 1.53125,-1 0.67187,-0.29687 1.375,-0.29687 0.375,0 0.54687,0.0312 0.17188,0.0156 0.51563,0.0625 z m 8.6875,2.90625 h -6.42188 q 0,0.8125 0.23438,1.40625 0.25,0.59375 0.67187,0.98438 0.40625,0.375 0.95313,0.5625 0.5625,0.1875 1.23437,0.1875 0.89063,0 1.79688,-0.35938 0.90625,-0.35937 1.28125,-0.70312 h 0.0781 v 1.60937 q -0.73437,0.3125 -1.51562,0.53125 -0.76563,0.20313 -1.625,0.20313 -2.17188,0 -3.39063,-1.17188 -1.21875,-1.1875 -1.21875,-3.34375 0,-2.14062 1.17188,-3.39062 1.17187,-1.26563 3.07812,-1.26563 1.76563,0 2.71875,1.03125 0.95313,1.03125 0.95313,2.92188 z m -1.42188,-1.125 q -0.0156,-1.15625 -0.59375,-1.78125 -0.5625,-0.64062 -1.73437,-0.64062 -1.1875,0 -1.89063,0.70312 -0.6875,0.6875 -0.78125,1.71875 z m 16.35938,4.34375 q 0,2.23438 -1.01563,3.26563 -1,1.04687 -3.09375,1.04687 -0.70312,0 -1.35937,-0.10937 -0.65625,-0.0937 -1.29688,-0.26563 v -1.5 h 0.0781 q 0.35937,0.14063 1.14062,0.34375 0.78125,0.20313 1.5625,0.20313 0.75,0 1.23438,-0.1875 0.5,-0.17188 0.76562,-0.48438 0.28125,-0.3125 0.39063,-0.75 0.125,-0.42187 0.125,-0.95312 v -0.79688 q -0.67188,0.53125 -1.28125,0.79688 -0.59375,0.25 -1.53125,0.25 -1.5625,0 -2.48438,-1.125 -0.92187,-1.125 -0.92187,-3.1875 0,-1.125 0.3125,-1.9375 0.32812,-0.8125 0.875,-1.40625 0.5,-0.5625 1.21875,-0.85938 0.73437,-0.3125 1.45312,-0.3125 0.76563,0 1.26563,0.15625 0.51562,0.14063 1.09375,0.45313 l 0.0937,-0.375 h 1.375 z m -1.46875,-1.40625 v -4.75 q -0.59375,-0.26562 -1.09375,-0.375 -0.5,-0.125 -1,-0.125 -1.21875,0 -1.92188,0.8125 -0.6875,0.8125 -0.6875,2.35938 0,1.46875 0.51563,2.23437 0.51562,0.75 1.71875,0.75 0.64062,0 1.28125,-0.23437 0.64062,-0.25 1.1875,-0.67188 z m 11.65625,-1.8125 h -6.42188 q 0,0.8125 0.23438,1.40625 0.25,0.59375 0.67187,0.98438 0.40625,0.375 0.95313,0.5625 0.5625,0.1875 1.23437,0.1875 0.89063,0 1.79688,-0.35938 0.90625,-0.35937 1.28125,-0.70312 h 0.0781 v 1.60937 q -0.73437,0.3125 -1.51562,0.53125 -0.76563,0.20313 -1.625,0.20313 -2.17188,0 -3.39063,-1.17188 -1.21875,-1.1875 -1.21875,-3.34375 0,-2.14062 1.17188,-3.39062 1.17187,-1.26563 3.07812,-1.26563 1.76563,0 2.71875,1.03125 0.95313,1.03125 0.95313,2.92188 z m -1.42188,-1.125 q -0.0156,-1.15625 -0.59375,-1.78125 -0.5625,-0.64062 -1.73437,-0.64062 -1.1875,0 -1.89063,0.70312 -0.6875,0.6875 -0.78125,1.71875 z m 10.95313,5.34375 h -1.46875 v -4.96875 q 0,-0.60937 -0.0781,-1.125 -0.0625,-0.53125 -0.25,-0.82812 -0.20312,-0.32813 -0.57812,-0.48438 -0.35938,-0.17187 -0.9375,-0.17187 -0.60938,0 -1.26563,0.29687 -0.65625,0.29688 -1.25,0.76563 v 6.51562 h -1.46875 v -8.73437 h 1.46875 v 0.96875 q 0.6875,-0.5625 1.42188,-0.875 0.73437,-0.32813 1.5,-0.32813 1.42187,0 2.15625,0.85938 0.75,0.84375 0.75,2.4375 z m 10.125,-4.21875 h -6.42188 q 0,0.8125 0.23438,1.40625 0.25,0.59375 0.67187,0.98438 0.40625,0.375 0.95313,0.5625 0.5625,0.1875 1.23437,0.1875 0.89063,0 1.79688,-0.35938 0.90625,-0.35937 1.28125,-0.70312 h 0.0781 v 1.60937 q -0.73437,0.3125 -1.51562,0.53125 -0.76563,0.20313 -1.625,0.20313 -2.17188,0 -3.39063,-1.17188 -1.21875,-1.1875 -1.21875,-3.34375 0,-2.14062 1.17188,-3.39062 1.17187,-1.26563 3.07812,-1.26563 1.76563,0 2.71875,1.03125 0.95313,1.03125 0.95313,2.92188 z m -1.42188,-1.125 q -0.0156,-1.15625 -0.59375,-1.78125 -0.5625,-0.64062 -1.73437,-0.64062 -1.1875,0 -1.89063,0.70312 -0.6875,0.6875 -0.78125,1.71875 z m 9.89063,2.82813 q 0,1.1875 -1,1.96875 -0.98438,0.76562 -2.6875,0.76562 -0.96875,0 -1.78125,-0.23437 -0.8125,-0.23438 -1.35938,-0.51563 v -1.64062 h 0.0781 q 0.70312,0.51562 1.54687,0.82812 0.85938,0.3125 1.64063,0.3125 0.96875,0 1.51562,-0.3125 0.54688,-0.3125 0.54688,-0.98437 0,-0.51563 -0.29688,-0.78125 -0.29687,-0.26563 -1.14062,-0.45313 -0.3125,-0.0781 -0.82813,-0.17187 -0.5,-0.0937 -0.90625,-0.20313 -1.15625,-0.29687 -1.64062,-0.89062 -0.46875,-0.59375 -0.46875,-1.45313 0,-0.53125 0.21875,-1 0.21875,-0.48437 0.67187,-0.85937 0.4375,-0.375 1.10938,-0.57813 0.6875,-0.21875 1.51562,-0.21875 0.78125,0 1.57813,0.1875 0.8125,0.1875 1.34375,0.46875 v 1.5625 h -0.0781 q -0.5625,-0.40625 -1.375,-0.6875 -0.79687,-0.29687 -1.57812,-0.29687 -0.79688,0 -1.35938,0.3125 -0.54687,0.3125 -0.54687,0.92187 0,0.53125 0.32812,0.8125 0.32813,0.26563 1.0625,0.4375 0.40625,0.0937 0.90625,0.1875 0.51563,0.0937 0.84375,0.17188 1.03125,0.23437 1.57813,0.8125 0.5625,0.57812 0.5625,1.53125 z m 9.30469,-7.67188 h -1.65625 v -1.53125 h 1.65625 z m -0.0937,10.1875 h -1.46875 v -8.73437 h 1.46875 z m 10.20312,0 h -1.46875 v -4.96875 q 0,-0.60937 -0.0781,-1.125 -0.0625,-0.53125 -0.25,-0.82812 -0.20313,-0.32813 -0.57813,-0.48438 -0.35937,-0.17187 -0.9375,-0.17187 -0.60937,0 -1.26562,0.29687 -0.65625,0.29688 -1.25,0.76563 v 6.51562 h -1.46875 v -8.73437 h 1.46875 v 0.96875 q 0.6875,-0.5625 1.42187,-0.875 0.73438,-0.32813 1.5,-0.32813 1.42188,0 2.15625,0.85938 0.75,0.84375 0.75,2.4375 z m 16.17188,-8.125 q 0,0.78125 -0.26563,1.4375 -0.26562,0.65625 -0.75,1.14063 -0.60937,0.60937 -1.4375,0.90625 -0.8125,0.29687 -2.0625,0.29687 h -1.54687 v 4.34375 h -1.54688 v -11.64062 h 3.15625 q 1.04688,0 1.76563,0.1875 0.73437,0.17187 1.29687,0.54687 0.67188,0.4375 1.03125,1.10938 0.35938,0.65625 0.35938,1.67187 z m -1.60938,0.0469 q 0,-0.60938 -0.21875,-1.04688 -0.20312,-0.45312 -0.625,-0.73437 -0.375,-0.23438 -0.85937,-0.34375 -0.48438,-0.10938 -1.21875,-0.10938 h -1.53125 v 4.65625 h 1.3125 q 0.9375,0 1.51562,-0.17187 0.59375,-0.17188 0.95313,-0.53125 0.375,-0.375 0.51562,-0.78125 0.15625,-0.42188 0.15625,-0.9375 z m 12.82031,8.07812 h -1.64062 l -1.14063,-3.25 h -5.03125 l -1.14062,3.25 h -1.57813 l 4.23438,-11.64062 h 2.0625 z m -3.26562,-4.57812 -2.03125,-5.70313 -2.04688,5.70313 z m 13.70312,-5.71875 q 0.71875,0.78125 1.09375,1.92187 0.375,1.125 0.375,2.5625 0,1.4375 -0.39062,2.57813 -0.375,1.125 -1.07813,1.89062 -0.71875,0.78125 -1.70312,1.1875 -0.96875,0.40625 -2.23438,0.40625 -1.21875,0 -2.23437,-0.40625 -1,-0.42187 -1.70313,-1.1875 -0.70312,-0.78125 -1.07812,-1.90625 -0.375,-1.125 -0.375,-2.5625 0,-1.42187 0.375,-2.54687 0.375,-1.14063 1.09375,-1.9375 0.6875,-0.76563 1.70312,-1.17188 1.01563,-0.40625 2.21875,-0.40625 1.25,0 2.25,0.40625 1,0.40625 1.6875,1.17188 z m -0.14062,4.48437 q 0,-2.26562 -1.01563,-3.5 -1.01562,-1.23437 -2.76562,-1.23437 -1.78125,0 -2.79688,1.23437 -1,1.23438 -1,3.5 0,2.28125 1.03125,3.5 1.03125,1.21875 2.76563,1.21875 1.73437,0 2.75,-1.21875 1.03125,-1.21875 1.03125,-3.5 z m 10.96875,5.8125 h -6.29688 v -1.1875 h 2.42188 v -7.79687 h -2.42188 v -1.0625 q 0.5,0 1.0625,-0.0781 0.5625,-0.0937 0.84375,-0.25 0.35938,-0.1875 0.5625,-0.48437 0.21875,-0.3125 0.25,-0.8125 h 1.20313 v 10.48437 h 2.375 z"
           inkscape:connector-curvature="0"
           style="fill:#000000;fill-rule:nonzero" />
        <path
           id="path1070"
           d="M 73.097115,483.6299 H 351.99476 v 38.77164 H 73.097115 Z"
           inkscape:connector-curvature="0"
           style="fill:#000000;fill-opacity:0;fill-rule:evenodd" />
        <path
           id="path1072"
           d="m 92.534615,507.98993 h -1.90625 L 85.11274,497.58368 v 10.40625 h -1.453125 v -11.64062 h 2.40625 l 5.03125,9.5 v -9.5 h 1.4375 z m 10.281255,-4.21875 h -6.42188 q 0,0.8125 0.234375,1.40625 0.25,0.59375 0.671875,0.98438 0.40625,0.375 0.953125,0.5625 0.5625,0.1875 1.234375,0.1875 0.89063,0 1.79688,-0.35938 0.90625,-0.35937 1.28125,-0.70312 h 0.0781 v 1.60937 q -0.73437,0.3125 -1.51562,0.53125 -0.76563,0.20313 -1.625005,0.20313 -2.171875,0 -3.390625,-1.17188 -1.21875,-1.1875 -1.21875,-3.34375 0,-2.14062 1.171875,-3.39062 1.171875,-1.26563 3.078125,-1.26563 1.76563,0 2.71875,1.03125 0.95313,1.03125 0.95313,2.92188 z m -1.42188,-1.125 q -0.0156,-1.15625 -0.59375,-1.78125 -0.5625,-0.64062 -1.734375,-0.64062 -1.1875,0 -1.890625,0.70312 -0.6875,0.6875 -0.78125,1.71875 z m 5.23438,-4.84375 h -1.65625 v -1.53125 h 1.65625 z m -0.0937,10.1875 h -1.46875 v -8.73437 h 1.46875 z m 9.98437,-1 q 0,2.23438 -1.01562,3.26563 -1,1.04687 -3.09375,1.04687 -0.70313,0 -1.35938,-0.10937 -0.65625,-0.0937 -1.29687,-0.26563 v -1.5 h 0.0781 q 0.35938,0.14063 1.14063,0.34375 0.78125,0.20313 1.5625,0.20313 0.75,0 1.23437,-0.1875 0.5,-0.17188 0.76563,-0.48438 0.28125,-0.3125 0.39062,-0.75 0.125,-0.42187 0.125,-0.95312 v -0.79688 q -0.67187,0.53125 -1.28125,0.79688 -0.59375,0.25 -1.53125,0.25 -1.5625,0 -2.48437,-1.125 -0.92188,-1.125 -0.92188,-3.1875 0,-1.125 0.3125,-1.9375 0.32813,-0.8125 0.875,-1.40625 0.5,-0.5625 1.21875,-0.85938 0.73438,-0.3125 1.45313,-0.3125 0.76562,0 1.26562,0.15625 0.51563,0.14063 1.09375,0.45313 l 0.0937,-0.375 h 1.375 z m -1.46875,-1.40625 v -4.75 q -0.59375,-0.26562 -1.09375,-0.375 -0.5,-0.125 -1,-0.125 -1.21875,0 -1.92187,0.8125 -0.6875,0.8125 -0.6875,2.35938 0,1.46875 0.51562,2.23437 0.51563,0.75 1.71875,0.75 0.64063,0 1.28125,-0.23437 0.64063,-0.25 1.1875,-0.67188 z m 11.65625,2.40625 h -1.46875 v -4.96875 q 0,-0.60937 -0.0781,-1.125 -0.0625,-0.53125 -0.25,-0.82812 -0.20313,-0.32813 -0.57813,-0.48438 -0.35937,-0.17187 -0.9375,-0.17187 -0.60937,0 -1.26562,0.29687 -0.65625,0.29688 -1.25,0.76563 v 6.51562 h -1.46875 v -12.15625 h 1.46875 v 4.39063 q 0.6875,-0.5625 1.42187,-0.875 0.73438,-0.32813 1.5,-0.32813 1.42188,0 2.15625,0.85938 0.75,0.84375 0.75,2.4375 z m 10.49999,-4.4375 q 0,1.09375 -0.3125,1.96875 -0.29687,0.875 -0.82812,1.46875 -0.54688,0.625 -1.21875,0.9375 -0.65625,0.3125 -1.45313,0.3125 -0.75,0 -1.3125,-0.1875 -0.54687,-0.17187 -1.07812,-0.46875 l -0.0937,0.40625 h -1.375 v -12.15625 h 1.46875 v 4.34375 q 0.60937,-0.51562 1.29687,-0.82812 0.70313,-0.32813 1.57813,-0.32813 1.54687,0 2.4375,1.1875 0.89062,1.1875 0.89062,3.34375 z m -1.51562,0.0469 q 0,-1.5625 -0.51563,-2.375 -0.51562,-0.8125 -1.65625,-0.8125 -0.64062,0 -1.29687,0.28125 -0.65625,0.28125 -1.21875,0.71875 v 5 q 0.625,0.28125 1.0625,0.39062 0.45312,0.10938 1.03125,0.10938 1.21875,0 1.90625,-0.79688 0.6875,-0.8125 0.6875,-2.51562 z m 11.25,0.0312 q 0,2.125 -1.09375,3.375 -1.09375,1.23437 -2.9375,1.23437 -1.84375,0 -2.9375,-1.23437 -1.09375,-1.25 -1.09375,-3.375 0,-2.14063 1.09375,-3.375 1.09375,-1.23438 2.9375,-1.23438 1.84375,0 2.9375,1.23438 1.09375,1.23437 1.09375,3.375 z m -1.51563,0 q 0,-1.70313 -0.67187,-2.51563 -0.65625,-0.82812 -1.84375,-0.82812 -1.1875,0 -1.85938,0.82812 -0.65625,0.8125 -0.65625,2.51563 0,1.64062 0.65625,2.48437 0.67188,0.84375 1.85938,0.84375 1.17187,0 1.84375,-0.82812 0.67187,-0.84375 0.67187,-2.5 z m 9.22656,-2.76563 h -0.0781 q -0.32813,-0.0781 -0.64063,-0.10937 -0.29687,-0.0469 -0.71875,-0.0469 -0.6875,0 -1.32812,0.3125 -0.625,0.29688 -1.20313,0.76563 v 6.20312 h -1.46875 v -8.73437 h 1.46875 v 1.29687 q 0.875,-0.70312 1.53125,-1 0.67188,-0.29687 1.375,-0.29687 0.375,0 0.54688,0.0312 0.17187,0.0156 0.51562,0.0625 z m 2.96875,-3.0625 h -1.65625 v -1.53125 h 1.65625 z m -0.0937,10.1875 h -1.46875 v -8.73437 h 1.46875 z m 10.20313,0 h -1.46875 v -4.96875 q 0,-0.60937 -0.0781,-1.125 -0.0625,-0.53125 -0.25,-0.82812 -0.20312,-0.32813 -0.57812,-0.48438 -0.35938,-0.17187 -0.9375,-0.17187 -0.60938,0 -1.26563,0.29687 -0.65625,0.29688 -1.25,0.76563 v 6.51562 h -1.46875 v -8.73437 h 1.46875 v 0.96875 q 0.6875,-0.5625 1.42188,-0.875 0.73437,-0.32813 1.5,-0.32813 1.42187,0 2.15625,0.85938 0.75,0.84375 0.75,2.4375 z m 9.90625,-1 q 0,2.23438 -1.01563,3.26563 -1,1.04687 -3.09375,1.04687 -0.70312,0 -1.35937,-0.10937 -0.65625,-0.0937 -1.29688,-0.26563 v -1.5 h 0.0781 q 0.35937,0.14063 1.14062,0.34375 0.78125,0.20313 1.5625,0.20313 0.75,0 1.23438,-0.1875 0.5,-0.17188 0.76562,-0.48438 0.28125,-0.3125 0.39063,-0.75 0.125,-0.42187 0.125,-0.95312 v -0.79688 q -0.67188,0.53125 -1.28125,0.79688 -0.59375,0.25 -1.53125,0.25 -1.5625,0 -2.48438,-1.125 -0.92187,-1.125 -0.92187,-3.1875 0,-1.125 0.3125,-1.9375 0.32812,-0.8125 0.875,-1.40625 0.5,-0.5625 1.21875,-0.85938 0.73437,-0.3125 1.45312,-0.3125 0.76563,0 1.26563,0.15625 0.51562,0.14063 1.09375,0.45313 l 0.0937,-0.375 h 1.375 z m -1.46875,-1.40625 v -4.75 q -0.59375,-0.26562 -1.09375,-0.375 -0.5,-0.125 -1,-0.125 -1.21875,0 -1.92188,0.8125 -0.6875,0.8125 -0.6875,2.35938 0,1.46875 0.51563,2.23437 0.51562,0.75 1.71875,0.75 0.64062,0 1.28125,-0.23437 0.64062,-0.25 1.1875,-0.67188 z m 16.4375,1.85938 q -0.73438,0.34375 -1.40625,0.54687 -0.65625,0.20313 -1.39063,0.20313 -0.95312,0 -1.75,-0.28125 -0.78125,-0.28125 -1.34375,-0.84375 -0.5625,-0.5625 -0.875,-1.42188 -0.3125,-0.85937 -0.3125,-2.01562 0,-2.14063 1.17188,-3.35938 1.17187,-1.21875 3.10937,-1.21875 0.75,0 1.46875,0.21875 0.71875,0.20313 1.32813,0.51563 v 1.625 h -0.0781 q -0.67187,-0.51563 -1.39062,-0.79688 -0.71875,-0.28125 -1.39063,-0.28125 -1.25,0 -1.98437,0.84375 -0.71875,0.82813 -0.71875,2.45313 0,1.57812 0.70312,2.4375 0.71875,0.84375 2,0.84375 0.4375,0 0.89063,-0.10938 0.46875,-0.125 0.84375,-0.3125 0.3125,-0.17187 0.59375,-0.34375 0.28125,-0.1875 0.45312,-0.32812 h 0.0781 z m 9.32031,-3.8125 q 0,2.125 -1.09375,3.375 -1.09375,1.23437 -2.9375,1.23437 -1.84375,0 -2.9375,-1.23437 -1.09375,-1.25 -1.09375,-3.375 0,-2.14063 1.09375,-3.375 1.09375,-1.23438 2.9375,-1.23438 1.84375,0 2.9375,1.23438 1.09375,1.23437 1.09375,3.375 z m -1.51562,0 q 0,-1.70313 -0.67188,-2.51563 -0.65625,-0.82812 -1.84375,-0.82812 -1.1875,0 -1.85937,0.82812 -0.65625,0.8125 -0.65625,2.51563 0,1.64062 0.65625,2.48437 0.67187,0.84375 1.85937,0.84375 1.17188,0 1.84375,-0.82812 0.67188,-0.84375 0.67188,-2.5 z m 9.22656,-2.76563 h -0.0781 q -0.32812,-0.0781 -0.64062,-0.10937 -0.29688,-0.0469 -0.71875,-0.0469 -0.6875,0 -1.32813,0.3125 -0.625,0.29688 -1.20312,0.76563 v 6.20312 h -1.46875 v -8.73437 h 1.46875 v 1.29687 q 0.875,-0.70312 1.53125,-1 0.67187,-0.29687 1.375,-0.29687 0.375,0 0.54687,0.0312 0.17188,0.0156 0.51563,0.0625 z m 8.6875,2.90625 h -6.42188 q 0,0.8125 0.23438,1.40625 0.25,0.59375 0.67187,0.98438 0.40625,0.375 0.95313,0.5625 0.5625,0.1875 1.23437,0.1875 0.89063,0 1.79688,-0.35938 0.90625,-0.35937 1.28125,-0.70312 h 0.0781 v 1.60937 q -0.73437,0.3125 -1.51562,0.53125 -0.76563,0.20313 -1.625,0.20313 -2.17188,0 -3.39063,-1.17188 -1.21875,-1.1875 -1.21875,-3.34375 0,-2.14062 1.17188,-3.39062 1.17187,-1.26563 3.07812,-1.26563 1.76563,0 2.71875,1.03125 0.95313,1.03125 0.95313,2.92188 z m -1.42188,-1.125 q -0.0156,-1.15625 -0.59375,-1.78125 -0.5625,-0.64062 -1.73437,-0.64062 -1.1875,0 -1.89063,0.70312 -0.6875,0.6875 -0.78125,1.71875 z m 16.35938,4.34375 q 0,2.23438 -1.01563,3.26563 -1,1.04687 -3.09375,1.04687 -0.70312,0 -1.35937,-0.10937 -0.65625,-0.0937 -1.29688,-0.26563 v -1.5 h 0.0781 q 0.35937,0.14063 1.14062,0.34375 0.78125,0.20313 1.5625,0.20313 0.75,0 1.23438,-0.1875 0.5,-0.17188 0.76562,-0.48438 0.28125,-0.3125 0.39063,-0.75 0.125,-0.42187 0.125,-0.95312 v -0.79688 q -0.67188,0.53125 -1.28125,0.79688 -0.59375,0.25 -1.53125,0.25 -1.5625,0 -2.48438,-1.125 -0.92187,-1.125 -0.92187,-3.1875 0,-1.125 0.3125,-1.9375 0.32812,-0.8125 0.875,-1.40625 0.5,-0.5625 1.21875,-0.85938 0.73437,-0.3125 1.45312,-0.3125 0.76563,0 1.26563,0.15625 0.51562,0.14063 1.09375,0.45313 l 0.0937,-0.375 h 1.375 z m -1.46875,-1.40625 v -4.75 q -0.59375,-0.26562 -1.09375,-0.375 -0.5,-0.125 -1,-0.125 -1.21875,0 -1.92188,0.8125 -0.6875,0.8125 -0.6875,2.35938 0,1.46875 0.51563,2.23437 0.51562,0.75 1.71875,0.75 0.64062,0 1.28125,-0.23437 0.64062,-0.25 1.1875,-0.67188 z m 11.65625,-1.8125 h -6.42188 q 0,0.8125 0.23438,1.40625 0.25,0.59375 0.67187,0.98438 0.40625,0.375 0.95313,0.5625 0.5625,0.1875 1.23437,0.1875 0.89063,0 1.79688,-0.35938 0.90625,-0.35937 1.28125,-0.70312 h 0.0781 v 1.60937 q -0.73437,0.3125 -1.51562,0.53125 -0.76563,0.20313 -1.625,0.20313 -2.17188,0 -3.39063,-1.17188 -1.21875,-1.1875 -1.21875,-3.34375 0,-2.14062 1.17188,-3.39062 1.17187,-1.26563 3.07812,-1.26563 1.76563,0 2.71875,1.03125 0.95313,1.03125 0.95313,2.92188 z m -1.42188,-1.125 q -0.0156,-1.15625 -0.59375,-1.78125 -0.5625,-0.64062 -1.73437,-0.64062 -1.1875,0 -1.89063,0.70312 -0.6875,0.6875 -0.78125,1.71875 z m 10.95313,5.34375 h -1.46875 v -4.96875 q 0,-0.60937 -0.0781,-1.125 -0.0625,-0.53125 -0.25,-0.82812 -0.20312,-0.32813 -0.57812,-0.48438 -0.35938,-0.17187 -0.9375,-0.17187 -0.60938,0 -1.26563,0.29687 -0.65625,0.29688 -1.25,0.76563 v 6.51562 h -1.46875 v -8.73437 h 1.46875 v 0.96875 q 0.6875,-0.5625 1.42188,-0.875 0.73437,-0.32813 1.5,-0.32813 1.42187,0 2.15625,0.85938 0.75,0.84375 0.75,2.4375 z m 10.125,-4.21875 h -6.42188 q 0,0.8125 0.23438,1.40625 0.25,0.59375 0.67187,0.98438 0.40625,0.375 0.95313,0.5625 0.5625,0.1875 1.23437,0.1875 0.89063,0 1.79688,-0.35938 0.90625,-0.35937 1.28125,-0.70312 h 0.0781 v 1.60937 q -0.73437,0.3125 -1.51562,0.53125 -0.76563,0.20313 -1.625,0.20313 -2.17188,0 -3.39063,-1.17188 -1.21875,-1.1875 -1.21875,-3.34375 0,-2.14062 1.17188,-3.39062 1.17187,-1.26563 3.07812,-1.26563 1.76563,0 2.71875,1.03125 0.95313,1.03125 0.95313,2.92188 z m -1.42188,-1.125 q -0.0156,-1.15625 -0.59375,-1.78125 -0.5625,-0.64062 -1.73437,-0.64062 -1.1875,0 -1.89063,0.70312 -0.6875,0.6875 -0.78125,1.71875 z m 9.89063,2.82813 q 0,1.1875 -1,1.96875 -0.98438,0.76562 -2.6875,0.76562 -0.96875,0 -1.78125,-0.23437 -0.8125,-0.23438 -1.35938,-0.51563 v -1.64062 h 0.0781 q 0.70312,0.51562 1.54687,0.82812 0.85938,0.3125 1.64063,0.3125 0.96875,0 1.51562,-0.3125 0.54688,-0.3125 0.54688,-0.98437 0,-0.51563 -0.29688,-0.78125 -0.29687,-0.26563 -1.14062,-0.45313 -0.3125,-0.0781 -0.82813,-0.17187 -0.5,-0.0937 -0.90625,-0.20313 -1.15625,-0.29687 -1.64062,-0.89062 -0.46875,-0.59375 -0.46875,-1.45313 0,-0.53125 0.21875,-1 0.21875,-0.48437 0.67187,-0.85937 0.4375,-0.375 1.10938,-0.57813 0.6875,-0.21875 1.51562,-0.21875 0.78125,0 1.57813,0.1875 0.8125,0.1875 1.34375,0.46875 v 1.5625 h -0.0781 q -0.5625,-0.40625 -1.375,-0.6875 -0.79687,-0.29687 -1.57812,-0.29687 -0.79688,0 -1.35938,0.3125 -0.54687,0.3125 -0.54687,0.92187 0,0.53125 0.32812,0.8125 0.32813,0.26563 1.0625,0.4375 0.40625,0.0937 0.90625,0.1875 0.51563,0.0937 0.84375,0.17188 1.03125,0.23437 1.57813,0.8125 0.5625,0.57812 0.5625,1.53125 z m 9.30469,-7.67188 h -1.65625 v -1.53125 h 1.65625 z m -0.0937,10.1875 h -1.46875 v -8.73437 h 1.46875 z m 10.20312,0 h -1.46875 v -4.96875 q 0,-0.60937 -0.0781,-1.125 -0.0625,-0.53125 -0.25,-0.82812 -0.20313,-0.32813 -0.57813,-0.48438 -0.35937,-0.17187 -0.9375,-0.17187 -0.60937,0 -1.26562,0.29687 -0.65625,0.29688 -1.25,0.76563 v 6.51562 h -1.46875 v -8.73437 h 1.46875 v 0.96875 q 0.6875,-0.5625 1.42187,-0.875 0.73438,-0.32813 1.5,-0.32813 1.42188,0 2.15625,0.85938 0.75,0.84375 0.75,2.4375 z m 16.17188,-8.125 q 0,0.78125 -0.26563,1.4375 -0.26562,0.65625 -0.75,1.14063 -0.60937,0.60937 -1.4375,0.90625 -0.8125,0.29687 -2.0625,0.29687 h -1.54687 v 4.34375 h -1.54688 v -11.64062 h 3.15625 q 1.04688,0 1.76563,0.1875 0.73437,0.17187 1.29687,0.54687 0.67188,0.4375 1.03125,1.10938 0.35938,0.65625 0.35938,1.67187 z m -1.60938,0.0469 q 0,-0.60938 -0.21875,-1.04688 -0.20312,-0.45312 -0.625,-0.73437 -0.375,-0.23438 -0.85937,-0.34375 -0.48438,-0.10938 -1.21875,-0.10938 h -1.53125 v 4.65625 h 1.3125 q 0.9375,0 1.51562,-0.17187 0.59375,-0.17188 0.95313,-0.53125 0.375,-0.375 0.51562,-0.78125 0.15625,-0.42188 0.15625,-0.9375 z m 12.82031,8.07812 h -1.64062 l -1.14063,-3.25 h -5.03125 l -1.14062,3.25 h -1.57813 l 4.23438,-11.64062 h 2.0625 z m -3.26562,-4.57812 -2.03125,-5.70313 -2.04688,5.70313 z m 11.9375,4.57812 h -6.29688 v -1.1875 h 2.42188 v -7.79687 h -2.42188 v -1.0625 q 0.5,0 1.0625,-0.0781 0.5625,-0.0937 0.84375,-0.25 0.35938,-0.1875 0.5625,-0.48437 0.21875,-0.3125 0.25,-0.8125 h 1.20313 v 10.48437 h 2.375 z m 11.10937,-3.28125 h -1.73437 v 3.28125 h -1.5 v -3.28125 h -5.5625 v -1.79687 l 5.625,-6.5625 h 1.4375 v 7.10937 h 1.73437 z m -3.23437,-1.25 v -5.25 l -4.5,5.25 z"
           inkscape:connector-curvature="0"
           style="fill:#000000;fill-rule:nonzero" />
        <path
           id="path1074"
           d="m 145.4567,364.1811 v 0 c 0,-2.76575 2.2421,-5.00787 5.00787,-5.00787 v 0 c 1.32817,0 2.60195,0.52761 3.5411,1.46679 0.93916,0.93915 1.46678,2.21292 1.46678,3.54108 v 0 c 0,2.76578 -2.2421,5.00787 -5.00788,5.00787 v 0 c -2.76577,0 -5.00787,-2.24209 -5.00787,-5.00787 z"
           inkscape:connector-curvature="0"
           style="fill:#fba451;fill-opacity:0.94910003;fill-rule:evenodd" />
        <path
           id="path1076"
           d="m 145.4567,364.1811 v 0 c 0,-2.76575 2.2421,-5.00787 5.00787,-5.00787 v 0 c 1.32817,0 2.60195,0.52761 3.5411,1.46679 0.93916,0.93915 1.46678,2.21292 1.46678,3.54108 v 0 c 0,2.76578 -2.2421,5.00787 -5.00788,5.00787 v 0 c -2.76577,0 -5.00787,-2.24209 -5.00787,-5.00787 z"
           inkscape:connector-curvature="0"
           style="fill-rule:evenodd;stroke:#595959;stroke-width:1;stroke-linecap:butt;stroke-linejoin:round" />
        <path
           id="path1078"
           d="m 183.52231,355.66403 v 0 c 0,-2.76578 2.2421,-5.00787 5.00787,-5.00787 v 0 c 1.32817,0 2.60195,0.52761 3.54111,1.46679 0.93915,0.93915 1.46677,2.21292 1.46677,3.54108 v 0 c 0,2.76578 -2.2421,5.00787 -5.00788,5.00787 v 0 c -2.76577,0 -5.00787,-2.24209 -5.00787,-5.00787 z"
           inkscape:connector-curvature="0"
           style="fill:#fba451;fill-opacity:0.94910003;fill-rule:evenodd" />
        <path
           id="path1080"
           d="m 183.52231,355.66403 v 0 c 0,-2.76578 2.2421,-5.00787 5.00787,-5.00787 v 0 c 1.32817,0 2.60195,0.52761 3.54111,1.46679 0.93915,0.93915 1.46677,2.21292 1.46677,3.54108 v 0 c 0,2.76578 -2.2421,5.00787 -5.00788,5.00787 v 0 c -2.76577,0 -5.00787,-2.24209 -5.00787,-5.00787 z"
           inkscape:connector-curvature="0"
           style="fill-rule:evenodd;stroke:#595959;stroke-width:1;stroke-linecap:butt;stroke-linejoin:round" />
        <path
           id="path1082"
           d="m 196.03674,346.89764 v 0 c 0,-2.76578 2.24211,-5.00787 5.00787,-5.00787 v 0 c 1.32817,0 2.60195,0.52761 3.54111,1.46676 0.93916,0.93915 1.46677,2.21292 1.46677,3.54111 v 0 c 0,2.76578 -2.2421,5.00787 -5.00788,5.00787 v 0 c -2.76576,0 -5.00787,-2.24209 -5.00787,-5.00787 z"
           inkscape:connector-curvature="0"
           style="fill:#fba451;fill-opacity:0.94910003;fill-rule:evenodd" />
        <path
           id="path1084"
           d="m 196.03674,346.89764 v 0 c 0,-2.76578 2.24211,-5.00787 5.00787,-5.00787 v 0 c 1.32817,0 2.60195,0.52761 3.54111,1.46676 0.93916,0.93915 1.46677,2.21292 1.46677,3.54111 v 0 c 0,2.76578 -2.2421,5.00787 -5.00788,5.00787 v 0 c -2.76576,0 -5.00787,-2.24209 -5.00787,-5.00787 z"
           inkscape:connector-curvature="0"
           style="fill-rule:evenodd;stroke:#595959;stroke-width:1;stroke-linecap:butt;stroke-linejoin:round" />
        <path
           id="path1086"
           d="m 207.53806,333.13385 v 0 c 0,-2.76578 2.24211,-5.00787 5.00787,-5.00787 v 0 c 1.32817,0 2.60195,0.52761 3.54111,1.46676 0.93916,0.93918 1.46677,2.21295 1.46677,3.54111 v 0 c 0,2.76578 -2.2421,5.00787 -5.00788,5.00787 v 0 c -2.76576,0 -5.00787,-2.24209 -5.00787,-5.00787 z"
           inkscape:connector-curvature="0"
           style="fill:#fba451;fill-opacity:0.94910003;fill-rule:evenodd" />
        <path
           id="path1088"
           d="m 207.53806,333.13385 v 0 c 0,-2.76578 2.24211,-5.00787 5.00787,-5.00787 v 0 c 1.32817,0 2.60195,0.52761 3.54111,1.46676 0.93916,0.93918 1.46677,2.21295 1.46677,3.54111 v 0 c 0,2.76578 -2.2421,5.00787 -5.00788,5.00787 v 0 c -2.76576,0 -5.00787,-2.24209 -5.00787,-5.00787 z"
           inkscape:connector-curvature="0"
           style="fill-rule:evenodd;stroke:#595959;stroke-width:1;stroke-linecap:butt;stroke-linejoin:round" />
        <path
           id="path1090"
           d="m 129.86351,362.51443 v 0 c 0,-2.76578 2.24211,-5.00787 5.00787,-5.00787 v 0 c 1.32817,0 2.60195,0.52761 3.54111,1.46676 0.93916,0.93918 1.46678,2.21295 1.46678,3.54111 v 0 c 0,2.76578 -2.24211,5.00787 -5.00789,5.00787 v 0 c -2.76576,0 -5.00787,-2.24209 -5.00787,-5.00787 z"
           inkscape:connector-curvature="0"
           style="fill:#fba451;fill-opacity:0.94910003;fill-rule:evenodd" />
        <path
           id="path1092"
           d="m 129.86351,362.51443 v 0 c 0,-2.76578 2.24211,-5.00787 5.00787,-5.00787 v 0 c 1.32817,0 2.60195,0.52761 3.54111,1.46676 0.93916,0.93918 1.46678,2.21295 1.46678,3.54111 v 0 c 0,2.76578 -2.24211,5.00787 -5.00789,5.00787 v 0 c -2.76576,0 -5.00787,-2.24209 -5.00787,-5.00787 z"
           inkscape:connector-curvature="0"
           style="fill-rule:evenodd;stroke:#595959;stroke-width:1;stroke-linecap:butt;stroke-linejoin:round" />
        <path
           id="path1094"
           d="m 95.83202,345.6483 v 0 c 0,-2.76578 2.242096,-5.00787 5.00787,-5.00787 v 0 c 1.32817,0 2.60195,0.52761 3.5411,1.46676 0.93916,0.93918 1.46678,2.21295 1.46678,3.54111 v 0 c 0,2.76578 -2.24211,5.00787 -5.00788,5.00787 v 0 c -2.765774,0 -5.00787,-2.24209 -5.00787,-5.00787 z"
           inkscape:connector-curvature="0"
           style="fill:#fba451;fill-opacity:0.94910003;fill-rule:evenodd" />
        <path
           id="path1096"
           d="m 95.83202,345.6483 v 0 c 0,-2.76578 2.242096,-5.00787 5.00787,-5.00787 v 0 c 1.32817,0 2.60195,0.52761 3.5411,1.46676 0.93916,0.93918 1.46678,2.21295 1.46678,3.54111 v 0 c 0,2.76578 -2.24211,5.00787 -5.00788,5.00787 v 0 c -2.765774,0 -5.00787,-2.24209 -5.00787,-5.00787 z"
           inkscape:connector-curvature="0"
           style="fill-rule:evenodd;stroke:#595959;stroke-width:1;stroke-linecap:butt;stroke-linejoin:round" />
        <path
           id="path1098"
           d="m 46.204723,474.19684 v 0 c 0,-4.52264 3.292648,-8.18896 7.354332,-8.18896 v 0 c 1.950489,0 3.821091,0.86276 5.200298,2.39849 1.379204,1.53574 2.154034,3.61863 2.154034,5.79047 v 0 c 0,4.52264 -3.292648,8.18899 -7.354332,8.18899 v 0 c -4.061684,0 -7.354332,-3.66635 -7.354332,-8.18899 z"
           inkscape:connector-curvature="0"
           style="fill:#f2c85b;fill-opacity:0.52249995;fill-rule:evenodd" />
        <path
           id="path1100"
           d="m 46.204723,474.19684 v 0 c 0,-4.52264 3.292648,-8.18896 7.354332,-8.18896 v 0 c 1.950489,0 3.821091,0.86276 5.200298,2.39849 1.379204,1.53574 2.154034,3.61863 2.154034,5.79047 v 0 c 0,4.52264 -3.292648,8.18899 -7.354332,8.18899 v 0 c -4.061684,0 -7.354332,-3.66635 -7.354332,-8.18899 z"
           inkscape:connector-curvature="0"
           style="fill-rule:evenodd;stroke:#595959;stroke-width:1;stroke-linecap:butt;stroke-linejoin:round" />
        <path
           id="path1102"
           d="m 338.12335,200.67455 h 18.56693 v -9.69292 l 18.56695,19.38582 -18.56695,19.38583 v -9.69291 h -18.56693 z"
           inkscape:connector-curvature="0"
           style="fill:#eeeeee;fill-rule:evenodd" />
        <path
           id="path1104"
           d="m 338.12335,200.67455 h 18.56693 v -9.69292 l 18.56695,19.38582 -18.56695,19.38583 v -9.69291 h -18.56693 z"
           inkscape:connector-curvature="0"
           style="fill-rule:evenodd;stroke:#595959;stroke-width:1;stroke-linecap:butt;stroke-linejoin:round" />
        <path
           id="path1106"
           d="m 401.12598,213.18373 v 0 c 0,-35.10271 29.97226,-63.55907 66.94489,-63.55907 v 0 c 17.75488,0 34.78259,6.6964 47.33716,18.61603 12.55462,11.91963 19.60772,28.08612 19.60772,44.94304 v 0 c 0,35.10269 -29.97223,63.55904 -66.94488,63.55904 v 0 c -36.97263,0 -66.94489,-28.45635 -66.94489,-63.55904 z"
           inkscape:connector-curvature="0"
           style="fill:#f2c85b;fill-opacity:0.52249995;fill-rule:evenodd" />
        <path
           id="path1108"
           d="m 401.12598,213.18373 v 0 c 0,-35.10271 29.97226,-63.55907 66.94489,-63.55907 v 0 c 17.75488,0 34.78259,6.6964 47.33716,18.61603 12.55462,11.91963 19.60772,28.08612 19.60772,44.94304 v 0 c 0,35.10269 -29.97223,63.55904 -66.94488,63.55904 v 0 c -36.97263,0 -66.94489,-28.45635 -66.94489,-63.55904 z"
           inkscape:connector-curvature="0"
           style="fill-rule:evenodd;stroke:#595959;stroke-width:1;stroke-linecap:butt;stroke-linejoin:round" />
        <path
           id="path1110"
           d="m 464.37534,213.18373 v 0 c 0,-35.10271 29.97223,-63.55907 66.94485,-63.55907 v 0 c 17.75489,0 34.7826,6.6964 47.33723,18.61603 12.55456,11.91963 19.60766,28.08612 19.60766,44.94304 v 0 c 0,35.10269 -29.97223,63.55904 -66.94488,63.55904 v 0 c -36.97263,0 -66.94486,-28.45635 -66.94486,-63.55904 z"
           inkscape:connector-curvature="0"
           style="fill:#fba451;fill-opacity:0.55609999;fill-rule:evenodd" />
        <path
           id="path1112"
           d="m 464.37534,213.18373 v 0 c 0,-35.10271 29.97223,-63.55907 66.94485,-63.55907 v 0 c 17.75489,0 34.7826,6.6964 47.33723,18.61603 12.55456,11.91963 19.60766,28.08612 19.60766,44.94304 v 0 c 0,35.10269 -29.97223,63.55904 -66.94488,63.55904 v 0 c -36.97263,0 -66.94486,-28.45635 -66.94486,-63.55904 z"
           inkscape:connector-curvature="0"
           style="fill-rule:evenodd;stroke:#595959;stroke-width:1;stroke-linecap:butt;stroke-linejoin:round" />
        <path
           id="path1114"
           d="m 621.874,200.67455 h 18.5669 v -9.69292 l 18.56695,19.38582 -18.56695,19.38583 v -9.69291 H 621.874 Z"
           inkscape:connector-curvature="0"
           style="fill:#eeeeee;fill-rule:evenodd" />
        <path
           id="path1116"
           d="m 621.874,200.67455 h 18.5669 v -9.69292 l 18.56695,19.38582 -18.56695,19.38583 v -9.69291 H 621.874 Z"
           inkscape:connector-curvature="0"
           style="fill-rule:evenodd;stroke:#595959;stroke-width:1;stroke-linecap:butt;stroke-linejoin:round" />
        <path
           id="path1118"
           d="m 773.3753,120.37533 0.22052,188"
           inkscape:connector-curvature="0"
           style="fill:#000000;fill-opacity:0;fill-rule:evenodd" />
        <path
           id="path1120"
           d="m 773.3753,120.37533 0.22052,188"
           inkscape:connector-curvature="0"
           style="fill-rule:evenodd;stroke:#000000;stroke-width:2;stroke-linecap:butt;stroke-linejoin:round" />
        <path
           id="path1122"
           d="m 773.6037,307.25198 114.86609,1.00787"
           inkscape:connector-curvature="0"
           style="fill:#000000;fill-opacity:0;fill-rule:evenodd" />
        <path
           id="path1124"
           d="m 773.6037,307.25198 114.86609,1.00787"
           inkscape:connector-curvature="0"
           style="fill-rule:evenodd;stroke:#000000;stroke-width:2;stroke-linecap:butt;stroke-linejoin:round" />
        <path
           id="path1126"
           d="M 720.7638,315.60104 V 124.60891 h 58.17322 v 190.99213 z"
           inkscape:connector-curvature="0"
           style="fill:#000000;fill-opacity:0;fill-rule:evenodd" />
        <path
           id="path1128"
           d="m 736.7175,272.187 q 1.75,0 2.60937,0.73437 0.84375,0.73438 0.84375,2.125 0,1.42188 -0.84375,2.15625 -0.85937,0.71875 -2.60937,0.71875 -1.75,0 -2.59375,-0.73437 -0.85938,-0.75 -0.85938,-2.14063 0,-1.40625 0.85938,-2.125 0.85937,-0.73437 2.59375,-0.73437 z m -3.23438,-5.40625 11.64063,6.09375 v 1.29687 l -11.64063,-6.09375 z m 8.40625,-3.75 q 1.75,0 2.60938,0.75 0.85937,0.73437 0.85937,2.125 0,1.42187 -0.85937,2.15625 -0.875,0.71875 -2.59375,0.71875 -1.75,0 -2.59375,-0.73438 -0.85938,-0.75 -0.85938,-2.14062 0,-1.42188 0.85938,-2.14063 0.84375,-0.73437 2.57812,-0.73437 z m -5.17187,10.54687 q -1.34375,0 -1.875,0.34375 -0.53125,0.34375 -0.53125,1.125 0,0.79688 0.53125,1.14063 0.53125,0.34375 1.875,0.34375 1.35937,0 1.89062,-0.34375 0.51563,-0.34375 0.51563,-1.14063 0,-0.78125 -0.51563,-1.125 -0.53125,-0.34375 -1.89062,-0.34375 z m 5.17187,-9.15625 q -1.34375,0 -1.875,0.35938 -0.53125,0.34375 -0.53125,1.125 0,0.79687 0.53125,1.14062 0.53125,0.34375 1.89063,0.34375 1.34375,0 1.875,-0.34375 0.53125,-0.34375 0.53125,-1.14062 0,-0.78125 -0.53125,-1.125 -0.53125,-0.35938 -1.89063,-0.35938 z m 3.23438,-16.92187 v 1.46875 H 740.155 q -0.60938,0 -1.125,0.0781 -0.53125,0.0625 -0.82813,0.25 -0.32812,0.20313 -0.48437,0.57813 -0.17188,0.35937 -0.17188,0.9375 0,0.60937 0.29688,1.26562 0.29687,0.65625 0.76562,1.25 h 6.51563 v 1.46875 h -8.73438 v -1.46875 h 0.96875 q -0.5625,-0.6875 -0.875,-1.42187 -0.32812,-0.73438 -0.32812,-1.5 0,-1.42188 0.85937,-2.15625 0.84375,-0.75 2.4375,-0.75 z m -4.21875,-10.125 v 6.42187 q 0.8125,0 1.40625,-0.23437 0.59375,-0.25 0.98437,-0.67188 0.375,-0.40625 0.5625,-0.95312 0.1875,-0.5625 0.1875,-1.23438 0,-0.89062 -0.35937,-1.79687 -0.35938,-0.90625 -0.70313,-1.28125 v -0.0781 h 1.60938 q 0.3125,0.73438 0.53125,1.51563 0.20312,0.76562 0.20312,1.625 0,2.17187 -1.17187,3.39062 -1.1875,1.21875 -3.34375,1.21875 -2.14063,0 -3.39063,-1.17187 -1.26562,-1.17188 -1.26562,-3.07813 0,-1.76562 1.03125,-2.71875 1.03125,-0.95312 2.92187,-0.95312 z m -1.125,1.42187 q -1.15625,0.0156 -1.78125,0.59375 -0.64063,0.5625 -0.64063,1.73438 0,1.1875 0.70313,1.89062 0.6875,0.6875 1.71875,0.78125 z m -4.84375,-5.23437 v 1.65625 H 733.405 V 233.562 Z m 10.1875,0.0937 v 1.46875 h -8.73438 v -1.46875 z m -1,-9.98438 q 2.23437,0 3.26562,1.01563 1.04688,1 1.04688,3.09375 0,0.70312 -0.10938,1.35937 -0.0937,0.65625 -0.26562,1.29688 h -1.5 v -0.0781 q 0.14062,-0.35937 0.34375,-1.14062 0.20312,-0.78125 0.20312,-1.5625 0,-0.75 -0.1875,-1.23438 -0.17187,-0.5 -0.48437,-0.76562 -0.3125,-0.28125 -0.75,-0.39063 -0.42188,-0.125 -0.95313,-0.125 h -0.79687 q 0.53125,0.67188 0.79687,1.28125 0.25,0.59375 0.25,1.53125 0,1.5625 -1.125,2.48438 -1.125,0.92187 -3.1875,0.92187 -1.125,0 -1.9375,-0.3125 -0.8125,-0.32812 -1.40625,-0.875 -0.5625,-0.5 -0.85937,-1.21875 -0.3125,-0.73437 -0.3125,-1.45312 0,-0.76563 0.15625,-1.26563 0.14062,-0.51562 0.45312,-1.09375 l -0.375,-0.0937 v -1.375 z m -1.40625,1.46875 h -4.75 q -0.26563,0.59375 -0.375,1.09375 -0.125,0.5 -0.125,1 0,1.21875 0.8125,1.92188 0.8125,0.6875 2.35937,0.6875 1.46875,0 2.23438,-0.51563 0.75,-0.51562 0.75,-1.71875 0,-0.64062 -0.23438,-1.28125 -0.25,-0.64062 -0.67187,-1.1875 z m 2.40625,-11.65625 v 1.46875 H 740.155 q -0.60938,0 -1.125,0.0781 -0.53125,0.0625 -0.82813,0.25 -0.32812,0.20312 -0.48437,0.57812 -0.17188,0.35938 -0.17188,0.9375 0,0.60938 0.29688,1.26563 0.29687,0.65625 0.76562,1.25 h 6.51563 v 1.46875 H 732.9675 V 219.312 h 4.39062 q -0.5625,-0.6875 -0.875,-1.42188 -0.32812,-0.73437 -0.32812,-1.5 0,-1.42187 0.85937,-2.15625 0.84375,-0.75 2.4375,-0.75 z m -4.4375,-10.5 q 1.09375,0 1.96875,0.3125 0.875,0.29688 1.46875,0.82813 0.625,0.54687 0.9375,1.21875 0.3125,0.65625 0.3125,1.45312 0,0.75 -0.1875,1.3125 -0.17188,0.54688 -0.46875,1.07813 l 0.40625,0.0937 v 1.375 H 732.9675 V 209.187 h 4.34375 q -0.51563,-0.60938 -0.82813,-1.29688 -0.32812,-0.70312 -0.32812,-1.57812 0,-1.54688 1.1875,-2.4375 1.1875,-0.89063 3.34375,-0.89063 z m 0.0469,1.51563 q -1.5625,0 -2.375,0.51562 -0.8125,0.51563 -0.8125,1.65625 0,0.64063 0.28125,1.29688 0.28125,0.65625 0.71875,1.21875 h 5 q 0.28125,-0.625 0.39063,-1.0625 0.10937,-0.45313 0.10937,-1.03125 0,-1.21875 -0.79687,-1.90625 -0.8125,-0.6875 -2.51563,-0.6875 z m 0.0312,-11.25 q 2.125,0 3.375,1.09375 1.23438,1.09375 1.23438,2.9375 0,1.84375 -1.23438,2.9375 -1.25,1.09375 -3.375,1.09375 -2.14062,0 -3.375,-1.09375 -1.23437,-1.09375 -1.23437,-2.9375 0,-1.84375 1.23437,-2.9375 1.23438,-1.09375 3.375,-1.09375 z m 0,1.51562 q -1.70312,0 -2.51562,0.67188 -0.82813,0.65625 -0.82813,1.84375 0,1.1875 0.82813,1.85937 0.8125,0.65625 2.51562,0.65625 1.64063,0 2.48438,-0.65625 0.84375,-0.67187 0.84375,-1.85937 0,-1.17188 -0.82813,-1.84375 -0.84375,-0.67188 -2.5,-0.67188 z m -2.76562,-9.22656 v 0.0781 q -0.0781,0.32812 -0.10938,0.64062 -0.0469,0.29688 -0.0469,0.71875 0,0.6875 0.3125,1.32813 0.29687,0.625 0.76562,1.20312 h 6.20313 v 1.46875 h -8.73438 v -1.46875 h 1.29688 q -0.70313,-0.875 -1,-1.53125 -0.29688,-0.67187 -0.29688,-1.375 0,-0.375 0.0312,-0.54687 0.0156,-0.17188 0.0625,-0.51563 z m -3.0625,-2.96875 v 1.65625 H 733.405 v -1.65625 z m 10.1875,0.0937 v 1.46875 h -8.73438 v -1.46875 z m 0,-10.20312 v 1.46875 H 740.155 q -0.60938,0 -1.125,0.0781 -0.53125,0.0625 -0.82813,0.25 -0.32812,0.20313 -0.48437,0.57813 -0.17188,0.35937 -0.17188,0.9375 0,0.60937 0.29688,1.26562 0.29687,0.65625 0.76562,1.25 h 6.51563 v 1.46875 h -8.73438 v -1.46875 h 0.96875 q -0.5625,-0.6875 -0.875,-1.42187 -0.32812,-0.73438 -0.32812,-1.5 0,-1.42188 0.85937,-2.15625 0.84375,-0.75 2.4375,-0.75 z m -1,-9.90625 q 2.23437,0 3.26562,1.01562 1.04688,1 1.04688,3.09375 0,0.70313 -0.10938,1.35938 -0.0937,0.65625 -0.26562,1.29687 h -1.5 v -0.0781 q 0.14062,-0.35938 0.34375,-1.14063 0.20312,-0.78125 0.20312,-1.5625 0,-0.75 -0.1875,-1.23437 -0.17187,-0.5 -0.48437,-0.76563 -0.3125,-0.28125 -0.75,-0.39062 -0.42188,-0.125 -0.95313,-0.125 h -0.79687 q 0.53125,0.67187 0.79687,1.28125 0.25,0.59375 0.25,1.53125 0,1.5625 -1.125,2.48437 -1.125,0.92188 -3.1875,0.92188 -1.125,0 -1.9375,-0.3125 -0.8125,-0.32813 -1.40625,-0.875 -0.5625,-0.5 -0.85937,-1.21875 -0.3125,-0.73438 -0.3125,-1.45313 0,-0.76562 0.15625,-1.26562 0.14062,-0.51563 0.45312,-1.09375 l -0.375,-0.0937 v -1.375 z m -1.40625,1.46875 h -4.75 q -0.26563,0.59375 -0.375,1.09375 -0.125,0.5 -0.125,1 0,1.21875 0.8125,1.92187 0.8125,0.6875 2.35937,0.6875 1.46875,0 2.23438,-0.51562 0.75,-0.51563 0.75,-1.71875 0,-0.64063 -0.23438,-1.28125 -0.25,-0.64063 -0.67187,-1.1875 z"
           inkscape:connector-curvature="0"
           style="fill:#000000;fill-rule:nonzero" />
        <path
           id="path1130"
           d="m 764.3238,296.87842 v 1.46875 h -4.96875 q -0.60938,0 -1.125,0.0781 -0.53125,0.0625 -0.82813,0.25 -0.32812,0.20313 -0.48437,0.57813 -0.17188,0.35937 -0.17188,0.9375 0,0.60937 0.29688,1.26562 0.29687,0.65625 0.76562,1.25 h 6.51563 v 1.46875 h -12.15625 v -1.46875 h 4.39062 q -0.5625,-0.6875 -0.875,-1.42187 -0.32812,-0.73438 -0.32812,-1.5 0,-1.42188 0.85937,-2.15625 0.84375,-0.75 2.4375,-0.75 z m -4.35938,-10.26563 q 2.125,0 3.375,1.09375 1.23438,1.09375 1.23438,2.9375 0,1.84375 -1.23438,2.9375 -1.25,1.09375 -3.375,1.09375 -2.14062,0 -3.375,-1.09375 -1.23437,-1.09375 -1.23437,-2.9375 0,-1.84375 1.23437,-2.9375 1.23438,-1.09375 3.375,-1.09375 z m 0,1.51563 q -1.70312,0 -2.51562,0.67187 -0.82813,0.65625 -0.82813,1.84375 0,1.1875 0.82813,1.85938 0.8125,0.65625 2.51562,0.65625 1.64063,0 2.48438,-0.65625 0.84375,-0.67188 0.84375,-1.85938 0,-1.17187 -0.82813,-1.84375 -0.84375,-0.67187 -2.5,-0.67187 z m 4.35938,-16.52344 v 1.46875 h -4.96875 q -0.5625,0 -1.07813,0.0625 -0.53125,0.0469 -0.84375,0.20313 -0.34375,0.1875 -0.51562,0.53125 -0.17188,0.32812 -0.17188,0.95312 0,0.625 0.3125,1.25 0.3125,0.60938 0.78125,1.21875 0.1875,-0.0156 0.42188,-0.0312 0.23437,-0.0156 0.46875,-0.0156 h 5.59375 v 1.46875 h -4.96875 q -0.57813,0 -1.09375,0.0469 -0.53125,0.0469 -0.84375,0.21875 -0.32813,0.17188 -0.5,0.51563 -0.17188,0.32812 -0.17188,0.96875 0,0.59375 0.29688,1.20312 0.29687,0.60938 0.76562,1.20313 h 6.51563 v 1.46875 h -8.73438 v -1.46875 h 0.96875 q -0.5625,-0.6875 -0.875,-1.35938 -0.32812,-0.6875 -0.32812,-1.46875 0,-0.89062 0.375,-1.5 0.375,-0.625 1.03125,-0.9375 -0.75,-0.89062 -1.07813,-1.625 -0.32812,-0.73437 -0.32812,-1.5625 0,-1.4375 0.875,-2.125 0.85937,-0.6875 2.42187,-0.6875 z m -4.35938,-10.26562 q 2.125,0 3.375,1.09375 1.23438,1.09375 1.23438,2.9375 0,1.84375 -1.23438,2.9375 -1.25,1.09375 -3.375,1.09375 -2.14062,0 -3.375,-1.09375 -1.23437,-1.09375 -1.23437,-2.9375 0,-1.84375 1.23437,-2.9375 1.23438,-1.09375 3.375,-1.09375 z m 0,1.51562 q -1.70312,0 -2.51562,0.67188 -0.82813,0.65625 -0.82813,1.84375 0,1.1875 0.82813,1.85937 0.8125,0.65625 2.51562,0.65625 1.64063,0 2.48438,-0.65625 0.84375,-0.67187 0.84375,-1.85937 0,-1.17188 -0.82813,-1.84375 -0.84375,-0.67188 -2.5,-0.67188 z m 4.35938,-5.27344 v 1.46875 h -12.15625 v -1.46875 z m -4.35938,-10.34375 q 2.125,0 3.375,1.09375 1.23438,1.09375 1.23438,2.9375 0,1.84375 -1.23438,2.9375 -1.25,1.09375 -3.375,1.09375 -2.14062,0 -3.375,-1.09375 -1.23437,-1.09375 -1.23437,-2.9375 0,-1.84375 1.23437,-2.9375 1.23438,-1.09375 3.375,-1.09375 z m 0,1.51563 q -1.70312,0 -2.51562,0.67187 -0.82813,0.65625 -0.82813,1.84375 0,1.1875 0.82813,1.85938 0.8125,0.65625 2.51562,0.65625 1.64063,0 2.48438,-0.65625 0.84375,-0.67188 0.84375,-1.85938 0,-1.17187 -0.82813,-1.84375 -0.84375,-0.67187 -2.5,-0.67187 z m 3.35938,-10.86719 q 2.23437,0 3.26562,1.01563 1.04688,1 1.04688,3.09375 0,0.70312 -0.10938,1.35937 -0.0937,0.65625 -0.26562,1.29688 h -1.5 v -0.0781 q 0.14062,-0.35937 0.34375,-1.14062 0.20312,-0.78125 0.20312,-1.5625 0,-0.75 -0.1875,-1.23438 -0.17187,-0.5 -0.48437,-0.76562 -0.3125,-0.28125 -0.75,-0.39063 -0.42188,-0.125 -0.95313,-0.125 h -0.79687 q 0.53125,0.67188 0.79687,1.28125 0.25,0.59375 0.25,1.53125 0,1.5625 -1.125,2.48438 -1.125,0.92187 -3.1875,0.92187 -1.125,0 -1.9375,-0.3125 -0.8125,-0.32812 -1.40625,-0.875 -0.5625,-0.5 -0.85937,-1.21875 -0.3125,-0.73437 -0.3125,-1.45312 0,-0.76563 0.15625,-1.26563 0.14062,-0.51562 0.45312,-1.09375 l -0.375,-0.0937 v -1.375 z m -1.40625,1.46875 h -4.75 q -0.26563,0.59375 -0.375,1.09375 -0.125,0.5 -0.125,1 0,1.21875 0.8125,1.92188 0.8125,0.6875 2.35937,0.6875 1.46875,0 2.23438,-0.51563 0.75,-0.51562 0.75,-1.71875 0,-0.64062 -0.23438,-1.28125 -0.25,-0.64062 -0.67187,-1.1875 z m -0.10938,-10.59375 q 1.1875,0 1.96875,1 0.76563,0.98438 0.76563,2.6875 0,0.96875 -0.23438,1.78125 -0.23437,0.8125 -0.51562,1.35938 h -1.64063 v -0.0781 q 0.51563,-0.70312 0.82813,-1.54687 0.3125,-0.85938 0.3125,-1.64063 0,-0.96875 -0.3125,-1.51562 -0.3125,-0.54688 -0.98438,-0.54688 -0.51562,0 -0.78125,0.29688 -0.26562,0.29687 -0.45312,1.14062 -0.0781,0.3125 -0.17188,0.82813 -0.0937,0.5 -0.20312,0.90625 -0.29688,1.15625 -0.89063,1.64062 -0.59375,0.46875 -1.45312,0.46875 -0.53125,0 -1,-0.21875 -0.48438,-0.21875 -0.85938,-0.67187 -0.375,-0.4375 -0.57812,-1.10938 -0.21875,-0.6875 -0.21875,-1.51562 0,-0.78125 0.1875,-1.57813 0.1875,-0.8125 0.46875,-1.34375 h 1.5625 v 0.0781 q -0.40625,0.5625 -0.6875,1.375 -0.29688,0.79687 -0.29688,1.57812 0,0.79688 0.3125,1.35938 0.3125,0.54687 0.92188,0.54687 0.53125,0 0.8125,-0.32812 0.26562,-0.32813 0.4375,-1.0625 0.0937,-0.40625 0.1875,-0.90625 0.0937,-0.51563 0.17187,-0.84375 0.23438,-1.03125 0.8125,-1.57813 0.57813,-0.5625 1.53125,-0.5625 z m 2.4375,-12.25781 q 0.10938,0.42187 0.17188,0.90625 0.0781,0.48437 0.0781,0.875 0,1.32812 -0.71875,2.03125 -0.71875,0.6875 -2.3125,0.6875 h -4.64062 v 1 h -1.23438 v -1 h -2.5 v -1.46875 h 2.5 v -3.03125 h 1.23438 v 3.03125 h 3.98437 q 0.6875,0 1.07813,-0.0312 0.375,-0.0312 0.71875,-0.21875 0.3125,-0.17188 0.45312,-0.46875 0.14063,-0.29688 0.14063,-0.92188 0,-0.35937 -0.0937,-0.75 -0.10938,-0.39062 -0.1875,-0.5625 v -0.0781 z m 0.0781,-9.07031 v 1.46875 h -4.96875 q -0.60938,0 -1.125,0.0781 -0.53125,0.0625 -0.82813,0.25 -0.32812,0.20313 -0.48437,0.57813 -0.17188,0.35937 -0.17188,0.9375 0,0.60937 0.29688,1.26562 0.29687,0.65625 0.76562,1.25 h 6.51563 v 1.46875 h -12.15625 v -1.46875 h 4.39062 q -0.5625,-0.6875 -0.875,-1.42187 -0.32812,-0.73438 -0.32812,-1.5 0,-1.42188 0.85937,-2.15625 0.84375,-0.75 2.4375,-0.75 z m 0,-9.60938 v 1.46875 h -0.9375 q 0.14062,0.1875 0.375,0.53125 0.23437,0.32813 0.375,0.64063 0.1875,0.35937 0.3125,0.84375 0.125,0.46875 0.125,1.10937 0,1.1875 -0.78125,2.01563 -0.79688,0.8125 -2,0.8125 -1,0 -1.60938,-0.42188 -0.60937,-0.4375 -0.96875,-1.21875 -0.34375,-0.79687 -0.46875,-1.90625 -0.125,-1.125 -0.1875,-2.40625 h -0.23437 q -0.5,0 -0.82813,0.17188 -0.32812,0.17187 -0.51562,0.5 -0.17188,0.3125 -0.23438,0.75 -0.0625,0.4375 -0.0625,0.92187 0,0.57813 0.15625,1.29688 0.14063,0.70312 0.4375,1.45312 v 0.0781 h -1.5 q -0.10937,-0.42188 -0.25,-1.23438 -0.14062,-0.8125 -0.14062,-1.60937 0,-0.92188 0.15625,-1.59375 0.14062,-0.6875 0.51562,-1.1875 0.35938,-0.5 0.9375,-0.75 0.5625,-0.26563 1.40625,-0.26563 z m -2.15625,1.46875 h -2.42188 q 0.0312,0.67188 0.10938,1.57813 0.0781,0.90625 0.23437,1.4375 0.17188,0.64062 0.5625,1.03125 0.375,0.39062 1.03125,0.39062 0.75,0 1.14063,-0.45312 0.375,-0.45313 0.375,-1.39063 0,-0.76562 -0.29688,-1.40625 -0.3125,-0.64062 -0.73437,-1.1875 z m 2.07812,-8.82812 q 0.10938,0.42187 0.17188,0.90625 0.0781,0.48437 0.0781,0.875 0,1.32812 -0.71875,2.03125 -0.71875,0.6875 -2.3125,0.6875 h -4.64062 v 1 h -1.23438 v -1 h -2.5 v -1.46875 h 2.5 v -3.03125 h 1.23438 v 3.03125 h 3.98437 q 0.6875,0 1.07813,-0.0312 0.375,-0.0312 0.71875,-0.21875 0.3125,-0.17188 0.45312,-0.46875 0.14063,-0.29688 0.14063,-0.92188 0,-0.35937 -0.0937,-0.75 -0.10938,-0.39062 -0.1875,-0.5625 v -0.0781 z m 0.0781,-20.13282 v 1.46875 h -4.96875 q -0.5625,0 -1.07813,0.0625 -0.53125,0.0469 -0.84375,0.20313 -0.34375,0.1875 -0.51562,0.53125 -0.17188,0.32812 -0.17188,0.95312 0,0.625 0.3125,1.25 0.3125,0.60938 0.78125,1.21875 0.1875,-0.0156 0.42188,-0.0312 0.23437,-0.0156 0.46875,-0.0156 h 5.59375 v 1.46875 h -4.96875 q -0.57813,0 -1.09375,0.0469 -0.53125,0.0469 -0.84375,0.21875 -0.32813,0.17188 -0.5,0.51563 -0.17188,0.32812 -0.17188,0.96875 0,0.59375 0.29688,1.20312 0.29687,0.60938 0.76562,1.20313 h 6.51563 v 1.46875 h -8.73438 v -1.46875 h 0.96875 q -0.5625,-0.6875 -0.875,-1.35938 -0.32812,-0.6875 -0.32812,-1.46875 0,-0.89062 0.375,-1.5 0.375,-0.625 1.03125,-0.9375 -0.75,-0.89062 -1.07813,-1.625 -0.32812,-0.73437 -0.32812,-1.5625 0,-1.4375 0.875,-2.125 0.85937,-0.6875 2.42187,-0.6875 z m 0,-9.60937 v 1.46875 h -0.9375 q 0.14062,0.1875 0.375,0.53125 0.23437,0.32812 0.375,0.64062 0.1875,0.35938 0.3125,0.84375 0.125,0.46875 0.125,1.10938 0,1.1875 -0.78125,2.01562 -0.79688,0.8125 -2,0.8125 -1,0 -1.60938,-0.42187 -0.60937,-0.4375 -0.96875,-1.21875 -0.34375,-0.79688 -0.46875,-1.90625 -0.125,-1.125 -0.1875,-2.40625 h -0.23437 q -0.5,0 -0.82813,0.17187 -0.32812,0.17188 -0.51562,0.5 -0.17188,0.3125 -0.23438,0.75 -0.0625,0.4375 -0.0625,0.92188 0,0.57812 0.15625,1.29687 0.14063,0.70313 0.4375,1.45313 v 0.0781 h -1.5 q -0.10937,-0.42187 -0.25,-1.23437 -0.14062,-0.8125 -0.14062,-1.60938 0,-0.92187 0.15625,-1.59375 0.14062,-0.6875 0.51562,-1.1875 0.35938,-0.5 0.9375,-0.75 0.5625,-0.26562 1.40625,-0.26562 z m -2.15625,1.46875 h -2.42188 q 0.0312,0.67187 0.10938,1.57812 0.0781,0.90625 0.23437,1.4375 0.17188,0.64063 0.5625,1.03125 0.375,0.39063 1.03125,0.39063 0.75,0 1.14063,-0.45313 0.375,-0.45312 0.375,-1.39062 0,-0.76563 -0.29688,-1.40625 -0.3125,-0.64063 -0.73437,-1.1875 z m 2.07812,-8.82813 q 0.10938,0.42188 0.17188,0.90625 0.0781,0.48438 0.0781,0.875 0,1.32813 -0.71875,2.03125 -0.71875,0.6875 -2.3125,0.6875 h -4.64062 v 1 h -1.23438 v -1 h -2.5 v -1.46875 h 2.5 v -3.03125 h 1.23438 v 3.03125 h 3.98437 q 0.6875,0 1.07813,-0.0312 0.375,-0.0312 0.71875,-0.21875 0.3125,-0.17187 0.45312,-0.46875 0.14063,-0.29687 0.14063,-0.92187 0,-0.35938 -0.0937,-0.75 -0.10938,-0.39063 -0.1875,-0.5625 v -0.0781 z m -0.46875,-8.22656 q 0.34375,0.73438 0.54688,1.40625 0.20312,0.65625 0.20312,1.39063 0,0.95312 -0.28125,1.75 -0.28125,0.78125 -0.84375,1.34375 -0.5625,0.5625 -1.42187,0.875 -0.85938,0.3125 -2.01563,0.3125 -2.14062,0 -3.35937,-1.17188 -1.21875,-1.17187 -1.21875,-3.10937 0,-0.75 0.21875,-1.46875 0.20312,-0.71875 0.51562,-1.32813 h 1.625 v 0.0781 q -0.51562,0.67187 -0.79687,1.39062 -0.28125,0.71875 -0.28125,1.39063 0,1.25 0.84375,1.98437 0.82812,0.71875 2.45312,0.71875 1.57813,0 2.4375,-0.70312 0.84375,-0.71875 0.84375,-2 0,-0.4375 -0.10937,-0.89063 -0.125,-0.46875 -0.3125,-0.84375 -0.17188,-0.3125 -0.34375,-0.59375 -0.1875,-0.28125 -0.32813,-0.45312 v -0.0781 z m 0.54688,-9.17969 v 1.46875 h -4.96875 q -0.60938,0 -1.125,0.0781 -0.53125,0.0625 -0.82813,0.25 -0.32812,0.20312 -0.48437,0.57812 -0.17188,0.35938 -0.17188,0.9375 0,0.60938 0.29688,1.26563 0.29687,0.65625 0.76562,1.25 h 6.51563 v 1.46875 h -12.15625 v -1.46875 h 4.39062 q -0.5625,-0.6875 -0.875,-1.42188 -0.32812,-0.73437 -0.32812,-1.5 0,-1.42187 0.85937,-2.15625 0.84375,-0.75 2.4375,-0.75 z"
           inkscape:connector-curvature="0"
           style="fill:#000000;fill-rule:nonzero" />
        <path
           id="path1132"
           d="m 795.2887,138.88452 v 0 c 0,-10.7065 8.84149,-19.38583 19.74805,-19.38583 v 0 c 5.23748,0 10.26049,2.04242 13.96399,5.67797 3.70343,3.63555 5.78405,8.56641 5.78405,13.70786 v 0 c 0,10.70648 -8.84149,19.38582 -19.74804,19.38582 v 0 c -10.90656,0 -19.74805,-8.67934 -19.74805,-19.38582 z"
           inkscape:connector-curvature="0"
           style="fill:#f2c85b;fill-opacity:0.52249995;fill-rule:evenodd" />
        <path
           id="path1134"
           d="m 795.2887,138.88452 v 0 c 0,-10.7065 8.84149,-19.38583 19.74805,-19.38583 v 0 c 5.23748,0 10.26049,2.04242 13.96399,5.67797 3.70343,3.63555 5.78405,8.56641 5.78405,13.70786 v 0 c 0,10.70648 -8.84149,19.38582 -19.74804,19.38582 v 0 c -10.90656,0 -19.74805,-8.67934 -19.74805,-19.38582 z"
           inkscape:connector-curvature="0"
           style="fill-rule:evenodd;stroke:#595959;stroke-width:1;stroke-linecap:butt;stroke-linejoin:round" />
        <path
           id="path1136"
           d="m 813.95294,138.88452 v 0 c 0,-10.7065 8.84149,-19.38583 19.74805,-19.38583 v 0 c 5.23749,0 10.2605,2.04242 13.96393,5.67797 3.70349,3.63555 5.78411,8.56641 5.78411,13.70786 v 0 c 0,10.70648 -8.84149,19.38582 -19.74804,19.38582 v 0 c -10.90656,0 -19.74805,-8.67934 -19.74805,-19.38582 z"
           inkscape:connector-curvature="0"
           style="fill:#fba451;fill-opacity:0.55609999;fill-rule:evenodd" />
        <path
           id="path1138"
           d="m 813.95294,138.88452 v 0 c 0,-10.7065 8.84149,-19.38583 19.74805,-19.38583 v 0 c 5.23749,0 10.2605,2.04242 13.96393,5.67797 3.70349,3.63555 5.78411,8.56641 5.78411,13.70786 v 0 c 0,10.70648 -8.84149,19.38582 -19.74804,19.38582 v 0 c -10.90656,0 -19.74805,-8.67934 -19.74805,-19.38582 z"
           inkscape:connector-curvature="0"
           style="fill-rule:evenodd;stroke:#595959;stroke-width:1;stroke-linecap:butt;stroke-linejoin:round" />
        <path
           id="path1140"
           d="m 788.6207,280.3727 v 0 c 0,-10.70651 8.84149,-19.38583 19.74805,-19.38583 v 0 c 5.23749,0 10.2605,2.04242 13.96399,5.67797 3.70343,3.63556 5.78405,8.56641 5.78405,13.70786 v 0 c 0,10.70648 -8.84149,19.38583 -19.74804,19.38583 v 0 c -10.90656,0 -19.74805,-8.67935 -19.74805,-19.38583 z"
           inkscape:connector-curvature="0"
           style="fill:#f2c85b;fill-opacity:0.52249995;fill-rule:evenodd" />
        <path
           id="path1142"
           d="m 788.6207,280.3727 v 0 c 0,-10.70651 8.84149,-19.38583 19.74805,-19.38583 v 0 c 5.23749,0 10.2605,2.04242 13.96399,5.67797 3.70343,3.63556 5.78405,8.56641 5.78405,13.70786 v 0 c 0,10.70648 -8.84149,19.38583 -19.74804,19.38583 v 0 c -10.90656,0 -19.74805,-8.67935 -19.74805,-19.38583 z"
           inkscape:connector-curvature="0"
           style="fill-rule:evenodd;stroke:#595959;stroke-width:1;stroke-linecap:butt;stroke-linejoin:round" />
        <path
           id="path1144"
           d="m 823.285,280.3727 v 0 c 0,-10.70651 8.84149,-19.38583 19.74805,-19.38583 v 0 c 5.23748,0 10.26049,2.04242 13.96393,5.67797 3.70349,3.63556 5.78405,8.56641 5.78405,13.70786 v 0 c 0,10.70648 -8.84149,19.38583 -19.74798,19.38583 v 0 c -10.90656,0 -19.74805,-8.67935 -19.74805,-19.38583 z"
           inkscape:connector-curvature="0"
           style="fill:#fba451;fill-opacity:0.55609999;fill-rule:evenodd" />
        <path
           id="path1146"
           d="m 823.285,280.3727 v 0 c 0,-10.70651 8.84149,-19.38583 19.74805,-19.38583 v 0 c 5.23748,0 10.26049,2.04242 13.96393,5.67797 3.70349,3.63556 5.78405,8.56641 5.78405,13.70786 v 0 c 0,10.70648 -8.84149,19.38583 -19.74798,19.38583 v 0 c -10.90656,0 -19.74805,-8.67935 -19.74805,-19.38583 z"
           inkscape:connector-curvature="0"
           style="fill-rule:evenodd;stroke:#595959;stroke-width:1;stroke-linecap:butt;stroke-linejoin:round" />
        <path
           id="path1148"
           d="m 46.204723,503.01575 v 0 c 0,-4.52264 3.292648,-8.18896 7.354332,-8.18896 v 0 c 1.950489,0 3.821091,0.86276 5.200298,2.39849 1.379204,1.53571 2.154034,3.61863 2.154034,5.79047 v 0 c 0,4.52264 -3.292648,8.18896 -7.354332,8.18896 v 0 c -4.061684,0 -7.354332,-3.66632 -7.354332,-8.18896 z"
           inkscape:connector-curvature="0"
           style="fill:#fba451;fill-opacity:0.55609999;fill-rule:evenodd" />
        <path
           id="path1150"
           d="m 46.204723,503.01575 v 0 c 0,-4.52264 3.292648,-8.18896 7.354332,-8.18896 v 0 c 1.950489,0 3.821091,0.86276 5.200298,2.39849 1.379204,1.53571 2.154034,3.61863 2.154034,5.79047 v 0 c 0,4.52264 -3.292648,8.18896 -7.354332,8.18896 v 0 c -4.061684,0 -7.354332,-3.66632 -7.354332,-8.18896 z"
           inkscape:connector-curvature="0"
           style="fill-rule:evenodd;stroke:#595959;stroke-width:1;stroke-linecap:butt;stroke-linejoin:round" />
        <path
           id="path1152"
           d="m 175.00262,152.48557 v 0 c 0,-2.76578 2.2421,-5.00787 5.00787,-5.00787 v 0 c 1.32817,0 2.60195,0.52761 3.54111,1.46676 0.93915,0.93917 1.46677,2.21294 1.46677,3.54111 v 0 c 0,2.76578 -2.2421,5.00787 -5.00788,5.00787 v 0 c -2.76577,0 -5.00787,-2.24209 -5.00787,-5.00787 z"
           inkscape:connector-curvature="0"
           style="fill:#f2c85b;fill-opacity:0.95470001;fill-rule:evenodd" />
        <path
           id="path1154"
           d="m 175.00262,152.48557 v 0 c 0,-2.76578 2.2421,-5.00787 5.00787,-5.00787 v 0 c 1.32817,0 2.60195,0.52761 3.54111,1.46676 0.93915,0.93917 1.46677,2.21294 1.46677,3.54111 v 0 c 0,2.76578 -2.2421,5.00787 -5.00788,5.00787 v 0 c -2.76577,0 -5.00787,-2.24209 -5.00787,-5.00787 z"
           inkscape:connector-curvature="0"
           style="fill-rule:evenodd;stroke:#595959;stroke-width:1;stroke-linecap:butt;stroke-linejoin:round" />
        <path
           id="path1156"
           d="m 189.00262,144.61679 v 0 c 0,-2.76576 2.2421,-5.00787 5.00787,-5.00787 v 0 c 1.32817,0 2.60195,0.52761 3.54111,1.46678 0.93915,0.93916 1.46677,2.21292 1.46677,3.54109 v 0 c 0,2.76578 -2.2421,5.00787 -5.00788,5.00787 v 0 c -2.76577,0 -5.00787,-2.24209 -5.00787,-5.00787 z"
           inkscape:connector-curvature="0"
           style="fill:#f2c85b;fill-opacity:0.95470001;fill-rule:evenodd" />
        <path
           id="path1158"
           d="m 189.00262,144.61679 v 0 c 0,-2.76576 2.2421,-5.00787 5.00787,-5.00787 v 0 c 1.32817,0 2.60195,0.52761 3.54111,1.46678 0.93915,0.93916 1.46677,2.21292 1.46677,3.54109 v 0 c 0,2.76578 -2.2421,5.00787 -5.00788,5.00787 v 0 c -2.76577,0 -5.00787,-2.24209 -5.00787,-5.00787 z"
           inkscape:connector-curvature="0"
           style="fill-rule:evenodd;stroke:#595959;stroke-width:1;stroke-linecap:butt;stroke-linejoin:round" />
        <path
           id="path1160"
           d="m 203.50131,132.11548 v 0 c 0,-2.76576 2.2421,-5.00787 5.00787,-5.00787 v 0 c 1.32817,0 2.60195,0.52761 3.54111,1.46678 0.93915,0.93916 1.46677,2.21292 1.46677,3.54109 v 0 c 0,2.76578 -2.2421,5.00787 -5.00788,5.00787 v 0 c -2.76577,0 -5.00787,-2.24209 -5.00787,-5.00787 z"
           inkscape:connector-curvature="0"
           style="fill:#f2c85b;fill-opacity:0.95470001;fill-rule:evenodd" />
        <path
           id="path1162"
           d="m 203.50131,132.11548 v 0 c 0,-2.76576 2.2421,-5.00787 5.00787,-5.00787 v 0 c 1.32817,0 2.60195,0.52761 3.54111,1.46678 0.93915,0.93916 1.46677,2.21292 1.46677,3.54109 v 0 c 0,2.76578 -2.2421,5.00787 -5.00788,5.00787 v 0 c -2.76577,0 -5.00787,-2.24209 -5.00787,-5.00787 z"
           inkscape:connector-curvature="0"
           style="fill-rule:evenodd;stroke:#595959;stroke-width:1;stroke-linecap:butt;stroke-linejoin:round" />
        <path
           id="path1164"
           d="m 119.84777,152.48557 v 0 c 0,-2.76578 2.2421,-5.00787 5.00787,-5.00787 v 0 c 1.32817,0 2.60195,0.52761 3.5411,1.46676 0.93917,0.93917 1.46677,2.21294 1.46677,3.54111 v 0 c 0,2.76578 -2.2421,5.00787 -5.00787,5.00787 v 0 c -2.76577,0 -5.00787,-2.24209 -5.00787,-5.00787 z"
           inkscape:connector-curvature="0"
           style="fill:#f2c85b;fill-opacity:0.95470001;fill-rule:evenodd" />
        <path
           id="path1166"
           d="m 119.84777,152.48557 v 0 c 0,-2.76578 2.2421,-5.00787 5.00787,-5.00787 v 0 c 1.32817,0 2.60195,0.52761 3.5411,1.46676 0.93917,0.93917 1.46677,2.21294 1.46677,3.54111 v 0 c 0,2.76578 -2.2421,5.00787 -5.00787,5.00787 v 0 c -2.76577,0 -5.00787,-2.24209 -5.00787,-5.00787 z"
           inkscape:connector-curvature="0"
           style="fill-rule:evenodd;stroke:#595959;stroke-width:1;stroke-linecap:butt;stroke-linejoin:round" />
        <path
           id="path1168"
           d="m 105.84777,144.61679 v 0 c 0,-2.76576 2.2421,-5.00787 5.00787,-5.00787 v 0 c 1.32817,0 2.60195,0.52761 3.5411,1.46678 0.93917,0.93916 1.46678,2.21292 1.46678,3.54109 v 0 c 0,2.76578 -2.24211,5.00787 -5.00788,5.00787 v 0 c -2.76577,0 -5.00787,-2.24209 -5.00787,-5.00787 z"
           inkscape:connector-curvature="0"
           style="fill:#f2c85b;fill-opacity:0.95470001;fill-rule:evenodd" />
        <path
           id="path1170"
           d="m 105.84777,144.61679 v 0 c 0,-2.76576 2.2421,-5.00787 5.00787,-5.00787 v 0 c 1.32817,0 2.60195,0.52761 3.5411,1.46678 0.93917,0.93916 1.46678,2.21292 1.46678,3.54109 v 0 c 0,2.76578 -2.24211,5.00787 -5.00788,5.00787 v 0 c -2.76577,0 -5.00787,-2.24209 -5.00787,-5.00787 z"
           inkscape:connector-curvature="0"
           style="fill-rule:evenodd;stroke:#595959;stroke-width:1;stroke-linecap:butt;stroke-linejoin:round" />
        <path
           id="path1172"
           d="m 90.84777,129.61679 v 0 c 0,-2.76576 2.242104,-5.00787 5.007873,-5.00787 v 0 c 1.328171,0 2.601945,0.52761 3.5411,1.46678 0.939167,0.93915 1.466777,2.21292 1.466777,3.54109 v 0 c 0,2.76578 -2.242107,5.00787 -5.007877,5.00787 v 0 c -2.76577,0 -5.007873,-2.24209 -5.007873,-5.00787 z"
           inkscape:connector-curvature="0"
           style="fill:#f2c85b;fill-opacity:0.95470001;fill-rule:evenodd" />
        <path
           id="path1174"
           d="m 90.84777,129.61679 v 0 c 0,-2.76576 2.242104,-5.00787 5.007873,-5.00787 v 0 c 1.328171,0 2.601945,0.52761 3.5411,1.46678 0.939167,0.93915 1.466777,2.21292 1.466777,3.54109 v 0 c 0,2.76578 -2.242107,5.00787 -5.007877,5.00787 v 0 c -2.76577,0 -5.007873,-2.24209 -5.007873,-5.00787 z"
           inkscape:connector-curvature="0"
           style="fill-rule:evenodd;stroke:#595959;stroke-width:1;stroke-linecap:butt;stroke-linejoin:round" />
        <path
           id="path1176"
           d="m 148.25586,150.27306 14.23622,-0.53545 0.47244,13.48032 -14.23622,0.53543 z"
           inkscape:connector-curvature="0"
           style="fill:#4e1c80;fill-opacity:0.93819999;fill-rule:evenodd" />
        <path
           id="path1178"
           d="m 148.25586,150.27306 14.23622,-0.53545 0.47244,13.48032 -14.23622,0.53543 z"
           inkscape:connector-curvature="0"
           style="fill-rule:evenodd;stroke:#595959;stroke-width:1;stroke-linecap:butt;stroke-linejoin:round" />
      </g>
    </g>
  </g>
</svg>
